<svg viewBox="0 0 1121.71 468.05">
  <g class="logoShadow">
    <path d="M123.15,182.97c28.08,.54,44.46,13.14,44.46,32.4,0,21.24-14.76,33.84-42.84,33.84-16.92,0-23.76,0-41.04-.9H36.39v-16.38h11.16v-80.46h-11.16v-16.38h47.34c18.72,0,21.96-.9,34.2-.9,21.6,0,34.38,8.82,34.38,25.02,0,14.04-10.62,23.4-29.16,23.76Zm-22.68-1.8h.9c13.68,0,21.6-6.84,21.6-18.36,0-10.62-5.76-17.46-20.88-17.46h-1.62v35.82Zm0,10.62v46.44h2.16c15.48,0,23.94-8.1,23.94-22.86s-8.64-23.58-25.56-23.58h-.54Z"/>
    <path d="M174.63,212.13c0-22.86,18.54-38.88,46.44-38.88,26.46,0,45.18,16.02,45.18,38.88s-19.08,38.7-46.08,38.7-45.54-15.66-45.54-38.7Zm43.74,0c0,10.08,7.2,17.46,16.92,17.46s16.92-7.74,16.92-18-7.2-17.46-16.92-17.46-16.92,7.38-16.92,18Z"/>
    <path d="M309.27,248.3h-39.24v-16.38h8.64v-93.96l-12.42,6.12v-21.96h53.28v62.64c5.76-6.84,14.76-10.98,27-10.98,22.68,0,39.6,14.76,39.6,37.98s-17.46,38.16-40.32,38.16c-15.66,0-25.74-6.48-30.78-16.92l-5.76,15.3Zm10.08-36.9c0,11.7,4.14,18.18,11.34,18.18,8.1,0,12.78-6.3,12.78-17.82s-4.32-18-12.78-18c-7.2,0-11.34,6.48-11.34,17.64Z"/>
    <path d="M439.77,175.59h14.76v16.38h-15.12v29.7c0,7.02,3.24,9.9,8.28,9.9,3.06,0,5.58-.72,6.84-1.44v14.04s-7.56,5.76-23.76,5.76c-20.7,0-30.96-9.36-30.96-31.86v-26.1h-12.24v-16.38h12.24v-23.4l39.96-7.2v30.6Z"/>
    <path d="M515.19,235.53c-5.22,9.18-15.84,14.76-29.34,14.76-15.12,0-25.92-8.28-25.92-21.6s10.98-22.5,30.42-22.5c9.54,0,16.56,2.52,21.6,5.94,0-15.84-19.98-17.64-36.54-10.44-.36,.18-6.3-20.16-6.3-20.16,9-4.14,21.24-7.74,36.72-7.74,30.24,0,47.52,12.24,47.52,42.3v15.84l12.06-3.6v19.98h-46.26l-3.96-12.78Zm-14.76-16.02c-6.48,0-10.26,3.24-10.26,7.92s3.24,7.56,9.36,7.56,11.52-3.6,13.32-10.62c-2.88-2.52-6.48-4.86-12.42-4.86Z"/>
    <path d="M622.83,231.93h9.18v16.38h-58.68v-16.38h9v-39.96h-9v-16.38h49.5v56.34Zm-21.78-106.2c12.96,0,22.14,9,22.14,21.78s-9.18,21.78-22.14,21.78-22.32-9-22.32-21.78,9.18-21.78,22.32-21.78Z"/>
    <path d="M641.37,248.3v-16.38h8.46v-93.96l-14.04,6.12v-21.96h54.9v109.8h8.28v16.38h-57.6Z"/>
    <path d="M212.17,278.29c41.04,0,65.88,23.22,65.88,56.7s-24.66,56.52-65.7,56.52H125.95v-16.38h11.16v-80.46h-11.16v-16.38h86.22Zm-21.6,10.98v91.08h1.62c20.52,0,34.02-15.3,34.02-45.54s-13.32-45.54-32.94-45.54h-2.7Z"/>
    <path d="M285.61,355.33c0-22.86,18.54-38.88,46.44-38.88,26.46,0,45.18,16.02,45.18,38.88s-19.08,38.7-46.08,38.7-45.54-15.66-45.54-38.7Zm43.74,0c0,10.08,7.2,17.46,16.92,17.46s16.92-7.74,16.92-18-7.2-17.46-16.92-17.46-16.92,7.38-16.92,18Z"/>
    <path d="M434.47,375.13h4.5v16.38h-53.82v-16.38h9.18v-39.96h-9.18v-16.38h42.84l4.14,16.56c5.22-10.62,14.94-18.36,29.52-18.36,13.14,0,22.32,6.3,26.64,18,5.4-10.44,15.3-18,29.88-18,18.54,0,30.06,12.06,30.06,34.56v23.58h8.82v16.38h-54v-16.38h4.86v-24.3c0-7.38-2.88-10.8-7.56-10.8-6.48,0-9.36,4.5-9.36,13.86v21.24h4.68v16.38h-49.32v-16.38h5.04v-24.3c0-7.38-2.7-10.8-7.74-10.8s-7.92,3.06-9.18,9.18v25.92Z"/>
    <path d="M616.99,375.13h9.18v16.38h-58.68v-16.38h9v-39.96h-9v-16.38h49.5v56.34Zm-21.78-106.2c12.96,0,22.14,9,22.14,21.78s-9.18,21.78-22.14,21.78-22.32-9-22.32-21.78,9.18-21.78,22.32-21.78Z"/>
    <path d="M681.61,338.77c5.58-14.94,17.1-21.78,32.4-21.78,18.72,0,30.78,11.88,30.78,34.38v23.76h9v16.38h-54.9v-16.38h5.22v-23.58c0-7.56-3.42-10.8-8.28-10.8-5.4,0-9.18,2.52-10.8,13.32v21.06h4.86v16.38h-54.72v-16.38h9.18v-39.96h-9.18v-16.38h41.04l5.4,19.98Z"/>
    <path d="M759.19,355.33c0-22.86,18.54-38.88,46.44-38.88,26.46,0,45.18,16.02,45.18,38.88s-19.08,38.7-46.08,38.7-45.54-15.66-45.54-38.7Zm43.74,0c0,10.08,7.2,17.46,16.92,17.46s16.92-7.74,16.92-18-7.2-17.46-16.92-17.46-16.92,7.38-16.92,18Z"/>
    <path d="M953.04,318.07l8.82,16.2-55.08,34.02c2.7,1.62,5.76,2.52,9.54,2.52,11.16,0,20.52-7.02,27.54-17.46l17.46,15.48c-10.26,13.86-26.1,24.66-51.48,24.66-31.5,0-51.48-14.58-51.48-38.16s18.72-38.34,46.98-38.34c14.4,0,25.2,5.4,32.58,12.42,.18,0,15.12-11.34,15.12-11.34Zm-32.58,24.66c-1.98-3.42-5.4-5.4-9.9-5.4-7.92,0-12.78,5.76-12.78,15.48,0,2.34,.36,4.32,1.26,6.3l21.42-16.38Z"/>
    <path d="M992.65,384.85v6.66h-20.34v-23.76h14.58l17.28,13.68c5.22,0,7.92-1.08,7.92-4.86s-5.58-5.94-17.28-10.08c-13.32-4.68-25.2-9.18-25.2-23.4,0-13.14,10.44-26.1,35.28-26.1,13.32,0,26.28,3.24,32.58,8.46v-6.66h18.72v23.76h-14.76l-15.48-13.5c-5.22,0-7.92,2.34-7.92,6.12s3.42,4.5,15.66,7.74c13.68,3.6,26.82,9.9,26.82,24.12,0,13.14-10.44,26.46-35.28,26.46-15.12,0-26.28-3.42-32.58-8.64Z"/>
    <path d="M1096.36,343.97h-2.74c-11.52-9.84-26.93-30.37-26.93-59.9s11.38-45.28,27.5-45.28,27.5,16.87,27.5,45.28c0,29.81-13.82,50.06-25.34,59.9Zm-2.16,6.86c12.78,0,21.24,9,21.24,21.42s-8.46,21.24-21.24,21.24-21.06-9-21.06-21.24,8.46-21.42,21.06-21.42Z"/>
  </g>
  <g class="logo">
    <path d="M121.15,172.97c28.08,.54,44.46,13.14,44.46,32.4,0,21.24-14.76,33.84-42.84,33.84-16.92,0-23.76,0-41.04-.9H34.39v-16.38h11.16v-80.46h-11.16v-16.38h47.34c18.72,0,21.96-.9,34.2-.9,21.6,0,34.38,8.82,34.38,25.02,0,14.04-10.62,23.4-29.16,23.76Zm-22.68-1.8h.9c13.68,0,21.6-6.84,21.6-18.36,0-10.62-5.76-17.46-20.88-17.46h-1.62v35.82Zm0,10.62v46.44h2.16c15.48,0,23.94-8.1,23.94-22.86s-8.64-23.58-25.56-23.58h-.54Z"/>
    <path d="M172.63,202.13c0-22.86,18.54-38.88,46.44-38.88,26.46,0,45.18,16.02,45.18,38.88s-19.08,38.7-46.08,38.7-45.54-15.66-45.54-38.7Zm43.74,0c0,10.08,7.2,17.46,16.92,17.46s16.92-7.74,16.92-18-7.2-17.46-16.92-17.46-16.92,7.38-16.92,18Z"/>
    <path d="M307.27,238.3h-39.24v-16.38h8.64V127.97l-12.42,6.12v-21.96h53.28v62.64c5.76-6.84,14.76-10.98,27-10.98,22.68,0,39.6,14.76,39.6,37.98s-17.46,38.16-40.32,38.16c-15.66,0-25.74-6.48-30.78-16.92l-5.76,15.3Zm10.08-36.9c0,11.7,4.14,18.18,11.34,18.18,8.1,0,12.78-6.3,12.78-17.82s-4.32-18-12.78-18c-7.2,0-11.34,6.48-11.34,17.64Z"/>
    <path d="M437.77,165.59h14.76v16.38h-15.12v29.7c0,7.02,3.24,9.9,8.28,9.9,3.06,0,5.58-.72,6.84-1.44v14.04s-7.56,5.76-23.76,5.76c-20.7,0-30.96-9.36-30.96-31.86v-26.1h-12.24v-16.38h12.24v-23.4l39.96-7.2v30.6Z"/>
    <path d="M513.19,225.53c-5.22,9.18-15.84,14.76-29.34,14.76-15.12,0-25.92-8.28-25.92-21.6s10.98-22.5,30.42-22.5c9.54,0,16.56,2.52,21.6,5.94,0-15.84-19.98-17.64-36.54-10.44-.36,.18-6.3-20.16-6.3-20.16,9-4.14,21.24-7.74,36.72-7.74,30.24,0,47.52,12.24,47.52,42.3v15.84l12.06-3.6v19.98h-46.26l-3.96-12.78Zm-14.76-16.02c-6.48,0-10.26,3.24-10.26,7.92s3.24,7.56,9.36,7.56,11.52-3.6,13.32-10.62c-2.88-2.52-6.48-4.86-12.42-4.86Z"/>
    <path d="M620.83,221.93h9.18v16.38h-58.68v-16.38h9v-39.96h-9v-16.38h49.5v56.34Zm-21.78-106.2c12.96,0,22.14,9,22.14,21.78s-9.18,21.78-22.14,21.78-22.32-9-22.32-21.78,9.18-21.78,22.32-21.78Z"/>
    <path d="M639.37,238.3v-16.38h8.46V127.97l-14.04,6.12v-21.96h54.9v109.8h8.28v16.38h-57.6Z"/>
    <path d="M210.17,268.29c41.04,0,65.88,23.22,65.88,56.7s-24.66,56.52-65.7,56.52H123.95v-16.38h11.16v-80.46h-11.16v-16.38h86.22Zm-21.6,10.98v91.08h1.62c20.52,0,34.02-15.3,34.02-45.54s-13.32-45.54-32.94-45.54h-2.7Z"/>
    <path d="M283.61,345.33c0-22.86,18.54-38.88,46.44-38.88,26.46,0,45.18,16.02,45.18,38.88s-19.08,38.7-46.08,38.7-45.54-15.66-45.54-38.7Zm43.74,0c0,10.08,7.2,17.46,16.92,17.46s16.92-7.74,16.92-18-7.2-17.46-16.92-17.46-16.92,7.38-16.92,18Z"/>
    <path d="M432.47,365.13h4.5v16.38h-53.82v-16.38h9.18v-39.96h-9.18v-16.38h42.84l4.14,16.56c5.22-10.62,14.94-18.36,29.52-18.36,13.14,0,22.32,6.3,26.64,18,5.4-10.44,15.3-18,29.88-18,18.54,0,30.06,12.06,30.06,34.56v23.58h8.82v16.38h-54v-16.38h4.86v-24.3c0-7.38-2.88-10.8-7.56-10.8-6.48,0-9.36,4.5-9.36,13.86v21.24h4.68v16.38h-49.32v-16.38h5.04v-24.3c0-7.38-2.7-10.8-7.74-10.8s-7.92,3.06-9.18,9.18v25.92Z"/>
    <path d="M614.99,365.13h9.18v16.38h-58.68v-16.38h9v-39.96h-9v-16.38h49.5v56.34Zm-21.78-106.2c12.96,0,22.14,9,22.14,21.78s-9.18,21.78-22.14,21.78-22.32-9-22.32-21.78,9.18-21.78,22.32-21.78Z"/>
    <path d="M679.61,328.77c5.58-14.94,17.1-21.78,32.4-21.78,18.72,0,30.78,11.88,30.78,34.38v23.76h9v16.38h-54.9v-16.38h5.22v-23.58c0-7.56-3.42-10.8-8.28-10.8-5.4,0-9.18,2.52-10.8,13.32v21.06h4.86v16.38h-54.72v-16.38h9.18v-39.96h-9.18v-16.38h41.04l5.4,19.98Z"/>
    <path d="M757.19,345.33c0-22.86,18.54-38.88,46.44-38.88,26.46,0,45.18,16.02,45.18,38.88s-19.08,38.7-46.08,38.7-45.54-15.66-45.54-38.7Zm43.74,0c0,10.08,7.2,17.46,16.92,17.46s16.92-7.74,16.92-18-7.2-17.46-16.92-17.46-16.92,7.38-16.92,18Z"/>
    <path d="M951.04,308.07l8.82,16.2-55.08,34.02c2.7,1.62,5.76,2.52,9.54,2.52,11.16,0,20.52-7.02,27.54-17.46l17.46,15.48c-10.26,13.86-26.1,24.66-51.48,24.66-31.5,0-51.48-14.58-51.48-38.16s18.72-38.34,46.98-38.34c14.4,0,25.2,5.4,32.58,12.42,.18,0,15.12-11.34,15.12-11.34Zm-32.58,24.66c-1.98-3.42-5.4-5.4-9.9-5.4-7.92,0-12.78,5.76-12.78,15.48,0,2.34,.36,4.32,1.26,6.3l21.42-16.38Z"/>
    <path d="M990.65,374.85v6.66h-20.34v-23.76h14.58l17.28,13.68c5.22,0,7.92-1.08,7.92-4.86s-5.58-5.94-17.28-10.08c-13.32-4.68-25.2-9.18-25.2-23.4,0-13.14,10.44-26.1,35.28-26.1,13.32,0,26.28,3.24,32.58,8.46v-6.66h18.72v23.76h-14.76l-15.48-13.5c-5.22,0-7.92,2.34-7.92,6.12s3.42,4.5,15.66,7.74c13.68,3.6,26.82,9.9,26.82,24.12,0,13.14-10.44,26.46-35.28,26.46-15.12,0-26.28-3.42-32.58-8.64Z"/>
    <path d="M1094.36,331.16h-2.74c-11.52-9.84-26.93-30.37-26.93-59.9s11.38-45.28,27.5-45.28,27.5,16.87,27.5,45.28c0,29.81-13.82,50.06-25.34,59.9Zm-2.16,9.67c12.78,0,21.24,9,21.24,21.42s-8.46,21.24-21.24,21.24-21.06-9-21.06-21.24,8.46-21.42,21.06-21.42Z"/>
  </g>
  <g class="b3_descend">
    <g class="bottom">
      <path class="left" d="M0,123.96v106.81c0,5.36,2.86,10.31,7.5,12.99l92.5,53.4v106.81c0,5.36,2.86,10.31,7.5,12.99l85,49.07c4.64,2.68,10.36,2.68,15,0l85-49.07c4.64-2.68,7.5-7.63,7.5-12.99v-106.81L0,123.96Z"/>
      <path class="right" d="M200,468.05c2.59,0,5.18-.67,7.5-2.01l85-49.07c4.64-2.68,7.5-7.63,7.5-12.99v-15l-100,64.07v15Z"/>
    </g>
    <path class="edge" d="M192.5,104.63L107.5,55.56c-4.64-2.68-10.36-2.68-15,0L7.5,104.63C2.86,107.31,0,112.26,0,117.62v98.15c0,5.36,2.86,10.31,7.5,12.99l92.5,53.41v106.81c0,5.36,2.86,10.31,7.5,12.99l85,49.08c4.64,2.68,10.36,2.68,15,0l85-49.08c4.64-2.68,7.5-7.63,7.5-12.99v-98.15c0-5.36-2.86-10.31-7.5-12.99l-92.5-53.41V117.62c0-5.36-2.86-10.31-7.5-12.99Z"/>
    <path class="face" d="M188.5,106.94L107.5,60.17c-4.64-2.68-10.36-2.68-15,0L11.5,106.94c-4.64,2.68-7.5,7.63-7.5,12.99v93.53c0,5.36,2.86,10.31,7.5,12.99l92.5,53.4v106.81c0,5.36,2.86,10.31,7.5,12.99l81,46.76c4.64,2.68,10.36,2.68,15,0l81-46.76c4.64-2.68,7.5-7.63,7.5-12.99v-93.53c0-5.36-2.86-10.31-7.5-12.99l-92.5-53.4V119.93c0-5.36-2.86-10.31-7.5-12.99Z"/>
    <path class="bBottom" d="M121.15,157.97c28.08,.54,44.46,13.14,44.46,32.4,0,21.24-14.76,33.84-42.84,33.84-16.92,0-23.76,0-41.04-.9H34.39v-16.38h11.16V126.47h-11.16v-16.38h47.34c18.72,0,21.96-.9,34.2-.9,21.6,0,34.38,8.82,34.38,25.02,0,14.04-10.62,23.4-29.16,23.76Zm-22.68-1.8h.9c13.68,0,21.6-6.84,21.6-18.36,0-10.62-5.76-17.46-20.88-17.46h-1.62v35.82Zm0,10.62v46.44h2.16c15.48,0,23.94-8.1,23.94-22.86s-8.64-23.58-25.56-23.58h-.54Z"/>
    <path class="bFace" d="M122.77,224.2c26.56,0,41.19-11.28,42.7-30.47-1.57-17.62-17.67-29-44.32-29.51v-6.25c17.18-.33,27.54-8.4,28.97-20.76-1.63-14.13-14.08-21.77-34.19-21.77-12.24,0-15.48,.9-34.2,.9H34.39v10.13h11.16v86.71h-11.16v10.13h47.34c17.28,.9,24.12,.9,41.04,.9Zm-24.3-68.04v-35.82h1.62c15.12,0,20.88,6.84,20.88,17.46,0,1.04-.09,2.03-.22,3,.14,1.04,.22,2.12,.22,3.25,0,11.52-7.92,18.36-21.6,18.36h-.9v-6.25Zm0,57.06v-46.44h.54c16.92,0,25.56,8.46,25.56,23.58,0,1.07-.06,2.1-.15,3.1,.09,1.02,.15,2.06,.15,3.15,0,14.76-8.46,22.86-23.94,22.86h-2.16v-6.25Z"/>
    <path class="dBottom" d="M210.17,283.29c41.04,0,65.88,23.22,65.88,56.7s-24.66,56.52-65.7,56.52H123.95v-16.38h11.16v-80.46h-11.16v-16.38h86.22Zm-21.6,10.98v91.08h1.62c20.52,0,34.02-15.3,34.02-45.54s-13.32-45.54-32.94-45.54h-2.7Z"/>
    <path class="dFace" d="M275.97,343.12c-1.5-31.79-26.05-53.58-65.81-53.58H123.95v10.13h11.16v86.71h-11.16v10.13h86.4c39.75,0,64.13-21.61,65.63-53.39Zm-87.4,48.48v-97.33h2.7c19.62,0,32.94,15.48,32.94,45.54,0,1.06-.02,2.1-.05,3.12,.03,1.03,.05,2.06,.05,3.12,0,30.24-13.5,45.54-34.02,45.54h-1.62Z"/>
    <g class="dotsBottom">
      <path d="M182.22,235.59l-9.37,5.41c-1.25,.72-1.25,2.53,0,3.25l9.37,5.41c1.25,.72,2.82-.18,2.82-1.63v-10.81c0-1.45-1.57-2.35-2.82-1.63Z"/>
      <path d="M153.74,246.26l-9.37,5.41c-1.25,.72-1.25,2.53,0,3.25l9.37,5.41c1.25,.72,2.82-.18,2.82-1.63v-10.81c0-1.45-1.57-2.35-2.82-1.63Z"/>
      <path d="M125.26,256.93l-9.37,5.41c-1.25,.72-1.25,2.53,0,3.25l9.37,5.41c1.25,.72,2.82-.18,2.82-1.63v-10.81c0-1.45-1.57-2.35-2.82-1.63Z"/>
    </g>
    <g class="dotsFace">
      <path d="M182.22,240.6l-7.85,4.53,7.85,4.53c1.25,.72,2.82-.18,2.82-1.63v-5.81c0-1.45-1.57-2.35-2.82-1.63Z"/>
      <path d="M153.74,251.26l-7.85,4.53,7.85,4.53c1.25,.72,2.82-.18,2.82-1.63v-5.81c0-1.45-1.57-2.35-2.82-1.63Z"/>
      <path d="M125.26,261.93l-7.85,4.53,7.85,4.53c1.25,.72,2.82-.18,2.82-1.63v-5.81c0-1.45-1.57-2.35-2.82-1.63Z"/>
    </g>
  </g>
  <g class="text">
    <text class="chicleShadow" transform="translate(101 68.55)"><tspan x="0" y="0">The Bobtail Yearlings present…</tspan></text>
    <text class="chicle" transform="translate(100 63.55)"><tspan x="0" y="0">The Bobtail Yearlings present…</tspan></text>
  </g>
</svg>