<svg viewBox="0 0 100 100">
  <g class="dotsBottom">
    <path d="M19.53,15.49v9a1.57,1.57,0,0,0,2.35,1.35l7.81-4.51a1.56,1.56,0,0,0,0-2.7l-7.81-4.51A1.57,1.57,0,0,0,19.53,15.49Z"/>
    <path d="M19.53,75.49v9a1.57,1.57,0,0,0,2.35,1.35l7.81-4.51a1.56,1.56,0,0,0,0-2.7l-7.81-4.51A1.57,1.57,0,0,0,19.53,75.49Z"/>
    <path d="M69.53,15.49v9a1.57,1.57,0,0,0,2.35,1.35l7.81-4.51a1.56,1.56,0,0,0,0-2.7l-7.81-4.51A1.57,1.57,0,0,0,69.53,15.49Z"/>
    <path d="M44.53,45.49v9a1.57,1.57,0,0,0,2.35,1.35l7.81-4.51a1.56,1.56,0,0,0,0-2.7l-7.81-4.51A1.57,1.57,0,0,0,44.53,45.49Z"/>
    <path d="M69.53,75.49v9a1.57,1.57,0,0,0,2.35,1.35l7.81-4.51a1.56,1.56,0,0,0,0-2.7l-7.81-4.51A1.57,1.57,0,0,0,69.53,75.49Z"/>
  </g>
  <g class="dotsFace">
    <path d="M21.88,25.86,27.7,22.5l-5.82-3.36a1.57,1.57,0,0,0-2.35,1.35v4A1.57,1.57,0,0,0,21.88,25.86Z"/>
    <path d="M21.88,85.86,27.7,82.5l-5.82-3.36a1.57,1.57,0,0,0-2.35,1.35v4A1.57,1.57,0,0,0,21.88,85.86Z"/>
    <path d="M71.88,25.86,77.7,22.5l-5.82-3.36a1.57,1.57,0,0,0-2.35,1.35v4A1.57,1.57,0,0,0,71.88,25.86Z"/>
    <path d="M46.88,55.86,52.7,52.5l-5.82-3.36a1.57,1.57,0,0,0-2.35,1.35v4A1.57,1.57,0,0,0,46.88,55.86Z"/>
    <path d="M71.88,85.86,77.7,82.5l-5.82-3.36a1.57,1.57,0,0,0-2.35,1.35v4A1.57,1.57,0,0,0,71.88,85.86Z"/>
  </g>
</svg>
