<svg viewBox="0 0 100 100">
  <g class="dotsBottom">
    <path d="M67.12,18.5v13a2.25,2.25,0,0,0,3.37,2L81.75,27a2.25,2.25,0,0,0,0-3.9l-11.26-6.5A2.25,2.25,0,0,0,67.12,18.5Z"/>
    <path d="M17.12,68.5v13a2.25,2.25,0,0,0,3.37,2L31.75,77a2.25,2.25,0,0,0,0-3.9l-11.26-6.5A2.25,2.25,0,0,0,17.12,68.5Z"/>
  </g>
  <g class="dotsFace">
    <path d="M70.49,33.45l10.3-6-10.3-5.95a2.25,2.25,0,0,0-3.37,1.95v8A2.25,2.25,0,0,0,70.49,33.45Z"/>
    <path d="M20.49,83.45l10.3-6-10.3-6a2.25,2.25,0,0,0-3.37,2v8A2.25,2.25,0,0,0,20.49,83.45Z"/>
  </g>
</svg>
