<svg viewBox="0 0 100 100">
  <g class="dotsBottom">
    <path d="M19.53,20.49v9a1.57,1.57,0,0,0,2.35,1.35l7.81-4.51a1.56,1.56,0,0,0,0-2.7l-7.81-4.51A1.57,1.57,0,0,0,19.53,20.49Z"/>
    <path d="M19.53,70.49v9a1.57,1.57,0,0,0,2.35,1.35l7.81-4.51a1.56,1.56,0,0,0,0-2.7l-7.81-4.51A1.57,1.57,0,0,0,19.53,70.49Z"/>
    <path d="M69.53,20.49v9a1.57,1.57,0,0,0,2.35,1.35l7.81-4.51a1.56,1.56,0,0,0,0-2.7l-7.81-4.51A1.57,1.57,0,0,0,69.53,20.49Z"/>
    <path d="M69.53,70.49v9a1.57,1.57,0,0,0,2.35,1.35l7.81-4.51a1.56,1.56,0,0,0,0-2.7l-7.81-4.51A1.57,1.57,0,0,0,69.53,70.49Z"/>
  </g>
  <g class="dotsFace">
    <path d="M21.88,30.86,27.7,27.5l-5.82-3.36a1.57,1.57,0,0,0-2.35,1.35v4A1.57,1.57,0,0,0,21.88,30.86Z"/>
    <path d="M21.88,80.86,27.7,77.5l-5.82-3.36a1.57,1.57,0,0,0-2.35,1.35v4A1.57,1.57,0,0,0,21.88,80.86Z"/>
    <path d="M71.88,30.86,77.7,27.5l-5.82-3.36a1.57,1.57,0,0,0-2.35,1.35v4A1.57,1.57,0,0,0,71.88,30.86Z"/>
    <path d="M71.88,80.86,77.7,77.5l-5.82-3.36a1.57,1.57,0,0,0-2.35,1.35v4A1.57,1.57,0,0,0,71.88,80.86Z"/>
  </g>
</svg>
