<svg viewBox="0 0 200 245.94">
  <path class="left" d="M0,164.55v15a15,15,0,0,0,7.5,13l85,49.07a15,15,0,0,0,7.5,2C121.58,216.32,0,164.55,0,164.55Z"/>
  <path class="right" d="M200,179.54a15,15,0,0,1-7.5,13l-85,49.07a15,15,0,0,1-7.5,2v-15l100-64.07Z"/>
  <path class="edge" d="M92.5,4.33,7.5,53.4A15,15,0,0,0,0,66.4v98.14a15,15,0,0,0,7.5,13l85,49.07a15,15,0,0,0,15,0l85-49.07a15,15,0,0,0,7.5-13V66.4a15,15,0,0,0-7.5-13l-85-49.07A15,15,0,0,0,92.5,4.33Z"/>
  <path class="face" d="M92.5,9l-81,46.77A15,15,0,0,0,4,68.7v93.54a15,15,0,0,0,7.5,13L92.5,222a15,15,0,0,0,15,0l81-46.77a15,15,0,0,0,7.5-13V68.7a15,15,0,0,0-7.5-13L107.5,9A15,15,0,0,0,92.5,9Z"/>
</svg>
