<svg viewBox="0 0 100 100">
  <g class="dotsBottom">
    <path d="M52.88,81.5v-13a2.25,2.25,0,0,0-3.37-2l-11.26,6.5a2.25,2.25,0,0,0,0,3.9l11.26,6.5A2.25,2.25,0,0,0,52.88,81.5Z"/>
    <path d="M62.88,31.5v-13a2.25,2.25,0,0,0-3.37-1.95l-11.26,6.5a2.25,2.25,0,0,0,0,3.9l11.26,6.5A2.25,2.25,0,0,0,62.88,31.5Z"/>
  </g>
  <g class="dotsFace">
    <path d="M49.51,71.55l-10.3,6,10.3,6a2.25,2.25,0,0,0,3.37-2v-8A2.25,2.25,0,0,0,49.51,71.55Z"/>
    <path d="M59.51,21.55,49.21,27.5l10.3,6a2.25,2.25,0,0,0,3.37-2v-8A2.25,2.25,0,0,0,59.51,21.55Z"/>
  </g>
</svg>
