<svg viewBox="0 0 100 100">
  <g class="dotsBottom">
    <path d="M65.47,84.51v-9a1.57,1.57,0,0,0-2.35-1.35l-7.81,4.51a1.56,1.56,0,0,0,0,2.7l7.81,4.51A1.57,1.57,0,0,0,65.47,84.51Z"/>
    <path d="M65.47,24.51v-9a1.57,1.57,0,0,0-2.35-1.35l-7.81,4.51a1.56,1.56,0,0,0,0,2.7l7.81,4.51A1.57,1.57,0,0,0,65.47,24.51Z"/>
    <path d="M45.47,84.51v-9a1.57,1.57,0,0,0-2.35-1.35l-7.81,4.51a1.56,1.56,0,0,0,0,2.7l7.81,4.51A1.57,1.57,0,0,0,45.47,84.51Z"/>
    <path d="M55.47,54.51v-9a1.57,1.57,0,0,0-2.35-1.35l-7.81,4.51a1.56,1.56,0,0,0,0,2.7l7.81,4.51A1.57,1.57,0,0,0,55.47,54.51Z"/>
    <path d="M45.47,24.51v-9a1.57,1.57,0,0,0-2.35-1.35l-7.81,4.51a1.56,1.56,0,0,0,0,2.7l7.81,4.51A1.57,1.57,0,0,0,45.47,24.51Z"/>
  </g>
  <g class="dotsFace">
    <path d="M63.12,79.14,57.3,82.5l5.82,3.36a1.57,1.57,0,0,0,2.35-1.35v-4A1.57,1.57,0,0,0,63.12,79.14Z"/>
    <path d="M63.12,19.14,57.3,22.5l5.82,3.36a1.57,1.57,0,0,0,2.35-1.35v-4A1.57,1.57,0,0,0,63.12,19.14Z"/>
    <path d="M43.12,79.14,37.3,82.5l5.82,3.36a1.57,1.57,0,0,0,2.35-1.35v-4A1.57,1.57,0,0,0,43.12,79.14Z"/>
    <path d="M53.12,49.14,47.3,52.5l5.82,3.36a1.57,1.57,0,0,0,2.35-1.35v-4A1.57,1.57,0,0,0,53.12,49.14Z"/>
    <path d="M43.12,19.14,37.3,22.5l5.82,3.36a1.57,1.57,0,0,0,2.35-1.35v-4A1.57,1.57,0,0,0,43.12,19.14Z"/>
  </g>
</svg>
