<svg viewBox="0 0 100 100">
  <g class="dotsBottom">
    <path d="M34.53,20.49v9a1.57,1.57,0,0,0,2.35,1.35l7.81-4.51a1.56,1.56,0,0,0,0-2.7l-7.81-4.51A1.57,1.57,0,0,0,34.53,20.49Z"/>
    <path d="M34.53,70.49v9a1.57,1.57,0,0,0,2.35,1.35l7.81-4.51a1.56,1.56,0,0,0,0-2.7l-7.81-4.51A1.57,1.57,0,0,0,34.53,70.49Z"/>
    <path d="M54.53,20.49v9a1.57,1.57,0,0,0,2.35,1.35l7.81-4.51a1.56,1.56,0,0,0,0-2.7l-7.81-4.51A1.57,1.57,0,0,0,54.53,20.49Z"/>
    <path d="M54.53,70.49v9a1.57,1.57,0,0,0,2.35,1.35l7.81-4.51a1.56,1.56,0,0,0,0-2.7l-7.81-4.51A1.57,1.57,0,0,0,54.53,70.49Z"/>
  </g>
  <g class="dotsFace">
    <path d="M36.88,30.86,42.7,27.5l-5.82-3.36a1.57,1.57,0,0,0-2.35,1.35v4A1.57,1.57,0,0,0,36.88,30.86Z"/>
    <path d="M36.88,80.86,42.7,77.5l-5.82-3.36a1.57,1.57,0,0,0-2.35,1.35v4A1.57,1.57,0,0,0,36.88,80.86Z"/>
    <path d="M56.88,30.86,62.7,27.5l-5.82-3.36a1.57,1.57,0,0,0-2.35,1.35v4A1.57,1.57,0,0,0,56.88,30.86Z"/>
    <path d="M56.88,80.86,62.7,77.5l-5.82-3.36a1.57,1.57,0,0,0-2.35,1.35v4A1.57,1.57,0,0,0,56.88,80.86Z"/>
  </g>
</svg>
