<svg viewBox="0 0 100 100">
  <g class="dotsBottom">
    <path d="M51.56,85.41V74.59A1.88,1.88,0,0,0,48.74,73l-9.36,5.4a1.89,1.89,0,0,0,0,3.26L48.74,87A1.88,1.88,0,0,0,51.56,85.41Z"/>
    <path d="M56.56,55.41V44.59A1.88,1.88,0,0,0,53.74,43l-9.36,5.4a1.89,1.89,0,0,0,0,3.26L53.74,57A1.88,1.88,0,0,0,56.56,55.41Z"/>
    <path d="M61.56,25.41V14.59A1.88,1.88,0,0,0,58.74,13l-9.36,5.4a1.89,1.89,0,0,0,0,3.26L58.74,27A1.88,1.88,0,0,0,61.56,25.41Z"/>
  </g>
  <g class="dotsFace">
    <path d="M48.74,78,40.89,82.5,48.74,87a1.88,1.88,0,0,0,2.82-1.62V79.59A1.88,1.88,0,0,0,48.74,78Z"/>
    <path d="M53.74,48,45.89,52.5,53.74,57a1.88,1.88,0,0,0,2.82-1.62V49.59A1.88,1.88,0,0,0,53.74,48Z"/>
    <path d="M58.74,18,50.89,22.5,58.74,27a1.88,1.88,0,0,0,2.82-1.62V19.59A1.88,1.88,0,0,0,58.74,18Z"/>
  </g>
</svg>
