<svg viewBox="0 0 100 100">
  <g class="dotsBottom">
    <path d="M24.1,35.12l11.26,6.5a2.25,2.25,0,0,0,3.37-1.95v-13a2.25,2.25,0,0,0-3.37-2L24.1,31.22A2.25,2.25,0,0,0,24.1,35.12Z"/>
    <path d="M62.4,68.78l11.26,6.5a2.25,2.25,0,0,0,3.37-2v-13a2.25,2.25,0,0,0-3.37-1.95L62.4,64.88A2.25,2.25,0,0,0,62.4,68.78Z"/>
  </g>
  <g class="dotsFace">
    <path d="M35.36,29.72l-10.3,6,10.3,5.95a2.25,2.25,0,0,0,3.37-1.95v-8A2.25,2.25,0,0,0,35.36,29.72Z"/>
    <path d="M73.66,63.38l-10.3,5.95,10.3,6a2.25,2.25,0,0,0,3.37-2v-8A2.25,2.25,0,0,0,73.66,63.38Z"/>
  </g>
</svg>
