<svg viewBox="0 0 100 100">
  <g class="dotsBottom">
    <path d="M47.12,18.5v13a2.25,2.25,0,0,0,3.37,2L61.75,27a2.25,2.25,0,0,0,0-3.9l-11.26-6.5A2.25,2.25,0,0,0,47.12,18.5Z"/>
    <path d="M37.12,68.5v13a2.25,2.25,0,0,0,3.37,2L51.75,77a2.25,2.25,0,0,0,0-3.9l-11.26-6.5A2.25,2.25,0,0,0,37.12,68.5Z"/>
  </g>
  <g class="dotsFace">
    <path d="M50.49,33.45l10.3-6-10.3-5.95a2.25,2.25,0,0,0-3.37,1.95v8A2.25,2.25,0,0,0,50.49,33.45Z"/>
    <path d="M40.49,83.45l10.3-6-10.3-6a2.25,2.25,0,0,0-3.37,2v8A2.25,2.25,0,0,0,40.49,83.45Z"/>
  </g>
</svg>
