<svg viewBox="0 0 100 100">
  <g class="dotsBottom">
    <rect x="14.6" y="39.24" width="8.84" height="8.84" rx="1.56" transform="matrix(-0.26, -0.97, 0.97, -0.26, -18.23, 73.33)"/>
    <rect x="24.6" y="21.92" width="8.84" height="8.84" rx="1.56" transform="translate(11.09 61.19) rotate(-105)"/>
    <rect x="40.58" y="54.24" width="8.84" height="8.84" rx="1.56" transform="translate(-0.01 117.31) rotate(-105)"/>
    <rect x="50.58" y="36.92" width="8.84" height="8.84" rx="1.56" transform="translate(29.3 105.17) rotate(-105)"/>
    <rect x="66.56" y="69.24" width="8.84" height="8.84" rx="1.56" transform="matrix(-0.26, -0.97, 0.97, -0.26, 18.2, 161.29)"/>
    <rect x="76.56" y="51.92" width="8.84" height="8.84" rx="1.56" transform="translate(47.52 149.14) rotate(-105)"/>
  </g>
  <g class="dotsFace">
    <path d="M20.63,43.65l-5.51,1.48a1.17,1.17,0,0,0-.26.1l.63,2.33a1.57,1.57,0,0,0,1.92,1.11l5.51-1.48a1.09,1.09,0,0,0,.25-.1l-.62-2.33A1.57,1.57,0,0,0,20.63,43.65Z"/>
    <path d="M30.63,26.33l-5.51,1.48a1.17,1.17,0,0,0-.26.1l.63,2.33a1.57,1.57,0,0,0,1.92,1.11l5.51-1.48a1.09,1.09,0,0,0,.25-.1l-.62-2.33A1.57,1.57,0,0,0,30.63,26.33Z"/>
    <path d="M46.61,58.65,41.1,60.13a1.39,1.39,0,0,0-.26.1l.63,2.33a1.57,1.57,0,0,0,1.92,1.11l5.51-1.48a1.39,1.39,0,0,0,.26-.1l-.63-2.33A1.57,1.57,0,0,0,46.61,58.65Z"/>
    <path d="M56.61,41.33,51.1,42.81a1.39,1.39,0,0,0-.26.1l.63,2.33a1.57,1.57,0,0,0,1.92,1.11l5.51-1.48a1.39,1.39,0,0,0,.26-.1l-.63-2.33A1.57,1.57,0,0,0,56.61,41.33Z"/>
    <path d="M72.59,73.65l-5.51,1.48a1.09,1.09,0,0,0-.25.1l.62,2.33a1.57,1.57,0,0,0,1.92,1.11l5.51-1.48a1.17,1.17,0,0,0,.26-.1l-.63-2.33A1.57,1.57,0,0,0,72.59,73.65Z"/>
    <path d="M82.59,56.33l-5.51,1.48a1.09,1.09,0,0,0-.25.1l.62,2.33a1.57,1.57,0,0,0,1.92,1.11l5.51-1.48a1.17,1.17,0,0,0,.26-.1l-.63-2.33A1.57,1.57,0,0,0,82.59,56.33Z"/>
  </g>
</svg>
