<svg viewBox="0 0 100 100">
  <g class="dotsBottom">
    <rect x="35.58" y="15.58" width="8.84" height="8.84" rx="1.56" transform="translate(-2.43 34.14) rotate(-45)"/>
    <rect x="55.58" y="15.58" width="8.84" height="8.84" rx="1.56" transform="translate(3.43 48.28) rotate(-45)"/>
    <rect x="35.58" y="45.58" width="8.84" height="8.84" rx="1.56" transform="translate(-23.64 42.93) rotate(-45)"/>
    <rect x="55.58" y="45.58" width="8.84" height="8.84" rx="1.56" transform="translate(-17.78 57.07) rotate(-45)"/>
    <rect x="35.58" y="75.58" width="8.84" height="8.84" rx="1.56" transform="translate(-44.85 51.72) rotate(-45)"/>
    <rect x="55.58" y="75.58" width="8.84" height="8.84" rx="1.56" transform="translate(-38.99 65.86) rotate(-45)"/>
  </g>
  <g class="dotsFace">
    <path d="M38.89,19.86,36.25,22.5l2.64,2.64a1.58,1.58,0,0,0,2.22,0l2.64-2.64-2.64-2.64A1.58,1.58,0,0,0,38.89,19.86Z"/>
    <path d="M58.89,19.86,56.25,22.5l2.64,2.64a1.58,1.58,0,0,0,2.22,0l2.64-2.64-2.64-2.64A1.58,1.58,0,0,0,58.89,19.86Z"/>
    <path d="M38.89,49.86,36.25,52.5l2.64,2.64a1.58,1.58,0,0,0,2.22,0l2.64-2.64-2.64-2.64A1.58,1.58,0,0,0,38.89,49.86Z"/>
    <path d="M58.89,49.86,56.25,52.5l2.64,2.64a1.58,1.58,0,0,0,2.22,0l2.64-2.64-2.64-2.64A1.58,1.58,0,0,0,58.89,49.86Z"/>
    <path d="M38.89,79.86,36.25,82.5l2.64,2.64a1.58,1.58,0,0,0,2.22,0l2.64-2.64-2.64-2.64A1.58,1.58,0,0,0,38.89,79.86Z"/>
    <path d="M58.89,79.86,56.25,82.5l2.64,2.64a1.58,1.58,0,0,0,2.22,0l2.64-2.64-2.64-2.64A1.58,1.58,0,0,0,58.89,79.86Z"/>
  </g>
</svg>
