<svg viewBox="0 0 100 100">
  <g class="dotsBottom">
    <path d="M65.47,79.51v-9a1.57,1.57,0,0,0-2.35-1.35l-7.81,4.51a1.56,1.56,0,0,0,0,2.7l7.81,4.51A1.57,1.57,0,0,0,65.47,79.51Z"/>
    <path d="M65.47,29.51v-9a1.57,1.57,0,0,0-2.35-1.35l-7.81,4.51a1.56,1.56,0,0,0,0,2.7l7.81,4.51A1.57,1.57,0,0,0,65.47,29.51Z"/>
    <path d="M45.47,79.51v-9a1.57,1.57,0,0,0-2.35-1.35l-7.81,4.51a1.56,1.56,0,0,0,0,2.7l7.81,4.51A1.57,1.57,0,0,0,45.47,79.51Z"/>
    <path d="M45.47,29.51v-9a1.57,1.57,0,0,0-2.35-1.35l-7.81,4.51a1.56,1.56,0,0,0,0,2.7l7.81,4.51A1.57,1.57,0,0,0,45.47,29.51Z"/>
  </g>
  <g class="dotsFace">
    <path d="M63.12,74.14,57.3,77.5l5.82,3.36a1.57,1.57,0,0,0,2.35-1.35v-4A1.57,1.57,0,0,0,63.12,74.14Z"/>
    <path d="M63.12,24.14,57.3,27.5l5.82,3.36a1.57,1.57,0,0,0,2.35-1.35v-4A1.57,1.57,0,0,0,63.12,24.14Z"/>
    <path d="M43.12,74.14,37.3,77.5l5.82,3.36a1.57,1.57,0,0,0,2.35-1.35v-4A1.57,1.57,0,0,0,43.12,74.14Z"/>
    <path d="M43.12,24.14,37.3,27.5l5.82,3.36a1.57,1.57,0,0,0,2.35-1.35v-4A1.57,1.57,0,0,0,43.12,24.14Z"/>
  </g>
</svg>
