<svg viewBox="0 0 100 100">
  <g class="dotsBottom">
    <path d="M21.34,66.62l11.26-6.5a2.25,2.25,0,0,0,0-3.9l-11.26-6.5a2.25,2.25,0,0,0-3.37,2v13A2.25,2.25,0,0,0,21.34,66.62Z"/>
    <path d="M69.64,50.28l11.26-6.5a2.25,2.25,0,0,0,0-3.9l-11.26-6.5a2.25,2.25,0,0,0-3.37,1.95v13A2.25,2.25,0,0,0,69.64,50.28Z"/>
  </g>
  <g class="dotsFace">
    <path d="M21.34,66.62l10.3-6-10.3-6a2.25,2.25,0,0,0-3.37,2v8A2.25,2.25,0,0,0,21.34,66.62Z"/>
    <path d="M69.64,50.28l10.3-6-10.3-5.95a2.25,2.25,0,0,0-3.37,1.95v8A2.25,2.25,0,0,0,69.64,50.28Z"/>
  </g>
</svg>
