<svg viewBox="0 0 100 100">
  <g class="dotsBottom">
    <path d="M18.66,47.51,26.47,52a1.57,1.57,0,0,0,2.35-1.35v-9a1.57,1.57,0,0,0-2.35-1.35l-7.81,4.51A1.56,1.56,0,0,0,18.66,47.51Z"/>
    <path d="M62,72.51,69.77,77a1.57,1.57,0,0,0,2.35-1.35v-9a1.57,1.57,0,0,0-2.35-1.35L62,69.81A1.56,1.56,0,0,0,62,72.51Z"/>
    <path d="M28.66,30.19l7.81,4.51a1.57,1.57,0,0,0,2.35-1.35v-9A1.57,1.57,0,0,0,36.47,23l-7.81,4.51A1.56,1.56,0,0,0,28.66,30.19Z"/>
    <path d="M72,55.19l7.81,4.51a1.57,1.57,0,0,0,2.35-1.35v-9A1.57,1.57,0,0,0,79.77,48L72,52.49A1.56,1.56,0,0,0,72,55.19Z"/>
  </g>
  <g class="dotsFace">
    <path d="M26.47,45.3l-5.82,3.36L26.47,52a1.57,1.57,0,0,0,2.35-1.35v-4A1.57,1.57,0,0,0,26.47,45.3Z"/>
    <path d="M69.77,70.3,64,73.66,69.77,77a1.57,1.57,0,0,0,2.35-1.35v-4A1.57,1.57,0,0,0,69.77,70.3Z"/>
    <path d="M36.47,28l-5.82,3.36,5.82,3.36a1.57,1.57,0,0,0,2.35-1.35v-4A1.57,1.57,0,0,0,36.47,28Z"/>
    <path d="M79.77,53,74,56.34l5.82,3.36a1.57,1.57,0,0,0,2.35-1.35v-4A1.57,1.57,0,0,0,79.77,53Z"/>
  </g>
</svg>
