<svg viewBox="0 0 200 200">
  <g class="audioBottom">
    <polygon points="77.44 126.19 129.55 100 77.44 73.81 77.44 126.19"/>
    <path d="M140.16,52h-8.73v8.73h8.73a6.12,6.12,0,0,1,6.11,6.12v66.34a6.12,6.12,0,0,1-6.11,6.12H100.85L105.28,127c-7.63,6.65-19.93,12.93-29.85,16.61,9.92,3.68,22.22,10,29.85,16.61L100.85,148h39.31A14.86,14.86,0,0,0,155,133.17V66.83A14.86,14.86,0,0,0,140.16,52Z"/>
    <path d="M124.57,56.35c-9.92-3.68-22.22-10-29.85-16.61L99.15,52H59.84A14.86,14.86,0,0,0,45,66.83v66.34A14.86,14.86,0,0,0,59.84,148h8.73v-8.73H59.84a6.12,6.12,0,0,1-6.11-6.12V66.83a6.12,6.12,0,0,1,6.11-6.12H99.15L94.72,73C102.35,66.31,114.65,60,124.57,56.35Z"/>
  </g>
  <g class="audioFace">
    <polygon points="77.44 78.81 77.44 126.19 124.57 102.5 77.44 78.81"/>
    <path d="M140.16,57h-8.73v3.73h8.73a6.12,6.12,0,0,1,6.11,6.12v71.34a6.12,6.12,0,0,1-6.11,6.12H100.85v-5l1.87-5.17a105.71,105.71,0,0,1-21.12,12,105.23,105.23,0,0,1,21.12,12L100.85,153v-5h39.31A14.86,14.86,0,0,0,155,133.17V71.83A14.86,14.86,0,0,0,140.16,57Z"/>
    <path d="M53.73,138.17V66.83a6.12,6.12,0,0,1,6.11-6.12H99.15v5l-1.87,5.17a105.71,105.71,0,0,1,21.12-12,105.23,105.23,0,0,1-21.12-12L99.15,52v5H59.84A14.86,14.86,0,0,0,45,71.83v61.34A14.86,14.86,0,0,0,59.84,148h8.73v-3.73H59.84A6.12,6.12,0,0,1,53.73,138.17Z"/>
  </g>
</svg>
