<svg viewBox="0 0 400 430">
  <path class="right" d="M328,383.68A199.18,199.18,0,0,1,200,430V200H328Z"/>
  <path class="rightFar" d="M328,200h72v30a199.58,199.58,0,0,1-72,153.68Z"/>
  <path class="left" d="M200,430A199.18,199.18,0,0,1,72,383.68V200H200Z"/>
  <path class="leftFar" d="M72,200H0v30A199.58,199.58,0,0,0,72,383.68Z"/>
  <circle class="edge" cx="200" cy="200" r="200"/>
  <circle class="face" cx="200" cy="200" r="192"/>
  <path class="cBottom" d="M299.07,221.74h4.32v44.93c-25.06,18.14-58.46,26.78-92.16,26.78-68.54,0-114.62-37.72-114.62-93,0-56.73,44.06-93.88,111.74-93.88,25.35,0,45.51,6.91,60.19,18.71V111.44h31.39v60.77H272.57L246.08,133C209.5,133,183,161.84,183,201.87c0,42,22.46,66.24,52.7,66.24q13.83,0,24.19-4.32C259.9,234.7,277.76,221.74,299.07,221.74Z"/>
  <path class="cFace" d="M259.9,273.79q-10.36,4.32-24.19,4.32c-30.24,0-52.7-24.19-52.7-66.24,0-1.58.05-3.14.14-4.69-.09-1.74-.14-3.5-.14-5.31,0-40,26.49-68.83,63.07-68.83l26.49,39.17h27.36V121.44H268.54v13.82c-14.68-11.8-34.84-18.71-60.19-18.71-65.6,0-109,34.9-111.61,88.71,2.6,52.65,48,88.19,114.49,88.19,33.7,0,67.1-8.64,92.16-26.78V231.74h-4.32C277.76,231.74,259.9,244.7,259.9,273.79Z"/>
</svg>
