<svg viewBox="0 0 200 200">
  <path class="cBottom" d="M149.54,110.87h2.16v22.47c-12.53,9.07-29.24,13.39-46.08,13.39-34.28,0-57.32-18.87-57.32-46.51,0-28.37,22-46.95,55.88-46.95,12.67,0,22.75,3.46,30.09,9.36V55.72H150V86.1H136.29L123,66.52c-18.29,0-31.54,14.4-31.54,34.42,0,21,11.24,33.12,26.36,33.12A31.26,31.26,0,0,0,130,131.9C130,117.35,138.88,110.87,149.54,110.87Z"/>
  <path class="cFace" d="M130,136.9a31.26,31.26,0,0,1-12.09,2.16c-15.12,0-26.36-12.1-26.36-33.12,0-.8,0-1.58.07-2.35s-.07-1.75-.07-2.65c0-20,13.25-34.42,31.54-34.42L136.29,86.1H150V60.72h-15.7v6.91c-7.34-5.9-17.42-9.36-30.09-9.36-32.8,0-54.51,17.45-55.81,44.36,1.3,26.32,24,44.1,57.25,44.1,16.84,0,33.55-4.32,46.08-13.39V115.87h-2.16C138.88,115.87,130,122.35,130,136.9Z"/>
</svg>
