<svg viewBox="0 0 119.57 125.45">
  <g class="fgBottom">
    <path d="M79.89,84v-4h7.85V93.69H80.89l-7.34-8.35c-10.51.21-15.77,7.27-15.77,17.21,0,10.15,5.83,17.28,14.11,17.28V108.24H67.72v-6.56H92.2v6.56h-4V118c-6.55,5-14.91,7.42-23.33,7.42-17.14,0-28.66-9.44-28.66-23.26,0-14.19,11.66-23.48,28.66-23.48C71.1,78.71,77.51,81.23,79.89,84Z"/>
    <path d="M48.17,15.68V29.86h-5l-6.69-9H25.63V36.63h8.72V30.8h4.82V47.43H34.35V41.82H25.63v12.6h4.54V61H0V54.42H4.46V22.23H0V15.68Z"/>
    <path d="M52.84,21.83l4.65-1.52V2.7h3.13V19.22L71.2,15.8V0h3.13V14.77l4.22-1.38V24.64L74.33,26V42l4.22-1.27V51.84l-4.22,1.4V70.85H71.2V54.22L60.62,57.6V73.66H57.49V58.74l-4.65,1.52V49l4.65-1.51V31.43L52.84,33ZM71.2,27.05,60.62,30.4V46.55L71.2,43.11Z"/>
    <path d="M99.69,61V95.53A16.31,16.31,0,0,1,110.6,91a8.3,8.3,0,0,1,6.48,3.13,10.65,10.65,0,0,1,2.49,6.48,15.72,15.72,0,0,1-1.41,6.48,8.78,8.78,0,0,1-2.37,3.24l-2.92,2.7q-8,5.83-16,11.78V61Zm8.75,36.93a4.22,4.22,0,0,0-3.35-1.51c-1.72,0-3.13,1-4.21,2.92Q99.7,101.57,99.69,110v9.29q.11.43,6-5.29a14,14,0,0,0,4.21-7.13,12.45,12.45,0,0,0,.44-3.24A8.24,8.24,0,0,0,108.44,97.9Z"/>
  </g>
  <g class="fgFace">
    <path d="M67.72,108.24h4.17v16.59c-8.28,0-14.11-7.13-14.11-17.28,0-.87.06-1.71.14-2.53a24.68,24.68,0,0,1-.14-2.47c0-9.94,5.26-17,15.77-17.21l7.34,8.35h6.85V84.94H79.89v4c-2.38-2.74-8.79-5.26-15-5.26-16,0-27.23,8.2-28.53,21,1.3,12.46,12.44,20.78,28.53,20.78,8.42,0,16.78-2.38,23.33-7.42v-9.79h4v-1.56H67.72Z"/>
    <polygon points="0 22.23 4.46 22.23 4.46 27.23 4.46 54.42 4.46 59.42 0 59.42 0 60.97 30.17 60.97 30.17 59.42 25.64 59.42 25.64 54.42 25.64 46.82 25.64 41.82 34.35 41.82 34.35 46.82 34.35 47.43 39.17 47.43 39.17 35.8 34.35 35.8 34.35 36.63 34.35 41.63 25.64 41.63 25.64 36.63 25.64 25.86 25.64 20.86 36.51 20.86 43.2 29.86 48.17 29.86 48.17 20.68 0 20.68 0 22.23"/>
    <path d="M74.33,14.77V5H71.2V20.8L60.62,24.22V7.7H57.49V25.31l-4.65,1.52V33l4.65-1.52V52.5L52.84,54v6.25l4.65-1.52V73.66h3.13V57.6L71.2,54.22V70.85h3.13V53.24l4.22-1.4V45.7L74.33,47V26l4.22-1.4V18.39l-4.22,1.38ZM71.2,32.05V48.11L60.62,51.55V30.4L71.2,27.05Z"/>
    <path d="M115.79,110.32a8.78,8.78,0,0,0,2.37-3.24,21,21,0,0,0,1.13-3.56,10.83,10.83,0,0,0-2.21-4.4A8.3,8.3,0,0,0,110.6,96a15.74,15.74,0,0,0-4.12.63,4.19,4.19,0,0,1,2,1.28,8.24,8.24,0,0,1,2,5.73,12.44,12.44,0,0,1-.29,2.49,10.42,10.42,0,0,1,.29,2.51,12.45,12.45,0,0,1-.44,3.24,13.63,13.63,0,0,1-2.34,5c1.75-1.29,3.51-2.6,5.26-3.88Z"/>
    <path d="M99.69,119.29V110c0-5.26.35-8.69,1-10.35-.35.28-.7.57-1,.88V66h-2.8V124.8c.93-.7,1.87-1.38,2.8-2.07Z"/>
  </g>
</svg>
