<svg viewBox="0 0 200 200">
  <path class="fBottom" d="M148.17,54.71V83.08h-9.94l-13.39-18H103.1V96.62h17.42V85h9.65v33.27h-9.65V107H103.1v25.2h9.07v13.11H51.83V132.18h8.93V67.82H51.83V54.71Z"/>
  <polygon class="fFace" points="51.83 67.82 60.76 67.82 60.76 72.82 60.76 132.18 60.76 137.18 51.83 137.18 51.83 145.29 112.17 145.29 112.17 137.18 103.1 137.18 103.1 132.18 103.1 111.98 103.1 106.98 120.52 106.98 120.52 111.98 120.52 118.22 130.17 118.22 130.17 89.95 120.52 89.95 120.52 96.62 120.52 101.62 103.1 101.62 103.1 96.62 103.1 70.08 103.1 65.08 124.84 65.08 138.23 83.08 148.17 83.08 148.17 59.71 51.83 59.71 51.83 67.82"/>
</svg>
