<svg viewBox="0 0 200 200">
  <g class="fgBottom">
    <path d="M120.1,121.25v-4H128V131h-6.84l-7.35-8.35c-10.51.21-15.77,7.27-15.77,17.2,0,10.16,5.84,17.29,14.12,17.29v-11.6h-4.18V139h24.48v6.55h-4v9.8c-6.55,5-14.9,7.41-23.33,7.41-17.14,0-28.66-9.43-28.66-23.26,0-14.18,11.67-23.47,28.66-23.47C111.32,116,117.72,118.51,120.1,121.25Z"/>
    <path d="M88.39,53V67.14h-5l-6.7-9H65.85V73.91h8.71V68.08h4.83V84.71H74.56V79.09H65.85v12.6h4.53v6.56H40.21V91.69h4.47V59.51H40.21V53Z"/>
    <path d="M93.06,59.1l4.64-1.51V40h3.13V56.5l10.59-3.42V37.28h3.13V52.05l4.21-1.38V61.92l-4.21,1.4V79.25L118.76,78V89.12l-4.21,1.4v17.61h-3.13V91.49l-10.59,3.39v16.05H97.7V96l-4.64,1.52V86.29l4.64-1.51V68.71l-4.64,1.52Zm18.36,5.23-10.59,3.35V83.83l10.59-3.45Z"/>
    <path d="M139.91,98.25v34.56a16.19,16.19,0,0,1,10.91-4.54,8.3,8.3,0,0,1,6.48,3.13,10.57,10.57,0,0,1,2.48,6.48,15.85,15.85,0,0,1-1.4,6.48A8.94,8.94,0,0,1,156,147.6l-2.92,2.7q-8,5.83-16,11.77V98.25Zm8.75,36.93a4.22,4.22,0,0,0-3.35-1.51q-2.59,0-4.21,2.92c-.8,1.51-1.19,5.07-1.19,10.69v9.29q.1.42,6.05-5.3a14,14,0,0,0,4.21-7.12,12.88,12.88,0,0,0,.43-3.24A8.27,8.27,0,0,0,148.66,135.18Z"/>
  </g>
  <g class="fgFace">
    <path d="M107.93,145.51h4.18v16.6C103.83,162.11,98,155,98,144.82c0-.86.06-1.7.14-2.52-.08-.81-.14-1.63-.14-2.48,0-9.93,5.26-17,15.77-17.2l7.35,8.35H128v-8.76H120.1v4c-2.38-2.74-8.78-5.26-15-5.26-16,0-27.22,8.2-28.53,21,1.3,12.46,12.44,20.78,28.53,20.78,8.43,0,16.78-2.37,23.33-7.41v-9.8h4V144H107.93Z"/>
    <polygon points="40.21 59.51 44.68 59.51 44.68 64.51 44.68 91.69 44.68 96.69 40.21 96.69 40.21 98.25 70.38 98.25 70.38 96.69 65.85 96.69 65.85 91.69 65.85 84.09 65.85 79.09 74.56 79.09 74.56 84.09 74.56 84.71 79.39 84.71 79.39 73.08 74.56 73.08 74.56 73.91 74.56 78.91 65.85 78.91 65.85 73.91 65.85 63.14 65.85 58.14 76.72 58.14 83.42 67.14 88.39 67.14 88.39 57.95 40.21 57.95 40.21 59.51"/>
    <path d="M114.55,52.05V42.28h-3.13v15.8L100.83,61.5V45H97.7V62.59L93.06,64.1v6.13l4.64-1.52V89.78l-4.64,1.51v6.25L97.7,96v14.91h3.13V94.88l10.59-3.39v16.64h3.13V90.52l4.21-1.4V83l-4.21,1.27V63.32l4.21-1.4V55.67l-4.21,1.38Zm-3.13,17.28v16l-10.59,3.45V67.68l10.59-3.35Z"/>
    <path d="M156,147.6a8.94,8.94,0,0,0,2.38-3.24,20.3,20.3,0,0,0,1.12-3.56,10.94,10.94,0,0,0-2.2-4.4,8.3,8.3,0,0,0-6.48-3.13,15.75,15.75,0,0,0-4.13.63,4.15,4.15,0,0,1,2,1.28,8.27,8.27,0,0,1,1.94,5.73,12.42,12.42,0,0,1-.28,2.49,11,11,0,0,1,.28,2.51,12.88,12.88,0,0,1-.43,3.24,13.81,13.81,0,0,1-2.35,5c1.76-1.29,3.51-2.6,5.26-3.88Z"/>
    <path d="M139.91,156.57v-9.29c0-5.26.35-8.69,1-10.36-.35.29-.7.57-1,.89V103.25H137.1v58.82l2.81-2.06Z"/>
  </g>
</svg>
