<svg viewBox="0 0 117.6 124.8">
  <g class="deBottom">
    <path d="M34.49,15.68c16.42,0,26.36,9.29,26.36,22.68S51,61,34.56,61H0V54.42H4.46V22.23H0V15.68Zm-8.64,4.39V56.5h.65c8.21,0,13.61-6.12,13.61-18.21S34.78,20.07,26.93,20.07Z"/>
    <path d="M88.6,79.5V93.69h-5l-6.7-9H66.06V99h7V93.91h4.83v15.62H73V104.2h-7v15.41H79.81c0-6.62,3.1-10.94,9.08-10.94H90V124.8H40.43v-6.56h4.46V86.06H40.43V79.5Z"/>
    <path d="M64.87,21.83l4.64-1.52V2.7h3.13V19.22L83.22,15.8V0h3.14V14.77l4.21-1.38V24.64L86.36,26V42l4.21-1.27V51.84l-4.21,1.4V70.85H83.22V54.22L72.64,57.6V73.66H69.51V58.74l-4.64,1.52V49l4.64-1.51V31.43L64.87,33Zm18.35,5.22L72.64,30.4V46.55l10.58-3.44Z"/>
    <path d="M97.72,61V95.53A16.29,16.29,0,0,1,108.63,91a8.3,8.3,0,0,1,6.47,3.13,10.53,10.53,0,0,1,2.49,6.48,15.85,15.85,0,0,1-1.4,6.48,8.94,8.94,0,0,1-2.38,3.24l-2.92,2.7q-8,5.83-16,11.78V61Zm8.75,36.93a4.25,4.25,0,0,0-3.35-1.51q-2.59,0-4.21,2.92c-.8,1.51-1.19,5.07-1.19,10.69v9.29q.11.43,6-5.29a14.07,14.07,0,0,0,4.21-7.13,12.88,12.88,0,0,0,.43-3.24A8.28,8.28,0,0,0,106.47,97.9Z"/>
  </g>
  <g class="deFace">
    <path d="M60.73,40.86c-1.17-12-10.86-20.18-26.24-20.18H30.9c5.62,1.82,9.21,7.75,9.21,17.61,0,.86,0,1.69-.09,2.5s.09,1.63.09,2.5c0,10.06-3.75,16-9.72,17.68h4.17C49.94,61,59.56,52.89,60.73,40.86Z"/>
    <polygon points="25.85 56.5 25.85 25.07 25.85 20.68 0 20.68 0 22.23 4.46 22.23 4.46 27.23 4.46 54.42 4.46 59.42 0 59.42 0 60.97 25.85 60.97 25.85 56.5"/>
    <path d="M79.81,124.61H66.06V104.2h7v5.33h4.83V98.91H73V104h-7V84.69H76.93l6.7,9h5V84.5H40.43v1.56h4.46v37.18H40.43v1.56H90V113.67H88.89C82.91,113.67,79.81,118,79.81,124.61Z"/>
    <path d="M86.36,14.77V5H83.22V20.8L72.64,24.22V7.7H69.51V25.31l-4.64,1.52V33l4.64-1.52V52.5L64.87,54v6.25l4.64-1.52V73.66h3.13V57.6l10.58-3.38V70.85h3.14V53.24l4.21-1.4V45.7L86.36,47V26l4.21-1.4V18.39l-4.21,1.38ZM83.22,32.05V48.11L72.64,51.55V30.4l10.58-3.35Z"/>
    <path d="M113.81,110.32a8.94,8.94,0,0,0,2.38-3.24,20,20,0,0,0,1.12-3.56,10.83,10.83,0,0,0-2.21-4.4A8.3,8.3,0,0,0,108.63,96a15.75,15.75,0,0,0-4.13.63,4.22,4.22,0,0,1,2,1.28,8.28,8.28,0,0,1,1.94,5.73,12.42,12.42,0,0,1-.28,2.49,11,11,0,0,1,.28,2.51,12.88,12.88,0,0,1-.43,3.24,13.81,13.81,0,0,1-2.35,5c1.76-1.29,3.51-2.6,5.26-3.88Z"/>
    <path d="M97.72,119.29V110c0-5.26.35-8.69,1-10.35-.35.28-.7.57-1,.88V66H94.91V124.8l2.81-2.07Z"/>
  </g>
</svg>
