<svg viewBox="0 0 96.33 90.57">
  <path class="fBottom" d="M96.33,0V28.37H86.4L73,10.37H51.26V41.9H68.69V30.24h9.64V63.5H68.69V52.27H51.26v25.2h9.07v13.1H0V77.47H8.93V13.1H0V0Z"/>
  <polygon class="fFace" points="0 13.1 8.93 13.1 8.93 18.1 8.93 77.47 8.93 82.47 0 82.47 0 90.57 60.34 90.57 60.34 82.47 51.26 82.47 51.26 77.47 51.26 57.27 51.26 52.27 68.69 52.27 68.69 57.27 68.69 63.5 78.33 63.5 78.33 35.24 68.69 35.24 68.69 41.9 68.69 46.9 51.26 46.9 51.26 41.9 51.26 15.37 51.26 10.37 73.01 10.37 86.4 28.37 96.33 28.37 96.33 5 0 5 0 13.1"/>
</svg>
