<svg viewBox="0 0 200 200">
  <path class="gBottom" d="M131.39,63.78V55.72h15.7v27.5H133.41l-14.69-16.7c-21,.43-31.54,14.54-31.54,34.42,0,20.3,11.67,34.56,28.23,34.56V112.31h-8.35V99.21H156v13.1H148V131.9c-13.1,10.08-29.81,14.83-46.65,14.83C67,146.73,44,127.86,44,100.22c0-28.37,23.32-46.95,57.31-46.95C113.82,53.27,126.64,58.31,131.39,63.78Z"/>
  <path class="gFace" d="M107.06,112.31h8.35V140.5c-16.56,0-28.23-14.26-28.23-34.56,0-.86,0-1.7.07-2.54s-.07-1.63-.07-2.46c0-19.88,10.52-34,31.54-34.42l14.69,16.7h13.68V60.72h-15.7v8.06c-4.75-5.47-17.57-10.51-30.09-10.51-33,0-55.91,17.49-57.25,44.43,1.34,26.29,24,44,57.25,44,16.84,0,33.55-4.75,46.65-14.83V112.31H156v-8.1H107.06Z"/>
</svg>
