<svg viewBox="0 0 200 200">
  <g class="gaBottom">
    <path d="M80.89,57.74v-4h7.85V67.46H81.9l-7.34-8.35C64,59.33,58.79,66.38,58.79,76.32c0,10.15,5.83,17.28,14.11,17.28V82H68.72V75.46H93.21V82h-4V91.8c-6.55,5-14.9,7.42-23.33,7.42-17.13,0-28.65-9.43-28.65-23.26,0-14.18,11.66-23.47,28.65-23.47C72.11,52.49,78.52,55,80.89,57.74Z"/>
    <path d="M89.89,145.19l-3.31,9.94h4.9v7.27H75.35v-7.27h5.11l13.61-38h21.17l14.33,38.74h5.18v6.55H102.49v-6.55H107l-3.38-10.66Zm7-20.74L92,139h9.58Z"/>
    <path d="M97.08,59.43l4.65-1.52V40.3h3.13V56.83l10.58-3.43V37.6h3.14V52.37L122.79,51V62.24l-4.21,1.4V79.57l4.21-1.27V89.44l-4.21,1.41v17.6h-3.14V91.82L104.86,95.2v16.06h-3.13V96.35l-4.65,1.52V86.62l4.65-1.51V69l-4.65,1.53Zm18.36,5.22L104.86,68V84.15l10.58-3.44Z"/>
    <path d="M142.94,98.57v34.56a16.28,16.28,0,0,1,10.9-4.54,8.28,8.28,0,0,1,6.48,3.14,10.54,10.54,0,0,1,2.49,6.48,15.78,15.78,0,0,1-1.41,6.48,9,9,0,0,1-2.37,3.24l-2.92,2.7q-8,5.82-16,11.77V98.57Zm8.74,36.94a4.2,4.2,0,0,0-3.34-1.52c-1.73,0-3.14,1-4.22,2.92-.79,1.51-1.18,5.08-1.18,10.69v9.29q.1.44,6-5.29a14,14,0,0,0,4.22-7.13,12.88,12.88,0,0,0,.43-3.24A8.2,8.2,0,0,0,151.68,135.51Z"/>
  </g>
  <g class="gaFace">
    <path d="M68.72,82H72.9V98.6c-8.28,0-14.11-7.13-14.11-17.28,0-.87.05-1.7.13-2.53a24.72,24.72,0,0,1-.13-2.47c0-9.94,5.25-17,15.77-17.21l7.34,8.35h6.84V58.71H80.89v4c-2.37-2.73-8.78-5.25-15-5.25-16,0-27.22,8.2-28.53,20.95,1.3,12.46,12.44,20.78,28.53,20.78,8.43,0,16.78-2.38,23.33-7.42V82h4V80.46H68.72Z"/>
    <path d="M115.24,122.11H94.07l-13.61,38H75.35v2.27H91.48v-2.27h-4.9v-5l3.31-9.94h13.76L107,155.85v5h-4.54v1.55h32.26v-1.55h-5.18ZM101.56,144H92v-5l4.9-14.55L101.56,139Z"/>
    <path d="M118.58,52.37V42.6h-3.14V58.4l-10.58,3.43V45.3h-3.13V62.91l-4.65,1.52v6.13L101.73,69V90.11l-4.65,1.51v6.25l4.65-1.52v14.91h3.13V95.2l10.58-3.38v16.63h3.14V90.85l4.21-1.41V83.3l-4.21,1.27V63.64l4.21-1.4V56l-4.21,1.38Zm-3.14,17.28V85.71l-10.58,3.44V68l10.58-3.36Z"/>
    <path d="M159,147.93a9,9,0,0,0,2.37-3.24,21.37,21.37,0,0,0,1.13-3.57,10.73,10.73,0,0,0-2.21-4.39,8.28,8.28,0,0,0-6.48-3.14,15.74,15.74,0,0,0-4.12.63,4.14,4.14,0,0,1,2,1.29,8.2,8.2,0,0,1,1.95,5.72,12.44,12.44,0,0,1-.29,2.49,10.48,10.48,0,0,1,.29,2.51,12.88,12.88,0,0,1-.43,3.24,13.81,13.81,0,0,1-2.35,5l5.26-3.87Z"/>
    <path d="M142.94,156.89V147.6c0-5.25.35-8.69,1-10.35-.35.28-.7.57-1,.88V103.57h-2.81V162.4c.93-.7,1.87-1.38,2.81-2.07Z"/>
  </g>
</svg>
