<svg viewBox="0 0 200 200">
  <g class="cdBottom">
    <path d="M87.28,81.74h1.08V93c-6.26,4.54-14.62,6.7-23,6.7-17.14,0-28.66-9.44-28.66-23.26,0-14.19,11-23.48,27.94-23.48,6.34,0,11.38,1.73,15.05,4.69V54.16H87.5V69.35H80.66L74,59.56c-9.14,0-15.77,7.2-15.77,17.21,0,10.51,5.62,16.56,13.18,16.56a15.67,15.67,0,0,0,6-1.08C77.49,85,82,81.74,87.28,81.74Z"/>
    <path d="M109.66,117.11c16.42,0,26.35,9.29,26.35,22.68s-9.86,22.61-26.28,22.61H75.17v-6.55h4.46V123.66H75.17v-6.55ZM101,121.5v36.43h.65c8.21,0,13.61-6.12,13.61-18.21S110,121.5,102.1,121.5Z"/>
    <path d="M93.61,59.43l4.64-1.52V40.3h3.13V56.83L112,53.4V37.6h3.13V52.37L119.31,51V62.24l-4.21,1.4V79.57l4.21-1.27V89.44l-4.21,1.41v17.6H112V91.82L101.38,95.2v16.06H98.25V96.35l-4.64,1.52V86.62l4.64-1.51V69l-4.64,1.53ZM112,64.65,101.38,68V84.15L112,80.71Z"/>
    <path d="M143.46,98.57v34.56a16.29,16.29,0,0,1,10.91-4.54,8.28,8.28,0,0,1,6.48,3.14,10.53,10.53,0,0,1,2.48,6.48,15.91,15.91,0,0,1-1.4,6.48,9,9,0,0,1-2.38,3.24l-2.92,2.7q-8,5.82-16,11.77V98.57Zm8.75,36.94a4.22,4.22,0,0,0-3.35-1.52c-1.73,0-3.13,1-4.21,2.92-.8,1.51-1.19,5.08-1.19,10.69v9.29q.1.44,6-5.29a14,14,0,0,0,4.21-7.13,12.44,12.44,0,0,0,.43-3.24A8.24,8.24,0,0,0,152.21,135.51Z"/>
  </g>
  <g class="cdFace">
    <path d="M77.49,97.25a15.67,15.67,0,0,1-6,1.08c-7.56,0-13.18-6-13.18-16.56a19.89,19.89,0,0,1,.15-2.35,25.2,25.2,0,0,1-.15-2.65c0-10,6.63-17.21,15.77-17.21l6.63,9.79H87.5V59.16H79.65v3.46c-3.67-3-8.71-4.69-15.05-4.69-15.88,0-26.56,8.18-27.81,20.91,1.27,12.49,12.42,20.83,28.53,20.83,8.42,0,16.78-2.16,23-6.7V86.74H87.28C82,86.74,77.49,90,77.49,97.25Z"/>
    <path d="M135.89,142.29c-1.16-12-10.85-20.18-26.23-20.18h-3.59c5.62,1.81,9.21,7.75,9.21,17.61,0,.86,0,1.69-.09,2.5s.09,1.63.09,2.5c0,10.06-3.75,16-9.73,17.68h4.18C125.1,162.4,134.73,154.32,135.89,142.29Z"/>
    <polygon points="101.02 157.93 101.02 126.5 101.02 122.11 75.17 122.11 75.17 123.66 79.63 123.66 79.63 128.66 79.63 155.85 79.63 160.85 75.17 160.85 75.17 162.4 101.02 162.4 101.02 157.93"/>
    <path d="M115.1,52.37V42.6H112V58.4l-10.59,3.43V45.3H98.25V62.91l-4.64,1.52v6.13L98.25,69V90.11l-4.64,1.51v6.25l4.64-1.52v14.91h3.13V95.2L112,91.82v16.63h3.13V90.85l4.21-1.41V83.3l-4.21,1.27V63.64l4.21-1.4V56l-4.21,1.38ZM112,69.65V85.71l-10.59,3.44V68L112,64.65Z"/>
    <path d="M159.55,147.93a9,9,0,0,0,2.38-3.24,20.39,20.39,0,0,0,1.12-3.57,10.84,10.84,0,0,0-2.2-4.39,8.28,8.28,0,0,0-6.48-3.14,15.75,15.75,0,0,0-4.13.63,4.12,4.12,0,0,1,2,1.29,8.24,8.24,0,0,1,1.94,5.72,12.42,12.42,0,0,1-.28,2.49,10.49,10.49,0,0,1,.28,2.51,12.44,12.44,0,0,1-.43,3.24,13.79,13.79,0,0,1-2.34,5l5.25-3.87Z"/>
    <path d="M143.46,156.89V147.6c0-5.25.35-8.69,1-10.35-.35.28-.7.57-1,.88V103.57h-2.81V162.4l2.81-2.07Z"/>
  </g>
</svg>
