<svg viewBox="0 0 112.03 93.45">
  <path class="gBottom" d="M87.41,10.51V2.45H103.1V30H89.42L74.73,13.25c-21,.43-31.53,14.54-31.53,34.41C43.2,68,54.86,82.22,71.42,82.22V59H63.07V45.94h49V59H104V78.62C90.86,88.7,74.16,93.45,57.31,93.45,23,93.45,0,74.59,0,46.94,0,18.58,23.33,0,57.31,0,69.84,0,82.65,5,87.41,10.51Z"/>
  <path class="gFace" d="M63.07,59h8.35V87.22C54.86,87.22,43.2,73,43.2,52.66c0-.85,0-1.69.07-2.53s-.07-1.63-.07-2.47c0-19.87,10.51-34,31.53-34.41L89.42,30H103.1V7.45H87.41v8.06C82.65,10,69.84,5,57.31,5,24.34,5,1.41,22.48.07,49.43c1.34,26.28,24,44,57.24,44,16.85,0,33.55-4.75,46.66-14.83V59H112v-8.1h-49Z"/>
</svg>
