<svg viewBox="0 0 126.68 124.8">
  <g class="cdBottom">
    <path d="M50.62,44.14H51.7V55.37c-6.26,4.54-14.62,6.7-23,6.7C11.52,62.07,0,52.63,0,38.81,0,24.62,11,15.33,27.94,15.33c6.33,0,11.38,1.73,15.05,4.68V16.56h7.85V31.75H44L37.37,22c-9.14,0-15.77,7.2-15.77,17.21,0,10.51,5.62,16.56,13.18,16.56a15.67,15.67,0,0,0,6-1.08C40.83,47.38,45.29,44.14,50.62,44.14Z"/>
    <path d="M73,79.5c16.41,0,26.35,9.29,26.35,22.69S89.49,124.8,73.07,124.8H38.51v-6.56H43V86.06H38.51V79.5Zm-8.64,4.4v36.43H65c8.21,0,13.61-6.12,13.61-18.21S73.29,83.9,65.44,83.9Z"/>
    <path d="M57,21.83l4.64-1.52V2.7h3.13V19.22L75.3,15.8V0h3.14V14.77l4.21-1.38V24.64L78.44,26V42l4.21-1.27V51.84l-4.21,1.4V70.85H75.3V54.22L64.72,57.6V73.66H61.59V58.74L57,60.26V49l4.64-1.51V31.43L57,33ZM75.3,27.05,64.72,30.4V46.55L75.3,43.11Z"/>
    <path d="M106.8,61V95.53A16.28,16.28,0,0,1,117.7,91a8.3,8.3,0,0,1,6.48,3.13,10.53,10.53,0,0,1,2.49,6.48,15.85,15.85,0,0,1-1.4,6.48,8.94,8.94,0,0,1-2.38,3.24L120,113q-8,5.83-16,11.78V61Zm8.75,36.93a4.25,4.25,0,0,0-3.35-1.51q-2.6,0-4.21,2.92c-.8,1.51-1.19,5.07-1.19,10.69v9.29q.11.43,6-5.29a14.07,14.07,0,0,0,4.21-7.13,12.88,12.88,0,0,0,.43-3.24A8.28,8.28,0,0,0,115.55,97.9Z"/>
  </g>
  <g class="cdFace">
    <path d="M40.83,59.65a15.67,15.67,0,0,1-6,1.08c-7.56,0-13.18-6-13.18-16.56a22.67,22.67,0,0,1,.14-2.36c-.08-.85-.14-1.72-.14-2.64,0-10,6.63-17.21,15.77-17.21L44,31.75h6.84V21.56H43V25c-3.67-3-8.72-4.68-15-4.68C12.06,20.33,1.38,28.51.13,41.24,1.4,53.73,12.55,62.07,28.66,62.07c8.42,0,16.78-2.16,23-6.7V49.14H50.62C45.29,49.14,40.83,52.38,40.83,59.65Z"/>
    <path d="M99.23,104.69C98.06,92.65,88.37,84.5,73,84.5H69.41c5.62,1.82,9.2,7.75,9.2,17.62q0,1.29-.09,2.49c.06.81.09,1.64.09,2.51,0,10-3.74,16-9.72,17.68h4.18C88.44,124.8,98.07,116.71,99.23,104.69Z"/>
    <polygon points="64.36 120.33 64.36 88.9 64.36 84.5 38.51 84.5 38.51 86.06 42.97 86.06 42.97 91.06 42.97 118.24 42.97 123.24 38.51 123.24 38.51 124.8 64.36 124.8 64.36 120.33"/>
    <path d="M78.44,14.77V5H75.3V20.8L64.72,24.22V7.7H61.59V25.31L57,26.83V33l4.64-1.52V52.5L57,54v6.25l4.64-1.52V73.66h3.13V57.6L75.3,54.22V70.85h3.14V53.24l4.21-1.4V45.7L78.44,47V26l4.21-1.4V18.39l-4.21,1.38ZM75.3,32.05V48.11L64.72,51.55V30.4L75.3,27.05Z"/>
    <path d="M122.89,110.32a8.94,8.94,0,0,0,2.38-3.24,20,20,0,0,0,1.12-3.56,10.83,10.83,0,0,0-2.21-4.4A8.3,8.3,0,0,0,117.7,96a15.74,15.74,0,0,0-4.12.63,4.22,4.22,0,0,1,2,1.28,8.28,8.28,0,0,1,1.94,5.73,12.42,12.42,0,0,1-.28,2.49,11,11,0,0,1,.28,2.51,12.88,12.88,0,0,1-.43,3.24,13.81,13.81,0,0,1-2.35,5c1.76-1.29,3.51-2.6,5.26-3.88Z"/>
    <path d="M106.8,119.29V110c0-5.26.35-8.69,1-10.35-.35.28-.7.57-1,.88V66H104V124.8l2.81-2.07Z"/>
  </g>
</svg>
