<svg viewBox="0 0 120.08 125.16">
  <g class="abBottom">
    <path d="M75.62,98.66c11.23.21,17.79,5.25,17.79,13,0,8.5-5.91,13.54-17.14,13.54-6.77,0-9.51,0-16.42-.36H40.91v-6.56h4.47V86.06H40.91V79.5H59.85c7.49,0,8.79-.36,13.68-.36,8.64,0,13.76,3.53,13.76,10C87.29,94.77,83,98.51,75.62,98.66Zm-9.07-.72h.36c5.47,0,8.64-2.74,8.64-7.35,0-4.24-2.3-7-8.35-7h-.65Zm0,4.25v18.57h.86c6.2,0,9.58-3.24,9.58-9.14,0-6.05-3.46-9.43-10.23-9.43Z"/>
    <path d="M14.55,43.76,11.23,53.7h4.9V61H0V53.7H5.11l13.61-38H39.89L54.22,54.42h5.19V61H27.15V54.42h4.53L28.3,43.76Zm7-20.74-4.9,14.55h9.58Z"/>
    <path d="M63.35,21.83,68,20.31V2.7h3.13V19.22L81.71,15.8V0h3.14V14.77l4.21-1.38V24.64L84.85,26V42l4.21-1.27V51.84l-4.21,1.4V70.85H81.71V54.22L71.13,57.6V73.66H68V58.74l-4.65,1.52V49L68,47.5V31.43L63.35,33Zm18.36,5.22L71.13,30.4V46.55l10.58-3.44Z"/>
    <path d="M100.21,61V95.53A16.28,16.28,0,0,1,111.11,91a8.3,8.3,0,0,1,6.48,3.13,10.59,10.59,0,0,1,2.49,6.48,15.72,15.72,0,0,1-1.41,6.48,8.78,8.78,0,0,1-2.37,3.24l-2.92,2.7q-8,5.83-16,11.78V61ZM109,97.9a4.22,4.22,0,0,0-3.34-1.51q-2.6,0-4.22,2.92-1.19,2.26-1.18,10.69v9.29q.11.43,6-5.29a14.08,14.08,0,0,0,4.22-7.13,12.88,12.88,0,0,0,.43-3.24A8.24,8.24,0,0,0,109,97.9Z"/>
  </g>
  <g class="abFace">
    <path d="M39.89,20.68H18.72L5.11,58.7H0V61H16.13V58.7h-4.9v-5l3.32-9.94H28.3l3.38,10.66v5H27.15V61H59.41V59.42H54.22ZM26.21,42.57H16.63v-5L21.53,23l4.68,14.55Z"/>
    <path d="M66.55,125.08V84.38c-1.65.07-3.66.12-6.7.12H40.91v1.56h4.47v37.18H40.91v1.56H59.85C62.56,124.94,64.63,125,66.55,125.08Z"/>
    <path d="M93.18,114.31c-1.21-6.39-7.5-10.46-17.56-10.65v-5C81.9,98.54,85.89,95.83,87,91.6c-1.21-4.84-6-7.46-13.45-7.46-.85,0-1.59,0-2.28,0,3,1,4.3,3.31,4.3,6.42a8.36,8.36,0,0,1-.35,2.46,8.86,8.86,0,0,1,.35,2.54,6.7,6.7,0,0,1-5.35,6.94c4.5,1,6.79,4.17,6.79,9.09a12.8,12.8,0,0,1-.24,2.48,13.31,13.31,0,0,1,.24,2.52c0,4.41-1.89,7.33-5.43,8.53h4.71C86.26,125.16,92,121.16,93.18,114.31Z"/>
    <path d="M84.85,14.77V5H81.71V20.8L71.13,24.22V7.7H68V25.31l-4.65,1.52V33L68,31.43V52.5L63.35,54v6.25L68,58.74V73.66h3.13V57.6l10.58-3.38V70.85h3.14V53.24l4.21-1.4V45.7L84.85,47V26l4.21-1.4V18.39l-4.21,1.38ZM81.71,32.05V48.11L71.13,51.55V30.4l10.58-3.35Z"/>
    <path d="M116.3,110.32a8.78,8.78,0,0,0,2.37-3.24,20.13,20.13,0,0,0,1.13-3.56,10.83,10.83,0,0,0-2.21-4.4A8.3,8.3,0,0,0,111.11,96a15.74,15.74,0,0,0-4.12.63,4.15,4.15,0,0,1,2,1.28,8.24,8.24,0,0,1,2,5.73,11.75,11.75,0,0,1-.29,2.49,10.42,10.42,0,0,1,.29,2.51,12.88,12.88,0,0,1-.43,3.24,13.81,13.81,0,0,1-2.35,5c1.76-1.29,3.51-2.6,5.26-3.88Z"/>
    <path d="M100.21,119.29V110c0-5.26.35-8.69,1-10.35-.35.28-.7.57-1,.88V66H97.4V124.8c.93-.7,1.87-1.38,2.81-2.07Z"/>
  </g>
</svg>
