<svg viewBox="0 0 125.63 124.8">
  <g class="gaBottom">
    <path d="M43.71,20.14v-4h7.85V29.86H44.72l-7.35-8.35c-10.51.22-15.77,7.27-15.77,17.21C21.6,48.87,27.43,56,35.71,56V44.41H31.54V37.85H56v6.56H52V54.2c-6.55,5-14.91,7.42-23.33,7.42C11.52,61.62,0,52.18,0,38.36,0,24.17,11.67,14.88,28.66,14.88,34.92,14.88,41.33,17.41,43.71,20.14Z"/>
    <path d="M52.71,107.59l-3.31,9.93h4.89v7.28H38.16v-7.28h5.11l13.61-38H78.05l14.33,38.74h5.19v6.56H65.31v-6.56h4.54l-3.39-10.65Zm7-20.74L54.8,101.39h9.57Z"/>
    <path d="M59.9,21.83l4.64-1.52V2.7h3.13V19.22L78.26,15.8V0h3.13V14.77l4.21-1.38V24.64L81.39,26V42L85.6,40.7V51.84l-4.21,1.4V70.85H78.26V54.22L67.67,57.6V73.66H64.54V58.74L59.9,60.26V49l4.64-1.51V31.43L59.9,33Zm18.36,5.22L67.67,30.4V46.55l10.59-3.44Z"/>
    <path d="M105.75,61V95.53A16.29,16.29,0,0,1,116.66,91a8.3,8.3,0,0,1,6.48,3.13,10.57,10.57,0,0,1,2.48,6.48,15.85,15.85,0,0,1-1.4,6.48,8.83,8.83,0,0,1-2.38,3.24l-2.91,2.7q-8,5.83-16,11.78V61ZM114.5,97.9a4.24,4.24,0,0,0-3.35-1.51q-2.59,0-4.21,2.92c-.8,1.51-1.19,5.07-1.19,10.69v9.29q.1.43,6-5.29a14.07,14.07,0,0,0,4.21-7.13,12.44,12.44,0,0,0,.43-3.24A8.28,8.28,0,0,0,114.5,97.9Z"/>
  </g>
  <g class="gaFace">
    <path d="M31.54,44.41h4.17V61C27.43,61,21.6,53.87,21.6,43.72c0-.87.06-1.71.14-2.53a24.68,24.68,0,0,1-.14-2.47c0-9.94,5.26-17,15.77-17.21l7.35,8.35h6.84V21.11H43.71v4c-2.38-2.73-8.79-5.26-15-5.26-16,0-27.23,8.2-28.53,21C1.43,53.3,12.57,61.62,28.66,61.62c8.42,0,16.78-2.38,23.33-7.42V44.41h4V42.85H31.54Z"/>
    <path d="M78.05,84.5H56.88l-13.61,38H38.16v2.28H54.29v-2.28H49.4v-5l3.31-9.93H66.46l3.39,10.65v5H65.31v1.56H97.57v-1.56H92.38ZM64.37,106.39H54.8v-5l4.89-14.54,4.68,14.54Z"/>
    <path d="M81.39,14.77V5H78.26V20.8L67.67,24.22V7.7H64.54V25.31L59.9,26.83V33l4.64-1.52V52.5L59.9,54v6.25l4.64-1.52V73.66h3.13V57.6l10.59-3.38V70.85h3.13V53.24l4.21-1.4V45.7L81.39,47V26l4.21-1.4V18.39l-4.21,1.38ZM78.26,32.05V48.11L67.67,51.55V30.4l10.59-3.35Z"/>
    <path d="M121.84,110.32a8.83,8.83,0,0,0,2.38-3.24,20,20,0,0,0,1.12-3.56,10.94,10.94,0,0,0-2.2-4.4A8.3,8.3,0,0,0,116.66,96a15.61,15.61,0,0,0-4.12.63,4.19,4.19,0,0,1,2,1.28,8.28,8.28,0,0,1,1.94,5.73,12.42,12.42,0,0,1-.28,2.49,10.43,10.43,0,0,1,.28,2.51,12.44,12.44,0,0,1-.43,3.24,13.79,13.79,0,0,1-2.34,5c1.75-1.29,3.5-2.6,5.26-3.88Z"/>
    <path d="M105.75,119.29V110c0-5.26.35-8.69,1-10.35-.35.28-.7.57-1,.88V66h-2.81V124.8l2.81-2.07Z"/>
  </g>
</svg>
