<svg viewBox="0 0 104.97 92.01">
  <path class="bBottom" d="M69.41,39C91.87,39.46,105,49.54,105,64.94,105,81.93,93.17,92,70.7,92c-13.53,0-19,0-32.83-.72H0V78.19H8.93V13.82H0V.72H37.87C52.85.72,55.44,0,65.23,0c17.28,0,27.5,7.06,27.5,20C92.73,31.25,84.24,38.74,69.41,39ZM51.26,37.58H52c11,0,17.28-5.47,17.28-14.68,0-8.5-4.61-14-16.7-14h-1.3Zm0,8.5V83.23H53c12.38,0,19.15-6.48,19.15-18.29,0-12.09-6.91-18.86-20.44-18.86Z"/>
  <path class="bFace" d="M70.7,92c21.25,0,33-9,34.16-24.38C103.61,53.54,90.73,44.43,69.41,44V39c13.74-.26,22-6.72,23.17-16.6C91.28,11.12,81.32,5,65.23,5c-9.79,0-12.38.72-27.36.72H0v8.1H8.93V83.19H0v8.1H37.87C51.7,92,57.17,92,70.7,92ZM51.26,37.58V8.93h1.3c12.09,0,16.7,5.47,16.7,14a18.41,18.41,0,0,1-.17,2.39,20,20,0,0,1,.17,2.61c0,9.21-6.33,14.68-17.28,14.68h-.72Zm0,45.65V46.08h.44c13.53,0,20.44,6.77,20.44,18.86,0,.86,0,1.68-.11,2.48s.11,1.65.11,2.52c0,11.81-6.76,18.29-19.15,18.29H51.26Z"/>
</svg>
