<svg viewBox="0 0 103.39 93.45">
  <path class="cBottom" d="M101.23,57.6h2.16V80.06C90.86,89.13,74.16,93.45,57.31,93.45,23,93.45,0,74.59,0,46.94,0,18.58,22,0,55.87,0,68.54,0,78.62,3.46,86,9.36V2.45h15.69V32.83H88L74.73,13.25c-18.28,0-31.53,14.4-31.53,34.41,0,21,11.23,33.12,26.35,33.12a31.31,31.31,0,0,0,12.1-2.16C81.65,64.08,90.57,57.6,101.23,57.6Z"/>
  <path class="cFace" d="M81.65,83.62a31.31,31.31,0,0,1-12.1,2.16c-15.12,0-26.35-12.09-26.35-33.12,0-.79,0-1.57.07-2.34s-.07-1.75-.07-2.66c0-20,13.25-34.41,31.53-34.41L88,32.83h13.68V7.45H86v6.91C78.62,8.46,68.54,5,55.87,5,23.07,5,1.37,22.45.06,49.36c1.31,26.32,24,44.09,57.25,44.09,16.85,0,33.55-4.32,46.08-13.39V62.6h-2.16C90.57,62.6,81.65,69.08,81.65,83.62Z"/>
</svg>
