<svg viewBox="0 0 200 200">
  <g class="deBottom">
    <path d="M75.69,53.28c16.42,0,26.36,9.29,26.36,22.68S92.18,98.57,75.76,98.57H41.2V92h4.47V59.83H41.2V53.28Zm-8.64,4.39V94.11h.65c8.21,0,13.61-6.12,13.61-18.22S76,57.67,68.13,57.67Z"/>
    <path d="M129.8,117.11v14.18h-5l-6.7-9H107.26v14.33h7v-5.11h4.82v15.62h-4.82V141.8h-7v15.41H121c0-6.62,3.09-10.94,9.07-10.94h1.08V162.4H81.63v-6.55h4.46V123.66H81.63v-6.55Z"/>
    <path d="M106.07,59.43l4.64-1.52V40.3h3.13V56.83l10.59-3.43V37.6h3.13V52.37L131.77,51V62.24l-4.21,1.4V79.57l4.21-1.27V89.44l-4.21,1.41v17.6h-3.13V91.82L113.84,95.2v16.06h-3.13V96.35l-4.64,1.52V86.62l4.64-1.51V69l-4.64,1.53Zm18.36,5.22L113.84,68V84.15l10.59-3.44Z"/>
    <path d="M138.92,98.57v34.56a16.29,16.29,0,0,1,10.91-4.54,8.28,8.28,0,0,1,6.48,3.14,10.53,10.53,0,0,1,2.48,6.48,15.91,15.91,0,0,1-1.4,6.48,9,9,0,0,1-2.38,3.24l-2.92,2.7q-8,5.82-16,11.77V98.57Zm8.75,36.94a4.22,4.22,0,0,0-3.35-1.52c-1.73,0-3.13,1-4.21,2.92-.8,1.51-1.19,5.08-1.19,10.69v9.29q.11.44,6.05-5.29a14,14,0,0,0,4.21-7.13,12.44,12.44,0,0,0,.43-3.24A8.24,8.24,0,0,0,147.67,135.51Z"/>
  </g>
  <g class="deFace">
    <path d="M101.93,78.46c-1.17-12-10.86-20.18-26.24-20.18H72.11c5.61,1.82,9.2,7.75,9.2,17.61,0,.87,0,1.69-.09,2.5s.09,1.63.09,2.5c0,10.06-3.74,16-9.72,17.68h4.17C91.14,98.57,100.76,90.49,101.93,78.46Z"/>
    <polygon points="67.05 94.11 67.05 62.67 67.05 58.28 41.2 58.28 41.2 59.83 45.67 59.83 45.67 64.83 45.67 92.02 45.67 97.02 41.2 97.02 41.2 98.57 67.05 98.57 67.05 94.11"/>
    <path d="M121,162.21H107.26V141.8h7v5.33h4.82V136.51h-4.82v5.11h-7V122.29h10.87l6.7,9h5v-9.18H81.63v1.55h4.46v37.19H81.63v1.55h49.54V151.27h-1.08C124.11,151.27,121,155.59,121,162.21Z"/>
    <path d="M127.56,52.37V42.6h-3.13V58.4l-10.59,3.43V45.3h-3.13V62.91l-4.64,1.52v6.13L110.71,69V90.11l-4.64,1.51v6.25l4.64-1.52v14.91h3.13V95.2l10.59-3.38v16.63h3.13V90.85l4.21-1.41V83.3l-4.21,1.27V63.64l4.21-1.4V56l-4.21,1.38Zm-3.13,17.28V85.71l-10.59,3.44V68l10.59-3.36Z"/>
    <path d="M155,147.93a9,9,0,0,0,2.38-3.24,20.39,20.39,0,0,0,1.12-3.57,10.84,10.84,0,0,0-2.2-4.39,8.28,8.28,0,0,0-6.48-3.14,15.75,15.75,0,0,0-4.13.63,4.12,4.12,0,0,1,2,1.29,8.24,8.24,0,0,1,1.94,5.72,12.42,12.42,0,0,1-.28,2.49,10.49,10.49,0,0,1,.28,2.51,12.44,12.44,0,0,1-.43,3.24,13.79,13.79,0,0,1-2.34,5l5.25-3.87Z"/>
    <path d="M138.92,156.89V147.6c0-5.25.35-8.69,1-10.35-.35.28-.7.57-1,.88V103.57h-2.81V162.4l2.81-2.07Z"/>
  </g>
</svg>
