<svg viewBox="0 0 125 125">
  <path class="bottom" d="M107.52,55.87C104.65,24.52,81.71,0,53.91,0,24.18,0,0,28,0,62.5S24.18,125,53.91,125V110.29c-21.59,0-39.16-21.44-39.16-47.79S32.32,14.71,53.91,14.71c19.68,0,36,17.8,38.75,40.9l-16.76-6C85.73,60.81,95,79,100.45,93.56c5.44-14.61,14.72-32.75,24.55-44Z"/>
  <path class="face" d="M14.75,67.5v-5c0-26.35,17.57-47.79,39.16-47.79,19.68,0,36,17.8,38.75,40.9v5L81.33,56.53c7.74,10.94,14.7,25.15,19.12,37,4.42-11.88,11.38-26.09,19.12-37l-12,4.34C104.65,29.52,81.71,5,53.91,5,24.91,5,1.19,31.69.05,65c1.14,33.31,24.86,60,53.86,60v-9.71C32.32,115.29,14.75,93.85,14.75,67.5Z"/>
</svg>
