<svg viewBox="0 0 125 125">
  <path class="bottom" d="M71.09,0C43.29,0,20.34,24.52,17.48,55.87L0,49.57C9.83,60.81,19.11,79,24.55,93.56,30,79,39.27,60.81,49.1,49.57l-16.76,6c2.74-23.11,19.07-40.91,38.75-40.91,21.59,0,39.16,21.44,39.16,47.79s-17.57,47.79-39.16,47.79V125C100.81,125,125,97,125,62.5S100.81,0,71.09,0Z"/>
  <path class="face" d="M125,65C123.81,31.69,100.09,5,71.09,5,43.29,5,20.34,29.52,17.48,60.87l-12-4.34c7.73,10.94,14.69,25.15,19.11,37,4.42-11.88,11.39-26.09,19.12-37L32.34,60.62v-5c2.74-23.11,19.07-40.91,38.75-40.91,21.59,0,39.16,21.44,39.16,47.79v5c0,26.35-17.57,47.79-39.16,47.79V125C100.09,125,123.81,98.31,125,65Z"/>
</svg>
