<svg viewBox="0 0 200 230.94">
  <path class="fBottom" d="M148.17,70.18V98.55h-9.94l-13.39-18H103.1v31.54h17.42V100.42h9.65v33.27h-9.65V122.45H103.1v25.2h9.07v13.11H51.83V147.65h8.93V83.29H51.83V70.18Z"/>
  <polygon class="fFace" points="51.83 83.29 60.76 83.29 60.76 88.29 60.76 147.65 60.76 152.65 51.83 152.65 51.83 160.76 112.17 160.76 112.17 152.65 103.1 152.65 103.1 147.65 103.1 127.45 103.1 122.45 120.52 122.45 120.52 127.45 120.52 133.69 130.17 133.69 130.17 105.42 120.52 105.42 120.52 112.09 120.52 117.09 103.1 117.09 103.1 112.09 103.1 85.55 103.1 80.55 124.84 80.55 138.23 98.55 148.17 98.55 148.17 75.18 51.83 75.18 51.83 83.29"/>
</svg>
