<svg viewBox="0 0 200 230.94">
  <g class="abBottom">
    <path d="M115.58,151.55c11.23.22,17.78,5.26,17.78,13,0,8.5-5.9,13.54-17.13,13.54-6.77,0-9.51,0-16.42-.36H80.87v-6.55h4.47V139H80.87V132.4H99.81c7.49,0,8.78-.36,13.68-.36,8.64,0,13.75,3.52,13.75,10C127.24,147.66,123,151.41,115.58,151.55Zm-9.07-.72h.36c5.47,0,8.64-2.74,8.64-7.34,0-4.25-2.31-7-8.36-7h-.64Zm0,4.25v18.58h.86c6.19,0,9.58-3.24,9.58-9.15s-3.46-9.43-10.23-9.43Z"/>
    <path d="M54.5,96.65l-3.31,9.94h4.9v7.27H40v-7.27h5.11l13.61-38H79.85l14.33,38.74h5.18v6.55H67.1v-6.55h4.54L68.26,96.65Zm7-20.74-4.9,14.55h9.58Z"/>
    <path d="M103.31,74.72,108,73.2V55.59h3.13V72.12l10.58-3.43V52.89h3.13V67.66L129,66.28V77.53l-4.22,1.4V94.86L129,93.59v11.14l-4.22,1.41v17.6h-3.13V107.11l-10.58,3.38v16.06H108V111.64l-4.65,1.52V101.91L108,100.4V84.32l-4.65,1.53Zm18.36,5.22L111.09,83.3V99.44L121.67,96Z"/>
    <path d="M140.16,113.86v34.56a16.31,16.31,0,0,1,10.91-4.54,8.28,8.28,0,0,1,6.48,3.14A10.6,10.6,0,0,1,160,153.5a15.78,15.78,0,0,1-1.41,6.48,9,9,0,0,1-2.37,3.24l-2.92,2.7q-8,5.82-16,11.77V113.86Zm8.75,36.94a4.2,4.2,0,0,0-3.35-1.52c-1.72,0-3.13,1-4.21,2.92-.79,1.51-1.19,5.08-1.19,10.69v9.29q.1.44,6.05-5.29a14,14,0,0,0,4.21-7.13,12.45,12.45,0,0,0,.44-3.24A8.2,8.2,0,0,0,148.91,150.8Z"/>
  </g>
  <g class="abFace">
    <path d="M79.85,73.57H58.68l-13.61,38H40v2.27H56.09v-2.27h-4.9v-5l3.31-9.94H68.26l3.38,10.66v5H67.1v1.55H99.36v-1.55H94.18ZM66.17,95.46H56.59v-5l4.9-14.55,4.68,14.55Z"/>
    <path d="M106.51,178v-40.7c-1.66.07-3.67.13-6.7.13H80.87V139h4.47v37.19H80.87v1.55H99.81C102.52,177.83,104.59,177.91,106.51,178Z"/>
    <path d="M133.14,167.2c-1.21-6.39-7.5-10.46-17.56-10.65v-5c6.27-.12,10.27-2.83,11.35-7.06-1.21-4.84-6-7.45-13.44-7.45-.85,0-1.59,0-2.28,0,3.05,1,4.3,3.3,4.3,6.42a8.29,8.29,0,0,1-.35,2.45,8.88,8.88,0,0,1,.35,2.55,6.72,6.72,0,0,1-5.35,6.94c4.5,1,6.79,4.16,6.79,9.08a13,13,0,0,1-.24,2.49,13.2,13.2,0,0,1,.24,2.51c0,4.41-1.89,7.33-5.43,8.53h4.71C126.22,178.05,132,174.05,133.14,167.2Z"/>
    <path d="M124.8,67.66V57.89h-3.13v15.8l-10.58,3.43V60.59H108V78.2l-4.65,1.52v6.13L108,84.32V105.4l-4.65,1.51v6.25l4.65-1.52v14.91h3.13V110.49l10.58-3.38v16.63h3.13v-17.6l4.22-1.41V98.59l-4.22,1.27V78.93l4.22-1.4V71.28l-4.22,1.38Zm-3.13,17.28V101l-10.58,3.44V83.3l10.58-3.36Z"/>
    <path d="M156.26,163.22a9,9,0,0,0,2.37-3.24,21.37,21.37,0,0,0,1.13-3.57,10.73,10.73,0,0,0-2.21-4.39,8.28,8.28,0,0,0-6.48-3.14,15.68,15.68,0,0,0-4.12.63,4.14,4.14,0,0,1,2,1.29,8.2,8.2,0,0,1,2,5.72,12.44,12.44,0,0,1-.29,2.49,10.48,10.48,0,0,1,.29,2.51,12.45,12.45,0,0,1-.44,3.24,13.63,13.63,0,0,1-2.34,5l5.26-3.87Z"/>
    <path d="M140.16,172.18v-9.29c0-5.25.35-8.69,1.05-10.35-.35.28-.7.57-1.05.88V118.86h-2.8v58.83c.93-.7,1.87-1.38,2.8-2.07Z"/>
  </g>
</svg>
