<svg viewBox="0 0 200 230.94">
  <path class="dBottom" d="M108.14,70.18c32.83,0,52.7,18.58,52.7,45.36s-19.73,45.22-52.56,45.22H39.16V147.65h8.93V83.29H39.16V70.18ZM90.86,79v72.86h1.29c16.42,0,27.22-12.24,27.22-36.43S108.71,79,93,79Z"/>
  <path class="dFace" d="M160.78,118c-1.2-25.43-20.84-42.86-52.64-42.86h-69v8.11h8.93v69.36H39.16v8.11h69.12C140.08,160.76,159.58,143.47,160.78,118ZM90.86,156.83V79H93c15.69,0,26.35,12.38,26.35,36.43,0,.85,0,1.68-.05,2.5s.05,1.65.05,2.5c0,24.19-10.8,36.43-27.22,36.43Z"/>
</svg>
