<svg viewBox="0 0 200 230.94">
  <g class="deBottom">
    <path d="M75.69,68.75c16.42,0,26.36,9.29,26.36,22.68S92.18,114,75.76,114H41.2v-6.55h4.47V75.3H41.2V68.75Zm-8.64,4.39v36.44h.65c8.21,0,13.61-6.12,13.61-18.22S76,73.14,68.13,73.14Z"/>
    <path d="M129.8,132.58v14.18h-5l-6.7-9H107.26v14.33h7V147h4.82V162.6h-4.82v-5.33h-7v15.41H121c0-6.62,3.09-10.94,9.07-10.94h1.08v16.13H81.63v-6.55h4.46V139.13H81.63v-6.55Z"/>
    <path d="M106.07,74.9l4.64-1.52V55.77h3.13V72.3l10.59-3.43V53.07h3.13V67.84l4.21-1.38V77.71l-4.21,1.4V95l4.21-1.27v11.14l-4.21,1.41v17.6h-3.13V107.29l-10.59,3.39v16h-3.13V111.82l-4.64,1.52V102.09l4.64-1.51V84.5L106.07,86Zm18.36,5.22-10.59,3.36V99.62l10.59-3.44Z"/>
    <path d="M138.92,114V148.6a16.29,16.29,0,0,1,10.91-4.54,8.28,8.28,0,0,1,6.48,3.14,10.53,10.53,0,0,1,2.48,6.48,15.91,15.91,0,0,1-1.4,6.48A9,9,0,0,1,155,163.4l-2.92,2.7q-8,5.82-16,11.77V114ZM147.67,151a4.22,4.22,0,0,0-3.35-1.52c-1.73,0-3.13,1-4.21,2.92-.8,1.51-1.19,5.08-1.19,10.69v9.29q.11.44,6.05-5.29a14,14,0,0,0,4.21-7.13,12.44,12.44,0,0,0,.43-3.24A8.24,8.24,0,0,0,147.67,151Z"/>
  </g>
  <g class="deFace">
    <path d="M101.93,93.93c-1.17-12-10.86-20.18-26.24-20.18H72.11c5.61,1.82,9.2,7.75,9.2,17.61,0,.87,0,1.69-.09,2.5s.09,1.63.09,2.5c0,10.06-3.74,16-9.72,17.68h4.17C91.14,114,100.76,106,101.93,93.93Z"/>
    <polygon points="67.05 109.58 67.05 78.14 67.05 73.75 41.2 73.75 41.2 75.3 45.67 75.3 45.67 80.3 45.67 107.49 45.67 112.49 41.2 112.49 41.2 114.04 67.05 114.04 67.05 109.58"/>
    <path d="M121,177.68H107.26V157.27h7v5.33h4.82V152h-4.82v5.11h-7V137.76h10.87l6.7,9h5v-9.18H81.63v1.55h4.46v37.19H81.63v1.55h49.54V166.74h-1.08C124.11,166.74,121,171.06,121,177.68Z"/>
    <path d="M127.56,67.84V58.07h-3.13v15.8L113.84,77.3V60.77h-3.13V78.38l-4.64,1.52V86l4.64-1.53v21.08l-4.64,1.51v6.25l4.64-1.52v14.91h3.13v-16l10.59-3.39v16.63h3.13v-17.6l4.21-1.41V98.77L127.56,100V79.11l4.21-1.4V71.46l-4.21,1.38Zm-3.13,17.28v16.06l-10.59,3.44V83.48l10.59-3.36Z"/>
    <path d="M155,163.4a9,9,0,0,0,2.38-3.24,20.39,20.39,0,0,0,1.12-3.57,10.84,10.84,0,0,0-2.2-4.39,8.28,8.28,0,0,0-6.48-3.14,15.75,15.75,0,0,0-4.13.63,4.12,4.12,0,0,1,2,1.29,8.24,8.24,0,0,1,1.94,5.72,12.42,12.42,0,0,1-.28,2.49,10.49,10.49,0,0,1,.28,2.51,12.44,12.44,0,0,1-.43,3.24,13.79,13.79,0,0,1-2.34,5l5.25-3.87Z"/>
    <path d="M138.92,172.36v-9.29c0-5.25.35-8.69,1-10.35-.35.28-.7.57-1,.88V119h-2.81v58.83l2.81-2.07Z"/>
  </g>
</svg>
