<svg viewBox="0 0 200 230.94">
  <g class="gaBottom">
    <path d="M80.89,73.21v-4h7.85V82.93H81.9l-7.34-8.35C64,74.8,58.79,81.85,58.79,91.79c0,10.15,5.83,17.28,14.11,17.28V97.48H68.72V90.93H93.21v6.55h-4v9.79c-6.55,5-14.9,7.42-23.33,7.42-17.13,0-28.65-9.43-28.65-23.26C37.19,77.25,48.85,68,65.84,68,72.11,68,78.52,70.48,80.89,73.21Z"/>
    <path d="M89.89,160.66l-3.31,9.94h4.9v7.27H75.35V170.6h5.11l13.61-38h21.17l14.33,38.74h5.18v6.55H102.49v-6.55H107l-3.38-10.66Zm7-20.74L92,154.47h9.58Z"/>
    <path d="M97.08,74.9l4.65-1.52V55.77h3.13V72.3l10.58-3.43V53.07h3.14V67.84l4.21-1.38V77.71l-4.21,1.4V95l4.21-1.27v11.14l-4.21,1.41v17.6h-3.14V107.29l-10.58,3.39v16h-3.13V111.82l-4.65,1.52V102.09l4.65-1.51V84.5L97.08,86Zm18.36,5.22-10.58,3.36V99.62l10.58-3.44Z"/>
    <path d="M142.94,114V148.6a16.26,16.26,0,0,1,10.9-4.54,8.28,8.28,0,0,1,6.48,3.14,10.54,10.54,0,0,1,2.49,6.48,15.78,15.78,0,0,1-1.41,6.48A9,9,0,0,1,159,163.4l-2.92,2.7q-8,5.82-16,11.77V114ZM151.68,151a4.2,4.2,0,0,0-3.34-1.52c-1.73,0-3.14,1-4.22,2.92-.79,1.51-1.18,5.08-1.18,10.69v9.29q.1.44,6-5.29a14,14,0,0,0,4.22-7.13,12.88,12.88,0,0,0,.43-3.24A8.2,8.2,0,0,0,151.68,151Z"/>
  </g>
  <g class="gaFace">
    <path d="M68.72,97.48H72.9v16.59c-8.28,0-14.11-7.13-14.11-17.28,0-.87.05-1.7.13-2.53a24.72,24.72,0,0,1-.13-2.47c0-9.94,5.25-17,15.77-17.21l7.34,8.35h6.84V74.18H80.89v4c-2.37-2.73-8.78-5.25-15-5.25-16,0-27.22,8.2-28.53,21,1.3,12.46,12.44,20.78,28.53,20.78,8.43,0,16.78-2.38,23.33-7.42V97.48h4V95.93H68.72Z"/>
    <path d="M115.24,137.58H94.07l-13.61,38H75.35v2.27H91.48V175.6h-4.9v-5l3.31-9.94h13.76L107,171.32v5h-4.54v1.55h32.26v-1.55h-5.18Zm-13.68,21.89H92v-5l4.9-14.55,4.68,14.55Z"/>
    <path d="M118.58,67.84V58.07h-3.14v15.8L104.86,77.3V60.77h-3.13V78.38L97.08,79.9V86l4.65-1.53v21.08l-4.65,1.51v6.25l4.65-1.52v14.91h3.13v-16l10.58-3.39v16.63h3.14v-17.6l4.21-1.41V98.77L118.58,100V79.11l4.21-1.4V71.46l-4.21,1.38Zm-3.14,17.28v16.06l-10.58,3.44V83.48l10.58-3.36Z"/>
    <path d="M159,163.4a9,9,0,0,0,2.37-3.24,21.37,21.37,0,0,0,1.13-3.57,10.73,10.73,0,0,0-2.21-4.39,8.28,8.28,0,0,0-6.48-3.14,15.74,15.74,0,0,0-4.12.63,4.14,4.14,0,0,1,2,1.29,8.2,8.2,0,0,1,1.95,5.72,12.44,12.44,0,0,1-.29,2.49,10.48,10.48,0,0,1,.29,2.51,12.88,12.88,0,0,1-.43,3.24,13.81,13.81,0,0,1-2.35,5l5.26-3.87Z"/>
    <path d="M142.94,172.36v-9.29c0-5.25.35-8.69,1-10.35-.35.28-.7.57-1,.88V119h-2.81v58.83c.93-.7,1.87-1.38,2.81-2.07Z"/>
  </g>
</svg>
