<svg viewBox="0 0 430 430">
  <path class="right" d="M343,383.68A199.18,199.18,0,0,1,215,430C56.49,416.35,494.77,233.85,343,383.68Z"/>
  <path class="rightFar" d="M415,200v30a199.58,199.58,0,0,1-72,153.68,166.59,166.59,0,0,0,20-24.16,165.13,165.13,0,0,1-40,23.84C336.68,372,350.12,357,363,339.52a88.84,88.84,0,0,1-20,14.16Z"/>
  <path class="left" d="M215,430A199.18,199.18,0,0,1,87,383.68C-38.16,243.08,215,400,215,400a151.51,151.51,0,0,0,30,2.76,214.9,214.9,0,0,1-60,10,227.75,227.75,0,0,0,60,10A160.47,160.47,0,0,1,215,430Z"/>
  <path class="leftFar" d="M15,200v30A199.58,199.58,0,0,0,87,383.68a94.92,94.92,0,0,0,20,9.66,163.84,163.84,0,0,1-40-43.82,188.21,188.21,0,0,0,40,23.84,111.86,111.86,0,0,1-20-19.68Z"/>
  <circle class="edge" cx="215" cy="200" r="200"/>
  <circle class="face" cx="215" cy="200" r="192"/>
</svg>
