<svg class="dominoes" xmlns="http://www.w3.org/2000/svg" viewBox="0 0 1119.71 475.42">
  <g class="textLogoShadow">
    <path d="M121.15,185.34c28.08.54,44.46,13.14,44.46,32.4,0,21.24-14.76,33.83-42.84,33.83-16.92,0-23.76,0-41-.9H34.39V234.3H45.55V153.84H34.39V137.46H81.73c18.72,0,22-.9,34.2-.9,21.6,0,34.38,8.82,34.38,25C150.31,175.62,139.69,185,121.15,185.34Zm-22.68-1.8h.9c13.68,0,21.6-6.84,21.6-18.36,0-10.62-5.76-17.46-20.88-17.46H98.47Zm0,10.62V240.6h2.16c15.48,0,23.94-8.1,23.94-22.86,0-15.12-8.64-23.58-25.56-23.58Z"/>
    <path d="M172.63,214.5c0-22.86,18.54-38.88,46.44-38.88,26.46,0,45.17,16,45.17,38.88s-19.07,38.69-46.07,38.69C190.45,253.19,172.63,237.54,172.63,214.5Zm43.74,0c0,10.08,7.2,17.46,16.92,17.46,9.54,0,16.91-7.74,16.91-18S243,196.5,233.29,196.5C223.21,196.5,216.37,203.88,216.37,214.5Z"/>
    <path d="M307.27,250.67H268V234.3h8.64v-94l-12.42,6.12v-22h53.28v62.64c5.76-6.84,14.75-11,27-11,22.68,0,39.6,14.76,39.6,38s-17.46,38.15-40.32,38.15c-15.65,0-25.73-6.48-30.77-16.91Zm10.08-36.89c0,11.7,4.14,18.18,11.34,18.18,8.09,0,12.77-6.3,12.77-17.82,0-11.88-4.31-18-12.77-18C321.49,196.14,317.35,202.62,317.35,213.78Z"/>
    <path d="M437.77,178h14.76v16.38H437.41V224c0,7,3.24,9.9,8.28,9.9a14.91,14.91,0,0,0,6.84-1.44v14s-7.56,5.75-23.76,5.75c-20.7,0-31-9.35-31-31.85v-26.1H385.57V178h12.24v-23.4l40-7.2Z"/>
    <path d="M513.19,237.9c-5.22,9.17-15.84,14.75-29.34,14.75-15.12,0-25.92-8.27-25.92-21.59,0-13.5,11-22.5,30.42-22.5,9.54,0,16.56,2.52,21.6,5.94,0-15.84-20-17.64-36.54-10.44-.36.18-6.3-20.16-6.3-20.16a87.12,87.12,0,0,1,36.72-7.74c30.24,0,47.52,12.24,47.52,42.3V234.3l12.06-3.6v20H517.15Zm-14.76-16c-6.48,0-10.26,3.24-10.26,7.92,0,4.5,3.24,7.56,9.36,7.56a13.48,13.48,0,0,0,13.32-10.62A17.59,17.59,0,0,0,498.43,221.88Z"/>
    <path d="M620.83,234.3H630v16.37H571.33V234.3h9v-40h-9V178h49.5ZM599.05,128.1c13,0,22.14,9,22.14,21.78s-9.18,21.78-22.14,21.78c-13.14,0-22.32-9-22.32-21.78S585.91,128.1,599.05,128.1Z"/>
    <path d="M639.37,250.67V234.3h8.46v-94l-14,6.12v-22h54.9V234.3H697v16.37Z"/>
    <path d="M210.17,280.66c41,0,65.87,23.22,65.87,56.7s-24.65,56.52-65.69,56.52H124V377.5h11.16V297H124V280.66Zm-21.6,11v91.08h1.62c20.52,0,34-15.3,34-45.54,0-30.06-13.32-45.54-32.94-45.54Z"/>
    <path d="M283.61,357.7c0-22.86,18.54-38.88,46.44-38.88,26.46,0,45.18,16,45.18,38.88s-19.08,38.7-46.08,38.7C301.43,396.4,283.61,380.74,283.61,357.7Zm43.74,0c0,10.08,7.2,17.46,16.92,17.46,9.54,0,16.92-7.74,16.92-18S354,339.7,344.27,339.7C334.19,339.7,327.35,347.08,327.35,357.7Z"/>
    <path d="M432.47,377.5H437v16.38H383.15V377.5h9.18v-40h-9.18V321.16H426l4.14,16.56c5.22-10.62,14.94-18.36,29.52-18.36,13.14,0,22.32,6.3,26.64,18,5.4-10.44,15.29-18,29.87-18,18.54,0,30.06,12.06,30.06,34.56V377.5H555v16.38H501V377.5h4.86V353.2c0-7.38-2.88-10.8-7.55-10.8-6.49,0-9.36,4.5-9.36,13.86V377.5h4.68v16.38H444.35V377.5h5V353.2c0-7.38-2.7-10.8-7.74-10.8s-7.92,3.06-9.18,9.18Z"/>
    <path d="M615,377.5h9.18v16.38H565.49V377.5h9v-40h-9V321.16H615ZM593.21,271.3c13,0,22.14,9,22.14,21.78s-9.18,21.78-22.14,21.78c-13.14,0-22.32-9-22.32-21.78S580.07,271.3,593.21,271.3Z"/>
    <path d="M679.61,341.14c5.58-14.94,17.1-21.78,32.4-21.78,18.71,0,30.77,11.88,30.77,34.38V377.5h9v16.38H696.89V377.5h5.22V353.92c0-7.56-3.42-10.8-8.28-10.8-5.4,0-9.18,2.52-10.8,13.32V377.5h4.86v16.38H633.17V377.5h9.18v-40h-9.18V321.16h41Z"/>
    <path d="M757.19,357.7c0-22.86,18.54-38.88,46.44-38.88,26.46,0,45.18,16,45.18,38.88s-19.08,38.7-46.08,38.7C775,396.4,757.19,380.74,757.19,357.7Zm43.74,0c0,10.08,7.2,17.46,16.92,17.46,9.54,0,16.92-7.74,16.92-18s-7.2-17.46-16.92-17.46C807.77,339.7,800.93,347.08,800.93,357.7Z"/>
    <path d="M951,320.44l8.82,16.2-55.07,34a17.89,17.89,0,0,0,9.53,2.52c11.16,0,20.52-7,27.54-17.46l17.46,15.48c-10.26,13.86-26.1,24.66-51.47,24.66-31.5,0-51.48-14.58-51.48-38.16,0-22.68,18.72-38.34,47-38.34,14.39,0,25.19,5.4,32.57,12.42C936.1,331.78,951,320.44,951,320.44ZM918.46,345.1a10.85,10.85,0,0,0-9.9-5.4c-7.91,0-12.77,5.76-12.77,15.48a14.61,14.61,0,0,0,1.26,6.3Z"/>
    <path d="M990.65,387.22v6.66H970.31V370.12h14.58l17.27,13.68c5.22,0,7.92-1.08,7.92-4.86s-5.58-5.94-17.27-10.08c-13.32-4.68-25.2-9.18-25.2-23.4,0-13.14,10.44-26.1,35.27-26.1,13.32,0,26.28,3.24,32.58,8.46v-6.66h18.72v23.76h-14.76l-15.48-13.5c-5.22,0-7.92,2.34-7.92,6.12s3.42,4.5,15.66,7.74c13.68,3.6,26.82,9.9,26.82,24.12,0,13.14-10.44,26.46-35.28,26.46C1008.1,395.86,996.94,392.44,990.65,387.22Z"/>
    <path d="M1094.36,346.34h-2.73a79.25,79.25,0,0,1-26.93-59.9c0-28.41,11.38-45.28,27.5-45.28s27.51,16.87,27.51,45.28C1119.71,316.25,1105.88,336.5,1094.36,346.34Zm-2.16,6.86c12.78,0,21.24,9,21.24,21.42,0,12.24-8.46,21.24-21.24,21.24-12.59,0-21-9-21-21.24C1071.15,362.2,1079.61,353.2,1092.2,353.2Z"/>
  </g>
  <g class="textLogo">
    <path d="M121.15,180.34c28.08.54,44.46,13.14,44.46,32.4,0,21.24-14.76,33.83-42.84,33.83-16.92,0-23.76,0-41-.9H34.39V229.3H45.55V148.84H34.39V132.46H81.73c18.72,0,22-.9,34.2-.9,21.6,0,34.38,8.82,34.38,25C150.31,170.62,139.69,180,121.15,180.34Zm-22.68-1.8h.9c13.68,0,21.6-6.84,21.6-18.36,0-10.62-5.76-17.46-20.88-17.46H98.47Zm0,10.62V235.6h2.16c15.48,0,23.94-8.1,23.94-22.86,0-15.12-8.64-23.58-25.56-23.58Z"/>
    <path d="M172.63,209.5c0-22.86,18.54-38.88,46.44-38.88,26.46,0,45.17,16,45.17,38.88s-19.07,38.69-46.07,38.69C190.45,248.19,172.63,232.54,172.63,209.5Zm43.74,0c0,10.08,7.2,17.46,16.92,17.46,9.54,0,16.91-7.74,16.91-18S243,191.5,233.29,191.5C223.21,191.5,216.37,198.88,216.37,209.5Z"/>
    <path d="M307.27,245.67H268V229.3h8.64v-94l-12.42,6.12v-22h53.28v62.64c5.76-6.84,14.75-11,27-11,22.68,0,39.6,14.76,39.6,38s-17.46,38.15-40.32,38.15c-15.65,0-25.73-6.48-30.77-16.91Zm10.08-36.89c0,11.7,4.14,18.18,11.34,18.18,8.09,0,12.77-6.3,12.77-17.82,0-11.88-4.31-18-12.77-18C321.49,191.14,317.35,197.62,317.35,208.78Z"/>
    <path d="M437.77,173h14.76v16.38H437.41V219c0,7,3.24,9.9,8.28,9.9a14.91,14.91,0,0,0,6.84-1.44v14s-7.56,5.75-23.76,5.75c-20.7,0-31-9.35-31-31.85v-26.1H385.57V173h12.24v-23.4l40-7.2Z"/>
    <path d="M513.19,232.9c-5.22,9.17-15.84,14.75-29.34,14.75-15.12,0-25.92-8.27-25.92-21.59,0-13.5,11-22.5,30.42-22.5,9.54,0,16.56,2.52,21.6,5.94,0-15.84-20-17.64-36.54-10.44-.36.18-6.3-20.16-6.3-20.16a87.12,87.12,0,0,1,36.72-7.74c30.24,0,47.52,12.24,47.52,42.3V229.3l12.06-3.6v20H517.15Zm-14.76-16c-6.48,0-10.26,3.24-10.26,7.92,0,4.5,3.24,7.56,9.36,7.56a13.48,13.48,0,0,0,13.32-10.62A17.59,17.59,0,0,0,498.43,216.88Z"/>
    <path d="M620.83,229.3H630v16.37H571.33V229.3h9v-40h-9V173h49.5ZM599.05,123.1c13,0,22.14,9,22.14,21.78s-9.18,21.78-22.14,21.78c-13.14,0-22.32-9-22.32-21.78S585.91,123.1,599.05,123.1Z"/>
    <path d="M639.37,245.67V229.3h8.46v-94l-14,6.12v-22h54.9V229.3H697v16.37Z"/>
    <path d="M210.17,275.66c41,0,65.87,23.22,65.87,56.7s-24.65,56.52-65.69,56.52H124V372.5h11.16V292H124V275.66Zm-21.6,11v91.08h1.62c20.52,0,34-15.3,34-45.54,0-30.06-13.32-45.54-32.94-45.54Z"/>
    <path d="M283.61,352.7c0-22.86,18.54-38.88,46.44-38.88,26.46,0,45.18,16,45.18,38.88s-19.08,38.7-46.08,38.7C301.43,391.4,283.61,375.74,283.61,352.7Zm43.74,0c0,10.08,7.2,17.46,16.92,17.46,9.54,0,16.92-7.74,16.92-18S354,334.7,344.27,334.7C334.19,334.7,327.35,342.08,327.35,352.7Z"/>
    <path d="M432.47,372.5H437v16.38H383.15V372.5h9.18v-40h-9.18V316.16H426l4.14,16.56c5.22-10.62,14.94-18.36,29.52-18.36,13.14,0,22.32,6.3,26.64,18,5.4-10.44,15.29-18,29.87-18,18.54,0,30.06,12.06,30.06,34.56V372.5H555v16.38H501V372.5h4.86V348.2c0-7.38-2.88-10.8-7.55-10.8-6.49,0-9.36,4.5-9.36,13.86V372.5h4.68v16.38H444.35V372.5h5V348.2c0-7.38-2.7-10.8-7.74-10.8s-7.92,3.06-9.18,9.18Z"/>
    <path d="M615,372.5h9.18v16.38H565.49V372.5h9v-40h-9V316.16H615ZM593.21,266.3c13,0,22.14,9,22.14,21.78s-9.18,21.78-22.14,21.78c-13.14,0-22.32-9-22.32-21.78S580.07,266.3,593.21,266.3Z"/>
    <path d="M679.61,336.14c5.58-14.94,17.1-21.78,32.4-21.78,18.71,0,30.77,11.88,30.77,34.38V372.5h9v16.38H696.89V372.5h5.22V348.92c0-7.56-3.42-10.8-8.28-10.8-5.4,0-9.18,2.52-10.8,13.32V372.5h4.86v16.38H633.17V372.5h9.18v-40h-9.18V316.16h41Z"/>
    <path d="M757.19,352.7c0-22.86,18.54-38.88,46.44-38.88,26.46,0,45.18,16,45.18,38.88s-19.08,38.7-46.08,38.7C775,391.4,757.19,375.74,757.19,352.7Zm43.74,0c0,10.08,7.2,17.46,16.92,17.46,9.54,0,16.92-7.74,16.92-18s-7.2-17.46-16.92-17.46C807.77,334.7,800.93,342.08,800.93,352.7Z"/>
    <path d="M951,315.44l8.82,16.2-55.07,34a17.89,17.89,0,0,0,9.53,2.52c11.16,0,20.52-7,27.54-17.46l17.46,15.48c-10.26,13.86-26.1,24.66-51.47,24.66-31.5,0-51.48-14.58-51.48-38.16,0-22.68,18.72-38.34,47-38.34,14.39,0,25.19,5.4,32.57,12.42C936.1,326.78,951,315.44,951,315.44ZM918.46,340.1a10.85,10.85,0,0,0-9.9-5.4c-7.91,0-12.77,5.76-12.77,15.48a14.61,14.61,0,0,0,1.26,6.3Z"/>
    <path d="M990.65,382.22v6.66H970.31V365.12h14.58l17.27,13.68c5.22,0,7.92-1.08,7.92-4.86s-5.58-5.94-17.27-10.08c-13.32-4.68-25.2-9.18-25.2-23.4,0-13.14,10.44-26.1,35.27-26.1,13.32,0,26.28,3.24,32.58,8.46v-6.66h18.72v23.76h-14.76l-15.48-13.5c-5.22,0-7.92,2.34-7.92,6.12s3.42,4.5,15.66,7.74c13.68,3.6,26.82,9.9,26.82,24.12,0,13.14-10.44,26.46-35.28,26.46C1008.1,390.86,996.94,387.44,990.65,382.22Z"/>
    <path d="M1094.36,338.53h-2.73a79.27,79.27,0,0,1-26.93-59.91c0-28.4,11.38-45.27,27.5-45.27s27.51,16.87,27.51,45.27C1119.71,308.44,1105.88,328.69,1094.36,338.53Zm-2.16,9.67c12.78,0,21.24,9,21.24,21.42,0,12.24-8.46,21.24-21.24,21.24-12.59,0-21-9-21-21.24C1071.15,357.2,1079.61,348.2,1092.2,348.2Z"/>
  </g>
  <g class="b3_descend">
    <g class="bottom">
      <path class="left" d="M0,131.33V238.14a15,15,0,0,0,7.5,13L100,304.54V411.35a15,15,0,0,0,7.5,13l85,49.07a15,15,0,0,0,15,0l85-49.07a15,15,0,0,0,7.5-13V304.54Z"/>
      <path class="right" d="M200,475.42a15,15,0,0,0,7.5-2l85-49.07a15,15,0,0,0,7.5-13v-15L200,460.42Z"/>
    </g>
    <path class="edge" d="M192.5,112l-85-49.07a15,15,0,0,0-15,0L7.5,112A15,15,0,0,0,0,125v98.15a15,15,0,0,0,7.5,13L100,289.54V396.35a15,15,0,0,0,7.5,13l85,49.07a15,15,0,0,0,15,0l85-49.07a15,15,0,0,0,7.5-13V298.2a15,15,0,0,0-7.5-13L200,231.8V125A15,15,0,0,0,192.5,112Z"/>
    <path class="face" d="M188.5,114.31l-81-46.77a15,15,0,0,0-15,0l-81,46.77a15,15,0,0,0-7.5,13v93.53a15,15,0,0,0,7.5,13L104,287.23V394a15,15,0,0,0,7.5,13l81,46.76a15,15,0,0,0,15,0l81-46.76a15,15,0,0,0,7.5-13V300.51a15,15,0,0,0-7.5-13L196,234.11V127.3A15,15,0,0,0,188.5,114.31Z"/>
    <path class="bBottom" d="M121.15,165.34c28.08.54,44.46,13.14,44.46,32.4,0,21.24-14.76,33.83-42.84,33.83-16.92,0-23.76,0-41-.9H34.39V214.3H45.55V133.84H34.39V117.46H81.73c18.72,0,22-.9,34.2-.9,21.6,0,34.38,8.82,34.38,25C150.31,155.62,139.69,165,121.15,165.34Zm-22.68-1.8h.9c13.68,0,21.6-6.84,21.6-18.36,0-10.62-5.76-17.46-20.88-17.46H98.47Zm0,10.62V220.6h2.16c15.48,0,23.94-8.11,23.94-22.86,0-15.12-8.64-23.58-25.56-23.58Z"/>
    <path class="bFace" d="M122.77,231.57c26.56,0,41.19-11.27,42.7-30.47-1.57-17.62-17.67-29-44.32-29.51v-6.25c17.18-.34,27.54-8.41,29-20.76-1.62-14.13-14.08-21.77-34.19-21.77-12.24,0-15.48.9-34.2.9H34.39v10.13H45.55v86.71H34.39v10.12H81.73C99,231.57,105.85,231.57,122.77,231.57Zm-24.3-68V127.72h1.62c15.12,0,20.88,6.84,20.88,17.46a22.13,22.13,0,0,1-.22,3,24.55,24.55,0,0,1,.22,3.26c0,11.52-7.92,18.36-21.6,18.36h-.9Zm0,57.06V174.16H99c16.92,0,25.56,8.46,25.56,23.58,0,1.07-.06,2.1-.15,3.1.09,1,.15,2.06.15,3.15,0,14.75-8.46,22.86-23.94,22.86H98.47Z"/>
    <path class="dBottom" d="M210.17,290.66c41,0,65.88,23.22,65.88,56.7s-24.66,56.52-65.7,56.52H124V387.5h11.16V307H124V290.66Zm-21.6,11v91.08h1.62c20.52,0,34-15.3,34-45.54,0-30.06-13.32-45.54-32.94-45.54Z"/>
    <path class="dFace" d="M276,350.49c-1.5-31.79-26.05-53.58-65.8-53.58H124V307h11.16v86.71H124v10.13h86.4C250.1,403.88,274.48,382.27,276,350.49ZM188.57,399V301.64h2.7c19.62,0,32.94,15.48,32.94,45.54,0,1.06,0,2.1-.06,3.13s.06,2.06.06,3.12c0,30.24-13.5,45.54-34,45.54Z"/>
    <g class="dotsBottom">
      <path d="M182.22,243l-9.36,5.4a1.89,1.89,0,0,0,0,3.26l9.36,5.4a1.88,1.88,0,0,0,2.82-1.62V244.59A1.88,1.88,0,0,0,182.22,243Z"/>
      <path d="M153.74,253.63,144.38,259a1.89,1.89,0,0,0,0,3.26l9.36,5.4a1.88,1.88,0,0,0,2.82-1.62V255.26A1.88,1.88,0,0,0,153.74,253.63Z"/>
      <path d="M125.26,264.3l-9.36,5.41a1.88,1.88,0,0,0,0,3.26l9.36,5.4a1.88,1.88,0,0,0,2.82-1.62V265.93A1.88,1.88,0,0,0,125.26,264.3Z"/>
    </g>
    <g class="dotsFace">
      <path d="M182.22,248l-7.85,4.53,7.85,4.53a1.88,1.88,0,0,0,2.82-1.62v-5.82A1.88,1.88,0,0,0,182.22,248Z"/>
      <path d="M153.74,258.64l-7.85,4.53,7.85,4.53a1.88,1.88,0,0,0,2.82-1.62v-5.82A1.88,1.88,0,0,0,153.74,258.64Z"/>
      <path d="M125.26,269.3l-7.85,4.54,7.85,4.53a1.88,1.88,0,0,0,2.82-1.62v-5.82A1.88,1.88,0,0,0,125.26,269.3Z"/>
    </g>
  </g>
  <text class="textLogoPresent" transform="translate(100 70.92)">The Bobtail Yearlings present…</text>
</svg>
