<svg class="dominoes" viewBox="0 0 299.99 180.97">
  <g class="bottom">
    <path class="left" d="M0,121.67v11.24a11.25,11.25,0,0,0,5.63,9.75l63.74,36.8a11.23,11.23,0,0,0,11.25,0L150,139.41l69.37,40.05a11.23,11.23,0,0,0,11.25,0l63.75-36.8a11.25,11.25,0,0,0,5.62-9.74V121.67Z"/>
    <g class="right">
      <path d="M150,128.16,75,169.72V181a11.18,11.18,0,0,0,5.62-1.51L150,139.41V128.16"/>
      <path d="M300,132.92a11.25,11.25,0,0,1-5.62,9.74l-63.75,36.8A11.19,11.19,0,0,1,225,181V169.72l75-48Z"/>
    </g>
  </g>
  <path class="edge" d="M219.37,1.51,150,41.56,80.62,1.51a11.25,11.25,0,0,0-11.25,0L5.63,38.31A11.24,11.24,0,0,0,0,48.05v73.62a11.24,11.24,0,0,0,5.63,9.74l63.74,36.8a11.25,11.25,0,0,0,11.25,0L150,128.16l69.37,40.05a11.25,11.25,0,0,0,11.25,0l63.75-36.8a11.24,11.24,0,0,0,5.62-9.74V48.06a11.26,11.26,0,0,0-5.62-9.75L230.62,1.51A11.25,11.25,0,0,0,219.37,1.51Z"/>
  <path class="face" d="M219.37,5,150,45,80.62,5A11.25,11.25,0,0,0,69.37,5L8.63,40A11.27,11.27,0,0,0,3,49.79v70.14a11.27,11.27,0,0,0,5.63,9.75l60.74,35.07a11.25,11.25,0,0,0,11.25,0l69.38-40,69.37,40.05a11.25,11.25,0,0,0,11.25,0l60.75-35.07a11.26,11.26,0,0,0,5.62-9.75V49.79a11.23,11.23,0,0,0-5.62-9.74L230.62,5A11.25,11.25,0,0,0,219.37,5Z"/>
  <g class="B">
    <path class="bBottom" d="M87.68,79.63c16.85.32,26.68,7.88,26.68,19.43,0,12.75-8.86,20.31-25.71,20.31-10.15,0-14.25,0-24.62-.54H35.63V109h6.69V60.73H35.63V50.9H64c11.23,0,13.18-.54,20.52-.54,13,0,20.63,5.29,20.63,15C105.18,73.79,98.8,79.41,87.68,79.63ZM74.07,78.55h.54c8.21,0,13-4.11,13-11,0-6.37-3.45-10.48-12.52-10.48h-1Zm0,6.37v27.86h1.3c9.29,0,14.36-4.86,14.36-13.72,0-9.07-5.18-14.14-15.33-14.14Z"/>
    <path class="bFace" d="M88.65,119.37c15.94,0,24.72-6.77,25.62-18.29-.94-10.57-10.6-17.4-26.59-17.7V79.63c10.31-.2,16.53-5,17.38-12.46-1-8.47-8.45-13.06-20.51-13.06-7.34,0-9.29.54-20.52.54H35.63v6.08h6.69v52H35.63v6.08H64C74.4,119.37,78.5,119.37,88.65,119.37ZM74.07,78.55V57.05h1c9.07,0,12.52,4.11,12.52,10.48a13,13,0,0,1-.13,1.8,15.2,15.2,0,0,1,.13,2c0,6.91-4.75,11-13,11h-.54Zm0,34.23V84.92h.33c10.15,0,15.33,5.07,15.33,14.14,0,.65,0,1.26-.09,1.87s.09,1.23.09,1.88c0,8.86-5.07,13.72-14.36,13.72h-1.3Z"/>
  </g>
  <g class="D">
    <path class="dBottom" d="M231.09,50.9c24.62,0,39.53,13.93,39.53,34s-14.8,33.91-39.42,33.91H179.36V109h6.7V60.73h-6.7V50.9Zm-13,6.59v54.64h1c12.31,0,20.41-9.18,20.41-27.32s-8-27.32-19.76-27.32Z"/>
    <path class="dFace" d="M270.57,86.79c-.9-19.07-15.63-32.14-39.48-32.14H179.36v6.08h6.7v52h-6.7v6.08H231.2C255.05,118.83,269.68,105.86,270.57,86.79Zm-52.44,29.09V57.49h1.62c11.77,0,19.76,9.28,19.76,27.32,0,.64,0,1.26,0,1.87s0,1.24,0,1.88c0,18.14-8.1,27.32-20.41,27.32Z"/>
  </g>
  <g class="dotsBottom">
    <path d="M148.82,58.31v8.11a1.41,1.41,0,0,0,2.11,1.22l7-4.06a1.42,1.42,0,0,0,0-2.44l-7-4A1.41,1.41,0,0,0,148.82,58.31Z"/>
    <path d="M145.07,80.81v8.11a1.41,1.41,0,0,0,2.11,1.22l7-4.06a1.42,1.42,0,0,0,0-2.44l-7-4A1.41,1.41,0,0,0,145.07,80.81Z"/>
    <path d="M141.32,103.31v8.11a1.41,1.41,0,0,0,2.11,1.22l7-4.06a1.42,1.42,0,0,0,0-2.44l-7-4A1.41,1.41,0,0,0,141.32,103.31Z"/>
  </g>
  <g class="dotsFace">
    <path d="M150.93,67.64l5.89-3.4-5.89-3.4a1.41,1.41,0,0,0-2.11,1.22v4.36A1.41,1.41,0,0,0,150.93,67.64Z"/>
    <path d="M147.18,90.14l5.89-3.4-5.89-3.4a1.41,1.41,0,0,0-2.11,1.22v4.36A1.41,1.41,0,0,0,147.18,90.14Z"/>
    <path d="M143.43,112.64l5.89-3.4-5.89-3.4a1.41,1.41,0,0,0-2.11,1.22v4.36A1.41,1.41,0,0,0,143.43,112.64Z"/>
  </g>
</svg>
