<svg class="dominoes" viewBox="0 0 1058.5 414.5">
  <g class="deFace">
    <path d="M121.15,104.42c28.08.54,44.46,13.14,44.46,32.4,0,21.24-14.76,33.84-42.84,33.84-16.92,0-23.76,0-41-.9H34.39V153.38H45.55V72.92H34.39V56.54H81.73c18.72,0,22-.9,34.2-.9,21.6,0,34.38,8.82,34.38,25C150.31,94.7,139.69,104.06,121.15,104.42Zm-22.68-1.8h.9c13.68,0,21.6-6.84,21.6-18.36,0-10.62-5.76-17.46-20.88-17.46H98.47Zm0,10.62v46.44h2.16c15.48,0,23.94-8.1,23.94-22.86,0-15.12-8.64-23.58-25.56-23.58Z"/>
    <path d="M172.63,133.58c0-22.86,18.54-38.88,46.44-38.88,26.46,0,45.17,16,45.17,38.88s-19.07,38.7-46.07,38.7C190.45,172.28,172.63,156.62,172.63,133.58Zm43.74,0c0,10.08,7.2,17.46,16.92,17.46,9.54,0,16.91-7.74,16.91-18s-7.19-17.46-16.91-17.46C223.21,115.58,216.37,123,216.37,133.58Z"/>
    <path d="M307.27,169.76H268V153.38h8.64v-94l-12.42,6.12v-22h53.28v62.64c5.76-6.84,14.75-11,27-11,22.68,0,39.6,14.76,39.6,38s-17.46,38.16-40.32,38.16c-15.65,0-25.73-6.48-30.77-16.92Zm10.08-36.9c0,11.7,4.14,18.18,11.34,18.18,8.09,0,12.77-6.3,12.77-17.82,0-11.88-4.31-18-12.77-18C321.49,115.22,317.35,121.7,317.35,132.86Z"/>
    <path d="M437.77,97h14.76v16.38H437.41v29.7c0,7,3.24,9.9,8.28,9.9a14.91,14.91,0,0,0,6.84-1.44v14s-7.56,5.76-23.76,5.76c-20.7,0-31-9.36-31-31.86v-26.1H385.57V97h12.24V73.64l40-7.2Z"/>
    <path d="M513.19,157c-5.22,9.18-15.84,14.76-29.34,14.76-15.12,0-25.92-8.28-25.92-21.6,0-13.5,11-22.5,30.42-22.5,9.54,0,16.56,2.52,21.6,5.94,0-15.84-20-17.64-36.54-10.44-.36.18-6.3-20.16-6.3-20.16a87.12,87.12,0,0,1,36.72-7.74c30.24,0,47.52,12.24,47.52,42.3v15.84l12.06-3.6v20H517.15Zm-14.76-16c-6.48,0-10.26,3.24-10.26,7.92,0,4.5,3.24,7.56,9.36,7.56a13.48,13.48,0,0,0,13.32-10.62A17.59,17.59,0,0,0,498.43,141Z"/>
    <path d="M620.83,153.38H630v16.38H571.33V153.38h9v-40h-9V97h49.5ZM599.05,47.18c13,0,22.14,9,22.14,21.78S612,90.74,599.05,90.74c-13.14,0-22.32-9-22.32-21.78S585.91,47.18,599.05,47.18Z"/>
    <path d="M639.37,169.76V153.38h8.46v-94l-14,6.12v-22h54.9v109.8H697v16.38Z"/>
    <path d="M210.17,229.75c41,0,65.87,23.22,65.87,56.7S251.39,343,210.35,343H124V326.58h11.16V246.13H124V229.75Zm-21.6,11V331.8h1.62c20.52,0,34-15.29,34-45.53,0-30.06-13.32-45.54-32.94-45.54Z"/>
    <path d="M283.61,306.79c0-22.86,18.54-38.88,46.44-38.88,26.46,0,45.18,16,45.18,38.88s-19.08,38.69-46.08,38.69C301.43,345.48,283.61,329.82,283.61,306.79Zm43.74,0c0,10.07,7.2,17.45,16.92,17.45,9.54,0,16.92-7.73,16.92-18s-7.2-17.46-16.92-17.46C334.19,288.79,327.35,296.17,327.35,306.79Z"/>
    <path d="M432.47,326.58H437V343H383.15V326.58h9.18V286.63h-9.18V270.25H426l4.14,16.56c5.22-10.62,14.94-18.36,29.52-18.36,13.14,0,22.32,6.3,26.64,18,5.4-10.44,15.29-18,29.87-18,18.54,0,30.06,12.06,30.06,34.56v23.57H555V343H501V326.58h4.86V302.29c0-7.38-2.88-10.8-7.55-10.8-6.49,0-9.36,4.5-9.36,13.86v21.23h4.68V343H444.35V326.58h5V302.29c0-7.38-2.7-10.8-7.74-10.8s-7.92,3.06-9.18,9.18Z"/>
    <path d="M615,326.58h9.18V343H565.49V326.58h9V286.63h-9V270.25H615ZM593.21,220.39c13,0,22.14,9,22.14,21.78S606.17,264,593.21,264c-13.14,0-22.32-9-22.32-21.78S580.07,220.39,593.21,220.39Z"/>
    <path d="M679.61,290.23c5.58-14.94,17.1-21.78,32.4-21.78,18.71,0,30.77,11.88,30.77,34.38v23.75h9V343H696.89V326.58h5.22V303c0-7.56-3.42-10.8-8.28-10.8-5.4,0-9.18,2.52-10.8,13.32v21.05h4.86V343H633.17V326.58h9.18V286.63h-9.18V270.25h41Z"/>
    <path d="M757.19,306.79c0-22.86,18.54-38.88,46.44-38.88,26.46,0,45.18,16,45.18,38.88s-19.08,38.69-46.08,38.69C775,345.48,757.19,329.82,757.19,306.79Zm43.74,0c0,10.07,7.2,17.45,16.92,17.45,9.54,0,16.92-7.73,16.92-18s-7.2-17.46-16.92-17.46C807.77,288.79,800.93,296.17,800.93,306.79Z"/>
    <path d="M951,269.53l8.82,16.2-55.07,34a17.89,17.89,0,0,0,9.53,2.52c11.16,0,20.52-7,27.54-17.45l17.46,15.47c-10.26,13.86-26.1,24.66-51.47,24.66-31.5,0-51.48-14.58-51.48-38.15,0-22.68,18.72-38.34,47-38.34,14.39,0,25.19,5.4,32.57,12.42C936.1,280.87,951,269.53,951,269.53Zm-32.58,24.66a10.85,10.85,0,0,0-9.9-5.4c-7.91,0-12.77,5.76-12.77,15.48a14.61,14.61,0,0,0,1.26,6.3Z"/>
    <path d="M990.65,336.3V343H970.31V319.21h14.58l17.27,13.67c5.22,0,7.92-1.08,7.92-4.86s-5.58-5.93-17.27-10.07c-13.32-4.68-25.2-9.18-25.2-23.4,0-13.14,10.44-26.1,35.27-26.1,13.32,0,26.28,3.24,32.58,8.46v-6.66h18.72V294h-14.76l-15.48-13.5c-5.22,0-7.92,2.34-7.92,6.12s3.42,4.5,15.66,7.74c13.68,3.6,26.82,9.9,26.82,24.12,0,13.13-10.44,26.45-35.28,26.45C1008.1,344.94,996.94,341.52,990.65,336.3Z"/>
  </g>
  <g class="bottom">
    <path class="left" d="M0,70.41V177.22a15,15,0,0,0,7.5,13l92.5,53.4V350.43a15,15,0,0,0,7.5,13l85,49.07a15,15,0,0,0,15,0l85-49.07a15,15,0,0,0,7.5-13V243.62Z"/>
    <path class="right" d="M200,414.5a15,15,0,0,0,7.5-2l85-49.07a15,15,0,0,0,7.5-13v-15L200,399.5Z"/>
  </g>
  <path class="edge" d="M192.5,51.08,107.5,2a15,15,0,0,0-15,0L7.5,51.08a15,15,0,0,0-7.5,13v98.16a15,15,0,0,0,7.5,13L100,228.62V335.43a15,15,0,0,0,7.5,13l85,49.08a15,15,0,0,0,15,0l85-49.08a15,15,0,0,0,7.5-13V237.28a15,15,0,0,0-7.5-13L200,170.88V64.07A15,15,0,0,0,192.5,51.08Z"/>
  <path class="face" d="M188.5,53.39l-81-46.76a15,15,0,0,0-15,0l-81,46.76a15,15,0,0,0-7.5,13v93.52a15,15,0,0,0,7.5,13l92.5,53.4V333.12a15,15,0,0,0,7.5,13l81,46.77a15,15,0,0,0,15,0l81-46.77a15,15,0,0,0,7.5-13V239.59a15,15,0,0,0-7.5-13L196,173.19V66.39A15,15,0,0,0,188.5,53.39Z"/>
  <g class="B">
    <path class="bBottom" d="M121.15,104.42c28.08.54,44.46,13.14,44.46,32.4,0,21.24-14.76,33.84-42.84,33.84-16.92,0-23.76,0-41-.9H34.39V153.38H45.55V72.92H34.39V56.54H81.73c18.72,0,22-.9,34.2-.9,21.6,0,34.38,8.82,34.38,25C150.31,94.7,139.69,104.06,121.15,104.42Zm-22.68-1.8h.9c13.68,0,21.6-6.84,21.6-18.36,0-10.62-5.76-17.46-20.88-17.46H98.47Zm0,10.62v46.44h2.16c15.48,0,23.94-8.1,23.94-22.86,0-15.12-8.64-23.58-25.56-23.58Z"/>
    <path class="bFace" d="M122.77,170.66c26.56,0,41.19-11.28,42.7-30.47-1.57-17.63-17.67-29-44.32-29.52v-6.25c17.18-.33,27.54-8.4,29-20.76C148.5,69.54,136,61.89,115.93,61.89c-12.24,0-15.48.9-34.2.9H34.39V72.92H45.55v86.71H34.39v10.13H81.73C99,170.66,105.85,170.66,122.77,170.66Zm-24.3-68V66.8h1.62c15.12,0,20.88,6.84,20.88,17.46a22.4,22.4,0,0,1-.22,3,24.28,24.28,0,0,1,.22,3.25c0,11.52-7.92,18.36-21.6,18.36h-.9Zm0,57.06V113.24H99c16.92,0,25.56,8.46,25.56,23.58,0,1.07-.06,2.1-.15,3.1.09,1,.15,2.06.15,3.15,0,14.76-8.46,22.86-23.94,22.86H98.47Z"/>
  </g>
  <g class="D">
    <path class="dBottom" d="M210.17,229.75c41,0,65.88,23.22,65.88,56.7S251.39,343,210.35,343H124V326.58h11.16V246.13H124V229.75Zm-21.6,11V331.8h1.62c20.52,0,34-15.3,34-45.54,0-30.05-13.32-45.53-32.94-45.53Z"/>
    <path class="dFace" d="M276,289.57c-1.5-31.79-26.05-53.57-65.8-53.57H124v10.13h11.16v86.7H124V343h86.4C250.1,343,274.48,321.35,276,289.57Zm-87.4,48.48V240.73h2.7c19.62,0,32.94,15.48,32.94,45.53,0,1.07,0,2.11-.06,3.13s.06,2.06.06,3.12c0,30.24-13.5,45.54-34,45.54Z"/>
  </g>
  <g class="dotsBottom">
    <path d="M182.22,182.05l-9.36,5.41a1.88,1.88,0,0,0,0,3.25l9.36,5.41a1.88,1.88,0,0,0,2.82-1.63V183.68A1.88,1.88,0,0,0,182.22,182.05Z"/>
    <path d="M153.74,192.72l-9.36,5.41a1.88,1.88,0,0,0,0,3.25l9.36,5.41a1.88,1.88,0,0,0,2.82-1.63V194.35A1.88,1.88,0,0,0,153.74,192.72Z"/>
    <path d="M125.26,203.39l-9.36,5.41a1.87,1.87,0,0,0,0,3.25l9.36,5.41a1.88,1.88,0,0,0,2.82-1.63V205A1.88,1.88,0,0,0,125.26,203.39Z"/>
  </g>
  <g class="dotsFace">
    <path d="M182.22,187.05l-7.85,4.53,7.85,4.54a1.88,1.88,0,0,0,2.82-1.63v-5.81A1.88,1.88,0,0,0,182.22,187.05Z"/>
    <path d="M153.74,197.72l-7.85,4.53,7.85,4.54a1.88,1.88,0,0,0,2.82-1.63v-5.81A1.88,1.88,0,0,0,153.74,197.72Z"/>
    <path d="M125.26,208.39l-7.85,4.53,7.85,4.54a1.88,1.88,0,0,0,2.82-1.63V210A1.88,1.88,0,0,0,125.26,208.39Z"/>
  </g>
</svg>
