<svg viewBox="0 0 100 100">
  <g class="dotsFace">
    <path d="M34.53,20.49v9a1.57,1.57,0,0,0,2.35,1.35l7.81-4.51a1.56,1.56,0,0,0,0-2.7l-7.81-4.51A1.57,1.57,0,0,0,34.53,20.49Z"/>
    <path d="M34.53,70.49v9a1.57,1.57,0,0,0,2.35,1.35l7.81-4.51a1.56,1.56,0,0,0,0-2.7l-7.81-4.51A1.57,1.57,0,0,0,34.53,70.49Z"/>
    <path d="M54.53,20.49v9a1.57,1.57,0,0,0,2.35,1.35l7.81-4.51a1.56,1.56,0,0,0,0-2.7l-7.81-4.51A1.57,1.57,0,0,0,54.53,20.49Z"/>
    <path d="M54.53,70.49v9a1.57,1.57,0,0,0,2.35,1.35l7.81-4.51a1.56,1.56,0,0,0,0-2.7l-7.81-4.51A1.57,1.57,0,0,0,54.53,70.49Z"/>
  </g>
</svg>
