<svg viewBox="0 0 100 100">
  <g class="dotsFace">
    <path d="M34.53,15.49v9a1.57,1.57,0,0,0,2.35,1.35l7.81-4.51a1.56,1.56,0,0,0,0-2.7l-7.81-4.51A1.57,1.57,0,0,0,34.53,15.49Z"/>
    <path d="M34.53,75.49v9a1.57,1.57,0,0,0,2.35,1.35l7.81-4.51a1.56,1.56,0,0,0,0-2.7l-7.81-4.51A1.57,1.57,0,0,0,34.53,75.49Z"/>
    <path d="M54.53,15.49v9a1.57,1.57,0,0,0,2.35,1.35l7.81-4.51a1.56,1.56,0,0,0,0-2.7l-7.81-4.51A1.57,1.57,0,0,0,54.53,15.49Z"/>
    <path d="M44.53,45.49v9a1.57,1.57,0,0,0,2.35,1.35l7.81-4.51a1.56,1.56,0,0,0,0-2.7l-7.81-4.51A1.57,1.57,0,0,0,44.53,45.49Z"/>
    <path d="M54.53,75.49v9a1.57,1.57,0,0,0,2.35,1.35l7.81-4.51a1.56,1.56,0,0,0,0-2.7l-7.81-4.51A1.57,1.57,0,0,0,54.53,75.49Z"/>
  </g>
</svg>
