<svg viewBox="0 0 100 100">
  <g class="dotsFace">
    <path d="M69.77,23,62,27.49a1.56,1.56,0,0,0,0,2.7l7.81,4.51a1.57,1.57,0,0,0,2.35-1.35v-9A1.57,1.57,0,0,0,69.77,23Z"/>
    <path d="M26.47,48l-7.81,4.51a1.56,1.56,0,0,0,0,2.7l7.81,4.51a1.57,1.57,0,0,0,2.35-1.35v-9A1.57,1.57,0,0,0,26.47,48Z"/>
    <path d="M79.77,40.3,72,44.81a1.56,1.56,0,0,0,0,2.7L79.77,52a1.57,1.57,0,0,0,2.35-1.35v-9A1.57,1.57,0,0,0,79.77,40.3Z"/>
    <path d="M36.47,65.3l-7.81,4.51a1.56,1.56,0,0,0,0,2.7L36.47,77a1.57,1.57,0,0,0,2.35-1.35v-9A1.57,1.57,0,0,0,36.47,65.3Z"/>
  </g>
</svg>
