<svg viewBox="0 0 100 100">
  <g class="dotsFace">
    <path d="M14.33,45l7.81,4.51a1.57,1.57,0,0,0,2.35-1.35v-9a1.57,1.57,0,0,0-2.35-1.35l-7.81,4.51A1.56,1.56,0,0,0,14.33,45Z"/>
    <path d="M66.29,75l7.81,4.51a1.57,1.57,0,0,0,2.35-1.35v-9A1.57,1.57,0,0,0,74.1,67.8l-7.81,4.51A1.56,1.56,0,0,0,66.29,75Z"/>
    <path d="M24.33,27.69l7.81,4.51a1.57,1.57,0,0,0,2.35-1.35v-9a1.57,1.57,0,0,0-2.35-1.35L24.33,25A1.56,1.56,0,0,0,24.33,27.69Z"/>
    <path d="M45.31,51.35l7.81,4.51a1.57,1.57,0,0,0,2.35-1.35v-9a1.57,1.57,0,0,0-2.35-1.35l-7.81,4.51A1.56,1.56,0,0,0,45.31,51.35Z"/>
    <path d="M76.29,57.69,84.1,62.2a1.57,1.57,0,0,0,2.35-1.35v-9a1.57,1.57,0,0,0-2.35-1.35L76.29,55A1.56,1.56,0,0,0,76.29,57.69Z"/>
  </g>
</svg>
