<svg viewBox="0 0 100 100">
  <g class="dotsFace">
    <path d="M85.67,55l-7.81-4.51a1.57,1.57,0,0,0-2.35,1.35v9a1.57,1.57,0,0,0,2.35,1.35l7.81-4.51A1.56,1.56,0,0,0,85.67,55Z"/>
    <path d="M33.71,25,25.9,20.48a1.57,1.57,0,0,0-2.35,1.35v9A1.57,1.57,0,0,0,25.9,32.2l7.81-4.51A1.56,1.56,0,0,0,33.71,25Z"/>
    <path d="M75.67,72.31,67.86,67.8a1.57,1.57,0,0,0-2.35,1.35v9a1.57,1.57,0,0,0,2.35,1.35L75.67,75A1.56,1.56,0,0,0,75.67,72.31Z"/>
    <path d="M54.69,48.65l-7.81-4.51a1.57,1.57,0,0,0-2.35,1.35v9a1.57,1.57,0,0,0,2.35,1.35l7.81-4.51A1.56,1.56,0,0,0,54.69,48.65Z"/>
    <path d="M23.71,42.31,15.9,37.8a1.57,1.57,0,0,0-2.35,1.35v9a1.57,1.57,0,0,0,2.35,1.35L23.71,45A1.56,1.56,0,0,0,23.71,42.31Z"/>
  </g>
</svg>
