<svg viewBox="0 0 100 100">
  <g class="dotsFace">
    <path d="M81.34,52.49,73.53,48a1.57,1.57,0,0,0-2.35,1.35v9a1.57,1.57,0,0,0,2.35,1.35l7.81-4.51A1.56,1.56,0,0,0,81.34,52.49Z"/>
    <path d="M38,27.49,30.23,23a1.57,1.57,0,0,0-2.35,1.35v9a1.57,1.57,0,0,0,2.35,1.35L38,30.19A1.56,1.56,0,0,0,38,27.49Z"/>
    <path d="M71.34,69.81,63.53,65.3a1.57,1.57,0,0,0-2.35,1.35v9A1.57,1.57,0,0,0,63.53,77l7.81-4.51A1.56,1.56,0,0,0,71.34,69.81Z"/>
    <path d="M28,44.81,20.23,40.3a1.57,1.57,0,0,0-2.35,1.35v9A1.57,1.57,0,0,0,20.23,52L28,47.51A1.56,1.56,0,0,0,28,44.81Z"/>
  </g>
</svg>
