<svg viewBox="0 0 200 230.94">
  <g class="abFace">
    <path d="M115.58,151.55c11.23.22,17.78,5.26,17.78,13,0,8.5-5.9,13.54-17.13,13.54-6.77,0-9.51,0-16.42-.36H80.87v-6.55h4.47V139H80.87V132.4H99.81c7.49,0,8.78-.36,13.68-.36,8.64,0,13.75,3.52,13.75,10C127.24,147.66,123,151.41,115.58,151.55Zm-9.07-.72h.36c5.47,0,8.64-2.74,8.64-7.34,0-4.25-2.31-7-8.36-7h-.64Zm0,4.25v18.58h.86c6.19,0,9.58-3.24,9.58-9.15s-3.46-9.43-10.23-9.43Z"/>
    <path d="M54.5,96.65l-3.31,9.94h4.9v7.27H40v-7.27h5.11l13.61-38H79.85l14.33,38.74h5.18v6.55H67.1v-6.55h4.54L68.26,96.65Zm7-20.74-4.9,14.55h9.58Z"/>
    <path d="M103.31,74.72,108,73.2V55.59h3.13V72.12l10.58-3.43V52.89h3.13V67.66L129,66.28V77.53l-4.22,1.4V94.86L129,93.59v11.14l-4.22,1.41v17.6h-3.13V107.11l-10.58,3.38v16.06H108V111.64l-4.65,1.52V101.91L108,100.4V84.32l-4.65,1.53Zm18.36,5.22L111.09,83.3V99.44L121.67,96Z"/>
    <path d="M140.16,113.86v34.56a16.31,16.31,0,0,1,10.91-4.54,8.28,8.28,0,0,1,6.48,3.14A10.6,10.6,0,0,1,160,153.5a15.78,15.78,0,0,1-1.41,6.48,9,9,0,0,1-2.37,3.24l-2.92,2.7q-8,5.82-16,11.77V113.86Zm8.75,36.94a4.2,4.2,0,0,0-3.35-1.52c-1.72,0-3.13,1-4.21,2.92-.79,1.51-1.19,5.08-1.19,10.69v9.29q.1.44,6.05-5.29a14,14,0,0,0,4.21-7.13,12.45,12.45,0,0,0,.44-3.24A8.2,8.2,0,0,0,148.91,150.8Z"/>
  </g>
</svg>
