<svg viewBox="0 0 200 230.94">
  <g class="cdFace">
    <path d="M87.28,97.21h1.08v11.23c-6.26,4.54-14.62,6.7-23,6.7-17.14,0-28.66-9.44-28.66-23.26,0-14.19,11-23.48,27.94-23.48,6.34,0,11.38,1.73,15.05,4.69V69.63H87.5V84.82H80.66L74,75c-9.14,0-15.77,7.2-15.77,17.21,0,10.51,5.62,16.56,13.18,16.56a15.67,15.67,0,0,0,6-1.08C77.49,100.45,82,97.21,87.28,97.21Z"/>
    <path d="M109.66,132.58c16.42,0,26.35,9.29,26.35,22.68s-9.86,22.61-26.28,22.61H75.17v-6.55h4.46V139.13H75.17v-6.55ZM101,137V173.4h.65c8.21,0,13.61-6.12,13.61-18.21S110,137,102.1,137Z"/>
    <path d="M93.61,74.9l4.64-1.52V55.77h3.13V72.3L112,68.87V53.07h3.13V67.84l4.21-1.38V77.71l-4.21,1.4V95l4.21-1.27v11.14l-4.21,1.41v17.6H112V107.29l-10.59,3.39v16H98.25V111.82l-4.64,1.52V102.09l4.64-1.51V84.5L93.61,86ZM112,80.12l-10.59,3.36V99.62L112,96.18Z"/>
    <path d="M143.46,114V148.6a16.29,16.29,0,0,1,10.91-4.54,8.28,8.28,0,0,1,6.48,3.14,10.53,10.53,0,0,1,2.48,6.48,15.91,15.91,0,0,1-1.4,6.48,9,9,0,0,1-2.38,3.24l-2.92,2.7q-8,5.82-16,11.77V114ZM152.21,151a4.22,4.22,0,0,0-3.35-1.52c-1.73,0-3.13,1-4.21,2.92-.8,1.51-1.19,5.08-1.19,10.69v9.29q.1.44,6-5.29a14,14,0,0,0,4.21-7.13,12.44,12.44,0,0,0,.43-3.24A8.24,8.24,0,0,0,152.21,151Z"/>
  </g>
</svg>
