<svg viewBox="0 0 200 230.94">
  <g class="deFace">
    <path d="M75.69,68.75c16.42,0,26.36,9.29,26.36,22.68S92.18,114,75.76,114H41.2v-6.55h4.47V75.3H41.2V68.75Zm-8.64,4.39v36.44h.65c8.21,0,13.61-6.12,13.61-18.22S76,73.14,68.13,73.14Z"/>
    <path d="M129.8,132.58v14.18h-5l-6.7-9H107.26v14.33h7V147h4.82V162.6h-4.82v-5.33h-7v15.41H121c0-6.62,3.09-10.94,9.07-10.94h1.08v16.13H81.63v-6.55h4.46V139.13H81.63v-6.55Z"/>
    <path d="M106.07,74.9l4.64-1.52V55.77h3.13V72.3l10.59-3.43V53.07h3.13V67.84l4.21-1.38V77.71l-4.21,1.4V95l4.21-1.27v11.14l-4.21,1.41v17.6h-3.13V107.29l-10.59,3.39v16h-3.13V111.82l-4.64,1.52V102.09l4.64-1.51V84.5L106.07,86Zm18.36,5.22-10.59,3.36V99.62l10.59-3.44Z"/>
    <path d="M138.92,114V148.6a16.29,16.29,0,0,1,10.91-4.54,8.28,8.28,0,0,1,6.48,3.14,10.53,10.53,0,0,1,2.48,6.48,15.91,15.91,0,0,1-1.4,6.48A9,9,0,0,1,155,163.4l-2.92,2.7q-8,5.82-16,11.77V114ZM147.67,151a4.22,4.22,0,0,0-3.35-1.52c-1.73,0-3.13,1-4.21,2.92-.8,1.51-1.19,5.08-1.19,10.69v9.29q.11.44,6.05-5.29a14,14,0,0,0,4.21-7.13,12.44,12.44,0,0,0,.43-3.24A8.24,8.24,0,0,0,147.67,151Z"/>
  </g>
</svg>
