<svg viewBox="0 0 200 230.94">
  <g class="fgFace">
    <path d="M120.1,136.72v-4H128v13.76h-6.84l-7.35-8.35c-10.51.21-15.77,7.27-15.77,17.2,0,10.16,5.84,17.29,14.12,17.29V161h-4.18v-6.55h24.48V161h-4v9.8c-6.55,5-14.9,7.41-23.33,7.41-17.14,0-28.66-9.43-28.66-23.26,0-14.18,11.67-23.47,28.66-23.47C111.32,131.46,117.72,134,120.1,136.72Z"/>
    <path d="M88.39,68.42V82.61h-5l-6.7-9H65.85V89.38h8.71V83.55h4.83v16.63H74.56V94.56H65.85v12.6h4.53v6.56H40.21v-6.56h4.47V75H40.21V68.42Z"/>
    <path d="M93.06,74.57l4.64-1.51V55.45h3.13V72l10.59-3.42V52.75h3.13V67.52l4.21-1.38V77.39l-4.21,1.4V94.72l4.21-1.27v11.14l-4.21,1.4V123.6h-3.13V107l-10.59,3.39V126.4H97.7V111.49L93.06,113V101.76l4.64-1.51V84.18L93.06,85.7Zm18.36,5.23-10.59,3.35V99.3l10.59-3.45Z"/>
    <path d="M139.91,113.72v34.56a16.19,16.19,0,0,1,10.91-4.54,8.3,8.3,0,0,1,6.48,3.13,10.57,10.57,0,0,1,2.48,6.48,15.85,15.85,0,0,1-1.4,6.48,8.94,8.94,0,0,1-2.38,3.24l-2.92,2.7q-8,5.83-16,11.77V113.72Zm8.75,36.93a4.22,4.22,0,0,0-3.35-1.51q-2.59,0-4.21,2.92c-.8,1.51-1.19,5.07-1.19,10.69V172q.1.42,6.05-5.3a14,14,0,0,0,4.21-7.12,12.88,12.88,0,0,0,.43-3.24A8.27,8.27,0,0,0,148.66,150.65Z"/>
  </g>
</svg>
