<svg viewBox="0 0 200 230.94">
  <g class="gaFace">
    <path d="M80.89,73.21v-4h7.85V82.93H81.9l-7.34-8.35C64,74.8,58.79,81.85,58.79,91.79c0,10.15,5.83,17.28,14.11,17.28V97.48H68.72V90.93H93.21v6.55h-4v9.79c-6.55,5-14.9,7.42-23.33,7.42-17.13,0-28.65-9.43-28.65-23.26C37.19,77.25,48.85,68,65.84,68,72.11,68,78.52,70.48,80.89,73.21Z"/>
    <path d="M89.89,160.66l-3.31,9.94h4.9v7.27H75.35V170.6h5.11l13.61-38h21.17l14.33,38.74h5.18v6.55H102.49v-6.55H107l-3.38-10.66Zm7-20.74L92,154.47h9.58Z"/>
    <path d="M97.08,74.9l4.65-1.52V55.77h3.13V72.3l10.58-3.43V53.07h3.14V67.84l4.21-1.38V77.71l-4.21,1.4V95l4.21-1.27v11.14l-4.21,1.41v17.6h-3.14V107.29l-10.58,3.39v16h-3.13V111.82l-4.65,1.52V102.09l4.65-1.51V84.5L97.08,86Zm18.36,5.22-10.58,3.36V99.62l10.58-3.44Z"/>
    <path d="M142.94,114V148.6a16.26,16.26,0,0,1,10.9-4.54,8.28,8.28,0,0,1,6.48,3.14,10.54,10.54,0,0,1,2.49,6.48,15.78,15.78,0,0,1-1.41,6.48A9,9,0,0,1,159,163.4l-2.92,2.7q-8,5.82-16,11.77V114ZM151.68,151a4.2,4.2,0,0,0-3.34-1.52c-1.73,0-3.14,1-4.22,2.92-.79,1.51-1.18,5.08-1.18,10.69v9.29q.1.44,6-5.29a14,14,0,0,0,4.22-7.13,12.88,12.88,0,0,0,.43-3.24A8.2,8.2,0,0,0,151.68,151Z"/>
  </g>
</svg>
