<svg viewBox="0 0 92.1 108">
  <path class="khariHatLight" d="M84.49,58.28c5.22-4.09,4.71-10.57,6.7-16.72C93.88,33.2,87.89,26,82.9,18.15,77.31,9.34,70,10.31,63.69,7.6c-10.78-4.67-23.23-5-33.6-.94-8,3.18-16,3.39-20.86,12.33C4.72,27.33-1.68,34.75.8,42.16c2.41,7.18,2.4,13,6.22,16.69Z"/>
  <g class="eye">
    <rect class="sclera" x="22.87" y="52.21" width="46.26" height="11.99"/>
    <g class="irisDarkBrown">
      <circle cx="59.67" cy="58.07" r="3.67"/>
      <circle cx="31.94" cy="57.66" r="3.67"/>
    </g>
    <g class="pupil">
      <circle cx="59.67" cy="58.07" r="1.43"/>
      <circle cx="31.94" cy="57.66" r="1.43"/>
    </g>
  </g>
  <g class="skinBlack">
    <path d="M78,55.76c-.77,5.91.15,13.05-1,20.71,3.73,1.88,4.3-1.94,5.45-5.65C87.24,55.45,82.66,49,78,55.76Z"/>
    <path d="M13.11,54.7c-4.57-5.46-8.76,3.08-4.13,16,1.15,3.2,2.22,7.92,6.14,6.21C13.87,67.8,15.29,59.25,13.11,54.7Z"/>
    <path d="M78,55.76C76.63,66.5,80.81,81.31,68,95.87,64.43,100,59.91,101.3,56.28,104c-4.9,3.68-16.74,3.32-21,.36s-9.1-6-11.11-8.08C10,82.06,16.84,62.51,13.11,54.7,11.91,4.16,80.28-1.08,78,55.76ZM38.74,58c-2.47-1.12-2.77-2.52-6.66-2.58-2.7,0-5,1.61-6.74,2.65,3.16.7,5.82,3.39,12.08.7C37.86,58.58,39.8,58.48,38.74,58Zm15.69,1.1c6.26,2.69,9.1.54,11.91-.29-1.77-1-3.72-3-6.41-3-3.89.06-4.36,1.38-6.83,2.49C52,58.8,54,58.91,54.43,59.1Z"/>
  </g>
  <g class="skinFoldLine">
    <path d="M77.68,61.68c2.63-7.58,6.91-6.25,4.72,2.6"/>
    <path d="M77.57,70.65c3.26,1,1.5-2.8,2.71-4.51,2-2.79.71-7-1-3.07"/>
    <path d="M14.4,61.88c-2.68-8.09-7.28-5.72-5,3.52"/>
    <path d="M14.62,71.24c-2.73.38-1.82-3-2.9-4.8-1.69-2.8,0-7,1.25-3"/>
  </g>
  <path class="lipMaleDark__noStroke" d="M58.15,83.76c-3.4-.93-5.49-2.16-8.23-2.16a29,29,0,0,1-8.16.07c-2-.14-5.2,1-8.77,1.87,2.46,4.64,5.47,10.11,12.83,10C55,93.38,55.68,88.3,58.15,83.76Z"/>
  <path class="mouthInner" d="M58.15,83.76C55.9,83.6,54,82.59,52,83c-4.68.87-7.58,1.07-12.4,0-1.92-.42-4.37.28-6.57.57,4,5.09,7.27,3.64,10.82,5.34a4.56,4.56,0,0,0,4,.08C51,87.42,55.59,88.21,58.15,83.76Z"/>
  <path class="teeth" d="M34.84,84a12.48,12.48,0,0,0,1.46,2.53c2.6,1.51,5,1.13,7.51,2.34a4.56,4.56,0,0,0,4,.08c2.1-1,4.78-1,7.1-2.15a12.86,12.86,0,0,0,1.59-2.75C49.79,85.4,40.41,85.35,34.84,84Z"/>
  <path class="gum" d="M34.84,84c5.57,1.34,14.95,1.39,21.67,0,.07-.16.14-.33.2-.5-1.64-.34-3.13-.89-4.75-.59-4.68.87-7.58,1.07-12.4,0a13.61,13.61,0,0,0-5,.32C34.64,83.53,34.73,83.78,34.84,84Z"/>
  <g class="lipOverlapLine">
    <path d="M58.15,83.76a7.53,7.53,0,0,0,2.61-.25"/>
    <path d="M30.4,83.57a8.69,8.69,0,0,0,2.59,0"/>
  </g>
  <g class="lipEdgeLine">
    <path d="M41.76,81.67a29,29,0,0,0,8.16-.07"/>
    <path d="M37.83,90.56c4.17,4.41,13.1,3.7,16.56-.12"/>
  </g>
  <g class="cheekLine">
    <path d="M52.33,70c2.53.71,4,3.13,6,5.31,2.32,2.53,3.65,3.56,4.43,6.68"/>
    <path d="M38.4,70.07c-2.17.9-3.24,3.05-5.49,5.5S29.62,79.83,29.28,82"/>
  </g>
  <g class="noseLine">
    <path d="M52.33,70c2,.66,3.25,4.21.24,5.65"/>
    <path d="M38.4,70.07a3.46,3.46,0,0,0,.07,5.41"/>
    <path d="M40.33,75.54c2.46-.3,2.52,1.92,5.64,1.92s3.48-2,5-1.86"/>
  </g>
  <g class="eyeFoldLine">
    <path d="M64.88,61.67c-2.67,1.76-7.38,1.68-9.48-.12"/>
    <path d="M36.3,61.32c-2.76,1.86-7.56,1.56-9.42-.18"/>
  </g>
  <g class="eyeCornerLine">
    <path d="M25.34,58.07a3.37,3.37,0,0,1-2.11.73"/>
    <path d="M66.34,58.81a4.86,4.86,0,0,0,2.52.48"/>
  </g>
  <g class="eyeCreaseLine">
    <path d="M54.08,55.6c5.22-4.74,10.8-.84,12.24,1"/>
    <path d="M25,55.85a9.31,9.31,0,0,1,12.78-.66"/>
  </g>
  <g class="eyebrowBlack">
    <path d="M51.29,47c.52,6.12,8,1.13,12.84,1.65,2,.21,1.85.1,6.12,2.08,1.16.65,1.91,0,1.41-.52C65,43.15,64.8,44.64,51.29,47Z"/>
    <path d="M40.94,46.79c-1.31,6.15-6.33,2.19-13.11,1.86-1.91-.09-2.47.7-5.92,2.24-1.08.47-1.78-.19-1.36-.65C27.08,43.52,26.85,44.41,40.94,46.79Z"/>
  </g>
  <path class="hairBlack" d="M14.17,58.85C-1.66,2.65,90.24-2.24,77.8,58.17l-.93.13c1.41-11-5-15.78-3.84-31.84-11.43,2.66-43.63,3-55.11-.27,1.63,23.51-4.13,17-3,32.66Z"/>
  <path class="khariHatDark" d="M78.5,40.94c-2.57-2.32-4-8.13-11.59-13.3-8.58-5.85-16.45-11.55-30.3-6.79C19.87,26.6,18.23,35.18,13.49,40.3,18.23,3.83,76.53,8.65,78.5,40.94Z"/>
  <g class="khariHatMedium">
    <path d="M11.69,42.84C10.05,29.93,23,20.26,33.35,14.92,45,8.92,57.65,12.5,68.11,21c5.17,4.22,12.47,7.59,12,22.09-6-5.77,3.39-10.49-19.62-23.58-9.64-5.49-20.14-5.88-30.15.29C10.05,32.34,16.12,40.14,11.69,42.84Z"/>
    <path d="M42.51,3.93a44.68,44.68,0,0,1,5.9,0C52.77-1.15,37.7-.79,42.51,3.93Z"/>
  </g>
  <g class="clothesBorderLine">
    <path d="M.28,37.91c3.62,4.3,8.5,8.56,12.18,8.25"/>
    <path d="M13.92,13.31A35.06,35.06,0,0,0,20.11,24"/>
    <path d="M45.59,3.83a39.1,39.1,0,0,1,.46,8.11"/>
    <path d="M80.27,14.79c-.8,3.09-4.89,8.37-7.23,10.11"/>
    <path d="M91.81,38.46c-2.23,4.28-8.25,8.28-12.88,8"/>
  </g>
</svg>
