<svg viewBox="0 0 78.25 108">
  <g class="eye">
    <rect class="sclera" x="23.43" y="53.22" width="42.77" height="11.08"/>
    <g class="irisBrown">
      <circle cx="56.87" cy="58.2" r="3.4"/>
      <circle cx="31.38" cy="57.98" r="3.4"/>
    </g>
    <g class="pupil">
      <circle cx="56.87" cy="58.2" r="1.32"/>
      <circle cx="31.38" cy="57.98" r="1.32"/>
    </g>
  </g>
  <g class="skinLatino">
    <path d="M69.09,48.87c.29,4.8-1,8.49-.63,13.31,2.32,28-8.46,28.35-15.69,35.66-4.25,4.29-14.59,2.82-17.14,1-6.55-4.77-17-5.65-21.3-21.6-4.62,1.94-4.62-2.31-6.26-5.36-2.34-4.37-3.31-8.75-1.94-13C5.42,11.92,80.5,10.74,69.09,48.87ZM52.78,59.53a28.86,28.86,0,0,0,4.94.7c2.07,0,4.12-.13,5.59-1.37-1.89-1.36-3.39-2.81-6.43-2.81a5.56,5.56,0,0,0-5.18,2.84C51.25,59.75,52.33,59.48,52.78,59.53Zm-14.54-.72a7.1,7.1,0,0,0-7-3.1,9.55,9.55,0,0,0-5.61,2.82c1.92,1.29,3.59,1.5,6.1,1.59s3.69-.95,5.36-.67C37.54,59.52,38.91,59.66,38.24,58.81Z"/>
  </g>
  <g class="skinFoldLine">
    <path d="M10.87,63.19C8,54.69,5.24,62.79,8.24,69"/>
    <path d="M10.84,66.38c-1.77,1.68,2.53,5.33.23,5.77-1,.18-.82-2-1.53-3.07C8.14,66.88,8,64.85,9,63.92"/>
  </g>
  <path class="lipFemaleMedium__noStroke" d="M35.72,81.67c1.92,11.41,17.34,9.67,17.23-.28C48.32,81.09,45.09,85.06,35.72,81.67Z"/>
  <path class="lipEdgeLine" d="M36.57,84.47c3.3,7.23,13.51,6.36,15.89-.08"/>
  <path class="lipFemaleMedium" d="M35.72,81.67c-1,.13-1.67,0-2-.52,2.62,1.08,5.29-2.2,10.74-.49,2.57.81,3.85-1,5.75-.38a8.93,8.93,0,0,0,4.84.48,4.23,4.23,0,0,1-2.13.63C48.42,81.1,44.36,85.16,35.72,81.67Z"/>
  <path class="teeth" d="M35.72,81.67c5.16,4.57,12.5,5.53,16.49-.31-4.11-.83-4.2.35-6.64.42S42.38,80.09,35.72,81.67Z"/>
  <g class="cheekLine">
    <path d="M52.52,73.56C54,77.06,57.6,77.38,57,81.48"/>
    <path d="M38.92,71.65c-1.45.71-2.37,3-4.42,4.74s-2.69,3.09-2.23,5.92"/>
  </g>
  <g class="noseLine">
    <path d="M50.94,69.49c.21,2.12,3.18,3.72.39,6.08"/>
    <path d="M38.92,71.65c-.61.34-1.33,2.76,0,3.82"/>
    <path d="M41.25,74.55c.82.88,5,4.28,9.23.21"/>
  </g>
  <g class="eyeFoldLine">
    <path d="M61,62.77c-1.68,1.15-5.43.72-7-.27"/>
    <path d="M35,62.71c-2,1.18-5.76,1.11-7.54-.27"/>
  </g>
  <g class="eyeCornerLine">
    <path d="M25.63,58.53a3.76,3.76,0,0,1-2.47.66"/>
    <path d="M65.11,59.46a4.66,4.66,0,0,1-1.8-.6"/>
  </g>
  <g class="eyeCreaseLine">
    <path d="M51.37,57.45A8.39,8.39,0,0,1,63.46,57"/>
    <path d="M24.83,56.88c4.48-4,11.1-3,13.06-.1"/>
  </g>
  <g class="eyebrowDarkBrown">
    <path d="M51.53,49.85c3.8,4.51,7.5-3.59,16,2.36C63,46.31,55.15,47.34,51.53,49.85Z"/>
    <path d="M39.51,49.85c-3.79,4.51-10.22-4-18.29,2.36C26.26,46.63,35.9,47.34,39.51,49.85Z"/>
  </g>
  <path class="hairBlack" d="M64.35,18.05c7.3-1.09,8.6,8.71,12.63,9,1.69-.22,1.25,3.92-1,4.84,1.25,7.41-1.48,14.91-6.86,16.94a46.32,46.32,0,0,0-1.24-10.51,13.13,13.13,0,0,1-2.35-6.92c-3.5,6.19-13.71,8-22.09,2.64-4.47,1.78-10,.69-13.3-.75-3,3.44-7.23,5-11.65,5.68,1.66,8.72-4,14.63-3.1,22,.63,3.9-3,2.12-3.84-4.13.68,6-2.1,3.57-3.33-1.72A4.75,4.75,0,0,0,6.13,58.8C3,50.21,2.39,43.83,3,39,1.19,38.67-.67,35.09.76,34.57c2.37-.64,3-2,3.6-4.36C1.73,29.75.75,25.64,1.7,25.46,11,23.67,13.88,6.44,40.41,7.28,51.89,7.64,63.16,10.7,64.35,18.05Z"/>
  <g class="hairFoldLine">
    <path d="M18.46,39a15.31,15.31,0,0,1-3.65.11"/>
    <path d="M30.11,33.33a8.4,8.4,0,0,1-2.08-1"/>
    <path d="M43.41,34.08a27.91,27.91,0,0,1-2.77-2"/>
    <path d="M67.85,38.36a17.56,17.56,0,0,0,2.67,2.57"/>
  </g>
  <path class="catherineGlasses" d="M47.83,53.93c7.92-3.36,17.8-3.35,26-1.14,1.07.28,1.31,4.41-.41,4.66-.5,4.31-1.7,9.63-3.82,11-4.5,2.9-14.83,2.11-17,0S48.73,63,47.53,58.24c-.22-.87-3.35-.8-3.59,0-1.47,4.71-3.08,8.21-5.12,10.21s-12.49,2.9-17,0c-2.12-1.37-3.32-6.69-3.81-11-1.72-.25-1.49-4.38-.42-4.66,8.23-2.21,18.13-2.26,26,1.14A9.91,9.91,0,0,0,47.83,53.93Zm-27.28,1c-1.37,1.62-.45,9.65,2.07,12.09,2.28,2.2,12.23,2.42,15.18.21,2.07-1.55,5.69-9.19,3.79-11.37C38,51.7,22.43,52.71,20.55,54.93Zm29.32.93C48,58,51.6,65.68,53.67,67.23c2.94,2.21,12.89,2,15.17-.21,2.52-2.44,3.45-10.47,2.08-12.09C69,52.71,53.48,51.7,49.87,55.86Z"/>
</svg>
