<svg viewBox="0 0 400 243.62">
  <g class="bottom">
    <path class="left" d="M0,164.55v15a15,15,0,0,0,7.5,13l85,49.07a15,15,0,0,0,15,0l92.5-53.4,92.5,53.4a15,15,0,0,0,15,0l85-49.07a15,15,0,0,0,7.5-13v-15Z"/>
    <g class="right">
      <path d="M200,173.21,100,228.62v15a15,15,0,0,0,7.5-2l92.5-53.4v-15"/>
      <path d="M400,179.55a15,15,0,0,1-7.5,13l-85,49.07a15,15,0,0,1-7.5,2v-15l100-64.07Z"/>
    </g>
  </g>
  <path class="edge" d="M292.5,4.33,200,57.74,107.5,4.33a15,15,0,0,0-15,0L7.5,53.41a15,15,0,0,0-7.5,13v98.16a15,15,0,0,0,7.5,13l85,49.08a15,15,0,0,0,15,0l92.5-53.4,92.5,53.4a15,15,0,0,0,15,0l85-49.07a15,15,0,0,0,7.5-13V66.4a15,15,0,0,0-7.5-13l-85-49.08A15,15,0,0,0,292.5,4.33Z"/>
  <path class="face" d="M292.5,9,200,62.35,107.5,9a15,15,0,0,0-15,0l-81,46.76a15,15,0,0,0-7.5,13v93.52a15,15,0,0,0,7.5,13L92.5,222a15,15,0,0,0,15,0l92.5-53.4L292.5,222a15,15,0,0,0,15,0l81-46.76a15,15,0,0,0,7.5-13V68.71a15,15,0,0,0-7.5-13L307.5,9A15,15,0,0,0,292.5,9Z"/>
</svg>
