<svg viewBox="0 0 300 416.82">
  <g class="bottom">
    <path class="right" d="M300,72.73,0,245.94V352.75a15,15,0,0,0,7.5,13l85,49.07a15,15,0,0,0,15,0l85-49.07a15,15,0,0,0,7.5-13V245.94h0l92.5-53.4a15,15,0,0,0,7.5-13Z"/>
    <path class="left" d="M0,337.75v15a15,15,0,0,0,7.5,13l85,49.07a15,15,0,0,0,7.5,2v-15Z"/>
  </g>
  <path class="edge" d="M192.5,4.33l-85,49.08a15,15,0,0,0-7.5,13V173.21L7.5,226.61a15,15,0,0,0-7.5,13v98.15a15,15,0,0,0,7.5,13l85,49.07a15,15,0,0,0,15,0l85-49.07a15,15,0,0,0,7.5-13V230.94l92.5-53.41a15,15,0,0,0,7.5-13V66.39a15,15,0,0,0-7.5-13l-85-49.08A15,15,0,0,0,192.5,4.33Z"/>
  <path class="face" d="M192.5,9l-81,46.76a15,15,0,0,0-7.5,13v106.8L11.5,228.92a15,15,0,0,0-7.5,13v93.53a15,15,0,0,0,7.5,13l81,46.76a15,15,0,0,0,15,0l81-46.76a15,15,0,0,0,7.5-13V228.63l92.5-53.4a15,15,0,0,0,7.5-13V68.71a15,15,0,0,0-7.5-13L207.5,9A15,15,0,0,0,192.5,9Z"/>
</svg>
