<svg viewBox="0 0 300 419.15">
  <path class="left" d="M0,72.73V179.54a15,15,0,0,0,7.5,13l92.5,53.4V352.75a15,15,0,0,0,7.5,13l85,49.07a15,15,0,0,0,15,0l85-49.07a15,15,0,0,0,7.5-13V245.94Z"/>
  <path class="right" d="M200,416.82a15,15,0,0,0,7.5-2l85-49.07a15,15,0,0,0,7.5-13v-15L200,401.82Z"/>
  <path class="edge" d="M192.5,53.41l-85-49.08a15,15,0,0,0-15,0L7.5,53.41a15,15,0,0,0-7.5,13v98.16a15,15,0,0,0,7.5,13L100,230.94V337.75a15,15,0,0,0,7.5,13l85,49.08a15,15,0,0,0,15,0l85-49.08a15,15,0,0,0,7.5-13V239.6a15,15,0,0,0-7.5-13L200,173.21V66.39A15,15,0,0,0,192.5,53.41Z"/>
  <path class="face" d="M188.5,55.71,107.5,9a15,15,0,0,0-15,0l-81,46.76a15,15,0,0,0-7.5,13v93.52a15,15,0,0,0,7.5,13l92.5,53.4V335.44a15,15,0,0,0,7.5,13l81,46.77a15,15,0,0,0,15,0l81-46.77a15,15,0,0,0,7.5-13V241.91a15,15,0,0,0-7.5-13L196,175.51V68.71A15,15,0,0,0,188.5,55.71Z"/>
</svg>
