<svg viewBox="0 0 200 200">
  <path class="bBottom" d="M116.92,93c22.46.43,35.57,10.51,35.57,25.92,0,17-11.81,27.07-34.27,27.07-13.54,0-19,0-32.84-.72H47.51V132.18h8.93V67.82H47.51V54.71H85.38c15,0,17.57-.72,27.36-.72,17.28,0,27.51,7.06,27.51,20C140.25,85.24,131.75,92.73,116.92,93ZM98.78,91.58h.72c10.94,0,17.28-5.48,17.28-14.69,0-8.5-4.61-14-16.71-14H98.78Zm0,8.49v37.15h1.72c12.39,0,19.16-6.48,19.16-18.28,0-12.1-6.92-18.87-20.45-18.87Z"/>
  <path class="bFace" d="M118.22,146c21.24,0,32.95-9,34.16-24.38-1.26-14.1-14.14-23.2-35.46-23.61V93c13.74-.27,22-6.73,23.18-16.61C138.8,65.11,128.83,59,112.74,59c-9.79,0-12.38.72-27.36.72H47.51v8.11h8.93v69.36H47.51v8.11H85.38C99.21,146,104.68,146,118.22,146ZM98.78,91.58V62.92h1.29c12.1,0,16.71,5.47,16.71,14a17,17,0,0,1-.18,2.4,19.66,19.66,0,0,1,.18,2.6c0,9.21-6.34,14.69-17.28,14.69h-.72Zm0,45.64V100.07h.43c13.53,0,20.45,6.77,20.45,18.87,0,.85,0,1.68-.12,2.48s.12,1.65.12,2.52c0,11.8-6.77,18.28-19.16,18.28H98.78Z"/>
</svg>
