<svg viewBox="0 0 200 230.94">
  <path class="bBottom" d="M116.92,108.49c22.46.43,35.57,10.51,35.57,25.92,0,17-11.81,27.07-34.27,27.07-13.54,0-19,0-32.84-.72H47.51V147.65h8.93V83.29H47.51V70.18H85.38c15,0,17.57-.72,27.36-.72,17.28,0,27.51,7.06,27.51,20C140.25,100.71,131.75,108.2,116.92,108.49Zm-18.14-1.44h.72c10.94,0,17.28-5.48,17.28-14.69,0-8.5-4.61-14-16.71-14H98.78Zm0,8.49v37.15h1.72c12.39,0,19.16-6.48,19.16-18.28,0-12.1-6.92-18.87-20.45-18.87Z"/>
  <path class="bFace" d="M118.22,161.48c21.24,0,32.95-9,34.16-24.38-1.26-14.1-14.14-23.2-35.46-23.61v-5c13.74-.27,22-6.73,23.18-16.61-1.3-11.3-11.27-17.42-27.36-17.42-9.79,0-12.38.72-27.36.72H47.51v8.11h8.93v69.36H47.51v8.11H85.38C99.21,161.48,104.68,161.48,118.22,161.48ZM98.78,107.05V78.39h1.29c12.1,0,16.71,5.47,16.71,14a17,17,0,0,1-.18,2.4,19.66,19.66,0,0,1,.18,2.6c0,9.21-6.34,14.69-17.28,14.69h-.72Zm0,45.64V115.54h.43c13.53,0,20.45,6.77,20.45,18.87,0,.85,0,1.68-.12,2.48s.12,1.65.12,2.52c0,11.8-6.77,18.28-19.16,18.28H98.78Z"/>
</svg>
