<svg viewBox="0 0 200 230.94">
  <g class="cdBottom">
    <path d="M87.28,97.21h1.08v11.23c-6.26,4.54-14.62,6.7-23,6.7-17.14,0-28.66-9.44-28.66-23.26,0-14.19,11-23.48,27.94-23.48,6.34,0,11.38,1.73,15.05,4.69V69.63H87.5V84.82H80.66L74,75c-9.14,0-15.77,7.2-15.77,17.21,0,10.51,5.62,16.56,13.18,16.56a15.67,15.67,0,0,0,6-1.08C77.49,100.45,82,97.21,87.28,97.21Z"/>
    <path d="M109.66,132.58c16.42,0,26.35,9.29,26.35,22.68s-9.86,22.61-26.28,22.61H75.17v-6.55h4.46V139.13H75.17v-6.55ZM101,137V173.4h.65c8.21,0,13.61-6.12,13.61-18.21S110,137,102.1,137Z"/>
    <path d="M93.61,74.9l4.64-1.52V55.77h3.13V72.3L112,68.87V53.07h3.13V67.84l4.21-1.38V77.71l-4.21,1.4V95l4.21-1.27v11.14l-4.21,1.41v17.6H112V107.29l-10.59,3.39v16H98.25V111.82l-4.64,1.52V102.09l4.64-1.51V84.5L93.61,86ZM112,80.12l-10.59,3.36V99.62L112,96.18Z"/>
    <path d="M143.46,114V148.6a16.29,16.29,0,0,1,10.91-4.54,8.28,8.28,0,0,1,6.48,3.14,10.53,10.53,0,0,1,2.48,6.48,15.91,15.91,0,0,1-1.4,6.48,9,9,0,0,1-2.38,3.24l-2.92,2.7q-8,5.82-16,11.77V114ZM152.21,151a4.22,4.22,0,0,0-3.35-1.52c-1.73,0-3.13,1-4.21,2.92-.8,1.51-1.19,5.08-1.19,10.69v9.29q.1.44,6-5.29a14,14,0,0,0,4.21-7.13,12.44,12.44,0,0,0,.43-3.24A8.24,8.24,0,0,0,152.21,151Z"/>
  </g>
  <g class="cdFace">
    <path d="M77.49,112.72a15.67,15.67,0,0,1-6,1.08c-7.56,0-13.18-6-13.18-16.56a19.89,19.89,0,0,1,.15-2.35,25.2,25.2,0,0,1-.15-2.65C58.26,82.23,64.89,75,74,75l6.63,9.79H87.5V74.63H79.65v3.46c-3.67-3-8.71-4.69-15.05-4.69C48.72,73.4,38,81.58,36.79,94.31c1.27,12.49,12.42,20.83,28.53,20.83,8.42,0,16.78-2.16,23-6.7v-6.23H87.28C82,102.21,77.49,105.45,77.49,112.72Z"/>
    <path d="M135.89,157.76c-1.16-12-10.85-20.18-26.23-20.18h-3.59c5.62,1.81,9.21,7.75,9.21,17.61,0,.86,0,1.69-.09,2.5s.09,1.63.09,2.5c0,10.06-3.75,16-9.73,17.68h4.18C125.1,177.87,134.73,169.79,135.89,157.76Z"/>
    <polygon points="101.02 173.4 101.02 141.97 101.02 137.58 75.17 137.58 75.17 139.13 79.63 139.13 79.63 144.13 79.63 171.32 79.63 176.32 75.17 176.32 75.17 177.87 101.02 177.87 101.02 173.4"/>
    <path d="M115.1,67.84V58.07H112v15.8L101.38,77.3V60.77H98.25V78.38L93.61,79.9V86l4.64-1.53v21.08l-4.64,1.51v6.25l4.64-1.52v14.91h3.13v-16L112,107.29v16.63h3.13v-17.6l4.21-1.41V98.77L115.1,100V79.11l4.21-1.4V71.46l-4.21,1.38ZM112,85.12v16.06l-10.59,3.44V83.48L112,80.12Z"/>
    <path d="M159.55,163.4a9,9,0,0,0,2.38-3.24,20.39,20.39,0,0,0,1.12-3.57,10.84,10.84,0,0,0-2.2-4.39,8.28,8.28,0,0,0-6.48-3.14,15.75,15.75,0,0,0-4.13.63,4.12,4.12,0,0,1,2,1.29,8.24,8.24,0,0,1,1.94,5.72,12.42,12.42,0,0,1-.28,2.49,10.49,10.49,0,0,1,.28,2.51,12.44,12.44,0,0,1-.43,3.24,13.79,13.79,0,0,1-2.34,5l5.25-3.87Z"/>
    <path d="M143.46,172.36v-9.29c0-5.25.35-8.69,1-10.35-.35.28-.7.57-1,.88V119h-2.81v58.83l2.81-2.07Z"/>
  </g>
</svg>
