<svg viewBox="0 0 200 230.94">
  <g class="fgBottom">
    <path d="M120.1,136.72v-4H128v13.76h-6.84l-7.35-8.35c-10.51.21-15.77,7.27-15.77,17.2,0,10.16,5.84,17.29,14.12,17.29V161h-4.18v-6.55h24.48V161h-4v9.8c-6.55,5-14.9,7.41-23.33,7.41-17.14,0-28.66-9.43-28.66-23.26,0-14.18,11.67-23.47,28.66-23.47C111.32,131.46,117.72,134,120.1,136.72Z"/>
    <path d="M88.39,68.42V82.61h-5l-6.7-9H65.85V89.38h8.71V83.55h4.83v16.63H74.56V94.56H65.85v12.6h4.53v6.56H40.21v-6.56h4.47V75H40.21V68.42Z"/>
    <path d="M93.06,74.57l4.64-1.51V55.45h3.13V72l10.59-3.42V52.75h3.13V67.52l4.21-1.38V77.39l-4.21,1.4V94.72l4.21-1.27v11.14l-4.21,1.4V123.6h-3.13V107l-10.59,3.39V126.4H97.7V111.49L93.06,113V101.76l4.64-1.51V84.18L93.06,85.7Zm18.36,5.23-10.59,3.35V99.3l10.59-3.45Z"/>
    <path d="M139.91,113.72v34.56a16.19,16.19,0,0,1,10.91-4.54,8.3,8.3,0,0,1,6.48,3.13,10.57,10.57,0,0,1,2.48,6.48,15.85,15.85,0,0,1-1.4,6.48,8.94,8.94,0,0,1-2.38,3.24l-2.92,2.7q-8,5.83-16,11.77V113.72Zm8.75,36.93a4.22,4.22,0,0,0-3.35-1.51q-2.59,0-4.21,2.92c-.8,1.51-1.19,5.07-1.19,10.69V172q.1.42,6.05-5.3a14,14,0,0,0,4.21-7.12,12.88,12.88,0,0,0,.43-3.24A8.27,8.27,0,0,0,148.66,150.65Z"/>
  </g>
  <g class="fgFace">
    <path d="M107.93,161h4.18v16.6c-8.28,0-14.12-7.13-14.12-17.29,0-.86.06-1.7.14-2.52-.08-.81-.14-1.63-.14-2.48,0-9.93,5.26-17,15.77-17.2l7.35,8.35H128v-8.76H120.1v4c-2.38-2.74-8.78-5.26-15-5.26-16,0-27.22,8.2-28.53,20.95,1.3,12.46,12.44,20.78,28.53,20.78,8.43,0,16.78-2.37,23.33-7.41V161h4v-1.55H107.93Z"/>
    <polygon points="40.21 74.98 44.68 74.98 44.68 79.98 44.68 107.16 44.68 112.16 40.21 112.16 40.21 113.72 70.38 113.72 70.38 112.16 65.85 112.16 65.85 107.16 65.85 99.56 65.85 94.56 74.56 94.56 74.56 99.56 74.56 100.18 79.39 100.18 79.39 88.55 74.56 88.55 74.56 89.38 74.56 94.38 65.85 94.38 65.85 89.38 65.85 78.61 65.85 73.61 76.72 73.61 83.42 82.61 88.39 82.61 88.39 73.42 40.21 73.42 40.21 74.98"/>
    <path d="M114.55,67.52V57.75h-3.13v15.8L100.83,77V60.45H97.7V78.06l-4.64,1.51V85.7l4.64-1.52v21.07l-4.64,1.51V113l4.64-1.52V126.4h3.13V110.35L111.42,107V123.6h3.13V106l4.21-1.4V98.45l-4.21,1.27V78.79l4.21-1.4V71.14l-4.21,1.38ZM111.42,84.8v16l-10.59,3.45V83.15l10.59-3.35Z"/>
    <path d="M156,163.07a8.94,8.94,0,0,0,2.38-3.24,20.3,20.3,0,0,0,1.12-3.56,10.94,10.94,0,0,0-2.2-4.4,8.3,8.3,0,0,0-6.48-3.13,15.75,15.75,0,0,0-4.13.63,4.15,4.15,0,0,1,2,1.28,8.27,8.27,0,0,1,1.94,5.73,12.42,12.42,0,0,1-.28,2.49,11,11,0,0,1,.28,2.51,12.88,12.88,0,0,1-.43,3.24,13.81,13.81,0,0,1-2.35,5c1.76-1.29,3.51-2.6,5.26-3.88Z"/>
    <path d="M139.91,172v-9.29c0-5.26.35-8.69,1-10.36-.35.29-.7.57-1,.89V118.72H137.1v58.82l2.81-2.06Z"/>
  </g>
</svg>
