<svg viewBox="0 0 100 100">
  <g class="dotsBottom">
    <path d="M74.1,20.48,66.29,25a1.56,1.56,0,0,0,0,2.7L74.1,32.2a1.57,1.57,0,0,0,2.35-1.35v-9A1.57,1.57,0,0,0,74.1,20.48Z"/>
    <path d="M22.14,50.48,14.33,55a1.56,1.56,0,0,0,0,2.7l7.81,4.51a1.57,1.57,0,0,0,2.35-1.35v-9A1.57,1.57,0,0,0,22.14,50.48Z"/>
    <path d="M84.1,37.8l-7.81,4.51a1.56,1.56,0,0,0,0,2.7l7.81,4.51a1.57,1.57,0,0,0,2.35-1.35v-9A1.57,1.57,0,0,0,84.1,37.8Z"/>
    <path d="M53.12,44.14l-7.81,4.51a1.56,1.56,0,0,0,0,2.7l7.81,4.51a1.57,1.57,0,0,0,2.35-1.35v-9A1.57,1.57,0,0,0,53.12,44.14Z"/>
    <path d="M32.14,67.8l-7.81,4.51a1.56,1.56,0,0,0,0,2.7l7.81,4.51a1.57,1.57,0,0,0,2.35-1.35v-9A1.57,1.57,0,0,0,32.14,67.8Z"/>
  </g>
  <g class="dotsFace">
    <path d="M74.1,25.48l-5.82,3.36L74.1,32.2a1.57,1.57,0,0,0,2.35-1.35v-4A1.57,1.57,0,0,0,74.1,25.48Z"/>
    <path d="M22.14,55.48l-5.82,3.36,5.82,3.36a1.57,1.57,0,0,0,2.35-1.35v-4A1.57,1.57,0,0,0,22.14,55.48Z"/>
    <path d="M84.1,42.8l-5.82,3.36,5.82,3.36a1.57,1.57,0,0,0,2.35-1.35v-4A1.57,1.57,0,0,0,84.1,42.8Z"/>
    <path d="M53.12,49.14,47.3,52.5l5.82,3.36a1.57,1.57,0,0,0,2.35-1.35v-4A1.57,1.57,0,0,0,53.12,49.14Z"/>
    <path d="M32.14,72.8l-5.82,3.36,5.82,3.36a1.57,1.57,0,0,0,2.35-1.35v-4A1.57,1.57,0,0,0,32.14,72.8Z"/>
  </g>
</svg>
