<svg viewBox="0 0 100 100">
  <g class="dotsBottom">
    <path d="M81.34,52.49,73.53,48a1.57,1.57,0,0,0-2.35,1.35v9a1.57,1.57,0,0,0,2.35,1.35l7.81-4.51A1.56,1.56,0,0,0,81.34,52.49Z"/>
    <path d="M38,27.49,30.23,23a1.57,1.57,0,0,0-2.35,1.35v9a1.57,1.57,0,0,0,2.35,1.35L38,30.19A1.56,1.56,0,0,0,38,27.49Z"/>
    <path d="M71.34,69.81,63.53,65.3a1.57,1.57,0,0,0-2.35,1.35v9A1.57,1.57,0,0,0,63.53,77l7.81-4.51A1.56,1.56,0,0,0,71.34,69.81Z"/>
    <path d="M28,44.81,20.23,40.3a1.57,1.57,0,0,0-2.35,1.35v9A1.57,1.57,0,0,0,20.23,52L28,47.51A1.56,1.56,0,0,0,28,44.81Z"/>
  </g>
  <g class="dotsFace">
    <path d="M73.53,59.7l5.82-3.36L73.53,53a1.57,1.57,0,0,0-2.35,1.35v4A1.57,1.57,0,0,0,73.53,59.7Z"/>
    <path d="M30.23,34.7l5.82-3.36L30.23,28a1.57,1.57,0,0,0-2.35,1.35v4A1.57,1.57,0,0,0,30.23,34.7Z"/>
    <path d="M63.53,77l5.82-3.36L63.53,70.3a1.57,1.57,0,0,0-2.35,1.35v4A1.57,1.57,0,0,0,63.53,77Z"/>
    <path d="M20.23,52l5.82-3.36L20.23,45.3a1.57,1.57,0,0,0-2.35,1.35v4A1.57,1.57,0,0,0,20.23,52Z"/>
  </g>
</svg>
