<svg viewBox="0 0 100 100">
  <g class="dotsBottom">
    <path d="M48.44,14.59V25.41A1.88,1.88,0,0,0,51.26,27l9.36-5.4a1.89,1.89,0,0,0,0-3.26L51.26,13A1.88,1.88,0,0,0,48.44,14.59Z"/>
    <path d="M43.44,44.59V55.41A1.88,1.88,0,0,0,46.26,57l9.36-5.4a1.89,1.89,0,0,0,0-3.26L46.26,43A1.88,1.88,0,0,0,43.44,44.59Z"/>
    <path d="M38.44,74.59V85.41A1.88,1.88,0,0,0,41.26,87l9.36-5.4a1.89,1.89,0,0,0,0-3.26L41.26,73A1.88,1.88,0,0,0,38.44,74.59Z"/>
  </g>
  <g class="dotsFace">
    <path d="M51.26,27l7.85-4.53L51.26,18a1.88,1.88,0,0,0-2.82,1.62v5.82A1.88,1.88,0,0,0,51.26,27Z"/>
    <path d="M46.26,57l7.85-4.53L46.26,48a1.88,1.88,0,0,0-2.82,1.62v5.82A1.88,1.88,0,0,0,46.26,57Z"/>
    <path d="M41.26,87l7.85-4.53L41.26,78a1.88,1.88,0,0,0-2.82,1.62v5.82A1.88,1.88,0,0,0,41.26,87Z"/>
  </g>
</svg>
