<svg viewBox="0 0 100 100">
  <g class="dotsBottom">
    <path d="M14.33,45l7.81,4.51a1.57,1.57,0,0,0,2.35-1.35v-9a1.57,1.57,0,0,0-2.35-1.35l-7.81,4.51A1.56,1.56,0,0,0,14.33,45Z"/>
    <path d="M66.29,75l7.81,4.51a1.57,1.57,0,0,0,2.35-1.35v-9A1.57,1.57,0,0,0,74.1,67.8l-7.81,4.51A1.56,1.56,0,0,0,66.29,75Z"/>
    <path d="M24.33,27.69l7.81,4.51a1.57,1.57,0,0,0,2.35-1.35v-9a1.57,1.57,0,0,0-2.35-1.35L24.33,25A1.56,1.56,0,0,0,24.33,27.69Z"/>
    <path d="M45.31,51.35l7.81,4.51a1.57,1.57,0,0,0,2.35-1.35v-9a1.57,1.57,0,0,0-2.35-1.35l-7.81,4.51A1.56,1.56,0,0,0,45.31,51.35Z"/>
    <path d="M76.29,57.69,84.1,62.2a1.57,1.57,0,0,0,2.35-1.35v-9a1.57,1.57,0,0,0-2.35-1.35L76.29,55A1.56,1.56,0,0,0,76.29,57.69Z"/>
  </g>
  <g class="dotsFace">
    <path d="M22.14,42.8l-5.82,3.36,5.82,3.36a1.57,1.57,0,0,0,2.35-1.35v-4A1.57,1.57,0,0,0,22.14,42.8Z"/>
    <path d="M74.1,72.8l-5.82,3.36,5.82,3.36a1.57,1.57,0,0,0,2.35-1.35v-4A1.57,1.57,0,0,0,74.1,72.8Z"/>
    <path d="M32.14,25.48l-5.82,3.36,5.82,3.36a1.57,1.57,0,0,0,2.35-1.35v-4A1.57,1.57,0,0,0,32.14,25.48Z"/>
    <path d="M53.12,49.14,47.3,52.5l5.82,3.36a1.57,1.57,0,0,0,2.35-1.35v-4A1.57,1.57,0,0,0,53.12,49.14Z"/>
    <path d="M84.1,55.48l-5.82,3.36L84.1,62.2a1.57,1.57,0,0,0,2.35-1.35v-4A1.57,1.57,0,0,0,84.1,55.48Z"/>
  </g>
</svg>
