<svg viewBox="0 0 100 100">
  <g class="dotsBottom">
    <path d="M78.66,33.38,67.4,39.88a2.25,2.25,0,0,0,0,3.9l11.26,6.5a2.25,2.25,0,0,0,3.37-2v-13A2.25,2.25,0,0,0,78.66,33.38Z"/>
    <path d="M30.36,49.72,19.1,56.22a2.25,2.25,0,0,0,0,3.9l11.26,6.5a2.25,2.25,0,0,0,3.37-2v-13A2.25,2.25,0,0,0,30.36,49.72Z"/>
  </g>
  <g class="dotsFace">
    <path d="M78.66,38.38l-10.3,5.95,10.3,6a2.25,2.25,0,0,0,3.37-2v-8A2.25,2.25,0,0,0,78.66,38.38Z"/>
    <path d="M30.36,54.72l-10.3,6,10.3,6a2.25,2.25,0,0,0,3.37-2v-8A2.25,2.25,0,0,0,30.36,54.72Z"/>
  </g>
</svg>
