<svg viewBox="0 0 100 100">
  <g class="dotsBottom">
    <path d="M30.23,77,38,72.51a1.56,1.56,0,0,0,0-2.7L30.23,65.3a1.57,1.57,0,0,0-2.35,1.35v9A1.57,1.57,0,0,0,30.23,77Z"/>
    <path d="M73.53,52l7.81-4.51a1.56,1.56,0,0,0,0-2.7L73.53,40.3a1.57,1.57,0,0,0-2.35,1.35v9A1.57,1.57,0,0,0,73.53,52Z"/>
    <path d="M20.23,59.7,28,55.19a1.56,1.56,0,0,0,0-2.7L20.23,48a1.57,1.57,0,0,0-2.35,1.35v9A1.57,1.57,0,0,0,20.23,59.7Z"/>
    <path d="M63.53,34.7l7.81-4.51a1.56,1.56,0,0,0,0-2.7L63.53,23a1.57,1.57,0,0,0-2.35,1.35v9A1.57,1.57,0,0,0,63.53,34.7Z"/>
  </g>
  <g class="dotsFace">
    <path d="M30.23,77l5.82-3.36L30.23,70.3a1.57,1.57,0,0,0-2.35,1.35v4A1.57,1.57,0,0,0,30.23,77Z"/>
    <path d="M73.53,52l5.82-3.36L73.53,45.3a1.57,1.57,0,0,0-2.35,1.35v4A1.57,1.57,0,0,0,73.53,52Z"/>
    <path d="M20.23,59.7l5.82-3.36L20.23,53a1.57,1.57,0,0,0-2.35,1.35v4A1.57,1.57,0,0,0,20.23,59.7Z"/>
    <path d="M63.53,34.7l5.82-3.36L63.53,28a1.57,1.57,0,0,0-2.35,1.35v4A1.57,1.57,0,0,0,63.53,34.7Z"/>
  </g>
</svg>
