<svg viewBox="0 0 100 100">
  <g class="dotsBottom">
    <path d="M20.9,32.3l9.36,5.4a1.88,1.88,0,0,0,2.82-1.62V25.26a1.88,1.88,0,0,0-2.82-1.62L20.9,29A1.89,1.89,0,0,0,20.9,32.3Z"/>
    <path d="M44.38,51.63,53.74,57a1.88,1.88,0,0,0,2.82-1.62V44.59A1.88,1.88,0,0,0,53.74,43l-9.36,5.4A1.89,1.89,0,0,0,44.38,51.63Z"/>
    <path d="M67.86,71l9.36,5.4A1.88,1.88,0,0,0,80,74.74V63.92a1.88,1.88,0,0,0-2.82-1.62l-9.36,5.4A1.89,1.89,0,0,0,67.86,71Z"/>
  </g>
  <g class="dotsFace">
    <path d="M30.26,28.64l-7.85,4.53,7.85,4.53a1.88,1.88,0,0,0,2.82-1.62V30.26A1.88,1.88,0,0,0,30.26,28.64Z"/>
    <path d="M53.74,48,45.89,52.5,53.74,57a1.88,1.88,0,0,0,2.82-1.62V49.59A1.88,1.88,0,0,0,53.74,48Z"/>
    <path d="M77.22,67.3l-7.85,4.53,7.85,4.53A1.88,1.88,0,0,0,80,74.74V68.92A1.88,1.88,0,0,0,77.22,67.3Z"/>
  </g>
</svg>
