<svg viewBox="0 0 100 100">
  <g class="dotsBottom">
    <path d="M85.67,55l-7.81-4.51a1.57,1.57,0,0,0-2.35,1.35v9a1.57,1.57,0,0,0,2.35,1.35l7.81-4.51A1.56,1.56,0,0,0,85.67,55Z"/>
    <path d="M33.71,25,25.9,20.48a1.57,1.57,0,0,0-2.35,1.35v9A1.57,1.57,0,0,0,25.9,32.2l7.81-4.51A1.56,1.56,0,0,0,33.71,25Z"/>
    <path d="M75.67,72.31,67.86,67.8a1.57,1.57,0,0,0-2.35,1.35v9a1.57,1.57,0,0,0,2.35,1.35L75.67,75A1.56,1.56,0,0,0,75.67,72.31Z"/>
    <path d="M54.69,48.65l-7.81-4.51a1.57,1.57,0,0,0-2.35,1.35v9a1.57,1.57,0,0,0,2.35,1.35l7.81-4.51A1.56,1.56,0,0,0,54.69,48.65Z"/>
    <path d="M23.71,42.31,15.9,37.8a1.57,1.57,0,0,0-2.35,1.35v9a1.57,1.57,0,0,0,2.35,1.35L23.71,45A1.56,1.56,0,0,0,23.71,42.31Z"/>
  </g>
  <g class="dotsFace">
    <path d="M77.86,62.2l5.82-3.36-5.82-3.36a1.57,1.57,0,0,0-2.35,1.35v4A1.57,1.57,0,0,0,77.86,62.2Z"/>
    <path d="M25.9,32.2l5.82-3.36L25.9,25.48a1.57,1.57,0,0,0-2.35,1.35v4A1.57,1.57,0,0,0,25.9,32.2Z"/>
    <path d="M67.86,79.52l5.82-3.36L67.86,72.8a1.57,1.57,0,0,0-2.35,1.35v4A1.57,1.57,0,0,0,67.86,79.52Z"/>
    <path d="M46.88,55.86,52.7,52.5l-5.82-3.36a1.57,1.57,0,0,0-2.35,1.35v4A1.57,1.57,0,0,0,46.88,55.86Z"/>
    <path d="M15.9,49.52l5.82-3.36L15.9,42.8a1.57,1.57,0,0,0-2.35,1.35v4A1.57,1.57,0,0,0,15.9,49.52Z"/>
  </g>
</svg>
