<svg viewBox="0 0 100 100">
  <g class="dotsBottom">
    <path d="M82.22,32.3l-9.36,5.4a1.89,1.89,0,0,0,0,3.26l9.36,5.4A1.88,1.88,0,0,0,85,44.74V33.92A1.88,1.88,0,0,0,82.22,32.3Z"/>
    <path d="M53.74,43l-9.36,5.4a1.89,1.89,0,0,0,0,3.26L53.74,57a1.88,1.88,0,0,0,2.82-1.62V44.59A1.88,1.88,0,0,0,53.74,43Z"/>
    <path d="M25.26,53.64,15.9,59a1.89,1.89,0,0,0,0,3.26l9.36,5.4a1.88,1.88,0,0,0,2.82-1.62V55.26A1.88,1.88,0,0,0,25.26,53.64Z"/>
  </g>
  <g class="dotsFace">
    <path d="M82.22,37.3l-7.85,4.53,7.85,4.53A1.88,1.88,0,0,0,85,44.74V38.92A1.88,1.88,0,0,0,82.22,37.3Z"/>
    <path d="M53.74,48,45.89,52.5,53.74,57a1.88,1.88,0,0,0,2.82-1.62V49.59A1.88,1.88,0,0,0,53.74,48Z"/>
    <path d="M25.26,58.64l-7.85,4.53,7.85,4.53a1.88,1.88,0,0,0,2.82-1.62V60.26A1.88,1.88,0,0,0,25.26,58.64Z"/>
  </g>
</svg>
