<svg viewBox="0 0 100 100">
  <g class="dotsBottom">
    <path d="M75.9,64.88l-11.26-6.5a2.25,2.25,0,0,0-3.37,1.95v13a2.25,2.25,0,0,0,3.37,2l11.26-6.5A2.25,2.25,0,0,0,75.9,64.88Z"/>
    <path d="M37.6,31.22l-11.26-6.5a2.25,2.25,0,0,0-3.37,2v13a2.25,2.25,0,0,0,3.37,1.95l11.26-6.5A2.25,2.25,0,0,0,37.6,31.22Z"/>
  </g>
  <g class="dotsFace">
    <path d="M64.64,75.28l10.3-6-10.3-5.95a2.25,2.25,0,0,0-3.37,1.95v8A2.25,2.25,0,0,0,64.64,75.28Z"/>
    <path d="M26.34,41.62l10.3-5.95-10.3-6a2.25,2.25,0,0,0-3.37,2v8A2.25,2.25,0,0,0,26.34,41.62Z"/>
  </g>
</svg>
