<svg viewBox="0 0 100 100">
  <g class="dotsBottom">
    <path d="M17.78,67.7l9.36-5.4a1.89,1.89,0,0,0,0-3.26l-9.36-5.4A1.88,1.88,0,0,0,15,55.26V66.08A1.88,1.88,0,0,0,17.78,67.7Z"/>
    <path d="M46.26,57l9.36-5.4a1.89,1.89,0,0,0,0-3.26L46.26,43a1.88,1.88,0,0,0-2.82,1.62V55.41A1.88,1.88,0,0,0,46.26,57Z"/>
    <path d="M74.74,46.36,84.1,41a1.89,1.89,0,0,0,0-3.26l-9.36-5.4a1.88,1.88,0,0,0-2.82,1.62V44.74A1.88,1.88,0,0,0,74.74,46.36Z"/>
  </g>
  <g class="dotsFace">
    <path d="M17.78,67.7l7.85-4.53-7.85-4.53A1.88,1.88,0,0,0,15,60.26v5.82A1.88,1.88,0,0,0,17.78,67.7Z"/>
    <path d="M46.26,57l7.85-4.53L46.26,48a1.88,1.88,0,0,0-2.82,1.62v5.82A1.88,1.88,0,0,0,46.26,57Z"/>
    <path d="M74.74,46.36l7.85-4.53L74.74,37.3a1.88,1.88,0,0,0-2.82,1.62v5.82A1.88,1.88,0,0,0,74.74,46.36Z"/>
  </g>
</svg>
