<svg viewBox="0 0 100 100">
  <g class="dotsBottom">
    <path d="M25.9,79.52,33.71,75a1.56,1.56,0,0,0,0-2.7L25.9,67.8a1.57,1.57,0,0,0-2.35,1.35v9A1.57,1.57,0,0,0,25.9,79.52Z"/>
    <path d="M77.86,49.52,85.67,45a1.56,1.56,0,0,0,0-2.7L77.86,37.8a1.57,1.57,0,0,0-2.35,1.35v9A1.57,1.57,0,0,0,77.86,49.52Z"/>
    <path d="M15.9,62.2l7.81-4.51a1.56,1.56,0,0,0,0-2.7L15.9,50.48a1.57,1.57,0,0,0-2.35,1.35v9A1.57,1.57,0,0,0,15.9,62.2Z"/>
    <path d="M46.88,55.86l7.81-4.51a1.56,1.56,0,0,0,0-2.7l-7.81-4.51a1.57,1.57,0,0,0-2.35,1.35v9A1.57,1.57,0,0,0,46.88,55.86Z"/>
    <path d="M67.86,32.2l7.81-4.51a1.56,1.56,0,0,0,0-2.7l-7.81-4.51a1.57,1.57,0,0,0-2.35,1.35v9A1.57,1.57,0,0,0,67.86,32.2Z"/>
  </g>
  <g class="dotsFace">
    <path d="M25.9,79.52l5.82-3.36L25.9,72.8a1.57,1.57,0,0,0-2.35,1.35v4A1.57,1.57,0,0,0,25.9,79.52Z"/>
    <path d="M77.86,49.52l5.82-3.36L77.86,42.8a1.57,1.57,0,0,0-2.35,1.35v4A1.57,1.57,0,0,0,77.86,49.52Z"/>
    <path d="M15.9,62.2l5.82-3.36L15.9,55.48a1.57,1.57,0,0,0-2.35,1.35v4A1.57,1.57,0,0,0,15.9,62.2Z"/>
    <path d="M46.88,55.86,52.7,52.5l-5.82-3.36a1.57,1.57,0,0,0-2.35,1.35v4A1.57,1.57,0,0,0,46.88,55.86Z"/>
    <path d="M67.86,32.2l5.82-3.36-5.82-3.36a1.57,1.57,0,0,0-2.35,1.35v4A1.57,1.57,0,0,0,67.86,32.2Z"/>
  </g>
</svg>
