<svg viewBox="0 0 100 100">
  <g class="dotsBottom">
    <path d="M79.1,67.7l-9.36-5.4a1.88,1.88,0,0,0-2.82,1.62V74.74a1.88,1.88,0,0,0,2.82,1.62L79.1,71A1.89,1.89,0,0,0,79.1,67.7Z"/>
    <path d="M55.62,48.37,46.26,43a1.88,1.88,0,0,0-2.82,1.62V55.41A1.88,1.88,0,0,0,46.26,57l9.36-5.4A1.89,1.89,0,0,0,55.62,48.37Z"/>
    <path d="M32.14,29l-9.36-5.4A1.88,1.88,0,0,0,20,25.26V36.08a1.88,1.88,0,0,0,2.82,1.62l9.36-5.4A1.89,1.89,0,0,0,32.14,29Z"/>
  </g>
  <g class="dotsFace">
    <path d="M69.74,76.36l7.85-4.53L69.74,67.3a1.88,1.88,0,0,0-2.82,1.62v5.82A1.88,1.88,0,0,0,69.74,76.36Z"/>
    <path d="M46.26,57l7.85-4.53L46.26,48a1.88,1.88,0,0,0-2.82,1.62v5.82A1.88,1.88,0,0,0,46.26,57Z"/>
    <path d="M22.78,37.7l7.85-4.53-7.85-4.53A1.88,1.88,0,0,0,20,30.26v5.82A1.88,1.88,0,0,0,22.78,37.7Z"/>
  </g>
</svg>
