<svg viewBox="0 0 100 100">
  <g class="dotsBottom">
    <rect x="20.58" y="15.58" width="8.84" height="8.84" rx="1.56" transform="translate(-6.82 23.54) rotate(-45)"/>
    <rect x="70.58" y="15.58" width="8.84" height="8.84" rx="1.56" transform="translate(7.82 58.89) rotate(-45)"/>
    <rect x="20.58" y="45.58" width="8.84" height="8.84" rx="1.56" transform="translate(-28.03 32.32) rotate(-45)"/>
    <rect x="70.58" y="45.58" width="8.84" height="8.84" rx="1.56" transform="translate(-13.39 67.68) rotate(-45)"/>
    <rect x="20.58" y="75.58" width="8.84" height="8.84" rx="1.56" transform="translate(-49.25 41.11) rotate(-45)"/>
    <rect x="70.58" y="75.58" width="8.84" height="8.84" rx="1.56" transform="translate(-34.6 76.46) rotate(-45)"/>
  </g>
  <g class="dotsFace">
    <path d="M23.89,19.86,21.25,22.5l2.64,2.64a1.58,1.58,0,0,0,2.22,0l2.64-2.64-2.64-2.64A1.58,1.58,0,0,0,23.89,19.86Z"/>
    <path d="M73.89,19.86,71.25,22.5l2.64,2.64a1.58,1.58,0,0,0,2.22,0l2.64-2.64-2.64-2.64A1.58,1.58,0,0,0,73.89,19.86Z"/>
    <path d="M23.89,49.86,21.25,52.5l2.64,2.64a1.58,1.58,0,0,0,2.22,0l2.64-2.64-2.64-2.64A1.58,1.58,0,0,0,23.89,49.86Z"/>
    <path d="M73.89,49.86,71.25,52.5l2.64,2.64a1.58,1.58,0,0,0,2.22,0l2.64-2.64-2.64-2.64A1.58,1.58,0,0,0,73.89,49.86Z"/>
    <path d="M23.89,79.86,21.25,82.5l2.64,2.64a1.58,1.58,0,0,0,2.22,0l2.64-2.64-2.64-2.64A1.58,1.58,0,0,0,23.89,79.86Z"/>
    <path d="M73.89,79.86,71.25,82.5l2.64,2.64a1.58,1.58,0,0,0,2.22,0l2.64-2.64-2.64-2.64A1.58,1.58,0,0,0,73.89,79.86Z"/>
  </g>
</svg>
