<svg viewBox="0 0 100 100">
  <g class="dotsBottom">
    <rect x="66.56" y="21.92" width="8.84" height="8.84" rx="1.56" transform="translate(9.24 -17.47) rotate(15)"/>
    <rect x="76.56" y="39.24" width="8.84" height="8.84" rx="1.56" transform="translate(14.06 -19.47) rotate(15)"/>
    <rect x="40.58" y="36.92" width="8.84" height="8.84" rx="1.56" transform="translate(12.23 -10.24) rotate(15)"/>
    <rect x="50.58" y="54.24" width="8.84" height="8.84" rx="1.56" transform="translate(17.06 -12.24) rotate(15)"/>
    <rect x="14.6" y="51.92" width="8.84" height="8.84" rx="1.56" transform="translate(15.23 -3) rotate(15)"/>
    <rect x="24.6" y="69.24" width="8.84" height="8.84" rx="1.56" transform="translate(20.05 -5) rotate(15)"/>
  </g>
  <g class="dotsFace">
    <path d="M72.59,31.35a1.57,1.57,0,0,0,1.92-1.11l.63-2.33a1.17,1.17,0,0,0-.26-.1l-5.51-1.48a1.57,1.57,0,0,0-1.92,1.11l-.62,2.33a1.09,1.09,0,0,0,.25.1Z"/>
    <path d="M82.59,48.67a1.57,1.57,0,0,0,1.92-1.11l.63-2.33a1.17,1.17,0,0,0-.26-.1l-5.51-1.48a1.57,1.57,0,0,0-1.92,1.11l-.62,2.33a1.09,1.09,0,0,0,.25.1Z"/>
    <path d="M46.61,46.35a1.57,1.57,0,0,0,1.92-1.11l.63-2.33a1.39,1.39,0,0,0-.26-.1l-5.51-1.48a1.57,1.57,0,0,0-1.92,1.11l-.63,2.33a1.39,1.39,0,0,0,.26.1Z"/>
    <path d="M56.61,63.67a1.57,1.57,0,0,0,1.92-1.11l.63-2.33a1.39,1.39,0,0,0-.26-.1l-5.51-1.48a1.57,1.57,0,0,0-1.92,1.11l-.63,2.33a1.39,1.39,0,0,0,.26.1Z"/>
    <path d="M20.63,61.35a1.57,1.57,0,0,0,1.92-1.11l.62-2.33a1.09,1.09,0,0,0-.25-.1l-5.51-1.48a1.57,1.57,0,0,0-1.92,1.11l-.63,2.33a1.17,1.17,0,0,0,.26.1Z"/>
    <path d="M30.63,78.67a1.57,1.57,0,0,0,1.92-1.11l.62-2.33a1.09,1.09,0,0,0-.25-.1l-5.51-1.48a1.57,1.57,0,0,0-1.92,1.11l-.63,2.33a1.17,1.17,0,0,0,.26.1Z"/>
  </g>
</svg>
