<svg viewBox="0 0 400 245.94">
  <g class="shadowLine">
    <path class="dashed" d="M293.5,38.77l-85,49.07a15,15,0,0,1-15,0l-85-49.08a15,15,0,0,0-15,0L21,80.62a15,15,0,0,0-7.5,13v83.72a15,15,0,0,0,7.5,13l72.5,41.86a15,15,0,0,0,15,0l85-49.08a15,15,0,0,1,15,0l85,49.08a15,15,0,0,0,15,0L381,190.32a15,15,0,0,0,7.5-13V93.61a15,15,0,0,0-7.5-13L308.5,38.77A15,15,0,0,0,293.5,38.77Z"/>
  </g>
  <g class="infoLine">
    <path class="dashed" d="M292.5,33.77l-85,49.07a15,15,0,0,1-15,0l-85-49.08a15,15,0,0,0-15,0L20,75.62a15,15,0,0,0-7.5,13v83.72a15,15,0,0,0,7.5,13l72.5,41.86a15,15,0,0,0,15,0l85-49.08a15,15,0,0,1,15,0l85,49.08a15,15,0,0,0,15,0L380,185.32a15,15,0,0,0,7.5-13V88.61a15,15,0,0,0-7.5-13L307.5,33.77A15,15,0,0,0,292.5,33.77Z"/>
  </g>
</svg>
