<svg viewBox="0 0 300 419.14">
  <g class="shadowLine">
    <path class="dashed" d="M193.5,38.76,121,80.62a15,15,0,0,0-7.5,13v98.15a15,15,0,0,1-7.5,13L21,253.83a15,15,0,0,0-7.5,13v83.71a15,15,0,0,0,7.5,13l72.5,41.86a15,15,0,0,0,15,0L181,363.52a15,15,0,0,0,7.5-13V252.38a15,15,0,0,1,7.5-13l85-49.07a15,15,0,0,0,7.5-13V93.61a15,15,0,0,0-7.5-13L208.5,38.76A15,15,0,0,0,193.5,38.76Z"/>
  </g>
  <g class="infoLine">
    <path class="dashed" d="M192.5,33.76,120,75.62a15,15,0,0,0-7.5,13v98.15a15,15,0,0,1-7.5,13L20,248.83a15,15,0,0,0-7.5,13v83.71a15,15,0,0,0,7.5,13l72.5,41.86a15,15,0,0,0,15,0L180,358.52a15,15,0,0,0,7.5-13V247.38a15,15,0,0,1,7.5-13l85-49.07a15,15,0,0,0,7.5-13V88.61a15,15,0,0,0-7.5-13L207.5,33.76A15,15,0,0,0,192.5,33.76Z"/>
  </g>
</svg>
