<svg viewBox="0 0 300 419.15">
  <g class="shadowLine">
    <path class="dashed" d="M188.5,191.76V93.61a15,15,0,0,0-7.5-13L108.5,38.76a15,15,0,0,0-15,0L21,80.62a15,15,0,0,0-7.5,13v83.72a15,15,0,0,0,7.5,13l85,49.07a15,15,0,0,1,7.5,13v98.15a15,15,0,0,0,7.5,13l72.5,41.86a15,15,0,0,0,15,0L281,363.52a15,15,0,0,0,7.5-13V266.82a15,15,0,0,0-7.5-13l-85-49.08A15,15,0,0,1,188.5,191.76Z"/>
  </g>
  <g class="infoLine">
    <path class="dashed" d="M187.5,186.76V88.61a15,15,0,0,0-7.5-13L107.5,33.76a15,15,0,0,0-15,0L20,75.62a15,15,0,0,0-7.5,13v83.72a15,15,0,0,0,7.5,13l85,49.07a15,15,0,0,1,7.5,13v98.15a15,15,0,0,0,7.5,13l72.5,41.86a15,15,0,0,0,15,0L280,358.52a15,15,0,0,0,7.5-13V261.82a15,15,0,0,0-7.5-13l-85-49.08A15,15,0,0,1,187.5,186.76Z"/>
  </g>
</svg>
