<svg viewBox="0 0 2400 1847.52">
  <rect class="background" width="2400" height="1847.52"/>
  <g class="f3_horizon">
    <g class="bottom">
      <path class="left" d="M400.52,1120v60a60,60,0,0,0,30,52l340,196.3a60,60,0,0,0,60,0l370-213.62,370,213.62a60,60,0,0,0,60,0l340-196.29a60,60,0,0,0,30-52v-60Z" transform="translate(-0.5 0)"/>
      <g class="right">
        <path d="M1200.51,1154.68l-400,221.66v60a59.94,59.94,0,0,0,30-8l370-213.62v-60" transform="translate(-0.5 0)"/>
        <path d="M2000.51,1180a60,60,0,0,1-30,52l-340,196.29a60,60,0,0,1-30,8v-60l400-256.29Z" transform="translate(-0.5 0)"/>
      </g>
    </g>
    <path class="edge" d="M1570.52,479.19l-370,213.61-370-213.62a60,60,0,0,0-60,0l-340,196.3a60,60,0,0,0-30,52V1120a60,60,0,0,0,30,52l340,196.3a60,60,0,0,0,60,0l370-213.61,370,213.62a60,60,0,0,0,60,0l340-196.3a60,60,0,0,0,30-52V727.44a60,60,0,0,0-30-52l-340-196.3A60,60,0,0,0,1570.52,479.19Z" transform="translate(-0.5 0)"/>
    <path class="face" d="M1570.51,497.66l-370,213.62-370-213.62a60,60,0,0,0-60,0l-324,187.06a60,60,0,0,0-30,52V1110.8a60,60,0,0,0,30,52l324,187a60,60,0,0,0,60,0l370-213.61,370,213.62a60,60,0,0,0,60,0l324-187.06a60,60,0,0,0,30-52V736.69a60,60,0,0,0-30-52l-324-187.06A60,60,0,0,0,1570.51,497.66Z" transform="translate(-0.5 0)"/>
    <g class="dotsBottom">
      <path d="M1194.26,782.13v43.26a7.52,7.52,0,0,0,11.27,6.51L1243,810.27a7.51,7.51,0,0,0,0-13l-37.46-21.63A7.51,7.51,0,0,0,1194.26,782.13Z" transform="translate(-0.5 0)"/>
      <path d="M1174.26,902.13v43.26a7.52,7.52,0,0,0,11.27,6.51L1223,930.27a7.51,7.51,0,0,0,0-13l-37.46-21.63A7.51,7.51,0,0,0,1174.26,902.13Z" transform="translate(-0.5 0)"/>
      <path d="M1154.26,1022.13v43.26a7.52,7.52,0,0,0,11.27,6.51l37.46-21.63a7.51,7.51,0,0,0,0-13l-37.46-21.63A7.51,7.51,0,0,0,1154.26,1022.13Z" transform="translate(-0.5 0)"/>
    </g>
    <g class="dotsFace">
      <path d="M1205.53,831.9l31.41-18.14-31.41-18.13a7.51,7.51,0,0,0-11.27,6.5v23.26A7.52,7.52,0,0,0,1205.53,831.9Z" transform="translate(-0.5 0)"/>
      <path d="M1185.53,951.9l31.41-18.14-31.41-18.13a7.51,7.51,0,0,0-11.27,6.5v23.26A7.52,7.52,0,0,0,1185.53,951.9Z" transform="translate(-0.5 0)"/>
      <path d="M1165.53,1071.9l31.41-18.14-31.41-18.13a7.51,7.51,0,0,0-11.27,6.5v23.26A7.52,7.52,0,0,0,1165.53,1071.9Z" transform="translate(-0.5 0)"/>
    </g>
    <path class="fBottom" d="M993.17,742.61V856.08H953.43l-53.57-72h-87V910.22h69.69V863.57h38.59v133H882.58V951.69H812.89v100.8h36.28v52.41H607.83v-52.41h35.72V795H607.83V742.61Z" transform="translate(-0.5 0)"/>
    <g class="gaBottom">
      <path d="M1676.93,1092.79v16.13h-31.39v-55h27.36l29.38,33.41c42-.87,63.07-29.09,63.07-68.84,0-40.61-23.33-69.13-56.45-69.13v46.38h16.71v26.21h-97.93V995.73h16.13V956.55c26.21-20.16,59.62-29.66,93.32-29.66,68.55,0,114.63,37.73,114.63,93,0,56.74-46.66,93.9-114.63,93.9C1712.07,1113.82,1686.43,1103.73,1676.93,1092.79Z" transform="translate(-0.5 0)"/>
      <path d="M1640.93,743l13.25-39.75h-19.59V674.17h64.52v29.09h-20.45l-54.44,152.08h-84.68l-57.31-155h-20.74V674.17h129v26.21h-18.15L1585.92,743ZM1613,826l19.59-58.18h-38.31Z" transform="translate(-0.5 0)"/>
      <path d="M1612.17,1086.05l-18.58,6.06v70.44h-12.52v-66.09l-42.34,13.7v63.2H1526.2v-59.09l-16.85,5.51v-45l16.85-5.59v-63.71l-16.85,5.06V966l16.85-5.61V890h12.53v66.53l42.34-13.55V878.73h12.52v59.65l18.58-6.08v45l-18.58,6v64.29l18.58-6.09Zm-73.44-20.89,42.34-13.42V987.16l-42.34,13.77Z" transform="translate(-0.5 0)"/>
      <path d="M1428.76,929.48V791.24q-19.44,17.71-43.63,18.15-15.12,0-25.92-12.53a42.23,42.23,0,0,1-9.94-25.92q-.42-11.25,5.62-25.92,2.16-6,9.5-13,5.63-5.19,11.67-10.8,32-23.32,63.93-47.09V929.48Zm-35-147.74a16.87,16.87,0,0,0,13.39,6q10.36,0,16.85-11.66,4.76-9.07,4.75-42.77V696.2q-.42-1.73-24.19,21.17a56.06,56.06,0,0,0-16.85,28.51,50.2,50.2,0,0,0-1.73,13Q1386,773.11,1393.77,781.74Z" transform="translate(-0.5 0)"/>
    </g>
    <polygon class="fFace" points="607.33 795.02 643.04 795.02 643.04 815.02 643.04 1052.49 643.04 1072.49 607.33 1072.49 607.33 1104.9 848.67 1104.9 848.67 1072.49 812.38 1072.49 812.38 1052.49 812.38 971.69 812.38 951.69 882.08 951.69 882.08 971.69 882.08 996.62 920.67 996.62 920.67 883.57 882.08 883.57 882.08 910.22 882.08 930.22 812.38 930.22 812.38 910.22 812.38 804.08 812.38 784.08 899.36 784.08 952.93 856.08 992.67 856.08 992.67 762.61 607.33 762.61 607.33 795.02"/>
    <g class="gaFace">
      <path d="M1725.61,1015.73H1708.9V949.35c33.12,0,56.45,28.52,56.45,69.13v20c0,39.75-21,68-63.07,68.84l-29.38-33.41h-27.36v35h31.39v-16.13c9.5,10.94,35.14,21,60.2,21,63.85,0,108.89-32.8,114.11-83.82-5.19-49.84-49.75-83.11-114.11-83.11-33.7,0-67.11,9.5-93.32,29.66v39.18h-16.13v6.21h97.93Z" transform="translate(-0.5 0)"/>
      <path d="M1634.59,703.26h19.59v20L1640.93,763h-55l-13.54-42.63v-20h18.15v-6.21h-129v6.21h20.74l57.31,155h84.68l54.44-152.08h20.45v-9.09h-64.52Zm-2,84.52L1613,846l-18.72-58.18v-20h38.31Z" transform="translate(-0.5 0)"/>
      <path d="M1593.59,938.38V898.73h-12.52v64.21l-42.34,13.55V910H1526.2v70.42L1509.35,986v24.55l16.85-5.06v83.71l-16.85,5.59v25l16.85-5.51v59.08h12.53v-63.19l42.34-13.7v66.09h12.52V1092.1l18.58-6v-24.51l-18.58,6.09V983.34l18.58-6v-25l-18.58,6.08Zm-12.52,68.78v64.58l-42.34,13.42v-84.23l42.34-13.77Z" transform="translate(-0.5 0)"/>
      <g>
        <path d="M1364.39,752.06q-7.34,6.91-9.5,13a81,81,0,0,0-4.5,14.26,43.46,43.46,0,0,0,8.82,17.58q10.8,12.52,25.92,12.53a63.19,63.19,0,0,0,16.49-2.51,16.6,16.6,0,0,1-7.85-5.14q-7.77-8.65-7.78-22.9v-20a50.2,50.2,0,0,1,1.73-13,54.73,54.73,0,0,1,9.38-20.12c-7,5.15-14,10.38-21,15.5Q1370,746.87,1364.39,752.06Z" transform="translate(-0.5 0)"/>
        <path d="M1428.76,716.2v37.15c0,21-1.4,34.77-4.18,41.42,1.41-1.13,2.81-2.28,4.18-3.53V929.48H1440V694.17c-3.74,2.78-7.48,5.5-11.23,8.27Z" transform="translate(-0.5 0)"/>
      </g>
    </g>
  </g>
  <g class="infoShadowLine">
    <path d="M351.5,1390.64c-127.95-22.55,37.23-407.38-70-461.88,107.23-54.49-57.95-439.33,70-461.88" transform="translate(-0.5 0)"/>
    <path d="M2046.5,1248c45.7-3.38-11.75-53.1,25-69.28-36.75-16.18,20.7-65.9-25-69.28" transform="translate(-0.5 0)"/>
    <path d="M2001.5,1445c-39,221.62-705.61-64.49-800,121.24-94.39-185.73-760.95,100.38-800-121.24" transform="translate(-0.5 0)"/>
    <line x1="1201.02" y1="457.8" x2="1201.02" y2="766.49"/>
    <path d="M401.52,407.8c24.5,112.33,104.13,263,198.78,353.26" transform="translate(-0.5 0)"/>
  </g>
  <g class="infoShadow">
    <g class="text">
      <text transform="translate(164.09 266.57)">circle of fifths<tspan x="-107.39" y="100.8">maps to color wheel</tspan></text>
      <text transform="translate(971.6 214.07)">pips between<tspan x="-99.91" y="100.8">faces show interval</tspan><tspan x="-66.11" y="201.6">size and direction</tspan></text>
      <text transform="translate(78.89 955.41)">1-1/4&quot;</text>
      <text transform="translate(1084.58 1656.26)">2-3/16&quot;</text>
      <text transform="translate(2103.03 1204.39)">3/8&quot;</text>
    </g>
    <path d="M1201.52,800.63c-5.26-14.2-14.25-31.82-23.77-42.74l23.77,8.6,23.78-8.6C1215.78,768.81,1206.79,786.43,1201.52,800.63Z" transform="translate(-0.5 0)"/>
    <path d="M625.83,783.61c-14.18-5.31-33.39-10-47.87-10L600,761.27l9.06-23.61C611.1,752,618.54,770.34,625.83,783.61Z" transform="translate(-0.5 0)"/>
  </g>
  <g class="infoLine">
    <path d="M350.5,1385.64c-127.95-22.55,37.23-407.38-70-461.88,107.23-54.49-57.95-439.33,70-461.88" transform="translate(-0.5 0)"/>
    <path d="M2045.5,1243c45.7-3.38-11.75-53.1,25-69.28-36.75-16.18,20.7-65.9-25-69.28" transform="translate(-0.5 0)"/>
    <path d="M2000.5,1440c-39,221.62-705.61-64.49-800,121.24-94.39-185.73-760.95,100.38-800-121.24" transform="translate(-0.5 0)"/>
    <line x1="1200.02" y1="452.8" x2="1200.02" y2="761.49"/>
    <path d="M400.52,402.8c24.5,112.33,104.13,263,198.78,353.26" transform="translate(-0.5 0)"/>
  </g>
  <g class="info">
    <g class="text">
      <text transform="translate(163.09 261.57)">circle of fifths<tspan x="-107.39" y="100.8">maps to color wheel</tspan></text>
      <text transform="translate(970.6 209.07)">pips between<tspan x="-99.91" y="100.8">faces show interval</tspan><tspan x="-66.11" y="201.6">size and direction</tspan></text>
      <text transform="translate(77.89 950.41)">1-1/4&quot;</text>
      <text transform="translate(1083.58 1651.26)">2-3/16&quot;</text>
      <text transform="translate(2102.03 1199.39)">3/8&quot;</text>
    </g>
    <path d="M1200.52,795.63c-5.26-14.2-14.25-31.82-23.77-42.74l23.77,8.6,23.78-8.6C1214.78,763.81,1205.79,781.43,1200.52,795.63Z" transform="translate(-0.5 0)"/>
    <path d="M624.83,778.61c-14.18-5.31-33.39-10-47.87-10L599,756.27l9.06-23.61C610.1,747,617.54,765.34,624.83,778.61Z" transform="translate(-0.5 0)"/>
  </g>
</svg>
