<svg viewBox="0 0 93.86 95.32">
  <circle class="hairBlackDark" cx="59.62" cy="80.55" r="11.42"/>
  <g class="eye">
    <g class="sclera">
      <circle cx="46.28" cy="35.86" r="23.56"/>
    </g>
    <g class="irisDarkBrown">
      <circle cx="59.55" cy="47.04" r="3.33"/>
      <circle cx="33.25" cy="47.12" r="3.33"/>
    </g>
    <g class="pupil">
      <circle cx="59.55" cy="47.04" r="1.29"/>
      <circle cx="33.25" cy="47.12" r="1.29"/>
    </g>
  </g>
  <g class="skinIndian">
    <path d="M74.58,68.5C68,80.88,65,82.78,55.75,87.67c-2.92,1.54-4.33,3.15-9.57,3.09-5.68-.07-7.18-2.52-10.92-4.15C-34.75,47.11,76-62.1,74.58,68.5Zm-20.11-20a34.58,34.58,0,0,0,5.26.56A17.81,17.81,0,0,0,66,47.43a10.46,10.46,0,0,0-6.63-2.5,9,9,0,0,0-6.43,3.19C52.36,48.88,54,48.49,54.47,48.53Zm-15-.67c-2.31-2.26-4-3.22-6.82-3-2.63.24-4.75,1.85-6.22,2.5,2.11.81,3.58,1.65,6,1.76s3.9-.78,5.45-.74C38.26,48.43,40.17,48.6,39.42,47.86Z"/>
  </g>
  <path class="lipFemaleBrown__noStroke" d="M36.29,71.38c.45,11,18.6,11,19.78-.06Z"/>
  <path class="lipFemaleBrown" d="M57.25,71c-1.89.57-4.34-1.49-6-1.77-2.65-.44-3.66,1-8.34-.19-2.58-.68-4.31,2.33-7.82,2.18C42.14,72.07,54.09,72.11,57.25,71Z"/>
  <g class="skinFoldLine">
    <path d="M17.18,49.4c-1-7.14-4.65,1.2-1.48,7.47"/>
    <path d="M18.06,59.05c-.78.18-.57-2-1.08-3.16-.95-2.13-.75-7.06.6-5.23.75,1.46-.15,3.46,1,5.11"/>
  </g>
  <g class="mouthInner">
    <path d="M55.31,71.3l-18.06,0h0l-.51.15c3.8,6.78,16.07,5.91,19,0A2.83,2.83,0,0,1,55.31,71.3Z"/>
  </g>
  <g class="teeth">
    <path d="M55.31,71.3c-1-.25-2.13-.93-3.06-1.13-2.23-.49-3.92,1.35-9.61-.08-2.14-.54-3.36.5-5.39,1.18C41.1,75.67,51.57,75.23,55.31,71.3Z"/>
  </g>
  <g class="lipEdgeLine">
    <path d="M38.61,76.82c3.8,3.9,11.5,3.76,15.19-.59"/>
  </g>
  <g class="cheekLine">
    <path d="M52.76,60.43c2.52,1.69,1.66,3.58,3.49,6.37,1.4,2.14,2.68,2.56,2.42,6"/>
    <path d="M39.76,60.36c-2.45,1.33-2.22,4-3.79,6.18s-2.55,3.22-2.51,5.77"/>
  </g>
  <g class="noseLine">
    <path d="M39.76,60.36c-1.59,2.25-.28,4.27,1.75,4.55,1.7.23,1.85,1.73,4.88,1.7,2.66,0,3-1.45,4.84-1.65s3.71-1.95,1.53-4.53"/>
  </g>
  <g class="eyeFoldLine">
    <path d="M65.2,49.83c-2.09,2.57-7.19,1.41-9.15.69"/>
    <path d="M37.31,50.5c-1.44.1-7.19,2.67-10.16-.08"/>
  </g>
  <g class="eyeCornerLine">
    <path d="M26.38,47.4a3.75,3.75,0,0,1-2.24.24"/>
    <path d="M68.08,47.5A2,2,0,0,1,66,47.43"/>
  </g>
  <g class="eyeCreaseLine">
    <path d="M53.21,46.2a8,8,0,0,1,12.08-.35"/>
    <path d="M26.7,45.9c4.51-4.44,9.54-2.71,11.79-.34"/>
  </g>
  <g class="eyebrowBlack">
    <path d="M23.12,40.4c5.05-3.15,13.61-3.58,17.17-1.14,1,.67-1.85,1.78-3,1.3C32,38.43,28.07,38.36,23.12,40.4Z"/>
    <path d="M69.7,40.85c-5.35-4.31-13.83-3.59-17.09-1.66-1,.6,2.2,1.91,3.37,1.36C61.41,38,64.28,38.34,69.7,40.85Z"/>
  </g>
  <g class="hairBlack">
    <path d="M88.72,38.21C88.72,24,80.33,19.13,75,11.89,68.08,2.36,47-4.44,35,4.26c-8-4.14-20.85,9-24.14,16.13-2.78,6-8.64,10.26-8.95,24.46C1.64,55.84-2.82,66,4.12,83.4c1.49,3.72,3.94,4.24,4.05.2,6.91,11.62,18.21,12,11.28,3.62,4.27,2.41,7.44,3.58,9.72,4a5.58,5.58,0,0,1,2.49-1.86,33.21,33.21,0,0,0,.43-4.65C23.78,79.32,19.22,73.6,19.1,65c-3.83.92-3.16-3.31-4.29-5.77-5-10.89-.28-19.51,2.49-15.13.5,1,.1,4.64,1.69,4.18-.16-5.23-.21-9.62,2.2-13.59A8.15,8.15,0,0,0,24,33.37c-6.41,5.13,10.16,3.81,11.44-6.14,0,7.67,9.81,13,7.42,6.16,10.58,4.93,21,3.37,15.74.13a45.57,45.57,0,0,0,12.58,2.27c2.52,11.2,1.48,23.79-1,31-1.4,4.1.61,5,3.24.72-4.39,13.7-13.93,23.39-15,25.39-1.54,2.78,4.24,3.8,12.17-2.75-2,6.59,7.81.13,12.26-7.81-.62,4.79,2.21,3.32,5.73-1.65C99.84,64.54,88.72,47.26,88.72,38.21Z"/>
  </g>
  <g class="hairOverlapLine">
    <path d="M71.16,35.79c5.55.58,5.14-2.22,1.24-4"/>
    <path d="M21.19,34.73a9.8,9.8,0,0,1-3.88.24"/>
  </g>
</svg>
