<svg viewBox="0 0 71.69 99.99">
  <g class="eye">
    <g class="sclera">
      <circle cx="35.55" cy="56.75" r="23.77"/>
    </g>
    <g class="irisDarkBrown">
      <circle cx="49.06" cy="55.7" r="3.47"/>
      <circle cx="22.28" cy="55.7" r="3.47"/>
    </g>
    <g class="pupil">
      <circle cx="49.06" cy="55.7" r="1.35"/>
      <circle cx="22.28" cy="55.7" r="1.35"/>
    </g>
  </g>
  <g class="skinEastAsian">
    <path d="M69.05,51.3c2.49,1.36,3.75,8.31.16,16.59-1.18,2.73-1.56,6-5.89,6.26C60,87.58,53.67,91,44.56,97.32c-4.61,3.2-13.5,3.29-18.44-.1C19.6,92.73,11.43,87.48,8,74.33c-4.59,0-4.7-2.38-6.39-6.89-2.94-7.82-.58-15.1,1-15.8C1.86.05,68.31-.28,69.05,51.3ZM28.63,56.43c-1.54-2.46-4.28-3.07-6.64-3-2.74.09-4.63,2-5.88,2.67,2,.57,3.48,1.41,6.34,1.53A13.57,13.57,0,0,0,27.38,57C27.82,56.86,29.21,57.37,28.63,56.43ZM44.36,57a20.26,20.26,0,0,0,4.88.83,23.18,23.18,0,0,0,6.45-1.42c-1.24-.69-3.21-2.91-6.36-3-2.36,0-4.69.52-6.22,3C42.52,57.4,43.91,57,44.36,57Z"/>
  </g>
  <g class="skinOverlapLine">
    <path d="M65.31,56.39c-.52,4-.63,9.34-2,17.76"/>
    <path d="M6.62,56.48C7.14,60.89,6.94,67,8,74.33"/>
  </g>
  <g class="skinFoldLine">
    <path d="M65.89,57.4C69.57,51.21,71,58.5,68.75,64"/>
    <path d="M65.38,66.47c2.2,1.32,1.28-2.56,1.79-3.42,2-3.28.81-4.17,0-4.13"/>
    <path d="M6.62,57.48C2.91,52.07.52,59.23,3.1,65.12"/>
    <path d="M7,67.77c-2.53-.45-1.72-2.36-2.13-3.27-1.79-4-.21-5.49.6-4.37"/>
  </g>
  <g class="lipMaleMedium__noStroke">
    <path d="M33.21,78.43a7.29,7.29,0,0,0,5.38,0c2.12.38,4.86,2.25,6.65,2.54-3,3.12-3.44,7.28-9.43,7.44-7.06.2-6.05-4.85-9.6-7.2C29.33,80.4,31.12,78.33,33.21,78.43Z"/>
  </g>
  <g class="mouthInner">
    <path d="M43.3,80.64c-3.37,2.68-11.73,2.75-15,.17a7.49,7.49,0,0,1-.9.24c6.23,4.55,11.71,4.38,16.53-.13Z"/>
  </g>
  <g class="teeth">
    <path d="M43.3,80.64c-4.71-1.5-6.74.43-7.84.06a11.14,11.14,0,0,0-7.19.11C31.57,83.39,39.93,83.32,43.3,80.64Z"/>
  </g>
  <g class="lipOverlapLine">
    <path d="M25.46,81.05a4.4,4.4,0,0,0,1.91,0"/>
    <path d="M45.92,80.61a2.32,2.32,0,0,1-2,.31"/>
  </g>
  <g class="lipEdgeLine">
    <path d="M38.59,78.39a7.29,7.29,0,0,1-5.38,0"/>
    <path d="M41.5,86.08a8.4,8.4,0,0,1-11.79,0"/>
  </g>
  <g class="cheekLine">
    <path d="M42.56,68.72a14.18,14.18,0,0,1,4.34,6.9"/>
    <path d="M29.49,68.9c-1.76,1-3.8,3.64-4.94,6.6"/>
  </g>
  <g class="noseLine">
    <path d="M42.56,68.72c2.18,2.28.33,4.21-.24,4.43"/>
    <path d="M29.49,68.9a2.47,2.47,0,0,0-.13,4"/>
    <path d="M31,72.54c1.42,0,1.53,1.54,4.43,1.61,3.52.09,3.28-1.75,5.11-1.75"/>
  </g>
  <g class="eyeFoldLine">
    <path d="M53.46,59.91a7.76,7.76,0,0,1-7.92.18"/>
    <path d="M26.45,59.73c-1.69,1.73-6.17,1.94-8.67-.28"/>
  </g>
  <g class="eyeCornerLine">
    <path d="M16.11,56.1a5.45,5.45,0,0,1-1.92,1.12"/>
    <path d="M55.69,56.45a6.58,6.58,0,0,0,2,.86"/>
  </g>
  <g class="eyeCreaseLine">
    <path d="M16.34,54.43c3.37-3.4,8.09-3.24,10.72-.86"/>
  </g>
  <g class="eyebrowBlack">
    <path d="M41.33,46.83c3.88,4.6,12.19.24,17.43,3.88C54.78,44.74,48.6,48.33,41.33,46.83Z"/>
    <path d="M31.45,46.92C28,51.39,18.2,47,13.14,50.4,17.69,44.08,24.18,48.42,31.45,46.92Z"/>
  </g>
  <g class="hairBlack">
    <path d="M2.61,51.64C-2,29,4,18.24,15.62,10.19c-2.14-1.15-4-.69-6.6,1,2.81-3.65,5.69-4.26,9.18-2.74,1.22-4.45,4-7.34,9.08-8-3.09,1.41-5.53,3.73-6,7.12,12.19-4.41,26.91-2.51,36.88,4,8.73,5.68,15.22,19.9,10.84,39.75-2.32.1-1.46,5.35-3.74,5.09-.65-2.24.35-6.5-2-9.75-5.88-4.79-14.55-1-20.47-5.38.79.93,2.82,2.21,4.06,4-5.63-3.23-10,2.3-18.85-4.53,1.65,1.36,1.78,3.34,2.4,5-5.13-4.16-10.57-4-11.74-16.15,1.3,15.05-5.15,14.32-7.53,18.87-.23-1.81.91-4,1.15-5.79a11.75,11.75,0,0,1-3.91,4.92,21.82,21.82,0,0,0-1.81,8.89C3.91,55.9,5.21,50.67,2.61,51.64Z"/>
  </g>
  <g class="hairOverlapLine">
    <path d="M63.32,46.64c.79.36,2.65,2,3.31,2.1a13.33,13.33,0,0,0-1-3.77"/>
    <path d="M8.43,47.59a15.92,15.92,0,0,1-3.71,1.57"/>
  </g>
</svg>
