<svg class="dominoes" viewBox="0 0 1600 1270.17">
  <rect class="background" width="1600" height="1270.17"/>
  <g class="de9_ascend">
    <g class="base">
      <polygon points="500 346.41 400 404.14 400 519.61 500 577.35 600 519.61 600 404.14 500 346.41"/>
      <polygon points="600 173.21 500 230.94 500 346.41 600 404.14 700 346.41 700 230.94 600 173.21"/>
    </g>
    <g class="bottom">
      <path class="right" d="M700,245.94,400,419.14V526a15,15,0,0,0,7.5,13l85,49.08a15,15,0,0,0,15,0l85-49.08a15,15,0,0,0,7.5-13V419.14h0l92.5-53.4a15,15,0,0,0,7.5-13Z" transform="translate(0 0)"/>
      <path class="left" d="M400,511v15a15,15,0,0,0,7.5,13l85,49.08a15,15,0,0,0,7.5,2V575Z" transform="translate(0 0)"/>
    </g>
    <path class="edge" d="M592.5,177.54l-85,49.07a15,15,0,0,0-7.5,13V346.41l-92.5,53.4a15,15,0,0,0-7.5,13V511a15,15,0,0,0,7.5,13l85,49.08a15,15,0,0,0,15,0l85-49.08a15,15,0,0,0,7.5-13V404.14l92.5-53.4a15,15,0,0,0,7.5-13V239.6a15,15,0,0,0-7.5-13l-85-49.07A15,15,0,0,0,592.5,177.54Z" transform="translate(0 0)"/>
    <path class="face" d="M592.5,182.15l-81,46.77a15,15,0,0,0-7.5,13V348.72l-92.5,53.4a15,15,0,0,0-7.5,13v93.53a15,15,0,0,0,7.5,13l81,46.76a15,15,0,0,0,15,0l81-46.76a15,15,0,0,0,7.5-13V401.83l92.5-53.4a15,15,0,0,0,7.5-13V241.91a15,15,0,0,0-7.5-13l-81-46.77A15,15,0,0,0,592.5,182.15Z" transform="translate(0 0)"/>
    <g class="dotsBottom">
      <path d="M579.1,393l-9.36-5.41a1.88,1.88,0,0,0-2.82,1.63V400a1.88,1.88,0,0,0,2.82,1.63l9.36-5.41A1.88,1.88,0,0,0,579.1,393Z" transform="translate(0 0)"/>
      <path d="M555.62,373.65l-9.36-5.41a1.88,1.88,0,0,0-2.82,1.63v10.81a1.88,1.88,0,0,0,2.82,1.63l9.36-5.41A1.88,1.88,0,0,0,555.62,373.65Z" transform="translate(0 0)"/>
      <path d="M532.14,354.32l-9.36-5.41a1.88,1.88,0,0,0-2.82,1.63v10.81a1.88,1.88,0,0,0,2.82,1.63l9.36-5.41A1.88,1.88,0,0,0,532.14,354.32Z" transform="translate(0 0)"/>
    </g>
    <g class="dotsFace">
      <path d="M569.74,401.64l7.85-4.53-7.85-4.54a1.88,1.88,0,0,0-2.82,1.63V400A1.88,1.88,0,0,0,569.74,401.64Z" transform="translate(0 0)"/>
      <path d="M546.26,382.31l7.85-4.53-7.85-4.54a1.88,1.88,0,0,0-2.82,1.63v5.81A1.88,1.88,0,0,0,546.26,382.31Z" transform="translate(0 0)"/>
      <path d="M522.78,363l7.85-4.53-7.85-4.54a1.88,1.88,0,0,0-2.82,1.63v5.81A1.88,1.88,0,0,0,522.78,363Z" transform="translate(0 0)"/>
    </g>
    <path class="cBottom" d="M565.82,326.14,564.74,328l-19.46-11.23c-1.59-15.39,3-32,11.44-46.6,17.14-29.68,45-40.21,68.94-26.38,24.57,14.18,29.64,42.55,12.72,71.85-6.34,11-14.37,18-23.16,21.39l6,3.45-7.85,13.6L587.05,338.9l6.84-11.85,23.58-1.68c9.15-15.84,3.3-34.51-14-44.52-18.21-10.51-34.3-6.83-41.86,6.26a31.14,31.14,0,0,0-4.18,11.56C570,305.94,571.14,316.91,565.82,326.14Z" transform="translate(0 0)"/>
    <path class="cFace" d="M619,344.24l-3.82-2.2v-5c8.79-3.41,16.82-10.41,23.16-21.39,6.12-10.61,9.35-21.09,9.83-30.83-.76-15-8.42-27.87-22.55-36-23.94-13.83-51.8-3.3-68.94,26.38C549.89,287,545.57,300.19,545,313c.05,1.28.12,2.56.25,3.83L564.74,328l1.08-1.87a22.36,22.36,0,0,0,2.82-7.9c-.8-5.38-4.26-10.54-11.24-14.57v-5a31.14,31.14,0,0,1,4.18-11.56c7.56-13.09,23.65-16.77,41.86-6.26,12.71,7.34,19.23,19.34,18.21,31.47a30.64,30.64,0,0,1-4.18,18.05l-23.58,1.68-4.68,8.1,24.15,13.94Z" transform="translate(0 0)"/>
    <g class="deBottom">
      <path d="M447.38,459.57c8.21-14.22,21.22-18.18,32.82-11.48s14.65,19.85,6.44,34.06l-17.28,29.94-5.67-3.28,2.23-3.87L438,488.85l-2.23,3.87-5.67-3.28Zm-.51,9.68,31.55,18.22.32-.56c4.11-7.11,1.51-14.85-9-20.9s-18.44-4.49-22.36,2.3Z" transform="translate(0 0)"/>
      <path d="M529.71,444.63,542,451.72l-2.49,4.3-11.14,1.3-5.44,9.42,12.41,7.16,3.5-6-4.43-2.55,2.41-4.18,13.53,7.81-2.41,4.18-4.61-2.66-3.5,6,13.35,7.71,6.88-11.91c-5.74-3.31-7.93-8.16-4.95-13.33l.54-.94,14,8.07L544.85,509l-5.67-3.28,2.23-3.86-27.88-16.1-2.23,3.87-5.67-3.28Z" transform="translate(0 0)"/>
      <path d="M467.89,436.34l1-4.78-15.26-8.8,1.57-2.72,14.31,8.27,2.33-10.88-13.69-7.9,1.57-2.72,12.79,7.39.91-4.34,9.75,5.63-.9,4.35,13.8,8,1-4.28,9.64,5.57-.89,4.35,15.25,8.8L519.53,445l-14.4-8.31-2.36,10.86,13.9,8-1.57,2.71-12.91-7.45-1,4.78-9.74-5.63,1-4.77-13.92-8-1,4.78Zm13.71-13.29-2.39,10.85,14,8.07,2.32-10.89Z" transform="translate(0 0)"/>
      <path d="M518.22,427.46l23.94,13.82,6,3.46A16.19,16.19,0,0,1,549.68,433a8.27,8.27,0,0,1,6-4,10.5,10.5,0,0,1,6.85,1.09,15.59,15.59,0,0,1,4.91,4.46A8.85,8.85,0,0,1,569,438.2c.28,1.25.57,2.54.88,3.88q1.05,9.84,2.2,19.73l-55.27-31.92Zm36.36,10.89a4.21,4.21,0,0,0-3,2.15q-1.3,2.24.42,5.1,1.37,2.17,8.66,6.38l8.05,4.64q.42.12-1.56-7.88a14,14,0,0,0-4.07-7.21,12.38,12.38,0,0,0-2.59-2A8.24,8.24,0,0,0,554.58,438.35Z" transform="translate(0 0)"/>
    </g>
    <g class="deFace">
      <path d="M469.36,512.09l17.28-29.94a32.9,32.9,0,0,0,4.49-13c-.73-6.73-4.52-12.4-10.93-16.09-11.59-6.7-24.61-2.74-32.82,11.48L432.3,490.69l3.51,2,2.23-3.87,27.88,16.09v5l-.07.12Zm-22.49-37.84v-5l.54-.94c3.92-6.79,11.95-8.31,22.36-2.3,8.57,4.95,11.87,11,10.53,17a12.18,12.18,0,0,1-1.56,8.93l-.32.56Z" transform="translate(0 0)"/>
      <g>
        <path d="M544.85,509l22.61-39.15L555.65,463l-.54.94a10.94,10.94,0,0,0-.91,2c.83,2.4,2.85,4.56,5.86,6.3v5l-6.88,11.91-13.35-7.71v-5l3.5-6.05,4.61,2.67.25-.43-11.37-6.56-.25.43,2.27,1.3v5l-3.5,6-12.41-7.16v-5l5.44-9.42,11.14-1.3.32-.55-10.12-5.84-21.92,38,3.51,2,2.23-3.86,27.88,16.09v5l-.07.11Z" transform="translate(0 0)"/>
        <polygon points="537.13 461.3 536.82 461.12 536.69 461.35 537.13 461.3"/>
      </g>
      <g>
        <polygon points="505.13 436.63 506.1 437.2 505.85 433.44 497.1 428.52 496.09 432.8 495.24 432.31 495.51 436.08 493.19 446.97 492.19 446.39 492.45 450.16 492.39 450.48 501.18 455.56 502.19 450.78 503.04 451.26 502.77 447.5 505.13 436.63"/>
        <polygon points="477.53 441.9 478.54 437.12 479.48 437.67 479.21 433.89 481.6 423.05 482.55 423.6 482.29 419.83 473.44 414.86 472.53 419.2 471.59 418.66 471.86 422.43 469.53 433.31 468.65 432.8 468.91 436.56 468.84 436.88 477.53 441.9"/>
      </g>
      <path d="M569.89,447.08c-.31-1.34-.6-2.63-.88-3.88a8.85,8.85,0,0,0-1.62-3.67,15.59,15.59,0,0,0-4.91-4.46,10.5,10.5,0,0,0-6.85-1.09,8.27,8.27,0,0,0-6,4,15.38,15.38,0,0,0-1.79,5.24c.07.49.15,1,.26,1.47l-.32,3.06,3.88,2.24.09-4.83a4.6,4.6,0,0,1-.2-4.71,4.21,4.21,0,0,1,3-2.15,8.24,8.24,0,0,1,5.93,1.18,12.38,12.38,0,0,1,2.59,2,14,14,0,0,1,4.07,7.21q2,8,1.56,7.88l-.17,3.15,2.94,1.69C571,456.66,570.4,451.86,569.89,447.08Z" transform="translate(0 0)"/>
    </g>
  </g>
  <g class="g4_horizon">
    <g class="base">
      <polygon points="599.99 519.62 499.99 577.35 499.99 692.82 599.99 750.56 699.99 692.82 699.99 577.35 599.99 519.62"/>
      <polygon points="400 519.62 300 577.35 300 692.82 400 750.56 500 692.82 500 577.35 400 519.62"/>
    </g>
    <g class="bottom">
      <path class="left" d="M300,684.16v15a15,15,0,0,0,7.5,13l85,49.08a15,15,0,0,0,15,0L500,707.82l92.5,53.41a15,15,0,0,0,15,0l85-49.08a15,15,0,0,0,7.5-13v-15Z" transform="translate(0 0)"/>
      <g class="right">
        <path d="M500,692.82,400,748.24v15a15,15,0,0,0,7.5-2L500,707.82v-15" transform="translate(0 0)"/>
        <path d="M700,699.16a15,15,0,0,1-7.5,13l-85,49.08a15,15,0,0,1-7.5,2v-15l100-64.08Z" transform="translate(0 0)"/>
      </g>
    </g>
    <path class="edge" d="M592.49,524,500,577.35,407.49,524a15,15,0,0,0-15,0l-85,49.07A15,15,0,0,0,300,586v98.15a15,15,0,0,0,7.49,13l85,49.08a15,15,0,0,0,15,0L500,692.82l92.5,53.41a15,15,0,0,0,15,0l85-49.08a15,15,0,0,0,7.5-13V586a15,15,0,0,0-7.5-13l-85-49.07A15,15,0,0,0,592.49,524Z" transform="translate(0 0)"/>
    <path class="face" d="M592.49,528.57,500,582l-92.5-53.4a15,15,0,0,0-15,0l-81,46.76a15,15,0,0,0-7.5,13v93.53a15,15,0,0,0,7.5,13l81,46.77a15,15,0,0,0,15,0L500,688.2l92.49,53.41a15,15,0,0,0,15,0l81-46.76a15,15,0,0,0,7.5-13V588.33a15,15,0,0,0-7.5-13l-81-46.76A15,15,0,0,0,592.49,528.57Z" transform="translate(0 0)"/>
    <g class="dotsBottom">
      <path d="M484.53,605.58v9a1.57,1.57,0,0,0,2.35,1.36l7.8-4.51a1.56,1.56,0,0,0,0-2.71l-7.8-4.51A1.57,1.57,0,0,0,484.53,605.58Z" transform="translate(0 0)"/>
      <path d="M484.53,655.58v9a1.57,1.57,0,0,0,2.35,1.36l7.8-4.51a1.56,1.56,0,0,0,0-2.71l-7.8-4.51A1.57,1.57,0,0,0,484.53,655.58Z" transform="translate(0 0)"/>
      <path d="M504.53,605.58v9a1.57,1.57,0,0,0,2.35,1.36l7.8-4.51a1.56,1.56,0,0,0,0-2.71l-7.8-4.51A1.57,1.57,0,0,0,504.53,605.58Z" transform="translate(0 0)"/>
      <path d="M504.53,655.58v9a1.57,1.57,0,0,0,2.35,1.36l7.8-4.51a1.56,1.56,0,0,0,0-2.71l-7.8-4.51A1.57,1.57,0,0,0,504.53,655.58Z" transform="translate(0 0)"/>
    </g>
    <g class="dotsFace">
      <path d="M486.88,616l5.82-3.36-5.82-3.37a1.57,1.57,0,0,0-2.35,1.36v4A1.57,1.57,0,0,0,486.88,616Z" transform="translate(0 0)"/>
      <path d="M486.88,666l5.82-3.36-5.82-3.37a1.57,1.57,0,0,0-2.35,1.36v4A1.57,1.57,0,0,0,486.88,666Z" transform="translate(0 0)"/>
      <path d="M506.88,616l5.82-3.36-5.82-3.37a1.57,1.57,0,0,0-2.35,1.36v4A1.57,1.57,0,0,0,506.88,616Z" transform="translate(0 0)"/>
      <path d="M506.88,666l5.82-3.36-5.82-3.37a1.57,1.57,0,0,0-2.35,1.36v4A1.57,1.57,0,0,0,506.88,666Z" transform="translate(0 0)"/>
    </g>
    <path class="gBottom" d="M431.39,598.87v-8.06h15.7v27.5H433.41l-14.69-16.7c-21,.43-31.54,14.54-31.54,34.41,0,20.3,11.67,34.56,28.23,34.56V647.4h-8.36V634.29h49V647.4H448V667c-13.1,10.08-29.81,14.83-46.66,14.83C367,681.81,344,663,344,635.3c0-28.37,23.33-46.94,57.31-46.94C413.82,588.36,426.64,593.4,431.39,598.87Z" transform="translate(0 0)"/>
    <path class="gFace" d="M407.05,647.4h8.36v28.18c-16.56,0-28.23-14.26-28.23-34.56,0-.86,0-1.7.07-2.53s-.07-1.63-.07-2.47c0-19.87,10.51-34,31.54-34.41l14.69,16.7h13.68v-22.5h-15.7v8.06c-4.75-5.47-17.57-10.51-30.1-10.51-33,0-55.9,17.48-57.24,44.43,1.34,26.28,24,44,57.24,44,16.85,0,33.56-4.75,46.66-14.83V647.4H456v-8.11h-49Z" transform="translate(0 0)"/>
    <path class="bBottom" d="M583.08,642.07c-22.46-.44-35.57-10.52-35.57-25.92,0-17,11.81-27.07,34.28-27.07,13.53,0,19,0,32.83.72h37.87v13.1h-8.93v64.37h8.93v13.1H614.62c-15,0-17.57.72-27.36.72-17.28,0-27.51-7.06-27.51-20C559.75,649.84,568.25,642.35,583.08,642.07Zm18.14,1.44h-.72c-10.94,0-17.27,5.47-17.27,14.68,0,8.5,4.6,14,16.7,14h1.29Zm0-8.5V597.86H599.5c-12.39,0-19.15,6.48-19.15,18.29,0,12.09,6.91,18.86,20.44,18.86Z" transform="translate(0 0)"/>
    <path class="bFace" d="M581.79,594.08c-21.25,0-33,9-34.17,24.37,1.26,14.1,14.14,23.21,35.46,23.62v5c-13.74.26-22,6.72-23.18,16.6,1.3,11.3,11.27,17.42,27.36,17.42,9.79,0,12.38-.72,27.36-.72h37.87v-8.1h-8.93V602.9h8.93v-8.1H614.62C600.79,594.08,595.32,594.08,581.79,594.08Zm19.43,54.43v28.65h-1.29c-12.1,0-16.7-5.47-16.7-14a16.81,16.81,0,0,1,.17-2.39,20,20,0,0,1-.17-2.61c0-9.21,6.33-14.68,17.27-14.68h.72Zm0-45.65V640h-.43c-13.53,0-20.44-6.77-20.44-18.86,0-.86,0-1.68.11-2.48s-.11-1.65-.11-2.52c0-11.81,6.76-18.29,19.15-18.29h1.72Z" transform="translate(0 0)"/>
  </g>
  <g class="e10_horizon">
    <g class="base">
      <polygon points="999.99 519.62 899.99 577.35 899.99 692.82 999.99 750.56 1099.99 692.82 1099.99 577.35 999.99 519.62"/>
      <polygon points="800 519.61 700 577.35 700 692.82 800 750.55 900 692.82 900 577.35 800 519.61"/>
    </g>
    <g class="bottom">
      <path class="left" d="M700,684.16v15a15,15,0,0,0,7.51,13l85,49.07a15,15,0,0,0,15,0L900,707.82l92.5,53.4a15,15,0,0,0,15,0l85-49.07a15,15,0,0,0,7.5-13v-15Z" transform="translate(0 0)"/>
      <g class="right">
        <path d="M900,692.82,800,748.23v15a15,15,0,0,0,7.51-2L900,707.82v-15" transform="translate(0 0)"/>
        <path d="M1100,699.16a15,15,0,0,1-7.5,13l-85,49.07a15,15,0,0,1-7.5,2v-15l100-64.08Z" transform="translate(0 0)"/>
      </g>
    </g>
    <path class="edge" d="M992.49,524,900,577.35l-92.5-53.41a15,15,0,0,0-15,0L707.5,573a15,15,0,0,0-7.5,13v98.15a15,15,0,0,0,7.5,13l85,49.07a15,15,0,0,0,15,0L900,692.82l92.5,53.41a15,15,0,0,0,15,0l85-49.08a15,15,0,0,0,7.5-13V586a15,15,0,0,0-7.5-13l-85-49.07A15,15,0,0,0,992.49,524Z" transform="translate(0 0)"/>
    <path class="face" d="M992.49,528.57,900,582l-92.5-53.41a15,15,0,0,0-15,0l-81,46.77a15,15,0,0,0-7.5,13v93.53a15,15,0,0,0,7.5,13l81,46.77a15,15,0,0,0,15,0L900,688.2l92.49,53.41a15,15,0,0,0,15,0l81-46.77a15,15,0,0,0,7.5-13V588.32a15,15,0,0,0-7.5-13l-81-46.76A15,15,0,0,0,992.49,528.57Z" transform="translate(0 0)"/>
    <g class="dotsBottom">
      <path d="M902.87,666.59v-13a2.25,2.25,0,0,0-3.37-1.94l-11.26,6.5a2.25,2.25,0,0,0,0,3.89l11.26,6.5A2.24,2.24,0,0,0,902.87,666.59Z" transform="translate(0 0)"/>
      <path d="M912.87,616.59v-13a2.25,2.25,0,0,0-3.37-1.94l-11.26,6.5a2.25,2.25,0,0,0,0,3.89l11.26,6.5A2.24,2.24,0,0,0,912.87,616.59Z" transform="translate(0 0)"/>
    </g>
    <g class="dotsFace">
      <path d="M899.5,656.64l-10.3,6,10.3,5.94a2.24,2.24,0,0,0,3.37-1.94v-8A2.25,2.25,0,0,0,899.5,656.64Z" transform="translate(0 0)"/>
      <path d="M909.5,606.64l-10.3,6,10.3,5.94a2.24,2.24,0,0,0,3.37-1.94v-8A2.25,2.25,0,0,0,909.5,606.64Z" transform="translate(0 0)"/>
    </g>
    <path class="eBottom" d="M846.8,589.8v28.37h-9.94l-13.39-18H801.73v28.65h14V618.6h9.65v31.24h-9.65V639.19h-14V670h27.5c0-13.24,6.19-21.88,18.14-21.88h2.16v32.25H750.46v-13.1h8.93V602.9h-8.93V589.8Z" transform="translate(0 0)"/>
    <path class="eFace" d="M829.23,675h-27.5V639.19h14v10.65h9.65V623.6h-9.65v10.22h-14V600.17h21.74l13.39,18h9.94V594.8H750.46v8.1h8.93v69.37h-8.93v8.1h99.07V653.12h-2.16C835.42,653.12,829.23,661.76,829.23,675Z" transform="translate(0 0)"/>
    <path class="dBottom" d="M991.86,680.37c-32.83,0-52.7-18.57-52.7-45.36s19.73-45.21,52.56-45.21h69.12v13.1h-8.93v64.37h8.93v13.1Zm17.28-8.78V598.73h-1.29c-16.42,0-27.22,12.24-27.22,36.43s10.66,36.43,26.35,36.43Z" transform="translate(0 0)"/>
    <path class="dFace" d="M939.22,637.51c1.2,25.43,20.84,42.86,52.64,42.86h69v-8.1h-8.93V602.9h8.93v-8.1H991.72C959.92,594.8,940.42,612.09,939.22,637.51Zm69.92-38.78v77.86H1007c-15.69,0-26.35-12.39-26.35-36.43,0-.85,0-1.68,0-2.5s0-1.65,0-2.5c0-24.19,10.8-36.43,27.22-36.43Z" transform="translate(0 0)"/>
  </g>
  <g class="cd7_ascend">
    <g class="base">
      <polygon points="600 866.02 500 923.76 500 1039.23 600 1096.96 700 1039.23 700 923.76 600 866.02"/>
      <polygon points="700 692.82 600 750.55 600 866.02 700 923.76 800 866.02 800 750.55 700 692.82"/>
    </g>
    <g class="bottom">
      <path class="right" d="M800,765.56,500,938.76v106.81a15,15,0,0,0,7.5,13l85,49.07a15,15,0,0,0,15,0l85-49.07a15,15,0,0,0,7.5-13V938.76h0l92.5-53.4a15,15,0,0,0,7.5-13Z" transform="translate(0 0)"/>
      <path class="left" d="M500,1030.57v15a15,15,0,0,0,7.5,13l85,49.07a15,15,0,0,0,7.5,2v-15Z" transform="translate(0 0)"/>
    </g>
    <path class="edge" d="M692.5,697.15l-85,49.08a15,15,0,0,0-7.5,13V866l-92.5,53.4a15,15,0,0,0-7.5,13v98.15a15,15,0,0,0,7.5,13l85,49.07a15,15,0,0,0,15,0l85-49.07a15,15,0,0,0,7.5-13V923.76l92.5-53.4a15,15,0,0,0,7.5-13V759.22a15,15,0,0,0-7.5-13l-85-49.08A15,15,0,0,0,692.5,697.15Z" transform="translate(0 0)"/>
    <path class="face" d="M692.5,701.77l-81,46.76a15,15,0,0,0-7.5,13V868.34l-92.5,53.4a15,15,0,0,0-7.5,13v93.53a15,15,0,0,0,7.5,13l81,46.77a15,15,0,0,0,15,0l81-46.77a15,15,0,0,0,7.5-13V921.45l92.5-53.4a15,15,0,0,0,7.5-13V761.53a15,15,0,0,0-7.5-13l-81-46.76A15,15,0,0,0,692.5,701.77Z" transform="translate(0 0)"/>
    <g class="dotsBottom">
      <path d="M685.67,899.88l-7.81-4.51a1.57,1.57,0,0,0-2.35,1.36v9a1.57,1.57,0,0,0,2.35,1.36l7.81-4.51A1.57,1.57,0,0,0,685.67,899.88Z" transform="translate(0 0)"/>
      <path d="M633.7,869.88l-7.8-4.51a1.57,1.57,0,0,0-2.35,1.36v9a1.57,1.57,0,0,0,2.35,1.36l7.8-4.51A1.56,1.56,0,0,0,633.7,869.88Z" transform="translate(0 0)"/>
      <path d="M675.67,917.2l-7.81-4.51a1.57,1.57,0,0,0-2.35,1.36v9a1.57,1.57,0,0,0,2.35,1.36l7.81-4.51A1.57,1.57,0,0,0,675.67,917.2Z" transform="translate(0 0)"/>
      <path d="M654.68,893.54l-7.8-4.51a1.57,1.57,0,0,0-2.35,1.36v9a1.57,1.57,0,0,0,2.35,1.36l7.8-4.51A1.56,1.56,0,0,0,654.68,893.54Z" transform="translate(0 0)"/>
      <path d="M623.7,887.2l-7.8-4.51a1.57,1.57,0,0,0-2.35,1.36v9a1.57,1.57,0,0,0,2.35,1.36l7.8-4.51A1.56,1.56,0,0,0,623.7,887.2Z" transform="translate(0 0)"/>
    </g>
    <g class="dotsFace">
      <path d="M677.86,907.1l5.82-3.37-5.82-3.36a1.57,1.57,0,0,0-2.35,1.36v4A1.57,1.57,0,0,0,677.86,907.1Z" transform="translate(0 0)"/>
      <path d="M625.9,877.1l5.82-3.37-5.82-3.36a1.57,1.57,0,0,0-2.35,1.36v4A1.57,1.57,0,0,0,625.9,877.1Z" transform="translate(0 0)"/>
      <path d="M667.86,924.42l5.82-3.37-5.82-3.36a1.57,1.57,0,0,0-2.35,1.36v4A1.57,1.57,0,0,0,667.86,924.42Z" transform="translate(0 0)"/>
      <path d="M646.88,900.76l5.82-3.37L646.88,894a1.57,1.57,0,0,0-2.35,1.36v4A1.57,1.57,0,0,0,646.88,900.76Z" transform="translate(0 0)"/>
      <path d="M615.9,894.42l5.82-3.37-5.82-3.36a1.57,1.57,0,0,0-2.35,1.36v4A1.57,1.57,0,0,0,615.9,894.42Z" transform="translate(0 0)"/>
    </g>
    <g class="gaBottom">
      <path d="M746.15,812.87l3.49,2-3.92,6.8-11.92-6.88,3.42-5.93,10.91-2.18c5.07-9.21,1.59-17.29-7-22.26-8.79-5.08-17.88-3.59-22,3.58l10,5.8,2.09-3.62,5.67,3.28-12.24,21.2L719,811.4l2-3.49-8.48-4.9c-1.09-8.19,1-16.61,5.24-23.91,8.57-14.84,22.5-20.1,34.47-13.19,12.29,7.09,14.5,21.84,6,36.56C755.09,807.89,749.7,812.18,746.15,812.87Z" transform="translate(0 0)"/>
      <path d="M665.92,776.94,659,769.11l-2.45,4.24-6.3-3.64,8.07-14,6.29,3.64L662,763.81l26.12,30.79-10.59,18.33-40.71-7-2.59,4.49-5.68-3.27,16.13-27.94,5.68,3.28-2.27,3.93L659,788.85Zm14.46,16.42-10.14-11.51-4.79,8.29Z" transform="translate(0 0)"/>
      <path d="M736.59,826.05l-1,4.78,15.26,8.8-1.57,2.72L735,834.09,732.63,845l13.69,7.9-1.57,2.72L732,848.19l-.91,4.34-9.75-5.63.9-4.35-13.8-8-1,4.28-9.64-5.57.89-4.35-15.25-8.8,1.57-2.71,14.4,8.31,2.36-10.85-13.9-8,1.57-2.71,12.91,7.45,1-4.78,9.75,5.63-1,4.77,13.92,8,1-4.78Zm-13.7,13.29,2.39-10.84-14-8.08L709,831.31Z" transform="translate(0 0)"/>
      <path d="M679.77,846.19l-23.94-13.83-6-3.45a16.19,16.19,0,0,1-1.53,11.71,8.3,8.3,0,0,1-5.95,4,10.57,10.57,0,0,1-6.85-1.09,15.71,15.71,0,0,1-4.91-4.46,8.85,8.85,0,0,1-1.62-3.67c-.28-1.25-.57-2.54-.88-3.88q-1.05-9.84-2.2-19.73l55.27,31.92ZM643.41,835.3a4.21,4.21,0,0,0,3-2.15c.86-1.49.73-3.2-.42-5.1q-1.37-2.17-8.66-6.38l-8-4.64c-.28-.08.24,2.54,1.56,7.88a14,14,0,0,0,4.07,7.21,12.38,12.38,0,0,0,2.59,2A8.24,8.24,0,0,0,643.41,835.3Z" transform="translate(0 0)"/>
    </g>
    <g class="gaFace">
      <path d="M758.22,802.47a36.42,36.42,0,0,0,5-14.71,21.35,21.35,0,0,0-11-16.85c-12-6.91-25.9-1.65-34.47,13.19a40.23,40.23,0,0,0-5.42,17.1c0,.61.1,1.21.18,1.81l8.48,4.9-2,3.49,5.67,3.28,10.08-17.45-3.51-2-2.09,3.62-10-5.8v-5c4.14-7.17,13.23-8.66,22-3.58,6.74,3.89,10.31,9.69,9.13,16.44a16.07,16.07,0,0,1-2.11,10.82l-10.91,2.18L736,816.06l9.75,5.63,1.76-3.05-1.33-.77v-5C749.7,812.18,755.09,807.89,758.22,802.47Z" transform="translate(0 0)"/>
      <path d="M644.71,784.25l-14,24.19,3.51,2,2.59-4.49,40.71,7,8.87-15.35L662,768.81v-5l.39-.68-4.13-2.39L652.39,771l4.13,2.39,2.45-4.24,6.95,7.83v5L659,793.85l-10.92-2.39v-5l.1-.18Zm20.74,5.89,4.79-8.29,10.14,11.51v5l-14.93-3.22Z" transform="translate(0 0)"/>
      <g>
        <polygon points="734.96 834.08 735.84 834.6 735.58 830.83 735.65 830.5 726.96 825.49 725.95 830.27 725.01 829.72 725.28 833.5 722.89 844.34 721.94 843.79 721.3 846.9 731.04 852.53 731.96 848.19 732.9 848.73 732.63 844.96 734.96 834.08"/>
        <polygon points="708.4 834.59 709.25 835.08 708.98 831.31 711.29 820.42 712.29 821 712.03 817.23 712.1 816.91 703.3 811.83 702.3 816.61 701.45 816.12 701.72 819.89 699.36 830.75 698.38 830.19 697.75 833.3 707.39 838.87 708.4 834.59"/>
      </g>
      <path d="M646.39,833.15v5a4.21,4.21,0,0,1-3,2.15,8.24,8.24,0,0,1-5.93-1.18,12.38,12.38,0,0,1-2.59-2,14,14,0,0,1-4.07-7.21L629.26,822l.17-3.15-2.94-1.69c.55,4.8,1.1,9.6,1.61,14.38.31,1.34.6,2.63.88,3.88a8.85,8.85,0,0,0,1.62,3.67,15.71,15.71,0,0,0,4.91,4.46,10.57,10.57,0,0,0,6.85,1.09,8.3,8.3,0,0,0,5.95-4,15.6,15.6,0,0,0,1.79-5.24c-.07-.49-.26-1.47-.26-1.47l.32-3.06-3.89-2.24A4.51,4.51,0,0,1,646.39,833.15Z" transform="translate(0 0)"/>
    </g>
    <g class="cdBottom">
      <path d="M577.82,983.38l.54-.94,9.73,5.62c.8,7.69-1.51,16-5.72,23.3-8.57,14.84-22.5,20.11-34.47,13.19-12.29-7.09-14.82-21.27-6.36-35.93,3.17-5.49,7.18-9,11.58-10.69l-3-1.73,3.93-6.8L567.2,977l-3.42,5.92-11.79.84c-4.57,7.92-1.65,17.26,7,22.27,9.1,5.25,17.15,3.41,20.93-3.14a15.65,15.65,0,0,0,2.09-5.77C575.73,993.48,575.16,988,577.82,983.38Z" transform="translate(0 0)"/>
      <path d="M619.64,981.68c8.21-14.21,21.22-18.17,32.82-11.48s14.65,19.85,6.44,34.07l-17.28,29.93-5.67-3.28,2.23-3.86L610.3,1011l-2.23,3.87-5.67-3.28Zm-.51,9.68,31.55,18.22.32-.56c4.11-7.11,1.51-14.85-9-20.89s-18.44-4.5-22.36,2.3Z" transform="translate(0 0)"/>
      <path d="M561.66,966.75l1-4.78-15.26-8.81,1.57-2.71,14.31,8.26,2.32-10.88-13.68-7.9,1.57-2.71,12.79,7.39.91-4.34,9.75,5.62-.9,4.35,13.8,8,1-4.28,9.65,5.56-.89,4.35,15.25,8.81-1.57,2.71L598.9,967l-2.36,10.86,13.9,8-1.57,2.71L596,981.18,595,986l-9.74-5.63,1-4.78-13.92-8-1,4.78Zm13.71-13.29L573,964.3l14,8.07,2.31-10.88Z" transform="translate(0 0)"/>
      <path d="M620.49,943.15,644.43,957l6,3.45a16.24,16.24,0,0,1,1.52-11.71,8.32,8.32,0,0,1,6-4.05,10.63,10.63,0,0,1,6.85,1.09,15.71,15.71,0,0,1,4.91,4.46,8.9,8.9,0,0,1,1.62,3.68c.28,1.24.57,2.53.88,3.87q1.05,9.84,2.2,19.73l-55.27-31.91ZM656.85,954a4.2,4.2,0,0,0-3,2.14q-1.3,2.25.42,5.11,1.37,2.16,8.66,6.37l8,4.64q.42.13-1.56-7.88a14.07,14.07,0,0,0-4.07-7.21,12.59,12.59,0,0,0-2.59-2A8.24,8.24,0,0,0,656.85,954Z" transform="translate(0 0)"/>
    </g>
    <g class="cdFace">
      <path d="M541.54,993.62a35.4,35.4,0,0,0-4.83,14.14,21.5,21.5,0,0,0,11.19,16.79c12,6.92,25.9,1.66,34.47-13.19a42.71,42.71,0,0,0,5.77-17.67c0-.21,0-.42,0-.63l-9.73-5.62-.54.94a12.14,12.14,0,0,0-1.13,2.64,10.9,10.9,0,0,0,5.34,6.1v5a15.65,15.65,0,0,1-2.09,5.77c-3.78,6.55-11.83,8.39-20.93,3.14-6.79-3.93-10-10.51-8.93-17A15.2,15.2,0,0,1,552,983.76l11.79-.84,1.26-2.17-11-6.35-1.76,3.05.83.48v5C548.72,984.63,544.71,988.13,541.54,993.62Z" transform="translate(0 0)"/>
      <path d="M641.62,1034.2l17.28-29.93a33.05,33.05,0,0,0,4.49-13c-.73-6.72-4.53-12.39-10.93-16.09-11.6-6.69-24.61-2.73-32.82,11.48l-15.08,26.12,3.51,2,2.23-3.87,27.88,16.1v5l-.07.11Zm-22.49-37.84v-5l.54-.93c3.92-6.8,12-8.32,22.36-2.3,8.57,4.94,11.86,11,10.53,17A12.21,12.21,0,0,1,651,1014l-.32.56Z" transform="translate(0 0)"/>
      <g>
        <polygon points="571.3 972.31 572.3 967.53 573.25 968.07 572.98 964.3 575.37 953.46 576.32 954.01 576.06 950.24 567.21 945.27 566.3 949.61 565.36 949.06 565.62 952.83 563.3 963.71 562.41 963.2 562.67 966.97 562.61 967.29 571.3 972.31"/>
        <polygon points="598.89 967.04 599.87 967.61 599.62 963.84 590.86 958.92 589.86 963.21 589.01 962.72 589.27 966.49 586.96 977.37 585.96 976.8 586.22 980.56 586.15 980.89 594.95 985.97 595.96 981.18 596.8 981.67 596.54 977.9 598.89 967.04"/>
      </g>
      <path d="M672.16,962.76c-.31-1.34-.6-2.63-.88-3.87a8.9,8.9,0,0,0-1.62-3.68,15.71,15.71,0,0,0-4.91-4.46,10.63,10.63,0,0,0-6.85-1.09,8.32,8.32,0,0,0-6,4.05,15.63,15.63,0,0,0-1.78,5.25c.07.48.15,1,.26,1.46l-.32,3.06,3.88,2.25.09-4.84a4.6,4.6,0,0,1-.2-4.71,4.2,4.2,0,0,1,3-2.14,8.24,8.24,0,0,1,5.93,1.18,12.59,12.59,0,0,1,2.59,2,14.07,14.07,0,0,1,4.07,7.21q2,8,1.56,7.88l-.17,3.15,2.93,1.7C673.22,972.35,672.67,967.54,672.16,962.76Z" transform="translate(0 0)"/>
    </g>
  </g>
  <g class="ga9_descend_new">
    <g class="base">
      <polygon points="1200 866.03 1100 923.76 1100 1039.23 1200 1096.97 1300 1039.23 1300 923.76 1200 866.03"/>
      <polygon points="1100 692.82 1000 750.56 1000 866.03 1100 923.76 1200 866.03 1200 750.56 1100 692.82"/>
    </g>
    <g class="bottom">
      <path class="leftNew" d="M1000,765.56V872.37a15,15,0,0,0,7.5,13l92.5,53.4v106.81a15,15,0,0,0,7.5,13l85,49.08a15,15,0,0,0,15,0l85-49.08a15,15,0,0,0,7.5-13V938.76Z" transform="translate(0 0)"/>
      <path class="rightNew" d="M1200,1109.65a15,15,0,0,0,7.5-2l85-49.08a15,15,0,0,0,7.5-13v-15l-100,64.08Z" transform="translate(0 0)"/>
    </g>
    <path class="edgeNew" d="M1192.5,746.23l-85-49.08a15,15,0,0,0-15,0l-85,49.08a15,15,0,0,0-7.5,13v98.15a15,15,0,0,0,7.5,13l92.5,53.4v106.81a15,15,0,0,0,7.5,13l85,49.08a15,15,0,0,0,15,0l85-49.08a15,15,0,0,0,7.5-13V932.42a15,15,0,0,0-7.5-13L1200,866V759.22A15,15,0,0,0,1192.5,746.23Z" transform="translate(0 0)"/>
    <path class="faceNew" d="M1188.5,748.54l-81-46.77a15,15,0,0,0-15,0l-81,46.77a15,15,0,0,0-7.5,13v93.53a15,15,0,0,0,7.5,13l92.5,53.4v106.81a15,15,0,0,0,7.5,13l81,46.77a15,15,0,0,0,15,0l81-46.77a15,15,0,0,0,7.5-13V934.73a15,15,0,0,0-7.5-13l-92.5-53.4V761.53A15,15,0,0,0,1188.5,748.54Z" transform="translate(0 0)"/>
    <g class="dotsBottom">
      <path d="M1117.77,912.6l9.37-5.41a1.88,1.88,0,0,0,0-3.25l-9.37-5.41a1.87,1.87,0,0,0-2.81,1.63V911A1.87,1.87,0,0,0,1117.77,912.6Z" transform="translate(0 0)"/>
      <path d="M1146.25,901.93l9.37-5.41a1.88,1.88,0,0,0,0-3.25l-9.37-5.41a1.87,1.87,0,0,0-2.81,1.63V900.3A1.87,1.87,0,0,0,1146.25,901.93Z" transform="translate(0 0)"/>
      <path d="M1174.73,891.26l9.37-5.41a1.88,1.88,0,0,0,0-3.25l-9.37-5.41a1.87,1.87,0,0,0-2.81,1.63v10.81A1.87,1.87,0,0,0,1174.73,891.26Z" transform="translate(0 0)"/>
    </g>
    <g class="dotsFace">
      <path d="M1117.77,912.6l7.86-4.53-7.86-4.54a1.87,1.87,0,0,0-2.81,1.63V911A1.87,1.87,0,0,0,1117.77,912.6Z" transform="translate(0 0)"/>
      <path d="M1146.25,901.93l7.86-4.53-7.86-4.54a1.87,1.87,0,0,0-2.81,1.63v5.81A1.87,1.87,0,0,0,1146.25,901.93Z" transform="translate(0 0)"/>
      <path d="M1174.73,891.26l7.86-4.53-7.86-4.54a1.87,1.87,0,0,0-2.81,1.63v5.81A1.87,1.87,0,0,0,1174.73,891.26Z" transform="translate(0 0)"/>
    </g>
    <path class="fBottom" d="M1136.7,962.43l24.56-14.19,5,8.61-8.89,20.59,10.87,18.83,27.31-15.76-8.71-15.09-10.1,5.83-4.83-8.36,28.81-16.63,4.82,8.36-9.72,5.61,8.71,15.09,21.82-12.6-4.53-7.85,11.34-6.56,30.17,52.26-11.35,6.55-4.46-7.73-55.74,32.18,4.46,7.73-11.35,6.55Z" transform="translate(0 0)"/>
    <polygon class="fFace" points="1161.26 953.24 1138.86 966.17 1184.86 1045.85 1194.05 1040.55 1191.75 1036.57 1191.75 1031.57 1247.49 999.39 1251.95 1007.12 1261.14 1001.82 1233.13 953.32 1223.95 958.62 1226.32 962.72 1226.32 967.72 1204.5 980.32 1195.79 965.23 1195.79 960.23 1203.35 955.87 1200.69 951.26 1174.05 966.64 1176.71 971.25 1186.81 965.42 1195.52 980.51 1195.52 985.51 1168.21 1001.27 1157.34 982.44 1157.34 977.44 1164.99 959.71 1161.26 953.24"/>
    <g class="gaBottom">
      <path d="M1127,770.61l3.49-2,3.93,6.79-11.91,6.88-3.42-5.92,3.56-10.54c-5.44-9-14.18-10-22.79-5-8.79,5.08-12.05,13.69-7.91,20.86l10-5.79-2.09-3.62,5.68-3.28,12.24,21.2-5.68,3.28-2-3.49-8.48,4.89c-7.64-3.15-13.88-9.19-18.09-16.49-8.57-14.84-6.16-29.54,5.81-36.45,12.29-7.09,26.16-1.63,34.66,13.08C1127.2,760.38,1128.22,767.19,1127,770.61Z" transform="translate(0 0)"/>
      <path d="M1055.81,822.13l-10.26,2.1,2.45,4.24-6.3,3.64-8.07-14,6.3-3.64,2.56,4.43,39.73-7.22L1092.8,830l-26.38,31.78,2.59,4.49-5.67,3.28-16.13-27.94,5.67-3.28,2.27,3.93,7.54-8.26Zm21.45-4.32-15,3,4.79,8.3Z" transform="translate(0 0)"/>
      <path d="M1133.68,785.48l3.63,3.26,15.25-8.8,1.57,2.71-14.31,8.26,8.26,7.45,13.68-7.9,1.57,2.72-12.8,7.38,3.3,3-9.74,5.63-3.32-2.95-13.79,8,3.2,3-9.64,5.57-3.32-3L1102,828.6l-1.57-2.71,14.41-8.32-8.23-7.47-13.9,8-1.57-2.72L1104,808l-3.64-3.26,9.74-5.63,3.63,3.27,13.92-8L1124,791Zm4.65,18.51-8.19-7.49-14,8.07,8.27,7.45Z" transform="translate(0 0)"/>
      <path d="M1122.71,844.76l-24,13.82-6,3.46a16.25,16.25,0,0,1,9.38,7.18,8.29,8.29,0,0,1,.53,7.17,10.63,10.63,0,0,1-4.37,5.4,16,16,0,0,1-6.32,2,8.74,8.74,0,0,1-4-.44l-3.8-1.17q-9-4-18.19-8l55.28-31.91Zm-27.62,26a4.21,4.21,0,0,0-.36-3.65q-1.31-2.25-4.63-2.19-2.56.1-9.86,4.31l-8,4.65c-.21.2,2.32,1.07,7.61,2.59a14,14,0,0,0,8.28.08,12.71,12.71,0,0,0,3-1.24A8.28,8.28,0,0,0,1095.09,870.8Z" transform="translate(0 0)"/>
    </g>
    <g class="gaFace">
      <path d="M1122.55,782.27l9.74-5.63-1.76-3-3.49,2a13,13,0,0,0,.39-5.22l-.39.22a7.05,7.05,0,0,0,.28-1.12,26.9,26.9,0,0,0-3.25-9.54c-8.5-14.71-22.37-20.17-34.66-13.08a21.14,21.14,0,0,0-10.79,16.71,36.58,36.58,0,0,0,5,14.74c4.21,7.29,10.45,13.34,18.09,16.5l8.48-4.9,2,3.49,3.51-2-10.07-17.45-3.59,1.9v5l-10,5.79a12.75,12.75,0,0,1-1.52-9c-1.26-6.17,2.22-12.72,9.43-16.88,8.61-5,17.35-4,22.79,5,0,0-.36,4.41,0,5l-2.5,7.38Z" transform="translate(0 0)"/>
      <path d="M1066.85,867.56l-.43-.74v-5l24.68-29.73-8.88-15.38-39.73,7.22-2.56-4.43-4.13,2.39,5.9,10.22,4.13-2.39-.28-.49v-5l10.26-2.1,6.88,11.91v5l-7.54,8.26-2.27-3.93-3.51,2,14,24.19Zm-4.63-41.72v-5l15-3v5L1067,834.14Z" transform="translate(0 0)"/>
      <g>
        <polygon points="1120.54 822.75 1130.18 817.18 1127.89 815.02 1124.43 817.02 1116.15 809.57 1117.09 805.41 1113.76 807.34 1110.13 804.07 1103.78 807.74 1104.03 807.96 1103.09 812.12 1106.58 810.1 1114.81 817.57 1113.88 821.73 1117.21 819.8 1120.54 822.75"/>
        <polygon points="1144.09 809.15 1153.83 803.52 1151.47 801.4 1148.08 803.36 1139.82 795.91 1140.75 791.75 1137.31 793.74 1133.68 790.48 1127.43 794.08 1127.68 794.3 1126.74 798.46 1130.14 796.5 1138.34 803.99 1137.41 808.14 1140.77 806.2 1144.09 809.15"/>
      </g>
      <g>
        <path d="M1094.61,862.73l-3.88,2.24a4.92,4.92,0,0,1,3.34,1.32Z" transform="translate(0 0)"/>
        <path d="M1088,883.37a8.74,8.74,0,0,0,4,.44,16,16,0,0,0,6.32-2,10.63,10.63,0,0,0,4.37-5.4c.07-.2.12-.39.17-.59a7.62,7.62,0,0,0-.7-1.58,15.8,15.8,0,0,0-7.07-6.27,4.11,4.11,0,0,1,0,2.85,6.9,6.9,0,0,1-.5,1.15,2.43,2.43,0,0,1,.14.2,4.21,4.21,0,0,1,.36,3.65,8.28,8.28,0,0,1-4,4.55,12.71,12.71,0,0,1-3,1.24,13.6,13.6,0,0,1-3.93.58l0,0Z" transform="translate(0 0)"/>
        <path d="M1074.15,877.79l-.26-3.09-2.94,1.7Z" transform="translate(0 0)"/>
      </g>
    </g>
  </g>
  <g class="fg4_horizon">
    <g class="base">
      <polygon points="1000 866.03 900 923.76 900 1039.23 1000 1096.97 1100 1039.23 1100 923.76 1000 866.03"/>
      <polygon points="800 866.03 700 923.76 700 1039.23 800 1096.97 900 1039.23 900 923.76 800 866.03"/>
    </g>
    <g class="bottom">
      <path class="left" d="M700,1030.57v15a15,15,0,0,0,7.5,13l85,49.07a15,15,0,0,0,15,0l92.5-53.4,92.49,53.41a15,15,0,0,0,15,0l85-49.08a15,15,0,0,0,7.51-13v-15Z" transform="translate(0 0)"/>
      <g class="right">
        <path d="M900,1039.23l-100,55.41v15a15,15,0,0,0,7.5-2l92.5-53.4v-15" transform="translate(0 0)"/>
        <path d="M1100,1045.57a15,15,0,0,1-7.51,13l-85,49.08a15,15,0,0,1-7.5,2v-15l100-64.08Z" transform="translate(0 0)"/>
      </g>
    </g>
    <path class="edge" d="M992.5,870.36,900,923.76l-92.5-53.4a15,15,0,0,0-15,0l-85,49.07a15,15,0,0,0-7.5,13v98.15a15,15,0,0,0,7.5,13l85,49.08a15,15,0,0,0,15,0l92.5-53.41,92.5,53.41a15,15,0,0,0,15,0l85-49.08a15,15,0,0,0,7.5-13V932.42a15,15,0,0,0-7.5-13l-85-49.07A15,15,0,0,0,992.5,870.36Z" transform="translate(0 0)"/>
    <path class="face" d="M992.5,875,900,928.38,807.5,875a15,15,0,0,0-15,0l-81,46.76a15,15,0,0,0-7.5,13v93.53a15,15,0,0,0,7.5,13l81,46.77a15,15,0,0,0,15,0l92.5-53.41L992.5,1088a15,15,0,0,0,15,0l81-46.77a15,15,0,0,0,7.5-13V934.73a15,15,0,0,0-7.5-13l-81-46.76A15,15,0,0,0,992.5,875Z" transform="translate(0 0)"/>
    <g class="dotsBottom">
      <path d="M884.53,952v9a1.57,1.57,0,0,0,2.35,1.36l7.8-4.51a1.56,1.56,0,0,0,0-2.71l-7.8-4.51A1.57,1.57,0,0,0,884.53,952Z" transform="translate(0 0)"/>
      <path d="M884.53,1002v9a1.57,1.57,0,0,0,2.35,1.36l7.8-4.51a1.56,1.56,0,0,0,0-2.71l-7.8-4.51A1.57,1.57,0,0,0,884.53,1002Z" transform="translate(0 0)"/>
      <path d="M904.53,952v9a1.57,1.57,0,0,0,2.35,1.36l7.8-4.51a1.56,1.56,0,0,0,0-2.71l-7.8-4.51A1.57,1.57,0,0,0,904.53,952Z" transform="translate(0 0)"/>
      <path d="M904.53,1002v9a1.57,1.57,0,0,0,2.35,1.36l7.8-4.51a1.56,1.56,0,0,0,0-2.71l-7.8-4.51A1.57,1.57,0,0,0,904.53,1002Z" transform="translate(0 0)"/>
    </g>
    <g class="dotsFace">
      <path d="M886.88,962.36,892.7,959l-5.82-3.37a1.57,1.57,0,0,0-2.35,1.36v4A1.57,1.57,0,0,0,886.88,962.36Z" transform="translate(0 0)"/>
      <path d="M886.88,1012.36l5.82-3.36-5.82-3.37a1.57,1.57,0,0,0-2.35,1.36v4A1.57,1.57,0,0,0,886.88,1012.36Z" transform="translate(0 0)"/>
      <path d="M906.88,962.36,912.7,959l-5.82-3.37a1.57,1.57,0,0,0-2.35,1.36v4A1.57,1.57,0,0,0,906.88,962.36Z" transform="translate(0 0)"/>
      <path d="M906.88,1012.36l5.82-3.36-5.82-3.37a1.57,1.57,0,0,0-2.35,1.36v4A1.57,1.57,0,0,0,906.88,1012.36Z" transform="translate(0 0)"/>
    </g>
    <g class="fgBottom">
      <path d="M820.1,1002.74v-4H828v13.75h-6.84l-7.35-8.35c-10.51.22-15.77,7.27-15.77,17.21,0,10.15,5.84,17.28,14.12,17.28V1027h-4.18v-6.55h24.48V1027h-4v9.79c-6.55,5-14.91,7.42-23.33,7.42-17.14,0-28.66-9.43-28.66-23.26,0-14.18,11.67-23.47,28.66-23.47C811.31,997.49,817.72,1000,820.1,1002.74Z" transform="translate(0 0)"/>
      <path d="M788.38,934.45v14.19h-5l-6.7-9H765.85V955.4h8.71v-5.83h4.82v16.64h-4.82v-5.62h-8.71v12.6h4.53v6.55H740.21v-6.55h4.47V941h-4.47v-6.55Z" transform="translate(0 0)"/>
      <path d="M793.05,940.6l4.65-1.51V921.47h3.13V938l10.58-3.43v-15.8h3.14v14.78l4.21-1.38v11.25l-4.21,1.4v15.92l4.21-1.26v11.13L814.55,972v17.6h-3.14V973l-10.58,3.39v16H797.7V977.52L793.05,979V967.79l4.65-1.51V950.21l-4.65,1.52Zm18.36,5.22-10.58,3.36v16.14l10.58-3.44Z" transform="translate(0 0)"/>
      <path d="M839.91,979.74v34.56a16.22,16.22,0,0,1,10.9-4.53,8.27,8.27,0,0,1,6.48,3.13,10.48,10.48,0,0,1,2.49,6.48,15.78,15.78,0,0,1-1.41,6.48,8.78,8.78,0,0,1-2.37,3.24l-2.92,2.7q-8,5.84-16,11.77V979.74Zm8.74,36.94a4.19,4.19,0,0,0-3.34-1.51q-2.59,0-4.22,2.91c-.79,1.51-1.18,5.08-1.18,10.69v9.29q.11.43,6-5.29a14,14,0,0,0,4.22-7.13,12.88,12.88,0,0,0,.43-3.24A8.22,8.22,0,0,0,848.65,1016.68Z" transform="translate(0 0)"/>
    </g>
    <g class="fgFace">
      <path d="M807.93,1027h4.18v16.59c-8.28,0-14.12-7.13-14.12-17.28,0-.87.06-1.7.14-2.53a24.68,24.68,0,0,1-.14-2.47c0-9.94,5.26-17,15.77-17.21l7.35,8.35H828v-8.75H820.1v4c-2.38-2.73-8.79-5.25-15.05-5.25-16,0-27.23,8.2-28.53,21,1.3,12.46,12.44,20.78,28.53,20.78,8.42,0,16.78-2.38,23.33-7.42V1027h4v-1.55H807.93Z" transform="translate(0 0)"/>
      <polygon points="740.21 941 744.68 941 744.68 946 744.68 973.19 744.68 978.19 740.21 978.19 740.21 979.74 770.38 979.74 770.38 978.19 765.85 978.19 765.85 973.19 765.85 965.59 765.85 960.59 774.56 960.59 774.56 965.59 774.56 966.21 779.38 966.21 779.38 954.57 774.56 954.57 774.56 955.4 774.56 960.4 765.85 960.4 765.85 955.4 765.85 944.63 765.85 939.63 776.72 939.63 783.42 948.64 788.38 948.64 788.38 939.45 740.21 939.45 740.21 941"/>
      <path d="M814.55,933.55v-9.78h-3.14v15.8L800.83,943V926.47H797.7v17.62l-4.65,1.51v6.13l4.65-1.52v21.07l-4.65,1.51V979l4.65-1.52v14.91h3.13v-16L811.41,973v16.63h3.14V972l4.21-1.41v-6.13l-4.21,1.26V944.82l4.21-1.4v-6.25l-4.21,1.38Zm-3.14,17.27v16.06l-10.58,3.44V949.18l10.58-3.36Z" transform="translate(0 0)"/>
      <path d="M856,1029.1a8.78,8.78,0,0,0,2.37-3.24,20.22,20.22,0,0,0,1.13-3.57,10.8,10.8,0,0,0-2.21-4.39,8.27,8.27,0,0,0-6.48-3.13,15.73,15.73,0,0,0-4.12.62,4.17,4.17,0,0,1,2,1.29,8.22,8.22,0,0,1,2,5.72,11.75,11.75,0,0,1-.29,2.49,10.48,10.48,0,0,1,.29,2.51,12.88,12.88,0,0,1-.43,3.24,13.74,13.74,0,0,1-2.35,5c1.76-1.28,3.51-2.59,5.26-3.87Z" transform="translate(0 0)"/>
      <path d="M839.91,1038.06v-9.29c0-5.25.35-8.69,1-10.35-.35.28-.7.57-1,.88V984.74H837.1v58.83l2.81-2.07Z" transform="translate(0 0)"/>
    </g>
    <g class="abBottom">
      <path d="M984.42,945.41c-11.23-.21-17.78-5.25-17.78-13,0-8.49,5.9-13.53,17.13-13.53,6.77,0,9.51,0,16.42.36h18.94v6.55h-4.47V958h4.47v6.55h-18.94c-7.49,0-8.78.36-13.68.36-8.64,0-13.75-3.53-13.75-10C972.76,949.3,977,945.56,984.42,945.41Zm9.07.72h-.36c-5.47,0-8.64,2.74-8.64,7.35,0,4.25,2.31,7,8.36,7h.64Zm0-4.24V923.31h-.86c-6.19,0-9.58,3.24-9.58,9.14s3.46,9.44,10.23,9.44Z" transform="translate(0 0)"/>
      <path d="M1045.5,1000.31l3.31-9.93h-4.9V983.1H1060v7.28h-5.11l-13.61,38h-21.17l-14.33-38.74h-5.18V983.1h32.26v6.56h-4.54l3.38,10.65Zm-7,20.74,4.9-14.54h-9.58Z" transform="translate(0 0)"/>
      <path d="M996.69,1022.25l-4.65,1.51v17.61h-3.13v-16.52l-10.58,3.42v15.8H975.2V1029.3l-4.22,1.38v-11.25l4.22-1.4V1002.1l-4.22,1.27V992.23l4.22-1.4V973.22h3.13v16.64l10.58-3.39V970.42H992v14.91l4.65-1.52v11.25L992,996.57v16.07l4.65-1.52ZM978.33,1017l10.58-3.35V997.52L978.33,1001Z" transform="translate(0 0)"/>
      <path d="M959.84,983.1V948.54a16.21,16.21,0,0,1-10.91,4.54,8.27,8.27,0,0,1-6.48-3.13,10.65,10.65,0,0,1-2.49-6.48,15.75,15.75,0,0,1,1.41-6.48,8.71,8.71,0,0,1,2.38-3.24l2.91-2.7q8-5.84,16-11.77V983.1Zm-8.75-36.93a4.19,4.19,0,0,0,3.35,1.51c1.72,0,3.13-1,4.21-2.92q1.19-2.26,1.19-10.69v-9.29q-.11-.42-6.05,5.3a14,14,0,0,0-4.21,7.12,12.45,12.45,0,0,0-.44,3.24A8.23,8.23,0,0,0,951.09,946.17Z" transform="translate(0 0)"/>
    </g>
    <g class="abFace">
      <g>
        <path d="M993.49,924v40.7c1.66-.07,3.67-.13,6.7-.13h18.94V963h-4.47V925.83h4.47v-1.55h-18.94C997.48,924.13,995.41,924.05,993.49,924Z" transform="translate(0 0)"/>
        <path d="M966.86,934.77c1.21,6.38,7.5,10.45,17.56,10.64v5c-6.27.13-10.27,2.83-11.35,7.06,1.21,4.85,6,7.46,13.44,7.46.85,0,1.59,0,2.28,0-3-1-4.3-3.3-4.3-6.42v-5a6.71,6.71,0,0,1,5.35-6.94c-4.5-1-6.79-4.16-6.79-9.09v-5c0-4.41,1.89-7.33,5.43-8.53h-4.71C973.78,923.92,968,927.91,966.86,934.77Z" transform="translate(0 0)"/>
      </g>
      <path d="M1043.91,990.38h4.9v5l-3.31,9.93h-13.76l-3.38-10.65v-5h4.54V988.1h-32.26v1.56h5.18l14.33,38.74h21.17l13.61-38H1060V988.1h-16.13Zm-.5,21.13-4.9,14.54-4.68-14.54v-5h9.58Z" transform="translate(0 0)"/>
      <path d="M992,985.33v-9.91h-3.13v16.05l-10.58,3.39V978.22H975.2v17.61l-4.22,1.4v6.14l4.22-1.27V1023l-4.22,1.4v6.25l4.22-1.38v14.77h3.13v-15.8l10.58-3.42v16.52H992v-17.61l4.65-1.51v-6.13l-4.65,1.52V996.57l4.65-1.51v-6.25L992,990.33Zm-3.13,17.19v16.15L978.33,1022v-21l10.58-3.45Z" transform="translate(0 0)"/>
      <g>
        <path d="M943.75,938.75a8.71,8.71,0,0,0-2.38,3.24,21,21,0,0,0-1.13,3.56,10.83,10.83,0,0,0,2.21,4.4,8.27,8.27,0,0,0,6.48,3.13,15.68,15.68,0,0,0,4.12-.63,4.12,4.12,0,0,1-2-1.28,8.23,8.23,0,0,1-2-5.73v-5a12.45,12.45,0,0,1,.44-3.24,13.63,13.63,0,0,1,2.34-5c-1.75,1.29-3.51,2.6-5.26,3.88Z" transform="translate(0 0)"/>
        <path d="M959.84,929.78v9.29c0,5.26-.35,8.69-1.05,10.35.35-.28.7-.56,1.05-.88V983.1h2.8V924.28l-2.8,2.06Z" transform="translate(0 0)"/>
      </g>
    </g>
  </g>
  <path class="outlineSecondShadow" d="M1225,847.93V749.78a15,15,0,0,0-7.5-13l-85-49.07a15,15,0,0,1-7.5-13V576.58a15,15,0,0,0-7.5-13l-110-63.5a15,15,0,0,0-15,0l-110,63.5a15,15,0,0,0-7.5,13v127a15,15,0,0,0,7.5,13l85,49.08a15,15,0,0,1,7.5,13V876.8a15,15,0,0,0,7.5,13l85,49.07a15,15,0,0,1,7.5,13V1050a15,15,0,0,0,7.5,13l110,63.5a15,15,0,0,0,15,0l110-63.5a15,15,0,0,0,7.5-13V923a15,15,0,0,0-7.5-13l-85-49.08A15,15,0,0,1,1225,847.93Z" transform="translate(0 0)"/>
  <path class="outlineFirstShadow" d="M1192.5,860.92l-85,49.08a15,15,0,0,1-15,0l-85-49.08a15,15,0,0,0-15,0L907.5,910a15,15,0,0,1-15,0l-85-49.08a15,15,0,0,0-15,0L707.5,910a15,15,0,0,1-15,0l-85-49.08a15,15,0,0,0-15,0L495,917.21a15,15,0,0,0-7.5,13v112.58a15,15,0,0,0,7.5,13l97.5,56.29a15,15,0,0,0,15,0l85-49.07a15,15,0,0,1,15,0l85,49.07a15,15,0,0,0,15,0l85-49.07a15,15,0,0,1,15,0l85,49.07a15,15,0,0,0,15,0l85-49.07a15,15,0,0,1,15,0l85,49.07a15,15,0,0,0,15,0l97.5-56.29a15,15,0,0,0,7.5-13V930.21a15,15,0,0,0-7.5-13l-97.5-56.29A15,15,0,0,0,1192.5,860.92Z" transform="translate(0 0)"/>
  <path class="outlineSecond" d="M1225,842.93V744.78a15,15,0,0,0-7.5-13l-85-49.07a15,15,0,0,1-7.5-13V571.58a15,15,0,0,0-7.5-13l-110-63.5a15,15,0,0,0-15,0l-110,63.5a15,15,0,0,0-7.5,13v127a15,15,0,0,0,7.5,13l85,49.08a15,15,0,0,1,7.5,13V871.8a15,15,0,0,0,7.5,13l85,49.07a15,15,0,0,1,7.5,13V1045a15,15,0,0,0,7.5,13l110,63.5a15,15,0,0,0,15,0l110-63.5a15,15,0,0,0,7.5-13V918a15,15,0,0,0-7.5-13l-85-49.08A15,15,0,0,1,1225,842.93Z" transform="translate(0 0)"/>
  <path class="outlineFirst" d="M1192.5,855.92l-85,49.08a15,15,0,0,1-15,0l-85-49.08a15,15,0,0,0-15,0L907.5,905a15,15,0,0,1-15,0l-85-49.08a15,15,0,0,0-15,0L707.5,905a15,15,0,0,1-15,0l-85-49.08a15,15,0,0,0-15,0L495,912.21a15,15,0,0,0-7.5,13v112.58a15,15,0,0,0,7.5,13l97.5,56.29a15,15,0,0,0,15,0l85-49.07a15,15,0,0,1,15,0l85,49.07a15,15,0,0,0,15,0l85-49.07a15,15,0,0,1,15,0l85,49.07a15,15,0,0,0,15,0l85-49.07a15,15,0,0,1,15,0l85,49.07a15,15,0,0,0,15,0l97.5-56.29a15,15,0,0,0,7.5-13V925.21a15,15,0,0,0-7.5-13l-97.5-56.29A15,15,0,0,0,1192.5,855.92Z" transform="translate(0 0)"/>
  <g class="textSecondShadow">
    <path d="M889.71,492.43a80,80,0,0,1-10.83-.5l-1-53.76q1.43-.17,9-.17a46.7,46.7,0,0,1,12.35,1.35,26.33,26.33,0,0,1,8.73,4.28q8.23,6.14,8.23,20.83,0,13.11-7.18,20.54T889.71,492.43Zm18.65-27.09q0-12.13-5.71-17t-17.14-4.91l.42,43.34q9.33,0,15.54-4.45Q908.37,477.49,908.36,465.34Z" transform="translate(0 0)"/>
    <path d="M933.69,433.67q10.86,0,10.86,13.68,0,6.78-3.42,11.1a11,11,0,0,1-9,4.32q-5.61,0-8.52-3.75t-2.91-10a18.38,18.38,0,0,1,1.38-7,14.33,14.33,0,0,1,4.47-5.85A11.18,11.18,0,0,1,933.69,433.67Zm-8.28,14.4a14.19,14.19,0,0,0,1.8,7.32,5.61,5.61,0,0,0,5.07,3.06,6.14,6.14,0,0,0,5.22-2.67q1.95-2.67,2-7.59,0-10.32-6.18-10.32a6.62,6.62,0,0,0-5.85,3A12.6,12.6,0,0,0,925.41,448.07Z" transform="translate(0 0)"/>
  </g>
  <g class="textSecond">
    <path d="M889.71,487.43a80,80,0,0,1-10.83-.5l-1-53.76q1.43-.17,9-.17a46.7,46.7,0,0,1,12.35,1.35,26.33,26.33,0,0,1,8.73,4.28q8.23,6.14,8.23,20.83,0,13.11-7.18,20.54T889.71,487.43Zm18.65-27.09q0-12.13-5.71-17t-17.14-4.91l.42,43.34q9.33,0,15.54-4.45Q908.37,472.49,908.36,460.34Z" transform="translate(0 0)"/>
    <path d="M933.69,428.67q10.86,0,10.86,13.68,0,6.78-3.42,11.1a11,11,0,0,1-9,4.32q-5.61,0-8.52-3.75t-2.91-10a18.38,18.38,0,0,1,1.38-7,14.33,14.33,0,0,1,4.47-5.85A11.18,11.18,0,0,1,933.69,428.67Zm-8.28,14.4a14.19,14.19,0,0,0,1.8,7.32,5.61,5.61,0,0,0,5.07,3.06,6.14,6.14,0,0,0,5.22-2.67q1.95-2.67,2-7.59,0-10.32-6.18-10.32a6.62,6.62,0,0,0-5.85,3A12.6,12.6,0,0,0,925.41,443.07Z" transform="translate(0 0)"/>
  </g>
  <g class="textFirstShadow">
    <path d="M252.86,1011.71l-7.39.09.67-53.6,25.11-.75v7l-17.89-.5v17l14.37-.58-.34,7.47-14.28-.17Z" transform="translate(0 0)"/>
    <path d="M275.28,970.1l4.52-1.18V955.23h3v12.85l10.28-2.67V953.13h3.05v11.48l4.09-1.07v8.75l-4.09,1.09v12.38l4.09-1v8.66l-4.09,1.09v13.69h-3.05V995.28l-10.28,2.63v12.48h-3V998.8l-4.52,1.18v-8.75l4.52-1.17V977.57l-4.52,1.18Zm17.84,4.06-10.28,2.61v12.55l10.28-2.68Z" transform="translate(0 0)"/>
    <path d="M333.5,1012.38l.34-17q0-17.31-4.87-17.31-3.45,0-7.4,3.66a18.46,18.46,0,0,0-5.37,9.11q-.93,3.52-.93,12.68l.34,8.32-7.48.5q.17-20.58.17-25.36l-.5-14.37,5.88-.5,1.93,8.31H316c.22-.22.51-.54.88-1a25.61,25.61,0,0,1,2.27-2.14,37.31,37.31,0,0,1,3.4-2.69q4.62-3.1,8.52-3.11a7.41,7.41,0,0,1,5.93,2.35,15.67,15.67,0,0,1,3,6.72l.42.17q7.39-9.24,16.72-9.24a6.72,6.72,0,0,1,6.21,3.78q2.1,3.78,2.1,10.25V994q0,13.86.25,18.14l-7.3.51q.33-16.14.33-23.86,0-10-4.45-10t-8.95,5.13q-4.49,5.12-4.49,9.91l-.17,18.06Z" transform="translate(0 0)"/>
    <path d="M376,1009.4a12.3,12.3,0,0,1,.46-17.6,13.77,13.77,0,0,1,9.33-3.44,13.15,13.15,0,0,1,9.16,3.44v-3.19q0-5.21-2.06-8.1a6.07,6.07,0,0,0-5.08-2.9,9.74,9.74,0,0,0-5.25,1.38,21,21,0,0,0-4.67,4.25L374.07,979q5.71-7.4,14.37-7.39,13.6,0,13.6,15.37t.09,25.12h-6l-.25-3.7-.25-.17a10,10,0,0,1-4.33,3.07,15.83,15.83,0,0,1-6.42,1.39A12.64,12.64,0,0,1,376,1009.4Zm19-9.2a5.62,5.62,0,0,0-2.52-4.7,10.13,10.13,0,0,0-5.88-1.68,7.26,7.26,0,0,0-5.38,1.93,6.3,6.3,0,0,0-1.93,4.62,6.37,6.37,0,0,0,2,4.66,7.33,7.33,0,0,0,5.42,2,9.72,9.72,0,0,0,5.84-1.72A6.08,6.08,0,0,0,395,1000.2Z" transform="translate(0 0)"/>
    <path d="M409.1,977.44l.42-5.63,11.84-.17q.18,23.61.17,28.4,0,29.82-18.39,29.82a24,24,0,0,1-10.08-2.27l3-7a16.67,16.67,0,0,0,8,2.43,8.45,8.45,0,0,0,7.85-4.91q2.65-4.92,2.73-13.32,0-17.64-.33-27.38Zm12.14-11.84a4.86,4.86,0,0,1-3.74,1.51,5.65,5.65,0,0,1-3.65-1.05,3.67,3.67,0,0,1-1.31-3,4.69,4.69,0,0,1,1.6-3.48,5.83,5.83,0,0,1,4.2-1.51c2.86,0,4.28,1.26,4.28,3.78A5.4,5.4,0,0,1,421.24,965.6Z" transform="translate(0 0)"/>
    <path d="M451.28,947.46l-18.66.66-.18-5.1,12.78.06c3.92,0,7.2,0,9.84-.12l.78,3.3q-2.28,5.64-8.1,17.73T439.1,983.1l-5-2.82Z" transform="translate(0 0)"/>
  </g>
  <g class="textFirst">
    <path d="M252.86,1006.71l-7.39.09.67-53.6,25.11-.75v7l-17.89-.5v17l14.37-.58-.34,7.47-14.28-.17Z" transform="translate(0 0)"/>
    <path d="M275.28,965.1l4.52-1.18V950.23h3v12.85l10.28-2.67V948.13h3.05v11.48l4.09-1.07v8.75l-4.09,1.09v12.38l4.09-1v8.66l-4.09,1.09v13.69h-3.05V990.28l-10.28,2.63v12.48h-3V993.8L275.28,995v-8.75l4.52-1.17V972.57l-4.52,1.18Zm17.84,4.06-10.28,2.61v12.55l10.28-2.68Z" transform="translate(0 0)"/>
    <path d="M333.5,1007.38l.34-17q0-17.31-4.87-17.31-3.45,0-7.4,3.66a18.46,18.46,0,0,0-5.37,9.11q-.93,3.52-.93,12.68l.34,8.32-7.48.5q.17-20.58.17-25.36l-.5-14.37,5.88-.5,1.93,8.31H316c.22-.22.51-.54.88-1a25.61,25.61,0,0,1,2.27-2.14,37.31,37.31,0,0,1,3.4-2.69q4.62-3.1,8.52-3.11a7.41,7.41,0,0,1,5.93,2.35,15.67,15.67,0,0,1,3,6.72l.42.17q7.39-9.24,16.72-9.24a6.72,6.72,0,0,1,6.21,3.78q2.1,3.78,2.1,10.25V989q0,13.86.25,18.14l-7.3.51q.33-16.14.33-23.86,0-10-4.45-10t-8.95,5.13q-4.49,5.12-4.49,9.91l-.17,18.06Z" transform="translate(0 0)"/>
    <path d="M376,1004.4a12.3,12.3,0,0,1,.46-17.6,13.77,13.77,0,0,1,9.33-3.44,13.15,13.15,0,0,1,9.16,3.44v-3.19q0-5.21-2.06-8.1a6.07,6.07,0,0,0-5.08-2.9,9.74,9.74,0,0,0-5.25,1.38,21,21,0,0,0-4.67,4.25L374.07,974q5.71-7.4,14.37-7.39,13.6,0,13.6,15.37t.09,25.12h-6l-.25-3.7-.25-.17a10,10,0,0,1-4.33,3.07,15.83,15.83,0,0,1-6.42,1.39A12.64,12.64,0,0,1,376,1004.4Zm19-9.2a5.62,5.62,0,0,0-2.52-4.7,10.13,10.13,0,0,0-5.88-1.68,7.26,7.26,0,0,0-5.38,1.93,6.3,6.3,0,0,0-1.93,4.62,6.37,6.37,0,0,0,2,4.66,7.33,7.33,0,0,0,5.42,2,9.72,9.72,0,0,0,5.84-1.72A6.08,6.08,0,0,0,395,995.2Z" transform="translate(0 0)"/>
    <path d="M409.1,972.44l.42-5.63,11.84-.17q.18,23.61.17,28.4,0,29.82-18.39,29.82a24,24,0,0,1-10.08-2.27l3-7a16.67,16.67,0,0,0,8,2.43,8.45,8.45,0,0,0,7.85-4.91q2.65-4.92,2.73-13.32,0-17.64-.33-27.38Zm12.14-11.84a4.86,4.86,0,0,1-3.74,1.51,5.65,5.65,0,0,1-3.65-1.05,3.67,3.67,0,0,1-1.31-3,4.69,4.69,0,0,1,1.6-3.48,5.83,5.83,0,0,1,4.2-1.51c2.86,0,4.28,1.26,4.28,3.78A5.4,5.4,0,0,1,421.24,960.6Z" transform="translate(0 0)"/>
    <path d="M451.28,942.46l-18.66.66-.18-5.1,12.78.06c3.92,0,7.2,0,9.84-.12l.78,3.3q-2.28,5.64-8.1,17.73T439.1,978.1l-5-2.82Z" transform="translate(0 0)"/>
  </g>
</svg>
