<svg viewBox="0 0 1400 1270.17">
  <rect class="background" width="1400" height="1270.17"/>
  <g class="de9_ascend">
    <g class="bottom">
      <path class="right" d="M700,245.94,400,419.15V526a15,15,0,0,0,7.5,13l85,49.07a15,15,0,0,0,15,0l85-49.07A15,15,0,0,0,600,526V419.15h0l92.49-53.41a15,15,0,0,0,7.5-13Z"/>
      <path class="left" d="M400,511v15a15,15,0,0,0,7.5,13l85,49.07a15,15,0,0,0,7.5,2V575Z"/>
    </g>
    <path class="edge" d="M592.49,177.54l-85,49.07a15,15,0,0,0-7.5,13V346.41l-92.5,53.41a15,15,0,0,0-7.49,13V511a15,15,0,0,0,7.49,13l85,49.07a15,15,0,0,0,15,0l85-49.07a15,15,0,0,0,7.5-13V404.15l92.49-53.41a15,15,0,0,0,7.5-13V239.6a15,15,0,0,0-7.5-13l-85-49.07A15,15,0,0,0,592.49,177.54Z"/>
    <path class="face" d="M592.49,182.16l-81,46.76a15,15,0,0,0-7.5,13v106.8L411.5,402.13a15,15,0,0,0-7.5,13v93.53a15,15,0,0,0,7.5,13l81,46.76a15,15,0,0,0,15,0l81-46.76a15,15,0,0,0,7.51-13V401.84l92.49-53.4a15,15,0,0,0,7.5-13V241.92a15,15,0,0,0-7.5-13l-81-46.76A15,15,0,0,0,592.49,182.16Z"/>
    <g class="dotsBottom">
      <path d="M579.1,393l-9.37-5.41a1.88,1.88,0,0,0-2.82,1.62V400a1.88,1.88,0,0,0,2.82,1.63l9.37-5.41A1.88,1.88,0,0,0,579.1,393Z"/>
      <path d="M555.62,373.66l-9.37-5.41a1.88,1.88,0,0,0-2.82,1.62v10.82a1.88,1.88,0,0,0,2.82,1.63l9.37-5.41A1.88,1.88,0,0,0,555.62,373.66Z"/>
      <path d="M532.13,354.33l-9.36-5.41a1.88,1.88,0,0,0-2.82,1.62v10.82a1.88,1.88,0,0,0,2.82,1.63l9.36-5.41A1.87,1.87,0,0,0,532.13,354.33Z"/>
    </g>
    <g class="dotsFace">
      <path d="M569.73,401.65l7.85-4.54-7.85-4.53a1.88,1.88,0,0,0-2.82,1.62V400A1.88,1.88,0,0,0,569.73,401.65Z"/>
      <path d="M546.25,382.32l7.85-4.54-7.85-4.53a1.88,1.88,0,0,0-2.82,1.62v5.82A1.88,1.88,0,0,0,546.25,382.32Z"/>
      <path d="M522.77,363l7.85-4.54-7.85-4.53a1.88,1.88,0,0,0-2.82,1.62v5.82A1.88,1.88,0,0,0,522.77,363Z"/>
    </g>
    <path class="cBottom" d="M565.81,326.14,564.73,328l-19.46-11.23c-1.59-15.38,3-32,11.45-46.6,17.13-29.68,45-40.2,68.93-26.38,24.57,14.19,29.64,42.55,12.72,71.86-6.34,11-14.37,18-23.15,21.38l6,3.46-7.85,13.59L587,338.9l6.84-11.85,23.59-1.68c9.14-15.84,3.29-34.51-14-44.52-18.21-10.51-34.3-6.83-41.86,6.26a31.44,31.44,0,0,0-4.18,11.56C570,305.94,571.14,316.91,565.81,326.14Z"/>
    <path class="cFace" d="M619,344.25,615.22,342v-5c8.78-3.41,16.81-10.41,23.15-21.38,6.13-10.61,9.36-21.1,9.83-30.83-.76-15-8.42-27.87-22.55-36-23.94-13.82-51.8-3.3-68.93,26.38-6.84,11.84-11.16,25-11.7,37.78.05,1.28.12,2.55.25,3.82L564.73,328l1.08-1.87a22.18,22.18,0,0,0,2.82-7.89c-.8-5.38-4.25-10.55-11.24-14.58v-5a31.33,31.33,0,0,1,4.18-11.55c7.56-13.1,23.65-16.78,41.86-6.27,12.71,7.34,19.24,19.34,18.21,31.47a30.6,30.6,0,0,1-4.17,18.05l-23.59,1.68-4.67,8.1,24.14,13.94Z"/>
    <g class="deBottom">
      <path d="M447.38,459.58c8.2-14.22,21.22-18.18,32.82-11.49s14.65,19.85,6.44,34.07l-17.29,29.93-5.67-3.28,2.23-3.86L438,488.86l-2.23,3.86-5.68-3.27Zm-.52,9.67,31.55,18.22.33-.56c4.1-7.11,1.5-14.85-9-20.89s-18.45-4.5-22.37,2.3Z"/>
      <path d="M529.71,444.63,542,451.72,539.51,456l-11.15,1.3-5.43,9.41,12.41,7.17,3.49-6.05-4.43-2.56,2.41-4.18,13.54,7.82-2.42,4.17-4.61-2.66-3.49,6.05,13.34,7.7,6.88-11.91c-5.74-3.31-7.93-8.15-4.94-13.33l.54-.93,14,8.06L544.84,509l-5.67-3.27,2.23-3.87-27.87-16.09-2.23,3.87-5.68-3.28Z"/>
      <path d="M467.89,436.34l1-4.77-15.25-8.81,1.56-2.71,14.31,8.26,2.33-10.88-13.68-7.9,1.56-2.71,12.8,7.38.91-4.33,9.74,5.62-.89,4.35,13.79,8,1-4.28,9.64,5.57-.89,4.35,15.25,8.8L519.52,445l-14.4-8.32-2.36,10.86,13.9,8-1.56,2.71-12.92-7.46-1,4.78-9.75-5.62,1-4.78-13.92-8-1,4.78Zm13.7-13.28-2.38,10.84,14,8.07,2.31-10.88Z"/>
      <path d="M518.21,427.47l23.95,13.82,6,3.46A16.31,16.31,0,0,1,549.67,433a8.3,8.3,0,0,1,6-4,10.66,10.66,0,0,1,6.86,1.09,15.8,15.8,0,0,1,4.9,4.46,8.65,8.65,0,0,1,1.62,3.68c.28,1.24.58,2.53.88,3.87q1.07,9.84,2.21,19.73L516.81,429.9Zm36.36,10.89a4.2,4.2,0,0,0-3,2.14q-1.29,2.25.42,5.11,1.37,2.16,8.67,6.37l8,4.65q.42.12-1.56-7.89a14,14,0,0,0-4.07-7.21,12.33,12.33,0,0,0-2.59-2A8.23,8.23,0,0,0,554.57,438.36Z"/>
    </g>
    <g class="deFace">
      <path d="M469.35,512.09l17.29-29.93a33.05,33.05,0,0,0,4.49-13c-.74-6.72-4.53-12.39-10.93-16.09-11.6-6.69-24.62-2.73-32.82,11.49L432.3,490.69l3.51,2,2.23-3.87L465.91,505v5l-.06.11Zm-22.49-37.84v-5l.54-.93c3.92-6.8,12-8.32,22.37-2.3,8.57,4.94,11.86,11,10.53,17a12.21,12.21,0,0,1-1.56,8.93l-.33.56Z"/>
      <g>
        <path d="M544.84,509l22.61-39.15L555.65,463l-.54.93a10,10,0,0,0-.91,2c.82,2.41,2.84,4.57,5.85,6.3v5l-6.88,11.91-13.34-7.7v-5l3.49-6.05,4.61,2.66.25-.42-11.37-6.57-.24.43,2.26,1.31v5l-3.49,6.05-12.41-7.17v-5l5.43-9.41,11.15-1.3.32-.56-10.12-5.84-21.92,38,3.51,2,2.23-3.87,27.87,16.09v5l-.06.12Z"/>
        <polygon points="537.13 461.3 536.81 461.12 536.68 461.36 537.13 461.3"/>
      </g>
      <g>
        <polygon points="505.12 436.64 506.1 437.2 505.84 433.44 497.09 428.52 496.08 432.8 495.24 432.32 495.5 436.08 493.19 446.97 492.19 446.39 492.45 450.16 492.38 450.48 501.18 455.56 502.18 450.78 503.03 451.27 502.76 447.5 505.12 436.64"/>
        <polygon points="477.53 441.91 478.53 437.13 479.48 437.67 479.21 433.9 481.59 423.06 482.54 423.6 482.29 419.84 473.44 414.87 472.52 419.2 471.59 418.66 471.85 422.43 469.52 433.31 468.64 432.8 468.9 436.57 468.83 436.89 477.53 441.91"/>
      </g>
      <path d="M569.88,447.08c-.3-1.34-.6-2.63-.88-3.87a8.65,8.65,0,0,0-1.62-3.68,15.8,15.8,0,0,0-4.9-4.46,10.66,10.66,0,0,0-6.86-1.09,8.3,8.3,0,0,0-6,4,15.65,15.65,0,0,0-1.79,5.25c.07.48.16,1,.26,1.47l-.31,3.05,3.88,2.25.09-4.84a4.61,4.61,0,0,1-.21-4.71,4.2,4.2,0,0,1,3-2.14,8.23,8.23,0,0,1,5.93,1.18,12.33,12.33,0,0,1,2.59,2,14,14,0,0,1,4.07,7.21q2,8,1.56,7.88l-.17,3.15,2.94,1.7C570.94,456.67,570.4,451.86,569.88,447.08Z"/>
    </g>
  </g>
  <g class="g4_horizon">
    <g class="bottom">
      <path class="left" d="M300,684.17v15a15,15,0,0,0,7.5,13l85,49.07a15,15,0,0,0,15,0l92.5-53.4,92.49,53.4a15,15,0,0,0,15,0l85-49.07a15,15,0,0,0,7.51-13v-15Z"/>
      <g class="right">
        <path d="M500,692.83,400,748.24v15a15,15,0,0,0,7.5-2l92.5-53.4v-15"/>
        <path d="M700,699.17a15,15,0,0,1-7.51,13l-85,49.07a15,15,0,0,1-7.5,2v-15l100-64.07Z"/>
      </g>
    </g>
    <path class="edge" d="M592.49,524,500,577.36,407.49,524a15,15,0,0,0-15,0l-85,49.08a15,15,0,0,0-7.5,13v98.15a15,15,0,0,0,7.5,13l85,49.07a15,15,0,0,0,15,0l92.5-53.4,92.5,53.4a15,15,0,0,0,15,0l85-49.07a15,15,0,0,0,7.5-13V586a15,15,0,0,0-7.5-13l-85-49.08A15,15,0,0,0,592.49,524Z"/>
    <path class="face" d="M592.49,528.57,500,582l-92.5-53.41a15,15,0,0,0-15,0l-81,46.77a15,15,0,0,0-7.5,13v93.53a15,15,0,0,0,7.5,13l81,46.76a15,15,0,0,0,15,0l92.5-53.4,92.5,53.4a15,15,0,0,0,15,0l81-46.76a15,15,0,0,0,7.5-13V588.33a15,15,0,0,0-7.5-13l-81-46.77A15,15,0,0,0,592.49,528.57Z"/>
    <g class="dotsBottom">
      <path d="M484.52,605.58v9a1.57,1.57,0,0,0,2.35,1.35l7.81-4.5a1.57,1.57,0,0,0,0-2.71l-7.81-4.51A1.57,1.57,0,0,0,484.52,605.58Z"/>
      <path d="M484.52,655.58v9a1.57,1.57,0,0,0,2.35,1.35l7.81-4.5a1.57,1.57,0,0,0,0-2.71l-7.81-4.51A1.57,1.57,0,0,0,484.52,655.58Z"/>
      <path d="M504.52,605.58v9a1.57,1.57,0,0,0,2.35,1.35l7.81-4.5a1.57,1.57,0,0,0,0-2.71l-7.81-4.51A1.57,1.57,0,0,0,504.52,605.58Z"/>
      <path d="M504.52,655.58v9a1.57,1.57,0,0,0,2.35,1.35l7.81-4.5a1.57,1.57,0,0,0,0-2.71l-7.81-4.51A1.57,1.57,0,0,0,504.52,655.58Z"/>
    </g>
    <g class="dotsFace">
      <path d="M486.87,616l5.82-3.36-5.82-3.36a1.57,1.57,0,0,0-2.35,1.35v4A1.57,1.57,0,0,0,486.87,616Z"/>
      <path d="M486.87,666l5.82-3.36-5.82-3.36a1.57,1.57,0,0,0-2.35,1.35v4A1.57,1.57,0,0,0,486.87,666Z"/>
      <path d="M506.87,616l5.82-3.36-5.82-3.36a1.57,1.57,0,0,0-2.35,1.35v4A1.57,1.57,0,0,0,506.87,616Z"/>
      <path d="M506.87,666l5.82-3.36-5.82-3.36a1.57,1.57,0,0,0-2.35,1.35v4A1.57,1.57,0,0,0,506.87,666Z"/>
    </g>
    <path class="gBottom" d="M431.38,598.87v-8.06h15.7v27.5H433.4l-14.69-16.7c-21,.43-31.53,14.54-31.53,34.42,0,20.3,11.66,34.55,28.22,34.55V647.4h-8.35V634.3h49v13.1h-8.07V667c-13.1,10.08-29.8,14.84-46.65,14.84C367,681.82,344,663,344,635.31c0-28.37,23.32-46.95,57.31-46.95C413.82,588.36,426.63,593.4,431.38,598.87Z"/>
    <path class="gFace" d="M407.05,647.4h8.35v28.18c-16.56,0-28.22-14.25-28.22-34.55,0-.86,0-1.7.06-2.54s-.06-1.63-.06-2.46c0-19.88,10.51-34,31.53-34.42l14.69,16.7h13.68v-22.5h-15.7v8.06c-4.75-5.47-17.56-10.51-30.09-10.51-33,0-55.91,17.48-57.25,44.43,1.34,26.29,24,44,57.25,44,16.85,0,33.55-4.76,46.65-14.84V647.4H456v-8.1h-49Z"/>
    <path class="bBottom" d="M583.07,642.07c-22.46-.43-35.56-10.51-35.56-25.92,0-17,11.8-27.07,34.27-27.07,13.53,0,19,0,32.83.72h37.87v13.1h-8.93v64.37h8.93v13.1H614.61c-15,0-17.57.72-27.36.72-17.28,0-27.5-7.05-27.5-20C559.75,649.85,568.24,642.36,583.07,642.07Zm18.15,1.44h-.72c-11,0-17.28,5.47-17.28,14.69,0,8.49,4.61,14,16.7,14h1.3Zm0-8.49V597.86h-1.73c-12.38,0-19.15,6.48-19.15,18.29,0,12.1,6.91,18.87,20.45,18.87Z"/>
    <path class="bFace" d="M581.78,594.08c-21.25,0-33,9-34.16,24.38,1.25,14.1,14.13,23.2,35.45,23.61v5c-13.74.27-22,6.72-23.17,16.61,1.3,11.3,11.26,17.41,27.35,17.41,9.79,0,12.38-.72,27.36-.72h37.87v-8.1h-8.93V602.9h8.93v-8.1H614.61C600.79,594.08,595.31,594.08,581.78,594.08Zm19.44,54.43v28.66h-1.3c-12.09,0-16.7-5.48-16.7-14a18.44,18.44,0,0,1,.17-2.4,19.81,19.81,0,0,1-.17-2.6c0-9.22,6.33-14.69,17.28-14.69h.72Zm0-45.65V640h-.43c-13.54,0-20.45-6.77-20.45-18.87a24.82,24.82,0,0,1,.12-2.48q-.12-1.21-.12-2.52c0-11.81,6.77-18.29,19.15-18.29h1.73Z"/>
  </g>
  <g class="e10_horizon">
    <g class="bottom">
      <path class="left" d="M700,684.16v15a15,15,0,0,0,7.5,13l85,49.08a15,15,0,0,0,15,0L900,707.82l92.5,53.41a15,15,0,0,0,15,0l85-49.07a15,15,0,0,0,7.5-13v-15Z"/>
      <g class="right">
        <path d="M900,692.82,800,748.24v15a15,15,0,0,0,7.5-2L900,707.82v-15"/>
        <path d="M1100,699.16a15,15,0,0,1-7.5,13l-85,49.07a15,15,0,0,1-7.5,2v-15l100-64.07Z"/>
      </g>
    </g>
    <path class="edge" d="M992.49,524,900,577.35,807.49,524a15,15,0,0,0-15,0l-85,49.07a15,15,0,0,0-7.5,13v98.15a15,15,0,0,0,7.5,13l85,49.08a15,15,0,0,0,15,0l92.5-53.4,92.5,53.4a15,15,0,0,0,15,0l85-49.08a15,15,0,0,0,7.5-13V586a15,15,0,0,0-7.5-13l-85-49.08A15,15,0,0,0,992.49,524Z"/>
    <path class="face" d="M992.49,528.57,900,582l-92.5-53.4a15,15,0,0,0-15,0l-81,46.76a15,15,0,0,0-7.5,13v93.53a15,15,0,0,0,7.5,13l81,46.76a15,15,0,0,0,15,0l92.5-53.4,92.5,53.4a15,15,0,0,0,15,0l81-46.76a15,15,0,0,0,7.5-13V588.33a15,15,0,0,0-7.5-13l-81-46.76A15,15,0,0,0,992.49,528.57Z"/>
    <g class="dotsBottom">
      <path d="M902.87,666.59v-13a2.25,2.25,0,0,0-3.37-2l-11.26,6.51a2.24,2.24,0,0,0,0,3.89l11.26,6.5A2.25,2.25,0,0,0,902.87,666.59Z"/>
      <path d="M912.87,616.59v-13a2.25,2.25,0,0,0-3.37-2l-11.26,6.51a2.24,2.24,0,0,0,0,3.89l11.26,6.5A2.25,2.25,0,0,0,912.87,616.59Z"/>
    </g>
    <g class="dotsFace">
      <path d="M899.5,656.64l-10.3,6,10.3,5.95a2.25,2.25,0,0,0,3.37-1.95v-8A2.25,2.25,0,0,0,899.5,656.64Z"/>
      <path d="M909.5,606.64l-10.3,6,10.3,5.95a2.25,2.25,0,0,0,3.37-1.95v-8A2.25,2.25,0,0,0,909.5,606.64Z"/>
    </g>
    <path class="eBottom" d="M846.79,589.8v28.37h-9.94l-13.39-18H801.72v28.66h14V618.6h9.65v31.25h-9.65V639.19h-14V670h27.5c0-13.25,6.19-21.89,18.15-21.89h2.16v32.26H750.46V667.27h8.92V602.91h-8.92V589.8Z"/>
    <path class="eFace" d="M829.22,675h-27.5V639.19h14v10.66h9.65V623.6h-9.65v10.23h-14V600.17h21.74l13.39,18h9.94V594.8H750.46v8.11h8.92v69.36h-8.92v8.11h99.07V653.12h-2.16C835.41,653.12,829.22,661.76,829.22,675Z"/>
    <path class="dBottom" d="M991.86,680.38c-32.83,0-52.71-18.58-52.71-45.36s19.73-45.22,52.56-45.22h69.12v13.11h-8.93v64.36h8.93v13.11Zm17.28-8.79V598.73h-1.3c-16.41,0-27.21,12.24-27.21,36.43s10.65,36.43,26.35,36.43Z"/>
    <path class="dFace" d="M939.21,637.51c1.2,25.44,20.85,42.87,52.65,42.87h69v-8.11h-8.93V602.91h8.93V594.8H991.71C959.91,594.8,940.41,612.09,939.21,637.51Zm69.93-38.78v77.86H1007c-15.7,0-26.35-12.38-26.35-36.43,0-.85,0-1.68,0-2.5s0-1.65,0-2.5c0-24.19,10.8-36.43,27.21-36.43Z"/>
  </g>
  <g class="cd7_ascend">
    <g class="bottom">
      <path class="right" d="M800,765.56,500,938.76v106.81a15,15,0,0,0,7.5,13l85,49.08a15,15,0,0,0,15,0l85-49.08a15,15,0,0,0,7.5-13V938.76h0l92.5-53.4a15,15,0,0,0,7.5-13Z"/>
      <path class="left" d="M500,1030.57v15a15,15,0,0,0,7.5,13l85,49.08a15,15,0,0,0,7.5,2v-15Z"/>
    </g>
    <path class="edge" d="M692.49,697.15l-85,49.08a15,15,0,0,0-7.5,13V866l-92.5,53.4a15,15,0,0,0-7.5,13v98.15a15,15,0,0,0,7.5,13l85,49.08a15,15,0,0,0,15,0l85-49.08a15,15,0,0,0,7.5-13V923.76l92.5-53.4a15,15,0,0,0,7.5-13V759.22a15,15,0,0,0-7.5-13l-85-49.08A15,15,0,0,0,692.49,697.15Z"/>
    <path class="face" d="M692.49,701.77l-81,46.77a15,15,0,0,0-7.5,13V868.34l-92.49,53.4a15,15,0,0,0-7.51,13v93.53a15,15,0,0,0,7.51,13l81,46.77a15,15,0,0,0,15,0l81-46.76a15,15,0,0,0,7.5-13V921.45l92.5-53.4a15,15,0,0,0,7.5-13V761.53a15,15,0,0,0-7.5-13l-81-46.77A15,15,0,0,0,692.49,701.77Z"/>
    <g class="dotsBottom">
      <path d="M685.66,899.88l-7.81-4.5a1.56,1.56,0,0,0-2.35,1.35v9a1.57,1.57,0,0,0,2.35,1.35l7.81-4.51A1.57,1.57,0,0,0,685.66,899.88Z"/>
      <path d="M633.7,869.88l-7.81-4.5a1.56,1.56,0,0,0-2.35,1.35v9a1.57,1.57,0,0,0,2.35,1.35l7.81-4.51A1.57,1.57,0,0,0,633.7,869.88Z"/>
      <path d="M675.66,917.2l-7.81-4.5a1.56,1.56,0,0,0-2.35,1.35v9a1.57,1.57,0,0,0,2.35,1.35l7.81-4.51A1.57,1.57,0,0,0,675.66,917.2Z"/>
      <path d="M654.68,893.54l-7.81-4.5a1.56,1.56,0,0,0-2.35,1.35v9a1.57,1.57,0,0,0,2.35,1.35l7.81-4.51A1.57,1.57,0,0,0,654.68,893.54Z"/>
      <path d="M623.7,887.2l-7.81-4.5a1.56,1.56,0,0,0-2.35,1.35v9a1.57,1.57,0,0,0,2.35,1.35l7.81-4.51A1.57,1.57,0,0,0,623.7,887.2Z"/>
    </g>
    <g class="dotsFace">
      <path d="M677.85,907.1l5.82-3.36-5.82-3.36a1.56,1.56,0,0,0-2.35,1.35v4A1.57,1.57,0,0,0,677.85,907.1Z"/>
      <path d="M625.89,877.1l5.82-3.36-5.82-3.36a1.56,1.56,0,0,0-2.35,1.35v4A1.57,1.57,0,0,0,625.89,877.1Z"/>
      <path d="M667.85,924.42l5.82-3.36-5.82-3.36a1.56,1.56,0,0,0-2.35,1.35v4A1.57,1.57,0,0,0,667.85,924.42Z"/>
      <path d="M646.87,900.76l5.82-3.36L646.87,894a1.56,1.56,0,0,0-2.35,1.35v4A1.57,1.57,0,0,0,646.87,900.76Z"/>
      <path d="M615.89,894.42l5.82-3.36-5.82-3.36a1.56,1.56,0,0,0-2.35,1.35v4A1.57,1.57,0,0,0,615.89,894.42Z"/>
    </g>
    <g class="gaBottom">
      <path d="M746.14,812.88l3.49,2-3.92,6.8-11.91-6.88,3.42-5.92,10.9-2.19c5.07-9.21,1.59-17.29-7-22.26-8.8-5.07-17.89-3.59-22,3.58l10,5.8,2.09-3.62,5.68,3.28-12.25,21.2L719,811.41l2-3.5L712.5,803c-1.08-8.2,1-16.62,5.25-23.92,8.56-14.84,22.49-20.1,34.47-13.18,12.28,7.09,14.49,21.83,6,36.55C755.09,807.9,749.7,812.19,746.14,812.88Z"/>
      <path d="M665.91,777,659,769.11l-2.45,4.24-6.3-3.64,8.07-14,6.3,3.63L662,763.81l26.12,30.8-10.58,18.33-40.72-7-2.59,4.49-5.67-3.28,16.13-27.93,5.67,3.27-2.27,3.93,10.92,2.4Zm14.47,16.42-10.15-11.52-4.79,8.3Z"/>
      <path d="M736.59,826.05l-1,4.78,15.25,8.81-1.57,2.71L735,834.09,732.63,845l13.68,7.9-1.57,2.71L732,848.19l-.91,4.34-9.74-5.62.89-4.35-13.79-8-1,4.28-9.65-5.57.89-4.35-15.24-8.8,1.56-2.72,14.41,8.32,2.35-10.86-13.9-8,1.57-2.71,12.91,7.46,1-4.78,9.74,5.62-1,4.78,13.92,8,1-4.78Zm-13.71,13.29,2.39-10.84-14-8.07L709,831.31Z"/>
      <path d="M679.76,846.19l-23.94-13.82-6-3.46a16.26,16.26,0,0,1-1.52,11.72,8.28,8.28,0,0,1-6,4,10.5,10.5,0,0,1-6.85-1.09,15.78,15.78,0,0,1-4.91-4.45,8.9,8.9,0,0,1-1.62-3.68c-.28-1.24-.57-2.53-.88-3.88q-1.05-9.83-2.2-19.72l55.28,31.91ZM643.4,835.3a4.2,4.2,0,0,0,3-2.14q1.3-2.25-.42-5.11-1.37-2.16-8.66-6.37l-8-4.65q-.43-.12,1.55,7.89a14.07,14.07,0,0,0,4.07,7.21,12.59,12.59,0,0,0,2.59,2A8.24,8.24,0,0,0,643.4,835.3Z"/>
    </g>
    <g class="gaFace">
      <path d="M758.22,802.47a36.55,36.55,0,0,0,5-14.7,21.34,21.34,0,0,0-11-16.85c-12-6.92-25.91-1.66-34.47,13.18a40.33,40.33,0,0,0-5.43,17.1c0,.61.1,1.21.18,1.82l8.49,4.89-2,3.5,5.67,3.27,10.08-17.45-3.51-2-2.09,3.62-10-5.8v-5c4.14-7.17,13.23-8.65,22-3.58,6.73,3.89,10.31,9.69,9.12,16.45a16,16,0,0,1-2.11,10.81l-10.9,2.19L736,816.06l9.75,5.63,1.76-3.05-1.33-.76v-5C749.7,812.19,755.09,807.9,758.22,802.47Z"/>
      <path d="M644.71,784.26l-14,24.18,3.51,2,2.59-4.49,40.72,7,8.86-15.36L662,768.81v-5l.39-.68-4.13-2.38L652.38,771l4.13,2.39,2.45-4.24,6.95,7.84v5L659,793.86l-10.92-2.4v-5l.11-.18Zm20.73,5.89,4.79-8.3,10.15,11.51v5l-14.94-3.21Z"/>
      <g>
        <polygon points="734.95 834.09 735.84 834.6 735.58 830.83 735.64 830.51 726.95 825.49 725.95 830.27 725 829.73 725.27 833.5 722.88 844.34 721.93 843.79 721.29 846.91 731.04 852.53 731.95 848.19 732.89 848.74 732.63 844.97 734.95 834.09"/>
        <polygon points="708.4 834.6 709.24 835.08 708.98 831.31 711.29 820.43 712.29 821 712.03 817.24 712.1 816.91 703.3 811.84 702.29 816.62 701.45 816.13 701.71 819.9 699.36 830.76 698.38 830.2 697.74 833.31 707.39 838.88 708.4 834.6"/>
      </g>
      <path d="M646.38,833.16v5a4.2,4.2,0,0,1-3,2.14,8.24,8.24,0,0,1-5.93-1.18,12.59,12.59,0,0,1-2.59-2,14.07,14.07,0,0,1-4.07-7.21L629.26,822l.16-3.14-2.93-1.7c.54,4.8,1.09,9.6,1.6,14.38.31,1.35.6,2.64.88,3.88a8.9,8.9,0,0,0,1.62,3.68,15.78,15.78,0,0,0,4.91,4.45,10.5,10.5,0,0,0,6.85,1.09,8.28,8.28,0,0,0,6-4,15.48,15.48,0,0,0,1.78-5.25c-.07-.48-.26-1.47-.26-1.47l.32-3.06-3.88-2.24A4.55,4.55,0,0,1,646.38,833.16Z"/>
    </g>
    <g class="cdBottom">
      <path d="M577.82,983.38l.54-.93,9.72,5.61c.8,7.7-1.51,16-5.72,23.31-8.57,14.84-22.5,20.1-34.47,13.19-12.28-7.1-14.82-21.28-6.36-35.93,3.17-5.49,7.19-9,11.58-10.7l-3-1.73,3.92-6.79L567.2,977l-3.42,5.93-11.8.84c-4.57,7.92-1.64,17.26,7,22.26,9.11,5.26,17.15,3.42,20.93-3.13a15.51,15.51,0,0,0,2.09-5.78C575.73,993.48,575.15,988,577.82,983.38Z"/>
      <path d="M619.63,981.69c8.21-14.22,21.23-18.18,32.82-11.48s14.65,19.84,6.44,34.06l-17.28,29.93-5.67-3.27,2.23-3.87L610.3,1011l-2.24,3.87-5.67-3.28Zm-.51,9.68,31.55,18.22.33-.57c4.1-7.1,1.5-14.84-9-20.89s-18.44-4.49-22.36,2.3Z"/>
      <path d="M561.66,966.75l1-4.78-15.25-8.8,1.56-2.72,14.31,8.27,2.33-10.88-13.68-7.9,1.56-2.71,12.79,7.38.92-4.34L577,945.9l-.9,4.35,13.8,8,1-4.28,9.64,5.57-.89,4.35,15.25,8.8-1.57,2.71-14.4-8.31-2.36,10.86,13.9,8-1.56,2.71L596,981.19,595,986l-9.75-5.63,1-4.77-13.92-8-1,4.79Zm13.7-13.29L573,964.31l14,8.07,2.31-10.89Z"/>
      <path d="M620.48,943.15,644.43,957l6,3.46a16.26,16.26,0,0,1,1.53-11.72,8.26,8.26,0,0,1,5.95-4,10.5,10.5,0,0,1,6.85,1.09,15.67,15.67,0,0,1,4.91,4.45,8.71,8.71,0,0,1,1.62,3.68c.28,1.24.57,2.54.88,3.88q1.05,9.84,2.2,19.73l-55.27-31.92ZM656.84,954a4.23,4.23,0,0,0-3,2.14q-1.29,2.25.42,5.11,1.37,2.16,8.66,6.37l8,4.65q.42.12-1.56-7.88a14,14,0,0,0-4.07-7.22,12.68,12.68,0,0,0-2.59-2A8.24,8.24,0,0,0,656.84,954Z"/>
    </g>
    <g class="cdFace">
      <path d="M541.53,993.62a35.36,35.36,0,0,0-4.82,14.15,21.49,21.49,0,0,0,11.18,16.79c12,6.91,25.9,1.65,34.47-13.19a42.57,42.57,0,0,0,5.77-17.67c0-.21,0-.43,0-.64l-9.72-5.61-.54.93a11.91,11.91,0,0,0-1.14,2.64,10.83,10.83,0,0,0,5.34,6.1v5a15.51,15.51,0,0,1-2.09,5.78c-3.78,6.55-11.82,8.39-20.93,3.13-6.79-3.92-10-10.51-8.93-17A15.25,15.25,0,0,1,552,983.77l11.8-.84,1.25-2.18-11-6.34-1.76,3,.83.48v5C548.72,984.64,544.7,988.14,541.53,993.62Z"/>
      <path d="M641.61,1034.21l17.28-29.94a33.08,33.08,0,0,0,4.5-13c-.74-6.72-4.53-12.39-10.94-16.08-11.59-6.7-24.61-2.74-32.82,11.48l-15.08,26.12,3.51,2,2.24-3.87,27.87,16.09v5l-.07.12Zm-22.49-37.84v-5l.54-.94c3.92-6.79,12-8.31,22.36-2.3,8.58,5,11.87,11,10.54,17A12.24,12.24,0,0,1,651,1014l-.33.57Z"/>
      <g>
        <polygon points="571.29 972.32 572.3 967.53 573.24 968.08 572.97 964.31 575.36 953.46 576.31 954.01 576.05 950.25 567.21 945.27 566.29 949.61 565.35 949.07 565.62 952.84 563.29 963.72 562.41 963.21 562.67 966.97 562.6 967.29 571.29 972.32"/>
        <polygon points="598.89 967.05 599.87 967.61 599.61 963.85 590.86 958.93 589.85 963.21 589.01 962.72 589.27 966.49 586.96 977.38 585.96 976.8 586.22 980.57 586.15 980.89 594.95 985.97 595.95 981.19 596.8 981.68 596.53 977.9 598.89 967.05"/>
      </g>
      <path d="M672.15,962.77c-.31-1.34-.6-2.64-.88-3.88a8.71,8.71,0,0,0-1.62-3.68,15.67,15.67,0,0,0-4.91-4.45,10.5,10.5,0,0,0-6.85-1.09,8.26,8.26,0,0,0-5.95,4,15.72,15.72,0,0,0-1.79,5.25c.07.49.15,1,.26,1.47l-.32,3.06,3.89,2.24.09-4.83a4.63,4.63,0,0,1-.21-4.72,4.23,4.23,0,0,1,3-2.14,8.24,8.24,0,0,1,5.93,1.18,12.68,12.68,0,0,1,2.59,2,14,14,0,0,1,4.07,7.22q2,8,1.56,7.88l-.17,3.15,2.94,1.69C673.21,972.35,672.66,967.55,672.15,962.77Z"/>
    </g>
  </g>
  <g class="fg4_horizon_new">
    <g class="bottom">
      <path class="leftNew" d="M700,1030.57v15a15,15,0,0,0,7.5,13l85,49.07a15,15,0,0,0,15,0l92.5-53.4,92.5,53.4a15,15,0,0,0,15,0l85-49.07a15,15,0,0,0,7.5-13v-15Z"/>
      <g class="rightNew">
        <path d="M900,1039.24l-100,55.41v15a15,15,0,0,0,7.5-2l92.5-53.4v-15"/>
        <path d="M1100,1045.57a15,15,0,0,1-7.5,13l-85,49.07a15,15,0,0,1-7.5,2v-15l100-64.07Z"/>
      </g>
    </g>
    <path class="edgeNew" d="M992.49,870.36,900,923.77l-92.5-53.41a15,15,0,0,0-15,0l-85,49.08a15,15,0,0,0-7.5,13v98.15a15,15,0,0,0,7.5,13l85,49.07a15,15,0,0,0,15,0l92.5-53.4,92.5,53.4a15,15,0,0,0,15,0l85-49.07a15,15,0,0,0,7.5-13V932.43a15,15,0,0,0-7.5-13l-85-49.08A15,15,0,0,0,992.49,870.36Z"/>
    <path class="faceNew" d="M992.49,875,900,928.38,807.49,875a15,15,0,0,0-15,0l-81,46.76a15,15,0,0,0-7.5,13v93.52a15,15,0,0,0,7.5,13l81,46.76a15,15,0,0,0,15,0l92.5-53.4,92.5,53.4a15,15,0,0,0,15,0l81-46.76a15,15,0,0,0,7.5-13V934.74a15,15,0,0,0-7.5-13l-81-46.77A15,15,0,0,0,992.49,875Z"/>
    <g class="dotsBottom">
      <path d="M884.52,952v9a1.56,1.56,0,0,0,2.35,1.35l7.81-4.5a1.57,1.57,0,0,0,0-2.71l-7.81-4.51A1.57,1.57,0,0,0,884.52,952Z"/>
      <path d="M884.52,1002v9a1.56,1.56,0,0,0,2.35,1.35l7.81-4.5a1.57,1.57,0,0,0,0-2.71l-7.81-4.51A1.57,1.57,0,0,0,884.52,1002Z"/>
      <path d="M904.52,952v9a1.56,1.56,0,0,0,2.35,1.35l7.81-4.5a1.57,1.57,0,0,0,0-2.71l-7.81-4.51A1.57,1.57,0,0,0,904.52,952Z"/>
      <path d="M904.52,1002v9a1.56,1.56,0,0,0,2.35,1.35l7.81-4.5a1.57,1.57,0,0,0,0-2.71l-7.81-4.51A1.57,1.57,0,0,0,904.52,1002Z"/>
    </g>
    <g class="dotsFace">
      <path d="M886.87,962.36l5.82-3.36-5.82-3.36a1.57,1.57,0,0,0-2.35,1.35v4A1.56,1.56,0,0,0,886.87,962.36Z"/>
      <path d="M886.87,1012.36l5.82-3.36-5.82-3.36a1.57,1.57,0,0,0-2.35,1.35v4A1.56,1.56,0,0,0,886.87,1012.36Z"/>
      <path d="M906.87,962.36l5.82-3.36-5.82-3.36a1.57,1.57,0,0,0-2.35,1.35v4A1.56,1.56,0,0,0,906.87,962.36Z"/>
      <path d="M906.87,1012.36l5.82-3.36-5.82-3.36a1.57,1.57,0,0,0-2.35,1.35v4A1.56,1.56,0,0,0,906.87,1012.36Z"/>
    </g>
    <g class="fgBottom">
      <path d="M820.09,1002.75v-4h7.85v13.76H821.1l-7.35-8.35c-10.51.21-15.76,7.27-15.76,17.21,0,10.15,5.83,17.28,14.11,17.28V1027h-4.18v-6.55h24.49V1027h-4v9.8c-6.55,5-14.9,7.41-23.33,7.41-17.13,0-28.66-9.43-28.66-23.26,0-14.18,11.67-23.47,28.66-23.47C811.31,997.49,817.72,1000,820.09,1002.75Z"/>
      <path d="M788.38,934.45v14.19h-5l-6.7-9H765.84v15.77h8.71v-5.83h4.83v16.63h-4.83v-5.62h-8.71v12.6h4.54v6.56H740.2v-6.56h4.47V941H740.2v-6.56Z"/>
      <path d="M793.05,940.6l4.64-1.51V921.48h3.13V938l10.59-3.42v-15.8h3.13v14.77l4.21-1.38v11.25l-4.21,1.4v15.93l4.21-1.27v11.14l-4.21,1.4v17.61h-3.13V973l-10.59,3.39v16h-3.13V977.52L793.05,979V967.79l4.64-1.51V950.21l-4.64,1.52Zm18.36,5.23-10.59,3.35v16.15l10.59-3.44Z"/>
      <path d="M839.9,979.75v34.56a16.24,16.24,0,0,1,10.91-4.54,8.3,8.3,0,0,1,6.48,3.13,10.57,10.57,0,0,1,2.48,6.48,15.85,15.85,0,0,1-1.4,6.48,8.83,8.83,0,0,1-2.38,3.24l-2.92,2.7q-8,5.84-16,11.78V979.75Zm8.75,36.93a4.24,4.24,0,0,0-3.35-1.51q-2.59,0-4.21,2.92c-.8,1.51-1.19,5.07-1.19,10.69v9.29q.11.42,6.05-5.3a14,14,0,0,0,4.21-7.12,12.44,12.44,0,0,0,.43-3.24A8.27,8.27,0,0,0,848.65,1016.68Z"/>
    </g>
    <g class="fgFace">
      <path d="M807.92,1027h4.18v16.6c-8.28,0-14.11-7.13-14.11-17.28,0-.87,0-1.71.13-2.53-.08-.81-.13-1.63-.13-2.47,0-9.94,5.25-17,15.76-17.21l7.35,8.35h6.84v-8.76h-7.85v4c-2.37-2.74-8.78-5.26-15.05-5.26-16,0-27.22,8.2-28.53,21,1.3,12.47,12.44,20.78,28.53,20.78,8.43,0,16.78-2.37,23.33-7.41V1027h4v-1.55H807.92Z"/>
      <polygon points="740.21 941.01 744.67 941.01 744.67 946.01 744.67 973.19 744.67 978.19 740.21 978.19 740.21 979.75 770.38 979.75 770.38 978.19 765.84 978.19 765.84 973.19 765.84 965.59 765.84 960.59 774.55 960.59 774.55 965.59 774.55 966.21 779.38 966.21 779.38 954.58 774.55 954.58 774.55 955.41 774.55 960.41 765.84 960.41 765.84 955.41 765.84 944.64 765.84 939.64 776.71 939.64 783.41 948.64 788.38 948.64 788.38 939.45 740.21 939.45 740.21 941.01"/>
      <path d="M814.54,933.55v-9.77h-3.13v15.8L800.82,943V926.48h-3.13v17.61l-4.64,1.51v6.13l4.64-1.52v21.07l-4.64,1.51V979l4.64-1.52v14.91h3.13v-16L811.41,973v16.64h3.13V972l4.21-1.4v-6.14l-4.21,1.27V944.82l4.21-1.4v-6.25l-4.21,1.38Zm-3.13,17.28v16.06l-10.59,3.44V949.18l10.59-3.35Z"/>
      <path d="M856,1029.1a8.83,8.83,0,0,0,2.38-3.24,20,20,0,0,0,1.12-3.56,10.94,10.94,0,0,0-2.2-4.4,8.3,8.3,0,0,0-6.48-3.13,15.75,15.75,0,0,0-4.13.63,4.1,4.1,0,0,1,2,1.28,8.27,8.27,0,0,1,1.94,5.73,12.42,12.42,0,0,1-.28,2.49,10.43,10.43,0,0,1,.28,2.51,12.44,12.44,0,0,1-.43,3.24,13.79,13.79,0,0,1-2.34,5c1.75-1.29,3.5-2.6,5.25-3.88Z"/>
      <path d="M839.9,1038.07v-9.29c0-5.26.35-8.69,1-10.35-.35.28-.7.56-1,.88V984.75h-2.81v58.83l2.81-2.07Z"/>
    </g>
    <g class="abBottom">
      <path d="M984.41,945.42c-11.23-.22-17.78-5.26-17.78-13,0-8.5,5.9-13.54,17.14-13.54,6.76,0,9.5,0,16.41.36h18.94v6.55h-4.46V958h4.46v6.55h-18.94c-7.49,0-8.78.36-13.68.36-8.64,0-13.75-3.53-13.75-10C972.75,949.31,977,945.56,984.41,945.42Zm9.08.72h-.36c-5.48,0-8.64,2.73-8.64,7.34,0,4.25,2.3,7,8.35,7h.65Zm0-4.25V923.31h-.87c-6.19,0-9.57,3.24-9.57,9.15s3.45,9.43,10.22,9.43Z"/>
      <path d="M1045.49,1000.32l3.31-9.94h-4.89v-7.27H1060v7.27h-5.12l-13.61,38h-21.17l-14.33-38.74h-5.18v-6.55h32.26v6.55h-4.54l3.39,10.66Zm-7,20.74,4.89-14.55h-9.57Z"/>
      <path d="M996.68,1022.25l-4.64,1.51v17.62h-3.13v-16.53l-10.59,3.43v15.8h-3.13v-14.77l-4.21,1.37v-11.25l4.21-1.39v-15.93l-4.21,1.26V992.24l4.21-1.41v-17.6h3.13v16.63l10.59-3.39V970.42H992v14.91l4.64-1.52v11.25L992,996.57v16.08l4.64-1.53ZM978.32,1017l10.59-3.36V997.53L978.32,1001Z"/>
      <path d="M959.83,983.11V948.55a16.25,16.25,0,0,1-10.91,4.53,8.27,8.27,0,0,1-6.48-3.13,10.53,10.53,0,0,1-2.48-6.48,15.75,15.75,0,0,1,1.4-6.48,8.79,8.79,0,0,1,2.38-3.24c.93-.86,1.91-1.76,2.91-2.7q8-5.84,16-11.77v63.83Zm-8.75-36.94a4.21,4.21,0,0,0,3.35,1.51q2.6,0,4.21-2.91c.8-1.51,1.19-5.08,1.19-10.69v-9.29q-.11-.43-6.05,5.29a14,14,0,0,0-4.21,7.13,12.44,12.44,0,0,0-.43,3.24A8.26,8.26,0,0,0,951.08,946.17Z"/>
    </g>
    <g class="abFace">
      <g>
        <path d="M993.49,924v40.7c1.65-.07,3.66-.13,6.69-.13h18.94V963h-4.46V925.83h4.46v-1.55h-18.94C997.47,924.14,995.41,924.05,993.49,924Z"/>
        <path d="M966.86,934.77c1.2,6.38,7.49,10.45,17.55,10.65v5c-6.27.12-10.27,2.83-11.35,7.06,1.21,4.84,6,7.45,13.44,7.45.86,0,1.6,0,2.28,0-3-1-4.29-3.3-4.29-6.42v-5a6.71,6.71,0,0,1,5.35-6.94c-4.5-1-6.79-4.16-6.79-9.08v-5c0-4.41,1.89-7.34,5.42-8.53h-4.7C973.78,923.92,968,927.91,966.86,934.77Z"/>
      </g>
      <path d="M1043.91,990.38h4.89v5l-3.31,9.94h-13.75l-3.39-10.66v-5h4.54v-1.55h-32.26v1.55h5.18l14.33,38.74h21.17l13.61-38H1060v-2.27h-16.13Zm-.51,21.13-4.89,14.55-4.68-14.55v-5h9.57Z"/>
      <path d="M992,985.33v-9.91h-3.13v16.05l-10.59,3.39V978.23h-3.13v17.6L971,997.24v6.13l4.21-1.26V1023l-4.21,1.39v6.25l4.21-1.37v14.77h3.13v-15.8l10.59-3.43v16.53H992v-17.62l4.64-1.51v-6.13l-4.64,1.53V996.57l4.64-1.51v-6.25L992,990.33Zm-3.13,17.2v16.14L978.32,1022V1001l10.59-3.44Z"/>
      <g>
        <path d="M943.74,938.75a8.71,8.71,0,0,0-2.38,3.24,20.39,20.39,0,0,0-1.12,3.57,10.9,10.9,0,0,0,2.2,4.39,8.27,8.27,0,0,0,6.48,3.13,15.61,15.61,0,0,0,4.12-.62,4.14,4.14,0,0,1-2-1.29,8.26,8.26,0,0,1-1.94-5.72v-5a12.44,12.44,0,0,1,.43-3.24,13.72,13.72,0,0,1,2.34-5c-1.75,1.29-3.5,2.59-5.26,3.87C945.65,937,944.67,937.89,943.74,938.75Z"/>
        <path d="M959.83,929.79v9.29c0,5.25-.35,8.69-1.05,10.35.36-.28.71-.57,1.05-.88v34.56h2.81V924.28l-2.81,2.07Z"/>
      </g>
    </g>
  </g>
  <path class="outlineSecondShadow" d="M985,850.82l-70,40.42a30,30,0,0,1-30,0l-70-40.42a30,30,0,0,0-30,0l-70,40.42a30,30,0,0,1-30,0l-70-40.42a30,30,0,0,0-30,0l-95,54.85a30,30,0,0,0-15,26v109.7a30,30,0,0,0,15,26l95,54.85a30,30,0,0,0,30,0l70-40.42a30,30,0,0,1,30,0l70,40.42a30,30,0,0,0,30,0l70-40.42a30,30,0,0,1,30,0l70,40.42a30,30,0,0,0,30,0l95-54.85a30,30,0,0,0,15-26V931.65a30,30,0,0,0-15-26l-95-54.85A30,30,0,0,0,985,850.82Z"/>
  <path class="outlineSecond" d="M985,845.82l-70,40.42a30,30,0,0,1-30,0l-70-40.42a30,30,0,0,0-30,0l-70,40.42a30,30,0,0,1-30,0l-70-40.42a30,30,0,0,0-30,0l-95,54.85a30,30,0,0,0-15,26v109.7a30,30,0,0,0,15,26l95,54.85a30,30,0,0,0,30,0l70-40.42a30,30,0,0,1,30,0l70,40.42a30,30,0,0,0,30,0l70-40.42a30,30,0,0,1,30,0l70,40.42a30,30,0,0,0,30,0l95-54.85a30,30,0,0,0,15-26V926.65a30,30,0,0,0-15-26l-95-54.85A30,30,0,0,0,985,845.82Z"/>
  <path class="outlineFirstShadow" d="M812.49,855.15V757a15,15,0,0,0-7.5-13l-85-49.07a15,15,0,0,1-7.5-13V583.8a15,15,0,0,0-7.5-13l-85-49.07a15,15,0,0,1-7.5-13V410.59a15,15,0,0,0-7.5-13l-97.5-56.29a15,15,0,0,0-15,0L395,397.6a15,15,0,0,0-7.5,13V523.17a15,15,0,0,0,7.5,13l85,49.07a15,15,0,0,1,7.5,13v98.15a15,15,0,0,0,7.5,13l85,49.08a15,15,0,0,1,7.5,13v98.15a15,15,0,0,0,7.5,13l85,49.07a15,15,0,0,1,7.5,13v98.15a15,15,0,0,0,7.5,13l97.5,56.29a15,15,0,0,0,15,0l97.5-56.29a15,15,0,0,0,7.5-13V930.21a15,15,0,0,0-7.5-13l-85-49.08A15,15,0,0,1,812.49,855.15Z"/>
  <path class="outlineFirst" d="M812.49,850.15V752a15,15,0,0,0-7.5-13l-85-49.07a15,15,0,0,1-7.5-13V578.8a15,15,0,0,0-7.5-13l-85-49.07a15,15,0,0,1-7.5-13V405.59a15,15,0,0,0-7.5-13l-97.5-56.29a15,15,0,0,0-15,0L395,392.6a15,15,0,0,0-7.5,13V518.17a15,15,0,0,0,7.5,13l85,49.07a15,15,0,0,1,7.5,13v98.15a15,15,0,0,0,7.5,13l85,49.08a15,15,0,0,1,7.5,13v98.15a15,15,0,0,0,7.5,13l85,49.07a15,15,0,0,1,7.5,13v98.15a15,15,0,0,0,7.5,13l97.5,56.29a15,15,0,0,0,15,0l97.5-56.29a15,15,0,0,0,7.5-13V925.21a15,15,0,0,0-7.5-13l-85-49.08A15,15,0,0,1,812.49,850.15Z"/>
  <g class="textSecondShow">
    <path d="M381.86,1011.72l-7.4.08.68-53.59,25.11-.76v7l-17.89-.51v17l14.36-.59-.33,7.48-14.28-.17Z"/>
    <path d="M404.28,970.1l4.52-1.17V955.24h3v12.84l10.28-2.66V953.14h3.05v11.48l4.09-1.07v8.74l-4.09,1.09v12.38l4.09-1v8.66l-4.09,1.09v13.68h-3.05V995.28l-10.28,2.64v12.47h-3V998.8l-4.52,1.18v-8.74l4.52-1.18V977.57l-4.52,1.18Zm17.84,4.06-10.28,2.61v12.55l10.28-2.67Z"/>
  </g>
  <g class="textSecond">
    <path d="M381.86,1006.72l-7.4.08.68-53.59,25.11-.76v7l-17.89-.51v17l14.36-.59-.33,7.48-14.28-.17Z"/>
    <path d="M404.28,965.1l4.52-1.17V950.24h3v12.84l10.28-2.66V948.14h3.05v11.48l4.09-1.07v8.74l-4.09,1.09v12.38l4.09-1v8.66l-4.09,1.09v13.68h-3.05V990.28l-10.28,2.64v12.47h-3V993.8L404.28,995v-8.74l4.52-1.18V972.57l-4.52,1.18Zm17.84,4.06-10.28,2.61v12.55l10.28-2.67Z"/>
  </g>
  <g class="textFirstShadow">
    <path d="M318.26,291.77l15.21.42q.25,3,.25,6.17a31.57,31.57,0,0,1-.8,6.76,30.76,30.76,0,0,1-2.48,7,14.2,14.2,0,0,1-4.74,5.5,14,14,0,0,1-8,2.1,20.44,20.44,0,0,1-9.24-2.14,15.73,15.73,0,0,1-6.64-6.09q-4.62-7.56-4.62-19.41,0-11.18,5.46-19.15A20.08,20.08,0,0,1,319,264.47a16.39,16.39,0,0,1,7.89,1.63,18.42,18.42,0,0,1,5.76,5.42l-6,4.12q-3.6-4.45-8.06-4.45-6.72,0-10.46,6.34a29.18,29.18,0,0,0-3.74,15.08,33.19,33.19,0,0,0,2.86,13,14,14,0,0,0,4.12,5.55,9.83,9.83,0,0,0,6.42,2.18c2.49,0,4.64-1.35,6.43-4.07A18.35,18.35,0,0,0,326.92,299v-1.18l-8.66-.08Z"/>
    <path d="M340.28,277.28l4.51-1.17V262.42h3v12.84l10.28-2.66V260.32h3V271.8l4.1-1.07v8.74l-4.1,1.09v12.38l4.1-1v8.65l-4.1,1.1v13.68h-3V302.46l-10.28,2.63v12.48h-3V306l-4.51,1.18v-8.74l4.51-1.18V284.75l-4.51,1.18Zm17.84,4.06L347.84,284V296.5l10.28-2.67Z"/>
    <path d="M398.73,319.57l.34-17q0-17.3-4.87-17.3c-2.3,0-4.76,1.22-7.4,3.65a18.54,18.54,0,0,0-5.37,9.12q-.93,3.53-.93,12.68l.34,8.32-7.48.5q.18-20.58.17-25.37l-.5-14.36,5.88-.51,1.93,8.32h.34c.22-.22.51-.55.88-1a28.31,28.31,0,0,1,2.26-2.14,40.79,40.79,0,0,1,3.41-2.69q4.62-3.11,8.52-3.11a7.39,7.39,0,0,1,5.93,2.36,15.67,15.67,0,0,1,3,6.72l.42.16q7.39-9.23,16.72-9.24a6.73,6.73,0,0,1,6.21,3.78q2.1,3.8,2.1,10.25v8.4q0,13.86.25,18.15l-7.3.5q.33-16.12.33-23.85,0-10-4.45-10t-9,5.12Q406,296.22,406,301l-.17,18.06Z"/>
    <path d="M458.18,254.65l-18.66.66-.18-5.1,12.78.06q5.88,0,9.84-.12l.78,3.3q-2.28,5.64-8.1,17.73T446,290.29l-5-2.82Z"/>
  </g>
  <g class="textFirst">
    <path d="M318.26,286.77l15.21.42q.25,3,.25,6.17a31.57,31.57,0,0,1-.8,6.76,30.76,30.76,0,0,1-2.48,7,14.2,14.2,0,0,1-4.74,5.5,14,14,0,0,1-8,2.1,20.44,20.44,0,0,1-9.24-2.14,15.73,15.73,0,0,1-6.64-6.09q-4.62-7.56-4.62-19.41,0-11.18,5.46-19.15A20.08,20.08,0,0,1,319,259.47a16.39,16.39,0,0,1,7.89,1.63,18.42,18.42,0,0,1,5.76,5.42l-6,4.12q-3.6-4.45-8.06-4.45-6.72,0-10.46,6.34a29.18,29.18,0,0,0-3.74,15.08,33.19,33.19,0,0,0,2.86,13,14,14,0,0,0,4.12,5.55,9.83,9.83,0,0,0,6.42,2.18c2.49,0,4.64-1.35,6.43-4.07A18.35,18.35,0,0,0,326.92,294v-1.18l-8.66-.08Z"/>
    <path d="M340.28,272.28l4.51-1.17V257.42h3v12.84l10.28-2.66V255.32h3V266.8l4.1-1.07v8.74l-4.1,1.09v12.38l4.1-1v8.65l-4.1,1.1v13.68h-3V297.46l-10.28,2.63v12.48h-3V301l-4.51,1.18v-8.74l4.51-1.18V279.75l-4.51,1.18Zm17.84,4.06L347.84,279V291.5l10.28-2.67Z"/>
    <path d="M398.73,314.57l.34-17q0-17.3-4.87-17.3c-2.3,0-4.76,1.22-7.4,3.65a18.54,18.54,0,0,0-5.37,9.12q-.93,3.53-.93,12.68l.34,8.32-7.48.5q.18-20.58.17-25.37l-.5-14.36,5.88-.51,1.93,8.32h.34c.22-.22.51-.55.88-1a28.31,28.31,0,0,1,2.26-2.14,40.79,40.79,0,0,1,3.41-2.69q4.62-3.11,8.52-3.11a7.39,7.39,0,0,1,5.93,2.36,15.67,15.67,0,0,1,3,6.72l.42.16q7.39-9.23,16.72-9.24a6.73,6.73,0,0,1,6.21,3.78q2.1,3.8,2.1,10.25v8.4q0,13.86.25,18.15l-7.3.5q.33-16.12.33-23.85,0-10-4.45-10t-9,5.12Q406,291.22,406,296l-.17,18.06Z"/>
    <path d="M458.18,249.65l-18.66.66-.18-5.1,12.78.06q5.88,0,9.84-.12l.78,3.3q-2.28,5.64-8.1,17.73T446,285.29l-5-2.82Z"/>
  </g>
</svg>
