<svg id="dominoes" xmlns="http://www.w3.org/2000/svg" viewBox="0 0 2600 1096.96">
  <defs>
    <style>
      .cls-1 {
        fill: #46806d;
      }

      .cls-2, .cls-27 {
        fill: none;
      }

      .cls-3 {
        fill: #80756f;
      }

      .cls-4 {
        fill: #8c817a;
      }

      .cls-5 {
        fill: #d1c2b6;
      }

      .cls-6 {
        fill: #ead9cc;
      }

      .cls-7 {
        fill: #73622e;
      }

      .cls-8 {
        fill: #99823d;
      }

      .cls-9 {
        fill: #805333;
      }

      .cls-10 {
        fill: #a66c42;
      }

      .cls-11 {
        fill: #606060;
      }

      .cls-12 {
        fill: #797979;
      }

      .cls-13 {
        fill: #5b67a6;
      }

      .cls-14 {
        fill: #707fcc;
      }

      .cls-15 {
        fill: #2e7351;
      }

      .cls-16 {
        fill: #3d996b;
      }

      .cls-17 {
        fill: #6f53a6;
      }

      .cls-18 {
        fill: #8967cc;
      }

      .cls-19 {
        fill: #2e7373;
      }

      .cls-20 {
        fill: #3d9999;
      }

      .cls-21 {
        fill: #666645;
      }

      .cls-22 {
        fill: #59593b;
      }

      .cls-23 {
        fill: #abab73;
      }

      .cls-24 {
        fill: #c4c484;
      }

      .cls-25 {
        fill: #80465f;
      }

      .cls-26 {
        fill: #a65b7b;
      }

      .cls-27 {
        stroke: #57d9d9;
        stroke-miterlimit: 10;
        stroke-width: 10px;
      }

      .cls-28, .cls-30 {
        font-size: 84px;
        font-family: Fresca-Regular, Fresca;
        letter-spacing: 0.05em;
      }

      .cls-28 {
        fill: #274d4d;
      }

      .cls-29 {
        font-size: 60px;
        letter-spacing: 0em;
      }

      .cls-30 {
        fill: #80ffff;
      }

      .cls-31 {
        fill: #4cd993;
      }
    </style>
  </defs>
  <rect id="background" class="cls-1" width="2600" height="1096.96"/>
  <g id="group1">
    <g id="g5_ascend">
      <g id="base">
        <polygon class="cls-2" points="700 346.41 600 404.14 600 519.61 700 577.35 800 519.61 800 404.14 700 346.41"/>
        <polygon class="cls-2" points="800 173.21 700 230.94 700 346.41 800 404.14 900 346.41 900 230.94 800 173.21"/>
      </g>
      <g id="bottom">
        <path id="right" class="cls-3" d="M900,245.94,600,419.14V526a15,15,0,0,0,7.5,13l85,49.08a15,15,0,0,0,15,0l85-49.08a15,15,0,0,0,7.5-13V419.14h0l92.5-53.4a15,15,0,0,0,7.5-13Z" transform="translate(0 0)"/>
        <path id="left" class="cls-4" d="M600,511v15a15,15,0,0,0,7.5,13l85,49.08a15,15,0,0,0,7.5,2V575Z" transform="translate(0 0)"/>
      </g>
      <path id="edge" class="cls-5" d="M792.5,177.54l-85,49.07a15,15,0,0,0-7.5,13V346.41l-92.5,53.4a15,15,0,0,0-7.5,13V511a15,15,0,0,0,7.5,13l85,49.08a15,15,0,0,0,15,0l85-49.08a15,15,0,0,0,7.5-13V404.14l92.5-53.4a15,15,0,0,0,7.5-13V239.6a15,15,0,0,0-7.5-13l-85-49.07A15,15,0,0,0,792.5,177.54Z" transform="translate(0 0)"/>
      <path id="face" class="cls-6" d="M792.5,182.15l-81,46.77a15,15,0,0,0-7.5,13V348.72l-92.5,53.4a15,15,0,0,0-7.5,13v93.52a15,15,0,0,0,7.5,13l81,46.76a15,15,0,0,0,15,0l81-46.76a15,15,0,0,0,7.5-13V401.83l92.5-53.4a15,15,0,0,0,7.5-13V241.91a15,15,0,0,0-7.5-13l-81-46.77A15,15,0,0,0,792.5,182.15Z" transform="translate(0 0)"/>
      <path id="dBottom" class="cls-7" d="M835.15,318.36c-16.41,28.44-42.44,36.36-65.63,23s-29.3-39.7-12.88-68.13l34.56-59.86,11.35,6.55-4.47,7.74,55.75,32.18,4.46-7.73,11.35,6.55Zm1-19.35-63.1-36.43-.65,1.12c-8.2,14.21-3,29.69,18,41.78s36.88,9,44.72-4.6Z" transform="translate(0 0)"/>
      <path id="dFace" class="cls-8" d="M791.2,218.34,756.64,278.2c-5.72,9.92-8.7,19.57-9.18,28.51.78,14.52,8.48,26.78,22.06,34.62,23.19,13.39,49.22,5.47,65.63-23l32.32-56-9.18-5.3-4.46,7.73-55.75-32.18v-5l2.3-4Zm45,80.67v5l-1.08,1.87c-7.84,13.59-23.9,16.63-44.72,4.6-15.91-9.18-22.73-20.31-21.5-31.36a25,25,0,0,1,3.55-15.42l.65-1.12Z" transform="translate(0 0)"/>
      <path id="gBottom" class="cls-9" d="M684.33,416.59l-7-4L685.2,399,709,412.71l-6.83,11.85-21.81,4.37c-10.14,18.42-3.18,34.58,14,44.52,17.59,10.15,35.76,7.18,44-7.17l-20.07-11.59-4.18,7.24-11.35-6.56L727.32,413l11.35,6.56-4,7,17,9.79c2.17,16.39-2.06,33.23-10.49,47.82-17.13,29.68-45,40.2-68.93,26.38-24.57-14.19-29-43.68-12-73.11C666.44,426.54,677.22,418,684.33,416.59Z" transform="translate(0 0)"/>
      <path id="gFace" class="cls-10" d="M679.51,413.81l4.82,2.78v5c-7.11,1.38-17.89,10-24.15,20.8s-9.64,21.82-10.12,32c.73,15.11,8.17,28.1,22.12,36.15,23.94,13.82,51.8,3.3,68.93-26.38a79.65,79.65,0,0,0,11-36.85q-.12-3-.51-6l-17-9.79v-5l1.86-3.23L727.32,418,705,456.62l9.18,5.31,4.18-7.24,20.07,11.59v5c-8.28,14.35-26.45,17.32-44,7.17-12.62-7.29-19.72-17.92-18.62-30.34-.55-6,.86-12.42,4.59-19.18l21.81-4.37,4.67-8.1L685.2,404Z" transform="translate(0 0)"/>
      <g id="dotsBottom">
        <path class="cls-11" d="M785.66,380.26l-7.8-4.5a1.56,1.56,0,0,0-2.35,1.35v9a1.57,1.57,0,0,0,2.35,1.35l7.8-4.51A1.56,1.56,0,0,0,785.66,380.26Z" transform="translate(0 0)"/>
        <path class="cls-11" d="M733.7,350.26l-7.8-4.5a1.56,1.56,0,0,0-2.35,1.35v9a1.57,1.57,0,0,0,2.35,1.35l7.8-4.51A1.56,1.56,0,0,0,733.7,350.26Z" transform="translate(0 0)"/>
        <path class="cls-11" d="M775.66,397.58l-7.8-4.5a1.56,1.56,0,0,0-2.35,1.35v9a1.57,1.57,0,0,0,2.35,1.35l7.8-4.51A1.56,1.56,0,0,0,775.66,397.58Z" transform="translate(0 0)"/>
        <path class="cls-11" d="M754.68,373.92l-7.8-4.5a1.56,1.56,0,0,0-2.35,1.35v9a1.57,1.57,0,0,0,2.35,1.35l7.8-4.51A1.56,1.56,0,0,0,754.68,373.92Z" transform="translate(0 0)"/>
        <path class="cls-11" d="M723.7,367.58l-7.8-4.5a1.56,1.56,0,0,0-2.35,1.35v9a1.57,1.57,0,0,0,2.35,1.35l7.8-4.51A1.56,1.56,0,0,0,723.7,367.58Z" transform="translate(0 0)"/>
      </g>
      <g id="dotsFace">
        <path class="cls-12" d="M777.86,387.48l5.82-3.36-5.82-3.36a1.56,1.56,0,0,0-2.35,1.35v4A1.57,1.57,0,0,0,777.86,387.48Z" transform="translate(0 0)"/>
        <path class="cls-12" d="M725.9,357.48l5.82-3.36-5.82-3.36a1.56,1.56,0,0,0-2.35,1.35v4A1.57,1.57,0,0,0,725.9,357.48Z" transform="translate(0 0)"/>
        <path class="cls-12" d="M767.86,404.8l5.82-3.36-5.82-3.36a1.56,1.56,0,0,0-2.35,1.35v4A1.57,1.57,0,0,0,767.86,404.8Z" transform="translate(0 0)"/>
        <path class="cls-12" d="M746.88,381.14l5.82-3.36-5.82-3.36a1.56,1.56,0,0,0-2.35,1.35v4A1.57,1.57,0,0,0,746.88,381.14Z" transform="translate(0 0)"/>
        <path class="cls-12" d="M715.9,374.8l5.82-3.36-5.82-3.36a1.56,1.56,0,0,0-2.35,1.35v4A1.57,1.57,0,0,0,715.9,374.8Z" transform="translate(0 0)"/>
      </g>
    </g>
    <g id="ga3_horizon">
      <g id="base-2" data-name="base">
        <polygon class="cls-2" points="600 519.61 500 577.35 500 692.82 600 750.55 700 692.82 700 577.35 600 519.61"/>
        <polygon class="cls-2" points="400 519.61 300 577.35 300 692.82 400 750.55 500 692.82 500 577.35 400 519.61"/>
      </g>
      <g id="bottom-2" data-name="bottom">
        <path id="left-2" data-name="left" class="cls-4" d="M300,684.16v15a15,15,0,0,0,7.5,13l85,49.07a15,15,0,0,0,15,0l92.5-53.4,92.5,53.4a15,15,0,0,0,15,0l85-49.07a15,15,0,0,0,7.5-13v-15Z" transform="translate(0 0)"/>
        <g id="right-2" data-name="right">
          <path class="cls-3" d="M500,692.82,400,748.23v15a15,15,0,0,0,7.5-2l92.5-53.4v-15" transform="translate(0 0)"/>
          <path class="cls-3" d="M700,699.15a15,15,0,0,1-7.5,13l-85,49.07a15,15,0,0,1-7.5,2v-15l100-64.07Z" transform="translate(0 0)"/>
        </g>
      </g>
      <path id="edge-2" data-name="edge" class="cls-5" d="M592.5,523.94,500,577.35,407.5,523.94a15,15,0,0,0-15,0L307.5,573A15,15,0,0,0,300,586v98.16a15,15,0,0,0,7.49,13l85,49.07a15,15,0,0,0,15,0l92.5-53.4,92.5,53.4a15,15,0,0,0,15,0l85-49.07a15,15,0,0,0,7.5-13V586a15,15,0,0,0-7.5-13l-85-49.08A15,15,0,0,0,592.5,523.94Z" transform="translate(0 0)"/>
      <path id="face-2" data-name="face" class="cls-6" d="M592.5,528.56,500,582l-92.5-53.4a15,15,0,0,0-15,0l-81,46.76a15,15,0,0,0-7.5,13v93.52a15,15,0,0,0,7.5,13l81,46.76a15,15,0,0,0,15,0L500,688.2l92.49,53.4a15,15,0,0,0,15,0l81-46.76a15,15,0,0,0,7.5-13V588.32a15,15,0,0,0-7.5-13l-81-46.77A15,15,0,0,0,592.5,528.56Z" transform="translate(0 0)"/>
      <g id="gaBottom">
        <path class="cls-13" d="M380.89,592.83v-4h7.85v13.76H381.9l-7.34-8.35c-10.52.21-15.77,7.27-15.77,17.2,0,10.16,5.83,17.29,14.11,17.29v-11.6h-4.18v-6.55h24.49v6.55h-4v9.8c-6.55,5-14.9,7.41-23.33,7.41-17.13,0-28.66-9.43-28.66-23.26,0-14.18,11.67-23.47,28.66-23.47C372.11,587.57,378.52,590.09,380.89,592.83Z" transform="translate(0 0)"/>
        <path class="cls-13" d="M389.89,680.27l-3.31,9.94h4.9v7.27H375.35v-7.27h5.11l13.61-38h21.17l14.33,38.74h5.18v6.55H402.49v-6.55H407l-3.38-10.66Zm7-20.74L392,674.08h9.58Z" transform="translate(0 0)"/>
        <path class="cls-13" d="M397.08,594.51l4.65-1.51V575.39h3.13v16.52l10.58-3.43V572.69h3.13v14.77l4.22-1.38v11.25l-4.22,1.4v15.93l4.22-1.27v11.14l-4.22,1.4v17.6h-3.13V626.9l-10.58,3.39v16.05h-3.13V631.43L397.08,633V621.7l4.65-1.51V604.12l-4.65,1.52Zm18.36,5.22-10.58,3.36v16.14l10.58-3.44Z" transform="translate(0 0)"/>
        <path class="cls-13" d="M442.93,633.65v34.56a16.25,16.25,0,0,1,10.91-4.53,8.27,8.27,0,0,1,6.48,3.13,10.6,10.6,0,0,1,2.49,6.48,15.78,15.78,0,0,1-1.41,6.48A8.78,8.78,0,0,1,459,683l-2.92,2.7q-8,5.84-16,11.77V633.65Zm8.75,36.94a4.19,4.19,0,0,0-3.35-1.51c-1.72,0-3.13,1-4.21,2.91-.79,1.52-1.19,5.08-1.19,10.7V692q.1.43,6.05-5.29a14,14,0,0,0,4.21-7.13,12.45,12.45,0,0,0,.44-3.24A8.22,8.22,0,0,0,451.68,670.59Z" transform="translate(0 0)"/>
      </g>
      <g id="gaFace">
        <path class="cls-14" d="M368.72,617.09h4.18v16.6c-8.28,0-14.11-7.13-14.11-17.29,0-.86,0-1.7.13-2.52-.08-.81-.13-1.63-.13-2.48,0-9.93,5.25-17,15.77-17.2l7.34,8.35h6.84v-8.76h-7.85v4c-2.37-2.74-8.78-5.26-15.05-5.26-16,0-27.22,8.2-28.53,20.95,1.3,12.46,12.44,20.78,28.53,20.78,8.43,0,16.78-2.37,23.33-7.41v-9.8h4v-1.55H368.72Z" transform="translate(0 0)"/>
        <path class="cls-14" d="M415.24,657.19H394.07l-13.61,38h-5.11v2.27h16.13v-2.27h-4.9v-5l3.31-9.94h13.76L407,690.93v5h-4.54v1.55h32.26v-1.55h-5.18Zm-13.68,21.89H392v-5l4.9-14.55,4.68,14.55Z" transform="translate(0 0)"/>
        <path class="cls-14" d="M418.57,587.46v-9.77h-3.13v15.79l-10.58,3.43V580.39h-3.13V598l-4.65,1.51v6.13l4.65-1.52v21.07l-4.65,1.51V633l4.65-1.52v14.91h3.13V630.29l10.58-3.39v16.63h3.13v-17.6l4.22-1.4v-6.14l-4.22,1.27V598.73l4.22-1.4v-6.25l-4.22,1.38Zm-3.13,17.27v16.06l-10.58,3.44V603.09l10.58-3.36Z" transform="translate(0 0)"/>
        <path class="cls-14" d="M459,683a8.78,8.78,0,0,0,2.37-3.24,21.08,21.08,0,0,0,1.13-3.57,10.8,10.8,0,0,0-2.21-4.39,8.27,8.27,0,0,0-6.48-3.13,15.67,15.67,0,0,0-4.12.62,4.21,4.21,0,0,1,2,1.29,8.22,8.22,0,0,1,1.95,5.72,12.53,12.53,0,0,1-.29,2.5,10.33,10.33,0,0,1,.29,2.5,12.45,12.45,0,0,1-.44,3.24,13.56,13.56,0,0,1-2.34,5l5.26-3.87Z" transform="translate(0 0)"/>
        <path class="cls-14" d="M442.93,692v-9.28c0-5.26.35-8.7,1.05-10.36-.35.28-.7.57-1.05.88V638.65h-2.8v58.83c.93-.69,1.87-1.37,2.8-2.07Z" transform="translate(0 0)"/>
      </g>
      <path id="bBottom" class="cls-15" d="M583.08,642.07c-22.46-.43-35.57-10.51-35.57-25.92,0-17,11.81-27.07,34.27-27.07,13.54,0,19,0,32.83.72h37.88v13.1h-8.93v64.37h8.93v13.1H614.61c-15,0-17.56.72-27.35.72-17.28,0-27.51-7.05-27.51-20C559.75,649.84,568.25,642.36,583.08,642.07Zm18.14,1.44h-.72c-10.94,0-17.28,5.47-17.28,14.69,0,8.49,4.61,14,16.71,14h1.29Zm0-8.5V597.86H599.5c-12.39,0-19.16,6.48-19.16,18.29,0,12.09,6.92,18.86,20.45,18.86Z" transform="translate(0 0)"/>
      <path id="bFace" class="cls-16" d="M581.78,594.08c-21.25,0-32.95,9-34.16,24.38,1.26,14.09,14.14,23.2,35.46,23.61v5c-13.74.26-22,6.72-23.18,16.6,1.3,11.3,11.27,17.42,27.36,17.42,9.79,0,12.38-.72,27.35-.72h37.88v-8.1h-8.93V602.9h8.93v-8.1H614.61C600.79,594.08,595.32,594.08,581.78,594.08Zm19.44,54.43v28.65h-1.29c-12.1,0-16.71-5.47-16.71-14a16.82,16.82,0,0,1,.18-2.4,19.9,19.9,0,0,1-.18-2.6c0-9.22,6.34-14.69,17.28-14.69h.72Zm0-45.65V640h-.43c-13.53,0-20.45-6.77-20.45-18.86,0-.86,0-1.68.12-2.48s-.12-1.65-.12-2.52c0-11.81,6.77-18.29,19.16-18.29h1.72Z" transform="translate(0 0)"/>
      <g id="dotsBottom-2" data-name="dotsBottom">
        <path class="cls-11" d="M498.44,599.68v10.81a1.87,1.87,0,0,0,2.81,1.63l9.37-5.41a1.88,1.88,0,0,0,0-3.25l-9.37-5.41A1.87,1.87,0,0,0,498.44,599.68Z" transform="translate(0 0)"/>
        <path class="cls-11" d="M493.44,629.68v10.81a1.87,1.87,0,0,0,2.81,1.63l9.37-5.41a1.88,1.88,0,0,0,0-3.25l-9.37-5.41A1.87,1.87,0,0,0,493.44,629.68Z" transform="translate(0 0)"/>
        <path class="cls-11" d="M488.44,659.68v10.81a1.87,1.87,0,0,0,2.81,1.63l9.37-5.41a1.88,1.88,0,0,0,0-3.25l-9.37-5.41A1.87,1.87,0,0,0,488.44,659.68Z" transform="translate(0 0)"/>
      </g>
      <g id="dotsFace-2" data-name="dotsFace">
        <path class="cls-12" d="M501.25,612.12l7.86-4.53-7.86-4.54a1.87,1.87,0,0,0-2.81,1.63v5.81A1.87,1.87,0,0,0,501.25,612.12Z" transform="translate(0 0)"/>
        <path class="cls-12" d="M496.25,642.12l7.86-4.53-7.86-4.54a1.87,1.87,0,0,0-2.81,1.63v5.81A1.87,1.87,0,0,0,496.25,642.12Z" transform="translate(0 0)"/>
        <path class="cls-12" d="M491.25,672.12l7.86-4.53-7.86-4.54a1.87,1.87,0,0,0-2.81,1.63v5.81A1.87,1.87,0,0,0,491.25,672.12Z" transform="translate(0 0)"/>
      </g>
    </g>
    <g id="de3_horizon">
      <g id="base-3" data-name="base">
        <polygon class="cls-2" points="1000 519.62 900 577.35 900 692.82 1000 750.55 1100 692.82 1100 577.35 1000 519.62"/>
        <polygon class="cls-2" points="800 519.61 700 577.35 700 692.82 800 750.55 900 692.82 900 577.35 800 519.61"/>
      </g>
      <g id="bottom-3" data-name="bottom">
        <path id="left-3" data-name="left" class="cls-4" d="M700,684.16v15a15,15,0,0,0,7.5,13l85,49.07a15,15,0,0,0,15,0l92.5-53.4,92.5,53.4a15,15,0,0,0,15,0l85-49.07a15,15,0,0,0,7.5-13v-15Z" transform="translate(0 0)"/>
        <g id="right-3" data-name="right">
          <path class="cls-3" d="M900,692.82,800,748.23v15a15,15,0,0,0,7.5-2l92.5-53.4v-15" transform="translate(0 0)"/>
          <path class="cls-3" d="M1100,699.16a15,15,0,0,1-7.5,13l-85,49.07a15,15,0,0,1-7.5,2v-15l100-64.07Z" transform="translate(0 0)"/>
        </g>
      </g>
      <path id="edge-3" data-name="edge" class="cls-5" d="M992.5,524,900,577.35l-92.5-53.41a15,15,0,0,0-15,0L707.5,573a15,15,0,0,0-7.5,13v98.15a15,15,0,0,0,7.5,13l85,49.07a15,15,0,0,0,15,0l92.5-53.4,92.5,53.41a15,15,0,0,0,15,0l85-49.08a15,15,0,0,0,7.5-13V586a15,15,0,0,0-7.5-13l-85-49.07A15,15,0,0,0,992.5,524Z" transform="translate(0 0)"/>
      <path id="face-3" data-name="face" class="cls-6" d="M992.5,528.56,900,582l-92.5-53.41a15,15,0,0,0-15,0l-81,46.77a15,15,0,0,0-7.5,13v93.53a15,15,0,0,0,7.5,13l81,46.76a15,15,0,0,0,15,0L900,688.2l92.5,53.41a15,15,0,0,0,15,0l81-46.77a15,15,0,0,0,7.5-13V588.32a15,15,0,0,0-7.5-13l-81-46.77A15,15,0,0,0,992.5,528.56Z" transform="translate(0 0)"/>
      <g id="deBottom">
        <path class="cls-17" d="M775.69,588.36c16.42,0,26.36,9.29,26.36,22.68s-9.87,22.61-26.29,22.61H741.2V627.1h4.46V594.92H741.2v-6.56Zm-8.64,4.4v36.43h.65c8.21,0,13.61-6.12,13.61-18.22s-5.33-18.21-13.18-18.21Z" transform="translate(0 0)"/>
        <path class="cls-17" d="M829.8,652.19v14.19h-5l-6.7-9H807.26V671.7h7v-5.11h4.83v15.63h-4.83v-5.33h-7V692.3H821c0-6.63,3.1-10.95,9.08-10.95h1.08v16.13H781.63v-6.55h4.46V658.74h-4.46v-6.55Z" transform="translate(0 0)"/>
        <path class="cls-17" d="M806.07,594.51l4.64-1.51V575.39h3.13v16.52l10.58-3.43V572.69h3.14v14.77l4.21-1.38v11.25l-4.21,1.4v15.93l4.21-1.27v11.14l-4.21,1.4v17.6h-3.14V626.9l-10.58,3.39v16.05h-3.13V631.43L806.07,633V621.7l4.64-1.51V604.12l-4.64,1.52Zm18.35,5.22-10.58,3.36v16.14l10.58-3.44Z" transform="translate(0 0)"/>
        <path class="cls-17" d="M838.92,633.65v34.56a16.23,16.23,0,0,1,10.91-4.53,8.3,8.3,0,0,1,6.48,3.13,10.53,10.53,0,0,1,2.48,6.48,15.91,15.91,0,0,1-1.4,6.48A8.94,8.94,0,0,1,855,683l-2.92,2.7q-8,5.84-16,11.77V633.65Zm8.75,36.94a4.22,4.22,0,0,0-3.35-1.51q-2.6,0-4.21,2.91c-.8,1.52-1.19,5.08-1.19,10.7V692q.11.43,6.05-5.29a14,14,0,0,0,4.21-7.13,12.88,12.88,0,0,0,.43-3.24A8.26,8.26,0,0,0,847.67,670.59Z" transform="translate(0 0)"/>
      </g>
      <g id="deFace">
        <path class="cls-18" d="M801.93,613.55c-1.17-12-10.86-20.19-26.24-20.19H772.1c5.62,1.82,9.21,7.75,9.21,17.61,0,.87,0,1.7-.09,2.5s.09,1.64.09,2.5c0,10.06-3.75,16-9.72,17.68h4.17C791.14,633.65,800.76,625.57,801.93,613.55Z" transform="translate(0 0)"/>
        <polygon class="cls-18" points="767.05 629.19 767.05 597.75 767.05 593.36 741.2 593.36 741.2 594.91 745.66 594.91 745.66 599.91 745.66 627.1 745.66 632.1 741.2 632.1 741.2 633.65 767.05 633.65 767.05 629.19"/>
        <path class="cls-18" d="M821,697.3H807.26V676.89h7v5.33h4.83V671.59h-4.83v5.11h-7V657.38h10.87l6.7,9h5v-9.19H781.63v1.55h4.46v37.19h-4.46v1.55h49.54V686.35h-1.08C824.11,686.35,821,690.67,821,697.3Z" transform="translate(0 0)"/>
        <path class="cls-18" d="M827.56,587.46v-9.77h-3.14v15.79l-10.58,3.43V580.39h-3.13V598l-4.64,1.51v6.13l4.64-1.52v21.07l-4.64,1.51V633l4.64-1.52v14.91h3.13V630.29l10.58-3.39v16.63h3.14v-17.6l4.21-1.4v-6.14l-4.21,1.27V598.73l4.21-1.4v-6.25l-4.21,1.38Zm-3.14,17.27v16.06l-10.58,3.44V603.09l10.58-3.36Z" transform="translate(0 0)"/>
        <path class="cls-18" d="M855,683a8.94,8.94,0,0,0,2.38-3.24,20.13,20.13,0,0,0,1.12-3.57,10.9,10.9,0,0,0-2.2-4.39,8.3,8.3,0,0,0-6.48-3.13,15.75,15.75,0,0,0-4.13.62,4.24,4.24,0,0,1,2,1.29,8.26,8.26,0,0,1,1.94,5.72,12.52,12.52,0,0,1-.28,2.5,10.93,10.93,0,0,1,.28,2.5,12.88,12.88,0,0,1-.43,3.24,13.74,13.74,0,0,1-2.35,5c1.76-1.28,3.51-2.59,5.26-3.87Z" transform="translate(0 0)"/>
        <path class="cls-18" d="M838.92,692v-9.28c0-5.26.35-8.7,1-10.36-.35.28-.7.57-1,.88V638.65h-2.81v58.83l2.81-2.07Z" transform="translate(0 0)"/>
      </g>
      <g id="fgBottom">
        <path class="cls-19" d="M979.9,613.84v4h-7.85V604.12h6.84l7.35,8.35c10.51-.22,15.76-7.27,15.76-17.21,0-10.15-5.83-17.28-14.11-17.28v11.59h4.18v6.56H967.58v-6.56h4v-9.79c6.55-5,14.9-7.42,23.33-7.42,17.13,0,28.66,9.44,28.66,23.26,0,14.19-11.67,23.47-28.66,23.47C988.68,619.09,982.27,616.57,979.9,613.84Z" transform="translate(0 0)"/>
        <path class="cls-19" d="M1011.61,682.13V668h5l6.7,9h10.87V661.18h-8.71V667h-4.83V650.38h4.83V656h8.71v-12.6h-4.54v-6.55h30.17v6.55h-4.46v32.19h4.46v6.55Z" transform="translate(0 0)"/>
        <path class="cls-19" d="M1006.94,676l-4.64,1.52v17.61h-3.13V678.58L988.58,682v15.8h-3.13V683l-4.21,1.38V673.17l4.21-1.4V655.84l-4.21,1.26V646l4.21-1.41V627h3.13v16.63l10.59-3.39V624.15h3.13v14.91l4.64-1.52v11.25l-4.64,1.51v16.08l4.64-1.53Zm-18.36-5.22,10.59-3.36V651.26l-10.59,3.44Z" transform="translate(0 0)"/>
        <path class="cls-19" d="M960.09,636.84V602.28a16.29,16.29,0,0,1-10.91,4.54,8.28,8.28,0,0,1-6.48-3.14,10.53,10.53,0,0,1-2.48-6.48,15.91,15.91,0,0,1,1.4-6.48,9,9,0,0,1,2.38-3.24l2.92-2.7q8-5.82,16-11.77v63.83Zm-8.75-36.94a4.22,4.22,0,0,0,3.35,1.52c1.73,0,3.13-1,4.21-2.92.8-1.51,1.19-5.08,1.19-10.69v-9.29q-.11-.43-6.05,5.29a14,14,0,0,0-4.21,7.13,12.44,12.44,0,0,0-.43,3.24A8.24,8.24,0,0,0,951.34,599.9Z" transform="translate(0 0)"/>
      </g>
      <g id="fgFace">
        <path class="cls-20" d="M992.07,594.57h-4.18V578c8.28,0,14.11,7.13,14.11,17.28,0,.87,0,1.71-.13,2.53a24.72,24.72,0,0,1,.13,2.47c0,9.94-5.25,17-15.76,17.21l-7.35-8.35h-6.84v8.75h7.85v-4c2.37,2.73,8.78,5.25,15.05,5.25,16,0,27.22-8.19,28.53-21-1.3-12.46-12.44-20.78-28.53-20.78-8.43,0-16.78,2.38-23.33,7.42v9.79h-4v1.56h24.49Z" transform="translate(0 0)"/>
        <polygon class="cls-20" points="1029.61 643.39 1034.15 643.39 1034.15 648.39 1034.15 655.99 1034.15 660.99 1025.44 660.99 1025.44 655.99 1025.44 655.38 1020.61 655.38 1020.61 667.01 1025.44 667.01 1025.44 666.18 1025.44 661.18 1034.15 661.18 1034.15 666.18 1034.15 676.95 1034.15 681.95 1023.28 681.95 1016.58 672.95 1011.61 672.95 1011.61 682.13 1059.78 682.13 1059.78 680.58 1055.32 680.58 1055.32 675.58 1055.32 648.39 1055.32 643.39 1059.78 643.39 1059.78 641.84 1029.61 641.84 1029.61 643.39"/>
        <path class="cls-20" d="M1002.3,639.06v-9.91h-3.13V645.2l-10.59,3.39V632h-3.13v17.6L981.24,651v6.13l4.21-1.26v20.93l-4.21,1.4v6.25l4.21-1.38v14.77h3.13V682l10.59-3.43v16.53h3.13V677.5l4.64-1.52v-6.13l-4.64,1.53V650.3l4.64-1.51v-6.25l-4.64,1.52Zm-3.13,17.2V672.4l-10.59,3.36V654.7l10.59-3.44Z" transform="translate(0 0)"/>
        <g>
          <path class="cls-20" d="M960.09,583.52v9.29c0,5.25-.35,8.69-1,10.35.35-.28.7-.57,1-.88v34.56h2.81V578l-2.81,2.07Z" transform="translate(0 0)"/>
          <path class="cls-20" d="M944,592.48a9,9,0,0,0-2.38,3.24,20.39,20.39,0,0,0-1.12,3.57,10.84,10.84,0,0,0,2.2,4.39,8.28,8.28,0,0,0,6.48,3.14,16.18,16.18,0,0,0,4.13-.63,4.12,4.12,0,0,1-2-1.29,8.24,8.24,0,0,1-1.94-5.72v-5a12.44,12.44,0,0,1,.43-3.24,13.72,13.72,0,0,1,2.34-5l-5.25,3.87Z" transform="translate(0 0)"/>
        </g>
      </g>
      <g id="dotsBottom-3" data-name="dotsBottom">
        <path class="cls-11" d="M898.44,599.68v10.81a1.87,1.87,0,0,0,2.81,1.63l9.37-5.41a1.88,1.88,0,0,0,0-3.25l-9.37-5.41A1.87,1.87,0,0,0,898.44,599.68Z" transform="translate(0 0)"/>
        <path class="cls-11" d="M893.44,629.68v10.81a1.87,1.87,0,0,0,2.81,1.63l9.37-5.41a1.88,1.88,0,0,0,0-3.25l-9.37-5.41A1.87,1.87,0,0,0,893.44,629.68Z" transform="translate(0 0)"/>
        <path class="cls-11" d="M888.44,659.68v10.81a1.87,1.87,0,0,0,2.81,1.63l9.37-5.41a1.88,1.88,0,0,0,0-3.25l-9.37-5.41A1.87,1.87,0,0,0,888.44,659.68Z" transform="translate(0 0)"/>
      </g>
      <g id="dotsFace-3" data-name="dotsFace">
        <path class="cls-12" d="M901.25,612.12l7.86-4.53-7.86-4.54a1.87,1.87,0,0,0-2.81,1.63v5.81A1.87,1.87,0,0,0,901.25,612.12Z" transform="translate(0 0)"/>
        <path class="cls-12" d="M896.25,642.12l7.86-4.53-7.86-4.54a1.87,1.87,0,0,0-2.81,1.63v5.81A1.87,1.87,0,0,0,896.25,642.12Z" transform="translate(0 0)"/>
        <path class="cls-12" d="M891.25,672.12l7.86-4.53-7.86-4.54a1.87,1.87,0,0,0-2.81,1.63v5.81A1.87,1.87,0,0,0,891.25,672.12Z" transform="translate(0 0)"/>
      </g>
    </g>
  </g>
  <g id="group2">
    <g id="g5_ascend-2" data-name="g5_ascend">
      <g id="base-4" data-name="base">
        <polygon class="cls-2" points="1900 346.41 1800 404.14 1800 519.61 1900 577.35 2000 519.61 2000 404.14 1900 346.41"/>
        <polygon class="cls-2" points="2000 173.21 1900 230.94 1900 346.41 2000 404.14 2100 346.41 2100 230.94 2000 173.21"/>
      </g>
      <g id="bottom-4" data-name="bottom">
        <path id="right-4" data-name="right" class="cls-3" d="M2100,245.94l-300,173.2V526a15,15,0,0,0,7.5,13l85,49.07a15,15,0,0,0,15,0l85-49.07a15,15,0,0,0,7.5-13V419.14h0l92.5-53.4a15,15,0,0,0,7.5-13Z" transform="translate(0 0)"/>
        <path id="left-4" data-name="left" class="cls-4" d="M1800,511v15a15,15,0,0,0,7.5,13l85,49.07a15,15,0,0,0,7.5,2V575Z" transform="translate(0 0)"/>
      </g>
      <path id="edge-4" data-name="edge" class="cls-5" d="M1992.5,177.54l-85,49.07a15,15,0,0,0-7.5,13V346.41l-92.5,53.4a15,15,0,0,0-7.5,13V511a15,15,0,0,0,7.5,13l85,49.08a15,15,0,0,0,15,0l85-49.08a15,15,0,0,0,7.5-13V404.14l92.5-53.4a15,15,0,0,0,7.5-13V239.6a15,15,0,0,0-7.5-13l-85-49.07A15,15,0,0,0,1992.5,177.54Z" transform="translate(0 0)"/>
      <path id="face-4" data-name="face" class="cls-6" d="M1992.5,182.16l-81,46.76a15,15,0,0,0-7.5,13V348.72l-92.5,53.4a15,15,0,0,0-7.5,13v93.52a15,15,0,0,0,7.5,13l81,46.76a15,15,0,0,0,15,0l81-46.76a15,15,0,0,0,7.5-13V401.84l92.5-53.41a15,15,0,0,0,7.5-13V241.91a15,15,0,0,0-7.5-13l-81-46.76A15,15,0,0,0,1992.5,182.16Z" transform="translate(0 0)"/>
      <path id="dBottom-2" data-name="dBottom" class="cls-7" d="M2035.15,318.36c-16.41,28.44-42.44,36.36-65.63,23s-29.3-39.7-12.88-68.13l34.56-59.86,11.35,6.55-4.47,7.74,55.75,32.18,4.46-7.73,11.35,6.55Zm1-19.35-63.1-36.43-.65,1.12c-8.2,14.21-3,29.69,18,41.78s36.88,9,44.72-4.6Z" transform="translate(0 0)"/>
      <path id="dFace-2" data-name="dFace" class="cls-8" d="M1991.2,218.34l-34.56,59.86c-5.72,9.92-8.7,19.57-9.18,28.51.77,14.52,8.48,26.78,22.06,34.62,23.19,13.39,49.22,5.47,65.63-23l32.32-56-9.18-5.3-4.46,7.73-55.75-32.18v-5l2.3-4Zm45,80.67v5l-1.08,1.87c-7.84,13.59-23.9,16.63-44.72,4.6-15.91-9.18-22.73-20.31-21.5-31.36a25,25,0,0,1,3.55-15.42l.65-1.12Z" transform="translate(0 0)"/>
      <path id="gBottom-2" data-name="gBottom" class="cls-9" d="M1884.33,416.59l-7-4,7.85-13.6L1909,412.71l-6.84,11.85-21.8,4.37c-10.14,18.42-3.18,34.58,14,44.52,17.59,10.15,35.76,7.18,44-7.17l-20.07-11.59-4.18,7.24-11.35-6.56,24.48-42.4,11.35,6.56-4,7,17,9.79c2.17,16.39-2.06,33.23-10.49,47.82-17.13,29.68-45,40.2-68.93,26.38-24.57-14.18-29-43.67-12-73.11C1866.44,426.55,1877.22,418,1884.33,416.59Z" transform="translate(0 0)"/>
      <path id="gFace-2" data-name="gFace" class="cls-10" d="M1879.51,413.81l4.82,2.78v5c-7.11,1.38-17.89,10-24.15,20.8s-9.64,21.82-10.12,32c.73,15.11,8.17,28.1,22.12,36.15,23.94,13.82,51.8,3.3,68.93-26.38a79.65,79.65,0,0,0,11-36.85q-.12-3-.51-6l-17-9.79v-5l1.86-3.23-9.18-5.31L1905,456.62l9.18,5.31,4.18-7.24,20.07,11.6v5c-8.28,14.34-26.45,17.31-44,7.16-12.62-7.29-19.72-17.92-18.62-30.34-.55-6,.86-12.41,4.59-19.18l21.8-4.37,4.68-8.1L1885.2,404Z" transform="translate(0 0)"/>
      <g id="dotsBottom-4" data-name="dotsBottom">
        <path class="cls-11" d="M1985.66,380.26l-7.8-4.5a1.56,1.56,0,0,0-2.35,1.35v9a1.57,1.57,0,0,0,2.35,1.35l7.8-4.51A1.56,1.56,0,0,0,1985.66,380.26Z" transform="translate(0 0)"/>
        <path class="cls-11" d="M1933.7,350.26l-7.81-4.5a1.56,1.56,0,0,0-2.34,1.35v9a1.56,1.56,0,0,0,2.34,1.35l7.81-4.51A1.56,1.56,0,0,0,1933.7,350.26Z" transform="translate(0 0)"/>
        <path class="cls-11" d="M1975.66,397.58l-7.8-4.5a1.56,1.56,0,0,0-2.35,1.35v9a1.57,1.57,0,0,0,2.35,1.35l7.8-4.51A1.56,1.56,0,0,0,1975.66,397.58Z" transform="translate(0 0)"/>
        <path class="cls-11" d="M1954.68,373.92l-7.8-4.5a1.56,1.56,0,0,0-2.35,1.35v9a1.57,1.57,0,0,0,2.35,1.35l7.8-4.51A1.56,1.56,0,0,0,1954.68,373.92Z" transform="translate(0 0)"/>
        <path class="cls-11" d="M1923.7,367.58l-7.81-4.5a1.56,1.56,0,0,0-2.34,1.35v9a1.56,1.56,0,0,0,2.34,1.35l7.81-4.51A1.56,1.56,0,0,0,1923.7,367.58Z" transform="translate(0 0)"/>
      </g>
      <g id="dotsFace-4" data-name="dotsFace">
        <path class="cls-12" d="M1977.86,387.48l5.82-3.36-5.82-3.36a1.56,1.56,0,0,0-2.35,1.35v4A1.57,1.57,0,0,0,1977.86,387.48Z" transform="translate(0 0)"/>
        <path class="cls-12" d="M1925.89,357.48l5.83-3.36-5.83-3.36a1.56,1.56,0,0,0-2.34,1.35v4A1.56,1.56,0,0,0,1925.89,357.48Z" transform="translate(0 0)"/>
        <path class="cls-12" d="M1967.86,404.8l5.82-3.36-5.82-3.36a1.57,1.57,0,0,0-2.35,1.35v4A1.57,1.57,0,0,0,1967.86,404.8Z" transform="translate(0 0)"/>
        <path class="cls-12" d="M1946.88,381.14l5.82-3.36-5.82-3.36a1.56,1.56,0,0,0-2.35,1.35v4A1.57,1.57,0,0,0,1946.88,381.14Z" transform="translate(0 0)"/>
        <path class="cls-12" d="M1915.89,374.8l5.83-3.36-5.83-3.36a1.56,1.56,0,0,0-2.34,1.35v4A1.56,1.56,0,0,0,1915.89,374.8Z" transform="translate(0 0)"/>
      </g>
    </g>
    <g id="ga3_horizon-2" data-name="ga3_horizon">
      <g id="base-5" data-name="base">
        <polygon class="cls-2" points="1800 519.61 1700 577.35 1700 692.82 1800 750.55 1900 692.82 1900 577.35 1800 519.61"/>
        <polygon class="cls-2" points="1600 519.61 1500 577.35 1500 692.82 1600 750.55 1700 692.82 1700 577.35 1600 519.61"/>
      </g>
      <g id="bottom-5" data-name="bottom">
        <path id="left-5" data-name="left" class="cls-4" d="M1500,684.16v15a15,15,0,0,0,7.5,13l85,49.07a15,15,0,0,0,15,0l92.5-53.4,92.5,53.4a15,15,0,0,0,15,0l85-49.07a15,15,0,0,0,7.5-13v-15Z" transform="translate(0 0)"/>
        <g id="right-5" data-name="right">
          <path class="cls-3" d="M1700,692.82l-100,55.41v15a15,15,0,0,0,7.5-2l92.5-53.4v-15" transform="translate(0 0)"/>
          <path class="cls-3" d="M1900,699.16a15,15,0,0,1-7.5,13l-85,49.07a15,15,0,0,1-7.5,2v-15l100-64.07Z" transform="translate(0 0)"/>
        </g>
      </g>
      <path id="edge-5" data-name="edge" class="cls-5" d="M1792.5,523.94,1700,577.35l-92.5-53.41a15,15,0,0,0-15,0l-85,49.08a15,15,0,0,0-7.5,13v98.15a15,15,0,0,0,7.5,13l85,49.07a15,15,0,0,0,15,0l92.5-53.4,92.5,53.4a15,15,0,0,0,15,0l85-49.07a15,15,0,0,0,7.5-13V586a15,15,0,0,0-7.5-13l-85-49.08A15,15,0,0,0,1792.5,523.94Z" transform="translate(0 0)"/>
      <path id="face-5" data-name="face" class="cls-6" d="M1792.5,528.56,1700,582l-92.49-53.4a15,15,0,0,0-15,0l-81,46.76a15,15,0,0,0-7.51,13v93.52a15,15,0,0,0,7.51,13l81,46.76a15,15,0,0,0,15,0L1700,688.2l92.5,53.4a15,15,0,0,0,15,0l81-46.76a15,15,0,0,0,7.5-13V588.32a15,15,0,0,0-7.5-13l-81-46.77A15,15,0,0,0,1792.5,528.56Z" transform="translate(0 0)"/>
      <g id="gaBottom-2" data-name="gaBottom">
        <path class="cls-13" d="M1580.89,592.83v-4h7.85v13.76h-6.84l-7.35-8.35c-10.51.21-15.76,7.27-15.76,17.2,0,10.16,5.83,17.29,14.11,17.29v-11.6h-4.18v-6.55h24.48v6.55h-4v9.8c-6.55,5-14.9,7.41-23.33,7.41-17.14,0-28.66-9.43-28.66-23.26,0-14.18,11.67-23.47,28.66-23.47C1572.11,587.57,1578.52,590.09,1580.89,592.83Z" transform="translate(0 0)"/>
        <path class="cls-13" d="M1589.89,680.27l-3.31,9.94h4.9v7.27h-16.13v-7.27h5.11l13.61-38h21.17l14.33,38.74h5.18v6.55h-32.26v-6.55H1607l-3.39-10.66Zm7-20.73-4.9,14.54h9.58Z" transform="translate(0 0)"/>
        <path class="cls-13" d="M1597.08,594.51l4.65-1.51V575.39h3.13v16.52l10.58-3.43V572.69h3.13v14.77l4.22-1.38v11.25l-4.22,1.4v15.93l4.22-1.27v11.14l-4.22,1.4v17.6h-3.13V626.9l-10.58,3.39v16.05h-3.13V631.43l-4.65,1.52V621.7l4.65-1.51V604.12l-4.65,1.52Zm18.36,5.22-10.58,3.36v16.14l10.58-3.44Z" transform="translate(0 0)"/>
        <path class="cls-13" d="M1642.93,633.65v34.56a16.25,16.25,0,0,1,10.91-4.53,8.27,8.27,0,0,1,6.48,3.13,10.6,10.6,0,0,1,2.49,6.48,15.78,15.78,0,0,1-1.41,6.48A8.78,8.78,0,0,1,1659,683l-2.92,2.7q-8,5.84-16,11.77V633.65Zm8.75,36.94a4.19,4.19,0,0,0-3.35-1.51c-1.72,0-3.13,1-4.21,2.91-.79,1.52-1.19,5.08-1.19,10.7V692q.1.43,6-5.29a13.92,13.92,0,0,0,4.21-7.13,12.45,12.45,0,0,0,.44-3.24A8.22,8.22,0,0,0,1651.68,670.59Z" transform="translate(0 0)"/>
      </g>
      <g id="gaFace-2" data-name="gaFace">
        <path class="cls-14" d="M1568.72,617.09h4.18v16.6c-8.28,0-14.11-7.13-14.11-17.29,0-.86,0-1.7.13-2.52-.08-.81-.13-1.63-.13-2.48,0-9.93,5.25-17,15.76-17.2l7.35,8.35h6.84v-8.76h-7.85v4c-2.37-2.74-8.78-5.26-15.05-5.26-16,0-27.22,8.2-28.53,20.95,1.3,12.46,12.44,20.78,28.53,20.78,8.43,0,16.78-2.37,23.33-7.41v-9.8h4v-1.55h-24.48Z" transform="translate(0 0)"/>
        <path class="cls-14" d="M1615.24,657.19h-21.17l-13.61,38h-5.11v2.27h16.13v-2.27h-4.9v-5l3.31-9.94h13.75l3.39,10.66v5h-4.54v1.55h32.26v-1.55h-5.18Zm-13.68,21.89H1592v-5l4.9-14.54,4.68,14.54Z" transform="translate(0 0)"/>
        <path class="cls-14" d="M1618.57,587.46v-9.77h-3.13v15.79l-10.58,3.43V580.39h-3.13V598l-4.65,1.51v6.13l4.65-1.52v21.07l-4.65,1.51V633l4.65-1.52v14.91h3.13V630.29l10.58-3.39v16.63h3.13v-17.6l4.22-1.4v-6.14l-4.22,1.27V598.73l4.22-1.4v-6.25l-4.22,1.38Zm-3.13,17.27v16.06l-10.58,3.44V603.09l10.58-3.36Z" transform="translate(0 0)"/>
        <path class="cls-14" d="M1659,683a8.78,8.78,0,0,0,2.37-3.24,21.08,21.08,0,0,0,1.13-3.57,10.8,10.8,0,0,0-2.21-4.39,8.27,8.27,0,0,0-6.48-3.13,15.67,15.67,0,0,0-4.12.62,4.21,4.21,0,0,1,2,1.29,8.22,8.22,0,0,1,2,5.72,12.53,12.53,0,0,1-.29,2.5,10.39,10.39,0,0,1,.29,2.5,12.45,12.45,0,0,1-.44,3.24,13.56,13.56,0,0,1-2.34,5l5.26-3.87Z" transform="translate(0 0)"/>
        <path class="cls-14" d="M1642.93,692v-9.28c0-5.26.35-8.7,1-10.36-.35.28-.7.57-1,.88V638.65h-2.8v58.83c.93-.69,1.87-1.37,2.8-2.07Z" transform="translate(0 0)"/>
      </g>
      <path id="bBottom-2" data-name="bBottom" class="cls-15" d="M1783.08,642.07c-22.46-.43-35.57-10.51-35.57-25.92,0-17,11.81-27.07,34.27-27.07,13.54,0,19,0,32.83.72h37.88v13.1h-8.93v64.37h8.93v13.1h-37.88c-15,0-17.56.72-27.36.72-17.27,0-27.5-7.05-27.5-20C1759.75,649.84,1768.25,642.36,1783.08,642.07Zm18.14,1.44h-.72c-10.94,0-17.28,5.47-17.28,14.69,0,8.49,4.61,14,16.71,14h1.29Zm0-8.5V597.86h-1.73c-12.38,0-19.15,6.48-19.15,18.29,0,12.1,6.91,18.86,20.45,18.86Z" transform="translate(0 0)"/>
      <path id="bFace-2" data-name="bFace" class="cls-16" d="M1781.78,594.08c-21.25,0-33,9-34.16,24.38,1.26,14.09,14.14,23.2,35.46,23.61v5c-13.75.27-22,6.72-23.18,16.6,1.3,11.3,11.27,17.42,27.35,17.42,9.8,0,12.39-.72,27.36-.72h37.88v-8.1h-8.93V602.9h8.93v-8.1h-37.88C1800.79,594.08,1795.32,594.08,1781.78,594.08Zm19.44,54.43v28.65h-1.29c-12.1,0-16.71-5.47-16.71-14a16.82,16.82,0,0,1,.18-2.4,19.9,19.9,0,0,1-.18-2.6c0-9.22,6.34-14.69,17.28-14.69h.72Zm0-45.65V640h-.43c-13.54,0-20.45-6.76-20.45-18.86,0-.86.05-1.68.12-2.48s-.12-1.65-.12-2.52c0-11.81,6.77-18.29,19.15-18.29h1.73Z" transform="translate(0 0)"/>
      <g id="dotsBottom-5" data-name="dotsBottom">
        <path class="cls-11" d="M1698.44,599.68v10.81a1.87,1.87,0,0,0,2.81,1.63l9.37-5.41a1.88,1.88,0,0,0,0-3.25l-9.37-5.41A1.87,1.87,0,0,0,1698.44,599.68Z" transform="translate(0 0)"/>
        <path class="cls-11" d="M1693.44,629.68v10.81a1.87,1.87,0,0,0,2.81,1.63l9.37-5.41a1.88,1.88,0,0,0,0-3.25l-9.37-5.41A1.87,1.87,0,0,0,1693.44,629.68Z" transform="translate(0 0)"/>
        <path class="cls-11" d="M1688.44,659.68v10.81a1.87,1.87,0,0,0,2.81,1.63l9.37-5.41a1.88,1.88,0,0,0,0-3.25l-9.37-5.41A1.87,1.87,0,0,0,1688.44,659.68Z" transform="translate(0 0)"/>
      </g>
      <g id="dotsFace-5" data-name="dotsFace">
        <path class="cls-12" d="M1701.25,612.12l7.86-4.53-7.86-4.54a1.87,1.87,0,0,0-2.81,1.63v5.81A1.87,1.87,0,0,0,1701.25,612.12Z" transform="translate(0 0)"/>
        <path class="cls-12" d="M1696.25,642.12l7.86-4.53-7.86-4.54a1.87,1.87,0,0,0-2.81,1.63v5.81A1.87,1.87,0,0,0,1696.25,642.12Z" transform="translate(0 0)"/>
        <path class="cls-12" d="M1691.25,672.12l7.86-4.53-7.86-4.54a1.87,1.87,0,0,0-2.81,1.63v5.81A1.87,1.87,0,0,0,1691.25,672.12Z" transform="translate(0 0)"/>
      </g>
    </g>
    <g id="de3_horizon-2" data-name="de3_horizon">
      <g id="base-6" data-name="base">
        <polygon class="cls-2" points="2200 519.62 2100 577.35 2100 692.82 2200 750.55 2300 692.82 2300 577.35 2200 519.62"/>
        <polygon class="cls-2" points="2000 519.61 1900 577.35 1900 692.82 2000 750.55 2100 692.82 2100 577.35 2000 519.61"/>
      </g>
      <g id="bottom-6" data-name="bottom">
        <path id="left-6" data-name="left" class="cls-4" d="M1900,684.16v15a15,15,0,0,0,7.5,13l85,49.07a15,15,0,0,0,15,0l92.5-53.4,92.49,53.4a15,15,0,0,0,15,0l85-49.07a15,15,0,0,0,7.51-13v-15Z" transform="translate(0 0)"/>
        <g id="right-6" data-name="right">
          <path class="cls-3" d="M2100,692.82l-100,55.41v15a15,15,0,0,0,7.5-2l92.5-53.4v-15" transform="translate(0 0)"/>
          <path class="cls-3" d="M2300,699.16a15,15,0,0,1-7.51,13l-85,49.07a15,15,0,0,1-7.5,2v-15l100-64.08Z" transform="translate(0 0)"/>
        </g>
      </g>
      <path id="edge-6" data-name="edge" class="cls-5" d="M2192.5,524l-92.5,53.4-92.5-53.41a15,15,0,0,0-15,0l-85,49.08a15,15,0,0,0-7.5,13v98.15a15,15,0,0,0,7.5,13l85,49.07a15,15,0,0,0,15,0l92.5-53.4,92.5,53.41a15,15,0,0,0,15,0l85-49.08a15,15,0,0,0,7.5-13V586a15,15,0,0,0-7.5-13l-85-49.07A15,15,0,0,0,2192.5,524Z" transform="translate(0 0)"/>
      <path id="face-6" data-name="face" class="cls-6" d="M2192.5,528.57,2100,582l-92.5-53.41a15,15,0,0,0-15,0l-81,46.77a15,15,0,0,0-7.5,13v93.53a15,15,0,0,0,7.5,13l81,46.77a15,15,0,0,0,15,0L2100,688.2l92.5,53.41a15,15,0,0,0,15,0l81-46.77a15,15,0,0,0,7.5-13V588.32a15,15,0,0,0-7.5-13l-81-46.76A15,15,0,0,0,2192.5,528.57Z" transform="translate(0 0)"/>
      <g id="deBottom-2" data-name="deBottom">
        <path class="cls-17" d="M1975.69,588.36c16.42,0,26.35,9.29,26.35,22.68s-9.86,22.61-26.28,22.61H1941.2V627.1h4.46V594.92h-4.46v-6.56Zm-8.64,4.4v36.43h.65c8.21,0,13.61-6.12,13.61-18.22s-5.33-18.21-13.18-18.21Z" transform="translate(0 0)"/>
        <path class="cls-17" d="M2029.8,652.19v14.19h-5l-6.7-9h-10.87V671.7h7v-5.11h4.83v15.63h-4.83v-5.33h-7V692.3H2021c0-6.63,3.1-10.95,9.08-10.95h1.08v16.13h-49.54v-6.55h4.46V658.74h-4.46v-6.55Z" transform="translate(0 0)"/>
        <path class="cls-17" d="M2006.06,594.51l4.65-1.51V575.39h3.13v16.52l10.58-3.43V572.69h3.14v14.77l4.21-1.38v11.25l-4.21,1.4v15.93l4.21-1.27v11.14l-4.21,1.4v17.6h-3.14V626.9l-10.58,3.39v16.05h-3.13V631.43l-4.65,1.52V621.7l4.65-1.51V604.12l-4.65,1.52Zm18.36,5.22-10.58,3.36v16.14l10.58-3.44Z" transform="translate(0 0)"/>
        <path class="cls-17" d="M2038.92,633.66v34.55a16.22,16.22,0,0,1,10.9-4.53,8.27,8.27,0,0,1,6.48,3.13,10.48,10.48,0,0,1,2.49,6.48,15.78,15.78,0,0,1-1.41,6.48A8.78,8.78,0,0,1,2055,683l-2.92,2.7q-8,5.84-16,11.77V633.66Zm8.74,36.93a4.19,4.19,0,0,0-3.34-1.51q-2.6,0-4.22,2.91c-.79,1.52-1.18,5.08-1.18,10.7V692q.11.43,6-5.29a14,14,0,0,0,4.22-7.13,12.86,12.86,0,0,0,.43-3.23A8.23,8.23,0,0,0,2047.66,670.59Z" transform="translate(0 0)"/>
      </g>
      <g id="deFace-2" data-name="deFace">
        <path class="cls-18" d="M2001.93,613.55c-1.17-12-10.86-20.19-26.24-20.19h-3.59c5.62,1.82,9.21,7.75,9.21,17.61,0,.87,0,1.7-.09,2.5s.09,1.64.09,2.5c0,10.06-3.75,16-9.72,17.68h4.17C1991.14,633.65,2000.76,625.57,2001.93,613.55Z" transform="translate(0 0)"/>
        <polygon class="cls-18" points="1967.05 629.19 1967.05 597.75 1967.05 593.36 1941.2 593.36 1941.2 594.91 1945.66 594.91 1945.66 599.91 1945.66 627.1 1945.66 632.1 1941.2 632.1 1941.2 633.65 1967.05 633.65 1967.05 629.19"/>
        <path class="cls-18" d="M2021,697.3h-13.75V676.89h7v5.33h4.83V671.59h-4.83v5.11h-7V657.38h10.87l6.7,9h5v-9.19h-48.17v1.55h4.46v37.19h-4.46v1.55h49.54V686.35h-1.08C2024.11,686.35,2021,690.67,2021,697.3Z" transform="translate(0 0)"/>
        <path class="cls-18" d="M2027.56,587.46v-9.77h-3.14v15.79l-10.58,3.43V580.39h-3.13V598l-4.65,1.51v6.13l4.65-1.52v21.07l-4.65,1.51V633l4.65-1.52v14.91h3.13V630.29l10.58-3.39v16.63h3.14v-17.6l4.21-1.4v-6.14l-4.21,1.27V598.73l4.21-1.4v-6.25l-4.21,1.38Zm-3.14,17.27v16.06l-10.58,3.44V603.09l10.58-3.36Z" transform="translate(0 0)"/>
        <path class="cls-18" d="M2055,683a8.78,8.78,0,0,0,2.37-3.24,19.42,19.42,0,0,0,1.13-3.57,10.86,10.86,0,0,0-2.21-4.39,8.27,8.27,0,0,0-6.48-3.13,15.73,15.73,0,0,0-4.12.62,4.17,4.17,0,0,1,2,1.29,8.23,8.23,0,0,1,2,5.73,12.42,12.42,0,0,1-.28,2.49,11,11,0,0,1,.28,2.51,12.86,12.86,0,0,1-.43,3.23,13.66,13.66,0,0,1-2.35,5c1.76-1.28,3.51-2.59,5.26-3.87Z" transform="translate(0 0)"/>
        <path class="cls-18" d="M2038.92,692v-9.28c0-5.26.35-8.7,1-10.36-.35.28-.7.57-1,.88V638.66h-2.81v58.82l2.81-2.07Z" transform="translate(0 0)"/>
      </g>
      <g id="fgBottom-2" data-name="fgBottom">
        <path class="cls-19" d="M2179.9,613.84v4h-7.85V604.12h6.84l7.34,8.35c10.52-.22,15.77-7.27,15.77-17.21,0-10.15-5.83-17.28-14.11-17.28v11.59h4.18v6.56h-24.49v-6.56h4v-9.79c6.55-5,14.9-7.42,23.33-7.42,17.13,0,28.66,9.44,28.66,23.26,0,14.19-11.67,23.48-28.66,23.48C2188.68,619.1,2182.27,616.57,2179.9,613.84Z" transform="translate(0 0)"/>
        <path class="cls-19" d="M2211.61,682.13V668h5l6.7,9h10.87V661.18h-8.71V667h-4.83V650.38h4.83V656h8.71v-12.6h-4.54v-6.55h30.17v6.55h-4.46v32.19h4.46v6.55Z" transform="translate(0 0)"/>
        <path class="cls-19" d="M2206.94,676l-4.64,1.52v17.61h-3.13V678.58L2188.58,682v15.8h-3.13V683l-4.21,1.38V673.17l4.21-1.4V655.84l-4.21,1.27V646l4.21-1.41V627h3.13v16.63l10.59-3.39V624.15h3.13v14.91l4.64-1.52v11.25l-4.64,1.51v16.08l4.64-1.53Zm-18.36-5.22,10.59-3.36V651.26l-10.59,3.44Z" transform="translate(0 0)"/>
        <path class="cls-19" d="M2160.09,636.84V602.28a16.29,16.29,0,0,1-10.91,4.54,8.28,8.28,0,0,1-6.48-3.14,10.53,10.53,0,0,1-2.48-6.48,15.91,15.91,0,0,1,1.4-6.48,9,9,0,0,1,2.38-3.24q1.41-1.29,2.91-2.7,8-5.82,16-11.77v63.83Zm-8.75-36.94a4.22,4.22,0,0,0,3.35,1.52c1.73,0,3.13-1,4.21-2.92.8-1.51,1.19-5.08,1.19-10.69v-9.29q-.11-.43-6.05,5.29a14,14,0,0,0-4.21,7.13,12.44,12.44,0,0,0-.43,3.24A8.24,8.24,0,0,0,2151.34,599.9Z" transform="translate(0 0)"/>
      </g>
      <g id="fgFace-2" data-name="fgFace">
        <path class="cls-20" d="M2192.07,594.57h-4.18V578c8.28,0,14.11,7.13,14.11,17.28,0,.87-.05,1.71-.13,2.53a24.72,24.72,0,0,1,.13,2.47c0,9.94-5.25,17-15.77,17.21l-7.34-8.35h-6.84v8.75h7.85v-4c2.37,2.73,8.78,5.26,15,5.26,16,0,27.22-8.2,28.53-21-1.3-12.46-12.44-20.78-28.53-20.78-8.43,0-16.78,2.38-23.33,7.42v9.79h-4v1.56h24.49Z" transform="translate(0 0)"/>
        <polygon class="cls-20" points="2229.61 643.39 2234.15 643.39 2234.15 648.39 2234.15 655.99 2234.15 660.99 2225.44 660.99 2225.44 655.99 2225.44 655.38 2220.61 655.38 2220.61 667.01 2225.44 667.01 2225.44 666.18 2225.44 661.18 2234.15 661.18 2234.15 666.18 2234.15 676.95 2234.15 681.95 2223.28 681.95 2216.58 672.95 2211.61 672.95 2211.61 682.13 2259.78 682.13 2259.78 680.58 2255.32 680.58 2255.32 675.58 2255.32 648.39 2255.32 643.39 2259.78 643.39 2259.78 641.84 2229.61 641.84 2229.61 643.39"/>
        <path class="cls-20" d="M2202.3,639.06v-9.91h-3.13V645.2l-10.59,3.39V632h-3.13v17.6l-4.21,1.41v6.14l4.21-1.27v20.93l-4.21,1.4v6.25l4.21-1.38v14.77h3.13V682l10.59-3.43v16.53h3.13V677.5l4.64-1.52v-6.13l-4.64,1.53V650.3l4.64-1.51v-6.25l-4.64,1.52Zm-3.13,17.2V672.4l-10.59,3.36V654.7l10.59-3.44Z" transform="translate(0 0)"/>
        <g>
          <path class="cls-20" d="M2160.09,583.52v9.29c0,5.25-.35,8.69-1,10.35.35-.28.7-.57,1-.88v34.56h2.81V578l-2.81,2.07Z" transform="translate(0 0)"/>
          <path class="cls-20" d="M2144,592.48a9,9,0,0,0-2.38,3.24,20.39,20.39,0,0,0-1.12,3.57,10.84,10.84,0,0,0,2.2,4.39,8.28,8.28,0,0,0,6.48,3.14,15.61,15.61,0,0,0,4.12-.63,4.14,4.14,0,0,1-2-1.29,8.24,8.24,0,0,1-1.94-5.72v-5a12.44,12.44,0,0,1,.43-3.24,13.79,13.79,0,0,1,2.34-5c-1.75,1.29-3.5,2.59-5.26,3.87Q2145.41,591.19,2144,592.48Z" transform="translate(0 0)"/>
        </g>
      </g>
      <g id="dotsBottom-6" data-name="dotsBottom">
        <path class="cls-11" d="M2098.44,599.68v10.81a1.87,1.87,0,0,0,2.81,1.63l9.37-5.41a1.88,1.88,0,0,0,0-3.25l-9.37-5.41A1.87,1.87,0,0,0,2098.44,599.68Z" transform="translate(0 0)"/>
        <path class="cls-11" d="M2093.44,629.68v10.81a1.87,1.87,0,0,0,2.81,1.63l9.37-5.41a1.88,1.88,0,0,0,0-3.25l-9.37-5.41A1.87,1.87,0,0,0,2093.44,629.68Z" transform="translate(0 0)"/>
        <path class="cls-11" d="M2088.44,659.68v10.81a1.87,1.87,0,0,0,2.81,1.63l9.37-5.41a1.88,1.88,0,0,0,0-3.25l-9.37-5.41A1.87,1.87,0,0,0,2088.44,659.68Z" transform="translate(0 0)"/>
      </g>
      <g id="dotsFace-6" data-name="dotsFace">
        <path class="cls-12" d="M2101.25,612.12l7.86-4.53-7.86-4.54a1.87,1.87,0,0,0-2.81,1.63v5.81A1.87,1.87,0,0,0,2101.25,612.12Z" transform="translate(0 0)"/>
        <path class="cls-12" d="M2096.25,642.12l7.86-4.53-7.86-4.54a1.87,1.87,0,0,0-2.81,1.63v5.81A1.87,1.87,0,0,0,2096.25,642.12Z" transform="translate(0 0)"/>
        <path class="cls-12" d="M2091.25,672.12l7.86-4.53-7.86-4.54a1.87,1.87,0,0,0-2.81,1.63v5.81A1.87,1.87,0,0,0,2091.25,672.12Z" transform="translate(0 0)"/>
      </g>
    </g>
    <g id="f2_descend">
      <g id="base-7" data-name="base">
        <polygon class="cls-2" points="1700 692.83 1600 750.56 1600 866.03 1700 923.76 1800 866.03 1800 750.56 1700 692.83"/>
        <polygon class="cls-2" points="1500 692.82 1400 750.56 1400 866.03 1500 923.76 1600 866.03 1600 750.56 1500 692.82"/>
      </g>
      <g id="bottom-7" data-name="bottom">
        <path id="leftNew" class="cls-21" d="M1400,857.37v15a15,15,0,0,0,7.5,13l85,49.07a15,15,0,0,0,15,0L1600,881l92.5,53.4a15,15,0,0,0,15,0l85-49.07a15,15,0,0,0,7.5-13v-15Z" transform="translate(0 0)"/>
        <g id="rightNew">
          <path class="cls-22" d="M1600,866l-100,55.41v15a15,15,0,0,0,7.5-2L1600,881V866" transform="translate(0 0)"/>
          <path class="cls-22" d="M1800,872.37a15,15,0,0,1-7.5,13l-85,49.07a15,15,0,0,1-7.5,2v-15l100-64.07Z" transform="translate(0 0)"/>
        </g>
      </g>
      <path id="edgeNew" class="cls-23" d="M1692.5,697.16l-92.5,53.4-92.5-53.41a15,15,0,0,0-15,0l-85,49.08a15,15,0,0,0-7.5,13v98.15a15,15,0,0,0,7.5,13l85,49.07a15,15,0,0,0,15,0L1600,866l92.5,53.41a15,15,0,0,0,15,0l85-49.08a15,15,0,0,0,7.5-13V759.22a15,15,0,0,0-7.5-13l-85-49.07A15,15,0,0,0,1692.5,697.16Z" transform="translate(0 0)"/>
      <path id="faceNew" class="cls-24" d="M1692.5,701.78l-92.5,53.4-92.5-53.41a15,15,0,0,0-15,0l-81,46.77a15,15,0,0,0-7.5,13v93.53a15,15,0,0,0,7.5,13l81,46.76a15,15,0,0,0,15,0l92.5-53.4,92.5,53.41a15,15,0,0,0,15,0l81-46.77a15,15,0,0,0,7.5-13V761.53a15,15,0,0,0-7.5-13l-81-46.76A15,15,0,0,0,1692.5,701.78Z" transform="translate(0 0)"/>
      <g id="deBottom-3" data-name="deBottom">
        <path class="cls-17" d="M1475.69,761.57c16.42,0,26.36,9.29,26.36,22.68s-9.87,22.61-26.29,22.61H1441.2v-6.55h4.46V768.12h-4.46v-6.55Zm-8.64,4.39v36.43h.65c8.21,0,13.61-6.12,13.61-18.21S1476,766,1468.13,766Z" transform="translate(0 0)"/>
        <path class="cls-17" d="M1529.8,825.4v14.18h-5l-6.7-9h-10.87v14.33h7V839.8h4.83v15.62h-4.83v-5.33h-7V865.5H1521c0-6.62,3.1-10.94,9.08-10.94h1.08v16.13h-49.54v-6.56h4.46V832h-4.46V825.4Z" transform="translate(0 0)"/>
        <path class="cls-17" d="M1506.07,767.72l4.64-1.52V748.59h3.13v16.53l10.58-3.43v-15.8h3.14v14.77l4.21-1.38v11.25l-4.21,1.4v15.93l4.21-1.27v11.14l-4.21,1.4v17.61h-3.14V800.11l-10.58,3.38v16.06h-3.13V804.63l-4.64,1.53V794.9l4.64-1.51V777.32l-4.64,1.52Zm18.35,5.22-10.58,3.36v16.14l10.58-3.44Z" transform="translate(0 0)"/>
        <path class="cls-17" d="M1538.92,806.86v34.56a16.29,16.29,0,0,1,10.91-4.54,8.33,8.33,0,0,1,6.48,3.13,10.58,10.58,0,0,1,2.48,6.49,15.84,15.84,0,0,1-1.4,6.47,9.05,9.05,0,0,1-2.38,3.25l-2.92,2.7q-8,5.82-16,11.77V806.86Zm8.75,36.94a4.23,4.23,0,0,0-3.35-1.52c-1.73,0-3.13,1-4.21,2.92-.8,1.51-1.19,5.08-1.19,10.69v9.29q.11.44,6-5.29a14.07,14.07,0,0,0,4.21-7.13,12.88,12.88,0,0,0,.43-3.24A8.24,8.24,0,0,0,1547.67,843.8Z" transform="translate(0 0)"/>
      </g>
      <g id="deFace-3" data-name="deFace">
        <path class="cls-18" d="M1501.93,786.75c-1.17-12-10.86-20.18-26.24-20.18h-3.59c5.62,1.82,9.21,7.75,9.21,17.61,0,.86,0,1.69-.09,2.5s.09,1.63.09,2.5c0,10.06-3.75,16-9.72,17.68h4.17C1491.14,806.86,1500.76,798.78,1501.93,786.75Z" transform="translate(0 0)"/>
        <polygon class="cls-18" points="1467.05 802.39 1467.05 770.96 1467.05 766.57 1441.2 766.57 1441.2 768.12 1445.66 768.12 1445.66 773.12 1445.66 800.31 1445.66 805.31 1441.2 805.31 1441.2 806.86 1467.05 806.86 1467.05 802.39"/>
        <path class="cls-18" d="M1521,870.5h-13.75V850.09h7v5.33h4.83V844.8h-4.83v5.11h-7V830.58h10.87l6.7,9h5V830.4h-48.17V832h4.46v37.18h-4.46v1.56h49.54V859.56h-1.08C1524.11,859.56,1521,863.88,1521,870.5Z" transform="translate(0 0)"/>
        <path class="cls-18" d="M1527.56,760.66v-9.77h-3.14v15.8l-10.58,3.43V753.59h-3.13V771.2l-4.64,1.52v6.12l4.64-1.52v21.07l-4.64,1.51v6.26l4.64-1.53v14.92h3.13V803.49l10.58-3.38v16.63h3.14V799.13l4.21-1.4v-6.14l-4.21,1.27V771.93l4.21-1.4v-6.25l-4.21,1.38Zm-3.14,17.28V794l-10.58,3.44V776.3l10.58-3.36Z" transform="translate(0 0)"/>
        <path class="cls-18" d="M1555,856.22a9.05,9.05,0,0,0,2.38-3.25,20,20,0,0,0,1.12-3.56,10.94,10.94,0,0,0-2.2-4.4,8.33,8.33,0,0,0-6.48-3.13,15.75,15.75,0,0,0-4.13.63,4.17,4.17,0,0,1,2,1.29,8.24,8.24,0,0,1,1.94,5.72,12.42,12.42,0,0,1-.28,2.49,11,11,0,0,1,.28,2.51,12.88,12.88,0,0,1-.43,3.24,13.81,13.81,0,0,1-2.35,5c1.76-1.29,3.51-2.6,5.26-3.87Z" transform="translate(0 0)"/>
        <path class="cls-18" d="M1538.92,865.18v-9.29c0-5.26.35-8.69,1-10.35-.35.28-.7.57-1,.88V811.86h-2.81v58.83l2.81-2.07Z" transform="translate(0 0)"/>
      </g>
      <path id="fBottom" class="cls-25" d="M1651.83,853.58V825.21h9.94l13.39,18h21.74V811.67h-17.42v11.67h-9.65V790.07h9.65v11.24h17.42v-25.2h-9.07V763h60.34v13.11h-8.93v64.36h8.93v13.11Z" transform="translate(0 0)"/>
      <polygon id="fFace" class="cls-26" points="1687.83 776.11 1696.9 776.11 1696.9 781.11 1696.9 801.31 1696.9 806.31 1679.48 806.31 1679.48 801.31 1679.48 795.07 1669.83 795.07 1669.83 823.34 1679.48 823.34 1679.48 816.67 1679.48 811.67 1696.9 811.67 1696.9 816.67 1696.9 843.21 1696.9 848.21 1675.16 848.21 1661.77 830.21 1651.83 830.21 1651.83 853.58 1748.16 853.58 1748.16 845.47 1739.24 845.47 1739.24 840.47 1739.24 781.11 1739.24 776.11 1748.16 776.11 1748.16 768 1687.83 768 1687.83 776.11"/>
      <g id="dotsBottom-7" data-name="dotsBottom">
        <path class="cls-11" d="M1597.12,776.79v13a2.25,2.25,0,0,0,3.37,2l11.26-6.5a2.25,2.25,0,0,0,0-3.9l-11.26-6.5A2.25,2.25,0,0,0,1597.12,776.79Z" transform="translate(0 0)"/>
        <path class="cls-11" d="M1587.12,826.79v13a2.25,2.25,0,0,0,3.37,2l11.26-6.5a2.25,2.25,0,0,0,0-3.9l-11.26-6.5A2.25,2.25,0,0,0,1587.12,826.79Z" transform="translate(0 0)"/>
      </g>
      <g id="dotsFace-7" data-name="dotsFace">
        <path class="cls-12" d="M1600.49,791.74l10.3-6-10.3-5.95a2.25,2.25,0,0,0-3.37,1.95v8A2.25,2.25,0,0,0,1600.49,791.74Z" transform="translate(0 0)"/>
        <path class="cls-12" d="M1590.49,841.74l10.3-6-10.3-5.95a2.25,2.25,0,0,0-3.37,1.95v8A2.25,2.25,0,0,0,1590.49,841.74Z" transform="translate(0 0)"/>
      </g>
    </g>
    <path id="outlineFirst" class="cls-27" d="M2105,219.39l-97.5-56.29a15,15,0,0,0-15,0L1895,219.39a15,15,0,0,0-7.5,13v98.14a15,15,0,0,1-7.5,13l-85,49.07a15,15,0,0,0-7.5,13v98.15a15,15,0,0,1-7.5,13l-85,49.07a15,15,0,0,0-7.5,13v98.14a15,15,0,0,1-7.5,13L1595,739a15,15,0,0,0-7.5,13V864.58a15,15,0,0,0,7.5,13l97.5,56.29a15,15,0,0,0,15,0l97.5-56.29a15,15,0,0,0,7.5-13V766.43a15,15,0,0,1,7.5-13l85-49.07a15,15,0,0,0,7.5-13V593.23a15,15,0,0,1,7.5-13l85-49.08a15,15,0,0,0,7.5-13V420a15,15,0,0,1,7.5-13L2105,358a15,15,0,0,0,7.5-13V232.39A15,15,0,0,0,2105,219.39Z" transform="translate(0 0)"/>
    <text id="textFirstShadow" class="cls-28" transform="translate(2062.4 145.61)">G<tspan class="cls-29" x="45.2" y="-30">7</tspan></text>
    <text id="textFirst" class="cls-30" transform="translate(2062.4 140.61)">G<tspan class="cls-29" x="45.2" y="-30">7</tspan></text>
    <polygon id="iconSuccess" class="cls-31" points="1654 221.17 1570.3 313.22 1546 294.81 1532.5 294.81 1570.3 356.17 1667.5 221.17 1654 221.17"/>
  </g>
</svg>
