<svg viewBox="0 0 2200 923.76">
  <rect class="background" width="2200" height="923.76"/>
  <g class="cd9_ascend_new">
    <g class="bottom">
      <path class="right" d="M700,245.94,400,419.14V526a15,15,0,0,0,7.5,13l85,49.08a15,15,0,0,0,15,0l85-49.08a15,15,0,0,0,7.5-13V419.14h0l92.5-53.4a15,15,0,0,0,7.5-13Z"/>
      <path class="left" d="M400,511v15a15,15,0,0,0,7.5,13l85,49.08a15,15,0,0,0,7.5,2V575Z"/>
    </g>
    <path class="edgeNew" d="M592.5,177.54l-85,49.07a15,15,0,0,0-7.5,13V346.41l-92.5,53.4a15,15,0,0,0-7.5,13V511a15,15,0,0,0,7.5,13l85,49.08a15,15,0,0,0,15,0l85-49.08a15,15,0,0,0,7.5-13V404.14l92.5-53.4a15,15,0,0,0,7.5-13V239.6a15,15,0,0,0-7.5-13l-85-49.07A15,15,0,0,0,592.5,177.54Z"/>
    <path class="faceNew" d="M592.5,182.15l-81,46.77a15,15,0,0,0-7.5,13V348.72l-92.5,53.4a15,15,0,0,0-7.5,13v93.52a15,15,0,0,0,7.5,13l81,46.76a15,15,0,0,0,15,0l81-46.76a15,15,0,0,0,7.5-13V401.83l92.5-53.4a15,15,0,0,0,7.5-13V241.91a15,15,0,0,0-7.5-13l-81-46.77A15,15,0,0,0,592.5,182.15Z"/>
    <g class="dotsBottom">
      <path d="M579.1,393l-9.36-5.4a1.88,1.88,0,0,0-2.82,1.62V400a1.88,1.88,0,0,0,2.82,1.62l9.36-5.4A1.89,1.89,0,0,0,579.1,393Z"/>
      <path d="M555.62,373.65l-9.36-5.4a1.88,1.88,0,0,0-2.82,1.62v10.82a1.88,1.88,0,0,0,2.82,1.62l9.36-5.4A1.89,1.89,0,0,0,555.62,373.65Z"/>
      <path d="M532.14,354.32l-9.36-5.4a1.88,1.88,0,0,0-2.82,1.62v10.82a1.88,1.88,0,0,0,2.82,1.62l9.36-5.4A1.89,1.89,0,0,0,532.14,354.32Z"/>
    </g>
    <g class="dotsFace">
      <path d="M569.74,401.64l7.85-4.53-7.85-4.53a1.88,1.88,0,0,0-2.82,1.62V400A1.88,1.88,0,0,0,569.74,401.64Z"/>
      <path d="M546.26,382.31l7.85-4.53-7.85-4.53a1.88,1.88,0,0,0-2.82,1.62v5.82A1.88,1.88,0,0,0,546.26,382.31Z"/>
      <path d="M522.78,363l7.85-4.53-7.85-4.53a1.88,1.88,0,0,0-2.82,1.62v5.82A1.88,1.88,0,0,0,522.78,363Z"/>
    </g>
    <g class="cdBottom">
      <path d="M477.82,463.76l.54-.93,9.73,5.61c.8,7.7-1.51,16-5.72,23.31-8.57,14.84-22.5,20.1-34.47,13.19-12.29-7.09-14.82-21.28-6.36-35.93,3.17-5.49,7.18-9,11.58-10.7l-3-1.73,3.93-6.79,13.15,7.59-3.42,5.93-11.79.84c-4.57,7.92-1.65,17.26,7,22.26,9.1,5.26,17.15,3.42,20.93-3.13A15.69,15.69,0,0,0,482,477.5C475.73,473.86,475.16,468.38,477.82,463.76Z"/>
      <path d="M519.64,462.07c8.21-14.22,21.22-18.18,32.82-11.48s14.65,19.84,6.44,34.06l-17.28,29.94L536,511.31l2.23-3.87L510.3,491.35l-2.23,3.87-5.67-3.28Zm-.51,9.68L550.68,490l.32-.57c4.11-7.1,1.51-14.84-9-20.89s-18.44-4.49-22.36,2.3Z"/>
      <path d="M461.66,447.13l1-4.78-15.26-8.8,1.57-2.72,14.31,8.27,2.32-10.88-13.68-7.9,1.57-2.71L466.3,425l.91-4.34,9.75,5.63-.9,4.35,13.8,8,1-4.28,9.65,5.57-.89,4.35,15.25,8.8-1.57,2.71-14.4-8.31-2.36,10.86,13.9,8L508.87,469,496,461.57l-1,4.78-9.74-5.62,1-4.78-13.91-8-1,4.79Zm13.71-13.29L473,444.69l14,8.07,2.31-10.89Z"/>
      <path d="M520.49,423.53l23.94,13.82,6,3.46a16.26,16.26,0,0,1,1.52-11.72,8.28,8.28,0,0,1,6-4,10.5,10.5,0,0,1,6.85,1.09,15.67,15.67,0,0,1,4.91,4.45,9,9,0,0,1,1.62,3.68c.28,1.24.57,2.54.88,3.88q1.05,9.84,2.2,19.73L519.09,426Zm36.36,10.89a4.21,4.21,0,0,0-3,2.15q-1.3,2.24.42,5.1,1.37,2.16,8.66,6.38l8,4.64q.42.12-1.56-7.88a14.1,14.1,0,0,0-4.07-7.22,13,13,0,0,0-2.59-2A8.24,8.24,0,0,0,556.85,434.42Z"/>
    </g>
    <g class="abBottom">
      <path d="M561,284.13c-5.8,9.62-13.44,12.77-20.12,8.92-7.35-4.25-8.77-11.88-3.15-21.61,3.38-5.86,4.75-8.23,8.52-14l9.47-16.4,5.67,3.28-2.23,3.86L587,264.24l2.23-3.87,5.67,3.28-9.47,16.4c-3.74,6.48-4.08,7.79-6.52,12-4.32,7.48-9.94,10.14-15.55,6.9C558.5,296.17,557.38,290.62,561,284.13Zm5.16-7.5-.18.31c-2.73,4.74-2,8.85,2,11.16,3.68,2.12,7.2,1.49,10.23-3.74l.32-.57Zm-3.68-2.12-16.09-9.29-.43.74c-3.09,5.37-2,9.92,3.13,12.87s9.9,1.72,13.29-4.14Z"/>
      <path d="M639,258.68l-6.95-7.83-2.44,4.24-6.3-3.64,8.06-14,6.3,3.64-2.56,4.43,26.13,30.79-10.59,18.33-40.71-7-2.59,4.49-5.68-3.27L617.84,261l5.67,3.28-2.26,3.93,10.92,2.39Zm14.47,16.42-10.15-11.51-4.79,8.29Z"/>
      <path d="M633.64,311.92l-1,4.78,15.26,8.8-1.57,2.72L632,320l-2.33,10.88,13.69,7.9-1.57,2.71L629,334.06l-.91,4.34-9.75-5.63.9-4.35-13.8-8-1,4.28-9.64-5.57.89-4.35L580.43,306l1.57-2.71,14.4,8.31,2.36-10.86-13.9-8,1.57-2.71,12.91,7.45,1-4.78,9.74,5.62-1,4.78,13.91,8,1-4.79Zm-13.71,13.29,2.39-10.85-14-8.07L606,317.18Z"/>
      <path d="M581.31,324.26l-23.94-13.82-6-3.46a16.26,16.26,0,0,1-1.52,11.72,8.28,8.28,0,0,1-6,4,10.5,10.5,0,0,1-6.85-1.09,15.67,15.67,0,0,1-4.91-4.45,8.9,8.9,0,0,1-1.62-3.68c-.28-1.24-.57-2.53-.88-3.88q-1-9.83-2.2-19.72l55.27,31.91ZM545,313.37a4.2,4.2,0,0,0,3-2.14q1.3-2.25-.42-5.11-1.37-2.16-8.66-6.37l-8.05-4.65q-.42-.12,1.56,7.89a14.07,14.07,0,0,0,4.07,7.21,12.33,12.33,0,0,0,2.59,2A8.24,8.24,0,0,0,545,313.37Z"/>
    </g>
    <g class="cdFace">
      <path d="M441.54,474a35.29,35.29,0,0,0-4.83,14.14,21.53,21.53,0,0,0,11.19,16.79c12,6.91,25.9,1.65,34.47-13.19a42.71,42.71,0,0,0,5.77-17.67c0-.21,0-.43-.05-.64l-9.73-5.61-.54.93a12.35,12.35,0,0,0-1.13,2.64,10.83,10.83,0,0,0,5.34,6.1v5a15.69,15.69,0,0,1-2.09,5.78c-3.78,6.55-11.83,8.39-20.93,3.13-6.79-3.92-10-10.51-8.93-17A15.19,15.19,0,0,1,452,464.15l11.79-.84,1.26-2.18-11-6.34-1.76,3,.83.48v5C448.72,465,444.71,468.52,441.54,474Z"/>
      <path d="M541.62,514.59l17.28-29.94a33.05,33.05,0,0,0,4.49-13c-.73-6.72-4.52-12.39-10.93-16.08-11.6-6.7-24.61-2.74-32.82,11.48l-15.08,26.12,3.51,2,2.23-3.87,27.88,16.09v5l-.07.12Zm-22.49-37.84v-5l.54-.94c3.92-6.79,12-8.31,22.36-2.3,8.57,4.95,11.86,11,10.53,17A12.19,12.19,0,0,1,551,494.4l-.32.57Z"/>
      <g>
        <polygon points="471.3 452.69 472.31 447.91 473.25 448.46 472.98 444.69 475.37 433.84 476.32 434.39 476.06 430.63 467.21 425.65 466.3 429.99 465.36 429.45 465.63 433.22 463.3 444.1 462.42 443.58 462.68 447.35 462.61 447.68 471.3 452.69"/>
        <polygon points="498.9 447.43 499.87 447.99 499.62 444.23 490.87 439.31 489.86 443.59 489.01 443.1 489.27 446.87 486.96 457.76 485.96 457.18 486.22 460.95 486.16 461.27 494.95 466.35 495.96 461.57 496.8 462.06 496.54 458.29 498.9 447.43"/>
      </g>
      <path d="M572.16,443.15c-.31-1.34-.6-2.64-.88-3.88a9,9,0,0,0-1.62-3.68,15.67,15.67,0,0,0-4.91-4.45,10.5,10.5,0,0,0-6.85-1.09,8.26,8.26,0,0,0-6,4.05,15.58,15.58,0,0,0-1.78,5.24c.07.49.15,1,.26,1.47l-.32,3.06,3.88,2.24.09-4.83a4.6,4.6,0,0,1-.2-4.71,4.21,4.21,0,0,1,3-2.15,8.24,8.24,0,0,1,5.93,1.18,13,13,0,0,1,2.59,2,14.1,14.1,0,0,1,4.07,7.22q2,8,1.56,7.88l-.17,3.15,2.94,1.69C573.22,452.73,572.67,447.93,572.16,443.15Z"/>
    </g>
    <g class="abFace">
      <path d="M563.36,299c5.61,3.24,11.23.58,15.55-6.9,2.44-4.25,2.78-5.55,6.52-12l7.31-12.65-3.51-2L587,269.24l-27.88-16.1v-5l.07-.11-3.51-2-9.47,16.4c-3.77,5.81-5.14,8.18-8.52,14a25.44,25.44,0,0,0-3.2,8.27,12.23,12.23,0,0,0,6.35,8.34c6.68,3.85,14.32.7,20.12-8.92v5a17.9,17.9,0,0,0-1.79,4.56A8.57,8.57,0,0,0,563.36,299Zm2.58-22,.18-.31,12.41,7.16v5l-.32.57c-3,5.23-6.55,5.86-10.23,3.74-3.23-1.87-4.36-4.93-3.21-8.55C563.93,282.41,564.3,279.79,565.94,276.94Zm-16.89,6.89c-4.13-2.39-5.65-5.82-4.44-9.88-.81-2.33-.39-5,1.31-8l.43-.74,16.09,9.29v5l-.1.18C559,285.55,554.29,286.86,549.05,283.83Z"/>
      <path d="M617.84,266l-14,24.19,3.51,2,2.59-4.49,40.71,7,8.87-15.35-24.41-28.77v-5l.4-.68-4.14-2.39-5.9,10.22,4.14,2.39,2.44-4.24,6.95,7.83v5l-6.87,11.91-10.92-2.39v-5l.1-.18Zm20.73,5.89,4.79-8.29,10.15,11.51v5l-14.94-3.22Z"/>
      <g>
        <polygon points="632 319.95 632.88 320.46 632.62 316.7 632.69 316.37 624 311.36 622.99 316.14 622.05 315.59 622.32 319.36 619.93 330.21 618.98 329.66 618.34 332.77 628.09 338.4 629 334.06 629.94 334.6 629.67 330.83 632 319.95"/>
        <polygon points="605.44 320.46 606.29 320.95 606.02 317.18 608.34 306.29 609.34 306.87 609.08 303.1 609.14 302.78 600.35 297.7 599.34 302.48 598.5 301.99 598.76 305.76 596.4 316.62 595.43 316.06 594.79 319.17 604.43 324.74 605.44 320.46"/>
      </g>
      <path d="M547.93,311.23v5a4.2,4.2,0,0,1-3,2.14,8.24,8.24,0,0,1-5.93-1.18,12.33,12.33,0,0,1-2.59-2,14.07,14.07,0,0,1-4.07-7.21l-1.56-7.89L531,297l-2.94-1.7c.55,4.8,1.1,9.6,1.61,14.38.31,1.35.6,2.64.88,3.88a8.9,8.9,0,0,0,1.62,3.68,15.67,15.67,0,0,0,4.91,4.45,10.5,10.5,0,0,0,6.85,1.09,8.28,8.28,0,0,0,6-4,15.7,15.7,0,0,0,1.78-5.25c-.07-.48-.26-1.47-.26-1.47l.32-3.06-3.88-2.24A4.55,4.55,0,0,1,547.93,311.23Z"/>
    </g>
  </g>
  <g class="f4_horizon">
    <g class="bottom">
      <path class="left" d="M300,684.16v15a15,15,0,0,0,7.5,13l85,49.07a15,15,0,0,0,15,0l92.5-53.4,92.5,53.41a15.06,15.06,0,0,0,15,0l85-49.08a15,15,0,0,0,7.5-13v-15Z"/>
      <g class="right">
        <path d="M500,692.82,400,748.23v15a15,15,0,0,0,7.5-2l92.5-53.4v-15"/>
        <path d="M700,699.16a15,15,0,0,1-7.5,13l-85,49.08a15,15,0,0,1-7.5,2v-15l100-64.08Z"/>
      </g>
    </g>
    <path class="edge" d="M592.5,524,500,577.35,407.5,524a15,15,0,0,0-15,0L307.5,573a15,15,0,0,0-7.5,13v98.15a15,15,0,0,0,7.5,13l85,49.08a15,15,0,0,0,15,0L500,692.82l92.5,53.41a15,15,0,0,0,15,0l85-49.08a15,15,0,0,0,7.5-13V586a15,15,0,0,0-7.5-13L607.5,524A15,15,0,0,0,592.5,524Z"/>
    <path class="face" d="M592.5,528.57,500,582l-92.5-53.4a15,15,0,0,0-15,0l-81,46.76a15,15,0,0,0-7.5,13v93.53a15,15,0,0,0,7.5,13l81,46.77a15,15,0,0,0,15,0L500,688.2l92.5,53.41a15,15,0,0,0,15,0l81-46.77a15,15,0,0,0,7.5-13V588.32a15,15,0,0,0-7.5-13l-81-46.76A15,15,0,0,0,592.5,528.57Z"/>
    <g class="dotsBottom">
      <path d="M484,605.58v9A1.57,1.57,0,0,0,486.3,616l7.81-4.51a1.57,1.57,0,0,0,0-2.71l-7.81-4.5A1.56,1.56,0,0,0,484,605.58Z"/>
      <path d="M484,655.58v9A1.57,1.57,0,0,0,486.3,666l7.81-4.51a1.57,1.57,0,0,0,0-2.71l-7.81-4.5A1.56,1.56,0,0,0,484,655.58Z"/>
      <path d="M504,605.58v9A1.57,1.57,0,0,0,506.3,616l7.81-4.51a1.57,1.57,0,0,0,0-2.71l-7.81-4.5A1.56,1.56,0,0,0,504,605.58Z"/>
      <path d="M504,655.58v9A1.57,1.57,0,0,0,506.3,666l7.81-4.51a1.57,1.57,0,0,0,0-2.71l-7.81-4.5A1.56,1.56,0,0,0,504,655.58Z"/>
    </g>
    <g class="dotsFace">
      <path d="M486.3,616l5.82-3.36-5.82-3.37a1.57,1.57,0,0,0-2.35,1.36v4A1.57,1.57,0,0,0,486.3,616Z"/>
      <path d="M486.3,666l5.82-3.36-5.82-3.37a1.57,1.57,0,0,0-2.35,1.36v4A1.57,1.57,0,0,0,486.3,666Z"/>
      <path d="M506.3,616l5.82-3.36-5.82-3.37a1.57,1.57,0,0,0-2.35,1.36v4A1.57,1.57,0,0,0,506.3,616Z"/>
      <path d="M506.3,666l5.82-3.36-5.82-3.37a1.57,1.57,0,0,0-2.35,1.36v4A1.57,1.57,0,0,0,506.3,666Z"/>
    </g>
    <path class="fBottom" d="M447.59,589.8v28.37h-9.94l-13.39-18H402.52V631.7h17.42V620h9.65V653.3h-9.65V642.07H402.52v25.2h9.07v13.1H351.25v-13.1h8.93V602.9h-8.93V589.8Z"/>
    <path class="aBottom" d="M629.74,624.21l6.62-19.87h-9.79V589.8h32.25v14.54H648.6l-27.22,76H579.05L550.39,602.9H540V589.8h64.52v13.1h-9.08l6.77,21.31Zm-14,41.48,9.79-29.09H606.41Z"/>
    <polygon class="fFace" points="351.25 602.9 360.18 602.9 360.18 607.9 360.18 667.27 360.18 672.27 351.25 672.27 351.25 680.37 411.59 680.37 411.59 672.27 402.52 672.27 402.52 667.27 402.52 647.07 402.52 642.07 419.94 642.07 419.94 647.07 419.94 653.3 429.59 653.3 429.59 625.04 419.94 625.04 419.94 631.7 419.94 636.7 402.52 636.7 402.52 631.7 402.52 605.17 402.52 600.17 424.26 600.17 437.65 618.17 447.59 618.17 447.59 594.8 351.25 594.8 351.25 602.9"/>
    <path class="aFace" d="M626.57,604.34h9.79v5l-6.62,19.87H602.23l-6.77-21.31v-5h9.08v-8.1H540v8.1h10.37l28.66,77.47h42.33l27.22-76h10.22V594.8H626.57Zm-1,37.26-9.79,29.09-9.36-29.09v-5h19.15Z"/>
  </g>
  <g class="cd9_ascend">
    <g class="bottom">
      <path class="right" d="M1500,245.94l-300,173.2V526a15,15,0,0,0,7.5,13l85,49.08a15,15,0,0,0,15,0l85-49.08a15,15,0,0,0,7.5-13V419.14h0l92.5-53.4a15,15,0,0,0,7.5-13Z"/>
      <path class="left" d="M1200,511v15a15,15,0,0,0,7.5,13l85,49.08a15,15,0,0,0,7.5,2V575Z"/>
    </g>
    <path class="edge" d="M1392.5,177.54l-85,49.07a15,15,0,0,0-7.5,13V346.41l-92.5,53.4a15,15,0,0,0-7.5,13V511a15,15,0,0,0,7.5,13l85,49.08a15,15,0,0,0,15,0l85-49.08a15,15,0,0,0,7.5-13V404.14l92.5-53.4a15,15,0,0,0,7.5-13V239.6a15,15,0,0,0-7.5-13l-85-49.07A15,15,0,0,0,1392.5,177.54Z"/>
    <path class="face" d="M1392.5,182.16l-81,46.76a15,15,0,0,0-7.5,13V348.72l-92.5,53.4a15,15,0,0,0-7.5,13v93.52a15,15,0,0,0,7.5,13l81,46.76a15,15,0,0,0,15,0l81-46.76a15,15,0,0,0,7.5-13V401.84l92.5-53.41a15,15,0,0,0,7.5-13V241.91a15,15,0,0,0-7.5-13l-81-46.76A15,15,0,0,0,1392.5,182.16Z"/>
    <g class="dotsBottom">
      <path d="M1379.1,393l-9.36-5.4a1.88,1.88,0,0,0-2.82,1.62V400a1.88,1.88,0,0,0,2.82,1.62l9.36-5.4A1.89,1.89,0,0,0,1379.1,393Z"/>
      <path d="M1355.62,373.65l-9.36-5.4a1.88,1.88,0,0,0-2.82,1.62v10.82a1.88,1.88,0,0,0,2.82,1.62l9.36-5.4A1.89,1.89,0,0,0,1355.62,373.65Z"/>
      <path d="M1332.14,354.32l-9.36-5.4a1.88,1.88,0,0,0-2.82,1.62v10.82a1.88,1.88,0,0,0,2.82,1.62l9.36-5.4A1.89,1.89,0,0,0,1332.14,354.32Z"/>
    </g>
    <g class="dotsFace">
      <path d="M1369.74,401.64l7.85-4.53-7.85-4.53a1.88,1.88,0,0,0-2.82,1.62V400A1.88,1.88,0,0,0,1369.74,401.64Z"/>
      <path d="M1346.26,382.31l7.85-4.53-7.85-4.53a1.88,1.88,0,0,0-2.82,1.62v5.82A1.88,1.88,0,0,0,1346.26,382.31Z"/>
      <path d="M1322.78,363l7.85-4.53-7.85-4.53a1.88,1.88,0,0,0-2.82,1.62v5.82A1.88,1.88,0,0,0,1322.78,363Z"/>
    </g>
    <g class="cdBottom">
      <path d="M1277.82,463.76l.54-.93,9.73,5.61c.8,7.7-1.51,16-5.72,23.31-8.57,14.84-22.5,20.1-34.47,13.19-12.29-7.09-14.82-21.28-6.36-35.93,3.17-5.49,7.18-9,11.58-10.7l-3-1.73,3.93-6.79,13.15,7.59-3.42,5.93-11.79.84c-4.57,7.92-1.65,17.26,7,22.26,9.1,5.26,17.15,3.42,20.93-3.13a15.69,15.69,0,0,0,2.09-5.78C1275.73,473.86,1275.16,468.38,1277.82,463.76Z"/>
      <path d="M1319.64,462.07c8.21-14.22,21.22-18.18,32.82-11.48s14.65,19.84,6.44,34.06l-17.28,29.94-5.67-3.28,2.23-3.87-27.88-16.09-2.23,3.87-5.67-3.28Zm-.51,9.68L1350.68,490l.32-.57c4.11-7.1,1.51-14.84-9-20.89s-18.44-4.49-22.36,2.3Z"/>
      <path d="M1261.66,447.13l1-4.78-15.26-8.8,1.57-2.72,14.31,8.27,2.32-10.88-13.68-7.9,1.57-2.71L1266.3,425l.91-4.34,9.75,5.63-.9,4.35,13.8,8,1-4.28,9.65,5.57-.89,4.35,15.25,8.8-1.57,2.71-14.4-8.31-2.36,10.86,13.9,8-1.57,2.71L1296,461.57l-1,4.78-9.74-5.62,1-4.78-13.91-8-1,4.79Zm13.71-13.29L1273,444.69l14,8.07,2.31-10.89Z"/>
      <path d="M1320.49,423.53l23.94,13.82,6,3.46a16.23,16.23,0,0,1,1.52-11.71,8.26,8.26,0,0,1,6-4.05,10.5,10.5,0,0,1,6.85,1.09,15.67,15.67,0,0,1,4.91,4.45,9,9,0,0,1,1.62,3.68c.28,1.24.57,2.54.88,3.88q1,9.84,2.2,19.73L1319.09,426Zm36.36,10.89a4.21,4.21,0,0,0-3,2.15q-1.3,2.24.42,5.1,1.37,2.16,8.66,6.38l8,4.64q.42.12-1.56-7.88a14.1,14.1,0,0,0-4.07-7.22,13,13,0,0,0-2.59-2A8.24,8.24,0,0,0,1356.85,434.42Z"/>
    </g>
    <g class="abBottom">
      <path d="M1361,284.13c-5.8,9.62-13.44,12.77-20.12,8.92-7.35-4.25-8.77-11.88-3.15-21.61,3.38-5.86,4.75-8.23,8.52-14l9.47-16.4,5.67,3.28-2.23,3.86,27.88,16.1,2.23-3.87,5.67,3.28-9.47,16.4c-3.74,6.48-4.08,7.79-6.52,12-4.32,7.48-9.94,10.14-15.55,6.9C1358.5,296.17,1357.38,290.62,1361,284.13Zm5.16-7.5-.18.31c-2.73,4.74-2,8.85,2,11.16,3.68,2.12,7.2,1.49,10.23-3.74l.32-.57Zm-3.68-2.12-16.09-9.29-.43.74c-3.09,5.37-2,9.92,3.13,12.87s9.9,1.72,13.29-4.14Z"/>
      <path d="M1439,258.68l-7-7.83-2.44,4.24-6.3-3.64,8.06-14,6.3,3.64-2.56,4.43,26.13,30.79-10.59,18.33-40.71-7-2.59,4.49-5.68-3.27L1417.84,261l5.67,3.28-2.26,3.93,10.92,2.39Zm14.47,16.42-10.15-11.51-4.79,8.29Z"/>
      <path d="M1433.64,311.92l-1,4.78,15.26,8.8-1.57,2.72L1432,320l-2.33,10.88,13.69,7.9-1.57,2.71L1429,334.06l-.91,4.34-9.75-5.63.9-4.35-13.8-8-1,4.28-9.64-5.57.89-4.35-15.25-8.8,1.57-2.71,14.4,8.31,2.36-10.86-13.9-8,1.57-2.71,12.91,7.45,1-4.78,9.74,5.63-1,4.77,13.91,8,1-4.79Zm-13.71,13.29,2.39-10.85-14-8.07L1406,317.18Z"/>
      <path d="M1381.31,324.26l-23.94-13.82-6-3.46a16.26,16.26,0,0,1-1.52,11.72,8.28,8.28,0,0,1-6,4,10.5,10.5,0,0,1-6.85-1.09,15.67,15.67,0,0,1-4.91-4.45,8.9,8.9,0,0,1-1.62-3.68c-.28-1.24-.57-2.53-.88-3.87q-1-9.84-2.2-19.73l55.27,31.91ZM1345,313.37a4.2,4.2,0,0,0,3-2.14q1.3-2.25-.42-5.11-1.37-2.16-8.66-6.37l-8-4.65q-.42-.12,1.56,7.89a14.07,14.07,0,0,0,4.07,7.21,12.33,12.33,0,0,0,2.59,2A8.24,8.24,0,0,0,1345,313.37Z"/>
    </g>
    <g class="cdFace">
      <path d="M1241.54,474a35.29,35.29,0,0,0-4.83,14.14,21.53,21.53,0,0,0,11.19,16.79c12,6.91,25.9,1.65,34.47-13.19a42.71,42.71,0,0,0,5.77-17.67c0-.21,0-.43-.05-.64l-9.73-5.61-.54.93a12.35,12.35,0,0,0-1.13,2.64,10.83,10.83,0,0,0,5.34,6.1v5a15.69,15.69,0,0,1-2.09,5.78c-3.78,6.55-11.83,8.39-20.93,3.13-6.79-3.92-10-10.51-8.93-17a15.19,15.19,0,0,1,1.91-10.28l11.79-.84,1.26-2.18-11-6.34-1.76,3,.83.48v5C1248.72,465,1244.71,468.52,1241.54,474Z"/>
      <path d="M1341.62,514.59l17.28-29.94a33.05,33.05,0,0,0,4.49-13c-.73-6.72-4.52-12.39-10.93-16.08-11.6-6.7-24.61-2.74-32.82,11.48l-15.08,26.12,3.51,2,2.23-3.87,27.88,16.09v5l-.07.12Zm-22.49-37.84v-5l.54-.94c3.92-6.79,11.95-8.31,22.36-2.3,8.57,4.95,11.86,11,10.53,17a12.19,12.19,0,0,1-1.56,8.92l-.32.57Z"/>
      <g>
        <polygon points="1271.3 452.69 1272.31 447.91 1273.25 448.46 1272.98 444.69 1275.37 433.84 1276.32 434.39 1276.06 430.63 1267.21 425.65 1266.3 429.99 1265.36 429.45 1265.63 433.22 1263.3 444.1 1262.41 443.58 1262.68 447.35 1262.61 447.68 1271.3 452.69"/>
        <polygon points="1298.9 447.43 1299.87 447.99 1299.62 444.23 1290.87 439.31 1289.86 443.59 1289.01 443.1 1289.28 446.87 1286.96 457.76 1285.96 457.18 1286.22 460.95 1286.16 461.27 1294.95 466.35 1295.96 461.57 1296.8 462.06 1296.54 458.29 1298.9 447.43"/>
      </g>
      <path d="M1372.16,443.15c-.31-1.34-.6-2.64-.88-3.88a9,9,0,0,0-1.62-3.68,15.67,15.67,0,0,0-4.91-4.45,10.5,10.5,0,0,0-6.85-1.09,8.26,8.26,0,0,0-6,4.05,15.58,15.58,0,0,0-1.78,5.24c.07.49.15,1,.26,1.47l-.32,3.06,3.88,2.24.09-4.83a4.6,4.6,0,0,1-.2-4.71,4.21,4.21,0,0,1,3-2.15,8.24,8.24,0,0,1,5.93,1.18,13,13,0,0,1,2.59,2,14.1,14.1,0,0,1,4.07,7.22q2,8,1.56,7.88l-.17,3.15,2.94,1.69C1373.22,452.73,1372.67,447.93,1372.16,443.15Z"/>
    </g>
    <g class="abFace">
      <path d="M1363.36,299c5.61,3.24,11.23.58,15.55-6.9,2.44-4.24,2.78-5.55,6.52-12l7.31-12.65-3.51-2-2.23,3.87-27.88-16.1v-5l.07-.11-3.51-2-9.47,16.4c-3.77,5.81-5.14,8.18-8.52,14a25.44,25.44,0,0,0-3.2,8.27,12.23,12.23,0,0,0,6.35,8.34c6.68,3.85,14.32.7,20.12-8.92v5a17.9,17.9,0,0,0-1.79,4.56A8.57,8.57,0,0,0,1363.36,299Zm2.58-22,.18-.31,12.41,7.16v5l-.32.57c-3,5.23-6.55,5.86-10.23,3.74-3.23-1.87-4.36-4.93-3.21-8.55C1363.93,282.41,1364.3,279.79,1365.94,276.94Zm-16.89,6.89c-4.13-2.39-5.65-5.82-4.44-9.88-.81-2.33-.39-5,1.31-8l.43-.74,16.09,9.29v5l-.1.18C1359,285.55,1354.29,286.86,1349.05,283.83Z"/>
      <path d="M1417.84,266l-14,24.19,3.51,2,2.59-4.49,40.71,7,8.87-15.35-24.41-28.77v-5l.4-.68-4.14-2.39-5.9,10.22,4.14,2.39,2.44-4.24,7,7.83v5l-6.87,11.91-10.92-2.39v-5l.1-.18Zm20.73,5.89,4.79-8.29,10.15,11.51v5l-14.94-3.22Z"/>
      <g>
        <polygon points="1432 319.95 1432.88 320.46 1432.62 316.7 1432.69 316.37 1424 311.36 1422.99 316.14 1422.05 315.59 1422.32 319.36 1419.93 330.21 1418.98 329.66 1418.34 332.77 1428.09 338.4 1429 334.06 1429.94 334.6 1429.67 330.83 1432 319.95"/>
        <polygon points="1405.44 320.46 1406.29 320.95 1406.03 317.18 1408.34 306.29 1409.34 306.87 1409.08 303.1 1409.14 302.78 1400.35 297.7 1399.34 302.48 1398.5 301.99 1398.76 305.76 1396.4 316.62 1395.43 316.06 1394.79 319.17 1404.43 324.74 1405.44 320.46"/>
      </g>
      <path d="M1347.93,311.23v5a4.2,4.2,0,0,1-3,2.14,8.24,8.24,0,0,1-5.93-1.18,12.33,12.33,0,0,1-2.59-2,14.07,14.07,0,0,1-4.07-7.21l-1.56-7.89L1331,297l-2.94-1.7c.55,4.8,1.1,9.6,1.61,14.39.31,1.34.6,2.63.88,3.87a8.9,8.9,0,0,0,1.62,3.68,15.67,15.67,0,0,0,4.91,4.45,10.5,10.5,0,0,0,6.85,1.09,8.28,8.28,0,0,0,6-4,15.7,15.7,0,0,0,1.78-5.25c-.07-.48-.26-1.47-.26-1.47l.32-3.06-3.88-2.24A4.55,4.55,0,0,1,1347.93,311.23Z"/>
    </g>
  </g>
  <g class="f4_horizon">
    <g class="bottom">
      <path class="left" d="M1100,684.16v15a15,15,0,0,0,7.5,13l85,49.07a15,15,0,0,0,15,0l92.5-53.4,92.5,53.41a15,15,0,0,0,15,0l85-49.08a15,15,0,0,0,7.5-13v-15Z"/>
      <g class="right">
        <path d="M1300,692.82l-100,55.41v15a15,15,0,0,0,7.5-2l92.5-53.4v-15"/>
        <path d="M1500,699.16a15,15,0,0,1-7.5,13l-85,49.08a15,15,0,0,1-7.5,2v-15l100-64.08Z"/>
      </g>
    </g>
    <path class="edge" d="M1392.5,524l-92.5,53.4L1207.5,524a15,15,0,0,0-15,0l-85,49.07a15,15,0,0,0-7.5,13v98.15a15,15,0,0,0,7.5,13l85,49.08a15,15,0,0,0,15,0l92.5-53.41,92.5,53.41a15,15,0,0,0,15,0l85-49.08a15,15,0,0,0,7.5-13V586a15,15,0,0,0-7.5-13l-85-49.07A15,15,0,0,0,1392.5,524Z"/>
    <path class="face" d="M1392.5,528.57,1300,582l-92.5-53.4a15,15,0,0,0-15,0l-81,46.76a15,15,0,0,0-7.5,13v93.53a15,15,0,0,0,7.5,13l81,46.77a15,15,0,0,0,15,0L1300,688.2l92.5,53.41a15,15,0,0,0,15,0l81-46.77a15,15,0,0,0,7.5-13V588.32a15,15,0,0,0-7.5-13l-81-46.76A15,15,0,0,0,1392.5,528.57Z"/>
    <g class="dotsBottom">
      <path d="M1284,605.58v9a1.57,1.57,0,0,0,2.35,1.35l7.81-4.51a1.57,1.57,0,0,0,0-2.71l-7.81-4.5A1.56,1.56,0,0,0,1284,605.58Z"/>
      <path d="M1284,655.58v9a1.57,1.57,0,0,0,2.35,1.35l7.81-4.51a1.57,1.57,0,0,0,0-2.71l-7.81-4.5A1.56,1.56,0,0,0,1284,655.58Z"/>
      <path d="M1304,605.58v9a1.57,1.57,0,0,0,2.35,1.35l7.81-4.51a1.57,1.57,0,0,0,0-2.71l-7.81-4.5A1.56,1.56,0,0,0,1304,605.58Z"/>
      <path d="M1304,655.58v9a1.57,1.57,0,0,0,2.35,1.35l7.81-4.51a1.57,1.57,0,0,0,0-2.71l-7.81-4.5A1.56,1.56,0,0,0,1304,655.58Z"/>
    </g>
    <g class="dotsFace">
      <path d="M1286.3,616l5.82-3.36-5.82-3.36a1.56,1.56,0,0,0-2.35,1.35v4A1.57,1.57,0,0,0,1286.3,616Z"/>
      <path d="M1286.3,666l5.82-3.36-5.82-3.36a1.56,1.56,0,0,0-2.35,1.35v4A1.57,1.57,0,0,0,1286.3,666Z"/>
      <path d="M1306.3,616l5.82-3.36-5.82-3.36a1.56,1.56,0,0,0-2.35,1.35v4A1.57,1.57,0,0,0,1306.3,616Z"/>
      <path d="M1306.3,666l5.82-3.36-5.82-3.36a1.56,1.56,0,0,0-2.35,1.35v4A1.57,1.57,0,0,0,1306.3,666Z"/>
    </g>
    <path class="fBottom" d="M1247.59,589.8v28.37h-9.94l-13.39-18h-21.74V631.7h17.42V620h9.65V653.3h-9.65V642.07h-17.42v25.2h9.07v13.1h-60.34v-13.1h8.93V602.9h-8.93V589.8Z"/>
    <path class="aBottom" d="M1429.74,624.21l6.62-19.87h-9.79V589.8h32.25v14.54H1448.6l-27.22,76h-42.33l-28.66-77.47H1340V589.8h64.52v13.1h-9.08l6.77,21.31Zm-14,41.48,9.79-29.09h-19.15Z"/>
    <polygon class="fFace" points="1151.25 602.9 1160.18 602.9 1160.18 607.9 1160.18 667.27 1160.18 672.27 1151.25 672.27 1151.25 680.37 1211.59 680.37 1211.59 672.27 1202.52 672.27 1202.52 667.27 1202.52 647.07 1202.52 642.07 1219.94 642.07 1219.94 647.07 1219.94 653.3 1229.59 653.3 1229.59 625.04 1219.94 625.04 1219.94 631.7 1219.94 636.7 1202.52 636.7 1202.52 631.7 1202.52 605.17 1202.52 600.17 1224.26 600.17 1237.65 618.17 1247.59 618.17 1247.59 594.8 1151.25 594.8 1151.25 602.9"/>
    <path class="aFace" d="M1426.57,604.34h9.79v5l-6.62,19.87h-27.51l-6.77-21.31v-5h9.08v-8.1H1340v8.1h10.37l28.66,77.47h42.33l27.22-76h10.22V594.8h-32.25Zm-1,37.26-9.79,29.09-9.36-29.09v-5h19.15Z"/>
  </g>
  <g class="d10_horizon_new">
    <g class="bottom">
      <path class="left" d="M1500,684.16v15a15,15,0,0,0,7.5,13l85,49.07a15,15,0,0,0,15,0l92.5-53.4,92.5,53.41a15,15,0,0,0,15,0l85-49.08a15,15,0,0,0,7.5-13v-15Z"/>
      <g class="right">
        <path d="M1700,692.82l-100,55.42v15a15,15,0,0,0,7.5-2l92.5-53.4v-15"/>
        <path d="M1900,699.16a15,15,0,0,1-7.5,13l-85,49.08a15,15,0,0,1-7.5,2v-15l100-64.08Z"/>
      </g>
    </g>
    <path class="edgeNew" d="M1792.5,524l-92.5,53.4L1607.5,524a15,15,0,0,0-15,0l-85,49.07a15,15,0,0,0-7.5,13v98.15a15,15,0,0,0,7.5,13l85,49.08a15,15,0,0,0,15,0l92.5-53.41,92.5,53.41a15,15,0,0,0,15,0l85-49.08a15,15,0,0,0,7.5-13V586a15,15,0,0,0-7.5-13l-85-49.07A15,15,0,0,0,1792.5,524Z"/>
    <path class="faceNew" d="M1792.5,528.57,1700,582l-92.5-53.4a15,15,0,0,0-15,0l-81,46.76a15,15,0,0,0-7.5,13v93.53a15,15,0,0,0,7.5,13l81,46.77a15,15,0,0,0,15,0L1700,688.2l92.5,53.41a15,15,0,0,0,15,0l81-46.77a15,15,0,0,0,7.5-13V588.32a15,15,0,0,0-7.5-13l-81-46.76A15,15,0,0,0,1792.5,528.57Z"/>
    <g class="dotsBottom">
      <path d="M1702.87,666.58v-13a2.24,2.24,0,0,0-3.37-1.94l-11.26,6.5a2.24,2.24,0,0,0,0,3.89l11.26,6.5A2.25,2.25,0,0,0,1702.87,666.58Z"/>
      <path d="M1712.87,616.58v-13a2.24,2.24,0,0,0-3.37-1.94l-11.26,6.5a2.24,2.24,0,0,0,0,3.89l11.26,6.5A2.25,2.25,0,0,0,1712.87,616.58Z"/>
    </g>
    <g class="dotsFace">
      <path d="M1699.5,656.64l-10.3,5.94,10.3,5.95a2.25,2.25,0,0,0,3.37-1.95v-8A2.24,2.24,0,0,0,1699.5,656.64Z"/>
      <path d="M1709.5,606.64l-10.3,5.94,10.3,5.95a2.25,2.25,0,0,0,3.37-1.95v-8A2.24,2.24,0,0,0,1709.5,606.64Z"/>
    </g>
    <path class="cBottom" d="M1750.46,624.21h-2.16V601.75c12.53-9.08,29.23-13.4,46.08-13.4,34.27,0,57.31,18.87,57.31,46.51,0,28.37-22,46.95-55.87,46.95-12.67,0-22.75-3.46-30.1-9.36v6.91H1750V649h13.68L1777,668.56c18.28,0,31.53-14.4,31.53-34.42,0-21-11.23-33.11-26.35-33.11a31.22,31.22,0,0,0-12.09,2.16C1770.05,617.73,1761.12,624.21,1750.46,624.21Z"/>
    <path class="dBottom" d="M1608.13,589.79c32.83,0,52.7,18.58,52.7,45.36s-19.72,45.22-52.56,45.22h-69.11v-13.1h8.92V602.9h-8.92V589.79Zm-17.28,8.79v72.86h1.3c16.41,0,27.21-12.24,27.21-36.43s-10.65-36.43-26.35-36.43Z"/>
    <path class="cFace" d="M1795.82,681.81c32.8,0,54.51-17.45,55.81-44.36-1.31-26.32-24-44.1-57.25-44.1-16.85,0-33.55,4.32-46.08,13.4v17.46h2.16c10.66,0,19.59-6.48,19.59-21a31.22,31.22,0,0,1,12.09-2.16c15.12,0,26.35,12.09,26.35,33.12,0,.79,0,1.57-.07,2.34s.07,1.75.07,2.66c0,20-13.25,34.41-31.53,34.41L1763.71,654H1750v25.38h15.7v-6.91C1773.07,678.35,1783.15,681.81,1795.82,681.81Z"/>
    <path class="dFace" d="M1660.77,637.66c-1.2-25.44-20.84-42.87-52.64-42.87h-69v8.11h8.92v69.37h-8.92v8.1h69.11C1640.07,680.37,1659.58,663.08,1660.77,637.66Zm-69.92,38.78V598.58H1593c15.7,0,26.35,12.38,26.35,36.43,0,.85,0,1.68,0,2.5s0,1.65,0,2.5c0,24.19-10.8,36.43-27.21,36.43Z"/>
  </g>
  <g class="firstShadowLine">
    <path d="M706,224.39,608.5,168.1a15,15,0,0,0-15,0L496,224.39a15,15,0,0,0-7.5,13v98.15a15,15,0,0,1-7.5,13L396,397.6a15,15,0,0,0-7.5,13v98.15a15,15,0,0,1-7.5,13L296,570.8a15,15,0,0,0-7.5,13V696.38a15,15,0,0,0,7.5,13l97.5,56.29a15,15,0,0,0,15,0L506,709.37a15,15,0,0,0,7.5-13V598.23a15,15,0,0,1,7.5-13l85-49.08a15,15,0,0,0,7.5-13V425a15,15,0,0,1,7.5-13L706,363a15,15,0,0,0,7.5-13V237.38A15,15,0,0,0,706,224.39Z"/>
    <path d="M1793.5,514.51l-85,49.08a15,15,0,0,1-15,0l-85-49.08a15,15,0,0,0-15,0l-85,49.08a15,15,0,0,1-15,0l-85-49.08a15,15,0,0,0-15,0l-85,49.08a15,15,0,0,1-15,0l-85-49.08a15,15,0,0,0-15,0L1096,570.8a15,15,0,0,0-7.5,13V696.38a15,15,0,0,0,7.5,13l97.5,56.29a15,15,0,0,0,15,0l85-49.08a15,15,0,0,1,15,0l85,49.08a15,15,0,0,0,15,0l85-49.07a15,15,0,0,1,15,0l85,49.07a15,15,0,0,0,15,0l85-49.07a15,15,0,0,1,15,0l85,49.07a15,15,0,0,0,15,0l97.5-56.29a15,15,0,0,0,7.5-13V583.79a15,15,0,0,0-7.5-13l-97.5-56.29A15,15,0,0,0,1793.5,514.51Z"/>
  </g>
  <g class="firstShadow">
    <g class="text">
      <text class="characterAccidental" transform="translate(164.74 645.17) scale(1.25)">b</text>
      <g class="characterPitch">
        <text transform="translate(122.31 662.11)">B</text>
        <text transform="translate(186.69 662.11)">m</text>
        <text transform="translate(920.1 673.83)">Dm</text>
      </g>
      <text class="characterSymbol" transform="translate(1033.79 643.83)">7</text>
    </g>
  </g>
  <g class="firstLine">
    <path d="M705,219.39,607.5,163.1a15,15,0,0,0-15,0L495,219.39a15,15,0,0,0-7.5,13v98.15a15,15,0,0,1-7.5,13L395,392.6a15,15,0,0,0-7.5,13v98.15a15,15,0,0,1-7.5,13L295,565.8a15,15,0,0,0-7.5,13V691.38a15,15,0,0,0,7.5,13l97.5,56.29a15,15,0,0,0,15,0L505,704.37a15,15,0,0,0,7.5-13V593.23a15,15,0,0,1,7.5-13l85-49.08a15,15,0,0,0,7.5-13V420a15,15,0,0,1,7.5-13L705,358a15,15,0,0,0,7.5-13V232.38A15,15,0,0,0,705,219.39Z"/>
    <path d="M1792.5,509.51l-85,49.08a15,15,0,0,1-15,0l-85-49.08a15,15,0,0,0-15,0l-85,49.08a15,15,0,0,1-15,0l-85-49.08a15,15,0,0,0-15,0l-85,49.08a15,15,0,0,1-15,0l-85-49.08a15,15,0,0,0-15,0L1095,565.8a15,15,0,0,0-7.5,13V691.38a15,15,0,0,0,7.5,13l97.5,56.29a15,15,0,0,0,15,0l85-49.08a15,15,0,0,1,15,0l85,49.08a15,15,0,0,0,15,0l85-49.07a15,15,0,0,1,15,0l85,49.07a15,15,0,0,0,15,0l85-49.07a15,15,0,0,1,15,0l85,49.07a15,15,0,0,0,15,0l97.5-56.29a15,15,0,0,0,7.5-13V578.79a15,15,0,0,0-7.5-13l-97.5-56.29A15,15,0,0,0,1792.5,509.51Z"/>
  </g>
  <g class="first">
    <g class="text">
      <text class="characterAccidental" transform="translate(164.88 640.17) scale(1.12)">b</text>
      <g class="characterPitch">
        <text transform="translate(121.31 657.11)">B</text>
        <text transform="translate(185.69 657.11)">m</text>
        <text transform="translate(919.1 668.83)">Dm</text>
      </g>
      <text class="characterSymbol" transform="translate(1032.79 638.83)">7</text>
    </g>
  </g>
  <g class="infoShadow">
    <g class="text">
      <text transform="translate(239.44 216.09)">triad<tspan x="-32.93" y="100.8">(3 pts)</tspan></text>
      <text transform="translate(1558.71 362.3)">seventh chord<tspan x="127.3" y="100.8">(4 pts)</tspan></text>
    </g>
  </g>
  <g class="info">
    <g class="text">
      <text transform="translate(238.44 211.09)">triad<tspan x="-32.93" y="100.8">(3 pts)</tspan></text>
      <text transform="translate(1557.71 357.3)">seventh chord<tspan x="127.3" y="100.8">(4 pts)</tspan></text>
    </g>
  </g>
</svg>
