<svg id="dominoes" xmlns="http://www.w3.org/2000/svg" viewBox="0 0 1400 1270.17">
  <defs>
    <style>
      .cls-1 {
        fill: #46806d;
      }

      .cls-2 {
        fill: none;
      }

      .cls-3 {
        fill: #80756f;
      }

      .cls-4 {
        fill: #8c817a;
      }

      .cls-5 {
        fill: #d1c2b6;
      }

      .cls-6 {
        fill: #ead9cc;
      }

      .cls-7 {
        fill: #8c453f;
      }

      .cls-8 {
        fill: #b35951;
      }

      .cls-9 {
        fill: #6f53a6;
      }

      .cls-10 {
        fill: #8967cc;
      }

      .cls-11 {
        fill: #606060;
      }

      .cls-12 {
        fill: #797979;
      }

      .cls-13 {
        fill: #805333;
      }

      .cls-14 {
        fill: #a66c42;
      }

      .cls-15 {
        fill: #2e7351;
      }

      .cls-16 {
        fill: #3d996b;
      }

      .cls-17 {
        fill: #497334;
      }

      .cls-18 {
        fill: #619945;
      }

      .cls-19 {
        fill: #73622e;
      }

      .cls-20 {
        fill: #99823d;
      }

      .cls-21 {
        fill: #5b67a6;
      }

      .cls-22 {
        fill: #707fcc;
      }

      .cls-23 {
        fill: #466f8c;
      }

      .cls-24 {
        fill: #5a8eb3;
      }
    </style>
  </defs>
  <rect id="background" class="cls-1" width="1400" height="1270.17"/>
  <g id="group">
    <g id="de9_ascend">
      <g id="base">
        <polygon class="cls-2" points="500 346.41 400 404.14 400 519.61 500 577.35 600 519.61 600 404.14 500 346.41"/>
        <polygon class="cls-2" points="600 173.21 500 230.94 500 346.41 600 404.14 700 346.41 700 230.94 600 173.21"/>
      </g>
      <g id="bottom">
        <path id="right" class="cls-3" d="M700,245.94,400,419.14V526a15,15,0,0,0,7.5,13l85,49.08a15,15,0,0,0,15,0l85-49.08a15,15,0,0,0,7.5-13V419.14h0l92.5-53.4a15,15,0,0,0,7.5-13Z" transform="translate(0 0)"/>
        <path id="left" class="cls-4" d="M400,511v15a15,15,0,0,0,7.5,13l85,49.08a15,15,0,0,0,7.5,2V575Z" transform="translate(0 0)"/>
      </g>
      <path id="edge" class="cls-5" d="M592.5,177.53l-85,49.08a15,15,0,0,0-7.5,13V346.41l-92.5,53.4a15,15,0,0,0-7.5,13V511a15,15,0,0,0,7.5,13l85,49.08a15,15,0,0,0,15,0l85-49.08a15,15,0,0,0,7.5-13V404.14l92.5-53.4a15,15,0,0,0,7.5-13V239.6a15,15,0,0,0-7.5-13l-85-49.08A15,15,0,0,0,592.5,177.53Z" transform="translate(0 0)"/>
      <path id="face" class="cls-6" d="M592.5,182.15l-81,46.77a15,15,0,0,0-7.5,13V348.72l-92.5,53.4a15,15,0,0,0-7.5,13v93.53a15,15,0,0,0,7.5,13l81,46.76a15,15,0,0,0,15,0l81-46.76a15,15,0,0,0,7.5-13V401.83l92.5-53.4a15,15,0,0,0,7.5-13V241.91a15,15,0,0,0-7.5-13l-81-46.77A15,15,0,0,0,592.5,182.15Z" transform="translate(0 0)"/>
      <path id="cBottom" class="cls-7" d="M565.82,326.14,564.74,328l-19.46-11.23c-1.59-15.39,3-32,11.44-46.6,17.14-29.68,45-40.21,68.94-26.38,24.57,14.18,29.64,42.55,12.72,71.85-6.34,11-14.37,18-23.16,21.39l6,3.45-7.85,13.6L587.05,338.9l6.84-11.85,23.58-1.68c9.15-15.84,3.3-34.51-14-44.52-18.21-10.51-34.3-6.83-41.86,6.26a31.14,31.14,0,0,0-4.18,11.56C570,305.94,571.14,316.91,565.82,326.14Z" transform="translate(0 0)"/>
      <path id="cFace" class="cls-8" d="M619,344.24l-3.82-2.2v-5c8.79-3.41,16.82-10.41,23.16-21.39,6.12-10.61,9.35-21.09,9.83-30.83-.76-15-8.42-27.87-22.55-36-23.94-13.83-51.8-3.3-68.94,26.38C549.89,287,545.57,300.19,545,313c.05,1.28.12,2.56.25,3.83L564.74,328l1.08-1.87a22.36,22.36,0,0,0,2.82-7.9c-.8-5.38-4.26-10.54-11.24-14.57v-5a31.14,31.14,0,0,1,4.18-11.56c7.56-13.09,23.65-16.77,41.86-6.26,12.71,7.34,19.23,19.34,18.21,31.46a30.66,30.66,0,0,1-4.18,18.06l-23.58,1.68-4.68,8.1,24.15,13.94Z" transform="translate(0 0)"/>
      <g id="deBottom">
        <path class="cls-9" d="M447.38,459.57c8.21-14.22,21.23-18.18,32.82-11.48s14.65,19.85,6.44,34.06l-17.28,29.94-5.67-3.28,2.23-3.87L438,488.85l-2.23,3.87-5.67-3.28Zm-.51,9.68,31.55,18.22.32-.56c4.11-7.11,1.51-14.85-9-20.9s-18.44-4.49-22.36,2.3Z" transform="translate(0 0)"/>
        <path class="cls-9" d="M529.71,444.63,542,451.72l-2.49,4.3-11.14,1.3-5.44,9.42,12.41,7.16,3.5-6-4.43-2.55,2.41-4.18,13.53,7.81-2.41,4.18-4.61-2.66-3.5,6,13.35,7.71,6.88-11.91c-5.74-3.31-7.93-8.16-4.95-13.33l.54-.94,14,8.07L544.85,509l-5.67-3.28,2.23-3.86-27.88-16.1-2.23,3.87-5.67-3.28Z" transform="translate(0 0)"/>
        <path class="cls-9" d="M467.9,436.34l1-4.78-15.26-8.8,1.57-2.72,14.31,8.27,2.33-10.88-13.69-7.9,1.57-2.72,12.79,7.39.91-4.34,9.75,5.63-.9,4.35,13.8,8,1-4.28,9.64,5.57-.89,4.35,15.25,8.8L519.53,445l-14.4-8.31-2.36,10.86,13.9,8-1.57,2.71-12.91-7.45-1,4.78-9.74-5.63,1-4.77-13.92-8-1,4.78Zm13.7-13.29-2.39,10.85,14,8.07,2.32-10.89Z" transform="translate(0 0)"/>
        <path class="cls-9" d="M518.22,427.46l23.94,13.82,6,3.46A16.19,16.19,0,0,1,549.68,433a8.27,8.27,0,0,1,6-4,10.5,10.5,0,0,1,6.85,1.09,15.59,15.59,0,0,1,4.91,4.46A8.85,8.85,0,0,1,569,438.2c.28,1.25.57,2.54.88,3.88q1.05,9.84,2.2,19.73l-55.27-31.92Zm36.36,10.89a4.21,4.21,0,0,0-3,2.15q-1.3,2.24.42,5.1,1.37,2.17,8.66,6.38l8.05,4.64q.42.12-1.56-7.88a14,14,0,0,0-4.07-7.21,12.38,12.38,0,0,0-2.59-2A8.24,8.24,0,0,0,554.58,438.35Z" transform="translate(0 0)"/>
      </g>
      <g id="deFace">
        <path class="cls-10" d="M469.36,512.09l17.28-29.94a32.9,32.9,0,0,0,4.49-13c-.73-6.73-4.52-12.4-10.93-16.09-11.59-6.7-24.61-2.74-32.82,11.48L432.3,490.69l3.51,2,2.23-3.87,27.88,16.09v5l-.07.12Zm-22.49-37.84v-5l.54-.94c3.92-6.79,11.95-8.31,22.36-2.3,8.57,4.95,11.87,11,10.53,17a12.18,12.18,0,0,1-1.56,8.93l-.32.56Z" transform="translate(0 0)"/>
        <g>
          <path class="cls-10" d="M544.85,509l22.61-39.15L555.65,463l-.54.94a10.94,10.94,0,0,0-.91,2c.83,2.4,2.85,4.56,5.86,6.3v5l-6.88,11.91-13.35-7.71v-5l3.5-6.05,4.61,2.67.25-.43-11.37-6.56-.25.43,2.27,1.3v5l-3.5,6-12.4-7.16v-5l5.43-9.42,11.14-1.3.32-.55-10.12-5.84-21.92,38,3.51,2,2.23-3.87,27.88,16.1v5l-.07.11Z" transform="translate(0 0)"/>
          <polygon class="cls-10" points="537.13 461.3 536.82 461.12 536.69 461.35 537.13 461.3"/>
        </g>
        <g>
          <polygon class="cls-10" points="505.13 436.63 506.1 437.2 505.85 433.44 497.1 428.52 496.09 432.8 495.24 432.31 495.51 436.08 493.19 446.97 492.19 446.39 492.46 450.16 492.39 450.48 501.19 455.56 502.19 450.78 503.04 451.26 502.77 447.5 505.13 436.63"/>
          <polygon class="cls-10" points="477.53 441.9 478.54 437.12 479.48 437.67 479.21 433.89 481.6 423.05 482.55 423.6 482.29 419.83 473.44 414.86 472.53 419.2 471.59 418.66 471.86 422.43 469.53 433.31 468.65 432.79 468.91 436.56 468.84 436.88 477.53 441.9"/>
        </g>
        <path class="cls-10" d="M569.89,447.08c-.31-1.34-.6-2.63-.88-3.88a9,9,0,0,0-1.62-3.68,15.67,15.67,0,0,0-4.91-4.45,10.5,10.5,0,0,0-6.85-1.09,8.27,8.27,0,0,0-6,4,15.38,15.38,0,0,0-1.79,5.24c.07.49.15,1,.26,1.47l-.32,3.06,3.88,2.24.09-4.83a4.63,4.63,0,0,1-.2-4.71,4.21,4.21,0,0,1,3-2.15,8.24,8.24,0,0,1,5.93,1.18,12.38,12.38,0,0,1,2.59,2,14,14,0,0,1,4.07,7.21q2,8,1.56,7.88l-.17,3.15,2.94,1.69C571,456.66,570.4,451.86,569.89,447.08Z" transform="translate(0 0)"/>
      </g>
      <g id="dotsBottom">
        <path class="cls-11" d="M579.1,393l-9.36-5.41a1.88,1.88,0,0,0-2.82,1.63V400a1.88,1.88,0,0,0,2.82,1.63l9.36-5.41A1.87,1.87,0,0,0,579.1,393Z" transform="translate(0 0)"/>
        <path class="cls-11" d="M555.62,373.65l-9.36-5.41a1.88,1.88,0,0,0-2.82,1.63v10.81a1.88,1.88,0,0,0,2.82,1.63l9.36-5.41A1.88,1.88,0,0,0,555.62,373.65Z" transform="translate(0 0)"/>
        <path class="cls-11" d="M532.14,354.32l-9.36-5.41a1.88,1.88,0,0,0-2.82,1.63v10.81a1.88,1.88,0,0,0,2.82,1.63l9.36-5.41A1.88,1.88,0,0,0,532.14,354.32Z" transform="translate(0 0)"/>
      </g>
      <g id="dotsFace">
        <path class="cls-12" d="M569.74,401.64l7.85-4.53-7.85-4.54a1.88,1.88,0,0,0-2.82,1.63V400A1.88,1.88,0,0,0,569.74,401.64Z" transform="translate(0 0)"/>
        <path class="cls-12" d="M546.26,382.31l7.85-4.53-7.85-4.54a1.88,1.88,0,0,0-2.82,1.63v5.81A1.88,1.88,0,0,0,546.26,382.31Z" transform="translate(0 0)"/>
        <path class="cls-12" d="M522.78,363l7.85-4.53-7.85-4.54a1.88,1.88,0,0,0-2.82,1.63v5.81A1.88,1.88,0,0,0,522.78,363Z" transform="translate(0 0)"/>
      </g>
    </g>
    <g id="g4_horizon">
      <g id="base-2" data-name="base">
        <polygon class="cls-2" points="599.99 519.62 499.99 577.35 499.99 692.82 599.99 750.56 699.99 692.82 699.99 577.35 599.99 519.62"/>
        <polygon class="cls-2" points="400 519.62 300 577.35 300 692.82 400 750.56 500 692.82 500 577.35 400 519.62"/>
      </g>
      <g id="bottom-2" data-name="bottom">
        <path id="left-2" data-name="left" class="cls-4" d="M300,684.16v15a15,15,0,0,0,7.51,13l85,49.08a15,15,0,0,0,15,0L500,707.82l92.5,53.41a15,15,0,0,0,15,0l85-49.08a15,15,0,0,0,7.5-13v-15Z" transform="translate(0 0)"/>
        <g id="right-2" data-name="right">
          <path class="cls-3" d="M500,692.82,400,748.24v15a15,15,0,0,0,7.51-2L500,707.82v-15" transform="translate(0 0)"/>
          <path class="cls-3" d="M700,699.16a15,15,0,0,1-7.5,13l-85,49.08a15,15,0,0,1-7.5,2v-15l100-64.08Z" transform="translate(0 0)"/>
        </g>
      </g>
      <path id="edge-2" data-name="edge" class="cls-5" d="M592.49,524,500,577.35,407.49,524a15,15,0,0,0-15,0l-85,49.07A15,15,0,0,0,300,586v98.15a15,15,0,0,0,7.49,13l85,49.08a15,15,0,0,0,15,0L500,692.82l92.5,53.41a15,15,0,0,0,15,0l85-49.08a15,15,0,0,0,7.5-13V586a15,15,0,0,0-7.5-13l-85-49.07A15,15,0,0,0,592.49,524Z" transform="translate(0 0)"/>
      <path id="face-2" data-name="face" class="cls-6" d="M592.49,528.57,500,582l-92.5-53.4a15,15,0,0,0-15,0l-81,46.76a15,15,0,0,0-7.5,13v93.53a15,15,0,0,0,7.5,13l81,46.77a15,15,0,0,0,15,0L500,688.2l92.49,53.41a15,15,0,0,0,15,0l81-46.76a15,15,0,0,0,7.5-13V588.33a15,15,0,0,0-7.5-13l-81-46.76A15,15,0,0,0,592.49,528.57Z" transform="translate(0 0)"/>
      <path id="gBottom" class="cls-13" d="M431.39,598.87v-8.06h15.7v27.5H433.41l-14.69-16.7c-21,.43-31.54,14.54-31.54,34.41,0,20.3,11.67,34.56,28.23,34.56V647.4h-8.36V634.29h49V647.4H448V667c-13.1,10.08-29.81,14.83-46.66,14.83C367,681.81,344,663,344,635.3c0-28.37,23.33-46.94,57.31-46.94C413.82,588.36,426.64,593.4,431.39,598.87Z" transform="translate(0 0)"/>
      <path id="gFace" class="cls-14" d="M407.05,647.4h8.36v28.18c-16.56,0-28.23-14.26-28.23-34.56,0-.86,0-1.7.07-2.53s-.07-1.63-.07-2.47c0-19.87,10.51-34,31.54-34.41l14.69,16.7h13.68v-22.5h-15.7v8.06c-4.75-5.47-17.57-10.51-30.1-10.51-33,0-55.9,17.48-57.24,44.42,1.34,26.29,24,44,57.24,44,16.85,0,33.56-4.75,46.66-14.83V647.4H456v-8.11h-49Z" transform="translate(0 0)"/>
      <path id="bBottom" class="cls-15" d="M583.08,642.07c-22.46-.44-35.57-10.52-35.57-25.92,0-17,11.81-27.07,34.28-27.07,13.53,0,19,0,32.83.72h37.87v13.1h-8.93v64.37h8.93v13.1H614.62c-15,0-17.57.72-27.36.72-17.28,0-27.51-7.06-27.51-20C559.75,649.84,568.25,642.35,583.08,642.07Zm18.14,1.44h-.72c-10.94,0-17.27,5.47-17.27,14.68,0,8.5,4.6,14,16.7,14h1.29Zm0-8.5V597.86H599.5c-12.39,0-19.15,6.48-19.15,18.29,0,12.09,6.91,18.86,20.44,18.86Z" transform="translate(0 0)"/>
      <path id="bFace" class="cls-16" d="M581.79,594.08c-21.25,0-33,9-34.17,24.37,1.26,14.1,14.14,23.21,35.46,23.62v5c-13.74.26-22,6.72-23.18,16.6,1.3,11.3,11.27,17.42,27.36,17.42,9.79,0,12.38-.72,27.36-.72h37.87v-8.1h-8.93V602.9h8.93v-8.1H614.62C600.79,594.08,595.32,594.08,581.79,594.08Zm19.43,54.43v28.65h-1.29c-12.1,0-16.7-5.47-16.7-14a18.41,18.41,0,0,1,.17-2.39,20,20,0,0,1-.17-2.61c0-9.21,6.33-14.68,17.27-14.68h.72Zm0-45.65V640h-.43c-13.53,0-20.44-6.77-20.44-18.86,0-.86,0-1.68.11-2.48s-.11-1.65-.11-2.52c0-11.81,6.76-18.29,19.15-18.29h1.72Z" transform="translate(0 0)"/>
      <g id="dotsBottom-2" data-name="dotsBottom">
        <path class="cls-11" d="M484.53,605.58v9a1.57,1.57,0,0,0,2.35,1.36l7.8-4.51a1.56,1.56,0,0,0,0-2.71l-7.8-4.51A1.57,1.57,0,0,0,484.53,605.58Z" transform="translate(0 0)"/>
        <path class="cls-11" d="M484.53,655.58v9a1.57,1.57,0,0,0,2.35,1.36l7.8-4.51a1.56,1.56,0,0,0,0-2.71l-7.8-4.51A1.57,1.57,0,0,0,484.53,655.58Z" transform="translate(0 0)"/>
        <path class="cls-11" d="M504.53,605.58v9a1.57,1.57,0,0,0,2.35,1.36l7.8-4.51a1.56,1.56,0,0,0,0-2.71l-7.8-4.51A1.57,1.57,0,0,0,504.53,605.58Z" transform="translate(0 0)"/>
        <path class="cls-11" d="M504.53,655.58v9a1.57,1.57,0,0,0,2.35,1.36l7.8-4.51a1.56,1.56,0,0,0,0-2.71l-7.8-4.51A1.57,1.57,0,0,0,504.53,655.58Z" transform="translate(0 0)"/>
      </g>
      <g id="dotsFace-2" data-name="dotsFace">
        <path class="cls-12" d="M486.88,616l5.82-3.36-5.82-3.37a1.57,1.57,0,0,0-2.35,1.36v4A1.57,1.57,0,0,0,486.88,616Z" transform="translate(0 0)"/>
        <path class="cls-12" d="M486.88,666l5.82-3.36-5.82-3.37a1.57,1.57,0,0,0-2.35,1.36v4A1.57,1.57,0,0,0,486.88,666Z" transform="translate(0 0)"/>
        <path class="cls-12" d="M506.88,616l5.82-3.36-5.82-3.37a1.57,1.57,0,0,0-2.35,1.36v4A1.57,1.57,0,0,0,506.88,616Z" transform="translate(0 0)"/>
        <path class="cls-12" d="M506.88,666l5.82-3.36-5.82-3.37a1.57,1.57,0,0,0-2.35,1.36v4A1.57,1.57,0,0,0,506.88,666Z" transform="translate(0 0)"/>
      </g>
    </g>
    <g id="e10_horizon">
      <g id="base-3" data-name="base">
        <polygon class="cls-2" points="999.99 519.62 899.99 577.35 899.99 692.82 999.99 750.55 1099.99 692.82 1099.99 577.35 999.99 519.62"/>
        <polygon class="cls-2" points="800 519.61 700 577.35 700 692.82 800 750.55 900 692.82 900 577.35 800 519.61"/>
      </g>
      <g id="bottom-3" data-name="bottom">
        <path id="left-3" data-name="left" class="cls-4" d="M700,684.16v15a15,15,0,0,0,7.5,13l85,49.07a15,15,0,0,0,15,0L900,707.82l92.5,53.4a15,15,0,0,0,15,0l85-49.07a15,15,0,0,0,7.5-13v-15Z" transform="translate(0 0)"/>
        <g id="right-3" data-name="right">
          <path class="cls-3" d="M900,692.82,800,748.23v15a15,15,0,0,0,7.51-2L900,707.82v-15" transform="translate(0 0)"/>
          <path class="cls-3" d="M1100,699.16a15,15,0,0,1-7.5,13l-85,49.07a15,15,0,0,1-7.5,2v-15l100-64.07Z" transform="translate(0 0)"/>
        </g>
      </g>
      <path id="edge-3" data-name="edge" class="cls-5" d="M992.49,524,900,577.35l-92.5-53.41a15,15,0,0,0-15,0L707.5,573a15,15,0,0,0-7.5,13v98.15a15,15,0,0,0,7.5,13l85,49.07a15,15,0,0,0,15,0L900,692.82l92.5,53.41a15,15,0,0,0,15,0l85-49.08a15,15,0,0,0,7.5-13V586a15,15,0,0,0-7.5-13l-85-49.07A15,15,0,0,0,992.49,524Z" transform="translate(0 0)"/>
      <path id="face-3" data-name="face" class="cls-6" d="M992.49,528.57,900,582l-92.5-53.41a15,15,0,0,0-15,0l-81,46.77a15,15,0,0,0-7.5,13v93.53a15,15,0,0,0,7.5,13l81,46.77a15,15,0,0,0,15,0L900,688.2l92.49,53.41a15,15,0,0,0,15,0l81-46.77a15,15,0,0,0,7.5-13V588.32a15,15,0,0,0-7.5-13l-81-46.76A15,15,0,0,0,992.49,528.57Z" transform="translate(0 0)"/>
      <path id="eBottom" class="cls-17" d="M846.8,589.8v28.36h-9.94l-13.39-18H801.73v28.65h14V618.6h9.65v31.24h-9.65V639.19h-14V670h27.5c0-13.24,6.19-21.88,18.14-21.88h2.16v32.25H750.46v-13.1h8.93V602.9h-8.93V589.8Z" transform="translate(0 0)"/>
      <path id="eFace" class="cls-18" d="M829.23,675h-27.5V639.19h14v10.65h9.65V623.6h-9.65v10.22h-14V600.17h21.74l13.39,18h9.94V594.8H750.46v8.1h8.93v69.37h-8.93v8.1h99.07V653.12h-2.16C835.42,653.12,829.23,661.76,829.23,675Z" transform="translate(0 0)"/>
      <path id="dBottom" class="cls-19" d="M991.86,680.37c-32.83,0-52.7-18.57-52.7-45.36s19.73-45.21,52.56-45.21h69.12v13.1h-8.93v64.37h8.93v13.1Zm17.28-8.78V598.73h-1.29c-16.42,0-27.22,12.24-27.22,36.43s10.66,36.43,26.35,36.43Z" transform="translate(0 0)"/>
      <path id="dFace" class="cls-20" d="M939.22,637.51c1.2,25.43,20.84,42.86,52.64,42.86h69v-8.1h-8.93V602.9h8.93v-8.1H991.72C959.92,594.8,940.42,612.09,939.22,637.51Zm69.92-38.78v77.86H1007c-15.69,0-26.35-12.39-26.35-36.43,0-.85,0-1.68,0-2.5s0-1.65,0-2.5c0-24.19,10.8-36.43,27.22-36.43Z" transform="translate(0 0)"/>
      <g id="dotsBottom-3" data-name="dotsBottom">
        <path class="cls-11" d="M902.87,666.59v-13a2.25,2.25,0,0,0-3.37-1.94l-11.26,6.5a2.25,2.25,0,0,0,0,3.89l11.26,6.5A2.24,2.24,0,0,0,902.87,666.59Z" transform="translate(0 0)"/>
        <path class="cls-11" d="M912.87,616.59v-13a2.25,2.25,0,0,0-3.37-1.94l-11.26,6.5a2.25,2.25,0,0,0,0,3.89l11.26,6.5A2.24,2.24,0,0,0,912.87,616.59Z" transform="translate(0 0)"/>
      </g>
      <g id="dotsFace-3" data-name="dotsFace">
        <path class="cls-12" d="M899.5,656.64l-10.3,6,10.3,5.94a2.24,2.24,0,0,0,3.37-1.94v-8A2.25,2.25,0,0,0,899.5,656.64Z" transform="translate(0 0)"/>
        <path class="cls-12" d="M909.5,606.64l-10.3,6,10.3,5.94a2.24,2.24,0,0,0,3.37-1.94v-8A2.25,2.25,0,0,0,909.5,606.64Z" transform="translate(0 0)"/>
      </g>
    </g>
    <g id="cd7_ascend">
      <g id="base-4" data-name="base">
        <polygon class="cls-2" points="600 866.02 500 923.76 500 1039.23 600 1096.96 700 1039.23 700 923.76 600 866.02"/>
        <polygon class="cls-2" points="700 692.82 600 750.55 600 866.02 700 923.76 800 866.02 800 750.55 700 692.82"/>
      </g>
      <g id="bottom-4" data-name="bottom">
        <path id="right-4" data-name="right" class="cls-3" d="M800,765.56,500,938.76v106.81a15,15,0,0,0,7.5,13l85,49.07a15,15,0,0,0,15,0l85-49.07a15,15,0,0,0,7.5-13V938.76h0l92.5-53.4a15,15,0,0,0,7.5-13Z" transform="translate(0 0)"/>
        <path id="left-4" data-name="left" class="cls-4" d="M500,1030.57v15a15,15,0,0,0,7.5,13l85,49.07a15,15,0,0,0,7.5,2v-15Z" transform="translate(0 0)"/>
      </g>
      <path id="edge-4" data-name="edge" class="cls-5" d="M692.5,697.15l-85,49.08a15,15,0,0,0-7.5,13V866l-92.5,53.4a15,15,0,0,0-7.5,13v98.15a15,15,0,0,0,7.5,13l85,49.07a15,15,0,0,0,15,0l85-49.07a15,15,0,0,0,7.5-13V923.76l92.5-53.4a15,15,0,0,0,7.5-13V759.22a15,15,0,0,0-7.5-13l-85-49.08A15,15,0,0,0,692.5,697.15Z" transform="translate(0 0)"/>
      <path id="face-4" data-name="face" class="cls-6" d="M692.5,701.77l-81,46.76a15,15,0,0,0-7.5,13v106.8l-92.5,53.41a15,15,0,0,0-7.5,13v93.53a15,15,0,0,0,7.5,13l81,46.76a15,15,0,0,0,15,0l81-46.76a15,15,0,0,0,7.5-13V921.45l92.5-53.4a15,15,0,0,0,7.5-13V761.53a15,15,0,0,0-7.5-13l-81-46.76A15,15,0,0,0,692.5,701.77Z" transform="translate(0 0)"/>
      <g id="gaBottom">
        <path class="cls-21" d="M746.15,812.87l3.49,2-3.92,6.8-11.92-6.88,3.42-5.93,10.91-2.18c5.07-9.21,1.59-17.29-7-22.26-8.79-5.08-17.88-3.59-22,3.58l10,5.8,2.09-3.62,5.67,3.28-12.24,21.2L719,811.4l2-3.49-8.48-4.9c-1.09-8.19,1-16.61,5.24-23.91,8.57-14.84,22.5-20.1,34.47-13.19,12.29,7.09,14.5,21.84,6,36.56C755.09,807.89,749.71,812.18,746.15,812.87Z" transform="translate(0 0)"/>
        <path class="cls-21" d="M665.92,776.94,659,769.11l-2.45,4.24-6.3-3.64,8.07-14,6.29,3.64L662,763.81l26.12,30.79-10.59,18.33-40.71-7-2.59,4.49-5.68-3.27,16.13-27.94,5.68,3.28-2.27,3.93L659,788.85Zm14.46,16.42-10.14-11.51-4.79,8.29Z" transform="translate(0 0)"/>
        <path class="cls-21" d="M736.59,826.05l-1,4.78,15.26,8.8-1.57,2.72L735,834.08,732.63,845l13.69,7.9-1.57,2.72L732,848.19l-.91,4.34-9.75-5.63.9-4.35-13.8-8-1,4.28-9.64-5.57.89-4.35-15.25-8.8,1.57-2.71,14.4,8.31,2.36-10.85-13.9-8,1.57-2.71,12.91,7.45,1-4.78,9.75,5.63-1,4.77,13.92,8,1-4.78Zm-13.7,13.29,2.39-10.85-14-8.07L709,831.31Z" transform="translate(0 0)"/>
        <path class="cls-21" d="M679.77,846.19l-23.94-13.83-6-3.45a16.19,16.19,0,0,1-1.53,11.71,8.3,8.3,0,0,1-5.95,4,10.57,10.57,0,0,1-6.85-1.09,15.71,15.71,0,0,1-4.91-4.46,8.85,8.85,0,0,1-1.62-3.67c-.28-1.25-.57-2.54-.88-3.88q-1.05-9.84-2.2-19.73l55.27,31.92ZM643.41,835.3a4.21,4.21,0,0,0,3-2.15c.87-1.49.73-3.2-.42-5.1q-1.37-2.17-8.66-6.38l-8-4.64c-.28-.08.24,2.54,1.56,7.88a14,14,0,0,0,4.07,7.21,12.38,12.38,0,0,0,2.59,2A8.24,8.24,0,0,0,643.41,835.3Z" transform="translate(0 0)"/>
      </g>
      <g id="gaFace">
        <path class="cls-22" d="M758.22,802.47a36.42,36.42,0,0,0,5-14.71,21.35,21.35,0,0,0-11-16.85c-12-6.91-25.9-1.65-34.47,13.19a40.23,40.23,0,0,0-5.42,17.1c0,.61.1,1.21.18,1.81l8.48,4.9-2,3.49,5.67,3.28,10.08-17.45-3.51-2-2.09,3.62-10-5.8v-5c4.14-7.17,13.23-8.66,22-3.58,6.74,3.89,10.31,9.69,9.13,16.44a16.07,16.07,0,0,1-2.11,10.82l-10.91,2.18L736,816.06l9.75,5.63,1.76-3.05-1.33-.77v-5C749.71,812.18,755.09,807.89,758.22,802.47Z" transform="translate(0 0)"/>
        <path class="cls-22" d="M644.71,784.25l-14,24.19,3.51,2,2.59-4.49,40.71,7,8.87-15.35L662,768.81v-5l.39-.68-4.13-2.39L652.39,771l4.13,2.39,2.45-4.24,6.95,7.83v5L659,793.85l-10.92-2.39v-5l.1-.18Zm20.74,5.89,4.79-8.29,10.14,11.51v5l-14.93-3.22Z" transform="translate(0 0)"/>
        <g>
          <polygon class="cls-22" points="734.96 834.08 735.84 834.6 735.58 830.83 735.65 830.5 726.96 825.49 725.95 830.27 725.01 829.72 725.28 833.49 722.89 844.34 721.94 843.79 721.3 846.9 731.04 852.53 731.96 848.19 732.9 848.73 732.63 844.96 734.96 834.08"/>
          <polygon class="cls-22" points="708.4 834.59 709.25 835.08 708.98 831.31 711.29 820.42 712.3 821 712.03 817.23 712.1 816.91 703.3 811.83 702.3 816.61 701.46 816.12 701.72 819.89 699.36 830.75 698.39 830.19 697.75 833.3 707.39 838.87 708.4 834.59"/>
        </g>
        <path class="cls-22" d="M646.39,833.15v5a4.21,4.21,0,0,1-3,2.15,8.24,8.24,0,0,1-5.93-1.18,12.38,12.38,0,0,1-2.59-2,14,14,0,0,1-4.07-7.21L629.26,822l.17-3.15-2.94-1.69c.55,4.8,1.1,9.6,1.61,14.38.31,1.34.6,2.63.88,3.88a8.85,8.85,0,0,0,1.62,3.67,15.71,15.71,0,0,0,4.91,4.46,10.57,10.57,0,0,0,6.85,1.09,8.3,8.3,0,0,0,5.95-4,15.38,15.38,0,0,0,1.79-5.24c-.07-.49-.26-1.47-.26-1.47l.32-3.06-3.88-2.24A4.53,4.53,0,0,1,646.39,833.15Z" transform="translate(0 0)"/>
      </g>
      <g id="cdBottom">
        <path class="cls-23" d="M577.82,983.38l.54-.94,9.73,5.62c.8,7.69-1.51,16-5.72,23.3-8.57,14.84-22.5,20.11-34.47,13.19-12.29-7.09-14.82-21.28-6.36-35.93,3.17-5.49,7.18-9,11.58-10.69l-3-1.73,3.93-6.8L567.2,977l-3.42,5.92-11.79.84c-4.57,7.92-1.65,17.26,7,22.27,9.1,5.25,17.15,3.41,20.93-3.14a15.65,15.65,0,0,0,2.09-5.77C575.73,993.48,575.16,988,577.82,983.38Z" transform="translate(0 0)"/>
        <path class="cls-23" d="M619.64,981.68c8.21-14.21,21.22-18.17,32.82-11.48s14.65,19.85,6.44,34.07l-17.28,29.93-5.67-3.28,2.23-3.86L610.3,1011l-2.23,3.87-5.67-3.28Zm-.51,9.68,31.55,18.22.32-.56c4.11-7.11,1.51-14.85-9-20.89s-18.44-4.5-22.36,2.3Z" transform="translate(0 0)"/>
        <path class="cls-23" d="M561.66,966.75l1-4.78-15.26-8.81,1.57-2.71,14.31,8.26,2.32-10.88-13.68-7.9,1.57-2.71,12.79,7.39.91-4.34,9.75,5.62-.9,4.35,13.8,8,1-4.29,9.65,5.57-.89,4.35,15.25,8.81-1.57,2.71L598.9,967l-2.36,10.86,13.9,8-1.57,2.71L596,981.18,595,986l-9.74-5.63,1-4.78-13.91-8-1,4.78Zm13.71-13.29L573,964.3l14,8.07,2.31-10.88Z" transform="translate(0 0)"/>
        <path class="cls-23" d="M620.49,943.14,644.43,957l6,3.45a16.24,16.24,0,0,1,1.52-11.71,8.32,8.32,0,0,1,6-4.05,10.63,10.63,0,0,1,6.85,1.09,15.71,15.71,0,0,1,4.91,4.46,8.9,8.9,0,0,1,1.62,3.68c.28,1.24.57,2.53.88,3.87q1.05,9.84,2.2,19.73l-55.27-31.91ZM656.85,954a4.2,4.2,0,0,0-3,2.14q-1.3,2.25.42,5.11,1.37,2.16,8.66,6.37l8,4.64q.42.13-1.56-7.88a14.07,14.07,0,0,0-4.07-7.21,12.59,12.59,0,0,0-2.59-2A8.24,8.24,0,0,0,656.85,954Z" transform="translate(0 0)"/>
      </g>
      <g id="cdFace">
        <path class="cls-24" d="M541.54,993.62a35.4,35.4,0,0,0-4.83,14.14,21.5,21.5,0,0,0,11.19,16.79c12,6.92,25.9,1.65,34.47-13.19a42.71,42.71,0,0,0,5.77-17.67c0-.21,0-.42,0-.63l-9.73-5.62-.54.94a12.14,12.14,0,0,0-1.13,2.64,10.9,10.9,0,0,0,5.34,6.1v5a15.65,15.65,0,0,1-2.09,5.77c-3.78,6.55-11.83,8.39-20.93,3.14-6.79-3.93-10-10.51-8.93-17A15.2,15.2,0,0,1,552,983.76l11.79-.84,1.26-2.17-11-6.35-1.76,3.05.83.48v5C548.72,984.63,544.71,988.13,541.54,993.62Z" transform="translate(0 0)"/>
        <path class="cls-24" d="M641.62,1034.2l17.28-29.93a33.05,33.05,0,0,0,4.49-13c-.73-6.73-4.53-12.39-10.93-16.09-11.6-6.69-24.61-2.73-32.82,11.48l-15.08,26.12,3.51,2,2.23-3.87,27.88,16.1v5l-.07.11Zm-22.49-37.84v-5l.54-.93c3.92-6.8,12-8.32,22.36-2.3,8.57,4.94,11.86,11,10.53,17A12.21,12.21,0,0,1,651,1014l-.32.56Z" transform="translate(0 0)"/>
        <g>
          <polygon class="cls-24" points="571.3 972.31 572.3 967.53 573.25 968.07 572.98 964.3 575.37 953.46 576.32 954 576.06 950.24 567.21 945.27 566.3 949.61 565.36 949.06 565.63 952.83 563.3 963.71 562.41 963.2 562.68 966.97 562.61 967.29 571.3 972.31"/>
          <polygon class="cls-24" points="598.9 967.04 599.87 967.61 599.62 963.84 590.86 958.92 589.86 963.21 589.01 962.72 589.27 966.49 586.96 977.37 585.96 976.8 586.22 980.56 586.15 980.89 594.95 985.97 595.96 981.18 596.8 981.67 596.54 977.9 598.9 967.04"/>
        </g>
        <path class="cls-24" d="M672.16,962.76c-.31-1.34-.6-2.63-.88-3.87a8.9,8.9,0,0,0-1.62-3.68,15.71,15.71,0,0,0-4.91-4.46,10.63,10.63,0,0,0-6.85-1.09,8.32,8.32,0,0,0-6,4.05,15.63,15.63,0,0,0-1.78,5.25c.07.48.15,1,.26,1.46l-.32,3.06,3.88,2.25.09-4.84a4.6,4.6,0,0,1-.2-4.71,4.2,4.2,0,0,1,3-2.14,8.24,8.24,0,0,1,5.93,1.18,12.59,12.59,0,0,1,2.59,2,14.07,14.07,0,0,1,4.07,7.21q2,8,1.56,7.88l-.17,3.15,2.94,1.7C673.22,972.35,672.67,967.54,672.16,962.76Z" transform="translate(0 0)"/>
      </g>
      <g id="dotsBottom-4" data-name="dotsBottom">
        <path class="cls-11" d="M685.67,899.88l-7.81-4.51a1.57,1.57,0,0,0-2.35,1.36v9a1.57,1.57,0,0,0,2.35,1.36l7.81-4.51A1.57,1.57,0,0,0,685.67,899.88Z" transform="translate(0 0)"/>
        <path class="cls-11" d="M633.7,869.88l-7.8-4.51a1.57,1.57,0,0,0-2.35,1.36v9a1.57,1.57,0,0,0,2.35,1.36l7.8-4.51A1.56,1.56,0,0,0,633.7,869.88Z" transform="translate(0 0)"/>
        <path class="cls-11" d="M675.67,917.2l-7.81-4.51a1.57,1.57,0,0,0-2.35,1.36v9a1.57,1.57,0,0,0,2.35,1.36l7.81-4.51A1.57,1.57,0,0,0,675.67,917.2Z" transform="translate(0 0)"/>
        <path class="cls-11" d="M654.68,893.54l-7.8-4.51a1.57,1.57,0,0,0-2.35,1.36v9a1.57,1.57,0,0,0,2.35,1.36l7.8-4.51A1.56,1.56,0,0,0,654.68,893.54Z" transform="translate(0 0)"/>
        <path class="cls-11" d="M623.7,887.2l-7.8-4.51a1.57,1.57,0,0,0-2.35,1.36v9a1.57,1.57,0,0,0,2.35,1.36l7.8-4.51A1.56,1.56,0,0,0,623.7,887.2Z" transform="translate(0 0)"/>
      </g>
      <g id="dotsFace-4" data-name="dotsFace">
        <path class="cls-12" d="M677.86,907.1l5.82-3.37-5.82-3.36a1.57,1.57,0,0,0-2.35,1.36v4A1.57,1.57,0,0,0,677.86,907.1Z" transform="translate(0 0)"/>
        <path class="cls-12" d="M625.9,877.1l5.82-3.37-5.82-3.36a1.57,1.57,0,0,0-2.35,1.36v4A1.57,1.57,0,0,0,625.9,877.1Z" transform="translate(0 0)"/>
        <path class="cls-12" d="M667.86,924.42l5.82-3.37-5.82-3.36a1.57,1.57,0,0,0-2.35,1.36v4A1.57,1.57,0,0,0,667.86,924.42Z" transform="translate(0 0)"/>
        <path class="cls-12" d="M646.88,900.76l5.82-3.37L646.88,894a1.57,1.57,0,0,0-2.35,1.36v4A1.57,1.57,0,0,0,646.88,900.76Z" transform="translate(0 0)"/>
        <path class="cls-12" d="M615.9,894.42l5.82-3.37-5.82-3.36a1.57,1.57,0,0,0-2.35,1.36v4A1.57,1.57,0,0,0,615.9,894.42Z" transform="translate(0 0)"/>
      </g>
    </g>
  </g>
</svg>
