<svg viewBox="0 0 2500 1096.97">
  <rect class="background" width="2500" height="1096.97"/>
  <g class="de7_descend">
    <g class="bottom">
      <path class="left" d="M400,245.94V352.75a15,15,0,0,0,7.5,13L500,419.15V526a15,15,0,0,0,7.5,13l85,49.07a15,15,0,0,0,15,0l85-49.07a15,15,0,0,0,7.5-13V419.15Z"/>
      <path class="right" d="M600,590a15,15,0,0,0,7.5-2l85-49.07a15,15,0,0,0,7.5-13V511L600,575Z"/>
    </g>
    <path class="edge" d="M592.5,226.61l-85-49.08a15,15,0,0,0-15,0l-85,49.08a15,15,0,0,0-7.5,13v98.15a15,15,0,0,0,7.5,13L500,404.15V511a15,15,0,0,0,7.5,13l85,49.07a15,15,0,0,0,15,0l85-49.07a15,15,0,0,0,7.5-13V412.8a15,15,0,0,0-7.5-13L600,346.41V239.6A15,15,0,0,0,592.5,226.61Z"/>
    <path class="face" d="M588.5,228.92l-81-46.77a15,15,0,0,0-15,0l-81,46.77a15,15,0,0,0-7.5,13v93.53a15,15,0,0,0,7.5,13L504,401.84v106.8a15,15,0,0,0,7.5,13l81,46.76a15,15,0,0,0,15,0l81-46.76a15,15,0,0,0,7.5-13V415.12a15,15,0,0,0-7.5-13L596,348.72V241.91A15,15,0,0,0,588.5,228.92Z"/>
    <g class="dotsBottom">
      <path d="M525.9,404.8l7.8-4.51a1.56,1.56,0,0,0,0-2.71l-7.8-4.5a1.56,1.56,0,0,0-2.35,1.35v9A1.57,1.57,0,0,0,525.9,404.8Z"/>
      <path d="M577.86,374.8l7.81-4.51a1.57,1.57,0,0,0,0-2.71l-7.81-4.5a1.56,1.56,0,0,0-2.35,1.35v9A1.57,1.57,0,0,0,577.86,374.8Z"/>
      <path d="M515.9,387.48l7.8-4.51a1.56,1.56,0,0,0,0-2.71l-7.8-4.5a1.56,1.56,0,0,0-2.35,1.35v9A1.57,1.57,0,0,0,515.9,387.48Z"/>
      <path d="M546.88,381.14l7.8-4.51a1.56,1.56,0,0,0,0-2.71l-7.8-4.5a1.56,1.56,0,0,0-2.35,1.35v9A1.57,1.57,0,0,0,546.88,381.14Z"/>
      <path d="M567.86,357.48l7.81-4.51a1.57,1.57,0,0,0,0-2.71l-7.81-4.5a1.56,1.56,0,0,0-2.35,1.35v9A1.57,1.57,0,0,0,567.86,357.48Z"/>
    </g>
    <g class="dotsFace">
      <path d="M525.9,404.8l5.82-3.36-5.82-3.36a1.56,1.56,0,0,0-2.35,1.35v4A1.57,1.57,0,0,0,525.9,404.8Z"/>
      <path d="M577.86,374.8l5.82-3.36-5.82-3.36a1.56,1.56,0,0,0-2.35,1.35v4A1.57,1.57,0,0,0,577.86,374.8Z"/>
      <path d="M515.9,387.48l5.82-3.36-5.82-3.36a1.56,1.56,0,0,0-2.35,1.35v4A1.57,1.57,0,0,0,515.9,387.48Z"/>
      <path d="M546.88,381.14l5.82-3.36-5.82-3.36a1.56,1.56,0,0,0-2.35,1.35v4A1.57,1.57,0,0,0,546.88,381.14Z"/>
      <path d="M567.86,357.48l5.82-3.36-5.82-3.36a1.56,1.56,0,0,0-2.35,1.35v4A1.57,1.57,0,0,0,567.86,357.48Z"/>
    </g>
    <g class="deBottom">
      <path d="M528.31,244.26c8.21,14.22,5.13,27.47-6.47,34.16s-24.51,2.77-32.72-11.45L471.84,237l5.68-3.28,2.23,3.87,27.87-16.1-2.23-3.86,5.68-3.28ZM520.19,239l-31.56,18.22.33.56c4.1,7.11,12.1,8.73,22.58,2.68s13.11-13.72,9.19-20.52Z"/>
      <path d="M500.09,323l-12.29,7.1-2.48-4.31,4.44-10.3-5.43-9.41-12.41,7.16,3.49,6.05,4.43-2.56,2.41,4.18-13.53,7.81-2.41-4.17,4.61-2.67-3.49-6.05-13.35,7.71L461,335.48c5.74-3.31,11-2.79,14,2.38l.54.94-14,8.06L436.78,304l5.67-3.28,2.23,3.87,27.88-16.09-2.23-3.87,5.67-3.28Z"/>
      <path d="M538.17,273.64l3.63,3.26,15.26-8.8,1.56,2.71-14.31,8.26,8.26,7.46,13.68-7.9,1.57,2.71L555,288.73l3.3,2.95-9.74,5.63-3.32-2.95-13.8,8,3.21,3L525,310.91l-3.32-3-15.25,8.8-1.56-2.71,14.4-8.31-8.22-7.48-13.91,8-1.56-2.71,12.91-7.46-3.64-3.26,9.75-5.63,3.63,3.27,13.92-8-3.64-3.26Zm4.66,18.51-8.2-7.49-14,8.08,8.27,7.44Z"/>
      <path d="M520.7,321.66l-23.94,13.83-6,3.45a16.22,16.22,0,0,1,9.38,7.18,8.28,8.28,0,0,1,.53,7.18,10.55,10.55,0,0,1-4.37,5.39,15.74,15.74,0,0,1-6.31,2,8.88,8.88,0,0,1-4-.43l-3.79-1.18q-9.06-4-18.19-8l55.28-31.91Zm-27.61,26a4.23,4.23,0,0,0-.37-3.66c-.86-1.5-2.41-2.23-4.63-2.19q-2.56.11-9.85,4.32l-8.05,4.64q-.31.31,7.61,2.59a14,14,0,0,0,8.28.09,12.4,12.4,0,0,0,3-1.25A8.24,8.24,0,0,0,493.09,347.71Z"/>
    </g>
    <g class="abBottom">
      <path d="M623.46,430.35c-5.43-9.84-4.34-18,2.33-21.89,7.36-4.25,14.68-1.65,20.29,8.08,3.39,5.86,4.75,8.23,7.9,14.39l9.47,16.4-5.68,3.28-2.23-3.87-27.87,16.1,2.23,3.86L624.22,470l-9.47-16.4c-3.74-6.49-4.7-7.43-7.15-11.67-4.32-7.48-3.82-13.67,1.79-16.91C614.26,422.19,619.62,424,623.46,430.35Zm3.91,8.21-.18-.31c-2.74-4.74-6.69-6.11-10.68-3.81-3.68,2.13-4.9,5.49-1.87,10.73l.32.56Zm3.68-2.12,16.09-9.29-.43-.75c-3.1-5.36-7.6-6.67-12.71-3.72s-6.44,7.71-3.06,13.57Z"/>
      <path d="M606.45,510.69l10.26-2.1-2.45-4.24,6.3-3.64,8.07,14-6.3,3.64-2.56-4.43L580,521.11l-10.58-18.33L595.84,471l-2.59-4.49,5.68-3.28,16.12,27.94-5.67,3.28-2.27-3.93-7.54,8.26ZM585,515l15-3-4.78-8.3Z"/>
      <path d="M563.05,479.39l-3.63-3.27-15.25,8.81-1.57-2.71L556.91,474l-8.26-7.45L535,474.4l-1.57-2.71,12.8-7.39-3.3-3,9.74-5.62,3.32,2.95,13.79-8-3.2-3,9.64-5.57,3.33,2.95,15.24-8.81,1.57,2.72-14.41,8.31,8.23,7.47,13.9-8,1.57,2.71-12.92,7.46,3.64,3.26-9.74,5.62L583,462.53l-13.92,8,3.64,3.26Zm-4.65-18.51,8.19,7.48,14-8.07-8.28-7.44Z"/>
      <path d="M578.53,427.9l23.94-13.82,6-3.46a16.25,16.25,0,0,1-9.38-7.18,8.31,8.31,0,0,1-.53-7.18,10.6,10.6,0,0,1,4.37-5.39,16,16,0,0,1,6.32-2,8.74,8.74,0,0,1,4,.44l3.8,1.17q9,4,18.19,8l-55.28,31.91Zm27.61-26a4.21,4.21,0,0,0,.36,3.65q1.31,2.25,4.63,2.19,2.57-.1,9.86-4.31l8-4.65c.21-.2-2.32-1.07-7.61-2.59a14,14,0,0,0-8.27-.08,12.62,12.62,0,0,0-3,1.24A8.24,8.24,0,0,0,606.14,401.86Z"/>
    </g>
    <g class="deFace">
      <path d="M511.07,219.39l-3.51,2,.06.11v5l-27.87,16.1-2.23-3.87-3.51,2L489.12,267c8.21,14.22,21.13,18.15,32.72,11.45,6.42-3.7,10.22-9.41,10.95-16.17a33,33,0,0,0-4.48-13Zm.47,46c-10.48,6.05-18.48,4.43-22.58-2.68l-.33-.56v-5L520.19,239l.54.94a11.59,11.59,0,0,1,1.41,8.55C523.49,254.29,520.17,260.44,511.54,265.43Z"/>
      <path d="M487.8,330.13l10.12-5.85-21.92-38-3.51,2,.07.12v5l-27.88,16.09-2.23-3.87-3.51,2,22.61,39.15,11.35-6.55c-3.06-2.67-7.36-2.48-11.94.17l-6.88-11.91v-5l13.35-7.71,3.49,6.05v5l-2.45,1.42.25.42,11.37-6.56-.25-.43-4.43,2.56-3.49-6.05v-5l12.41-7.16,5.43,9.41v5L486.55,328Z"/>
      <g>
        <polygon points="525.03 310.91 534.68 305.34 532.38 303.18 528.92 305.18 520.65 297.74 521.59 293.58 518.26 295.5 514.63 292.23 508.28 295.9 508.52 296.12 507.58 300.28 511.08 298.26 519.3 305.74 518.37 309.89 521.71 307.96 525.03 310.91"/>
        <polygon points="548.59 297.31 558.33 291.68 555.97 289.57 552.57 291.53 544.31 284.07 545.25 279.92 541.8 281.9 538.17 278.64 531.93 282.24 532.17 282.46 531.24 286.62 534.63 284.66 542.83 292.15 541.9 296.3 545.27 294.36 548.59 297.31"/>
      </g>
      <g>
        <path d="M492.61,339.64l-3.88,2.24a4.87,4.87,0,0,1,3.33,1.32Z"/>
        <path d="M472.14,354.7l-.26-3.1L469,353.3Z"/>
        <path d="M486,360.28a8.88,8.88,0,0,0,4,.43,15.74,15.74,0,0,0,6.31-2,10.55,10.55,0,0,0,4.37-5.39c.07-.2.12-.4.18-.6a8.52,8.52,0,0,0-.71-1.58,15.7,15.7,0,0,0-7.06-6.26,4.17,4.17,0,0,1,0,2.85,7.17,7.17,0,0,1-.5,1.14l.13.2a4.23,4.23,0,0,1,.37,3.66,8.24,8.24,0,0,1-4,4.54,12.4,12.4,0,0,1-3,1.25,14.22,14.22,0,0,1-3.93.58l.06,0Z"/>
      </g>
    </g>
    <g class="abFace">
      <path d="M609.39,430a8.76,8.76,0,0,0-4.37,5.52,22,22,0,0,0,2.58,6.39c2.45,4.24,3.41,5.18,7.15,11.67l9.47,16.4,3.51-2-.06-.11v-5l27.87-16.1,2.23,3.87,3.51-2L654,435.93c-3.15-6.16-4.51-8.53-7.9-14.39-5.61-9.73-12.93-12.33-20.29-8.08a11.09,11.09,0,0,0-5.58,7.94,27.56,27.56,0,0,0,3.25,9l-.77,3.51a9.92,9.92,0,0,1,4.5,4.39l.18.31v5L615,450.73l-.32-.56c-1.84-3.18-2.1-5.67-1.21-7.61-1.3-3.78.05-6.37,3.08-8.12a6.81,6.81,0,0,1,5.85-.72C618.64,428.72,613.81,427.45,609.39,430ZM634,422.68c5.11-2.95,9.61-1.64,12.71,3.72l.43.75v5l-16.09,9.29-.11-.19c-1.86-3.21-2.32-6.07-1.51-8.5C628.24,428.51,629.85,425.08,634,422.68Z"/>
      <path d="M595.42,470.26l.42.74v5l-24.68,29.73L580,521.11l39.73-7.22,2.56,4.43,4.13-2.39-5.9-10.22-4.13,2.39.28.49v5l-10.26,2.1-6.88-11.91v-5l7.54-8.26,2.27,3.93,3.51-2-14-24.18ZM600,512v5l-15,3v-5l10.26-11.33Z"/>
      <g>
        <polygon points="563.05 479.39 569.29 475.78 569.05 475.56 569.99 471.4 566.59 473.36 558.39 465.88 559.32 461.72 555.96 463.67 552.64 460.72 546.2 464.3 545.26 468.46 548.65 466.5 556.91 473.95 555.98 478.11 559.42 476.12 563.05 479.39"/>
        <polygon points="586.6 465.79 592.95 462.13 592.7 461.91 593.64 457.75 590.15 459.76 581.92 452.29 582.85 448.14 579.51 450.06 576.19 447.12 569.75 450.7 568.84 454.85 572.3 452.85 580.58 460.29 579.64 464.45 582.97 462.53 586.6 465.79"/>
      </g>
      <g>
        <path d="M607.16,411.37l-.54,3.56,3.88-2.25A4.87,4.87,0,0,1,607.16,411.37Z"/>
        <path d="M627.08,399.87l.26,3.09,2.94-1.7Z"/>
        <path d="M613.22,394.29a8.74,8.74,0,0,0-4-.44,16,16,0,0,0-6.32,2,10.6,10.6,0,0,0-4.37,5.39c-.07.21-.12.4-.17.6a7.62,7.62,0,0,0,.7,1.58,15.86,15.86,0,0,0,7.07,6.27l.36-4.2a4.21,4.21,0,0,1-.36-3.65,8.24,8.24,0,0,1,4-4.55,12.62,12.62,0,0,1,3-1.24,13.49,13.49,0,0,1,3.92-.58l-.05,0Z"/>
      </g>
    </g>
  </g>
  <g class="e10_horizon">
    <g class="bottom">
      <path class="leftMoved" d="M1800,684.16v15a15,15,0,0,0,7.5,13l85,49.08a15.08,15.08,0,0,0,7.5,2,14.87,14.87,0,0,0,7.5-2l92.5-53.41,92.5,53.41a15,15,0,0,0,15,0l85-49.08a15,15,0,0,0,7.5-13v-15Z"/>
      <g class="rightMoved">
        <path d="M2000,692.82l-100,55.42v15a14.87,14.87,0,0,0,7.5-2l92.5-53.41v-15"/>
        <path d="M2200,699.16a15,15,0,0,1-7.5,13l-85,49.08a15,15,0,0,1-7.5,2v-15l100-64.08Z"/>
      </g>
    </g>
    <path class="edgeMoved" d="M2092.5,524l-92.5,53.4L1907.5,524a15,15,0,0,0-15,0l-85,49.07a15,15,0,0,0-7.5,13v98.15a15,15,0,0,0,7.5,13l85,49.08a15,15,0,0,0,15,0l92.5-53.41,92.5,53.41a15,15,0,0,0,15,0l85-49.08a15,15,0,0,0,7.5-13V586a15,15,0,0,0-7.5-13l-85-49.07A15,15,0,0,0,2092.5,524Z"/>
    <path class="faceMoved" d="M2092.5,528.57,2000,582l-92.5-53.4a15,15,0,0,0-15,0l-81,46.76a15,15,0,0,0-7.5,13v93.53a15,15,0,0,0,7.5,13l81,46.77a15,15,0,0,0,15,0L2000,688.2l92.5,53.41a15,15,0,0,0,15,0l81-46.77a15,15,0,0,0,7.5-13V588.32a15,15,0,0,0-7.5-13l-81-46.76A15,15,0,0,0,2092.5,528.57Z"/>
    <g class="dotsBottom">
      <path d="M2002.88,666.59v-13a2.25,2.25,0,0,0-3.37-2l-11.26,6.5a2.24,2.24,0,0,0,0,3.89l11.26,6.5A2.24,2.24,0,0,0,2002.88,666.59Z"/>
      <path d="M2012.88,616.59v-13a2.25,2.25,0,0,0-3.37-2l-11.26,6.5a2.24,2.24,0,0,0,0,3.89l11.26,6.5A2.24,2.24,0,0,0,2012.88,616.59Z"/>
    </g>
    <g class="dotsFace">
      <path d="M1999.51,656.64l-10.3,6,10.3,5.94a2.24,2.24,0,0,0,3.37-1.94v-8A2.25,2.25,0,0,0,1999.51,656.64Z"/>
      <path d="M2009.51,606.64l-10.3,6,10.3,5.94a2.24,2.24,0,0,0,3.37-1.94v-8A2.25,2.25,0,0,0,2009.51,606.64Z"/>
    </g>
    <path class="dBottom" d="M2091.87,680.37c-32.83,0-52.71-18.57-52.71-45.36s19.73-45.21,52.56-45.21h69.12v13.1h-8.93v64.37h8.93v13.1Zm17.28-8.78V598.73h-1.3c-16.41,0-27.21,12.24-27.21,36.43s10.65,36.43,26.35,36.43Z"/>
    <path class="eBottom" d="M1946.8,589.8v28.37h-9.94l-13.39-18h-21.74v28.65h14V618.6h9.65v31.25h-9.65V639.19h-14V670h27.5c0-13.25,6.2-21.89,18.15-21.89h2.16v32.25h-99.07v-13.1h8.92V602.9h-8.92V589.8Z"/>
    <path class="dFace" d="M2039.22,637.51c1.2,25.44,20.85,42.86,52.65,42.86h69v-8.1h-8.93V602.9h8.93v-8.1h-69.12C2059.92,594.8,2040.42,612.09,2039.22,637.51Zm69.93-38.78v77.86H2107c-15.7,0-26.35-12.38-26.35-36.43,0-.85,0-1.68,0-2.5s0-1.65,0-2.5c0-24.19,10.8-36.43,27.21-36.43Z"/>
    <path class="eFace" d="M1929.23,675h-27.5V639.19h14v10.66h9.65V623.6h-9.65v10.22h-14V600.17h21.74l13.4,18h9.93V594.8h-96.33v8.1h8.92v69.37h-8.92v8.1h99.07V653.12h-2.16C1935.43,653.12,1929.23,661.76,1929.23,675Z"/>
  </g>
  <g class="g5_horizon">
    <g class="bottom">
      <path class="leftMoved" d="M400,684.16v15a15,15,0,0,0,7.5,13l85,49.08a15.08,15.08,0,0,0,7.5,2,14.87,14.87,0,0,0,7.5-2L600,707.82l92.5,53.41a15,15,0,0,0,15,0l85-49.08a15,15,0,0,0,7.5-13v-15Z"/>
      <g class="rightMoved">
        <path d="M600,692.82,500,748.24v15a14.87,14.87,0,0,0,7.5-2L600,707.82v-15"/>
        <path d="M800,699.16a15,15,0,0,1-7.5,13l-85,49.08a15,15,0,0,1-7.5,2v-15l100-64.08Z"/>
      </g>
    </g>
    <path class="edgeMoved" d="M692.5,524,600,577.35,507.5,524a15,15,0,0,0-15,0L407.5,573a15,15,0,0,0-7.5,13v98.15a15,15,0,0,0,7.5,13l85,49.08a15,15,0,0,0,15,0L600,692.82l92.5,53.41a15,15,0,0,0,15,0l85-49.08a15,15,0,0,0,7.5-13V586a15,15,0,0,0-7.5-13L707.5,524A15,15,0,0,0,692.5,524Z"/>
    <path class="faceMoved" d="M692.5,528.57,600,582l-92.5-53.41a15,15,0,0,0-15,0l-81,46.77a15,15,0,0,0-7.5,13v93.53a15,15,0,0,0,7.5,13l81,46.77a15,15,0,0,0,15,0L600,688.2l92.5,53.41a15,15,0,0,0,15,0l81-46.77a15,15,0,0,0,7.5-13V588.32a15,15,0,0,0-7.5-13l-81-46.76A15,15,0,0,0,692.5,528.57Z"/>
    <g class="dotsBottom">
      <path d="M584.53,600.58v9a1.57,1.57,0,0,0,2.35,1.36l7.8-4.51a1.56,1.56,0,0,0,0-2.71l-7.8-4.51A1.57,1.57,0,0,0,584.53,600.58Z"/>
      <path d="M584.53,660.58v9a1.57,1.57,0,0,0,2.35,1.36l7.8-4.51a1.56,1.56,0,0,0,0-2.71l-7.8-4.51A1.57,1.57,0,0,0,584.53,660.58Z"/>
      <path d="M604.53,600.58v9a1.57,1.57,0,0,0,2.35,1.36l7.8-4.51a1.56,1.56,0,0,0,0-2.71l-7.8-4.51A1.57,1.57,0,0,0,604.53,600.58Z"/>
      <path d="M594.53,630.58v9a1.57,1.57,0,0,0,2.35,1.36l7.8-4.51a1.56,1.56,0,0,0,0-2.71l-7.8-4.51A1.57,1.57,0,0,0,594.53,630.58Z"/>
      <path d="M604.53,660.58v9a1.57,1.57,0,0,0,2.35,1.36l7.8-4.51a1.56,1.56,0,0,0,0-2.71l-7.8-4.51A1.57,1.57,0,0,0,604.53,660.58Z"/>
    </g>
    <g class="dotsFace">
      <path d="M586.88,611l5.82-3.36-5.82-3.37a1.57,1.57,0,0,0-2.35,1.36v4A1.57,1.57,0,0,0,586.88,611Z"/>
      <path d="M586.88,671l5.82-3.36-5.82-3.37a1.57,1.57,0,0,0-2.35,1.36v4A1.57,1.57,0,0,0,586.88,671Z"/>
      <path d="M606.88,611l5.82-3.36-5.82-3.37a1.57,1.57,0,0,0-2.35,1.36v4A1.57,1.57,0,0,0,606.88,611Z"/>
      <path d="M596.88,641l5.82-3.36-5.82-3.37a1.57,1.57,0,0,0-2.35,1.36v4A1.57,1.57,0,0,0,596.88,641Z"/>
      <path d="M606.88,671l5.82-3.36-5.82-3.37a1.57,1.57,0,0,0-2.35,1.36v4A1.57,1.57,0,0,0,606.88,671Z"/>
    </g>
    <path class="cBottom" d="M650.46,624.21H648.3V601.75c12.53-9.07,29.24-13.39,46.08-13.39,34.27,0,57.31,18.86,57.31,46.51,0,28.37-22,46.94-55.87,46.94-12.67,0-22.75-3.45-30.09-9.36v6.91H650V649h13.68L677,668.56c18.29,0,31.54-14.39,31.54-34.41,0-21-11.24-33.12-26.36-33.12a31.26,31.26,0,0,0-12.09,2.16C670.05,617.73,661.12,624.21,650.46,624.21Z"/>
    <path class="gBottom" d="M531.39,598.87v-8.06h15.7v27.5H533.41l-14.69-16.7c-21,.43-31.54,14.54-31.54,34.41,0,20.31,11.67,34.56,28.23,34.56V647.4h-8.36V634.29h49V647.4H548V667c-13.1,10.08-29.81,14.83-46.66,14.83C467,681.81,444,663,444,635.3c0-28.37,23.33-46.94,57.31-46.94C513.82,588.36,526.64,593.4,531.39,598.87Z"/>
    <path class="cFace" d="M695.82,681.81c32.8,0,54.51-17.45,55.81-44.35-1.3-26.33-24-44.1-57.25-44.1-16.84,0-33.55,4.32-46.08,13.39v17.46h2.16c10.66,0,19.59-6.48,19.59-21A31.26,31.26,0,0,1,682.14,601c15.12,0,26.36,12.1,26.36,33.12,0,.79,0,1.57-.07,2.35s.07,1.75.07,2.65c0,20-13.25,34.41-31.54,34.41L663.71,654H650v25.38h15.7v-6.91C673.07,678.36,683.15,681.81,695.82,681.81Z"/>
    <path class="gFace" d="M507.05,647.4h8.36v28.18c-16.56,0-28.23-14.25-28.23-34.56,0-.85,0-1.7.07-2.53s-.07-1.63-.07-2.47c0-19.87,10.51-34,31.54-34.41l14.69,16.7h13.68v-22.5h-15.7v8.06c-4.75-5.47-17.57-10.51-30.1-10.51-33,0-55.9,17.48-57.24,44.43,1.34,26.28,24,44,57.24,44,16.85,0,33.56-4.75,46.66-14.83V647.4H556v-8.11h-49Z"/>
  </g>
  <g class="e10_descend">
    <g class="bottom">
      <path class="left" d="M800,592.35V699.16a15,15,0,0,0,7.5,13L900,765.56V872.37a15,15,0,0,0,7.5,13l85,49.07a15,15,0,0,0,15,0l85-49.07a15,15,0,0,0,7.5-13V765.56Z"/>
      <path class="right" d="M1000,936.44a15,15,0,0,0,7.5-2l85-49.07a15,15,0,0,0,7.5-13v-15l-100,64.07Z"/>
    </g>
    <path class="edge" d="M992.5,573,907.5,524a15,15,0,0,0-15,0L807.5,573a15,15,0,0,0-7.5,13v98.15a15,15,0,0,0,7.5,13L900,750.56V857.37a15,15,0,0,0,7.5,13l85,49.07a15,15,0,0,0,15,0l85-49.07a15,15,0,0,0,7.5-13V759.22a15,15,0,0,0-7.5-13L1000,692.82V586A15,15,0,0,0,992.5,573Z"/>
    <path class="face" d="M988.5,575.33l-81-46.76a15,15,0,0,0-15,0l-81,46.76a15,15,0,0,0-7.5,13v93.53a15,15,0,0,0,7.5,13L904,748.25V855.06a15,15,0,0,0,7.5,13l81,46.76a15,15,0,0,0,15,0l81-46.76a15,15,0,0,0,7.5-13V761.53a15,15,0,0,0-7.5-13L996,695.13V588.32A15,15,0,0,0,988.5,575.33Z"/>
    <g class="dotsBottom">
      <path d="M921.34,738.31l11.26-6.51a2.24,2.24,0,0,0,0-3.89l-11.26-6.5a2.25,2.25,0,0,0-3.37,2v13A2.25,2.25,0,0,0,921.34,738.31Z"/>
      <path d="M969.64,722l11.26-6.51a2.24,2.24,0,0,0,0-3.89l-11.26-6.5a2.25,2.25,0,0,0-3.37,1.95v13A2.25,2.25,0,0,0,969.64,722Z"/>
    </g>
    <g class="dotsFace">
      <path d="M921.34,738.31l10.3-5.95-10.3-6a2.25,2.25,0,0,0-3.37,2v8A2.25,2.25,0,0,0,921.34,738.31Z"/>
      <path d="M969.64,722l10.3-6-10.3-5.95a2.25,2.25,0,0,0-3.37,1.95v8A2.25,2.25,0,0,0,969.64,722Z"/>
    </g>
    <path class="dBottom" d="M956.71,823.89c-16.41-28.44-10.26-54.93,12.93-68.32s49-5.53,65.44,22.91l34.56,59.85-11.35,6.56-4.46-7.74-55.75,32.19,4.47,7.73-11.35,6.55ZM973,834.46l63.1-36.43-.65-1.12c-8.21-14.22-24.21-17.45-45.16-5.36S964,819,971.88,832.59Z"/>
    <path class="eBottom" d="M962.62,653l-24.57,14.18-5-8.6L942,638,931.1,619.12l-24.81,14.33,7,12.1,8.86-5.12,4.82,8.36-27.06,15.62-4.82-8.35,9.22-5.33-7-12.1L870.62,654l13.76,23.82c11.47-6.62,22-5.58,28,4.77l1.08,1.87-27.93,16.13L836,614.83l11.35-6.55,4.46,7.73,55.75-32.18-4.47-7.74,11.35-6.55Z"/>
    <path class="dFace" d="M969.64,760.57c-13.59,7.84-21.32,20.19-22.09,34.79.47,9,3.45,18.63,9.16,28.53l34.49,59.73,9.18-5.3-2.3-4v-5l55.75-32.19,4.46,7.74,9.18-5.31-32.39-56.1C1018.66,755,992.84,747.17,969.64,760.57ZM1036.06,798v5L973,839.46l-1.08-1.87a23.52,23.52,0,0,1-3.28-14.65c-1.24-10.89,5.64-22.14,21.65-31.39,21-12.09,37-8.86,45.16,5.36Z"/>
    <path class="eFace" d="M938.05,667.15l22.4-12.93-46-79.68-9.18,5.3,2.3,4v5L851.82,621l-4.46-7.73-9.18,5.3,47.37,82,25.68-14.83c-6.13-8.62-16.1-9.15-26.85-2.94L870.62,659v-5l26.69-15.41,7,12.1v5l-7.06,4.08,2.66,4.6L924.79,650l-2.66-4.61-8.86,5.12-7-12.1v-5l24.81-14.33L942,638v5l-7.66,17.74Z"/>
  </g>
  <g class="de7_descend">
    <g class="bottom">
      <path class="left" d="M1400,245.94V352.75a15,15,0,0,0,7.5,13l92.5,53.41V526a15,15,0,0,0,7.5,13l85,49.07a15,15,0,0,0,15,0l85-49.07a15,15,0,0,0,7.5-13V419.15Z"/>
      <path class="right" d="M1600,590a15,15,0,0,0,7.5-2l85-49.07a15,15,0,0,0,7.5-13V511L1600,575Z"/>
    </g>
    <path class="edge" d="M1592.5,226.61l-85-49.07a15,15,0,0,0-15,0l-85,49.07a15,15,0,0,0-7.5,13v98.15a15,15,0,0,0,7.5,13l92.5,53.41V511a15,15,0,0,0,7.5,13l85,49.07a15,15,0,0,0,15,0l85-49.07a15,15,0,0,0,7.5-13V412.81a15,15,0,0,0-7.5-13L1600,346.41V239.6A15,15,0,0,0,1592.5,226.61Z"/>
    <path class="face" d="M1588.5,228.92l-81-46.77a15,15,0,0,0-15,0l-81,46.77a15,15,0,0,0-7.5,13v93.53a15,15,0,0,0,7.5,13l92.5,53.41v106.8a15,15,0,0,0,7.5,13l81,46.76a15,15,0,0,0,15,0l81-46.76a15,15,0,0,0,7.5-13V415.12a15,15,0,0,0-7.5-13l-92.5-53.4V241.91A15,15,0,0,0,1588.5,228.92Z"/>
    <g class="dotsBottom">
      <path d="M1525.9,404.8l7.8-4.51a1.56,1.56,0,0,0,0-2.71l-7.8-4.5a1.56,1.56,0,0,0-2.35,1.35v9A1.57,1.57,0,0,0,1525.9,404.8Z"/>
      <path d="M1577.86,374.8l7.81-4.51a1.57,1.57,0,0,0,0-2.71l-7.81-4.5a1.56,1.56,0,0,0-2.35,1.35v9A1.57,1.57,0,0,0,1577.86,374.8Z"/>
      <path d="M1515.9,387.48l7.8-4.51a1.56,1.56,0,0,0,0-2.71l-7.8-4.5a1.56,1.56,0,0,0-2.35,1.35v9A1.57,1.57,0,0,0,1515.9,387.48Z"/>
      <path d="M1546.88,381.14l7.8-4.51a1.56,1.56,0,0,0,0-2.71l-7.8-4.5a1.56,1.56,0,0,0-2.35,1.35v9A1.57,1.57,0,0,0,1546.88,381.14Z"/>
      <path d="M1567.86,357.48l7.81-4.51a1.57,1.57,0,0,0,0-2.71l-7.81-4.5a1.56,1.56,0,0,0-2.35,1.35v9A1.57,1.57,0,0,0,1567.86,357.48Z"/>
    </g>
    <g class="dotsFace">
      <path d="M1525.9,404.8l5.82-3.36-5.82-3.36a1.56,1.56,0,0,0-2.35,1.35v4A1.57,1.57,0,0,0,1525.9,404.8Z"/>
      <path d="M1577.86,374.8l5.82-3.36-5.82-3.36a1.56,1.56,0,0,0-2.35,1.35v4A1.57,1.57,0,0,0,1577.86,374.8Z"/>
      <path d="M1515.9,387.48l5.82-3.36-5.82-3.36a1.56,1.56,0,0,0-2.35,1.35v4A1.57,1.57,0,0,0,1515.9,387.48Z"/>
      <path d="M1546.88,381.14l5.82-3.36-5.82-3.36a1.56,1.56,0,0,0-2.35,1.35v4A1.57,1.57,0,0,0,1546.88,381.14Z"/>
      <path d="M1567.86,357.48l5.82-3.36-5.82-3.36a1.56,1.56,0,0,0-2.35,1.35v4A1.57,1.57,0,0,0,1567.86,357.48Z"/>
    </g>
    <g class="deBottom">
      <path d="M1528.31,244.26c8.21,14.22,5.13,27.47-6.47,34.16s-24.51,2.77-32.72-11.45L1471.84,237l5.68-3.28,2.23,3.87,27.87-16.1-2.23-3.86,5.67-3.28Zm-8.12-5.29-31.56,18.22.33.56c4.1,7.11,12.1,8.73,22.58,2.68s13.11-13.72,9.19-20.52Z"/>
      <path d="M1500.09,323l-12.29,7.1-2.48-4.31,4.44-10.3-5.43-9.41-12.41,7.16,3.49,6.05,4.43-2.56,2.41,4.18-13.53,7.81-2.41-4.17,4.61-2.67-3.49-6.05-13.35,7.71,6.88,11.91c5.74-3.31,11-2.79,14,2.38l.54.94-14,8.06L1436.78,304l5.67-3.28,2.23,3.87,27.88-16.09-2.23-3.87,5.67-3.28Z"/>
      <path d="M1538.17,273.64l3.63,3.27,15.26-8.81,1.56,2.71-14.31,8.26,8.26,7.46,13.68-7.9,1.57,2.71L1555,288.73l3.3,2.95-9.75,5.63-3.31-2.95-13.8,8,3.21,3-9.65,5.57-3.32-3-15.25,8.8-1.56-2.71,14.4-8.31-8.22-7.48-13.91,8-1.56-2.71,12.91-7.46-3.64-3.26,9.75-5.63,3.63,3.27,13.92-8-3.65-3.26Zm4.66,18.51-8.2-7.49-14,8.08,8.27,7.44Z"/>
      <path d="M1520.7,321.66l-23.94,13.83-6,3.45a16.22,16.22,0,0,1,9.38,7.18,8.28,8.28,0,0,1,.53,7.18,10.55,10.55,0,0,1-4.37,5.39,15.74,15.74,0,0,1-6.31,2,8.88,8.88,0,0,1-4-.43l-3.79-1.18q-9.06-4-18.19-8l55.28-31.91Zm-27.61,26a4.23,4.23,0,0,0-.37-3.66c-.86-1.5-2.41-2.23-4.63-2.19q-2.56.11-9.85,4.32l-8,4.64q-.32.31,7.61,2.59a14,14,0,0,0,8.28.09,12.4,12.4,0,0,0,3-1.25A8.24,8.24,0,0,0,1493.09,347.71Z"/>
    </g>
    <g class="abBottom">
      <path d="M1623.46,430.35c-5.43-9.84-4.34-18,2.33-21.89,7.36-4.25,14.68-1.65,20.29,8.08,3.39,5.86,4.75,8.23,7.9,14.39l9.47,16.4-5.68,3.28-2.23-3.87-27.87,16.1,2.23,3.86-5.68,3.28-9.47-16.4c-3.74-6.49-4.7-7.43-7.15-11.67-4.32-7.48-3.82-13.67,1.79-16.91C1614.26,422.19,1619.62,424,1623.46,430.35Zm3.91,8.21-.18-.31c-2.74-4.74-6.69-6.11-10.68-3.81-3.68,2.13-4.9,5.49-1.87,10.73l.32.56Zm3.68-2.12,16.09-9.29-.43-.75c-3.1-5.36-7.6-6.67-12.71-3.72s-6.44,7.71-3.06,13.57Z"/>
      <path d="M1606.45,510.69l10.26-2.1-2.45-4.24,6.3-3.64,8.07,14-6.3,3.64-2.56-4.43L1580,521.11l-10.58-18.33L1595.84,471l-2.59-4.49,5.67-3.27,16.13,27.93-5.67,3.28-2.27-3.93-7.54,8.26ZM1585,515l15-3-4.78-8.3Z"/>
      <path d="M1563.05,479.39l-3.63-3.27-15.25,8.81-1.57-2.71,14.31-8.27-8.26-7.45L1535,474.4l-1.57-2.71,12.8-7.39-3.3-3,9.74-5.62,3.32,2.95,13.79-8-3.2-3,9.64-5.57,3.32,2.95,15.25-8.81,1.57,2.72-14.41,8.31,8.23,7.47,13.9-8,1.57,2.71-12.92,7.46,3.64,3.26-9.74,5.62-3.63-3.26-13.92,8,3.64,3.26Zm-4.65-18.51,8.19,7.48,14-8.07-8.27-7.44Z"/>
      <path d="M1578.52,427.9l24-13.82,6-3.46a16.25,16.25,0,0,1-9.38-7.18,8.29,8.29,0,0,1-.53-7.17,10.58,10.58,0,0,1,4.37-5.4,16,16,0,0,1,6.32-2,8.74,8.74,0,0,1,4,.44l3.8,1.17q9,4,18.19,8l-55.28,31.91Zm27.62-26a4.21,4.21,0,0,0,.36,3.65q1.3,2.25,4.63,2.19,2.56-.1,9.86-4.31l8-4.65c.21-.2-2.32-1.07-7.61-2.59a14,14,0,0,0-8.27-.08,12.62,12.62,0,0,0-3,1.24A8.24,8.24,0,0,0,1606.14,401.86Z"/>
    </g>
    <g class="deFace">
      <path d="M1511.06,219.39l-3.5,2,.06.11v5l-27.87,16.1-2.23-3.87-3.51,2L1489.12,267c8.21,14.22,21.13,18.15,32.72,11.45,6.42-3.7,10.22-9.41,11-16.17a33,33,0,0,0-4.48-13Zm.48,46c-10.48,6.05-18.48,4.43-22.58-2.68l-.33-.56v-5L1520.19,239l.54.94a11.59,11.59,0,0,1,1.41,8.55C1523.49,254.29,1520.17,260.44,1511.54,265.43Z"/>
      <path d="M1487.8,330.13l10.12-5.85-21.92-38-3.51,2,.07.12v5l-27.88,16.09-2.23-3.87-3.51,2,22.61,39.15,11.35-6.55c-3.06-2.67-7.36-2.48-11.94.17l-6.88-11.91v-5l13.35-7.71,3.49,6.05v5l-2.45,1.42.25.42,11.37-6.56-.25-.43-4.43,2.56-3.49-6.05v-5l12.41-7.16,5.43,9.41v5l-3.21,7.44Z"/>
      <g>
        <polygon points="1525.03 310.91 1534.68 305.34 1532.38 303.18 1528.92 305.18 1520.65 297.74 1521.59 293.58 1518.26 295.5 1514.63 292.23 1508.28 295.9 1508.52 296.12 1507.58 300.28 1511.08 298.26 1519.3 305.74 1518.37 309.89 1521.71 307.96 1525.03 310.91"/>
        <polygon points="1548.59 297.31 1558.33 291.68 1555.97 289.57 1552.57 291.53 1544.31 284.07 1545.25 279.92 1541.81 281.9 1538.17 278.64 1531.93 282.24 1532.17 282.46 1531.24 286.62 1534.63 284.66 1542.83 292.15 1541.9 296.3 1545.27 294.36 1548.59 297.31"/>
      </g>
      <g>
        <path d="M1492.61,339.64l-3.88,2.24a4.87,4.87,0,0,1,3.33,1.32Z"/>
        <path d="M1472.14,354.7l-.26-3.09L1469,353.3Z"/>
        <path d="M1486,360.28a8.88,8.88,0,0,0,4,.43,15.74,15.74,0,0,0,6.31-2,10.55,10.55,0,0,0,4.37-5.39c.07-.2.12-.4.18-.6a8.52,8.52,0,0,0-.71-1.58,15.7,15.7,0,0,0-7.06-6.26,4.17,4.17,0,0,1,0,2.85,6.8,6.8,0,0,1-.5,1.14l.13.2a4.23,4.23,0,0,1,.37,3.66,8.24,8.24,0,0,1-4,4.54,12.4,12.4,0,0,1-3,1.25,14.22,14.22,0,0,1-3.93.58l.06,0Z"/>
      </g>
    </g>
    <g class="abFace">
      <path d="M1609.39,430a8.76,8.76,0,0,0-4.37,5.52,21.74,21.74,0,0,0,2.58,6.39c2.45,4.24,3.41,5.18,7.15,11.67l9.47,16.4,3.51-2-.06-.11v-5l27.87-16.1,2.23,3.87,3.51-2-7.3-12.65c-3.15-6.16-4.51-8.53-7.9-14.39-5.61-9.73-12.93-12.33-20.29-8.08a11.09,11.09,0,0,0-5.58,7.94,27.32,27.32,0,0,0,3.25,9l-.77,3.51a10,10,0,0,1,4.5,4.39l.18.31v5L1615,450.73l-.32-.56c-1.84-3.18-2.1-5.67-1.21-7.61-1.3-3.78,0-6.37,3.08-8.12a6.81,6.81,0,0,1,5.85-.72C1618.64,428.72,1613.81,427.45,1609.39,430Zm24.61-7.32c5.11-2.95,9.61-1.64,12.71,3.72l.43.75v5l-16.09,9.29-.11-.19c-1.86-3.21-2.32-6.07-1.51-8.5C1628.24,428.52,1629.85,425.08,1634,422.68Z"/>
      <path d="M1595.41,470.26l.43.74v5l-24.68,29.73,8.88,15.38,39.73-7.22,2.56,4.43,4.13-2.39-5.9-10.22-4.13,2.39.28.49v5l-10.26,2.1-6.88-11.91v-5l7.54-8.26,2.27,3.93,3.51-2-14-24.18ZM1600,512v5l-15,3v-5l10.26-11.33Z"/>
      <g>
        <polygon points="1563.05 479.39 1569.3 475.78 1569.05 475.56 1569.99 471.4 1566.59 473.36 1558.39 465.88 1559.32 461.72 1555.96 463.67 1552.64 460.72 1546.2 464.3 1545.26 468.46 1548.65 466.5 1556.91 473.95 1555.98 478.11 1559.42 476.12 1563.05 479.39"/>
        <polygon points="1586.6 465.79 1592.95 462.13 1592.7 461.91 1593.64 457.75 1590.15 459.76 1581.92 452.29 1582.85 448.14 1579.52 450.06 1576.19 447.12 1569.75 450.7 1568.84 454.85 1572.3 452.85 1580.58 460.29 1579.64 464.45 1582.97 462.53 1586.6 465.79"/>
      </g>
      <g>
        <path d="M1607.16,411.37l-.54,3.56,3.88-2.25A4.87,4.87,0,0,1,1607.16,411.37Z"/>
        <path d="M1627.08,399.87l.26,3.09,2.94-1.7Z"/>
        <path d="M1613.22,394.29a8.74,8.74,0,0,0-4-.44,16,16,0,0,0-6.32,2,10.58,10.58,0,0,0-4.37,5.4c-.07.2-.12.39-.17.59a7.62,7.62,0,0,0,.7,1.58,15.8,15.8,0,0,0,7.07,6.27l.36-4.2a4.21,4.21,0,0,1-.36-3.65,8.24,8.24,0,0,1,4-4.55,12.71,12.71,0,0,1,3-1.24,13.6,13.6,0,0,1,3.93-.58l0,0Z"/>
      </g>
    </g>
  </g>
  <g class="c7_horizon">
    <g class="bottom">
      <path class="left" d="M1400,684.16v15a15,15,0,0,0,7.5,13l85,49.08a15,15,0,0,0,15,0l92.5-53.41,92.5,53.41a15,15,0,0,0,15,0l85-49.08a15,15,0,0,0,7.5-13v-15Z"/>
      <g class="right">
        <path d="M1600,692.82l-100,55.42v15a15,15,0,0,0,7.5-2l92.5-53.41v-15"/>
        <path d="M1800,699.16a15,15,0,0,1-7.5,13l-85,49.08a15,15,0,0,1-7.5,2v-15l100-64.08Z"/>
      </g>
    </g>
    <path class="edge" d="M1692.5,524l-92.5,53.4L1507.5,524a15,15,0,0,0-15,0l-85,49.07a15,15,0,0,0-7.5,13v98.15a15,15,0,0,0,7.5,13l85,49.08a15,15,0,0,0,15,0l92.5-53.41,92.5,53.41a15,15,0,0,0,15,0l85-49.08a15,15,0,0,0,7.5-13V586a15,15,0,0,0-7.5-13l-85-49.07A15,15,0,0,0,1692.5,524Z"/>
    <path class="face" d="M1692.5,528.57,1600,582l-92.5-53.4a15,15,0,0,0-15,0l-81,46.76a15,15,0,0,0-7.5,13v93.53a15,15,0,0,0,7.5,13l81,46.77a15,15,0,0,0,15,0L1600,688.2l92.5,53.41a15,15,0,0,0,15,0l81-46.77a15,15,0,0,0,7.5-13V588.32a15,15,0,0,0-7.5-13l-81-46.76A15,15,0,0,0,1692.5,528.57Z"/>
    <g class="dotsBottom">
      <path d="M1615.47,669.59v-9a1.57,1.57,0,0,0-2.35-1.36l-7.81,4.51a1.57,1.57,0,0,0,0,2.71l7.81,4.51A1.57,1.57,0,0,0,1615.47,669.59Z"/>
      <path d="M1615.47,609.59v-9a1.57,1.57,0,0,0-2.35-1.36l-7.81,4.51a1.57,1.57,0,0,0,0,2.71l7.81,4.51A1.57,1.57,0,0,0,1615.47,609.59Z"/>
      <path d="M1595.47,669.59v-9a1.57,1.57,0,0,0-2.35-1.36l-7.81,4.51a1.57,1.57,0,0,0,0,2.71l7.81,4.51A1.57,1.57,0,0,0,1595.47,669.59Z"/>
      <path d="M1605.47,639.59v-9a1.57,1.57,0,0,0-2.35-1.36l-7.81,4.51a1.57,1.57,0,0,0,0,2.71l7.81,4.51A1.57,1.57,0,0,0,1605.47,639.59Z"/>
      <path d="M1595.47,609.59v-9a1.57,1.57,0,0,0-2.35-1.36l-7.81,4.51a1.57,1.57,0,0,0,0,2.71l7.81,4.51A1.57,1.57,0,0,0,1595.47,609.59Z"/>
    </g>
    <g class="dotsFace">
      <path d="M1613.12,664.22l-5.82,3.37,5.82,3.36a1.57,1.57,0,0,0,2.35-1.36v-4A1.57,1.57,0,0,0,1613.12,664.22Z"/>
      <path d="M1613.12,604.22l-5.82,3.37,5.82,3.36a1.57,1.57,0,0,0,2.35-1.36v-4A1.57,1.57,0,0,0,1613.12,604.22Z"/>
      <path d="M1593.12,664.22l-5.82,3.37,5.82,3.36a1.57,1.57,0,0,0,2.35-1.36v-4A1.57,1.57,0,0,0,1593.12,664.22Z"/>
      <path d="M1603.12,634.22l-5.82,3.37,5.82,3.36a1.57,1.57,0,0,0,2.35-1.36v-4A1.57,1.57,0,0,0,1603.12,634.22Z"/>
      <path d="M1593.12,604.22l-5.82,3.37,5.82,3.36a1.57,1.57,0,0,0,2.35-1.36v-4A1.57,1.57,0,0,0,1593.12,604.22Z"/>
    </g>
    <path class="cBottom" d="M1549.53,646h2.17v22.46c-12.53,9.07-29.24,13.39-46.08,13.39-34.28,0-57.32-18.86-57.32-46.51,0-28.37,22-46.94,55.88-46.94,12.67,0,22.75,3.45,30.09,9.36v-6.91H1550v30.38h-13.68L1523,601.61c-18.29,0-31.54,14.4-31.54,34.41,0,21,11.24,33.12,26.36,33.12A31.29,31.29,0,0,0,1530,667C1530,652.44,1538.88,646,1549.53,646Z"/>
    <path class="gBottom" d="M1668.61,671.3v8.06h-15.7v-27.5h13.68l14.69,16.7c21-.43,31.54-14.54,31.54-34.41,0-20.3-11.67-34.56-28.23-34.56v23.18h8.35v13.11h-49V622.77h8.07V603.19c13.1-10.08,29.81-14.83,46.65-14.83,34.28,0,57.31,18.86,57.31,46.51,0,28.37-23.32,46.94-57.31,46.94C1686.18,681.81,1673.36,676.77,1668.61,671.3Z"/>
    <path class="cFace" d="M1530,672a31.29,31.29,0,0,1-12.09,2.16c-15.12,0-26.36-12.1-26.36-33.12,0-.79,0-1.57.07-2.34s-.07-1.76-.07-2.66c0-20,13.25-34.41,31.54-34.41l13.25,19.58H1550V595.81h-15.7v6.91c-7.34-5.91-17.42-9.36-30.09-9.36-32.8,0-54.51,17.45-55.81,44.35,1.3,26.33,24,44.1,57.25,44.1,16.84,0,33.55-4.32,46.08-13.39V651h-2.17C1538.88,651,1530,657.44,1530,672Z"/>
    <path class="gFace" d="M1698.7,681.81c33,0,55.91-17.48,57.25-44.42-1.34-26.29-24-44-57.25-44-16.84,0-33.55,4.75-46.65,14.83v19.58H1644v8.11h49v-8.11h-8.35V599.59c16.56,0,28.23,14.26,28.23,34.56,0,.86,0,1.7-.07,2.53s.07,1.63.07,2.47c0,19.87-10.52,34-31.54,34.41l-14.69-16.7h-13.68v22.5h15.7V671.3C1673.36,676.77,1686.18,681.81,1698.7,681.81Z"/>
  </g>
  <g class="outlineErrorArrowShadow">
    <g>
      <path d="M663.39,499.89c-52.76-29.47-103.81-24.62-150.73,15.4"/>
      <path d="M688.6,516.48c-9.05-12.15-19-29.27-22.94-43.2L660,497.91,639.8,513.19C654.15,511.14,673.82,513.17,688.6,516.48Z"/>
    </g>
    <g>
      <path d="M536.15,782.9c54,30.14,105,23.1,150.89-17.85"/>
      <path d="M510.94,766.31c9.06,12.14,19,29.26,22.95,43.19l5.7-24.63,20.15-15.28C545.4,771.64,525.72,769.61,510.94,766.31Z"/>
    </g>
    <g>
      <path d="M2197.24,744.34c-7.27,58.13-35,98.51-84.58,121.43"/>
      <path d="M2199.18,714.22c-6.28,13.78-16.52,30.71-26.81,40.91l24.34-6.86,23.09,10.3C2211.09,747,2203.4,728.76,2199.18,714.22Z"/>
    </g>
  </g>
  <g class="outlineErrorArrow">
    <g>
      <path d="M663.39,494.89c-52.76-29.47-103.81-24.62-150.73,15.4"/>
      <path d="M688.6,511.48c-9.05-12.15-19-29.27-22.94-43.2L660,492.91,639.8,508.19C654.15,506.14,673.82,508.17,688.6,511.48Z"/>
    </g>
    <g>
      <path d="M536.15,777.9c54,30.14,105,23.1,150.89-17.85"/>
      <path d="M510.94,761.31c9.06,12.14,19,29.26,22.95,43.19l5.7-24.63,20.15-15.28C545.4,766.64,525.72,764.61,510.94,761.31Z"/>
    </g>
    <g>
      <path d="M2197.24,739.34c-7.27,58.13-35,98.51-84.58,121.43"/>
      <path d="M2199.18,709.22c-6.28,13.78-16.52,30.71-26.81,40.91l24.34-6.86,23.09,10.3C2211.09,742,2203.4,723.76,2199.18,709.22Z"/>
    </g>
  </g>
  <g class="outlineErrorDashedShadow">
    <path d="M1987.5,696.38V598.23a15,15,0,0,0-7.5-13l-72.5-41.86a15,15,0,0,0-15,0L1820,585.24a15,15,0,0,0-7.5,13v83.71a15,15,0,0,0,7.5,13L1905,744a15,15,0,0,1,7.5,13v98.15a15,15,0,0,0,7.5,13L1992.5,910a15,15,0,0,0,15,0l72.5-41.86a15,15,0,0,0,7.5-13V771.43a15,15,0,0,0-7.5-13l-85-49.07A15,15,0,0,1,1987.5,696.38Z"/>
    <path d="M692.5,543.38l-85,49.07a15,15,0,0,1-15,0l-85-49.07a15,15,0,0,0-15,0L420,585.24a15,15,0,0,0-7.5,13v83.71a15,15,0,0,0,7.5,13l72.5,41.86a15,15,0,0,0,15,0l85-49.07a15,15,0,0,1,15,0l85,49.07a15,15,0,0,0,15,0L780,694.93a15,15,0,0,0,7.5-13V598.23a15,15,0,0,0-7.5-13l-72.5-41.86A15,15,0,0,0,692.5,543.38Z"/>
  </g>
  <g class="outlineErrorDashed">
    <path d="M1987.5,691.38V593.23a15,15,0,0,0-7.5-13l-72.5-41.86a15,15,0,0,0-15,0L1820,580.24a15,15,0,0,0-7.5,13v83.71a15,15,0,0,0,7.5,13L1905,739a15,15,0,0,1,7.5,13v98.15a15,15,0,0,0,7.5,13L1992.5,905a15,15,0,0,0,15,0l72.5-41.86a15,15,0,0,0,7.5-13V766.43a15,15,0,0,0-7.5-13l-85-49.07A15,15,0,0,1,1987.5,691.38Z"/>
    <path d="M692.5,538.38l-85,49.07a15,15,0,0,1-15,0l-85-49.07a15,15,0,0,0-15,0L420,580.24a15,15,0,0,0-7.5,13v83.71a15,15,0,0,0,7.5,13l72.5,41.86a15,15,0,0,0,15,0l85-49.07a15,15,0,0,1,15,0l85,49.07a15,15,0,0,0,15,0L780,689.93a15,15,0,0,0,7.5-13V593.23a15,15,0,0,0-7.5-13l-72.5-41.86A15,15,0,0,0,692.5,538.38Z"/>
  </g>
  <g class="textErrorShadow">
    <text transform="translate(345.78 888.76)">Breaks existing<tspan x="158.38" y="100.8">chord</tspan></text>
    <text transform="translate(1780.26 396.41)">Forms invalid<tspan x="123.9" y="100.8">chord</tspan></text>
  </g>
  <g class="textError">
    <text transform="translate(345.78 883.76)">Breaks existing<tspan x="158.38" y="100.8">chord</tspan></text>
    <text transform="translate(1780.26 391.41)">Forms invalid<tspan x="123.9" y="100.8">chord</tspan></text>
  </g>
  <g class="iconErrorShadow">
    <polygon points="1367.5 245.46 1348.21 226.18 1300 274.39 1251.79 226.18 1232.5 245.46 1280.71 293.68 1232.5 341.89 1251.79 361.18 1300 312.96 1348.21 361.18 1367.5 341.89 1319.29 293.68 1367.5 245.46"/>
    <polygon points="367.5 245.46 348.21 226.18 300 274.39 251.78 226.18 232.5 245.46 280.71 293.68 232.5 341.89 251.78 361.18 300 312.96 348.21 361.18 367.5 341.89 319.29 293.68 367.5 245.46"/>
  </g>
  <g class="iconError">
    <polygon points="1367.5 240.46 1348.21 221.18 1300 269.39 1251.79 221.18 1232.5 240.46 1280.71 288.68 1232.5 336.89 1251.79 356.18 1300 307.96 1348.21 356.18 1367.5 336.89 1319.29 288.68 1367.5 240.46"/>
    <polygon points="367.5 240.46 348.21 221.18 300 269.39 251.78 221.18 232.5 240.46 280.71 288.68 232.5 336.89 251.78 356.18 300 307.96 348.21 356.18 367.5 336.89 319.29 288.68 367.5 240.46"/>
  </g>
</svg>
