<svg viewBox="0 0 2700 1096.96">
  <rect class="background" width="2700" height="1096.96"/>
  <g class="g5_ascend">
    <g class="bottom">
      <path class="right" d="M1000,246,700,419.15V526a15,15,0,0,0,7.5,13l85,49.07a15,15,0,0,0,15,0l85-49.07a15,15,0,0,0,7.5-13V419.15h0l92.49-53.4a15,15,0,0,0,7.5-13Z"/>
      <path class="left" d="M700,511v15a15,15,0,0,0,7.5,13l85,49.07a15,15,0,0,0,7.5,2V575Z"/>
    </g>
    <path class="edge" d="M892.49,177.54l-85,49.08a15,15,0,0,0-7.5,13V346.42l-92.49,53.4a15,15,0,0,0-7.5,13V511a15,15,0,0,0,7.5,13l85,49.07a15,15,0,0,0,15,0l85-49.07a15,15,0,0,0,7.5-13V404.15l92.49-53.4a15,15,0,0,0,7.5-13V239.61a15,15,0,0,0-7.5-13l-85-49.08A15,15,0,0,0,892.49,177.54Z"/>
    <path class="face" d="M892.49,182.16l-81,46.76a15,15,0,0,0-7.51,13V348.73l-92.49,53.4a15,15,0,0,0-7.5,13v93.53a15,15,0,0,0,7.5,13l81,46.76a15,15,0,0,0,15,0l81-46.76a15,15,0,0,0,7.5-13V401.84l92.49-53.4a15,15,0,0,0,7.5-13V241.92a15,15,0,0,0-7.5-13l-81-46.76A15,15,0,0,0,892.49,182.16Z"/>
    <g class="dotsBottom">
      <path d="M885.66,380.27l-7.81-4.51a1.57,1.57,0,0,0-2.35,1.36v9a1.57,1.57,0,0,0,2.35,1.36l7.81-4.51A1.57,1.57,0,0,0,885.66,380.27Z"/>
      <path d="M833.7,350.27l-7.81-4.51a1.57,1.57,0,0,0-2.35,1.36v9a1.57,1.57,0,0,0,2.35,1.36L833.7,353A1.57,1.57,0,0,0,833.7,350.27Z"/>
      <path d="M875.66,397.59l-7.81-4.51a1.57,1.57,0,0,0-2.35,1.36v9a1.57,1.57,0,0,0,2.35,1.36l7.81-4.51A1.57,1.57,0,0,0,875.66,397.59Z"/>
      <path d="M854.68,373.93l-7.81-4.51a1.57,1.57,0,0,0-2.35,1.36v9a1.57,1.57,0,0,0,2.35,1.36l7.81-4.51A1.57,1.57,0,0,0,854.68,373.93Z"/>
      <path d="M823.7,367.59l-7.81-4.51a1.57,1.57,0,0,0-2.35,1.36v9a1.57,1.57,0,0,0,2.35,1.36l7.81-4.51A1.57,1.57,0,0,0,823.7,367.59Z"/>
    </g>
    <g class="dotsFace">
      <path d="M877.85,387.49l5.82-3.37-5.82-3.36a1.56,1.56,0,0,0-2.34,1.36v4A1.56,1.56,0,0,0,877.85,387.49Z"/>
      <path d="M825.89,357.49l5.82-3.37-5.82-3.36a1.57,1.57,0,0,0-2.35,1.36v4A1.57,1.57,0,0,0,825.89,357.49Z"/>
      <path d="M867.85,404.81l5.82-3.37-5.82-3.36a1.56,1.56,0,0,0-2.34,1.36v4A1.56,1.56,0,0,0,867.85,404.81Z"/>
      <path d="M846.87,381.15l5.82-3.37-5.82-3.36a1.57,1.57,0,0,0-2.35,1.36v4A1.57,1.57,0,0,0,846.87,381.15Z"/>
      <path d="M815.89,374.81l5.82-3.37-5.82-3.36a1.57,1.57,0,0,0-2.35,1.36v4A1.57,1.57,0,0,0,815.89,374.81Z"/>
    </g>
    <path class="dBottom" d="M935.15,318.37c-16.42,28.43-42.44,36.35-65.64,23s-29.29-39.69-12.88-68.12l34.56-59.86,11.35,6.55-4.46,7.73,55.74,32.18,4.46-7.73,11.35,6.55Zm1-19.36-63.1-36.43-.65,1.12c-8.21,14.22-3,29.69,17.94,41.79s36.88,9,44.73-4.61Z"/>
    <path class="dFace" d="M891.19,218.35l-34.56,59.86c-5.72,9.91-8.7,19.56-9.18,28.5.78,14.52,8.49,26.78,22.06,34.62,23.2,13.39,49.22,5.47,65.64-23l32.32-56-9.19-5.3-4.46,7.73-55.74-32.18v-5l2.3-4Zm45,80.66v5l-1.08,1.87c-7.85,13.6-23.9,16.63-44.73,4.61-15.9-9.19-22.72-20.31-21.5-31.36a25,25,0,0,1,3.56-15.43l.65-1.12Z"/>
    <path class="gBottom" d="M784.33,416.59l-7-4L785.19,399,809,412.72l-6.84,11.85-21.81,4.36c-10.14,18.43-3.17,34.59,14,44.52,17.58,10.15,35.76,7.18,44-7.16L818.36,454.7l-4.18,7.23-11.34-6.55L827.32,413l11.34,6.55-4,7,17,9.8c2.18,16.38-2.06,33.23-10.48,47.82-17.14,29.68-45,40.2-68.94,26.37-24.56-14.18-29-43.67-12-73.1C766.44,426.55,777.21,418,784.33,416.59Z"/>
    <path class="gFace" d="M779.51,413.81l4.82,2.78v5c-7.12,1.38-17.89,10-24.15,20.81s-9.65,21.81-10.13,32c.73,15.11,8.18,28.1,22.12,36.15,24,13.83,51.8,3.31,68.94-26.37a79.83,79.83,0,0,0,11-36.86c-.08-2-.24-4-.51-6l-17-9.8v-5l1.87-3.23-9.18-5.3L805,456.63l9.18,5.3,4.18-7.23,20.08,11.59v5c-8.28,14.34-26.46,17.31-44,7.16-12.62-7.28-19.72-17.92-18.62-30.33-.55-6,.86-12.42,4.58-19.19l21.81-4.36,4.67-8.1L785.19,404Z"/>
  </g>
  <g class="ga3_horizon">
    <g class="bottom">
      <path class="left" d="M400,684.16v15a15,15,0,0,0,7.5,13l85,49.07a15,15,0,0,0,15,0l92.5-53.4,92.5,53.41a15,15,0,0,0,15,0l85-49.08a15,15,0,0,0,7.5-13v-15Z"/>
      <g class="right">
        <path d="M600,692.82,500,748.23v15a15,15,0,0,0,7.5-2l92.5-53.4v-15"/>
        <path d="M800,699.16a15,15,0,0,1-7.5,13l-85,49.08a15,15,0,0,1-7.5,2v-15l100-64.08Z"/>
      </g>
    </g>
    <path class="edge" d="M692.5,524,600,577.35,507.5,524a15,15,0,0,0-15,0L407.5,573a15,15,0,0,0-7.5,13v98.15a15,15,0,0,0,7.5,13l85,49.08a15,15,0,0,0,15,0L600,692.82l92.5,53.41a15,15,0,0,0,15,0l85-49.08a15,15,0,0,0,7.5-13V586a15,15,0,0,0-7.5-13L707.5,524A15,15,0,0,0,692.5,524Z"/>
    <path class="face" d="M692.5,528.57,600,582l-92.5-53.41a15,15,0,0,0-15,0l-81,46.77a15,15,0,0,0-7.5,13v93.53a15,15,0,0,0,7.5,13l81,46.77a15,15,0,0,0,15,0L600,688.2l92.5,53.41a15,15,0,0,0,15,0l81-46.77a15,15,0,0,0,7.5-13V588.32a15,15,0,0,0-7.5-13l-81-46.76A15,15,0,0,0,692.5,528.57Z"/>
    <g class="dotsBottom">
      <path d="M598.43,599.68V610.5a1.88,1.88,0,0,0,2.82,1.62l9.36-5.4a1.88,1.88,0,0,0,0-3.26l-9.36-5.4A1.88,1.88,0,0,0,598.43,599.68Z"/>
      <path d="M593.43,629.68V640.5a1.88,1.88,0,0,0,2.82,1.62l9.36-5.4a1.88,1.88,0,0,0,0-3.26l-9.36-5.4A1.88,1.88,0,0,0,593.43,629.68Z"/>
      <path d="M588.43,659.68V670.5a1.88,1.88,0,0,0,2.82,1.62l9.36-5.4a1.88,1.88,0,0,0,0-3.26l-9.36-5.4A1.88,1.88,0,0,0,588.43,659.68Z"/>
    </g>
    <g class="dotsFace">
      <path d="M601.25,612.12l7.85-4.53-7.85-4.53a1.88,1.88,0,0,0-2.82,1.62v5.82A1.88,1.88,0,0,0,601.25,612.12Z"/>
      <path d="M596.25,642.12l7.85-4.53-7.85-4.53a1.88,1.88,0,0,0-2.82,1.62v5.82A1.88,1.88,0,0,0,596.25,642.12Z"/>
      <path d="M591.25,672.12l7.85-4.53-7.85-4.53a1.88,1.88,0,0,0-2.82,1.62v5.82A1.88,1.88,0,0,0,591.25,672.12Z"/>
    </g>
    <g class="gaBottom">
      <path d="M480.89,592.83v-4h7.84v13.75h-6.84l-7.34-8.35c-10.51.22-15.77,7.27-15.77,17.21,0,10.15,5.83,17.28,14.11,17.28V617.1h-4.17v-6.56H493.2v6.56h-4v9.79c-6.56,5-14.91,7.42-23.33,7.42-17.14,0-28.66-9.44-28.66-23.26,0-14.19,11.66-23.47,28.66-23.47C472.1,587.58,478.51,590.1,480.89,592.83Z"/>
      <path d="M489.89,680.28l-3.32,9.93h4.9v7.28H475.34v-7.28h5.11l13.61-38h21.17l14.33,38.73h5.19v6.56H502.49v-6.56H507l-3.38-10.65Zm7-20.74L492,674.08h9.58Z"/>
      <path d="M497.08,594.52l4.64-1.52V575.39h3.13v16.52l10.59-3.42v-15.8h3.13v14.77l4.21-1.38v11.25l-4.21,1.4v15.93l4.21-1.27v11.14l-4.21,1.4v17.61h-3.13V626.91l-10.59,3.38v16.06h-3.13V631.43L497.08,633V621.7l4.64-1.51V604.12l-4.64,1.52Zm18.36,5.22-10.59,3.35v16.15l10.59-3.44Z"/>
      <path d="M542.93,633.66v34.56a16.29,16.29,0,0,1,10.91-4.54,8.3,8.3,0,0,1,6.48,3.13,10.57,10.57,0,0,1,2.48,6.48,15.85,15.85,0,0,1-1.4,6.48A8.83,8.83,0,0,1,559,683l-2.92,2.7q-8,5.84-16,11.78V633.66Zm8.75,36.93a4.25,4.25,0,0,0-3.35-1.51q-2.6,0-4.21,2.92c-.8,1.51-1.19,5.08-1.19,10.69V692q.11.43,6.05-5.29a14.07,14.07,0,0,0,4.21-7.13,12.44,12.44,0,0,0,.43-3.24A8.28,8.28,0,0,0,551.68,670.59Z"/>
    </g>
    <g class="gaFace">
      <path d="M468.72,617.1h4.17v16.59c-8.28,0-14.11-7.13-14.11-17.28,0-.87.06-1.71.14-2.53a24.68,24.68,0,0,1-.14-2.47c0-9.94,5.26-17,15.77-17.21l7.34,8.35h6.84V593.8h-7.84v4c-2.38-2.73-8.79-5.25-15.05-5.25-16,0-27.23,8.19-28.53,20.95,1.3,12.46,12.44,20.78,28.53,20.78,8.42,0,16.77-2.38,23.33-7.42V617.1h4v-1.56H468.72Z"/>
      <path d="M515.23,657.2H494.06l-13.61,38h-5.11v2.28h16.13v-2.28h-4.9v-5l3.32-9.93h13.75L507,690.93v5h-4.53v1.56h32.26v-1.56h-5.19Zm-13.68,21.88H492v-5l4.9-14.54,4.68,14.54Z"/>
      <path d="M518.57,587.46v-9.77h-3.13v15.8l-10.59,3.42V580.39h-3.13V598l-4.64,1.52v6.12l4.64-1.52v21.07l-4.64,1.51V633l4.64-1.52v14.92h3.13V630.29l10.59-3.38v16.63h3.13V625.93l4.21-1.4v-6.14l-4.21,1.27V598.73l4.21-1.4v-6.25l-4.21,1.38Zm-3.13,17.28V620.8l-10.59,3.44V603.09l10.59-3.35Z"/>
      <path d="M559,683a8.83,8.83,0,0,0,2.38-3.24,20,20,0,0,0,1.12-3.56,10.94,10.94,0,0,0-2.2-4.4,8.3,8.3,0,0,0-6.48-3.13,15.75,15.75,0,0,0-4.13.63,4.17,4.17,0,0,1,2,1.28,8.28,8.28,0,0,1,1.94,5.73,12.42,12.42,0,0,1-.28,2.49,10.43,10.43,0,0,1,.28,2.51,12.44,12.44,0,0,1-.43,3.24,13.65,13.65,0,0,1-2.35,5c1.76-1.29,3.51-2.6,5.26-3.88Z"/>
      <path d="M542.93,692v-9.29c0-5.26.35-8.69,1-10.35-.35.28-.7.57-1,.88V638.66h-2.81v58.83l2.81-2.07Z"/>
    </g>
    <path class="bBottom" d="M683.07,642.07c-22.46-.43-35.56-10.51-35.56-25.92,0-17,11.8-27.07,34.27-27.07,13.53,0,19,0,32.83.72h37.87v13.11h-8.93v64.36h8.93v13.11H714.61c-15,0-17.57.72-27.36.72-17.28,0-27.5-7.06-27.5-20C659.75,649.85,668.24,642.36,683.07,642.07Zm18.15,1.44h-.72c-11,0-17.28,5.47-17.28,14.69,0,8.5,4.61,14,16.7,14h1.3Zm0-8.49V597.87h-1.73c-12.38,0-19.15,6.48-19.15,18.28,0,12.1,6.91,18.87,20.45,18.87Z"/>
    <path class="bFace" d="M681.78,594.08c-21.25,0-33,9-34.16,24.38,1.25,14.1,14.13,23.2,35.45,23.61v5c-13.74.27-22,6.73-23.17,16.61,1.3,11.3,11.26,17.42,27.35,17.42,9.79,0,12.38-.72,27.36-.72h37.87v-8.11h-8.93V602.91h8.93V594.8H714.61C700.79,594.08,695.31,594.08,681.78,594.08Zm19.44,54.43v28.66h-1.3c-12.09,0-16.7-5.47-16.7-14a18.57,18.57,0,0,1,.17-2.4,19.69,19.69,0,0,1-.17-2.6c0-9.21,6.33-14.69,17.28-14.69h.72Zm0-45.64V640h-.43c-13.54,0-20.45-6.77-20.45-18.87,0-.85,0-1.68.12-2.48q-.12-1.21-.12-2.52c0-11.8,6.77-18.28,19.15-18.28h1.73Z"/>
  </g>
  <g class="de3_horizon">
    <g class="bottom">
      <path class="left" d="M800,684.16v15a15,15,0,0,0,7.5,13l85,49.08a15,15,0,0,0,15,0l92.5-53.41,92.5,53.41a15,15,0,0,0,15,0l85-49.07a15,15,0,0,0,7.5-13v-15Z"/>
      <g class="right">
        <path d="M1000,692.82,900,748.24v15a15,15,0,0,0,7.5-2l92.5-53.41v-15"/>
        <path d="M1200,699.16a15,15,0,0,1-7.5,13l-85,49.07a15,15,0,0,1-7.5,2v-15l100-64.07Z"/>
      </g>
    </g>
    <path class="edge" d="M1092.49,524l-92.5,53.4L907.49,524a15,15,0,0,0-15,0l-85,49.07a15,15,0,0,0-7.5,13v98.15a15,15,0,0,0,7.5,13l85,49.08a15,15,0,0,0,15,0l92.5-53.4,92.5,53.4a15,15,0,0,0,15,0l85-49.07a15,15,0,0,0,7.5-13V586a15,15,0,0,0-7.5-13l-85-49.08A15,15,0,0,0,1092.49,524Z"/>
    <path class="face" d="M1092.49,528.57,1000,582l-92.5-53.4a15,15,0,0,0-15,0l-81,46.76a15,15,0,0,0-7.5,13v93.53a15,15,0,0,0,7.5,13l81,46.76a15,15,0,0,0,15,0l92.5-53.4,92.5,53.4a15,15,0,0,0,15,0l81-46.76a15,15,0,0,0,7.5-13V588.33a15,15,0,0,0-7.5-13l-81-46.76A15,15,0,0,0,1092.49,528.57Z"/>
    <g class="dotsBottom">
      <path d="M998.43,599.68V610.5a1.88,1.88,0,0,0,2.82,1.62l9.36-5.4a1.88,1.88,0,0,0,0-3.26l-9.36-5.4A1.88,1.88,0,0,0,998.43,599.68Z"/>
      <path d="M993.43,629.68V640.5a1.88,1.88,0,0,0,2.82,1.62l9.36-5.4a1.88,1.88,0,0,0,0-3.26l-9.36-5.4A1.88,1.88,0,0,0,993.43,629.68Z"/>
      <path d="M988.43,659.68V670.5a1.88,1.88,0,0,0,2.82,1.62l9.36-5.4a1.88,1.88,0,0,0,0-3.26l-9.36-5.4A1.88,1.88,0,0,0,988.43,659.68Z"/>
    </g>
    <g class="dotsFace">
      <path d="M1001.25,612.12l7.85-4.53-7.85-4.53a1.88,1.88,0,0,0-2.82,1.62v5.82A1.88,1.88,0,0,0,1001.25,612.12Z"/>
      <path d="M996.25,642.12l7.85-4.53-7.85-4.53a1.88,1.88,0,0,0-2.82,1.62v5.82A1.88,1.88,0,0,0,996.25,642.12Z"/>
      <path d="M991.25,672.12l7.85-4.53-7.85-4.53a1.88,1.88,0,0,0-2.82,1.62v5.82A1.88,1.88,0,0,0,991.25,672.12Z"/>
    </g>
    <g class="deBottom">
      <path d="M875.69,588.37c16.41,0,26.35,9.29,26.35,22.68s-9.87,22.61-26.28,22.61H841.19v-6.55h4.47V594.92h-4.47v-6.55ZM867,592.76v36.43h.65c8.21,0,13.61-6.12,13.61-18.21s-5.33-18.22-13.18-18.22Z"/>
      <path d="M929.79,652.2v14.18h-5l-6.69-9H907.26v14.33h7V666.6h4.82v15.62h-4.82v-5.33h-7V692.3H921c0-6.62,3.09-10.94,9.07-10.94h1.08v16.13H881.62v-6.56h4.47V658.75h-4.47V652.2Z"/>
      <path d="M906.06,594.52,910.7,593V575.39h3.14v16.53l10.58-3.43v-15.8h3.13v14.77l4.21-1.38v11.25l-4.21,1.4v15.93l4.21-1.27v11.14l-4.21,1.4v17.61h-3.13V626.91l-10.58,3.38v16.06H910.7V631.43L906.06,633V621.7l4.64-1.51V604.12l-4.64,1.52Zm18.36,5.22-10.58,3.35v16.15l10.58-3.44Z"/>
      <path d="M938.91,633.66v34.56a16.31,16.31,0,0,1,10.91-4.54,8.3,8.3,0,0,1,6.48,3.13,10.58,10.58,0,0,1,2.48,6.49,15.68,15.68,0,0,1-1.4,6.47A8.81,8.81,0,0,1,955,683c-.93.86-1.91,1.76-2.91,2.7q-8,5.82-16,11.77V633.66Zm8.75,36.94a4.2,4.2,0,0,0-3.35-1.52c-1.73,0-3.13,1-4.21,2.92-.79,1.51-1.19,5.08-1.19,10.69V692q.11.43,6.05-5.29a14.07,14.07,0,0,0,4.21-7.13,12.44,12.44,0,0,0,.43-3.24A8.19,8.19,0,0,0,947.66,670.6Z"/>
    </g>
    <g class="deFace">
      <path d="M901.92,613.55c-1.17-12-10.86-20.18-26.23-20.18H872.1c5.62,1.82,9.2,7.75,9.2,17.61,0,.86,0,1.69-.09,2.5s.09,1.63.09,2.5c0,10.06-3.74,16-9.72,17.68h4.18C891.13,633.66,900.76,625.58,901.92,613.55Z"/>
      <polygon points="867.04 629.2 867.04 597.76 867.04 593.37 841.19 593.37 841.19 594.92 845.66 594.92 845.66 599.92 845.66 627.11 845.66 632.11 841.19 632.11 841.19 633.66 867.04 633.66 867.04 629.2"/>
      <path d="M921,697.3H907.26V676.89h7v5.33h4.82V671.6h-4.82v5.11h-7V657.38h10.87l6.69,9h5V657.2H881.62v1.55h4.47v37.18h-4.47v1.56h49.54V686.36h-1.08C924.1,686.36,921,690.68,921,697.3Z"/>
      <path d="M927.55,587.46v-9.77h-3.13v15.8l-10.58,3.43V580.39H910.7V598l-4.64,1.52v6.12l4.64-1.52v21.07l-4.64,1.51V633l4.64-1.53v14.92h3.14V630.29l10.58-3.38v16.63h3.13V625.93l4.21-1.4v-6.14l-4.21,1.27V598.73l4.21-1.4v-6.25l-4.21,1.38Zm-3.13,17.28V620.8l-10.58,3.44V603.09l10.58-3.35Z"/>
      <path d="M955,683a8.81,8.81,0,0,0,2.38-3.25,20,20,0,0,0,1.12-3.56,10.81,10.81,0,0,0-2.2-4.4,8.3,8.3,0,0,0-6.48-3.13,15.68,15.68,0,0,0-4.12.63,4.14,4.14,0,0,1,2,1.29,8.19,8.19,0,0,1,1.94,5.72,12.42,12.42,0,0,1-.28,2.49,10.49,10.49,0,0,1,.28,2.51,12.44,12.44,0,0,1-.43,3.24,13.63,13.63,0,0,1-2.34,5c1.75-1.29,3.5-2.6,5.26-3.87C953.09,684.78,954.07,683.88,955,683Z"/>
      <path d="M938.91,692v-9.29c0-5.26.35-8.69,1.05-10.35-.35.28-.7.57-1.05.88V638.66H936.1v58.83l2.81-2.07Z"/>
    </g>
    <g class="fgBottom">
      <path d="M1079.89,613.84v4H1072V604.12h6.84l7.35,8.35c10.51-.21,15.77-7.27,15.77-17.2,0-10.16-5.83-17.29-14.11-17.29v11.6h4.17v6.55h-24.48v-6.55h4v-9.8c6.55-5,14.91-7.41,23.33-7.41,17.14,0,28.66,9.43,28.66,23.26,0,14.18-11.66,23.47-28.66,23.47C1088.68,619.1,1082.27,616.58,1079.89,613.84Z"/>
      <path d="M1111.61,682.14V668h5l6.69,9h10.87V661.18h-8.71V667h-4.82V650.38h4.82V656h8.71V643.4h-4.53v-6.56h30.17v6.56h-4.47v32.18h4.47v6.56Z"/>
      <path d="M1106.94,676l-4.65,1.51v17.61h-3.13V678.59L1088.58,682v15.8h-3.13V683l-4.22,1.38V673.17l4.22-1.4V655.84l-4.22,1.27V646l4.22-1.4V627h3.13V643.6l10.58-3.39V624.16h3.13v14.91l4.65-1.52V648.8l-4.65,1.51v16.07l4.65-1.52Zm-18.36-5.23,10.58-3.35V651.26l-10.58,3.45Z"/>
      <path d="M1060.09,636.84V602.28a16.21,16.21,0,0,1-10.91,4.54,8.27,8.27,0,0,1-6.48-3.13,10.59,10.59,0,0,1-2.49-6.48,15.78,15.78,0,0,1,1.41-6.48,8.78,8.78,0,0,1,2.37-3.24l2.92-2.7q8-5.84,16-11.77v63.82Zm-8.75-36.93a4.19,4.19,0,0,0,3.35,1.51c1.72,0,3.13-1,4.21-2.92q1.18-2.26,1.19-10.69v-9.29q-.12-.42-6,5.3a13.93,13.93,0,0,0-4.21,7.12,12.45,12.45,0,0,0-.44,3.24A8.23,8.23,0,0,0,1051.34,599.91Z"/>
    </g>
    <g class="fgFace">
      <path d="M1092.06,594.58h-4.17V578c8.28,0,14.11,7.13,14.11,17.29,0,.86-.06,1.7-.14,2.52.08.81.14,1.63.14,2.48,0,9.93-5.26,17-15.77,17.2l-7.35-8.35H1072v8.76h7.85v-4c2.38,2.74,8.79,5.26,15,5.26,16,0,27.23-8.2,28.53-21-1.3-12.46-12.44-20.78-28.53-20.78-8.42,0-16.78,2.37-23.33,7.41v9.8h-4v1.55h24.48Z"/>
      <polygon points="1129.61 643.4 1134.14 643.4 1134.14 648.4 1134.14 656 1134.14 661 1125.43 661 1125.43 656 1125.43 655.38 1120.61 655.38 1120.61 667.01 1125.43 667.01 1125.43 666.18 1125.43 661.18 1134.14 661.18 1134.14 666.18 1134.14 676.95 1134.14 681.95 1123.27 681.95 1116.58 672.95 1111.61 672.95 1111.61 682.14 1159.78 682.14 1159.78 680.58 1155.31 680.58 1155.31 675.58 1155.31 648.4 1155.31 643.4 1159.78 643.4 1159.78 641.84 1129.61 641.84 1129.61 643.4"/>
      <path d="M1102.29,639.07v-9.91h-3.13v16.05l-10.58,3.39V632h-3.13v17.61l-4.22,1.4v6.14l4.22-1.27v20.93l-4.22,1.4v6.25l4.22-1.38v14.77h3.13V682l10.58-3.42v16.52h3.13V677.5l4.65-1.51v-6.13l-4.65,1.52V650.31l4.65-1.51v-6.25l-4.65,1.52Zm-3.13,17.19v16.15l-10.58,3.35v-21l10.58-3.45Z"/>
      <g>
        <path d="M1060.09,583.52v9.29c0,5.26-.35,8.69-1,10.36.35-.29.7-.57,1-.89v34.56h2.8V578l-2.8,2.06Z"/>
        <path d="M1044,592.49a8.78,8.78,0,0,0-2.37,3.24,21.28,21.28,0,0,0-1.13,3.56,10.83,10.83,0,0,0,2.21,4.4,8.27,8.27,0,0,0,6.48,3.13,15.74,15.74,0,0,0,4.12-.63,4.12,4.12,0,0,1-2-1.28,8.23,8.23,0,0,1-1.95-5.73v-5a12.45,12.45,0,0,1,.44-3.24,13.63,13.63,0,0,1,2.34-5c-1.75,1.29-3.51,2.6-5.26,3.88Z"/>
      </g>
    </g>
  </g>
  <g class="g5_ascend">
    <g class="bottom">
      <path class="right" d="M2200,246l-300,173.2V526a15,15,0,0,0,7.5,13l85,49.07a15,15,0,0,0,15,0l85-49.07a15,15,0,0,0,7.5-13V419.15h0l92.49-53.4a15,15,0,0,0,7.5-13Z"/>
      <path class="left" d="M1900,511v15a15,15,0,0,0,7.5,13l85,49.07a15,15,0,0,0,7.49,2V575Z"/>
    </g>
    <path class="edge" d="M2092.49,177.54l-85,49.08a15,15,0,0,0-7.5,13V346.42l-92.49,53.4a15,15,0,0,0-7.5,13V511a15,15,0,0,0,7.5,13l85,49.07a15,15,0,0,0,15,0l85-49.07a15,15,0,0,0,7.5-13V404.15l92.49-53.4a15,15,0,0,0,7.5-13V239.61a15,15,0,0,0-7.5-13l-85-49.08A15,15,0,0,0,2092.49,177.54Z"/>
    <path class="face" d="M2092.49,182.16l-81,46.76a15,15,0,0,0-7.5,13V348.73l-92.49,53.4a15,15,0,0,0-7.5,13v93.53a15,15,0,0,0,7.5,13l81,46.77a15,15,0,0,0,15,0l81-46.77a15,15,0,0,0,7.5-13V401.84l92.49-53.4a15,15,0,0,0,7.5-13V241.92a15,15,0,0,0-7.5-13l-81-46.76A15,15,0,0,0,2092.49,182.16Z"/>
    <g class="dotsBottom">
      <path d="M2085.66,380.27l-7.81-4.51a1.57,1.57,0,0,0-2.35,1.36v9a1.57,1.57,0,0,0,2.35,1.36l7.81-4.51A1.57,1.57,0,0,0,2085.66,380.27Z"/>
      <path d="M2033.7,350.27l-7.81-4.51a1.57,1.57,0,0,0-2.35,1.36v9a1.57,1.57,0,0,0,2.35,1.36l7.81-4.51A1.57,1.57,0,0,0,2033.7,350.27Z"/>
      <path d="M2075.66,397.59l-7.81-4.51a1.57,1.57,0,0,0-2.35,1.36v9a1.57,1.57,0,0,0,2.35,1.36l7.81-4.51A1.57,1.57,0,0,0,2075.66,397.59Z"/>
      <path d="M2054.68,373.93l-7.81-4.51a1.57,1.57,0,0,0-2.35,1.36v9a1.57,1.57,0,0,0,2.35,1.36l7.81-4.51A1.57,1.57,0,0,0,2054.68,373.93Z"/>
      <path d="M2023.7,367.59l-7.81-4.51a1.57,1.57,0,0,0-2.35,1.36v9a1.57,1.57,0,0,0,2.35,1.36l7.81-4.51A1.57,1.57,0,0,0,2023.7,367.59Z"/>
    </g>
    <g class="dotsFace">
      <path d="M2077.85,387.49l5.82-3.37-5.82-3.36a1.57,1.57,0,0,0-2.35,1.36v4A1.57,1.57,0,0,0,2077.85,387.49Z"/>
      <path d="M2025.89,357.49l5.82-3.37-5.82-3.36a1.57,1.57,0,0,0-2.35,1.36v4A1.57,1.57,0,0,0,2025.89,357.49Z"/>
      <path d="M2067.85,404.81l5.82-3.37-5.82-3.36a1.57,1.57,0,0,0-2.35,1.36v4A1.57,1.57,0,0,0,2067.85,404.81Z"/>
      <path d="M2046.87,381.15l5.82-3.37-5.82-3.36a1.57,1.57,0,0,0-2.35,1.36v4A1.57,1.57,0,0,0,2046.87,381.15Z"/>
      <path d="M2015.89,374.81l5.82-3.37-5.82-3.36a1.57,1.57,0,0,0-2.35,1.36v4A1.57,1.57,0,0,0,2015.89,374.81Z"/>
    </g>
    <path class="dBottom" d="M2135.15,318.37c-16.42,28.43-42.44,36.35-65.64,23s-29.29-39.69-12.88-68.12l34.56-59.86,11.35,6.55-4.46,7.73,55.74,32.19,4.46-7.74,11.35,6.56Zm1-19.36-63.1-36.43-.65,1.12c-8.21,14.22-3,29.69,17.94,41.79s36.88,9,44.73-4.61Z"/>
    <path class="dFace" d="M2091.19,218.35l-34.56,59.86c-5.72,9.91-8.7,19.56-9.18,28.5.78,14.52,8.49,26.78,22.06,34.62,23.2,13.39,49.22,5.47,65.64-23l32.32-56-9.19-5.31-4.46,7.74-55.74-32.19v-5l2.3-4Zm45,80.66v5l-1.08,1.87c-7.85,13.6-23.9,16.63-44.73,4.61-15.9-9.18-22.72-20.31-21.5-31.36a25,25,0,0,1,3.56-15.43l.65-1.12Z"/>
    <path class="gBottom" d="M1984.33,416.59l-7-4,7.85-13.59L2009,412.72l-6.84,11.85-21.81,4.36c-10.14,18.43-3.17,34.59,14,44.52,17.58,10.15,35.76,7.18,44-7.16l-20.08-11.59-4.18,7.23-11.34-6.55,24.48-42.4,11.34,6.55-4,7,17,9.8c2.18,16.38-2.06,33.23-10.48,47.82-17.14,29.68-45,40.2-68.94,26.37-24.56-14.18-29-43.67-12-73.1C1966.44,426.55,1977.21,418,1984.33,416.59Z"/>
    <path class="gFace" d="M1979.51,413.81l4.82,2.78v5c-7.12,1.38-17.89,10-24.15,20.81s-9.65,21.82-10.13,32c.73,15.11,8.18,28.1,22.12,36.15,23.95,13.83,51.8,3.31,68.94-26.37a79.83,79.83,0,0,0,11-36.85q-.12-3-.51-6l-17-9.79v-5l1.87-3.24-9.18-5.3L2005,456.63l9.18,5.3,4.18-7.23,20.08,11.59v5c-8.28,14.34-26.46,17.31-44,7.16-12.62-7.28-19.72-17.92-18.62-30.33-.55-6,.86-12.42,4.58-19.19l21.81-4.36,4.67-8.1L1985.19,404Z"/>
  </g>
  <g class="ga3_horizon">
    <g class="bottom">
      <path class="left" d="M1600,684.16v15a15,15,0,0,0,7.5,13l85,49.07a15,15,0,0,0,15,0l92.5-53.4,92.5,53.41a15,15,0,0,0,15,0l85-49.08a15,15,0,0,0,7.5-13v-15Z"/>
      <g class="right">
        <path d="M1800,692.82l-100,55.42v15a15,15,0,0,0,7.5-2l92.5-53.4v-15"/>
        <path d="M2000,699.16a15,15,0,0,1-7.5,13l-85,49.08a15,15,0,0,1-7.5,2v-15l100-64.08Z"/>
      </g>
    </g>
    <path class="edge" d="M1892.5,524l-92.5,53.4L1707.5,524a15,15,0,0,0-15,0l-85,49.07a15,15,0,0,0-7.5,13v98.15a15,15,0,0,0,7.5,13l85,49.08a15,15,0,0,0,15,0l92.5-53.41,92.5,53.41a15,15,0,0,0,15,0l85-49.08a15,15,0,0,0,7.5-13V586a15,15,0,0,0-7.5-13l-85-49.07A15,15,0,0,0,1892.5,524Z"/>
    <path class="face" d="M1892.5,528.57,1800,582l-92.5-53.4a15,15,0,0,0-15,0l-81,46.76a15,15,0,0,0-7.5,13v93.53a15,15,0,0,0,7.5,13l81,46.77a15,15,0,0,0,15,0L1800,688.2l92.5,53.41a15,15,0,0,0,15,0l81-46.77a15,15,0,0,0,7.5-13V588.32a15,15,0,0,0-7.5-13l-81-46.76A15,15,0,0,0,1892.5,528.57Z"/>
    <g class="dotsBottom">
      <path d="M1798.43,599.68V610.5a1.88,1.88,0,0,0,2.82,1.62l9.36-5.4a1.88,1.88,0,0,0,0-3.26l-9.36-5.4A1.88,1.88,0,0,0,1798.43,599.68Z"/>
      <path d="M1793.43,629.68V640.5a1.88,1.88,0,0,0,2.82,1.62l9.36-5.4a1.88,1.88,0,0,0,0-3.26l-9.36-5.4A1.88,1.88,0,0,0,1793.43,629.68Z"/>
      <path d="M1788.43,659.68V670.5a1.88,1.88,0,0,0,2.82,1.62l9.36-5.4a1.88,1.88,0,0,0,0-3.26l-9.36-5.4A1.88,1.88,0,0,0,1788.43,659.68Z"/>
    </g>
    <g class="dotsFace">
      <path d="M1801.25,612.12l7.85-4.53-7.85-4.53a1.88,1.88,0,0,0-2.82,1.62v5.82A1.88,1.88,0,0,0,1801.25,612.12Z"/>
      <path d="M1796.25,642.12l7.85-4.53-7.85-4.53a1.88,1.88,0,0,0-2.82,1.62v5.82A1.88,1.88,0,0,0,1796.25,642.12Z"/>
      <path d="M1791.25,672.12l7.85-4.53-7.85-4.53a1.88,1.88,0,0,0-2.82,1.62v5.82A1.88,1.88,0,0,0,1791.25,672.12Z"/>
    </g>
    <g class="gaBottom">
      <path d="M1680.89,592.83v-4h7.84v13.75h-6.84l-7.34-8.35c-10.51.22-15.77,7.27-15.77,17.21,0,10.15,5.83,17.28,14.11,17.28V617.1h-4.17v-6.55h24.48v6.55h-4v9.79c-6.56,5-14.91,7.42-23.33,7.42-17.14,0-28.66-9.44-28.66-23.26,0-14.19,11.66-23.47,28.66-23.47C1672.1,587.58,1678.51,590.1,1680.89,592.83Z"/>
      <path d="M1689.89,680.28l-3.32,9.94h4.9v7.27h-16.13v-7.27h5.11l13.61-38h21.17l14.33,38.73h5.19v6.56h-32.26v-6.56H1707l-3.38-10.65Zm7-20.74-4.9,14.55h9.58Z"/>
      <path d="M1697.08,594.52l4.64-1.52V575.39h3.13v16.53l10.59-3.43v-15.8h3.13v14.77l4.21-1.38v11.25l-4.21,1.4v15.93l4.21-1.27v11.14l-4.21,1.4v17.61h-3.13V626.91l-10.59,3.38v16.06h-3.13V631.43l-4.64,1.53V621.7l4.64-1.51V604.12l-4.64,1.52Zm18.36,5.22-10.59,3.35v16.15l10.59-3.44Z"/>
      <path d="M1742.93,633.66v34.56a16.29,16.29,0,0,1,10.91-4.54,8.3,8.3,0,0,1,6.48,3.13,10.58,10.58,0,0,1,2.48,6.49,15.84,15.84,0,0,1-1.4,6.47A9.05,9.05,0,0,1,1759,683l-2.92,2.7q-8,5.82-16,11.77V633.66Zm8.75,36.94a4.23,4.23,0,0,0-3.35-1.52c-1.73,0-3.13,1-4.21,2.92-.8,1.51-1.19,5.08-1.19,10.69V692q.1.43,6-5.29a14.07,14.07,0,0,0,4.21-7.13,12.88,12.88,0,0,0,.43-3.24A8.24,8.24,0,0,0,1751.68,670.6Z"/>
    </g>
    <g class="gaFace">
      <path d="M1668.72,617.1h4.17v16.59c-8.28,0-14.11-7.13-14.11-17.28,0-.87,0-1.71.13-2.53-.07-.8-.13-1.62-.13-2.47,0-9.94,5.26-17,15.77-17.21l7.34,8.35h6.84V593.8h-7.84v4c-2.38-2.73-8.79-5.25-15.05-5.25-16,0-27.23,8.19-28.53,20.95,1.3,12.46,12.43,20.78,28.53,20.78,8.42,0,16.77-2.38,23.33-7.42V617.1h4v-1.55h-24.48Z"/>
      <path d="M1715.23,657.2h-21.17l-13.61,38h-5.11v2.27h16.13v-2.27h-4.9v-5l3.32-9.94h13.75l3.38,10.65v5h-4.53v1.56h32.26v-1.56h-5.19Zm-13.68,21.89H1692v-5l4.9-14.55,4.68,14.55Z"/>
      <path d="M1718.57,587.46v-9.77h-3.13v15.8l-10.59,3.43V580.39h-3.13V598l-4.64,1.52v6.12l4.64-1.52v21.07l-4.64,1.51V633l4.64-1.53v14.92h3.13V630.29l10.59-3.38v16.63h3.13V625.93l4.21-1.4v-6.14l-4.21,1.27V598.73l4.21-1.4v-6.25l-4.21,1.38Zm-3.13,17.28V620.8l-10.59,3.44V603.09l10.59-3.35Z"/>
      <path d="M1759,683a9.05,9.05,0,0,0,2.38-3.25,20,20,0,0,0,1.12-3.56,10.94,10.94,0,0,0-2.2-4.4,8.3,8.3,0,0,0-6.48-3.13,15.75,15.75,0,0,0-4.13.63,4.12,4.12,0,0,1,2,1.29,8.24,8.24,0,0,1,1.94,5.72,12.42,12.42,0,0,1-.28,2.49,11,11,0,0,1,.28,2.51,12.88,12.88,0,0,1-.43,3.24,13.65,13.65,0,0,1-2.35,5c1.76-1.29,3.51-2.6,5.26-3.87Z"/>
      <path d="M1742.93,692v-9.29c0-5.26.35-8.69,1-10.35-.35.28-.7.57-1,.88V638.66h-2.81v58.83l2.81-2.07Z"/>
    </g>
    <path class="bBottom" d="M1883.07,642.07c-22.46-.43-35.56-10.51-35.56-25.92,0-17,11.8-27.07,34.27-27.07,13.53,0,19,0,32.83.72h37.87v13.11h-8.93v64.36h8.93v13.11h-37.87c-15,0-17.57.72-27.36.72-17.28,0-27.5-7.06-27.5-20C1859.75,649.85,1868.24,642.36,1883.07,642.07Zm18.15,1.44h-.72c-11,0-17.28,5.48-17.28,14.69,0,8.5,4.61,14,16.7,14h1.3Zm0-8.49V597.87h-1.73c-12.38,0-19.15,6.48-19.15,18.28,0,12.1,6.91,18.87,20.45,18.87Z"/>
    <path class="bFace" d="M1881.78,594.08c-21.25,0-33,9-34.16,24.38,1.25,14.1,14.13,23.2,35.45,23.61v5c-13.74.27-22,6.73-23.17,16.61,1.3,11.3,11.26,17.42,27.35,17.42,9.79,0,12.38-.72,27.36-.72h37.87v-8.11h-8.93V602.91h8.93V594.8h-37.87C1900.78,594.08,1895.31,594.08,1881.78,594.08Zm19.44,54.43v28.66h-1.3c-12.09,0-16.7-5.47-16.7-14a18.57,18.57,0,0,1,.17-2.4,19.69,19.69,0,0,1-.17-2.6c0-9.21,6.33-14.69,17.28-14.69h.72Zm0-45.64V640h-.44c-13.53,0-20.44-6.77-20.44-18.87,0-.85,0-1.68.12-2.48q-.12-1.21-.12-2.52c0-11.8,6.77-18.28,19.15-18.28h1.73Z"/>
  </g>
  <g class="de3_horizon">
    <g class="bottom">
      <path class="left" d="M2000,684.16v15a15,15,0,0,0,7.5,13l85,49.08a15,15,0,0,0,15,0l92.5-53.4,92.5,53.4a15,15,0,0,0,15,0l85-49.07a15,15,0,0,0,7.5-13v-15Z"/>
      <g class="right">
        <path d="M2200,692.83l-100,55.41v15a15,15,0,0,0,7.5-2l92.5-53.4v-15"/>
        <path d="M2400,699.16a15,15,0,0,1-7.5,13l-85,49.07a15,15,0,0,1-7.5,2v-15l100-64.07Z"/>
      </g>
    </g>
    <path class="edge" d="M2292.49,524l-92.5,53.4-92.5-53.4a15,15,0,0,0-15,0l-85,49.07a15,15,0,0,0-7.5,13v98.15a15,15,0,0,0,7.5,13l85,49.08a15,15,0,0,0,15,0l92.5-53.4,92.5,53.4a15,15,0,0,0,15,0l85-49.07a15,15,0,0,0,7.5-13V586a15,15,0,0,0-7.5-13l-85-49.08A15,15,0,0,0,2292.49,524Z"/>
    <path class="face" d="M2292.49,528.57,2200,582l-92.5-53.4a15,15,0,0,0-15,0l-81,46.76a15,15,0,0,0-7.5,13v93.52a15,15,0,0,0,7.5,13l81,46.76a15,15,0,0,0,15,0l92.5-53.4,92.5,53.4a15,15,0,0,0,15,0l81-46.76a15,15,0,0,0,7.5-13V588.33a15,15,0,0,0-7.5-13l-81-46.76A15,15,0,0,0,2292.49,528.57Z"/>
    <g class="dotsBottom">
      <path d="M2198.43,599.68V610.5a1.88,1.88,0,0,0,2.82,1.62l9.36-5.4a1.88,1.88,0,0,0,0-3.26l-9.36-5.4A1.88,1.88,0,0,0,2198.43,599.68Z"/>
      <path d="M2193.43,629.68V640.5a1.88,1.88,0,0,0,2.82,1.62l9.36-5.4a1.88,1.88,0,0,0,0-3.26l-9.36-5.4A1.88,1.88,0,0,0,2193.43,629.68Z"/>
      <path d="M2188.43,659.68V670.5a1.88,1.88,0,0,0,2.82,1.62l9.36-5.4a1.88,1.88,0,0,0,0-3.26l-9.36-5.4A1.88,1.88,0,0,0,2188.43,659.68Z"/>
    </g>
    <g class="dotsFace">
      <path d="M2201.25,612.12l7.85-4.53-7.85-4.53a1.88,1.88,0,0,0-2.82,1.62v5.82A1.88,1.88,0,0,0,2201.25,612.12Z"/>
      <path d="M2196.25,642.12l7.85-4.53-7.85-4.53a1.88,1.88,0,0,0-2.82,1.62v5.82A1.88,1.88,0,0,0,2196.25,642.12Z"/>
      <path d="M2191.25,672.12l7.85-4.53-7.85-4.53a1.88,1.88,0,0,0-2.82,1.62v5.82A1.88,1.88,0,0,0,2191.25,672.12Z"/>
    </g>
    <g class="deBottom">
      <path d="M2075.68,588.37c16.42,0,26.36,9.29,26.36,22.68s-9.87,22.61-26.28,22.61h-34.57v-6.55h4.47V594.92h-4.47v-6.55Zm-8.64,4.39V629.2h.65c8.21,0,13.61-6.13,13.61-18.22s-5.33-18.22-13.18-18.22Z"/>
      <path d="M2129.79,652.2v14.18h-5l-6.69-9h-10.88v14.33h7V666.6h4.82v15.62h-4.82v-5.33h-7V692.3H2121c0-6.62,3.09-10.94,9.07-10.94h1.08v16.13h-49.54v-6.55h4.46V658.75h-4.46V652.2Z"/>
      <path d="M2106.06,594.52l4.64-1.52V575.39h3.14v16.53l10.58-3.43v-15.8h3.13v14.77l4.21-1.38v11.25l-4.21,1.4v15.93l4.21-1.27v11.14l-4.21,1.41v17.6h-3.13V626.91l-10.58,3.38v16.06h-3.14V631.44l-4.64,1.52V621.7l4.64-1.51V604.12l-4.64,1.53Zm18.36,5.22-10.58,3.36v16.14l10.58-3.44Z"/>
      <path d="M2138.91,633.66v34.56a16.31,16.31,0,0,1,10.91-4.54,8.28,8.28,0,0,1,6.48,3.14,10.53,10.53,0,0,1,2.48,6.48,15.75,15.75,0,0,1-1.4,6.48A8.87,8.87,0,0,1,2155,683c-.93.86-1.91,1.76-2.91,2.7q-8,5.82-16,11.77V633.66Zm8.75,36.94a4.2,4.2,0,0,0-3.35-1.52c-1.73,0-3.13,1-4.21,2.92-.79,1.51-1.19,5.08-1.19,10.69V692q.11.43,6.05-5.29a14.07,14.07,0,0,0,4.21-7.13,12.44,12.44,0,0,0,.43-3.24A8.19,8.19,0,0,0,2147.66,670.6Z"/>
    </g>
    <g class="deFace">
      <path d="M2101.92,613.55c-1.17-12-10.86-20.18-26.24-20.18h-3.58c5.61,1.82,9.2,7.75,9.2,17.61,0,.86,0,1.69-.09,2.5s.09,1.63.09,2.5c0,10.06-3.74,16-9.72,17.68h4.18C2091.13,633.66,2100.76,625.58,2101.92,613.55Z"/>
      <polygon points="2067.04 629.2 2067.04 597.76 2067.04 593.37 2041.19 593.37 2041.19 594.92 2045.66 594.92 2045.66 599.92 2045.66 627.11 2045.66 632.11 2041.19 632.11 2041.19 633.66 2067.04 633.66 2067.04 629.2"/>
      <path d="M2121,697.3h-13.76V676.89h7v5.33h4.82V671.6h-4.82v5.11h-7V657.38h10.88l6.69,9h5V657.2h-48.17v1.55h4.46v37.19h-4.46v1.55h49.54V686.36h-1.08C2124.1,686.36,2121,690.68,2121,697.3Z"/>
      <path d="M2127.55,587.46v-9.77h-3.13v15.8l-10.58,3.43V580.39h-3.14V598l-4.64,1.52v6.13l4.64-1.53v21.07l-4.64,1.51V633l4.64-1.52v14.91h3.14V630.29l10.58-3.38v16.63h3.13v-17.6l4.21-1.41v-6.14l-4.21,1.27V598.73l4.21-1.4v-6.25l-4.21,1.38Zm-3.13,17.28V620.8l-10.58,3.44V603.1l10.58-3.36Z"/>
      <path d="M2155,683a8.87,8.87,0,0,0,2.38-3.24,20.39,20.39,0,0,0,1.12-3.57,10.71,10.71,0,0,0-2.2-4.39,8.28,8.28,0,0,0-6.48-3.14,15.61,15.61,0,0,0-4.12.63,4.14,4.14,0,0,1,2,1.29,8.19,8.19,0,0,1,1.94,5.72,12.42,12.42,0,0,1-.28,2.49,10.49,10.49,0,0,1,.28,2.51,12.44,12.44,0,0,1-.43,3.24,13.63,13.63,0,0,1-2.34,5c1.75-1.29,3.5-2.6,5.26-3.87C2153.09,684.78,2154.07,683.88,2155,683Z"/>
      <path d="M2138.91,692v-9.29c0-5.26.35-8.69,1.05-10.35-.36.28-.71.57-1.05.88V638.66h-2.81v58.83l2.81-2.07Z"/>
    </g>
    <g class="fgBottom">
      <path d="M2279.89,613.84v4H2272V604.12h6.84l7.35,8.36c10.51-.22,15.77-7.28,15.77-17.21,0-10.16-5.83-17.28-14.11-17.28v11.59h4.17v6.55h-24.48v-6.55h4v-9.8c6.55-5,14.91-7.41,23.33-7.41,17.14,0,28.66,9.43,28.66,23.26,0,14.18-11.66,23.47-28.66,23.47C2288.68,619.1,2282.27,616.58,2279.89,613.84Z"/>
      <path d="M2311.61,682.14V668h5l6.7,9h10.87V661.18h-8.71V667h-4.82V650.38h4.82V656h8.71V643.4h-4.53v-6.56h30.17v6.56h-4.47v32.18h4.47v6.56Z"/>
      <path d="M2306.94,676l-4.65,1.51v17.61h-3.13V678.59L2288.58,682v15.8h-3.13V683l-4.22,1.38V673.17l4.22-1.4V655.84l-4.22,1.27V646l4.22-1.4V627h3.13V643.6l10.58-3.39V624.16h3.13v14.91l4.65-1.52V648.8l-4.65,1.51v16.07l4.65-1.52Zm-18.36-5.23,10.58-3.35V651.26l-10.58,3.45Z"/>
      <path d="M2260.09,636.84V602.28a16.21,16.21,0,0,1-10.91,4.54,8.27,8.27,0,0,1-6.48-3.13,10.59,10.59,0,0,1-2.49-6.48,15.78,15.78,0,0,1,1.41-6.48,8.78,8.78,0,0,1,2.37-3.24l2.92-2.7q8-5.84,16-11.77v63.82Zm-8.75-36.93a4.19,4.19,0,0,0,3.35,1.51c1.72,0,3.13-1,4.21-2.92q1.18-2.26,1.19-10.69v-9.28q-.12-.43-6.05,5.29a13.93,13.93,0,0,0-4.21,7.12,12.57,12.57,0,0,0-.44,3.24A8.23,8.23,0,0,0,2251.34,599.91Z"/>
    </g>
    <g class="fgFace">
      <path d="M2292.06,594.58h-4.17V578c8.28,0,14.11,7.13,14.11,17.29,0,.86-.06,1.7-.14,2.52.08.81.14,1.63.14,2.48,0,9.93-5.26,17-15.77,17.21l-7.35-8.36H2272v8.76h7.85v-4c2.38,2.74,8.79,5.26,15.05,5.26,16,0,27.23-8.2,28.53-21-1.3-12.46-12.44-20.78-28.53-20.78-8.42,0-16.78,2.37-23.33,7.41v9.8h-4v1.55h24.48Z"/>
      <polygon points="2329.61 643.4 2334.14 643.4 2334.14 648.4 2334.14 656 2334.14 661 2325.43 661 2325.43 656 2325.43 655.38 2320.61 655.38 2320.61 667.01 2325.43 667.01 2325.43 666.18 2325.43 661.18 2334.14 661.18 2334.14 666.18 2334.14 676.95 2334.14 681.95 2323.27 681.95 2316.57 672.95 2311.61 672.95 2311.61 682.14 2359.78 682.14 2359.78 680.58 2355.31 680.58 2355.31 675.58 2355.31 648.4 2355.31 643.4 2359.78 643.4 2359.78 641.84 2329.61 641.84 2329.61 643.4"/>
      <path d="M2302.29,639.07v-9.91h-3.13v16.05l-10.58,3.39V632h-3.13v17.61l-4.22,1.4v6.14l4.22-1.27v20.93l-4.22,1.4v6.25l4.22-1.38v14.77h3.13V682l10.58-3.42v16.52h3.13V677.5l4.65-1.51v-6.13l-4.65,1.52V650.31l4.65-1.51v-6.25l-4.65,1.52Zm-3.13,17.19v16.15l-10.58,3.35v-21l10.58-3.45Z"/>
      <g>
        <path d="M2260.09,583.52v9.29c0,5.26-.36,8.69-1.05,10.36.35-.28.7-.57,1.05-.89v34.56h2.8V578l-2.8,2.06Z"/>
        <path d="M2244,592.49a8.78,8.78,0,0,0-2.37,3.24,21.28,21.28,0,0,0-1.13,3.56,10.83,10.83,0,0,0,2.21,4.4,8.27,8.27,0,0,0,6.48,3.13,16.16,16.16,0,0,0,4.12-.62,4.21,4.21,0,0,1-2-1.29,8.23,8.23,0,0,1-2-5.73v-5a12.51,12.51,0,0,1,.44-3.24,13.51,13.51,0,0,1,2.34-5l-5.26,3.87Z"/>
      </g>
    </g>
  </g>
  <g class="f2_descend_new">
    <g class="bottom">
      <path class="leftNew" d="M1500,857.37v15a15,15,0,0,0,7.5,13l85,49.08a15,15,0,0,0,15,0L1700,881l92.5,53.4a15,15,0,0,0,15,0l85-49.07a15,15,0,0,0,7.5-13v-15Z"/>
      <g class="rightNew">
        <path d="M1700,866l-100,55.41v15a15,15,0,0,0,7.5-2L1700,881V866"/>
        <path d="M1900,872.37a15,15,0,0,1-7.5,13l-85,49.07a15,15,0,0,1-7.51,2v-15l100-64.07Z"/>
      </g>
    </g>
    <path class="edgeNew" d="M1792.5,697.16l-92.5,53.4-92.5-53.4a15,15,0,0,0-15,0l-85,49.07a15,15,0,0,0-7.5,13v98.15a15,15,0,0,0,7.5,13l85,49.08a15,15,0,0,0,15,0L1700,866l92.5,53.4a15,15,0,0,0,15,0l85-49.07a15,15,0,0,0,7.5-13V759.23a15,15,0,0,0-7.5-13l-85-49.08A15,15,0,0,0,1792.5,697.16Z"/>
    <path class="faceNew" d="M1792.49,701.78,1700,755.18l-92.5-53.4a15,15,0,0,0-15,0l-81,46.76a15,15,0,0,0-7.5,13v93.52a15,15,0,0,0,7.5,13l81,46.76a15,15,0,0,0,15,0l92.5-53.4,92.49,53.4a15,15,0,0,0,15,0l81-46.76a15,15,0,0,0,7.51-13V761.54a15,15,0,0,0-7.51-13l-81-46.76A15,15,0,0,0,1792.49,701.78Z"/>
    <g class="dotsBottom">
      <path d="M1697.12,776.79v13a2.24,2.24,0,0,0,3.36,1.94l11.27-6.5a2.25,2.25,0,0,0,0-3.89l-11.27-6.5A2.24,2.24,0,0,0,1697.12,776.79Z"/>
      <path d="M1687.12,826.79v13a2.24,2.24,0,0,0,3.36,1.94l11.27-6.5a2.25,2.25,0,0,0,0-3.89l-11.27-6.5A2.24,2.24,0,0,0,1687.12,826.79Z"/>
    </g>
    <g class="dotsFace">
      <path d="M1700.48,791.74l10.31-6-10.31-5.94a2.24,2.24,0,0,0-3.36,1.94v8A2.24,2.24,0,0,0,1700.48,791.74Z"/>
      <path d="M1690.48,841.74l10.31-6-10.31-5.94a2.24,2.24,0,0,0-3.36,1.94v8A2.24,2.24,0,0,0,1690.48,841.74Z"/>
    </g>
    <g class="deBottom">
      <path d="M1575.69,761.57c16.41,0,26.35,9.29,26.35,22.68s-9.87,22.61-26.28,22.61h-34.57v-6.55h4.47V768.13h-4.47v-6.56ZM1567,766V802.4h.65c8.21,0,13.61-6.12,13.61-18.22S1576,766,1568.12,766Z"/>
      <path d="M1629.79,825.4v14.19h-5l-6.69-9h-10.87v14.32h7V839.8h4.82v15.63h-4.82V850.1h-7v15.41H1621c0-6.63,3.09-11,9.07-11h1.08v16.13h-49.54v-6.55h4.47V832h-4.47V825.4Z"/>
      <path d="M1606.06,767.72l4.64-1.51V748.6h3.14v16.52l10.58-3.43V745.9h3.13v14.77l4.21-1.38v11.25l-4.21,1.4v15.93l4.21-1.27v11.14l-4.21,1.4v17.6h-3.13V800.11l-10.58,3.39v16h-3.14V804.64l-4.64,1.52V794.91l4.64-1.51V777.33l-4.64,1.52Zm18.36,5.22-10.58,3.36v16.14l10.58-3.44Z"/>
      <path d="M1638.91,806.86v34.56a16.25,16.25,0,0,1,10.91-4.53,8.27,8.27,0,0,1,6.48,3.13,10.53,10.53,0,0,1,2.48,6.48,15.75,15.75,0,0,1-1.4,6.48,8.71,8.71,0,0,1-2.38,3.24c-.93.86-1.91,1.76-2.91,2.7q-8,5.83-16,11.77V806.86Zm8.75,36.94a4.19,4.19,0,0,0-3.35-1.51q-2.6,0-4.21,2.91c-.79,1.52-1.19,5.08-1.19,10.7v9.28q.1.44,6-5.29a14,14,0,0,0,4.21-7.13,12.44,12.44,0,0,0,.43-3.24A8.21,8.21,0,0,0,1647.66,843.8Z"/>
    </g>
    <g class="deFace">
      <path d="M1601.92,786.76c-1.17-12-10.86-20.19-26.23-20.19h-3.59c5.62,1.82,9.2,7.75,9.2,17.61,0,.87,0,1.7-.09,2.5s.09,1.64.09,2.5c0,10.06-3.74,16-9.72,17.68h4.18C1591.13,806.86,1600.76,798.78,1601.92,786.76Z"/>
      <polygon points="1567.04 802.4 1567.04 770.97 1567.04 766.57 1541.19 766.57 1541.19 768.13 1545.66 768.13 1545.66 773.13 1545.66 800.31 1545.66 805.31 1541.19 805.31 1541.19 806.87 1567.04 806.87 1567.04 802.4"/>
      <path d="M1621,870.51h-13.75V850.1h7v5.33h4.82V844.8h-4.82v5.11h-7V830.59h10.87l6.69,9h5V830.4h-48.17V832h4.47v37.19h-4.47v1.55h49.54V859.56h-1.08C1624.1,859.56,1621,863.88,1621,870.51Z"/>
      <path d="M1627.55,760.67V750.9h-3.13v15.79l-10.58,3.43V753.6h-3.14v17.61l-4.64,1.51v6.13l4.64-1.52V798.4l-4.64,1.51v6.25l4.64-1.52v14.91h3.14v-16l10.58-3.39v16.63h3.13v-17.6l4.21-1.4V791.6l-4.21,1.27V771.94l4.21-1.4v-6.25l-4.21,1.38Zm-3.13,17.27V794l-10.58,3.44V776.3l10.58-3.36Z"/>
      <path d="M1655,856.22a8.71,8.71,0,0,0,2.38-3.24,20.13,20.13,0,0,0,1.12-3.57,10.77,10.77,0,0,0-2.2-4.39,8.27,8.27,0,0,0-6.48-3.13,15.67,15.67,0,0,0-4.12.62,4.21,4.21,0,0,1,2,1.29,8.21,8.21,0,0,1,1.94,5.72,12.52,12.52,0,0,1-.28,2.5,10.4,10.4,0,0,1,.28,2.5,12.44,12.44,0,0,1-.43,3.24,13.56,13.56,0,0,1-2.34,5c1.75-1.28,3.5-2.59,5.26-3.87C1653.09,858,1654.07,857.08,1655,856.22Z"/>
      <path d="M1638.91,865.18V855.9c0-5.26.35-8.7,1-10.36-.35.28-.7.57-1,.88V811.86h-2.81v58.83c.94-.69,1.88-1.37,2.81-2.07Z"/>
    </g>
    <path class="fBottom" d="M1751.83,853.58V825.22h9.93l13.39,18h21.75V811.68h-17.43v11.66h-9.64V790.08h9.64v11.23h17.43v-25.2h-9.08V763h60.34v13.1h-8.93v64.37h8.93v13.1Z"/>
    <polygon class="fFace" points="1787.82 776.11 1796.9 776.11 1796.9 781.11 1796.9 801.31 1796.9 806.31 1779.47 806.31 1779.47 801.31 1779.47 795.08 1769.83 795.08 1769.83 823.34 1779.47 823.34 1779.47 816.68 1779.47 811.68 1796.9 811.68 1796.9 816.68 1796.9 843.21 1796.9 848.21 1775.15 848.21 1761.76 830.22 1751.83 830.22 1751.83 853.58 1848.16 853.58 1848.16 845.48 1839.23 845.48 1839.23 840.48 1839.23 781.11 1839.23 776.11 1848.16 776.11 1848.16 768.01 1787.82 768.01 1787.82 776.11"/>
  </g>
  <path class="outlineInfoShadow" d="M912.5,508.74V410.59a15,15,0,0,0-7.5-13l-97.5-56.29a15,15,0,0,0-15,0L695,397.6a15,15,0,0,0-7.5,13V523.17a15,15,0,0,0,7.5,13l85,49.08a15,15,0,0,1,7.5,13v98.15a15,15,0,0,0,7.5,13l97.5,56.29a15,15,0,0,0,15,0l97.5-56.29a15,15,0,0,0,7.5-13V583.8a15,15,0,0,0-7.5-13l-85-49.07A15,15,0,0,1,912.5,508.74Z"/>
  <path class="outlineInfo" d="M912.5,503.74V405.59a15,15,0,0,0-7.5-13l-97.5-56.29a15,15,0,0,0-15,0L695,392.6a15,15,0,0,0-7.5,13V518.17a15,15,0,0,0,7.5,13l85,49.08a15,15,0,0,1,7.5,13v98.15a15,15,0,0,0,7.5,13l97.5,56.29a15,15,0,0,0,15,0l97.5-56.29a15,15,0,0,0,7.5-13V578.8a15,15,0,0,0-7.5-13l-85-49.07A15,15,0,0,1,912.5,503.74Z"/>
  <path class="outlineFirstShadow" d="M2205,224.4l-97.49-56.29a15,15,0,0,0-15,0L1995,224.4a15,15,0,0,0-7.51,13v98.15a15,15,0,0,1-7.5,13l-85,49.07a15,15,0,0,0-7.51,13v98.14a15,15,0,0,1-7.5,13l-85,49.08a15,15,0,0,0-7.51,13V682a15,15,0,0,1-7.5,13L1695,744a15,15,0,0,0-7.5,13V869.58a15,15,0,0,0,7.5,13l97.5,56.29a15,15,0,0,0,15,0l97.5-56.29a15,15,0,0,0,7.5-13V771.44a15,15,0,0,1,7.5-13l85-49.08a15,15,0,0,0,7.5-13V598.24a15,15,0,0,1,7.51-13l85-49.07a15,15,0,0,0,7.5-13V425a15,15,0,0,1,7.51-13L2205,363a15,15,0,0,0,7.5-13V237.39A15,15,0,0,0,2205,224.4Z"/>
  <path class="outlineFirst" d="M2205,219.4l-97.49-56.29a15,15,0,0,0-15,0L1995,219.4a15,15,0,0,0-7.51,13v98.15a15,15,0,0,1-7.5,13l-85,49.07a15,15,0,0,0-7.51,13v98.14a15,15,0,0,1-7.5,13l-85,49.08a15,15,0,0,0-7.51,13V677a15,15,0,0,1-7.5,13L1695,739a15,15,0,0,0-7.5,13V864.58a15,15,0,0,0,7.5,13l97.5,56.29a15,15,0,0,0,15,0l97.5-56.29a15,15,0,0,0,7.5-13V766.44a15,15,0,0,1,7.5-13l85-49.08a15,15,0,0,0,7.5-13V593.24a15,15,0,0,1,7.51-13l85-49.07a15,15,0,0,0,7.5-13V420a15,15,0,0,1,7.51-13L2205,358a15,15,0,0,0,7.5-13V232.39A15,15,0,0,0,2205,219.4Z"/>
  <polygon class="iconSuccessShadow" points="1753.99 226.18 1670.29 318.23 1645.99 299.82 1632.49 299.82 1670.29 361.18 1767.49 226.18 1753.99 226.18"/>
  <polygon class="iconSuccess" points="1753.99 221.18 1670.29 313.23 1645.99 294.82 1632.49 294.82 1670.29 356.18 1767.49 221.18 1753.99 221.18"/>
  <g class="textFirstShadow">
    <text class="characterPitch" transform="translate(1860.81 330.51)">G</text>
    <text class="characterSymbol" transform="translate(1906.02 300.5)">7</text>
  </g>
  <g class="textFirst">
    <text class="characterPitch" transform="translate(1860.81 325.51)">G</text>
    <text class="characterSymbol" transform="translate(1906.02 295.5)">7</text>
  </g>
  <text class="textInfoShadow" transform="translate(821.79 863.05)">dyad</text>
  <text class="textInfo" transform="translate(821.79 858.05)">dyad</text>
</svg>
