<svg viewBox="0 0 2500 1096.97">
  <rect class="background" width="2500" height="1096.97"/>
  <g class="cd9_descend">
    <g class="bottom">
      <path class="left" d="M400,245.94V352.75a15,15,0,0,0,7.5,13L500,419.15V526a15,15,0,0,0,7.5,13l85,49.07a15,15,0,0,0,15,0l85-49.07a15,15,0,0,0,7.5-13V419.15Z"/>
      <path class="right" d="M600,590a15,15,0,0,0,7.5-2l85-49.07a15,15,0,0,0,7.5-13V511L600,575Z"/>
    </g>
    <path class="edge" d="M592.5,226.61l-85-49.08a15,15,0,0,0-15,0l-85,49.08a15,15,0,0,0-7.5,13v98.15a15,15,0,0,0,7.5,13L500,404.15V511a15,15,0,0,0,7.5,13l85,49.07a15,15,0,0,0,15,0l85-49.07a15,15,0,0,0,7.5-13V412.8a15,15,0,0,0-7.5-13L600,346.41V239.6A15,15,0,0,0,592.5,226.61Z"/>
    <path class="face" d="M588.5,228.92l-81-46.77a15,15,0,0,0-15,0l-81,46.77a15,15,0,0,0-7.5,13v93.53a15,15,0,0,0,7.5,13L504,401.84v106.8a15,15,0,0,0,7.5,13l81,46.76a15,15,0,0,0,15,0l81-46.76a15,15,0,0,0,7.5-13V415.12a15,15,0,0,0-7.5-13L596,348.72V241.91A15,15,0,0,0,588.5,228.92Z"/>
    <g class="dotsBottom">
      <path d="M517.77,393l9.37-5.41a1.88,1.88,0,0,0,0-3.25l-9.37-5.41a1.88,1.88,0,0,0-2.81,1.63v10.82A1.87,1.87,0,0,0,517.77,393Z"/>
      <path d="M546.26,382.31l9.36-5.41a1.88,1.88,0,0,0,0-3.25l-9.36-5.41a1.88,1.88,0,0,0-2.82,1.63v10.82A1.88,1.88,0,0,0,546.26,382.31Z"/>
      <path d="M574.74,371.64l9.36-5.41a1.88,1.88,0,0,0,0-3.25l-9.36-5.41a1.88,1.88,0,0,0-2.82,1.63V370A1.88,1.88,0,0,0,574.74,371.64Z"/>
    </g>
    <g class="dotsFace">
      <path d="M517.77,393l7.86-4.53-7.86-4.54a1.88,1.88,0,0,0-2.81,1.63v5.82A1.87,1.87,0,0,0,517.77,393Z"/>
      <path d="M546.26,382.31l7.85-4.53-7.85-4.54a1.88,1.88,0,0,0-2.82,1.63v5.82A1.88,1.88,0,0,0,546.26,382.31Z"/>
      <path d="M574.74,371.64l7.85-4.53-7.85-4.54a1.88,1.88,0,0,0-2.82,1.63V370A1.88,1.88,0,0,0,574.74,371.64Z"/>
    </g>
    <g class="cdBottom">
      <path d="M509.46,268.53l.54.93-9.73,5.62c-7.06-3.16-13.11-9.31-17.32-16.61-8.57-14.84-6.16-29.53,5.81-36.45,12.29-7.09,25.84-2.19,34.3,12.46,3.17,5.49,4.19,10.72,3.47,15.38l3-1.73,3.92,6.8-13.16,7.59-3.42-5.92L522,246c-4.57-7.91-14.12-10.05-22.79-5.05-9.1,5.26-11.53,13.15-7.75,19.7a15.53,15.53,0,0,0,4,4.69C501.76,261.67,506.79,263.91,509.46,268.53Z"/>
      <path d="M490,305.59c8.2,14.22,5.13,27.47-6.47,34.17S459,342.52,450.83,328.3l-17.28-29.93,5.67-3.28,2.23,3.87,27.88-16.1L467.1,279l5.67-3.28Zm-8.13-5.29-31.55,18.22.32.56c4.11,7.11,12.11,8.73,22.58,2.68s13.12-13.72,9.19-20.52Z"/>
      <path d="M531.94,262.85l3.63,3.27,15.26-8.81,1.56,2.71-14.31,8.26,8.26,7.46,13.68-7.9,1.57,2.71-12.79,7.39,3.3,2.95-9.75,5.63L539,283.57l-13.8,8,3.21,3-9.65,5.57-3.32-2.95L500.23,306l-1.56-2.71,14.4-8.31-8.22-7.48-13.91,8-1.56-2.71,12.91-7.46-3.64-3.26,9.75-5.63,3.63,3.27,13.91-8-3.64-3.27Zm4.66,18.51-8.2-7.49-14,8.08,8.27,7.44Z"/>
      <path d="M523,325.6,499,339.42l-6,3.45a16.33,16.33,0,0,1,9.38,7.18,8.28,8.28,0,0,1,.53,7.18,10.55,10.55,0,0,1-4.37,5.39,15.73,15.73,0,0,1-6.31,2,8.91,8.91,0,0,1-4-.44L484.48,363q-9.06-4-18.19-7.95l55.27-31.92Zm-27.61,26A4.24,4.24,0,0,0,495,348c-.86-1.49-2.41-2.22-4.63-2.19q-2.57.1-9.85,4.32l-8.05,4.64c-.21.21,2.33,1.07,7.61,2.6a14,14,0,0,0,8.28.08,12.4,12.4,0,0,0,3-1.25A8.21,8.21,0,0,0,495.36,351.64Z"/>
    </g>
    <g class="abBottom">
      <path d="M623.46,430.35c-5.43-9.84-4.34-18,2.33-21.89,7.36-4.24,14.68-1.65,20.29,8.08,3.39,5.86,4.75,8.23,7.9,14.4l9.47,16.4-5.68,3.27-2.23-3.86-27.87,16.09,2.23,3.87L624.22,470l-9.47-16.4c-3.74-6.48-4.7-7.43-7.15-11.67-4.32-7.48-3.82-13.67,1.79-16.91C614.26,422.19,619.62,424,623.46,430.35Zm3.91,8.21-.18-.31c-2.74-4.74-6.69-6.11-10.68-3.81-3.68,2.13-4.9,5.49-1.87,10.73l.32.56Zm3.68-2.12,16.09-9.29-.43-.75c-3.1-5.36-7.6-6.67-12.71-3.72s-6.44,7.71-3.06,13.57Z"/>
      <path d="M606.45,510.69l10.26-2.1-2.45-4.24,6.3-3.64,8.07,14-6.3,3.64-2.56-4.43L580,521.12l-10.58-18.34L595.84,471l-2.59-4.49,5.68-3.27,16.12,27.93-5.67,3.28-2.27-3.93-7.54,8.26ZM585,515l15-3-4.78-8.3Z"/>
      <path d="M563.05,479.39l-3.63-3.27-15.25,8.81-1.57-2.71L556.91,474l-8.26-7.45L535,474.4l-1.57-2.71,12.8-7.39-3.3-3,9.74-5.62,3.32,2.95,13.79-8-3.2-3,9.64-5.57,3.33,2.95,15.24-8.81,1.57,2.72-14.41,8.31,8.23,7.48,13.9-8,1.57,2.71-12.92,7.46,3.64,3.26-9.74,5.62L583,462.53l-13.92,8,3.64,3.26Zm-4.65-18.51,8.19,7.49,14-8.08-8.28-7.44Z"/>
      <path d="M578.53,427.9l23.94-13.82,6-3.46a16.25,16.25,0,0,1-9.38-7.18,8.29,8.29,0,0,1-.53-7.17,10.63,10.63,0,0,1,4.37-5.4,16,16,0,0,1,6.32-2,8.74,8.74,0,0,1,4,.44l3.8,1.17q9,4,18.19,8l-55.28,31.91Zm27.61-26a4.21,4.21,0,0,0,.36,3.65q1.31,2.25,4.63,2.19,2.57-.1,9.86-4.31l8-4.65c.21-.2-2.32-1.07-7.61-2.59a14,14,0,0,0-8.27-.08,12.62,12.62,0,0,0-3,1.24A8.28,8.28,0,0,0,606.14,401.86Z"/>
    </g>
    <g class="cdFace">
      <path d="M520.29,262.52l11-6.34-1.76-3.05-3,1.73a19.31,19.31,0,0,0,.09-5.05l-.09.05c0-.16,0-.32.05-.48a26.56,26.56,0,0,0-3.52-9.9c-8.46-14.65-22-19.55-34.3-12.46A21.18,21.18,0,0,0,478,243.74a36.59,36.59,0,0,0,5,14.73c4.21,7.3,10.26,13.45,17.32,16.61l7.17-4.14c-2.86-2.71-7-3.5-12-.64a15.45,15.45,0,0,1-4-4.7,11.9,11.9,0,0,1-1.43-8.65c-1.25-5.65,1.72-11.73,9.18-16,8.67-5,18.22-2.86,22.79,5.05,0,0-.43,4.26,0,5l-3.85,7.92Z"/>
      <path d="M472.77,280.72l-3.51,2,.07.11v5L441.45,304l-2.23-3.87-3.51,2,15.12,26.18c8.21,14.22,21.12,18.15,32.72,11.46,6.41-3.71,10.21-9.41,10.95-16.18a33,33,0,0,0-4.48-13Zm.47,46c-10.47,6.05-18.47,4.43-22.58-2.68l-.32-.56.32-4.44-.32-.56,31.55-18.22.54.94a11.54,11.54,0,0,1,1.41,8.55C485.19,315.63,481.88,321.78,473.24,326.76Z"/>
      <g>
        <polygon points="518.8 300.12 528.45 294.55 526.15 292.39 522.69 294.39 514.42 286.94 515.36 282.79 512.02 284.71 508.4 281.44 502.05 285.11 502.29 285.33 501.35 289.49 504.85 287.47 513.07 294.94 512.14 299.1 515.48 297.17 518.8 300.12"/>
        <polygon points="542.35 286.52 552.1 280.89 549.74 278.78 546.34 280.74 538.08 273.28 539.02 269.13 535.57 271.12 531.94 267.85 525.7 271.45 525.95 271.68 525 275.83 528.4 273.87 536.6 281.36 535.67 285.51 539.04 283.57 542.35 286.52"/>
      </g>
      <g>
        <path d="M494.88,343.57,491,345.81a4.87,4.87,0,0,1,3.33,1.32Z"/>
        <path d="M488.27,364.21a8.91,8.91,0,0,0,4,.44,15.73,15.73,0,0,0,6.31-2,10.55,10.55,0,0,0,4.37-5.39c.07-.2.12-.4.18-.59a8.61,8.61,0,0,0-.71-1.59,15.7,15.7,0,0,0-7.06-6.26,4.17,4.17,0,0,1,0,2.85,7.84,7.84,0,0,1-.5,1.15c0,.06.09.12.13.19a4.24,4.24,0,0,1,.37,3.66,8.26,8.26,0,0,1-4,4.55,12.78,12.78,0,0,1-3,1.24,13.55,13.55,0,0,1-3.93.58l.06,0Z"/>
        <path d="M474.41,358.63l-.26-3.09-2.94,1.69Z"/>
      </g>
    </g>
    <g class="abFace">
      <path d="M609.39,430a8.76,8.76,0,0,0-4.37,5.52,22,22,0,0,0,2.58,6.39c2.45,4.24,3.41,5.19,7.15,11.67l9.47,16.4,3.51-2-.06-.12v-5l27.87-16.09,2.23,3.86,3.51-2L654,435.94c-3.15-6.17-4.51-8.54-7.9-14.4-5.61-9.73-12.93-12.32-20.29-8.08a11.09,11.09,0,0,0-5.58,7.94,27.56,27.56,0,0,0,3.25,9l-.77,3.51a9.92,9.92,0,0,1,4.5,4.39l.18.31v5L615,450.73l-.32-.56c-1.84-3.18-2.1-5.67-1.21-7.61-1.3-3.78.05-6.37,3.08-8.12a6.81,6.81,0,0,1,5.85-.72C618.64,428.72,613.81,427.45,609.39,430ZM634,422.68c5.11-2.95,9.61-1.64,12.71,3.72l.43.75v5l-16.09,9.29-.11-.19c-1.86-3.21-2.32-6.07-1.51-8.5C628.24,428.52,629.85,425.08,634,422.68Z"/>
      <path d="M595.42,470.26l.42.74v5l-24.68,29.73L580,521.12l39.73-7.23,2.56,4.43,4.13-2.39-5.9-10.22-4.13,2.39.28.49v5l-10.26,2.1-6.88-11.91v-5l7.54-8.26,2.27,3.93,3.51-2-14-24.18ZM600,512v5l-15,3v-5l10.26-11.32Z"/>
      <g>
        <polygon points="563.05 479.39 569.29 475.78 569.05 475.56 569.99 471.4 566.59 473.37 558.4 465.88 559.32 461.72 555.96 463.67 552.64 460.72 546.2 464.3 545.26 468.46 548.65 466.5 556.91 473.95 555.98 478.11 559.42 476.12 563.05 479.39"/>
        <polygon points="586.6 465.79 592.95 462.13 592.7 461.91 593.64 457.75 590.15 459.76 581.92 452.29 582.85 448.14 579.51 450.07 576.19 447.12 569.75 450.7 568.84 454.85 572.3 452.85 580.58 460.29 579.64 464.45 582.97 462.53 586.6 465.79"/>
      </g>
      <g>
        <path d="M607.16,411.37l-.54,3.56,3.88-2.24A4.92,4.92,0,0,1,607.16,411.37Z"/>
        <path d="M627.08,399.87l.26,3.09,2.94-1.7Z"/>
        <path d="M613.22,394.29a8.74,8.74,0,0,0-4-.44,16,16,0,0,0-6.32,2,10.63,10.63,0,0,0-4.37,5.4c-.07.2-.12.39-.17.59a7.62,7.62,0,0,0,.7,1.58,15.86,15.86,0,0,0,7.07,6.27l.36-4.2a4.21,4.21,0,0,1-.36-3.65,8.28,8.28,0,0,1,4-4.55,12.62,12.62,0,0,1,3-1.24,13.49,13.49,0,0,1,3.92-.58l-.05,0Z"/>
      </g>
    </g>
  </g>
  <g class="cd9_descend">
    <g class="bottom">
      <path class="left" d="M1400,245.94V352.75a15,15,0,0,0,7.5,13l92.5,53.41V526a15,15,0,0,0,7.5,13l85,49.07a15,15,0,0,0,15,0l85-49.07a15,15,0,0,0,7.5-13V419.15Z"/>
      <path class="right" d="M1600,590a15,15,0,0,0,7.5-2l85-49.07a15,15,0,0,0,7.5-13V511L1600,575Z"/>
    </g>
    <path class="edge" d="M1592.5,226.61l-85-49.07a15,15,0,0,0-15,0l-85,49.07a15,15,0,0,0-7.5,13v98.15a15,15,0,0,0,7.5,13l92.5,53.41V511a15,15,0,0,0,7.5,13l85,49.07a15,15,0,0,0,15,0l85-49.07a15,15,0,0,0,7.5-13V412.81a15,15,0,0,0-7.5-13L1600,346.41V239.6A15,15,0,0,0,1592.5,226.61Z"/>
    <path class="face" d="M1588.5,228.92l-81-46.77a15,15,0,0,0-15,0l-81,46.77a15,15,0,0,0-7.5,13v93.53a15,15,0,0,0,7.5,13l92.5,53.41v106.8a15,15,0,0,0,7.5,13l81,46.76a15,15,0,0,0,15,0l81-46.76a15,15,0,0,0,7.5-13V415.12a15,15,0,0,0-7.5-13l-92.5-53.4V241.91A15,15,0,0,0,1588.5,228.92Z"/>
    <g class="dotsBottom">
      <path d="M1517.77,393l9.37-5.4a1.89,1.89,0,0,0,0-3.26l-9.37-5.41a1.88,1.88,0,0,0-2.81,1.63v10.82A1.87,1.87,0,0,0,1517.77,393Z"/>
      <path d="M1546.25,382.31l9.37-5.4a1.89,1.89,0,0,0,0-3.26l-9.37-5.41a1.88,1.88,0,0,0-2.81,1.63v10.82A1.87,1.87,0,0,0,1546.25,382.31Z"/>
      <path d="M1574.74,371.64l9.36-5.4a1.89,1.89,0,0,0,0-3.26l-9.36-5.4a1.88,1.88,0,0,0-2.82,1.62V370A1.88,1.88,0,0,0,1574.74,371.64Z"/>
    </g>
    <g class="dotsFace">
      <path d="M1517.77,393l7.86-4.53-7.86-4.54a1.88,1.88,0,0,0-2.81,1.63v5.82A1.87,1.87,0,0,0,1517.77,393Z"/>
      <path d="M1546.26,382.31l7.85-4.53-7.85-4.54a1.88,1.88,0,0,0-2.82,1.63v5.82A1.88,1.88,0,0,0,1546.26,382.31Z"/>
      <path d="M1574.74,371.64l7.85-4.53-7.85-4.54a1.88,1.88,0,0,0-2.82,1.63V370A1.88,1.88,0,0,0,1574.74,371.64Z"/>
    </g>
    <g class="cdBottom">
      <path d="M1509.46,268.53l.54.93-9.73,5.62c-7.06-3.16-13.11-9.31-17.32-16.61-8.57-14.84-6.16-29.53,5.81-36.44,12.29-7.1,25.84-2.2,34.3,12.45,3.17,5.49,4.19,10.72,3.47,15.38l3-1.73,3.92,6.8-13.16,7.59-3.42-5.92L1522,246c-4.57-7.92-14.12-10.06-22.79-5.06-9.1,5.26-11.53,13.15-7.75,19.7a15.53,15.53,0,0,0,4,4.69C1501.76,261.67,1506.79,263.91,1509.46,268.53Z"/>
      <path d="M1490,305.59c8.2,14.22,5.13,27.47-6.47,34.17s-24.51,2.76-32.72-11.46l-17.28-29.93,5.67-3.28,2.23,3.87,27.88-16.1L1467.1,279l5.67-3.28Zm-8.13-5.29-31.55,18.22.32.56c4.11,7.11,12.11,8.73,22.58,2.68s13.12-13.72,9.19-20.52Z"/>
      <path d="M1531.94,262.85l3.63,3.27,15.26-8.81,1.56,2.71-14.31,8.26,8.26,7.46,13.68-7.9,1.57,2.71-12.79,7.39,3.3,2.95-9.75,5.63-3.31-2.95-13.8,8,3.21,3-9.65,5.57-3.32-2.95-15.25,8.8-1.56-2.71,14.4-8.31-8.23-7.48-13.9,8-1.56-2.71,12.91-7.46-3.64-3.26,9.75-5.63,3.63,3.27,13.91-8-3.64-3.27Zm4.66,18.51-8.2-7.49-14,8.08,8.27,7.44Z"/>
      <path d="M1523,325.6l-24,13.82-6,3.46a16.28,16.28,0,0,1,9.38,7.17,8.28,8.28,0,0,1,.53,7.18,10.55,10.55,0,0,1-4.37,5.39,15.73,15.73,0,0,1-6.31,2,8.91,8.91,0,0,1-4-.44l-3.8-1.18q-9-4-18.18-7.95l55.27-31.92Zm-27.61,26A4.24,4.24,0,0,0,1495,348c-.86-1.49-2.41-2.22-4.63-2.19q-2.56.1-9.85,4.32l-8,4.65c-.21.2,2.32,1.06,7.61,2.59a14,14,0,0,0,8.28.08,13,13,0,0,0,3-1.24A8.3,8.3,0,0,0,1495.36,351.64Z"/>
    </g>
    <g class="abBottom">
      <path d="M1623.46,430.35c-5.43-9.84-4.34-18,2.33-21.89,7.36-4.24,14.68-1.65,20.29,8.08,3.39,5.86,4.75,8.23,7.9,14.4l9.47,16.4-5.68,3.27-2.23-3.86-27.87,16.09,2.23,3.87-5.68,3.27-9.47-16.4c-3.74-6.48-4.7-7.43-7.15-11.67-4.32-7.48-3.82-13.67,1.79-16.91C1614.26,422.19,1619.62,424,1623.46,430.35Zm3.91,8.22-.18-.32c-2.74-4.74-6.69-6.11-10.68-3.81-3.68,2.13-4.9,5.49-1.87,10.73l.32.56Zm3.68-2.13,16.09-9.29-.43-.75c-3.1-5.36-7.6-6.67-12.71-3.72s-6.44,7.71-3.06,13.57Z"/>
      <path d="M1606.45,510.69l10.26-2.1-2.45-4.24,6.3-3.64,8.07,14-6.3,3.64-2.56-4.43L1580,521.12l-10.58-18.34L1595.84,471l-2.59-4.49,5.67-3.27,16.13,27.93-5.67,3.28-2.27-3.93-7.54,8.26ZM1585,515l15-3-4.78-8.29Z"/>
      <path d="M1563.05,479.39l-3.63-3.27-15.25,8.81-1.57-2.71,14.31-8.26-8.26-7.46L1535,474.4l-1.57-2.71,12.8-7.39-3.3-3,9.74-5.62,3.32,2.95,13.79-8-3.2-3,9.64-5.57,3.32,2.95,15.25-8.81,1.57,2.72-14.41,8.31,8.23,7.48,13.9-8,1.57,2.71-12.92,7.46,3.64,3.26-9.74,5.62-3.63-3.26-13.92,8,3.64,3.26Zm-4.65-18.51,8.19,7.49,14-8.08-8.27-7.44Z"/>
      <path d="M1578.52,427.9l24-13.82,6-3.46a16.25,16.25,0,0,1-9.38-7.18,8.29,8.29,0,0,1-.53-7.17,10.63,10.63,0,0,1,4.37-5.4,16,16,0,0,1,6.32-2,8.88,8.88,0,0,1,4,.44l3.8,1.17q9,4,18.19,8l-55.28,31.91Zm27.62-26a4.21,4.21,0,0,0,.36,3.65q1.3,2.25,4.63,2.19,2.56-.1,9.86-4.31l8-4.65c.21-.2-2.32-1.07-7.61-2.59a14,14,0,0,0-8.27-.08,12.62,12.62,0,0,0-3,1.24A8.28,8.28,0,0,0,1606.14,401.86Z"/>
    </g>
    <g class="cdFace">
      <path d="M1520.29,262.52l11-6.34-1.76-3.05-3,1.73a19.31,19.31,0,0,0,.09-5.05l-.09.05c0-.16,0-.32,0-.48a26.56,26.56,0,0,0-3.52-9.9c-8.46-14.65-22-19.55-34.3-12.45A21.15,21.15,0,0,0,1478,243.74a36.54,36.54,0,0,0,5,14.73c4.21,7.3,10.26,13.45,17.32,16.61l7.17-4.14c-2.86-2.71-7-3.5-12-.64a15.53,15.53,0,0,1-4-4.69,11.93,11.93,0,0,1-1.43-8.66c-1.25-5.65,1.72-11.73,9.18-16,8.67-5,18.22-2.86,22.79,5.06,0,0-.43,4.25,0,5l-3.85,7.91Z"/>
      <path d="M1472.77,280.72l-3.51,2,.07.11v5L1441.45,304l-2.23-3.87-3.51,2,15.12,26.18c8.21,14.22,21.12,18.15,32.72,11.46,6.41-3.71,10.21-9.41,11-16.18a33.17,33.17,0,0,0-4.48-13Zm.47,46c-10.47,6.05-18.47,4.43-22.58-2.68l-.32-.56.32-4.44-.32-.56,31.55-18.22.54.94a11.56,11.56,0,0,1,1.41,8.56C1485.19,315.63,1481.88,321.78,1473.24,326.76Z"/>
      <g>
        <polygon points="1518.8 300.12 1528.44 294.55 1526.15 292.39 1522.69 294.39 1514.42 286.95 1515.36 282.79 1512.03 284.71 1508.4 281.44 1502.05 285.11 1502.29 285.33 1501.35 289.49 1504.85 287.47 1513.07 294.95 1512.14 299.1 1515.48 297.17 1518.8 300.12"/>
        <polygon points="1542.35 286.52 1552.1 280.89 1549.73 278.78 1546.34 280.74 1538.08 273.28 1539.02 269.13 1535.57 271.12 1531.94 267.85 1525.7 271.45 1525.94 271.68 1525.01 275.83 1528.4 273.87 1536.6 281.36 1535.67 285.51 1539.04 283.57 1542.35 286.52"/>
      </g>
      <g>
        <path d="M1494.88,343.57l-3.88,2.24a4.87,4.87,0,0,1,3.33,1.32Z"/>
        <path d="M1488.27,364.21a8.91,8.91,0,0,0,4,.44,15.73,15.73,0,0,0,6.31-2,10.55,10.55,0,0,0,4.37-5.39c.07-.2.12-.4.18-.59a8.61,8.61,0,0,0-.71-1.59,15.7,15.7,0,0,0-7.06-6.26,4.17,4.17,0,0,1,0,2.85,7.84,7.84,0,0,1-.5,1.15c0,.06.09.12.13.19a4.24,4.24,0,0,1,.37,3.66,8.3,8.3,0,0,1-4,4.55,12.78,12.78,0,0,1-3,1.24,13.6,13.6,0,0,1-3.93.58l0,0Z"/>
        <path d="M1474.41,358.63l-.26-3.09-2.94,1.69Z"/>
      </g>
    </g>
    <g class="abFace">
      <path d="M1609.39,430a8.76,8.76,0,0,0-4.37,5.52,21.74,21.74,0,0,0,2.58,6.39c2.45,4.24,3.41,5.19,7.15,11.67l9.47,16.4,3.51-2-.06-.12v-5l27.87-16.09,2.23,3.86,3.51-2-7.3-12.65c-3.15-6.17-4.51-8.54-7.9-14.4-5.61-9.73-12.93-12.32-20.29-8.08a11.08,11.08,0,0,0-5.58,8,27.36,27.36,0,0,0,3.25,8.94l-.77,3.51a10,10,0,0,1,4.5,4.39l.18.32v5L1615,450.73l-.32-.56c-1.84-3.18-2.1-5.66-1.21-7.6-1.3-3.79,0-6.38,3.08-8.13a6.81,6.81,0,0,1,5.85-.72C1618.64,428.72,1613.81,427.45,1609.39,430Zm24.61-7.32c5.11-2.95,9.61-1.64,12.71,3.72l.43.75v5l-16.09,9.29-.11-.19c-1.86-3.21-2.32-6.07-1.51-8.5C1628.24,428.52,1629.85,425.08,1634,422.68Z"/>
      <path d="M1595.41,470.26l.43.74v5l-24.68,29.73,8.88,15.39,39.73-7.23,2.56,4.43,4.13-2.39-5.9-10.22-4.13,2.39.28.49v5l-10.26,2.1-6.88-11.91v-5l7.54-8.26,2.27,3.93,3.51-2-14-24.18ZM1600,512v5l-15,3v-5l10.26-11.32Z"/>
      <g>
        <polygon points="1563.05 479.39 1569.3 475.78 1569.05 475.56 1569.99 471.4 1566.59 473.37 1558.39 465.88 1559.32 461.72 1555.96 463.67 1552.64 460.72 1546.2 464.3 1545.26 468.46 1548.65 466.5 1556.91 473.95 1555.98 478.11 1559.42 476.12 1563.05 479.39"/>
        <polygon points="1586.6 465.79 1592.95 462.13 1592.7 461.91 1593.64 457.75 1590.15 459.77 1581.92 452.29 1582.85 448.14 1579.52 450.07 1576.19 447.12 1569.75 450.7 1568.84 454.85 1572.3 452.85 1580.58 460.29 1579.64 464.45 1582.97 462.53 1586.6 465.79"/>
      </g>
      <g>
        <path d="M1607.16,411.37l-.54,3.56,3.88-2.24A4.92,4.92,0,0,1,1607.16,411.37Z"/>
        <path d="M1627.08,399.87l.26,3.09,2.94-1.7Z"/>
        <path d="M1613.22,394.29a8.74,8.74,0,0,0-4-.44,16,16,0,0,0-6.32,2,10.63,10.63,0,0,0-4.37,5.4c-.07.2-.12.39-.17.59a7.62,7.62,0,0,0,.7,1.58,15.8,15.8,0,0,0,7.07,6.27l.36-4.2a4.21,4.21,0,0,1-.36-3.65,8.28,8.28,0,0,1,4-4.55,12.71,12.71,0,0,1,3-1.24,13.6,13.6,0,0,1,3.93-.58l0,0Z"/>
      </g>
    </g>
  </g>
  <g class="cd5_descend">
    <g class="bottom">
      <path class="left" d="M800,592.35V699.16a15,15,0,0,0,7.5,13L900,765.56V872.37a15,15,0,0,0,7.5,13l85,49.07a15,15,0,0,0,15,0l85-49.07a15,15,0,0,0,7.5-13V765.56Z"/>
      <path class="right" d="M1000,936.44a15,15,0,0,0,7.5-2l85-49.07a15,15,0,0,0,7.5-13v-15l-100,64.07Z"/>
    </g>
    <path class="edge" d="M992.5,573,907.5,524a15,15,0,0,0-15,0L807.5,573a15,15,0,0,0-7.5,13v98.15a15,15,0,0,0,7.5,13L900,750.56V857.37a15,15,0,0,0,7.5,13l85,49.07a15,15,0,0,0,15,0l85-49.07a15,15,0,0,0,7.5-13V759.22a15,15,0,0,0-7.5-13L1000,692.82V586A15,15,0,0,0,992.5,573Z"/>
    <path class="face" d="M988.5,575.33l-81-46.76a15,15,0,0,0-15,0l-81,46.76a15,15,0,0,0-7.5,13v93.53a15,15,0,0,0,7.5,13L904,748.25V855.06a15,15,0,0,0,7.5,13l81,46.76a15,15,0,0,0,15,0l81-46.76a15,15,0,0,0,7.5-13V761.53a15,15,0,0,0-7.5-13L996,695.13V588.32A15,15,0,0,0,988.5,575.33Z"/>
    <g class="dotsBottom">
      <path d="M974.1,692.17l-7.81,4.5a1.57,1.57,0,0,0,0,2.71l7.81,4.51a1.57,1.57,0,0,0,2.35-1.35v-9A1.56,1.56,0,0,0,974.1,692.17Z"/>
      <path d="M922.14,722.17l-7.81,4.5a1.57,1.57,0,0,0,0,2.71l7.81,4.51a1.57,1.57,0,0,0,2.35-1.35v-9A1.56,1.56,0,0,0,922.14,722.17Z"/>
      <path d="M984.1,709.49l-7.81,4.5a1.57,1.57,0,0,0,0,2.71l7.81,4.51a1.57,1.57,0,0,0,2.35-1.35v-9A1.56,1.56,0,0,0,984.1,709.49Z"/>
      <path d="M953.12,715.83l-7.81,4.5a1.57,1.57,0,0,0,0,2.71l7.81,4.51a1.57,1.57,0,0,0,2.35-1.35v-9A1.56,1.56,0,0,0,953.12,715.83Z"/>
      <path d="M932.14,739.49l-7.81,4.5a1.57,1.57,0,0,0,0,2.71l7.81,4.51a1.57,1.57,0,0,0,2.35-1.35v-9A1.56,1.56,0,0,0,932.14,739.49Z"/>
    </g>
    <g class="dotsFace">
      <path d="M974.1,697.17l-5.82,3.36,5.82,3.36a1.57,1.57,0,0,0,2.35-1.35v-4A1.56,1.56,0,0,0,974.1,697.17Z"/>
      <path d="M922.14,727.17l-5.82,3.36,5.82,3.36a1.57,1.57,0,0,0,2.35-1.35v-4A1.56,1.56,0,0,0,922.14,727.17Z"/>
      <path d="M984.1,714.49l-5.82,3.36,5.82,3.36a1.57,1.57,0,0,0,2.35-1.35v-4A1.56,1.56,0,0,0,984.1,714.49Z"/>
      <path d="M953.12,720.83l-5.82,3.36,5.82,3.36a1.57,1.57,0,0,0,2.35-1.35v-4A1.56,1.56,0,0,0,953.12,720.83Z"/>
      <path d="M932.14,744.49l-5.82,3.36,5.82,3.36a1.57,1.57,0,0,0,2.35-1.35v-4A1.56,1.56,0,0,0,932.14,744.49Z"/>
    </g>
    <g class="cdBottom">
      <path d="M909.46,614.94l.54.93-9.73,5.62c-7.06-3.16-13.11-9.31-17.32-16.61-8.57-14.84-6.16-29.53,5.81-36.44,12.29-7.1,25.84-2.2,34.3,12.45,3.17,5.49,4.19,10.72,3.47,15.38l3-1.73,3.93,6.8-13.16,7.59L916.87,603,922,592.38c-4.57-7.92-14.12-10.06-22.79-5.06-9.1,5.26-11.53,13.15-7.75,19.7a15.53,15.53,0,0,0,4,4.69C901.75,608.08,906.79,610.32,909.46,614.94Z"/>
      <path d="M890,652c8.21,14.22,5.14,27.47-6.46,34.17s-24.51,2.76-32.72-11.46l-17.28-29.93,5.67-3.28,2.23,3.87,27.88-16.1-2.24-3.86,5.68-3.28Zm-8.12-5.28-31.55,18.21.32.56c4.11,7.11,12.11,8.73,22.58,2.68s13.11-13.72,9.19-20.52Z"/>
      <path d="M931.94,609.26l3.63,3.27,15.26-8.81,1.56,2.71-14.31,8.26,8.26,7.46,13.68-7.9,1.57,2.71-12.79,7.39,3.3,3-9.75,5.62L939,630l-13.79,8,3.2,3-9.64,5.57-3.32-2.95-15.25,8.81-1.56-2.72,14.4-8.31-8.23-7.48-13.9,8-1.56-2.71,12.91-7.46-3.64-3.26,9.74-5.62,3.63,3.26,13.92-8-3.64-3.26Zm4.66,18.51-8.2-7.49-14,8.08,8.27,7.44Z"/>
      <path d="M923,672l-24,13.82-6,3.46a16.28,16.28,0,0,1,9.38,7.17,8.28,8.28,0,0,1,.53,7.18,10.55,10.55,0,0,1-4.37,5.39,15.73,15.73,0,0,1-6.32,2,8.88,8.88,0,0,1-4-.44l-3.8-1.18q-9-4-18.18-8l55.27-31.92Zm-27.62,26a4.23,4.23,0,0,0-.36-3.66c-.86-1.49-2.41-2.22-4.63-2.19q-2.57.1-9.86,4.32l-8,4.65c-.21.2,2.32,1.07,7.61,2.59a14,14,0,0,0,8.28.08,12.54,12.54,0,0,0,3-1.24A8.24,8.24,0,0,0,895.35,698.05Z"/>
    </g>
    <g class="fgBottom">
      <path d="M1008.35,780.26l-3.49,2-3.93-6.79,11.91-6.88,3.42,5.92-3.56,10.54c5.45,9,14.19,10,22.79,5.05,8.79-5.07,12-13.69,7.91-20.86l-10,5.8,2.09,3.61-5.68,3.28-12.24-21.2,5.68-3.28,2,3.49,8.49-4.89c7.64,3.15,13.87,9.2,18.08,16.49,8.57,14.84,6.16,29.54-5.81,36.45-12.28,7.09-26.16,1.64-34.66-13.08C1008.19,790.49,1007.17,783.68,1008.35,780.26Z"/>
      <path d="M965.06,841.87l12.29-7.09,2.48,4.3-4.44,10.3,5.43,9.42,13.66-7.89-4.36-7.54-5,2.91-2.41-4.18,14.4-8.31,2.42,4.18-4.87,2.8,4.36,7.55,10.91-6.3-2.27-3.93,5.68-3.28,15.08,26.13-5.67,3.28-2.23-3.87-27.88,16.09,2.23,3.87-5.67,3.28Z"/>
      <path d="M968.05,834.75l-3.63-3.26-15.25,8.8-1.57-2.71,14.31-8.26-8.26-7.46L940,829.76l-1.56-2.71,12.79-7.38-3.3-3,9.74-5.63L961,814l13.79-8-3.2-3,9.65-5.57,3.32,2.95,15.24-8.8,1.57,2.71-14.4,8.32,8.22,7.47,13.9-8,1.57,2.71-12.92,7.46,3.64,3.26-9.74,5.63L988,817.89l-13.92,8,3.64,3.26Zm-4.65-18.51,8.2,7.49,14-8.07-8.28-7.45Z"/>
      <path d="M978.53,774.6l23.94-13.82,6-3.46a16.27,16.27,0,0,1-9.39-7.17,8.28,8.28,0,0,1-.52-7.18,10.55,10.55,0,0,1,4.37-5.39,15.68,15.68,0,0,1,6.31-2,8.88,8.88,0,0,1,4,.44l3.8,1.18q9,4,18.19,8L979.93,777Zm27.61-26a4.23,4.23,0,0,0,.36,3.66c.87,1.49,2.41,2.22,4.64,2.19q2.55-.1,9.85-4.32l8-4.65c.22-.2-2.32-1.06-7.6-2.59a14,14,0,0,0-8.28-.08,12.78,12.78,0,0,0-3,1.24A8.26,8.26,0,0,0,1006.14,748.56Z"/>
    </g>
    <g class="cdFace">
      <path d="M920.29,608.93l11-6.34-1.76-3.05-3,1.73a19.31,19.31,0,0,0,.09-5l-.09,0c0-.16,0-.32.05-.48a26.56,26.56,0,0,0-3.52-9.9c-8.46-14.65-22-19.55-34.3-12.45A21.13,21.13,0,0,0,878,590.15a36.49,36.49,0,0,0,5,14.73c4.21,7.3,10.26,13.45,17.32,16.61l7.16-4.14c-2.85-2.71-7-3.5-12-.64a15.53,15.53,0,0,1-4-4.69,11.93,11.93,0,0,1-1.43-8.66c-1.25-5.65,1.72-11.73,9.18-16,8.67-5,18.22-2.86,22.79,5.06,0,0-.43,4.25,0,5l-3.85,7.91Z"/>
      <path d="M872.77,627.13l-3.51,2,.07.12v5l-27.88,16.09-2.23-3.87-3.51,2,15.12,26.18c8.21,14.22,21.12,18.15,32.72,11.46,6.41-3.71,10.21-9.41,11-16.18A33,33,0,0,0,890,657Zm.47,46c-10.47,6.05-18.47,4.43-22.58-2.68l-.32-.56.32-4.44-.32-.56,31.55-18.21.54.93a11.61,11.61,0,0,1,1.41,8.56C885.19,662,881.88,668.19,873.24,673.17Z"/>
      <g>
        <polygon points="918.8 646.53 928.44 640.96 926.15 638.8 922.69 640.8 914.42 633.36 915.35 629.2 912.02 631.12 908.39 627.86 902.04 631.52 902.29 631.74 901.35 635.9 904.84 633.88 913.07 641.36 912.14 645.51 915.48 643.58 918.8 646.53"/>
        <polygon points="942.35 632.93 952.1 627.3 949.73 625.19 946.34 627.15 938.08 619.69 939.02 615.54 935.57 617.53 931.94 614.26 925.7 617.87 925.94 618.09 925 622.24 928.4 620.28 936.6 627.77 935.67 631.92 939.03 629.98 942.35 632.93"/>
      </g>
      <g>
        <path d="M894.88,690,891,692.22a4.87,4.87,0,0,1,3.33,1.32Z"/>
        <path d="M888.27,710.62a8.88,8.88,0,0,0,4,.44,15.73,15.73,0,0,0,6.32-2,10.51,10.51,0,0,0,4.37-5.39c.07-.2.12-.4.18-.59a8.61,8.61,0,0,0-.71-1.59,15.81,15.81,0,0,0-7.06-6.26,4.17,4.17,0,0,1,0,2.85,7.79,7.79,0,0,1-.49,1.15c0,.06.09.12.13.19a4.23,4.23,0,0,1,.36,3.66,8.24,8.24,0,0,1-4,4.55,13,13,0,0,1-3,1.24,13.6,13.6,0,0,1-3.93.58l.05,0Z"/>
        <path d="M874.41,705l-.26-3.09-2.94,1.69Z"/>
      </g>
    </g>
    <g class="fgFace">
      <path d="M1011.32,795.92c8.5,14.72,22.38,20.17,34.66,13.08a21.13,21.13,0,0,0,10.79-16.71,36.28,36.28,0,0,0-5-14.74c-4.21-7.29-10.44-13.34-18.08-16.49l-8.49,4.89-2-3.49-3.51,2,10.07,17.45,5.68-3.28-2.09-3.61,10-5.8a12.75,12.75,0,0,1,1.52,9c1.26,6.18-2.22,12.72-9.43,16.88-8.6,5-17.34,3.95-22.79-5.05v-5l2.5-7.38-2.36-4.08-9.74,5.63,1.76,3,3.49-2v5a7.05,7.05,0,0,0-.28,1.12A27.1,27.1,0,0,0,1011.32,795.92Z"/>
      <polygon points="977.35 839.78 967.23 845.62 989.15 883.59 992.66 881.56 992.59 881.45 992.59 876.45 1020.47 860.35 1022.7 864.22 1026.21 862.19 1013.29 839.81 1009.78 841.84 1009.88 842.02 1009.88 847.02 998.97 853.32 994.61 845.77 994.61 840.77 997.31 839.22 997.06 838.79 984.82 845.85 985.07 846.28 990.12 843.37 994.48 850.91 994.48 855.91 980.82 863.79 975.39 854.38 975.39 849.38 978.6 841.94 977.35 839.78"/>
      <g>
        <polygon points="968.05 834.75 974.3 831.15 974.05 830.93 974.99 826.77 971.6 828.73 963.4 821.24 964.33 817.09 960.96 819.03 957.64 816.08 951.2 819.66 950.26 823.82 953.65 821.86 961.91 829.32 960.98 833.47 964.42 831.49 968.05 834.75"/>
        <polygon points="991.6 821.16 997.95 817.49 997.7 817.27 998.64 813.11 995.15 815.13 986.93 807.65 987.86 803.5 984.52 805.43 981.2 802.48 974.75 806.07 973.84 810.21 977.3 808.21 985.58 815.65 984.64 819.81 987.97 817.89 991.6 821.16"/>
      </g>
      <g>
        <path d="M1013.22,741a8.88,8.88,0,0,0-4-.44,15.68,15.68,0,0,0-6.31,2,10.55,10.55,0,0,0-4.37,5.39c-.07.2-.12.4-.18.59a8.55,8.55,0,0,0,.7,1.59,15.78,15.78,0,0,0,7.07,6.26l.36-4.19a4.23,4.23,0,0,1-.36-3.66,8.21,8.21,0,0,1,4-4.54,12.4,12.4,0,0,1,3-1.25,13.5,13.5,0,0,1,3.93-.58l-.06,0Z"/>
        <path d="M1007.17,758.07l-.55,3.56,3.88-2.24A4.87,4.87,0,0,1,1007.17,758.07Z"/>
        <path d="M1027.09,746.57l.26,3.09,2.93-1.69Z"/>
      </g>
    </g>
  </g>
  <g class="cd5_horizon">
    <g class="bottom">
      <path class="leftMoved" d="M1800,684.16v15a15,15,0,0,0,7.5,13l85,49.08a15,15,0,0,0,15,0l92.5-53.41,92.5,53.41a15,15,0,0,0,15,0l85-49.08a15,15,0,0,0,7.5-13v-15Z"/>
      <g class="rightMoved">
        <path d="M2000,692.82l-100,55.42v15a15,15,0,0,0,7.5-2l92.5-53.41v-15"/>
        <path d="M2200,699.16a15,15,0,0,1-7.5,13l-85,49.08a15,15,0,0,1-7.5,2v-15l100-64.08Z"/>
      </g>
    </g>
    <path class="edgeMoved" d="M2092.5,524l-92.5,53.4L1907.5,524a15,15,0,0,0-15,0l-85,49.07a15,15,0,0,0-7.5,13v98.15a15,15,0,0,0,7.5,13l85,49.08a15,15,0,0,0,15,0l92.5-53.41,92.5,53.41a15,15,0,0,0,15,0l85-49.08a15,15,0,0,0,7.5-13V586a15,15,0,0,0-7.5-13l-85-49.07A15,15,0,0,0,2092.5,524Z"/>
    <path class="faceMoved" d="M2092.5,528.57,2000,582l-92.5-53.4a15,15,0,0,0-15,0l-81,46.76a15,15,0,0,0-7.5,13v93.53a15,15,0,0,0,7.5,13l81,46.77a15,15,0,0,0,15,0L2000,688.2l92.5,53.41a15,15,0,0,0,15,0l81-46.77a15,15,0,0,0,7.5-13V588.32a15,15,0,0,0-7.5-13l-81-46.76A15,15,0,0,0,2092.5,528.57Z"/>
    <g class="dotsBottom">
      <path d="M1984.53,600.58v9a1.56,1.56,0,0,0,2.34,1.36l7.81-4.51a1.57,1.57,0,0,0,0-2.71l-7.81-4.51A1.56,1.56,0,0,0,1984.53,600.58Z"/>
      <path d="M1984.53,660.58v9a1.56,1.56,0,0,0,2.34,1.36l7.81-4.51a1.57,1.57,0,0,0,0-2.71l-7.81-4.51A1.56,1.56,0,0,0,1984.53,660.58Z"/>
      <path d="M2004.53,600.58v9a1.56,1.56,0,0,0,2.34,1.36l7.81-4.51a1.57,1.57,0,0,0,0-2.71l-7.81-4.51A1.56,1.56,0,0,0,2004.53,600.58Z"/>
      <path d="M1994.53,630.58v9a1.56,1.56,0,0,0,2.34,1.36l7.81-4.51a1.57,1.57,0,0,0,0-2.71l-7.81-4.51A1.56,1.56,0,0,0,1994.53,630.58Z"/>
      <path d="M2004.53,660.58v9a1.56,1.56,0,0,0,2.34,1.36l7.81-4.51a1.57,1.57,0,0,0,0-2.71l-7.81-4.51A1.56,1.56,0,0,0,2004.53,660.58Z"/>
    </g>
    <g class="dotsFace">
      <path d="M1986.87,611l5.83-3.36-5.83-3.37a1.56,1.56,0,0,0-2.34,1.36v4A1.56,1.56,0,0,0,1986.87,611Z"/>
      <path d="M1986.87,671l5.83-3.36-5.83-3.37a1.56,1.56,0,0,0-2.34,1.36v4A1.56,1.56,0,0,0,1986.87,671Z"/>
      <path d="M2006.87,611l5.83-3.36-5.83-3.37a1.56,1.56,0,0,0-2.34,1.36v4A1.56,1.56,0,0,0,2006.87,611Z"/>
      <path d="M1996.87,641l5.83-3.36-5.83-3.37a1.56,1.56,0,0,0-2.34,1.36v4A1.56,1.56,0,0,0,1996.87,641Z"/>
      <path d="M2006.87,671l5.83-3.36-5.83-3.37a1.56,1.56,0,0,0-2.34,1.36v4A1.56,1.56,0,0,0,2006.87,671Z"/>
    </g>
    <g class="cdBottom">
      <path d="M1887.28,616.82h1.08v11.24c-6.27,4.53-14.62,6.69-23,6.69-17.14,0-28.66-9.43-28.66-23.26,0-14.18,11-23.47,27.94-23.47,6.33,0,11.37,1.73,15.05,4.68v-3.46h7.84v15.2h-6.84l-6.62-9.79c-9.15,0-15.77,7.2-15.77,17.2,0,10.52,5.62,16.57,13.18,16.57a15.67,15.67,0,0,0,6-1.08C1877.49,620.06,1882,616.82,1887.28,616.82Z"/>
      <path d="M1909.66,652.19c16.41,0,26.35,9.29,26.35,22.68s-9.86,22.61-26.28,22.61h-34.57v-6.55h4.47V658.74h-4.47v-6.55Zm-8.65,4.39V693h.65c8.21,0,13.61-6.12,13.61-18.22s-5.33-18.22-13.18-18.22Z"/>
      <path d="M1893.6,594.51l4.65-1.51V575.39h3.13v16.52l10.58-3.42v-15.8h3.14v14.77l4.21-1.38v11.25l-4.21,1.4v15.93l4.21-1.27v11.14l-4.21,1.4v17.61H1912V626.9l-10.58,3.39v16.05h-3.13V631.43L1893.6,633V621.7l4.65-1.51V604.12l-4.65,1.52Zm18.36,5.23-10.58,3.35v16.15l10.58-3.45Z"/>
      <path d="M1943.46,633.66v34.56a16.19,16.19,0,0,1,10.9-4.54,8.27,8.27,0,0,1,6.48,3.13,10.59,10.59,0,0,1,2.49,6.48,15.72,15.72,0,0,1-1.41,6.48,8.78,8.78,0,0,1-2.37,3.24l-2.92,2.7q-8,5.84-16,11.77V633.66Zm8.74,36.93a4.19,4.19,0,0,0-3.34-1.51q-2.59,0-4.22,2.92-1.19,2.26-1.18,10.69V692q.11.42,6-5.3a14,14,0,0,0,4.22-7.12,12.88,12.88,0,0,0,.43-3.24A8.23,8.23,0,0,0,1952.2,670.59Z"/>
    </g>
    <g class="fgBottom">
      <path d="M2079.9,613.84v4h-7.85V604.12h6.84l7.34,8.35c10.52-.21,15.77-7.27,15.77-17.21,0-10.15-5.83-17.28-14.11-17.28v11.59h4.18v6.56h-24.49v-6.56h4v-9.79c6.55-5,14.9-7.42,23.33-7.42,17.13,0,28.65,9.44,28.65,23.26,0,14.19-11.66,23.48-28.65,23.48C2088.68,619.1,2082.27,616.58,2079.9,613.84Z"/>
      <path d="M2111.61,682.13V668h5l6.7,9h10.87V661.18h-8.71V667h-4.83V650.38h4.83V656h8.71v-12.6h-4.54v-6.55h30.17v6.55h-4.46v32.19h4.46v6.55Z"/>
      <path d="M2106.94,676l-4.64,1.52v17.61h-3.13V678.58L2088.58,682v15.8h-3.13V683l-4.21,1.38V673.17l4.21-1.4V655.84l-4.21,1.27V646l4.21-1.4V627h3.13v16.63l10.59-3.38V624.15h3.13v14.92l4.64-1.53V648.8l-4.64,1.51v16.07l4.64-1.52Zm-18.36-5.22,10.59-3.35V651.26l-10.59,3.44Z"/>
      <path d="M2060.09,636.84V602.28a16.31,16.31,0,0,1-10.91,4.54,8.3,8.3,0,0,1-6.48-3.13,10.58,10.58,0,0,1-2.48-6.49,15.68,15.68,0,0,1,1.4-6.47,8.71,8.71,0,0,1,2.38-3.24l2.91-2.71q8-5.82,16-11.77v63.83Zm-8.75-36.93a4.24,4.24,0,0,0,3.35,1.51q2.59,0,4.21-2.92c.79-1.51,1.19-5.08,1.19-10.69v-9.29q-.11-.43-6.05,5.29a14.07,14.07,0,0,0-4.21,7.13,12.44,12.44,0,0,0-.43,3.24A8.28,8.28,0,0,0,2051.34,599.91Z"/>
    </g>
    <g class="cdFace">
      <path d="M1877.49,632.34a15.67,15.67,0,0,1-6,1.08c-7.56,0-13.18-6-13.18-16.57a22.64,22.64,0,0,1,.14-2.35c-.08-.85-.14-1.72-.14-2.65,0-10,6.62-17.2,15.77-17.2l6.62,9.79h6.84v-10.2h-7.84v3.46c-3.68-3-8.72-4.68-15.05-4.68-15.88,0-26.56,8.18-27.82,20.91,1.28,12.48,12.43,20.82,28.54,20.82,8.42,0,16.77-2.16,23-6.69v-6.24h-1.08C1882,621.82,1877.49,625.06,1877.49,632.34Z"/>
      <path d="M1935.89,677.38c-1.17-12-10.86-20.19-26.23-20.19h-3.59c5.62,1.82,9.2,7.75,9.2,17.61,0,.87,0,1.7-.09,2.5s.09,1.64.09,2.5c0,10.06-3.74,16-9.72,17.68h4.18C1925.1,697.48,1934.73,689.4,1935.89,677.38Z"/>
      <polygon points="1901.02 693.02 1901.02 661.58 1901.02 657.19 1875.16 657.19 1875.16 658.74 1879.63 658.74 1879.63 663.74 1879.63 690.93 1879.63 695.93 1875.16 695.93 1875.16 697.48 1901.02 697.48 1901.02 693.02"/>
      <path d="M1915.1,587.46v-9.77H1912v15.8l-10.58,3.42V580.39h-3.13V598l-4.65,1.51v6.13l4.65-1.52v21.07l-4.65,1.51V633l4.65-1.52v14.91h3.13V630.29L1912,626.9v16.64h3.14V625.93l4.21-1.4v-6.14l-4.21,1.27V598.73l4.21-1.4v-6.25l-4.21,1.38ZM1912,604.74v16l-10.58,3.45V603.09l10.58-3.35Z"/>
      <path d="M1959.55,683a8.78,8.78,0,0,0,2.37-3.24,20.39,20.39,0,0,0,1.13-3.56,10.83,10.83,0,0,0-2.21-4.4,8.27,8.27,0,0,0-6.48-3.13,15.74,15.74,0,0,0-4.12.63,4.07,4.07,0,0,1,2,1.28,8.23,8.23,0,0,1,2,5.73,11.75,11.75,0,0,1-.29,2.49,10.42,10.42,0,0,1,.29,2.51,12.88,12.88,0,0,1-.43,3.24,13.81,13.81,0,0,1-2.35,5c1.76-1.29,3.51-2.6,5.26-3.88Z"/>
      <path d="M1943.46,692v-9.29c0-5.26.35-8.69,1-10.36-.35.29-.7.57-1,.89V638.66h-2.81v58.82l2.81-2.06Z"/>
    </g>
    <g class="fgFace">
      <path d="M2092.07,594.57h-4.18V578c8.28,0,14.11,7.13,14.11,17.28,0,.87-.05,1.71-.13,2.53a24.72,24.72,0,0,1,.13,2.47c0,9.94-5.25,17-15.77,17.21l-7.34-8.35h-6.84v8.75h7.85v-4c2.37,2.74,8.78,5.26,15,5.26,16,0,27.22-8.2,28.53-21-1.3-12.46-12.44-20.78-28.53-20.78-8.43,0-16.78,2.38-23.33,7.42v9.79h-4v1.56h24.49Z"/>
      <polygon points="2129.61 643.39 2134.15 643.39 2134.15 648.39 2134.15 655.99 2134.15 660.99 2125.44 660.99 2125.44 655.99 2125.44 655.38 2120.61 655.38 2120.61 667.01 2125.44 667.01 2125.44 666.18 2125.44 661.18 2134.15 661.18 2134.15 666.18 2134.15 676.95 2134.15 681.95 2123.28 681.95 2116.58 672.95 2111.61 672.95 2111.61 682.13 2159.78 682.13 2159.78 680.58 2155.32 680.58 2155.32 675.58 2155.32 648.39 2155.32 643.39 2159.78 643.39 2159.78 641.84 2129.61 641.84 2129.61 643.39"/>
      <path d="M2102.3,639.07v-9.92h-3.13v16.06l-10.59,3.38V632h-3.13v17.61l-4.21,1.4v6.14l4.21-1.27v20.93l-4.21,1.4v6.25l4.21-1.38v14.77h3.13V682l10.59-3.42v16.52h3.13V677.5l4.64-1.52v-6.12l-4.64,1.52V650.31l4.64-1.51v-6.25l-4.64,1.52Zm-3.13,17.19v16.15l-10.59,3.35V654.7l10.59-3.44Z"/>
      <g>
        <path d="M2060.09,583.52v9.29c0,5.26-.35,8.69-1.05,10.35.36-.28.71-.57,1.05-.88v34.56h2.81V578l-2.81,2.07Z"/>
        <path d="M2044,592.49a8.71,8.71,0,0,0-2.38,3.24,20,20,0,0,0-1.12,3.56,10.94,10.94,0,0,0,2.2,4.4,8.3,8.3,0,0,0,6.48,3.13,15.61,15.61,0,0,0,4.12-.63,4.14,4.14,0,0,1-2-1.29,8.24,8.24,0,0,1-1.94-5.72v-5a12.44,12.44,0,0,1,.43-3.24,13.79,13.79,0,0,1,2.34-5c-1.75,1.29-3.5,2.6-5.26,3.87Z"/>
      </g>
    </g>
  </g>
  <g class="g9_horizon">
    <g class="bottom">
      <path class="left" d="M1400,684.16v15a15,15,0,0,0,7.5,13l85,49.07a15,15,0,0,0,15,0l92.5-53.4,92.5,53.41a15,15,0,0,0,15,0l85-49.08a15,15,0,0,0,7.5-13v-15Z"/>
      <g class="right">
        <path d="M1600,692.82l-100,55.42v15a15,15,0,0,0,7.5-2l92.5-53.4v-15"/>
        <path d="M1800,699.16a15,15,0,0,1-7.5,13l-85,49.08a15,15,0,0,1-7.5,2v-15l100-64.08Z"/>
      </g>
    </g>
    <path class="edge" d="M1692.5,524l-92.5,53.4L1507.5,524a15,15,0,0,0-15,0l-85,49.07a15,15,0,0,0-7.5,13v98.15a15,15,0,0,0,7.5,13l85,49.08a15,15,0,0,0,15,0l92.5-53.41,92.5,53.41a15,15,0,0,0,15,0l85-49.08a15,15,0,0,0,7.5-13V586a15,15,0,0,0-7.5-13l-85-49.07A15,15,0,0,0,1692.5,524Z"/>
    <path class="face" d="M1692.5,528.57,1600,582l-92.5-53.4a15,15,0,0,0-15,0l-81,46.76a15,15,0,0,0-7.5,13v93.53a15,15,0,0,0,7.5,13l81,46.77a15,15,0,0,0,15,0L1600,688.2l92.5,53.41a15,15,0,0,0,15,0l81-46.77a15,15,0,0,0,7.5-13V588.32a15,15,0,0,0-7.5-13l-81-46.76A15,15,0,0,0,1692.5,528.57Z"/>
    <g class="dotsBottom">
      <path d="M1601.56,670.58V659.77a1.88,1.88,0,0,0-2.82-1.63l-9.37,5.41a1.88,1.88,0,0,0,0,3.25l9.37,5.41A1.88,1.88,0,0,0,1601.56,670.58Z"/>
      <path d="M1606.56,640.58V629.77a1.88,1.88,0,0,0-2.82-1.63l-9.37,5.41a1.88,1.88,0,0,0,0,3.25l9.37,5.41A1.88,1.88,0,0,0,1606.56,640.58Z"/>
      <path d="M1611.56,610.58V599.77a1.88,1.88,0,0,0-2.82-1.63l-9.37,5.41a1.88,1.88,0,0,0,0,3.25l9.37,5.41A1.88,1.88,0,0,0,1611.56,610.58Z"/>
    </g>
    <g class="dotsFace">
      <path d="M1598.74,663.14l-7.85,4.53,7.85,4.54a1.88,1.88,0,0,0,2.82-1.63v-5.81A1.88,1.88,0,0,0,1598.74,663.14Z"/>
      <path d="M1603.74,633.14l-7.85,4.53,7.85,4.54a1.88,1.88,0,0,0,2.82-1.63v-5.81A1.88,1.88,0,0,0,1603.74,633.14Z"/>
      <path d="M1608.74,603.14l-7.85,4.53,7.85,4.54a1.88,1.88,0,0,0,2.82-1.63v-5.81A1.88,1.88,0,0,0,1608.74,603.14Z"/>
    </g>
    <path class="eBottom" d="M1653.2,680.46V652.09h9.93l13.4,18h21.74V641.44h-14v10.22h-9.65V620.41h9.65v10.66h14V600.25h-27.5c0,13.25-6.2,21.89-18.15,21.89h-2.16V589.89h99.07V603h-8.93v64.37h8.93v13.1Z"/>
    <path class="gBottom" d="M1531.39,599v-8.07h15.69V618.4h-13.67l-14.69-16.71c-21,.44-31.54,14.55-31.54,34.42,0,20.3,11.67,34.56,28.23,34.56V647.48h-8.36v-13.1h49v13.1H1548v19.59c-13.1,10.08-29.81,14.83-46.66,14.83C1467,681.9,1444,663,1444,635.39c0-28.37,23.33-46.94,57.31-46.94C1513.82,588.45,1526.64,593.49,1531.39,599Z"/>
    <path class="eFace" d="M1650.46,622.14h2.16c12,0,18.15-8.64,18.15-21.89h27.5v35.82h-14V625.41h-9.65v26.25h9.65V641.44h14v33.65h-21.74l-13.4-18h-9.93v23.37h96.33v-8.1h-8.93V603h8.93v-8.1h-99.07Z"/>
    <path class="gFace" d="M1507.05,647.48h8.36v28.19c-16.56,0-28.23-14.26-28.23-34.56,0-.86,0-1.7.07-2.53s-.07-1.64-.07-2.47c0-19.87,10.51-34,31.54-34.42l14.69,16.71h13.67V595.89h-15.69V604c-4.75-5.47-17.57-10.51-30.1-10.51-33,0-55.9,17.48-57.24,44.42,1.34,26.29,24,44,57.24,44,16.85,0,33.56-4.75,46.66-14.83V647.48H1556v-8.1h-49Z"/>
  </g>
  <g class="e3_horizon">
    <g class="bottom">
      <path class="leftMoved" d="M400,684.16v15a15,15,0,0,0,7.5,13l85,49.07a15,15,0,0,0,15,0l92.5-53.4,92.5,53.41a15,15,0,0,0,15,0l85-49.08a15,15,0,0,0,7.5-13v-15Z"/>
      <g class="rightMoved">
        <path d="M600,692.82,500,748.23v15a15,15,0,0,0,7.5-2l92.5-53.4v-15"/>
        <path d="M800,699.16a15,15,0,0,1-7.5,13l-85,49.08a15,15,0,0,1-7.5,2v-15l100-64.08Z"/>
      </g>
    </g>
    <path class="edgeMoved" d="M692.5,524,600,577.35,507.5,524a15,15,0,0,0-15,0L407.5,573a15,15,0,0,0-7.5,13v98.15a15,15,0,0,0,7.5,13l85,49.08a15,15,0,0,0,15,0L600,692.82l92.5,53.41a15,15,0,0,0,15,0l85-49.08a15,15,0,0,0,7.5-13V586a15,15,0,0,0-7.5-13L707.5,524A15,15,0,0,0,692.5,524Z"/>
    <path class="faceMoved" d="M692.5,528.57,600,582l-92.5-53.41a15,15,0,0,0-15,0l-81,46.77a15,15,0,0,0-7.5,13v93.53a15,15,0,0,0,7.5,13l81,46.77a15,15,0,0,0,15,0L600,688.2l92.5,53.41a15,15,0,0,0,15,0l81-46.77a15,15,0,0,0,7.5-13V588.32a15,15,0,0,0-7.5-13l-81-46.76A15,15,0,0,0,692.5,528.57Z"/>
    <g class="dotsBottom">
      <path d="M598.43,599.77v10.81a1.88,1.88,0,0,0,2.82,1.63l9.36-5.41a1.88,1.88,0,0,0,0-3.25l-9.36-5.41A1.88,1.88,0,0,0,598.43,599.77Z"/>
      <path d="M593.43,629.77v10.81a1.88,1.88,0,0,0,2.82,1.63l9.36-5.41a1.88,1.88,0,0,0,0-3.25l-9.36-5.41A1.88,1.88,0,0,0,593.43,629.77Z"/>
      <path d="M588.43,659.77v10.81a1.88,1.88,0,0,0,2.82,1.63l9.36-5.41a1.88,1.88,0,0,0,0-3.25l-9.36-5.41A1.88,1.88,0,0,0,588.43,659.77Z"/>
    </g>
    <g class="dotsFace">
      <path d="M601.25,612.21l7.85-4.53-7.85-4.54a1.88,1.88,0,0,0-2.82,1.63v5.81A1.88,1.88,0,0,0,601.25,612.21Z"/>
      <path d="M596.25,642.21l7.85-4.53-7.85-4.54a1.88,1.88,0,0,0-2.82,1.63v5.81A1.88,1.88,0,0,0,596.25,642.21Z"/>
      <path d="M591.25,672.21l7.85-4.53-7.85-4.54a1.88,1.88,0,0,0-2.82,1.63v5.81A1.88,1.88,0,0,0,591.25,672.21Z"/>
    </g>
    <path class="eBottom" d="M546.79,589.89v28.37h-9.94l-13.39-18H501.72v28.65h14V618.69h9.64v31.24h-9.64V639.28h-14v30.81h27.5c0-13.24,6.19-21.88,18.15-21.88h2.16v32.25H450.46v-13.1h8.92V603h-8.92v-13.1Z"/>
    <path class="gBottom" d="M668.6,671.39v8.06H652.9V652h13.68l14.69,16.7c21-.43,31.54-14.54,31.54-34.41,0-20.31-11.67-34.56-28.23-34.56v23.18h8.36V636H644V622.86H652V603.28c13.1-10.08,29.81-14.83,46.66-14.83C733,588.45,756,607.31,756,635c0,28.37-23.33,46.94-57.31,46.94C686.17,681.9,673.35,676.86,668.6,671.39Z"/>
    <path class="eFace" d="M529.22,675.09h-27.5V639.28h14v10.65h9.64V623.69h-9.64v10.22h-14V600.26h21.74l13.39,18h9.94V594.89H450.46V603h8.92v69.37h-8.92v8.1h99.07V653.21h-2.16C535.41,653.21,529.22,661.85,529.22,675.09Z"/>
    <path class="gFace" d="M698.7,681.9c33,0,55.9-17.48,57.24-44.43-1.34-26.28-24-44-57.24-44-16.85,0-33.56,4.75-46.66,14.83v19.58H644V636h49v-8.11h-8.36V599.68c16.56,0,28.23,14.25,28.23,34.56,0,.85,0,1.7-.07,2.53s.07,1.63.07,2.47c0,19.87-10.51,34-31.54,34.41L666.58,657H652.9v22.5h15.7v-8.06C673.35,676.86,686.17,681.9,698.7,681.9Z"/>
  </g>
  <g class="outlineErrorShadow">
    <path d="M2092.5,500.08l-85,49.07a15,15,0,0,1-15,0l-85-49.07a15,15,0,0,0-15,0l-85,49.07a15,15,0,0,1-15,0l-85-49.07a15,15,0,0,0-15,0l-85,49.07a15,15,0,0,1-15,0l-85-49.07a15,15,0,0,0-15,0l-110,63.51a15,15,0,0,0-7.5,13v127a15,15,0,0,0,7.5,13l110,63.51a15,15,0,0,0,15,0l85-49.07a15,15,0,0,1,15,0l85,49.07a15,15,0,0,0,15,0l85-49.07a15,15,0,0,1,15,0l85,49.07a15,15,0,0,0,15,0l85-49.07a15,15,0,0,1,15,0l85,49.07a15,15,0,0,0,15,0l110-63.51a15,15,0,0,0,7.5-13v-127a15,15,0,0,0-7.5-13l-110-63.51A15,15,0,0,0,2092.5,500.08Z"/>
    <path d="M717.5,390.38l-85-49.07a15,15,0,0,1-7.5-13V230.17a15,15,0,0,0-7.5-13l-110-63.51a15,15,0,0,0-15,0l-110,63.51a15,15,0,0,0-7.5,13v127a15,15,0,0,0,7.5,13l85,49.07a15,15,0,0,1,7.5,13v98.15a15,15,0,0,0,7.5,13l85,49.07a15,15,0,0,1,7.5,13v98.14a15,15,0,0,0,7.5,13l110,63.5a15,15,0,0,0,15,0l110-63.5a15,15,0,0,0,7.5-13v-127a15,15,0,0,0-7.5-13l-85-49.08a15,15,0,0,1-7.5-13V403.37A15,15,0,0,0,717.5,390.38Z"/>
  </g>
  <g class="outlineError">
    <path d="M2092.5,495.08l-85,49.07a15,15,0,0,1-15,0l-85-49.07a15,15,0,0,0-15,0l-85,49.07a15,15,0,0,1-15,0l-85-49.07a15,15,0,0,0-15,0l-85,49.07a15,15,0,0,1-15,0l-85-49.07a15,15,0,0,0-15,0l-110,63.51a15,15,0,0,0-7.5,13v127a15,15,0,0,0,7.5,13l110,63.51a15,15,0,0,0,15,0l85-49.07a15,15,0,0,1,15,0l85,49.07a15,15,0,0,0,15,0l85-49.07a15,15,0,0,1,15,0l85,49.07a15,15,0,0,0,15,0l85-49.07a15,15,0,0,1,15,0l85,49.07a15,15,0,0,0,15,0l110-63.51a15,15,0,0,0,7.5-13v-127a15,15,0,0,0-7.5-13l-110-63.51A15,15,0,0,0,2092.5,495.08Z"/>
    <path d="M717.5,385.38l-85-49.07a15,15,0,0,1-7.5-13V225.17a15,15,0,0,0-7.5-13l-110-63.51a15,15,0,0,0-15,0l-110,63.51a15,15,0,0,0-7.5,13v127a15,15,0,0,0,7.5,13l85,49.07a15,15,0,0,1,7.5,13v98.15a15,15,0,0,0,7.5,13l85,49.07a15,15,0,0,1,7.5,13v98.14a15,15,0,0,0,7.5,13l110,63.5a15,15,0,0,0,15,0l110-63.5a15,15,0,0,0,7.5-13v-127a15,15,0,0,0-7.5-13l-85-49.08a15,15,0,0,1-7.5-13V398.37A15,15,0,0,0,717.5,385.38Z"/>
  </g>
  <g class="iconErrorShadow">
    <polygon points="1367.5 245.46 1348.21 226.18 1300 274.39 1251.79 226.18 1232.5 245.46 1280.71 293.68 1232.5 341.89 1251.79 361.18 1300 312.96 1348.21 361.18 1367.5 341.89 1319.29 293.68 1367.5 245.46"/>
    <polygon points="367.5 245.46 348.21 226.18 300 274.39 251.78 226.18 232.5 245.46 280.71 293.68 232.5 341.89 251.78 361.18 300 312.96 348.21 361.18 367.5 341.89 319.29 293.68 367.5 245.46"/>
  </g>
  <g class="iconError">
    <polygon points="1367.5 240.46 1348.21 221.18 1300 269.39 1251.79 221.18 1232.5 240.46 1280.71 288.68 1232.5 336.89 1251.79 356.18 1300 307.96 1348.21 356.18 1367.5 336.89 1319.29 288.68 1367.5 240.46"/>
    <polygon points="367.5 240.46 348.21 221.18 300 269.39 251.78 221.18 232.5 240.46 280.71 288.68 232.5 336.89 251.78 356.18 300 307.96 348.21 356.18 367.5 336.89 319.29 288.68 367.5 240.46"/>
  </g>
  <g class="textErrorShadow">
    <text transform="translate(345.78 880.76)">Breaks existing<tspan x="158.38" y="100.8">chord</tspan></text>
    <text transform="translate(1780.26 371.41)">Forms invalid<tspan x="123.9" y="100.8">chord</tspan></text>
  </g>
  <g class="textError">
    <text transform="translate(345.78 875.76)">Breaks existing<tspan x="158.38" y="100.8">chord</tspan></text>
    <text transform="translate(1780.26 366.41)">Forms invalid<tspan x="123.9" y="100.8">chord</tspan></text>
  </g>
  <path class="outlineInfoDashedShadow" d="M1912.5,748.34V855.15a15,15,0,0,0,7.5,13L1992.5,910a15,15,0,0,0,15,0l72.5-41.86a15,15,0,0,0,7.5-13V771.43a15,15,0,0,0-7.5-13L1987.5,705"/>
  <path class="outlineInfoDashed" d="M1912.5,743.34V850.15a15,15,0,0,0,7.5,13L1992.5,905a15,15,0,0,0,15,0l72.5-41.86a15,15,0,0,0,7.5-13V766.43a15,15,0,0,0-7.5-13L1987.5,700"/>
  <g class="outlineInfoShadow">
    <path d="M1847.59,569.31,1820,585.24a15,15,0,0,0-7.5,13v83.71a15,15,0,0,0,7.5,13l54.28,31.34"/>
    <path d="M1987.5,695V598.23a15,15,0,0,0-7.5-13l-72.5-41.86a15,15,0,0,0-13-1"/>
    <path d="M464.91,720.86l27.59,15.93a15,15,0,0,0,15,0l85-49.07a15,15,0,0,1,15,0l54.28,31.33"/>
    <path d="M491.34,544.05,420,585.24a15,15,0,0,0-7.5,13v83.71a15,15,0,0,0,5.63,11.71"/>
    <path d="M735.09,559.31,707.5,543.38a15,15,0,0,0-15,0l-85,49.07a15,15,0,0,1-15,0l-54.28-31.33"/>
    <path d="M708.66,736.12,780,694.93a15,15,0,0,0,7.5-13V598.23a15,15,0,0,0-5.63-11.71"/>
  </g>
  <g class="iconInfoShadow">
    <path d="M1903.84,743.34c-14.93-2.54-34.68-3.56-48.9-.78l19.34-16.29,4.44-24.89C1883.41,715.09,1894.17,731.68,1903.84,743.34Z"/>
    <path d="M1864.91,559.31c9.69-11.64,20.48-28.21,25.21-41.91l4.39,24.9,19.3,16.33C1899.6,555.82,1879.84,556.8,1864.91,559.31Z"/>
    <path d="M691.34,736.12c-14.93-2.54-34.68-3.56-48.9-.77l19.34-16.3,4.44-24.89C670.91,707.87,681.68,724.46,691.34,736.12Z"/>
    <path d="M447.59,710.86c-14.93-2.57-34.68-3.63-48.9-.87l19.37-16.26,4.49-24.88C427.22,682.57,438,699.18,447.59,710.86Z"/>
    <path d="M508.66,544.05c14.93,2.54,34.68,3.56,48.9.77l-19.34,16.3L533.78,586C529.09,572.3,518.33,555.71,508.66,544.05Z"/>
    <path d="M752.41,569.31c14.93,2.57,34.68,3.63,48.9.87l-19.37,16.26-4.49,24.88C772.78,597.6,762.05,581,752.41,569.31Z"/>
  </g>
  <g class="outlineInfo">
    <path d="M1847.59,564.31,1820,580.24a15,15,0,0,0-7.5,13v83.71a15,15,0,0,0,7.5,13l54.28,31.34"/>
    <path d="M1987.5,690V593.23a15,15,0,0,0-7.5-13l-72.5-41.86a15,15,0,0,0-13-1"/>
    <path d="M464.91,715.86l27.59,15.93a15,15,0,0,0,15,0l85-49.07a15,15,0,0,1,15,0l54.28,31.33"/>
    <path d="M491.34,539.05,420,580.24a15,15,0,0,0-7.5,13v83.71a15,15,0,0,0,5.63,11.71"/>
    <path d="M735.09,554.31,707.5,538.38a15,15,0,0,0-15,0l-85,49.07a15,15,0,0,1-15,0l-54.28-31.33"/>
    <path d="M708.66,731.12,780,689.93a15,15,0,0,0,7.5-13V593.23a15,15,0,0,0-5.63-11.71"/>
  </g>
  <g class="iconInfo">
    <path d="M1903.84,738.34c-14.93-2.54-34.68-3.56-48.9-.78l19.34-16.29,4.44-24.89C1883.41,710.09,1894.17,726.68,1903.84,738.34Z"/>
    <path d="M1864.91,554.31c9.69-11.64,20.48-28.21,25.21-41.91l4.39,24.9,19.3,16.33C1899.6,550.82,1879.84,551.8,1864.91,554.31Z"/>
    <path d="M691.34,731.12c-14.93-2.54-34.68-3.56-48.9-.77l19.34-16.3,4.44-24.89C670.91,702.87,681.68,719.46,691.34,731.12Z"/>
    <path d="M447.59,705.86c-14.93-2.57-34.68-3.63-48.9-.87l19.37-16.26,4.49-24.88C427.22,677.57,438,694.18,447.59,705.86Z"/>
    <path d="M508.66,539.05c14.93,2.54,34.68,3.56,48.9.77l-19.34,16.3L533.78,581C529.09,567.3,518.33,550.71,508.66,539.05Z"/>
    <path d="M752.41,564.31c14.93,2.57,34.68,3.63,48.9.87l-19.37,16.26-4.49,24.88C772.78,592.6,762.05,576,752.41,564.31Z"/>
  </g>
</svg>
