<svg viewBox="0 0 2600 1270.17">
  <rect class="background" width="2600" height="1270.17"/>
  <g class="g5_ascend">
    <g class="bottom">
      <path class="right" d="M900,245.94,600,419.15V526a15,15,0,0,0,7.5,13l85,49.07a15,15,0,0,0,15,0l85-49.07a15,15,0,0,0,7.5-13V419.15h0l92.5-53.41a15,15,0,0,0,7.5-13Z" transform="translate(0)"/>
      <path class="left" d="M600,511v15a15,15,0,0,0,7.5,13l85,49.07a15,15,0,0,0,7.5,2V575Z" transform="translate(0)"/>
    </g>
    <path class="edge" d="M792.5,177.54l-85,49.07a15,15,0,0,0-7.5,13V346.41l-92.5,53.41a15,15,0,0,0-7.5,13V511a15,15,0,0,0,7.5,13l85,49.07a15,15,0,0,0,15,0l85-49.07a15,15,0,0,0,7.5-13V404.15l92.5-53.41a15,15,0,0,0,7.5-13V239.6a15,15,0,0,0-7.5-13l-85-49.07A15,15,0,0,0,792.5,177.54Z" transform="translate(0)"/>
    <path class="face" d="M792.5,182.16l-81,46.76a15,15,0,0,0-7.5,13V348.72l-92.5,53.4a15,15,0,0,0-7.5,13v93.52a15,15,0,0,0,7.5,13l81,46.76a15,15,0,0,0,15,0l81-46.76a15,15,0,0,0,7.5-13V401.84l92.5-53.41a15,15,0,0,0,7.5-13V241.91a15,15,0,0,0-7.5-13l-81-46.76A15,15,0,0,0,792.5,182.16Z" transform="translate(0)"/>
    <g class="dotsBottom">
      <path d="M785.67,380.27l-7.81-4.51a1.57,1.57,0,0,0-2.35,1.35v9a1.57,1.57,0,0,0,2.35,1.35l7.81-4.51A1.56,1.56,0,0,0,785.67,380.27Z" transform="translate(0)"/>
      <path d="M733.7,350.27l-7.8-4.51a1.57,1.57,0,0,0-2.35,1.35v9a1.57,1.57,0,0,0,2.35,1.35l7.8-4.51A1.55,1.55,0,0,0,733.7,350.27Z" transform="translate(0)"/>
      <path d="M775.67,397.59l-7.81-4.51a1.57,1.57,0,0,0-2.35,1.35v9a1.57,1.57,0,0,0,2.35,1.35l7.81-4.51A1.56,1.56,0,0,0,775.67,397.59Z" transform="translate(0)"/>
      <path d="M754.68,373.93l-7.8-4.51a1.57,1.57,0,0,0-2.35,1.35v9a1.57,1.57,0,0,0,2.35,1.35l7.8-4.51A1.55,1.55,0,0,0,754.68,373.93Z" transform="translate(0)"/>
      <path d="M723.7,367.59l-7.8-4.51a1.57,1.57,0,0,0-2.35,1.35v9a1.57,1.57,0,0,0,2.35,1.35l7.8-4.51A1.55,1.55,0,0,0,723.7,367.59Z" transform="translate(0)"/>
    </g>
    <g class="dotsFace">
      <path d="M777.86,387.48l5.82-3.36-5.82-3.36a1.57,1.57,0,0,0-2.35,1.35v4A1.57,1.57,0,0,0,777.86,387.48Z" transform="translate(0)"/>
      <path d="M725.9,357.48l5.82-3.36-5.82-3.36a1.57,1.57,0,0,0-2.35,1.35v4A1.57,1.57,0,0,0,725.9,357.48Z" transform="translate(0)"/>
      <path d="M767.86,404.8l5.82-3.36-5.82-3.36a1.57,1.57,0,0,0-2.35,1.35v4A1.57,1.57,0,0,0,767.86,404.8Z" transform="translate(0)"/>
      <path d="M746.88,381.14l5.82-3.36-5.82-3.36a1.57,1.57,0,0,0-2.35,1.35v4A1.57,1.57,0,0,0,746.88,381.14Z" transform="translate(0)"/>
      <path d="M715.9,374.8l5.82-3.36-5.82-3.36a1.57,1.57,0,0,0-2.35,1.35v4A1.57,1.57,0,0,0,715.9,374.8Z" transform="translate(0)"/>
    </g>
    <path class="dBottom" d="M835.15,318.36c-16.41,28.44-42.44,36.36-65.63,23s-29.29-39.69-12.88-68.13l34.56-59.86,11.35,6.56-4.47,7.73,55.75,32.18,4.46-7.73,11.35,6.55Zm1-19.35-63.1-36.43-.64,1.12c-8.21,14.22-3,29.69,17.94,41.78s36.88,9,44.73-4.6Z" transform="translate(0)"/>
    <path class="dFace" d="M791.2,218.34,756.64,278.2c-5.72,9.92-8.7,19.57-9.18,28.51.78,14.52,8.48,26.78,22.06,34.62,23.19,13.39,49.22,5.47,65.63-23l32.32-56-9.18-5.3-4.46,7.73-55.75-32.18v-5l2.3-4Zm45,80.67v5l-1.07,1.87c-7.85,13.59-23.91,16.63-44.73,4.6-15.91-9.18-22.72-20.31-21.5-31.36a25,25,0,0,1,3.56-15.42l.64-1.12Z" transform="translate(0)"/>
    <path class="gBottom" d="M684.33,416.59l-7-4L685.2,399,709,412.72l-6.84,11.84-21.81,4.37c-10.14,18.42-3.18,34.58,14,44.52,17.59,10.15,35.77,7.18,44.05-7.16l-20.08-11.6-4.18,7.24-11.35-6.55L727.32,413l11.35,6.55-4,7,17,9.79c2.18,16.39-2.06,33.23-10.48,47.82-17.14,29.68-45,40.2-68.94,26.38-24.57-14.18-29-43.67-12-73.1C666.45,426.55,677.22,418,684.33,416.59Z" transform="translate(0)"/>
    <path class="gFace" d="M679.52,413.81l4.81,2.78v5c-7.11,1.38-17.88,10-24.15,20.81s-9.64,21.81-10.12,32c.73,15.11,8.17,28.1,22.12,36.15,23.94,13.82,51.8,3.3,68.94-26.38a79.75,79.75,0,0,0,11-36.85q-.12-3-.51-6l-17-9.79v-5l1.87-3.23-9.19-5.3L705,456.63l9.18,5.3,4.18-7.24,20.08,11.6v5c-8.28,14.34-26.46,17.31-44.05,7.16-12.61-7.29-19.71-17.92-18.61-30.34-.55-6,.85-12.41,4.58-19.18l21.81-4.37,4.67-8.09L685.2,404Z" transform="translate(0)"/>
  </g>
  <g class="ga3_horizon">
    <g class="bottom">
      <path class="left" d="M300,684.16v15a15,15,0,0,0,7.5,13l85,49.07a15,15,0,0,0,15,0L500,707.82l92.5,53.4a15,15,0,0,0,15,0l85-49.07a15,15,0,0,0,7.5-13v-15Z" transform="translate(0)"/>
      <g class="right">
        <path d="M500,692.82,400,748.23v15a15,15,0,0,0,7.51-2L500,707.82v-15" transform="translate(0)"/>
        <path d="M700,699.16a15,15,0,0,1-7.5,13l-85,49.07a15,15,0,0,1-7.5,2v-15l100-64.07Z" transform="translate(0)"/>
      </g>
    </g>
    <path class="edge" d="M592.5,523.94,500,577.35l-92.5-53.41a15,15,0,0,0-15,0l-85,49.08a15,15,0,0,0-7.5,13v98.15a15,15,0,0,0,7.5,13l85,49.07a15,15,0,0,0,15,0L500,692.82l92.5,53.4a15,15,0,0,0,15,0l85-49.07a15,15,0,0,0,7.5-13V586a15,15,0,0,0-7.5-13l-85-49.08A15,15,0,0,0,592.5,523.94Z" transform="translate(0)"/>
    <path class="face" d="M592.5,528.56,500,582l-92.5-53.41a15,15,0,0,0-15,0l-81,46.77a15,15,0,0,0-7.5,13v93.53a15,15,0,0,0,7.5,13l81,46.76a15,15,0,0,0,15,0L500,688.2l92.49,53.4a15,15,0,0,0,15,0l81-46.76a15,15,0,0,0,7.5-13V588.32a15,15,0,0,0-7.5-13l-81-46.77A15,15,0,0,0,592.5,528.56Z" transform="translate(0)"/>
    <g class="dotsBottom">
      <path d="M498.44,599.68v10.81a1.88,1.88,0,0,0,2.82,1.63l9.36-5.41a1.88,1.88,0,0,0,0-3.25l-9.36-5.41A1.88,1.88,0,0,0,498.44,599.68Z" transform="translate(0)"/>
      <path d="M493.44,629.68v10.81a1.88,1.88,0,0,0,2.82,1.63l9.36-5.41a1.88,1.88,0,0,0,0-3.25l-9.36-5.41A1.88,1.88,0,0,0,493.44,629.68Z" transform="translate(0)"/>
      <path d="M488.44,659.68v10.81a1.88,1.88,0,0,0,2.82,1.63l9.36-5.41a1.88,1.88,0,0,0,0-3.25l-9.36-5.41A1.88,1.88,0,0,0,488.44,659.68Z" transform="translate(0)"/>
    </g>
    <g class="dotsFace">
      <path d="M501.26,612.12l7.85-4.53-7.85-4.54a1.88,1.88,0,0,0-2.82,1.63v5.81A1.88,1.88,0,0,0,501.26,612.12Z" transform="translate(0)"/>
      <path d="M496.26,642.12l7.85-4.53-7.85-4.54a1.88,1.88,0,0,0-2.82,1.63v5.81A1.88,1.88,0,0,0,496.26,642.12Z" transform="translate(0)"/>
      <path d="M491.26,672.12l7.85-4.53-7.85-4.54a1.88,1.88,0,0,0-2.82,1.63v5.81A1.88,1.88,0,0,0,491.26,672.12Z" transform="translate(0)"/>
    </g>
    <g class="gaBottom">
      <path d="M380.89,592.83v-4h7.85v13.75H381.9l-7.34-8.35c-10.52.21-15.77,7.27-15.77,17.21,0,10.15,5.83,17.28,14.11,17.28v-11.6h-4.18v-6.55h24.49v6.55h-4v9.8c-6.55,5-14.9,7.41-23.33,7.41-17.13,0-28.65-9.43-28.65-23.25,0-14.19,11.66-23.48,28.65-23.48C372.11,587.57,378.52,590.09,380.89,592.83Z" transform="translate(0)"/>
      <path d="M389.89,680.27l-3.31,9.94h4.9v7.27H375.35v-7.27h5.11l13.61-38h21.17l14.33,38.74h5.18v6.55H402.49v-6.55H407l-3.38-10.66Zm7-20.73L392,674.08h9.58Z" transform="translate(0)"/>
      <path d="M397.08,594.51l4.65-1.51V575.39h3.13v16.52l10.58-3.42v-15.8h3.14v14.77l4.21-1.38v11.25l-4.21,1.4v15.93l4.21-1.27v11.14l-4.21,1.4v17.61h-3.14V626.9l-10.58,3.39v16.05h-3.13V631.43L397.08,633V621.7l4.65-1.51V604.12l-4.65,1.52Zm18.36,5.23-10.58,3.35v16.15l10.58-3.45Z" transform="translate(0)"/>
      <path d="M442.94,633.66v34.56a16.17,16.17,0,0,1,10.9-4.54,8.27,8.27,0,0,1,6.48,3.13,10.59,10.59,0,0,1,2.49,6.48,15.78,15.78,0,0,1-1.41,6.48A8.78,8.78,0,0,1,459,683l-2.92,2.7q-8,5.84-16,11.77V633.66Zm8.74,36.93a4.19,4.19,0,0,0-3.34-1.51q-2.59,0-4.22,2.92-1.19,2.26-1.18,10.69V692q.1.43,6-5.29a13.92,13.92,0,0,0,4.21-7.13,12.44,12.44,0,0,0,.44-3.23A8.23,8.23,0,0,0,451.68,670.59Z" transform="translate(0)"/>
    </g>
    <g class="gaFace">
      <path d="M368.72,617.09h4.18v16.6c-8.28,0-14.11-7.13-14.11-17.28,0-.87,0-1.71.13-2.53-.08-.81-.13-1.62-.13-2.47,0-9.94,5.25-17,15.77-17.21l7.34,8.35h6.84V593.8h-7.85v4c-2.37-2.74-8.78-5.26-15.05-5.26-16,0-27.22,8.2-28.53,20.95,1.3,12.47,12.44,20.78,28.53,20.78,8.43,0,16.78-2.37,23.33-7.41v-9.8h4v-1.55H368.72Z" transform="translate(0)"/>
      <path d="M415.24,657.19H394.07l-13.61,38h-5.11v2.27h16.13v-2.27h-4.9v-5l3.31-9.94h13.76L407,690.93v5h-4.54v1.55h32.26v-1.55h-5.18Zm-13.68,21.89H392v-5l4.9-14.54,4.68,14.54Z" transform="translate(0)"/>
      <path d="M418.58,587.46v-9.77h-3.14v15.8l-10.58,3.42V580.39h-3.13V598l-4.65,1.51v6.13l4.65-1.52v21.07l-4.65,1.51V633l4.65-1.52v14.91h3.13V630.29l10.58-3.39v16.64h3.14V625.93l4.21-1.4v-6.14l-4.21,1.27V598.73l4.21-1.4v-6.25l-4.21,1.38Zm-3.14,17.28v16l-10.58,3.45V603.09l10.58-3.35Z" transform="translate(0)"/>
      <path d="M459,683a8.78,8.78,0,0,0,2.37-3.24,21.28,21.28,0,0,0,1.13-3.56,10.83,10.83,0,0,0-2.21-4.4,8.27,8.27,0,0,0-6.48-3.13,15.73,15.73,0,0,0-4.12.62,4.21,4.21,0,0,1,2,1.29,8.23,8.23,0,0,1,1.95,5.73,12.44,12.44,0,0,1-.29,2.49,10.42,10.42,0,0,1,.29,2.51,12.44,12.44,0,0,1-.44,3.23,13.6,13.6,0,0,1-2.34,5c1.75-1.29,3.51-2.6,5.26-3.88Z" transform="translate(0)"/>
      <path d="M442.94,692v-9.28c0-5.26.35-8.7,1-10.36-.35.28-.7.57-1,.89V638.66h-2.81v58.82l2.81-2.06Z" transform="translate(0)"/>
    </g>
    <path class="bBottom" d="M583.08,642.07c-22.46-.43-35.57-10.51-35.57-25.92,0-17,11.81-27.07,34.28-27.07,13.53,0,19,0,32.83.72h37.87v13.1h-8.93v64.37h8.93v13.1H614.62c-15,0-17.57.72-27.36.72-17.28,0-27.51-7.05-27.51-20C559.75,649.85,568.25,642.36,583.08,642.07Zm18.14,1.44h-.72c-10.94,0-17.28,5.47-17.28,14.69,0,8.49,4.61,14,16.71,14h1.29Zm0-8.5V597.86H599.5c-12.39,0-19.15,6.48-19.15,18.29,0,12.1,6.91,18.86,20.44,18.86Z" transform="translate(0)"/>
    <path class="bFace" d="M581.78,594.08c-21.24,0-32.95,9-34.16,24.38,1.26,14.1,14.14,23.2,35.46,23.61v5c-13.74.27-22,6.72-23.18,16.6,1.3,11.31,11.27,17.42,27.36,17.42,9.79,0,12.38-.72,27.36-.72h37.87v-8.1h-8.93V602.9h8.93v-8.1H614.62C600.79,594.08,595.32,594.08,581.78,594.08Zm19.44,54.43v28.66h-1.29c-12.1,0-16.71-5.48-16.71-14a16.82,16.82,0,0,1,.18-2.4,19.78,19.78,0,0,1-.18-2.6c0-9.22,6.34-14.69,17.28-14.69h.72Zm0-45.65V640h-.43c-13.53,0-20.44-6.76-20.44-18.86,0-.86,0-1.68.11-2.48s-.11-1.65-.11-2.52c0-11.81,6.76-18.29,19.15-18.29h1.72Z" transform="translate(0)"/>
  </g>
  <g class="de3_horizon">
    <g class="bottom">
      <path class="left" d="M700,684.16v15a15,15,0,0,0,7.5,13l85,49.07a15,15,0,0,0,15,0l92.5-53.4,92.5,53.41a15,15,0,0,0,15,0l85-49.08a15,15,0,0,0,7.5-13v-15Z" transform="translate(0)"/>
      <g class="right">
        <path d="M900,692.82,800,748.23v15a15,15,0,0,0,7.5-2l92.5-53.4v-15" transform="translate(0)"/>
        <path d="M1100,699.16a15,15,0,0,1-7.5,13l-85,49.08a15,15,0,0,1-7.5,2v-15l100-64.08Z" transform="translate(0)"/>
      </g>
    </g>
    <path class="edge" d="M992.5,524,900,577.35,807.5,524a15,15,0,0,0-15,0L707.5,573a15,15,0,0,0-7.5,13v98.15a15,15,0,0,0,7.5,13l85,49.08a15,15,0,0,0,15,0L900,692.82l92.5,53.41a15,15,0,0,0,15,0l85-49.08a15,15,0,0,0,7.5-13V586a15,15,0,0,0-7.5-13l-85-49.07A15,15,0,0,0,992.5,524Z" transform="translate(0)"/>
    <path class="face" d="M992.5,528.57,900,582l-92.5-53.41a15,15,0,0,0-15,0l-81,46.77a15,15,0,0,0-7.5,13v93.53a15,15,0,0,0,7.5,13l81,46.77a15,15,0,0,0,15,0L900,688.2l92.5,53.41a15,15,0,0,0,15,0l81-46.77a15,15,0,0,0,7.5-13V588.32a15,15,0,0,0-7.5-13l-81-46.76A15,15,0,0,0,992.5,528.57Z" transform="translate(0)"/>
    <g class="dotsBottom">
      <path d="M898.44,599.68v10.81a1.88,1.88,0,0,0,2.82,1.63l9.36-5.41a1.88,1.88,0,0,0,0-3.25l-9.36-5.41A1.88,1.88,0,0,0,898.44,599.68Z" transform="translate(0)"/>
      <path d="M893.44,629.68v10.81a1.88,1.88,0,0,0,2.82,1.63l9.36-5.41a1.88,1.88,0,0,0,0-3.25l-9.36-5.41A1.88,1.88,0,0,0,893.44,629.68Z" transform="translate(0)"/>
      <path d="M888.44,659.68v10.81a1.88,1.88,0,0,0,2.82,1.63l9.36-5.41a1.88,1.88,0,0,0,0-3.25l-9.36-5.41A1.88,1.88,0,0,0,888.44,659.68Z" transform="translate(0)"/>
    </g>
    <g class="dotsFace">
      <path d="M901.26,612.12l7.85-4.53-7.85-4.54a1.88,1.88,0,0,0-2.82,1.63v5.81A1.88,1.88,0,0,0,901.26,612.12Z" transform="translate(0)"/>
      <path d="M896.26,642.12l7.85-4.53-7.85-4.54a1.88,1.88,0,0,0-2.82,1.63v5.81A1.88,1.88,0,0,0,896.26,642.12Z" transform="translate(0)"/>
      <path d="M891.26,672.12l7.85-4.53-7.85-4.54a1.88,1.88,0,0,0-2.82,1.63v5.81A1.88,1.88,0,0,0,891.26,672.12Z" transform="translate(0)"/>
    </g>
    <g class="deBottom">
      <path d="M775.69,588.36c16.42,0,26.36,9.29,26.36,22.69s-9.87,22.61-26.29,22.61H741.2V627.1h4.47V594.92H741.2v-6.56Zm-8.64,4.4v36.43h.65c8.21,0,13.61-6.12,13.61-18.22s-5.33-18.21-13.18-18.21Z" transform="translate(0)"/>
      <path d="M829.8,652.19v14.19h-5l-6.7-9H807.26v14.33h7v-5.12h4.82v15.63h-4.82v-5.33h-7V692.3H821c0-6.62,3.1-10.94,9.08-10.94h1.08v16.12H781.63v-6.55h4.46V658.74h-4.46v-6.55Z" transform="translate(0)"/>
      <path d="M806.07,594.51l4.64-1.51V575.39h3.13v16.52l10.59-3.42v-15.8h3.13v14.77l4.21-1.38v11.25l-4.21,1.4v15.93l4.21-1.27v11.14l-4.21,1.4v17.61h-3.13V626.9l-10.59,3.39v16.05h-3.13V631.43L806.07,633V621.7l4.64-1.51V604.12l-4.64,1.52Zm18.36,5.23-10.59,3.35v16.15l10.59-3.45Z" transform="translate(0)"/>
      <path d="M838.92,633.66v34.56a16.19,16.19,0,0,1,10.91-4.54,8.27,8.27,0,0,1,6.48,3.13,10.57,10.57,0,0,1,2.48,6.48,15.91,15.91,0,0,1-1.4,6.48A8.83,8.83,0,0,1,855,683l-2.92,2.7q-8,5.84-16,11.77V633.66Zm8.75,36.93a4.21,4.21,0,0,0-3.35-1.51q-2.6,0-4.21,2.92c-.8,1.51-1.19,5.07-1.19,10.69V692q.11.42,6.05-5.3a14,14,0,0,0,4.21-7.12,12.44,12.44,0,0,0,.43-3.24A8.27,8.27,0,0,0,847.67,670.59Z" transform="translate(0)"/>
    </g>
    <g class="deFace">
      <path d="M801.93,613.55c-1.17-12-10.86-20.19-26.24-20.19H772.1c5.62,1.82,9.21,7.75,9.21,17.61,0,.87,0,1.7-.09,2.5s.09,1.64.09,2.5c0,10.06-3.74,16-9.72,17.69h4.17C791.14,633.66,800.76,625.57,801.93,613.55Z" transform="translate(0)"/>
      <polygon points="767.05 629.19 767.05 597.76 767.05 593.36 741.2 593.36 741.2 594.92 745.67 594.92 745.67 599.92 745.67 627.1 745.67 632.1 741.2 632.1 741.2 633.66 767.05 633.66 767.05 629.19"/>
      <path d="M821,697.3H807.26V676.89h7v5.33h4.82V671.59h-4.82v5.12h-7V657.38h10.87l6.7,9h5v-9.19H781.63v1.55h4.46v37.19h-4.46v1.55h49.54V686.36h-1.08C824.11,686.36,821,690.68,821,697.3Z" transform="translate(0)"/>
      <path d="M827.56,587.46v-9.77h-3.13v15.8l-10.59,3.42V580.39h-3.13V598l-4.64,1.51v6.13l4.64-1.52v21.07l-4.64,1.51V633l4.64-1.52v14.91h3.13V630.29l10.59-3.39v16.64h3.13V625.93l4.21-1.4v-6.14l-4.21,1.27V598.73l4.21-1.4v-6.25l-4.21,1.38Zm-3.13,17.28v16l-10.59,3.45V603.09l10.59-3.35Z" transform="translate(0)"/>
      <path d="M855,683a8.83,8.83,0,0,0,2.38-3.24,20.3,20.3,0,0,0,1.12-3.56,10.94,10.94,0,0,0-2.2-4.4,8.27,8.27,0,0,0-6.48-3.13,15.75,15.75,0,0,0-4.13.63,4.1,4.1,0,0,1,2,1.28,8.27,8.27,0,0,1,1.94,5.73,12.42,12.42,0,0,1-.28,2.49,10.43,10.43,0,0,1,.28,2.51,12.44,12.44,0,0,1-.43,3.24,13.65,13.65,0,0,1-2.35,5c1.76-1.29,3.51-2.6,5.26-3.88Z" transform="translate(0)"/>
      <path d="M838.92,692v-9.29c0-5.26.35-8.69,1-10.36-.35.28-.7.57-1,.89V638.66h-2.81v58.82l2.81-2.06Z" transform="translate(0)"/>
    </g>
    <g class="fgBottom">
      <path d="M979.9,613.84v4h-7.85V604.12h6.84l7.35,8.35c10.51-.21,15.77-7.27,15.77-17.21,0-10.15-5.84-17.28-14.12-17.28v11.59h4.18v6.56H967.59v-6.56h4v-9.79c6.55-5,14.9-7.42,23.33-7.42,17.14,0,28.66,9.44,28.66,23.26,0,14.19-11.67,23.48-28.66,23.48C988.68,619.1,982.28,616.58,979.9,613.84Z" transform="translate(0)"/>
      <path d="M1011.61,682.13V668h5l6.7,9h10.87V661.18h-8.71V667h-4.83V650.38h4.83V656h8.71v-12.6h-4.53v-6.55h30.17v6.55h-4.47v32.19h4.47v6.55Z" transform="translate(0)"/>
      <path d="M1006.94,676l-4.64,1.52v17.61h-3.13V678.58L988.58,682v15.8h-3.13V683l-4.21,1.38V673.17l4.21-1.4V655.84l-4.21,1.27V646l4.21-1.4V627h3.13v16.63l10.59-3.38V624.15h3.13v14.92l4.64-1.53V648.8l-4.64,1.51v16.07l4.64-1.52Zm-18.36-5.22,10.59-3.35V651.26l-10.59,3.44Z" transform="translate(0)"/>
      <path d="M960.09,636.84V602.28a16.29,16.29,0,0,1-10.91,4.54,8.32,8.32,0,0,1-6.48-3.13,10.58,10.58,0,0,1-2.48-6.49,15.84,15.84,0,0,1,1.4-6.47,9.05,9.05,0,0,1,2.38-3.25l2.92-2.7q8-5.82,16-11.77v63.83Zm-8.75-36.94a4.23,4.23,0,0,0,3.35,1.52c1.73,0,3.13-1,4.21-2.92.8-1.51,1.19-5.08,1.19-10.69v-9.29q-.11-.43-6.05,5.29a14.07,14.07,0,0,0-4.21,7.13,12.88,12.88,0,0,0-.43,3.24A8.24,8.24,0,0,0,951.34,599.9Z" transform="translate(0)"/>
    </g>
    <g class="fgFace">
      <path d="M992.07,594.57h-4.18V578c8.28,0,14.12,7.13,14.12,17.28,0,.87-.06,1.71-.14,2.53a24.68,24.68,0,0,1,.14,2.47c0,9.94-5.26,17-15.77,17.21l-7.35-8.35h-6.84v8.75h7.85v-4c2.38,2.74,8.78,5.26,15.05,5.26,16,0,27.22-8.2,28.53-21-1.3-12.46-12.44-20.78-28.53-20.78-8.43,0-16.78,2.38-23.33,7.42v9.79h-4v1.56h24.48Z" transform="translate(0)"/>
      <polygon points="1029.62 643.39 1034.15 643.39 1034.15 648.39 1034.15 655.99 1034.15 660.99 1025.44 660.99 1025.44 655.99 1025.44 655.38 1020.61 655.38 1020.61 667.01 1025.44 667.01 1025.44 666.18 1025.44 661.18 1034.15 661.18 1034.15 666.18 1034.15 676.95 1034.15 681.95 1023.28 681.95 1016.58 672.95 1011.61 672.95 1011.61 682.13 1059.79 682.13 1059.79 680.58 1055.32 680.58 1055.32 675.58 1055.32 648.39 1055.32 643.39 1059.79 643.39 1059.79 641.84 1029.62 641.84 1029.62 643.39"/>
      <path d="M1002.3,639.07v-9.92h-3.13v16.06l-10.59,3.38V632h-3.13v17.61l-4.21,1.4v6.14l4.21-1.27v20.93l-4.21,1.4v6.25l4.21-1.38v14.77h3.13V682l10.59-3.43v16.53h3.13V677.5l4.64-1.52v-6.12l-4.64,1.52V650.31l4.64-1.51v-6.26l-4.64,1.53Zm-3.13,17.19v16.15l-10.59,3.35V654.7l10.59-3.44Z" transform="translate(0)"/>
      <g>
        <path d="M960.09,583.52v9.29c0,5.26-.35,8.69-1,10.35.35-.28.7-.57,1-.88v34.56h2.81V578l-2.81,2.07Z" transform="translate(0)"/>
        <path d="M944,592.48a9.11,9.11,0,0,0-2.38,3.24,20.39,20.39,0,0,0-1.12,3.57,10.84,10.84,0,0,0,2.2,4.39,8.3,8.3,0,0,0,6.48,3.14,15.75,15.75,0,0,0,4.13-.63,4.17,4.17,0,0,1-2-1.29,8.24,8.24,0,0,1-1.94-5.72v-5a12.88,12.88,0,0,1,.43-3.24,13.81,13.81,0,0,1,2.35-5c-1.76,1.29-3.51,2.6-5.26,3.87Z" transform="translate(0)"/>
      </g>
    </g>
  </g>
  <g class="f2_descend_new">
    <g class="bottom">
      <path class="left" d="M400,765.56V872.37a15,15,0,0,0,7.5,13l92.5,53.4v106.81a15,15,0,0,0,7.5,13l85,49.08a15,15,0,0,0,15,0l85-49.08a15,15,0,0,0,7.5-13V938.76Z" transform="translate(0)"/>
      <path class="right" d="M600,1109.65a15,15,0,0,0,7.5-2l85-49.08a15,15,0,0,0,7.5-13v-15l-100,64.08Z" transform="translate(0)"/>
    </g>
    <path class="edgeNew" d="M592.5,746.23l-85-49.08a15,15,0,0,0-15,0l-85,49.08a15,15,0,0,0-7.5,13v98.15a15,15,0,0,0,7.5,13l92.5,53.4v106.81a15,15,0,0,0,7.5,13l85,49.08a15,15,0,0,0,15,0l85-49.08a15,15,0,0,0,7.5-13V932.42a15,15,0,0,0-7.5-13L600,866V759.22A15,15,0,0,0,592.5,746.23Z" transform="translate(0)"/>
    <path class="faceNew" d="M588.5,748.54l-81-46.77a15,15,0,0,0-15,0l-81,46.77a15,15,0,0,0-7.5,13v93.53a15,15,0,0,0,7.5,13l92.5,53.4v106.81a15,15,0,0,0,7.5,13l81,46.76a15,15,0,0,0,15,0l81-46.76a15,15,0,0,0,7.5-13V934.73a15,15,0,0,0-7.5-13L596,868.34V761.53A15,15,0,0,0,588.5,748.54Z" transform="translate(0)"/>
    <g class="dotsBottom">
      <path d="M521.34,911.51,532.6,905a2.24,2.24,0,0,0,0-3.89l-11.26-6.5a2.25,2.25,0,0,0-3.37,1.94v13A2.24,2.24,0,0,0,521.34,911.51Z" transform="translate(0)"/>
      <path d="M569.64,895.17l11.26-6.5a2.24,2.24,0,0,0,0-3.89l-11.26-6.5a2.25,2.25,0,0,0-3.37,2v13A2.24,2.24,0,0,0,569.64,895.17Z" transform="translate(0)"/>
    </g>
    <g class="dotsFace">
      <path d="M521.34,911.51l10.3-5.94-10.3-6a2.25,2.25,0,0,0-3.37,1.94v8A2.24,2.24,0,0,0,521.34,911.51Z" transform="translate(0)"/>
      <path d="M569.64,895.17l10.3-5.94-10.3-6a2.25,2.25,0,0,0-3.37,2v8A2.24,2.24,0,0,0,569.64,895.17Z" transform="translate(0)"/>
    </g>
    <g class="deBottom">
      <path d="M571.69,1025.91c-8.21-14.22-5.13-27.47,6.47-34.17s24.51-2.76,32.72,11.46l17.28,29.93-5.67,3.28-2.24-3.87-27.87,16.09,2.23,3.87-5.67,3.28Zm8.13,5.28L611.37,1013l-.32-.56c-4.11-7.11-12.11-8.73-22.59-2.68s-13.11,13.72-9.18,20.52Z" transform="translate(0)"/>
      <path d="M599.91,947.13,612.2,940l2.48,4.3-4.44,10.3,5.43,9.42,12.41-7.16-3.49-6-4.43,2.55-2.41-4.18,13.53-7.81,2.41,4.18-4.61,2.66,3.49,6,13.35-7.7L639,934.69c-5.74,3.31-11,2.79-14-2.39l-.54-.93,14-8.07,24.77,42.91-5.67,3.27-2.23-3.86-27.88,16.09,2.24,3.87L624,988.85Z" transform="translate(0)"/>
      <path d="M561.83,996.53l-3.63-3.27-15.26,8.81-1.56-2.71,14.31-8.27-8.26-7.45-13.68,7.9-1.57-2.71L545,981.44l-3.3-3,9.75-5.62,3.31,2.95,13.8-8-3.2-3,9.64-5.57,3.32,3,15.25-8.81,1.56,2.72-14.4,8.31,8.23,7.47,13.9-8,1.56,2.71-12.91,7.46,3.64,3.26-9.74,5.62-3.63-3.26-13.92,8,3.64,3.26ZM557.17,978l8.2,7.48,14-8.07L571.08,970Z" transform="translate(0)"/>
      <path d="M579.3,948.51l24-13.83,6-3.45a16.29,16.29,0,0,1-9.38-7.18,8.28,8.28,0,0,1-.53-7.18,10.55,10.55,0,0,1,4.37-5.39,15.73,15.73,0,0,1,6.32-2,8.88,8.88,0,0,1,4,.44l3.8,1.18q9,4,18.18,7.95l-55.27,31.92Zm27.62-26a4.23,4.23,0,0,0,.36,3.66c.86,1.49,2.41,2.22,4.63,2.19q2.57-.1,9.85-4.32l8-4.64c.21-.21-2.32-1.07-7.61-2.6a14,14,0,0,0-8.28-.08,12.57,12.57,0,0,0-3,1.25A8.19,8.19,0,0,0,606.92,922.46Z" transform="translate(0)"/>
    </g>
    <g class="deFace">
      <path d="M578.16,996.74c-6.42,3.7-10.22,9.41-10.95,16.18a33.06,33.06,0,0,0,4.48,13l17.25,29.87,3.51-2-.07-.12v-5l27.87-16.09,2.24,3.87,3.51-2-15.12-26.18C602.67,994,589.76,990.05,578.16,996.74ZM611.37,1013v5l-31.55,18.21-.54-.93a11.57,11.57,0,0,1-1.42-8.56c-1.34-5.83,2-12,10.6-17,10.48-6,18.48-4.43,22.59,2.67Z" transform="translate(0)"/>
      <g>
        <path d="M612.2,945l-10.12,5.84,21.92,38,3.51-2-.07-.12v-5l27.88-16.09,2.23,3.86,3.51-2L638.45,928.3l-11.35,6.56c3.07,2.66,7.36,2.47,11.94-.17l6.88,11.91v5l-13.35,7.7-3.49-6v-5l2.45-1.41-.25-.43L619.92,953l.24.42,4.43-2.55,3.49,6v5l-12.41,7.16-5.43-9.42v-5l3.21-7.43Z" transform="translate(0)"/>
        <path d="M630.87,941.65l.59.07-.18-.31Z" transform="translate(0)"/>
      </g>
      <g>
        <polygon points="561.83 996.53 568.07 992.92 567.83 992.7 568.77 988.54 565.37 990.5 557.17 983.02 558.1 978.86 554.74 980.81 551.42 977.86 544.97 981.44 544.04 985.6 547.43 983.64 555.69 991.09 554.75 995.25 558.2 993.26 561.83 996.53"/>
        <polygon points="585.38 982.93 591.73 979.27 591.48 979.05 592.42 974.89 588.93 976.9 580.7 969.43 581.63 965.28 578.29 967.21 574.97 964.26 568.53 967.84 567.62 971.99 571.08 969.99 579.35 977.43 578.42 981.59 581.75 979.67 585.38 982.93"/>
      </g>
      <g>
        <path d="M607.94,932l-.55,3.56,3.88-2.24A4.87,4.87,0,0,1,607.94,932Z" transform="translate(0)"/>
        <path d="M614,914.89a8.88,8.88,0,0,0-4-.44,15.73,15.73,0,0,0-6.32,2,10.55,10.55,0,0,0-4.37,5.39c-.07.2-.12.4-.18.59a8.61,8.61,0,0,0,.71,1.59,15.7,15.7,0,0,0,7.06,6.26l.37-4.19a4.23,4.23,0,0,1-.36-3.66,8.19,8.19,0,0,1,4-4.54,12.57,12.57,0,0,1,3-1.25,13.6,13.6,0,0,1,3.93-.58l-.05,0Z" transform="translate(0)"/>
        <path d="M627.86,920.47l.26,3.09,2.94-1.69Z" transform="translate(0)"/>
      </g>
    </g>
    <path class="fBottom" d="M563.3,827.36l-24.56,14.18-5-8.6,8.89-20.6-10.87-18.83-27.31,15.77,8.71,15.09,10.1-5.83,4.83,8.35-28.81,16.63-4.82-8.35,9.72-5.62-8.71-15.09-21.82,12.6,4.53,7.86-11.35,6.55L436.7,789.22l11.35-6.55,4.46,7.73,55.74-32.18-4.46-7.73,11.35-6.56Z" transform="translate(0)"/>
    <polygon class="fFace" points="538.74 841.54 561.14 828.61 515.14 748.93 505.95 754.24 508.25 758.22 508.25 763.22 452.51 795.4 448.05 787.67 438.86 792.97 466.87 841.47 476.05 836.17 473.68 832.06 473.68 827.06 495.5 814.46 504.21 829.55 504.21 834.55 496.65 838.92 499.31 843.52 525.95 828.14 523.29 823.54 513.19 829.37 504.48 814.28 504.48 809.28 531.79 793.51 542.66 812.34 542.66 817.34 535 835.08 538.74 841.54"/>
  </g>
  <g class="g5_ascend">
    <g class="bottom">
      <path class="right" d="M2100,245.94,1800,419.15V526a15,15,0,0,0,7.5,13l85,49.07a15,15,0,0,0,15,0l85-49.07a15,15,0,0,0,7.5-13V419.15h0l92.5-53.41a15,15,0,0,0,7.5-13Z" transform="translate(0)"/>
      <path class="left" d="M1800,511v15a15,15,0,0,0,7.5,13l85,49.07a15,15,0,0,0,7.5,2V575Z" transform="translate(0)"/>
    </g>
    <path class="edge" d="M1992.5,177.54l-85,49.07a15,15,0,0,0-7.5,13V346.41l-92.5,53.41a15,15,0,0,0-7.5,13V511a15,15,0,0,0,7.5,13l85,49.07a15,15,0,0,0,15,0l85-49.07a15,15,0,0,0,7.5-13V404.15l92.5-53.41a15,15,0,0,0,7.5-13V239.6a15,15,0,0,0-7.5-13l-85-49.07A15,15,0,0,0,1992.5,177.54Z" transform="translate(0)"/>
    <path class="face" d="M1992.5,182.16l-81,46.76a15,15,0,0,0-7.5,13V348.72l-92.5,53.4a15,15,0,0,0-7.5,13v93.52a15,15,0,0,0,7.5,13l81,46.76a15,15,0,0,0,15,0l81-46.76a15,15,0,0,0,7.5-13V401.84l92.5-53.41a15,15,0,0,0,7.5-13V241.91a15,15,0,0,0-7.5-13l-81-46.76A15,15,0,0,0,1992.5,182.16Z" transform="translate(0)"/>
    <g class="dotsBottom">
      <path d="M1985.67,380.27l-7.81-4.51a1.57,1.57,0,0,0-2.35,1.35v9a1.57,1.57,0,0,0,2.35,1.35l7.81-4.51A1.56,1.56,0,0,0,1985.67,380.27Z" transform="translate(0)"/>
      <path d="M1933.7,350.27l-7.8-4.51a1.57,1.57,0,0,0-2.35,1.35v9a1.57,1.57,0,0,0,2.35,1.35l7.8-4.51A1.55,1.55,0,0,0,1933.7,350.27Z" transform="translate(0)"/>
      <path d="M1975.67,397.59l-7.81-4.51a1.57,1.57,0,0,0-2.35,1.35v9a1.57,1.57,0,0,0,2.35,1.35l7.81-4.51A1.56,1.56,0,0,0,1975.67,397.59Z" transform="translate(0)"/>
      <path d="M1954.68,373.93l-7.8-4.51a1.57,1.57,0,0,0-2.35,1.35v9a1.57,1.57,0,0,0,2.35,1.35l7.8-4.51A1.55,1.55,0,0,0,1954.68,373.93Z" transform="translate(0)"/>
      <path d="M1923.7,367.59l-7.8-4.51a1.57,1.57,0,0,0-2.35,1.35v9a1.57,1.57,0,0,0,2.35,1.35l7.8-4.51A1.55,1.55,0,0,0,1923.7,367.59Z" transform="translate(0)"/>
    </g>
    <g class="dotsFace">
      <path d="M1977.86,387.48l5.82-3.36-5.82-3.36a1.57,1.57,0,0,0-2.35,1.35v4A1.57,1.57,0,0,0,1977.86,387.48Z" transform="translate(0)"/>
      <path d="M1925.9,357.48l5.82-3.36-5.82-3.36a1.57,1.57,0,0,0-2.35,1.35v4A1.57,1.57,0,0,0,1925.9,357.48Z" transform="translate(0)"/>
      <path d="M1967.86,404.8l5.82-3.36-5.82-3.36a1.57,1.57,0,0,0-2.35,1.35v4A1.57,1.57,0,0,0,1967.86,404.8Z" transform="translate(0)"/>
      <path d="M1946.88,381.14l5.82-3.36-5.82-3.36a1.57,1.57,0,0,0-2.35,1.35v4A1.57,1.57,0,0,0,1946.88,381.14Z" transform="translate(0)"/>
      <path d="M1915.9,374.8l5.82-3.36-5.82-3.36a1.57,1.57,0,0,0-2.35,1.35v4A1.57,1.57,0,0,0,1915.9,374.8Z" transform="translate(0)"/>
    </g>
    <path class="dBottom" d="M2035.15,318.36c-16.41,28.44-42.44,36.36-65.63,23s-29.29-39.69-12.88-68.13l34.56-59.86,11.35,6.56-4.47,7.73,55.75,32.18,4.46-7.73,11.35,6.55Zm1-19.35-63.1-36.43-.64,1.12c-8.21,14.22-3,29.69,17.94,41.78s36.88,9,44.73-4.6Z" transform="translate(0)"/>
    <path class="dFace" d="M1991.2,218.34l-34.56,59.86c-5.72,9.92-8.7,19.57-9.18,28.51.78,14.52,8.48,26.78,22.06,34.62,23.19,13.39,49.22,5.47,65.63-23l32.32-56-9.18-5.3-4.46,7.73-55.75-32.18v-5l2.3-4Zm45,80.67v5l-1.07,1.87c-7.85,13.59-23.91,16.63-44.73,4.6-15.91-9.18-22.72-20.31-21.5-31.36a25,25,0,0,1,3.56-15.42l.64-1.12Z" transform="translate(0)"/>
    <path class="gBottom" d="M1884.33,416.59l-7-4,7.85-13.6L1909,412.72l-6.84,11.84-21.81,4.37c-10.14,18.42-3.18,34.58,14,44.52,17.59,10.15,35.77,7.18,44-7.16l-20.08-11.6-4.18,7.24-11.35-6.55,24.48-42.4,11.35,6.55-4,7,17,9.79c2.18,16.39-2.06,33.23-10.48,47.82-17.14,29.68-45,40.2-68.94,26.38-24.57-14.18-29-43.67-12-73.1C1866.45,426.55,1877.22,418,1884.33,416.59Z" transform="translate(0)"/>
    <path class="gFace" d="M1879.52,413.81l4.81,2.78v5c-7.11,1.38-17.88,10-24.15,20.81s-9.64,21.81-10.12,32c.73,15.11,8.17,28.1,22.12,36.15,23.94,13.82,51.8,3.3,68.94-26.38a79.75,79.75,0,0,0,11-36.85q-.12-3-.51-6l-17-9.79v-5l1.87-3.23-9.19-5.3L1905,456.63l9.18,5.3,4.18-7.24,20.08,11.6v5c-8.28,14.34-26.46,17.31-44,7.16-12.61-7.29-19.71-17.92-18.61-30.34-.55-6,.85-12.41,4.58-19.18l21.81-4.37,4.67-8.09L1885.2,404Z" transform="translate(0)"/>
  </g>
  <g class="ga3_horizon">
    <g class="bottom">
      <path class="left" d="M1500,684.16v15a15,15,0,0,0,7.5,13l85,49.07a15,15,0,0,0,15,0l92.49-53.4,92.5,53.4a15,15,0,0,0,15,0l85-49.07a15,15,0,0,0,7.5-13v-15Z" transform="translate(0)"/>
      <g class="right">
        <path d="M1700,692.82l-100,55.41v15a15,15,0,0,0,7.51-2l92.49-53.4v-15" transform="translate(0)"/>
        <path d="M1900,699.16a15,15,0,0,1-7.5,13l-85,49.07a15,15,0,0,1-7.5,2v-15l100-64.07Z" transform="translate(0)"/>
      </g>
    </g>
    <path class="edge" d="M1792.5,523.94,1700,577.35l-92.5-53.41a15,15,0,0,0-15,0l-85,49.08a15,15,0,0,0-7.5,13v98.15a15,15,0,0,0,7.5,13l85,49.07a15,15,0,0,0,15,0l92.49-53.4,92.5,53.4a15,15,0,0,0,15,0l85-49.07a15,15,0,0,0,7.5-13V586a15,15,0,0,0-7.5-13l-85-49.08A15,15,0,0,0,1792.5,523.94Z" transform="translate(0)"/>
    <path class="face" d="M1792.5,528.56,1700,582l-92.5-53.41a15,15,0,0,0-15,0l-81,46.77a15,15,0,0,0-7.5,13v93.53a15,15,0,0,0,7.5,13l81,46.76a15,15,0,0,0,15,0l92.5-53.4,92.49,53.4a15,15,0,0,0,15,0l81-46.76a15,15,0,0,0,7.5-13V588.32a15,15,0,0,0-7.5-13l-81-46.77A15,15,0,0,0,1792.5,528.56Z" transform="translate(0)"/>
    <g class="dotsBottom">
      <path d="M1698.44,599.68v10.81a1.88,1.88,0,0,0,2.82,1.63l9.36-5.41a1.88,1.88,0,0,0,0-3.25l-9.36-5.41A1.88,1.88,0,0,0,1698.44,599.68Z" transform="translate(0)"/>
      <path d="M1693.44,629.68v10.81a1.88,1.88,0,0,0,2.82,1.63l9.36-5.41a1.88,1.88,0,0,0,0-3.25l-9.36-5.41A1.88,1.88,0,0,0,1693.44,629.68Z" transform="translate(0)"/>
      <path d="M1688.44,659.68v10.81a1.88,1.88,0,0,0,2.82,1.63l9.36-5.41a1.88,1.88,0,0,0,0-3.25l-9.36-5.41A1.88,1.88,0,0,0,1688.44,659.68Z" transform="translate(0)"/>
    </g>
    <g class="dotsFace">
      <path d="M1701.26,612.12l7.85-4.53-7.85-4.54a1.88,1.88,0,0,0-2.82,1.63v5.81A1.88,1.88,0,0,0,1701.26,612.12Z" transform="translate(0)"/>
      <path d="M1696.26,642.12l7.85-4.53-7.85-4.54a1.88,1.88,0,0,0-2.82,1.63v5.81A1.88,1.88,0,0,0,1696.26,642.12Z" transform="translate(0)"/>
      <path d="M1691.26,672.12l7.85-4.53-7.85-4.54a1.88,1.88,0,0,0-2.82,1.63v5.81A1.88,1.88,0,0,0,1691.26,672.12Z" transform="translate(0)"/>
    </g>
    <g class="gaBottom">
      <path d="M1580.89,592.83v-4h7.85v13.75h-6.84l-7.34-8.35c-10.52.21-15.77,7.27-15.77,17.21,0,10.15,5.83,17.28,14.11,17.28v-11.6h-4.18v-6.55h24.49v6.55h-4v9.8c-6.55,5-14.9,7.41-23.33,7.41-17.13,0-28.65-9.43-28.65-23.25,0-14.19,11.66-23.48,28.65-23.48C1572.11,587.57,1578.52,590.09,1580.89,592.83Z" transform="translate(0)"/>
      <path d="M1589.89,680.27l-3.31,9.94h4.9v7.27h-16.13v-7.27h5.11l13.61-38h21.17l14.33,38.74h5.18v6.55h-32.26v-6.55H1607l-3.38-10.66Zm7-20.73-4.9,14.54h9.58Z" transform="translate(0)"/>
      <path d="M1597.08,594.51l4.65-1.51V575.39h3.13v16.52l10.58-3.42v-15.8h3.14v14.77l4.21-1.38v11.25l-4.21,1.4v15.93l4.21-1.27v11.14l-4.21,1.4v17.61h-3.14V626.9l-10.58,3.39v16.05h-3.13V631.43l-4.65,1.52V621.7l4.65-1.51V604.12l-4.65,1.52Zm18.36,5.23-10.58,3.35v16.15l10.58-3.45Z" transform="translate(0)"/>
      <path d="M1642.94,633.66v34.56a16.17,16.17,0,0,1,10.9-4.54,8.27,8.27,0,0,1,6.48,3.13,10.59,10.59,0,0,1,2.49,6.48,15.78,15.78,0,0,1-1.41,6.48A8.78,8.78,0,0,1,1659,683l-2.92,2.7q-8,5.84-16,11.77V633.66Zm8.74,36.93a4.19,4.19,0,0,0-3.34-1.51q-2.6,0-4.22,2.92-1.18,2.26-1.18,10.69V692q.11.43,6-5.29a13.92,13.92,0,0,0,4.21-7.13,12.44,12.44,0,0,0,.44-3.23A8.23,8.23,0,0,0,1651.68,670.59Z" transform="translate(0)"/>
    </g>
    <g class="gaFace">
      <path d="M1568.72,617.09h4.18v16.6c-8.28,0-14.11-7.13-14.11-17.28,0-.87,0-1.71.13-2.53-.08-.81-.13-1.62-.13-2.47,0-9.94,5.25-17,15.77-17.21l7.34,8.35h6.84V593.8h-7.85v4c-2.37-2.74-8.78-5.26-15.05-5.26-16,0-27.22,8.2-28.53,20.95,1.3,12.47,12.44,20.78,28.53,20.78,8.43,0,16.78-2.37,23.33-7.41v-9.8h4v-1.55h-24.49Z" transform="translate(0)"/>
      <path d="M1615.24,657.19h-21.17l-13.61,38h-5.11v2.27h16.13v-2.27h-4.9v-5l3.31-9.94h13.76l3.38,10.66v5h-4.54v1.55h32.26v-1.55h-5.18Zm-13.68,21.89H1592v-5l4.9-14.54,4.68,14.54Z" transform="translate(0)"/>
      <path d="M1618.58,587.46v-9.77h-3.14v15.8l-10.58,3.42V580.39h-3.13V598l-4.65,1.51v6.13l4.65-1.52v21.07l-4.65,1.51V633l4.65-1.52v14.91h3.13V630.29l10.58-3.39v16.64h3.14V625.93l4.21-1.4v-6.14l-4.21,1.27V598.73l4.21-1.4v-6.25l-4.21,1.38Zm-3.14,17.28v16l-10.58,3.45V603.09l10.58-3.35Z" transform="translate(0)"/>
      <path d="M1659,683a8.78,8.78,0,0,0,2.37-3.24,21.28,21.28,0,0,0,1.13-3.56,10.83,10.83,0,0,0-2.21-4.4,8.27,8.27,0,0,0-6.48-3.13,15.73,15.73,0,0,0-4.12.62,4.21,4.21,0,0,1,2,1.29,8.23,8.23,0,0,1,2,5.73,12.44,12.44,0,0,1-.29,2.49,10.42,10.42,0,0,1,.29,2.51,12.44,12.44,0,0,1-.44,3.23,13.6,13.6,0,0,1-2.34,5c1.75-1.29,3.51-2.6,5.26-3.88Z" transform="translate(0)"/>
      <path d="M1642.94,692v-9.28c0-5.26.35-8.7,1-10.36-.35.28-.7.57-1,.89V638.66h-2.81v58.82l2.81-2.06Z" transform="translate(0)"/>
    </g>
    <path class="bBottom" d="M1783.08,642.07c-22.46-.43-35.57-10.51-35.57-25.92,0-17,11.81-27.07,34.28-27.07,13.53,0,19,0,32.83.72h37.87v13.1h-8.93v64.37h8.93v13.1h-37.87c-15,0-17.57.72-27.36.72-17.28,0-27.51-7.05-27.51-20C1759.75,649.85,1768.25,642.36,1783.08,642.07Zm18.14,1.44h-.72c-10.94,0-17.28,5.47-17.28,14.69,0,8.49,4.61,14,16.71,14h1.29Zm0-8.5V597.86h-1.72c-12.39,0-19.15,6.48-19.15,18.29,0,12.1,6.91,18.86,20.44,18.86Z" transform="translate(0)"/>
    <path class="bFace" d="M1781.78,594.08c-21.24,0-33,9-34.16,24.38,1.26,14.1,14.14,23.2,35.46,23.61v5c-13.74.27-22,6.72-23.18,16.6,1.3,11.31,11.27,17.42,27.36,17.42,9.79,0,12.38-.72,27.36-.72h37.87v-8.1h-8.93V602.9h8.93v-8.1h-37.87C1800.79,594.08,1795.32,594.08,1781.78,594.08Zm19.44,54.43v28.66h-1.29c-12.1,0-16.71-5.48-16.71-14a16.82,16.82,0,0,1,.18-2.4,19.78,19.78,0,0,1-.18-2.6c0-9.22,6.34-14.69,17.28-14.69h.72Zm0-45.65V640h-.43c-13.53,0-20.44-6.76-20.44-18.86,0-.86,0-1.68.11-2.48s-.11-1.65-.11-2.52c0-11.81,6.76-18.29,19.15-18.29h1.72Z" transform="translate(0)"/>
  </g>
  <g class="de3_horizon">
    <g class="bottom">
      <path class="left" d="M1900,684.16v15a15,15,0,0,0,7.5,13l85,49.07a15,15,0,0,0,15,0l92.5-53.4,92.5,53.41a15,15,0,0,0,15,0l85-49.08a15,15,0,0,0,7.5-13v-15Z" transform="translate(0)"/>
      <g class="right">
        <path d="M2100,692.82l-100,55.41v15a15,15,0,0,0,7.5-2l92.5-53.4v-15" transform="translate(0)"/>
        <path d="M2300,699.16a15,15,0,0,1-7.5,13l-85,49.08a15,15,0,0,1-7.5,2v-15l100-64.08Z" transform="translate(0)"/>
      </g>
    </g>
    <path class="edge" d="M2192.5,524l-92.5,53.4L2007.5,524a15,15,0,0,0-15,0l-85,49.07a15,15,0,0,0-7.5,13v98.15a15,15,0,0,0,7.5,13l85,49.08a15,15,0,0,0,15,0l92.5-53.41,92.5,53.41a15,15,0,0,0,15,0l85-49.08a15,15,0,0,0,7.5-13V586a15,15,0,0,0-7.5-13l-85-49.07A15,15,0,0,0,2192.5,524Z" transform="translate(0)"/>
    <path class="face" d="M2192.5,528.57,2100,582l-92.5-53.41a15,15,0,0,0-15,0l-81,46.77a15,15,0,0,0-7.5,13v93.53a15,15,0,0,0,7.5,13l81,46.77a15,15,0,0,0,15,0L2100,688.2l92.5,53.41a15,15,0,0,0,15,0l81-46.77a15,15,0,0,0,7.5-13V588.32a15,15,0,0,0-7.5-13l-81-46.76A15,15,0,0,0,2192.5,528.57Z" transform="translate(0)"/>
    <g class="dotsBottom">
      <path d="M2098.44,599.68v10.81a1.88,1.88,0,0,0,2.82,1.63l9.36-5.41a1.88,1.88,0,0,0,0-3.25l-9.36-5.41A1.88,1.88,0,0,0,2098.44,599.68Z" transform="translate(0)"/>
      <path d="M2093.44,629.68v10.81a1.88,1.88,0,0,0,2.82,1.63l9.36-5.41a1.88,1.88,0,0,0,0-3.25l-9.36-5.41A1.88,1.88,0,0,0,2093.44,629.68Z" transform="translate(0)"/>
      <path d="M2088.44,659.68v10.81a1.88,1.88,0,0,0,2.82,1.63l9.36-5.41a1.88,1.88,0,0,0,0-3.25l-9.36-5.41A1.88,1.88,0,0,0,2088.44,659.68Z" transform="translate(0)"/>
    </g>
    <g class="dotsFace">
      <path d="M2101.26,612.12l7.85-4.53-7.85-4.54a1.88,1.88,0,0,0-2.82,1.63v5.81A1.88,1.88,0,0,0,2101.26,612.12Z" transform="translate(0)"/>
      <path d="M2096.26,642.12l7.85-4.53-7.85-4.54a1.88,1.88,0,0,0-2.82,1.63v5.81A1.88,1.88,0,0,0,2096.26,642.12Z" transform="translate(0)"/>
      <path d="M2091.26,672.12l7.85-4.53-7.85-4.54a1.88,1.88,0,0,0-2.82,1.63v5.81A1.88,1.88,0,0,0,2091.26,672.12Z" transform="translate(0)"/>
    </g>
    <g class="deBottom">
      <path d="M1975.69,588.36c16.42,0,26.36,9.29,26.36,22.69s-9.87,22.61-26.29,22.61H1941.2V627.1h4.47V594.92h-4.47v-6.56Zm-8.64,4.4v36.43h.65c8.21,0,13.61-6.12,13.61-18.22s-5.33-18.21-13.18-18.21Z" transform="translate(0)"/>
      <path d="M2029.8,652.19v14.19h-5l-6.7-9h-10.87v14.33h7v-5.12h4.82v15.63h-4.82v-5.33h-7V692.3H2021c0-6.62,3.1-10.94,9.08-10.94h1.08v16.12h-49.54v-6.55h4.46V658.74h-4.46v-6.55Z" transform="translate(0)"/>
      <path d="M2006.07,594.51l4.64-1.51V575.39h3.13v16.52l10.59-3.42v-15.8h3.13v14.77l4.21-1.38v11.25l-4.21,1.4v15.93l4.21-1.27v11.14l-4.21,1.4v17.61h-3.13V626.9l-10.59,3.39v16.05h-3.13V631.43l-4.64,1.52V621.7l4.64-1.51V604.12l-4.64,1.52Zm18.36,5.23-10.59,3.35v16.15l10.59-3.45Z" transform="translate(0)"/>
      <path d="M2038.92,633.66v34.56a16.19,16.19,0,0,1,10.91-4.54,8.27,8.27,0,0,1,6.48,3.13,10.57,10.57,0,0,1,2.48,6.48,15.91,15.91,0,0,1-1.4,6.48A8.83,8.83,0,0,1,2055,683l-2.92,2.7q-8,5.84-16,11.77V633.66Zm8.75,36.93a4.21,4.21,0,0,0-3.35-1.51q-2.6,0-4.21,2.92c-.8,1.51-1.19,5.07-1.19,10.69V692q.11.42,6-5.3a14,14,0,0,0,4.21-7.12,12.44,12.44,0,0,0,.43-3.24A8.27,8.27,0,0,0,2047.67,670.59Z" transform="translate(0)"/>
    </g>
    <g class="deFace">
      <path d="M2001.93,613.55c-1.17-12-10.86-20.19-26.24-20.19h-3.59c5.62,1.82,9.21,7.75,9.21,17.61,0,.87,0,1.7-.09,2.5s.09,1.64.09,2.5c0,10.06-3.74,16-9.72,17.69h4.17C1991.14,633.66,2000.76,625.57,2001.93,613.55Z" transform="translate(0)"/>
      <polygon points="1967.05 629.19 1967.05 597.76 1967.05 593.36 1941.2 593.36 1941.2 594.92 1945.67 594.92 1945.67 599.92 1945.67 627.1 1945.67 632.1 1941.2 632.1 1941.2 633.66 1967.05 633.66 1967.05 629.19"/>
      <path d="M2021,697.3h-13.75V676.89h7v5.33h4.82V671.59h-4.82v5.12h-7V657.38h10.87l6.7,9h5v-9.19h-48.17v1.55h4.46v37.19h-4.46v1.55h49.54V686.36h-1.08C2024.11,686.36,2021,690.68,2021,697.3Z" transform="translate(0)"/>
      <path d="M2027.56,587.46v-9.77h-3.13v15.8l-10.59,3.42V580.39h-3.13V598l-4.64,1.51v6.13l4.64-1.52v21.07l-4.64,1.51V633l4.64-1.52v14.91h3.13V630.29l10.59-3.39v16.64h3.13V625.93l4.21-1.4v-6.14l-4.21,1.27V598.73l4.21-1.4v-6.25l-4.21,1.38Zm-3.13,17.28v16l-10.59,3.45V603.09l10.59-3.35Z" transform="translate(0)"/>
      <path d="M2055,683a8.83,8.83,0,0,0,2.38-3.24,20.3,20.3,0,0,0,1.12-3.56,10.94,10.94,0,0,0-2.2-4.4,8.27,8.27,0,0,0-6.48-3.13,15.75,15.75,0,0,0-4.13.63,4.1,4.1,0,0,1,2,1.28,8.27,8.27,0,0,1,1.94,5.73,12.42,12.42,0,0,1-.28,2.49,10.43,10.43,0,0,1,.28,2.51,12.44,12.44,0,0,1-.43,3.24,13.65,13.65,0,0,1-2.35,5c1.76-1.29,3.51-2.6,5.26-3.88Z" transform="translate(0)"/>
      <path d="M2038.92,692v-9.29c0-5.26.35-8.69,1-10.36-.35.28-.7.57-1,.89V638.66h-2.81v58.82l2.81-2.06Z" transform="translate(0)"/>
    </g>
    <g class="fgBottom">
      <path d="M2179.9,613.84v4h-7.85V604.12h6.84l7.35,8.35c10.51-.21,15.77-7.27,15.77-17.21,0-10.15-5.84-17.28-14.12-17.28v11.59h4.18v6.56h-24.48v-6.56h4v-9.79c6.55-5,14.9-7.42,23.33-7.42,17.14,0,28.66,9.44,28.66,23.26,0,14.19-11.67,23.48-28.66,23.48C2188.68,619.1,2182.28,616.58,2179.9,613.84Z" transform="translate(0)"/>
      <path d="M2211.61,682.13V668h5l6.7,9h10.87V661.18h-8.71V667h-4.83V650.38h4.83V656h8.71v-12.6h-4.53v-6.55h30.17v6.55h-4.47v32.19h4.47v6.55Z" transform="translate(0)"/>
      <path d="M2206.94,676l-4.64,1.52v17.61h-3.13V678.58L2188.58,682v15.8h-3.13V683l-4.21,1.38V673.17l4.21-1.4V655.84l-4.21,1.27V646l4.21-1.4V627h3.13v16.63l10.59-3.38V624.15h3.13v14.92l4.64-1.53V648.8l-4.64,1.51v16.07l4.64-1.52Zm-18.36-5.22,10.59-3.35V651.26l-10.59,3.44Z" transform="translate(0)"/>
      <path d="M2160.09,636.84V602.28a16.29,16.29,0,0,1-10.91,4.54,8.32,8.32,0,0,1-6.48-3.13,10.58,10.58,0,0,1-2.48-6.49,15.84,15.84,0,0,1,1.4-6.47,9.05,9.05,0,0,1,2.38-3.25l2.92-2.7q8-5.82,16-11.77v63.83Zm-8.75-36.94a4.23,4.23,0,0,0,3.35,1.52c1.73,0,3.13-1,4.21-2.92.8-1.51,1.19-5.08,1.19-10.69v-9.29q-.11-.43-6.05,5.29a14.07,14.07,0,0,0-4.21,7.13,12.88,12.88,0,0,0-.43,3.24A8.24,8.24,0,0,0,2151.34,599.9Z" transform="translate(0)"/>
    </g>
    <g class="fgFace">
      <path d="M2192.07,594.57h-4.18V578c8.28,0,14.12,7.13,14.12,17.28,0,.87-.06,1.71-.14,2.53a24.68,24.68,0,0,1,.14,2.47c0,9.94-5.26,17-15.77,17.21l-7.35-8.35h-6.84v8.75h7.85v-4c2.38,2.74,8.78,5.26,15,5.26,16,0,27.22-8.2,28.53-21-1.3-12.46-12.44-20.78-28.53-20.78-8.43,0-16.78,2.38-23.33,7.42v9.79h-4v1.56h24.48Z" transform="translate(0)"/>
      <polygon points="2229.61 643.39 2234.15 643.39 2234.15 648.39 2234.15 655.99 2234.15 660.99 2225.44 660.99 2225.44 655.99 2225.44 655.38 2220.61 655.38 2220.61 667.01 2225.44 667.01 2225.44 666.18 2225.44 661.18 2234.15 661.18 2234.15 666.18 2234.15 676.95 2234.15 681.95 2223.28 681.95 2216.58 672.95 2211.61 672.95 2211.61 682.13 2259.79 682.13 2259.79 680.58 2255.32 680.58 2255.32 675.58 2255.32 648.39 2255.32 643.39 2259.79 643.39 2259.79 641.84 2229.61 641.84 2229.61 643.39"/>
      <path d="M2202.3,639.07v-9.92h-3.13v16.06l-10.59,3.38V632h-3.13v17.61l-4.21,1.4v6.14l4.21-1.27v20.93l-4.21,1.4v6.25l4.21-1.38v14.77h3.13V682l10.59-3.43v16.53h3.13V677.5l4.64-1.52v-6.12l-4.64,1.52V650.31l4.64-1.51v-6.26l-4.64,1.53Zm-3.13,17.19v16.15l-10.59,3.35V654.7l10.59-3.44Z" transform="translate(0)"/>
      <g>
        <path d="M2160.09,583.52v9.29c0,5.26-.35,8.69-1,10.35.35-.28.7-.57,1-.88v34.56h2.81V578l-2.81,2.07Z" transform="translate(0)"/>
        <path d="M2144,592.48a9.11,9.11,0,0,0-2.38,3.24,20.39,20.39,0,0,0-1.12,3.57,10.84,10.84,0,0,0,2.2,4.39,8.3,8.3,0,0,0,6.48,3.14,15.75,15.75,0,0,0,4.13-.63,4.17,4.17,0,0,1-2-1.29,8.24,8.24,0,0,1-1.94-5.72v-5a12.88,12.88,0,0,1,.43-3.24,13.81,13.81,0,0,1,2.35-5c-1.76,1.29-3.51,2.6-5.26,3.87Z" transform="translate(0)"/>
      </g>
    </g>
  </g>
  <g class="f2_descend_new">
    <g class="bottom">
      <path class="left" d="M1600,857.37v15a15,15,0,0,0,7.5,13l85,49.07a15,15,0,0,0,15,0L1800,881l92.5,53.4a15,15,0,0,0,15,0l85-49.07a15,15,0,0,0,7.5-13v-15Z" transform="translate(0)"/>
      <g class="right">
        <path d="M1800,866l-100,55.41v15a15,15,0,0,0,7.5-2L1800,881V866" transform="translate(0)"/>
        <path d="M2000,872.37a15,15,0,0,1-7.5,13l-85,49.07a15,15,0,0,1-7.5,2v-15l100-64.07Z" transform="translate(0)"/>
      </g>
    </g>
    <path class="edgeNew" d="M1892.5,697.15,1800,750.56l-92.5-53.41a15,15,0,0,0-15,0l-85,49.08a15,15,0,0,0-7.5,13v98.15a15,15,0,0,0,7.5,13l85,49.07a15,15,0,0,0,15,0L1800,866l92.5,53.4a15,15,0,0,0,15,0l85-49.07a15,15,0,0,0,7.5-13V759.22a15,15,0,0,0-7.5-13l-85-49.08A15,15,0,0,0,1892.5,697.15Z" transform="translate(0)"/>
    <path class="faceNew" d="M1892.5,701.77l-92.5,53.4-92.5-53.4a15,15,0,0,0-15,0l-81,46.76a15,15,0,0,0-7.5,13v93.52a15,15,0,0,0,7.5,13l81,46.76a15,15,0,0,0,15,0l92.5-53.4,92.5,53.4a15,15,0,0,0,15,0l81-46.76a15,15,0,0,0,7.5-13V761.53a15,15,0,0,0-7.5-13l-81-46.77A15,15,0,0,0,1892.5,701.77Z" transform="translate(0)"/>
    <g class="dotsBottom">
      <path d="M1802.88,839.79v-13a2.24,2.24,0,0,0-3.37-1.94l-11.26,6.5a2.24,2.24,0,0,0,0,3.89l11.26,6.5A2.25,2.25,0,0,0,1802.88,839.79Z" transform="translate(0)"/>
      <path d="M1812.88,789.79v-13a2.24,2.24,0,0,0-3.37-1.94l-11.26,6.5a2.24,2.24,0,0,0,0,3.89l11.26,6.5A2.25,2.25,0,0,0,1812.88,789.79Z" transform="translate(0)"/>
    </g>
    <g class="dotsFace">
      <path d="M1799.51,829.84l-10.3,5.95,10.3,6a2.25,2.25,0,0,0,3.37-2v-8A2.25,2.25,0,0,0,1799.51,829.84Z" transform="translate(0)"/>
      <path d="M1809.51,779.85l-10.3,5.94,10.3,6a2.25,2.25,0,0,0,3.37-2v-8A2.24,2.24,0,0,0,1809.51,779.85Z" transform="translate(0)"/>
    </g>
    <path class="fBottom" d="M1748.17,763v28.37h-9.94l-13.39-18H1703.1v31.54h17.42V793.24h9.65v33.27h-9.65V815.27H1703.1v25.2h9.07v13.11h-60.34V840.47h8.93V776.11h-8.93V763Z" transform="translate(0)"/>
    <polygon class="fFace" points="1651.83 776.11 1660.76 776.11 1660.76 781.11 1660.76 840.47 1660.76 845.47 1651.83 845.47 1651.83 853.58 1712.17 853.58 1712.17 845.47 1703.1 845.47 1703.1 840.47 1703.1 820.27 1703.1 815.27 1720.52 815.27 1720.52 820.27 1720.52 826.51 1730.17 826.51 1730.17 798.24 1720.52 798.24 1720.52 804.91 1720.52 809.91 1703.1 809.91 1703.1 804.91 1703.1 778.37 1703.1 773.37 1724.84 773.37 1738.23 791.37 1748.17 791.37 1748.17 768 1651.83 768 1651.83 776.11"/>
    <g class="deBottom">
      <path d="M1924.31,855c-16.42,0-26.36-9.29-26.36-22.68s9.87-22.61,26.29-22.61h34.56v6.55h-4.46v32.19h4.46V855Zm8.64-4.39V814.19h-.65c-8.21,0-13.61,6.12-13.61,18.21s5.33,18.22,13.18,18.22Z" transform="translate(0)"/>
      <path d="M1870.2,791.19V777h5l6.7,9h10.87V771.67h-7v5.11h-4.82V761.16h4.82v5.33h7V751.08H1879c0,6.62-3.1,10.94-9.08,10.94h-1.08V745.89h49.54v6.56h-4.46v32.18h4.46v6.56Z" transform="translate(0)"/>
      <path d="M1893.93,848.87l-4.64,1.51V868h-3.13V851.47l-10.59,3.42v15.8h-3.13V855.92l-4.21,1.38V846.05l4.21-1.4V828.72l-4.21,1.27V818.85l4.21-1.4V799.84h3.13v16.63l10.59-3.38V797h3.13V812l4.64-1.52v11.25l-4.64,1.51v16.07l4.64-1.52Zm-18.36-5.23,10.59-3.35V824.14l-10.59,3.44Z" transform="translate(0)"/>
      <path d="M1861.08,809.72V775.16a16.24,16.24,0,0,1-10.91,4.54,8.3,8.3,0,0,1-6.48-3.13,10.57,10.57,0,0,1-2.48-6.48,15.85,15.85,0,0,1,1.4-6.48,8.94,8.94,0,0,1,2.38-3.24l2.92-2.7q8-5.83,16-11.78v63.83Zm-8.75-36.93a4.25,4.25,0,0,0,3.35,1.51q2.6,0,4.21-2.92c.8-1.51,1.19-5.07,1.19-10.69V751.4q-.11-.42-6,5.29a14.07,14.07,0,0,0-4.21,7.13,12.88,12.88,0,0,0-.43,3.24A8.28,8.28,0,0,0,1852.33,772.79Z" transform="translate(0)"/>
    </g>
    <g class="deFace">
      <g>
        <path d="M1898.07,834.83c1.17,12,10.86,20.18,26.24,20.18h3.59c-5.62-1.81-9.21-7.75-9.21-17.61v-5c0-10.06,3.74-16,9.72-17.68h-4.17C1908.86,814.72,1899.24,822.8,1898.07,834.83Z" transform="translate(0)"/>
        <polygon points="1932.95 819.19 1932.95 850.62 1932.95 855.01 1958.8 855.01 1958.8 853.46 1954.34 853.46 1954.34 848.46 1954.34 821.27 1954.34 816.27 1958.8 816.27 1958.8 814.72 1932.95 814.72 1932.95 819.19"/>
      </g>
      <path d="M1868.83,762h1.08c6,0,9.08-4.32,9.08-10.94h13.75v20.41h-7v-5.33h-4.82v10.62h4.82v-5.11h7V791h-10.87l-6.7-9h-5v9.19h48.17v-1.56h-4.46V752.45h4.46v-1.56h-49.54Z" transform="translate(0)"/>
      <path d="M1889.29,812V802h-3.13v16.06l-10.59,3.38V804.84h-3.13v17.61l-4.21,1.4V830l4.21-1.27v20.93l-4.21,1.4v6.25l4.21-1.38v14.77h3.13v-15.8l10.59-3.42V868h3.13V850.38l4.64-1.51v-6.13l-4.64,1.52V823.19l4.64-1.51v-6.25l-4.64,1.52Zm-3.13,17.19v16.15l-10.59,3.35V827.58l10.59-3.44Z" transform="translate(0)"/>
      <g>
        <path d="M1845,765.37a8.94,8.94,0,0,0-2.38,3.24,20,20,0,0,0-1.12,3.56,10.94,10.94,0,0,0,2.2,4.4,8.3,8.3,0,0,0,6.48,3.13,15.75,15.75,0,0,0,4.13-.63,4.1,4.1,0,0,1-2-1.28,8.27,8.27,0,0,1-1.94-5.73v-5a12.88,12.88,0,0,1,.43-3.24,13.81,13.81,0,0,1,2.35-5c-1.76,1.29-3.51,2.6-5.26,3.88Z" transform="translate(0)"/>
        <path d="M1861.08,756.4v9.29c0,5.26-.35,8.69-1,10.35.35-.28.7-.57,1-.88v34.56h2.81V750.89l-2.81,2.07Z" transform="translate(0)"/>
      </g>
    </g>
  </g>
  <g class="errorShadowLine">
    <g class="wide">
      <line x1="2057.25" y1="542.66" x2="1844.75" y2="910.72"/>
      <line x1="344.75" y1="542.66" x2="657.25" y2="1083.92"/>
    </g>
  </g>
  <g class="errorLine">
    <g class="wide">
      <line x1="2056.25" y1="537.66" x2="1843.75" y2="905.72"/>
      <line x1="343.75" y1="537.66" x2="656.25" y2="1078.92"/>
    </g>
  </g>
  <g class="errorShadow">
    <g class="text">
      <text transform="translate(655.85 868.44)">not a valid<tspan x="78.41" y="100.8">chord</tspan></text>
      <text transform="translate(2037.76 868.83)">duplicate<tspan x="68.25" y="100.8">faces</tspan></text>
    </g>
    <polygon points="468.5 245.46 449.21 226.18 401 274.39 352.79 226.18 333.5 245.46 381.71 293.68 333.5 341.89 352.79 361.18 401 312.96 449.21 361.18 468.5 341.89 420.29 293.68 468.5 245.46"/>
    <polygon points="1668.5 245.46 1649.22 226.18 1601 274.39 1552.79 226.18 1533.5 245.46 1581.72 293.68 1533.5 341.89 1552.79 361.18 1601 312.96 1649.22 361.18 1668.5 341.89 1620.29 293.68 1668.5 245.46"/>
  </g>
  <g class="error">
    <g class="text">
      <text transform="translate(654.85 863.44)">not a valid<tspan x="78.41" y="100.8">chord</tspan></text>
      <text transform="translate(2036.76 863.83)">duplicate<tspan x="68.25" y="100.8">faces</tspan></text>
    </g>
    <polygon points="467.5 240.46 448.21 221.18 400 269.39 351.79 221.18 332.5 240.46 380.71 288.68 332.5 336.89 351.79 356.18 400 307.96 448.21 356.18 467.5 336.89 419.29 288.68 467.5 240.46"/>
    <polygon points="1667.5 240.46 1648.22 221.18 1600 269.39 1551.79 221.18 1532.5 240.46 1580.72 288.68 1532.5 336.89 1551.79 356.18 1600 307.96 1648.22 356.18 1667.5 336.89 1619.29 288.68 1667.5 240.46"/>
  </g>
</svg>
