<svg viewBox="0 0 3600 1096.97">
  <rect class="background" width="3600" height="1096.97"/>
  <g class="de7_descend">
    <g class="bottom">
      <path class="left" d="M600,245.94V352.75a15,15,0,0,0,7.5,13L700,419.15V526a15,15,0,0,0,7.5,13l85,49.07a15,15,0,0,0,15,0l85-49.07a15,15,0,0,0,7.5-13V419.15Z"/>
      <path class="right" d="M800,590a15,15,0,0,0,7.5-2l85-49.07a15,15,0,0,0,7.5-13V511L800,575Z"/>
    </g>
    <path class="edge" d="M792.5,226.61l-85-49.07a15,15,0,0,0-15,0l-85,49.07a15,15,0,0,0-7.5,13v98.15a15,15,0,0,0,7.5,13L700,404.15V511a15,15,0,0,0,7.5,13l85,49.07a15,15,0,0,0,15,0l85-49.07a15,15,0,0,0,7.5-13V412.81a15,15,0,0,0-7.5-13L800,346.41V239.6A15,15,0,0,0,792.5,226.61Z"/>
    <path class="face" d="M788.5,228.92l-81-46.77a15,15,0,0,0-15,0l-81,46.77a15,15,0,0,0-7.5,13v93.53a15,15,0,0,0,7.5,13L704,401.84v106.8a15,15,0,0,0,7.5,13l81,46.76a15,15,0,0,0,15,0l81-46.76a15,15,0,0,0,7.5-13V415.12a15,15,0,0,0-7.5-13L796,348.72V241.91A15,15,0,0,0,788.5,228.92Z"/>
    <g class="dotsBottom">
      <path d="M725.9,404.8l7.8-4.51a1.56,1.56,0,0,0,0-2.71l-7.8-4.5a1.56,1.56,0,0,0-2.35,1.35v9A1.57,1.57,0,0,0,725.9,404.8Z"/>
      <path d="M777.86,374.8l7.81-4.51a1.57,1.57,0,0,0,0-2.71l-7.81-4.5a1.56,1.56,0,0,0-2.35,1.35v9A1.57,1.57,0,0,0,777.86,374.8Z"/>
      <path d="M715.9,387.48l7.8-4.51a1.56,1.56,0,0,0,0-2.71l-7.8-4.5a1.56,1.56,0,0,0-2.35,1.35v9A1.57,1.57,0,0,0,715.9,387.48Z"/>
      <path d="M746.88,381.14l7.8-4.51a1.56,1.56,0,0,0,0-2.71l-7.8-4.5a1.56,1.56,0,0,0-2.35,1.35v9A1.57,1.57,0,0,0,746.88,381.14Z"/>
      <path d="M767.86,357.48l7.81-4.51a1.57,1.57,0,0,0,0-2.71l-7.81-4.5a1.56,1.56,0,0,0-2.35,1.35v9A1.57,1.57,0,0,0,767.86,357.48Z"/>
    </g>
    <g class="dotsFace">
      <path d="M725.9,404.8l5.82-3.36-5.82-3.36a1.56,1.56,0,0,0-2.35,1.35v4A1.57,1.57,0,0,0,725.9,404.8Z"/>
      <path d="M777.86,374.8l5.82-3.36-5.82-3.36a1.56,1.56,0,0,0-2.35,1.35v4A1.57,1.57,0,0,0,777.86,374.8Z"/>
      <path d="M715.9,387.48l5.82-3.36-5.82-3.36a1.56,1.56,0,0,0-2.35,1.35v4A1.57,1.57,0,0,0,715.9,387.48Z"/>
      <path d="M746.88,381.14l5.82-3.36-5.82-3.36a1.56,1.56,0,0,0-2.35,1.35v4A1.57,1.57,0,0,0,746.88,381.14Z"/>
      <path d="M767.86,357.48l5.82-3.36-5.82-3.36a1.56,1.56,0,0,0-2.35,1.35v4A1.57,1.57,0,0,0,767.86,357.48Z"/>
    </g>
    <g class="deBottom">
      <path d="M728.31,244.26c8.21,14.22,5.13,27.47-6.47,34.16s-24.51,2.77-32.72-11.45L671.84,237l5.68-3.28,2.23,3.87,27.87-16.1-2.23-3.86,5.67-3.28ZM720.19,239l-31.56,18.22.33.56c4.1,7.11,12.1,8.73,22.58,2.68s13.11-13.72,9.19-20.52Z"/>
      <path d="M700.09,323l-12.29,7.1-2.48-4.31,4.44-10.3-5.43-9.41-12.41,7.16,3.49,6.05,4.43-2.56,2.41,4.18-13.53,7.81-2.41-4.17,4.61-2.67-3.49-6.05-13.35,7.71L661,335.48c5.74-3.31,11-2.79,14,2.38l.54.94-14,8.06L636.78,304l5.67-3.28,2.23,3.87,27.88-16.09-2.23-3.87,5.67-3.28Z"/>
      <path d="M738.17,273.64l3.63,3.27,15.26-8.81,1.56,2.71-14.31,8.26,8.26,7.46,13.68-7.9,1.57,2.71L755,288.73l3.3,2.95-9.75,5.63-3.31-2.95-13.8,8,3.21,3L725,310.91l-3.32-3-15.25,8.8-1.56-2.71,14.4-8.31-8.22-7.48-13.91,8-1.56-2.71,12.91-7.46-3.64-3.26,9.75-5.63,3.63,3.27,13.92-8-3.65-3.26Zm4.66,18.51-8.2-7.49-14,8.08,8.27,7.44Z"/>
      <path d="M720.7,321.66l-23.94,13.83-6,3.45a16.22,16.22,0,0,1,9.38,7.18,8.28,8.28,0,0,1,.53,7.18,10.55,10.55,0,0,1-4.37,5.39,15.74,15.74,0,0,1-6.31,2,8.88,8.88,0,0,1-4-.43l-3.79-1.18q-9.06-4-18.19-8l55.28-31.91Zm-27.61,26a4.23,4.23,0,0,0-.37-3.66c-.86-1.5-2.41-2.23-4.63-2.19q-2.57.11-9.85,4.32l-8,4.64q-.32.31,7.61,2.59a14,14,0,0,0,8.28.09,12.4,12.4,0,0,0,3-1.25A8.24,8.24,0,0,0,693.09,347.71Z"/>
    </g>
    <g class="abBottom">
      <path d="M823.46,430.35c-5.43-9.84-4.34-18,2.33-21.89,7.36-4.25,14.68-1.65,20.29,8.08,3.39,5.86,4.75,8.23,7.9,14.39l9.47,16.4-5.68,3.28-2.23-3.87-27.87,16.1,2.23,3.86L824.22,470l-9.47-16.4c-3.74-6.49-4.7-7.43-7.15-11.67-4.32-7.48-3.82-13.67,1.79-16.91C814.26,422.19,819.62,424,823.46,430.35Zm3.91,8.21-.18-.31c-2.74-4.74-6.69-6.11-10.68-3.81-3.68,2.13-4.9,5.49-1.87,10.73l.32.56Zm3.68-2.12,16.09-9.29-.43-.75c-3.1-5.36-7.6-6.67-12.71-3.72s-6.44,7.71-3.06,13.57Z"/>
      <path d="M806.45,510.69l10.26-2.1-2.45-4.24,6.3-3.64,8.07,14-6.3,3.64-2.56-4.43L780,521.11l-10.58-18.33L795.84,471l-2.59-4.49,5.67-3.27,16.13,27.93-5.67,3.28-2.27-3.93-7.54,8.26ZM785,515l15-3-4.78-8.3Z"/>
      <path d="M763.05,479.39l-3.63-3.27-15.25,8.81-1.57-2.71L756.91,474l-8.26-7.45L735,474.4l-1.57-2.71,12.8-7.39-3.3-3,9.74-5.62,3.32,2.95,13.79-8-3.2-3,9.64-5.57,3.32,2.95,15.25-8.81,1.57,2.72-14.41,8.31,8.23,7.47,13.9-8,1.57,2.71-12.92,7.46,3.64,3.26-9.74,5.62L783,462.53l-13.92,8,3.64,3.26Zm-4.65-18.51,8.19,7.48,14-8.07-8.27-7.44Z"/>
      <path d="M778.52,427.9l24-13.82,6-3.46a16.25,16.25,0,0,1-9.38-7.18,8.29,8.29,0,0,1-.53-7.17,10.58,10.58,0,0,1,4.37-5.4,16,16,0,0,1,6.32-2,8.74,8.74,0,0,1,4,.44l3.8,1.17q9,4,18.19,8l-55.28,31.91Zm27.62-26a4.21,4.21,0,0,0,.36,3.65q1.31,2.25,4.63,2.19,2.57-.1,9.86-4.31l8-4.65c.21-.2-2.32-1.07-7.61-2.59a14,14,0,0,0-8.27-.08,12.62,12.62,0,0,0-3,1.24A8.24,8.24,0,0,0,806.14,401.86Z"/>
    </g>
    <g class="deFace">
      <path d="M711.06,219.39l-3.5,2,.06.11v5l-27.87,16.1-2.23-3.87-3.51,2L689.12,267c8.21,14.22,21.13,18.15,32.72,11.45,6.42-3.7,10.22-9.41,10.95-16.17a33,33,0,0,0-4.48-13Zm.48,46c-10.48,6.05-18.48,4.43-22.58-2.68l-.33-.56v-5L720.19,239l.54.94a11.59,11.59,0,0,1,1.41,8.55C723.49,254.29,720.17,260.44,711.54,265.43Z"/>
      <path d="M687.8,330.13l10.12-5.85-21.92-38-3.51,2,.07.12v5l-27.88,16.09-2.23-3.87-3.51,2,22.61,39.15,11.35-6.55c-3.06-2.67-7.36-2.48-11.94.17l-6.88-11.91v-5l13.35-7.71,3.49,6.05v5l-2.45,1.42.25.42,11.37-6.56-.25-.43-4.43,2.56-3.49-6.05v-5l12.41-7.16,5.43,9.41v5L686.55,328Z"/>
      <g>
        <polygon points="725.03 310.91 734.68 305.34 732.38 303.18 728.92 305.18 720.65 297.74 721.59 293.58 718.26 295.5 714.63 292.23 708.28 295.9 708.52 296.12 707.58 300.28 711.08 298.26 719.3 305.74 718.37 309.89 721.71 307.96 725.03 310.91"/>
        <polygon points="748.59 297.31 758.33 291.68 755.97 289.57 752.57 291.53 744.31 284.07 745.25 279.92 741.8 281.9 738.17 278.64 731.93 282.24 732.17 282.46 731.24 286.62 734.63 284.66 742.83 292.15 741.9 296.3 745.27 294.36 748.59 297.31"/>
      </g>
      <g>
        <path d="M692.61,339.64l-3.88,2.24a4.87,4.87,0,0,1,3.33,1.32Z"/>
        <path d="M672.14,354.7l-.26-3.09L669,353.3Z"/>
        <path d="M686,360.28a8.88,8.88,0,0,0,4,.43,15.74,15.74,0,0,0,6.31-2,10.55,10.55,0,0,0,4.37-5.39c.07-.2.12-.4.18-.6a8.52,8.52,0,0,0-.71-1.58,15.7,15.7,0,0,0-7.06-6.26,4.17,4.17,0,0,1,0,2.85,6.8,6.8,0,0,1-.5,1.14l.13.2a4.23,4.23,0,0,1,.37,3.66,8.24,8.24,0,0,1-4,4.54,12.4,12.4,0,0,1-3,1.25,14.22,14.22,0,0,1-3.93.58l.06,0Z"/>
      </g>
    </g>
    <g class="abFace">
      <path d="M809.39,430a8.76,8.76,0,0,0-4.37,5.52,21.74,21.74,0,0,0,2.58,6.39c2.45,4.24,3.41,5.18,7.15,11.67l9.47,16.4,3.51-2-.06-.11v-5l27.87-16.1,2.23,3.87,3.51-2L854,435.93c-3.15-6.16-4.51-8.53-7.9-14.39-5.61-9.73-12.93-12.33-20.29-8.08a11.09,11.09,0,0,0-5.58,7.94,27.32,27.32,0,0,0,3.25,9l-.77,3.51a10,10,0,0,1,4.5,4.39l.18.31v5L815,450.73l-.32-.56c-1.84-3.18-2.1-5.67-1.21-7.61-1.3-3.78.05-6.37,3.08-8.12a6.81,6.81,0,0,1,5.85-.72C818.64,428.72,813.81,427.45,809.39,430ZM834,422.68c5.11-2.95,9.61-1.64,12.71,3.72l.43.75v5l-16.09,9.29-.11-.19c-1.86-3.21-2.32-6.07-1.51-8.5C828.24,428.52,829.85,425.08,834,422.68Z"/>
      <path d="M795.41,470.26l.43.74v5l-24.68,29.73L780,521.11l39.73-7.22,2.56,4.43,4.13-2.39-5.9-10.22-4.13,2.39.28.49v5l-10.26,2.1-6.88-11.91v-5l7.54-8.26,2.27,3.93,3.51-2-14-24.18ZM800,512v5l-15,3v-5l10.26-11.33Z"/>
      <g>
        <polygon points="763.05 479.39 769.29 475.78 769.05 475.56 769.99 471.4 766.59 473.36 758.39 465.88 759.32 461.72 755.96 463.67 752.64 460.72 746.2 464.3 745.26 468.46 748.65 466.5 756.91 473.95 755.98 478.11 759.42 476.12 763.05 479.39"/>
        <polygon points="786.6 465.79 792.95 462.13 792.7 461.91 793.64 457.75 790.15 459.76 781.92 452.29 782.85 448.14 779.51 450.06 776.19 447.12 769.75 450.7 768.84 454.85 772.3 452.85 780.58 460.29 779.64 464.45 782.97 462.53 786.6 465.79"/>
      </g>
      <g>
        <path d="M807.16,411.37l-.54,3.56,3.88-2.25A4.87,4.87,0,0,1,807.16,411.37Z"/>
        <path d="M827.08,399.87l.26,3.09,2.94-1.7Z"/>
        <path d="M813.22,394.29a8.74,8.74,0,0,0-4-.44,16,16,0,0,0-6.32,2,10.58,10.58,0,0,0-4.37,5.4c-.07.2-.12.39-.17.59a7.62,7.62,0,0,0,.7,1.58,15.8,15.8,0,0,0,7.07,6.27l.36-4.2a4.21,4.21,0,0,1-.36-3.65,8.24,8.24,0,0,1,4-4.55,12.71,12.71,0,0,1,3-1.24,13.6,13.6,0,0,1,3.93-.58l-.05,0Z"/>
      </g>
    </g>
  </g>
  <g class="c7_horizon">
    <g class="bottom">
      <path class="left" d="M600,684.16v15a15,15,0,0,0,7.5,13l85,49.08a15,15,0,0,0,15,0L800,707.82l92.5,53.41a15,15,0,0,0,15,0l85-49.08a15,15,0,0,0,7.5-13v-15Z"/>
      <g class="right">
        <path d="M800,692.82,700,748.24v15a15,15,0,0,0,7.5-2L800,707.82v-15"/>
        <path d="M1000,699.16a15,15,0,0,1-7.5,13l-85,49.08a15,15,0,0,1-7.5,2v-15l100-64.08Z"/>
      </g>
    </g>
    <path class="edge" d="M892.5,524,800,577.35,707.5,524a15,15,0,0,0-15,0L607.5,573a15,15,0,0,0-7.5,13v98.15a15,15,0,0,0,7.5,13l85,49.08a15,15,0,0,0,15,0L800,692.82l92.5,53.41a15,15,0,0,0,15,0l85-49.08a15,15,0,0,0,7.5-13V586a15,15,0,0,0-7.5-13L907.5,524A15,15,0,0,0,892.5,524Z"/>
    <path class="face" d="M892.5,528.57,800,582l-92.5-53.4a15,15,0,0,0-15,0l-81,46.76a15,15,0,0,0-7.5,13v93.53a15,15,0,0,0,7.5,13l81,46.77a15,15,0,0,0,15,0L800,688.2l92.5,53.41a15,15,0,0,0,15,0l81-46.77a15,15,0,0,0,7.5-13V588.32a15,15,0,0,0-7.5-13l-81-46.76A15,15,0,0,0,892.5,528.57Z"/>
    <g class="dotsBottom">
      <path d="M815.47,669.59v-9a1.57,1.57,0,0,0-2.35-1.36l-7.81,4.51a1.57,1.57,0,0,0,0,2.71l7.81,4.51A1.57,1.57,0,0,0,815.47,669.59Z"/>
      <path d="M815.47,609.59v-9a1.57,1.57,0,0,0-2.35-1.36l-7.81,4.51a1.57,1.57,0,0,0,0,2.71l7.81,4.51A1.57,1.57,0,0,0,815.47,609.59Z"/>
      <path d="M795.47,669.59v-9a1.57,1.57,0,0,0-2.35-1.36l-7.81,4.51a1.57,1.57,0,0,0,0,2.71l7.81,4.51A1.57,1.57,0,0,0,795.47,669.59Z"/>
      <path d="M805.47,639.59v-9a1.57,1.57,0,0,0-2.35-1.36l-7.81,4.51a1.57,1.57,0,0,0,0,2.71l7.81,4.51A1.57,1.57,0,0,0,805.47,639.59Z"/>
      <path d="M795.47,609.59v-9a1.57,1.57,0,0,0-2.35-1.36l-7.81,4.51a1.57,1.57,0,0,0,0,2.71l7.81,4.51A1.57,1.57,0,0,0,795.47,609.59Z"/>
    </g>
    <g class="dotsFace">
      <path d="M813.12,664.22l-5.82,3.37,5.82,3.36a1.57,1.57,0,0,0,2.35-1.36v-4A1.57,1.57,0,0,0,813.12,664.22Z"/>
      <path d="M813.12,604.22l-5.82,3.37,5.82,3.36a1.57,1.57,0,0,0,2.35-1.36v-4A1.57,1.57,0,0,0,813.12,604.22Z"/>
      <path d="M793.12,664.22l-5.82,3.37,5.82,3.36a1.57,1.57,0,0,0,2.35-1.36v-4A1.57,1.57,0,0,0,793.12,664.22Z"/>
      <path d="M803.12,634.22l-5.82,3.37,5.82,3.36a1.57,1.57,0,0,0,2.35-1.36v-4A1.57,1.57,0,0,0,803.12,634.22Z"/>
      <path d="M793.12,604.22l-5.82,3.37,5.82,3.36a1.57,1.57,0,0,0,2.35-1.36v-4A1.57,1.57,0,0,0,793.12,604.22Z"/>
    </g>
    <path class="cBottom" d="M749.53,646h2.17v22.46c-12.53,9.07-29.24,13.39-46.08,13.39-34.28,0-57.32-18.86-57.32-46.51,0-28.37,22-46.94,55.88-46.94,12.67,0,22.75,3.45,30.09,9.36v-6.91H750v30.38H736.29L723,601.61c-18.29,0-31.54,14.4-31.54,34.41,0,21,11.24,33.12,26.36,33.12A31.29,31.29,0,0,0,730,667C730,652.44,738.88,646,749.53,646Z"/>
    <path class="gBottom" d="M868.61,671.3v8.06h-15.7v-27.5h13.68l14.69,16.7c21-.43,31.54-14.54,31.54-34.41,0-20.3-11.67-34.56-28.23-34.56v23.18h8.35v13.11H844V622.77h8.07V603.19c13.1-10.08,29.81-14.83,46.65-14.83,34.28,0,57.31,18.86,57.31,46.51,0,28.37-23.32,46.94-57.31,46.94C886.18,681.81,873.36,676.77,868.61,671.3Z"/>
    <path class="cFace" d="M730,672a31.29,31.29,0,0,1-12.09,2.16c-15.12,0-26.36-12.1-26.36-33.12,0-.79,0-1.57.07-2.34s-.07-1.76-.07-2.66c0-20,13.25-34.41,31.54-34.41l13.25,19.58H750V595.81h-15.7v6.91c-7.34-5.91-17.42-9.36-30.09-9.36-32.8,0-54.51,17.45-55.81,44.35,1.3,26.33,24,44.1,57.25,44.1,16.84,0,33.55-4.32,46.08-13.39V651h-2.17C738.88,651,730,657.44,730,672Z"/>
    <path class="gFace" d="M898.7,681.81c33,0,55.91-17.48,57.25-44.42-1.34-26.29-24-44-57.25-44-16.84,0-33.55,4.75-46.65,14.83v19.58H844v8.11h49v-8.11h-8.35V599.59c16.56,0,28.23,14.26,28.23,34.56,0,.86,0,1.7-.07,2.53s.07,1.63.07,2.47c0,19.87-10.52,34-31.54,34.41l-14.69-16.7H852.91v22.5h15.7V671.3C873.36,676.77,886.18,681.81,898.7,681.81Z"/>
  </g>
  <g class="d2_ascend">
    <g class="bottom">
      <path class="rightMoved" d="M600,592.35,300,765.55V872.36a15,15,0,0,0,7.5,13l85,49.08a15,15,0,0,0,15,0l85-49.08a15,15,0,0,0,7.5-13V765.55h0l92.5-53.4a15,15,0,0,0,7.5-13Z"/>
      <path class="leftMoved" d="M300,857.36v15a15,15,0,0,0,7.5,13l85,49.08a15,15,0,0,0,7.5,2v-15Z"/>
    </g>
    <path class="edgeMoved" d="M492.5,524,407.5,573a15,15,0,0,0-7.5,13V692.82l-92.5,53.4a15,15,0,0,0-7.5,13v98.15a15,15,0,0,0,7.5,13l85,49.08a15,15,0,0,0,15,0l85-49.08a15,15,0,0,0,7.5-13V750.55l92.5-53.4a15,15,0,0,0,7.5-13V586a15,15,0,0,0-7.5-13L507.5,524A15,15,0,0,0,492.5,524Z"/>
    <path class="faceMoved" d="M492.5,528.57l-81,46.76a15,15,0,0,0-7.5,13V695.13l-92.5,53.4a15,15,0,0,0-7.5,13v93.52a15,15,0,0,0,7.5,13l81,46.76a15,15,0,0,0,15,0l81-46.76a15,15,0,0,0,7.5-13V748.25l92.5-53.41a15,15,0,0,0,7.5-13V588.32a15,15,0,0,0-7.5-13l-81-46.76A15,15,0,0,0,492.5,528.57Z"/>
    <g class="dotsBottom">
      <path d="M424.09,706.8l11.27,6.51a2.24,2.24,0,0,0,3.36-1.95v-13a2.24,2.24,0,0,0-3.36-2l-11.27,6.5A2.25,2.25,0,0,0,424.09,706.8Z"/>
      <path d="M462.4,740.46,473.66,747a2.25,2.25,0,0,0,3.37-2V732a2.25,2.25,0,0,0-3.37-1.95l-11.26,6.5A2.24,2.24,0,0,0,462.4,740.46Z"/>
    </g>
    <g class="dotsFace">
      <path d="M435.36,701.41l-10.3,6,10.3,5.95a2.24,2.24,0,0,0,3.36-1.95v-8A2.24,2.24,0,0,0,435.36,701.41Z"/>
      <path d="M473.66,735.07,463.36,741l10.3,6a2.25,2.25,0,0,0,3.37-2v-8A2.25,2.25,0,0,0,473.66,735.07Z"/>
    </g>
    <path class="dBottom" d="M364.85,778.6c16.41-28.43,42.44-36.35,65.63-23s29.3,39.69,12.88,68.12L408.8,883.62l-11.35-6.55,4.47-7.73-55.75-32.19-4.46,7.74-11.35-6.56Zm-1,19.36,63.1,36.43.64-1.12c8.21-14.22,3-29.69-17.94-41.79s-36.88-9-44.72,4.61Z"/>
    <path class="eBottom" d="M515.82,698.26l-24.57-14.19,5-8.6,22.28-2.6L529.38,654l-24.82-14.33-7,12.1,8.85,5.11-4.82,8.36-27.07-15.63,4.83-8.35,9.23,5.33,7-12.1-26.69-15.41-13.75,23.82c11.47,6.62,15.86,16.31,9.89,26.66l-1.09,1.87L436,655.34l49.54-85.8,11.34,6.56-4.46,7.73L548.17,616l4.47-7.73L564,614.83Z"/>
    <path class="dFace" d="M408.8,883.62l34.56-59.86c5.72-9.91,8.7-19.56,9.18-28.5-.78-14.52-8.48-26.78-22.06-34.62-23.19-13.39-49.22-5.47-65.63,23l-32.32,56,9.18,5.31,4.46-7.74,55.75,32.19v5l-2.3,4Zm-45-80.66v-5l1.08-1.87c7.84-13.6,23.9-16.63,44.72-4.61,15.91,9.18,22.73,20.31,21.5,31.36a25,25,0,0,1-3.56,15.43l-.64,1.12Z"/>
    <path class="eFace" d="M561.82,618.58l-9.18-5.3L548.17,621l-55.74-32.18v-5l2.3-4-9.18-5.31-47.37,82.05,25.76,14.88L465,669.6a19.66,19.66,0,0,0,2.45-6.62c-1-5.79-5.32-11-12.34-15v-5l13.75-23.82,26.69,15.41v5l-7,12.1-9.23-5.33-2.66,4.6,24.9,14.38,2.65-4.61-6.68-3.86v-5l7-12.1L529.38,654v5L518.5,677.87l-22.28,2.6-2.8,4.85,22.4,12.94Z"/>
  </g>
  <g class="ab5_ascend">
    <g class="bottom">
      <path class="rightMoved" d="M2200,245.94l-300,173.2V526a15,15,0,0,0,7.5,13l85,49.07a15,15,0,0,0,15,0l85-49.07a15,15,0,0,0,7.5-13V419.14h0l92.5-53.4a15,15,0,0,0,7.5-13Z"/>
      <path class="leftMoved" d="M1900,511v15a15,15,0,0,0,7.5,13l85,49.07a15,15,0,0,0,7.5,2V575Z"/>
    </g>
    <path class="edgeMoved" d="M2092.5,177.54l-85,49.07a15,15,0,0,0-7.5,13V346.41l-92.5,53.4a15,15,0,0,0-7.5,13V511a15,15,0,0,0,7.5,13l85,49.08a15,15,0,0,0,15,0l85-49.08a15,15,0,0,0,7.5-13V404.14l92.5-53.4a15,15,0,0,0,7.5-13V239.6a15,15,0,0,0-7.5-13l-85-49.07A15,15,0,0,0,2092.5,177.54Z"/>
    <path class="faceMoved" d="M2092.5,182.16l-81,46.76a15,15,0,0,0-7.5,13V348.72l-92.5,53.4a15,15,0,0,0-7.5,13v93.52a15,15,0,0,0,7.5,13l81,46.76a15,15,0,0,0,15,0l81-46.76a15,15,0,0,0,7.5-13V401.84l92.5-53.41a15,15,0,0,0,7.5-13V241.91a15,15,0,0,0-7.5-13l-81-46.76A15,15,0,0,0,2092.5,182.16Z"/>
    <g class="dotsBottom">
      <path d="M2014.33,370.29l7.81,4.51a1.57,1.57,0,0,0,2.35-1.35v-9a1.56,1.56,0,0,0-2.35-1.35l-7.81,4.5A1.57,1.57,0,0,0,2014.33,370.29Z"/>
      <path d="M2066.29,400.29l7.81,4.51a1.57,1.57,0,0,0,2.35-1.35v-9a1.56,1.56,0,0,0-2.35-1.35l-7.81,4.5A1.57,1.57,0,0,0,2066.29,400.29Z"/>
      <path d="M2024.33,353l7.81,4.51a1.57,1.57,0,0,0,2.35-1.35v-9a1.56,1.56,0,0,0-2.35-1.35l-7.81,4.5A1.57,1.57,0,0,0,2024.33,353Z"/>
      <path d="M2045.31,376.63l7.81,4.51a1.57,1.57,0,0,0,2.35-1.35v-9a1.56,1.56,0,0,0-2.35-1.35l-7.81,4.5A1.57,1.57,0,0,0,2045.31,376.63Z"/>
      <path d="M2076.29,383l7.81,4.51a1.57,1.57,0,0,0,2.35-1.35v-9a1.56,1.56,0,0,0-2.35-1.35l-7.81,4.5A1.57,1.57,0,0,0,2076.29,383Z"/>
    </g>
    <g class="dotsFace">
      <path d="M2022.14,368.08l-5.82,3.36,5.82,3.36a1.57,1.57,0,0,0,2.35-1.35v-4A1.56,1.56,0,0,0,2022.14,368.08Z"/>
      <path d="M2074.1,398.08l-5.82,3.36,5.82,3.36a1.57,1.57,0,0,0,2.35-1.35v-4A1.56,1.56,0,0,0,2074.1,398.08Z"/>
      <path d="M2032.14,350.76l-5.82,3.36,5.82,3.36a1.57,1.57,0,0,0,2.35-1.35v-4A1.56,1.56,0,0,0,2032.14,350.76Z"/>
      <path d="M2053.12,374.42l-5.82,3.36,5.82,3.36a1.57,1.57,0,0,0,2.35-1.35v-4A1.56,1.56,0,0,0,2053.12,374.42Z"/>
      <path d="M2084.1,380.76l-5.82,3.36,5.82,3.36a1.57,1.57,0,0,0,2.35-1.35v-4A1.56,1.56,0,0,0,2084.1,380.76Z"/>
    </g>
    <g class="deBottom">
      <path d="M2152.62,291c-8.21,14.21-21.23,18.17-32.82,11.48s-14.65-19.85-6.44-34.07l17.28-29.93,5.67,3.28-2.23,3.86,27.87,16.1,2.24-3.87,5.67,3.28Zm.51-9.68-31.55-18.22-.33.56c-4.1,7.11-1.5,14.85,9,20.89s18.44,4.5,22.36-2.3Z"/>
      <path d="M2070.28,305.93,2058,298.84l2.48-4.31,11.15-1.29,5.43-9.42-12.41-7.17-3.49,6.05,4.43,2.56-2.41,4.18-13.53-7.81,2.41-4.18,4.61,2.66,3.49-6.05-13.34-7.7-6.88,11.91c5.74,3.31,7.93,8.15,4.94,13.33l-.54.93-14-8.06,24.77-42.9,5.67,3.27-2.23,3.87,27.87,16.09,2.24-3.86,5.67,3.27Z"/>
      <path d="M2132.1,314.22l-1,4.77,15.25,8.81-1.56,2.71-14.31-8.26-2.33,10.88,13.68,7.9-1.56,2.71-12.79-7.38-.92,4.33-9.74-5.62.9-4.35-13.8-8-1,4.28-9.64-5.57.89-4.35-15.25-8.8,1.57-2.72,14.4,8.32,2.36-10.86-13.9-8,1.56-2.71,12.92,7.46,1-4.78,9.75,5.62-1,4.78,13.92,8,1-4.78Zm-13.7,13.28,2.39-10.84-14-8.07-2.31,10.89Z"/>
      <path d="M2081.78,323.09l-24-13.82-6-3.45a16.24,16.24,0,0,1-1.53,11.71,8.3,8.3,0,0,1-6,4.05,10.63,10.63,0,0,1-6.85-1.09,15.71,15.71,0,0,1-4.91-4.46,8.65,8.65,0,0,1-1.62-3.68c-.28-1.24-.57-2.53-.88-3.87q-1-9.84-2.2-19.73l55.27,31.91Zm-36.36-10.89a4.2,4.2,0,0,0,3-2.14q1.29-2.25-.42-5.11-1.37-2.16-8.66-6.37l-8-4.64q-.42-.13,1.56,7.88a14,14,0,0,0,4.07,7.21,12.33,12.33,0,0,0,2.59,2A8.24,8.24,0,0,0,2045.42,312.2Z"/>
    </g>
    <g class="abBottom">
      <path d="M2039,466.43c5.81-9.62,13.45-12.78,20.12-8.92,7.36,4.24,8.77,11.88,3.16,21.61-3.39,5.86-4.76,8.23-8.52,14l-9.47,16.4-5.68-3.27,2.23-3.87L2013,486.32l-2.23,3.86-5.68-3.27,9.47-16.4c3.75-6.49,4.08-7.79,6.53-12,4.32-7.48,9.93-10.15,15.55-6.91C2041.5,454.38,2042.62,459.93,2039,466.43Zm-5.16,7.5.18-.32c2.74-4.74,2-8.85-2-11.15-3.67-2.13-7.2-1.5-10.22,3.74l-.32.56Zm3.68,2.12,16.09,9.29.43-.75c3.1-5.36,2-9.91-3.13-12.87s-9.89-1.72-13.28,4.14Z"/>
      <path d="M1961,491.87l7,7.84,2.45-4.24,6.3,3.64-8.07,14-6.29-3.63,2.55-4.43-26.12-30.8,10.59-18.33,40.71,7,2.59-4.49,5.68,3.28-16.13,27.93-5.68-3.27,2.27-3.93-10.92-2.4Zm-14.46-16.42L1956.63,487l4.79-8.3Z"/>
      <path d="M1966.36,438.64l1-4.78-15.25-8.81,1.57-2.71L1968,430.6l2.32-10.88-13.68-7.9,1.57-2.71L1971,416.5l.91-4.34,9.74,5.62-.89,4.35,13.79,8,1-4.29,9.65,5.57-.89,4.35,15.24,8.81-1.56,2.71-14.41-8.32-2.36,10.86,13.91,8-1.57,2.71-12.91-7.46-1,4.79-9.74-5.63,1-4.78-13.92-8-1,4.78Zm13.7-13.29-2.38,10.84,14,8.07,2.31-10.88Z"/>
      <path d="M2018.69,426.29l23.94,13.83,6,3.45a16.24,16.24,0,0,1,1.52-11.71,8.32,8.32,0,0,1,6-4.05,10.59,10.59,0,0,1,6.86,1.09,15.82,15.82,0,0,1,4.91,4.46,8.85,8.85,0,0,1,1.62,3.67c.28,1.25.57,2.54.88,3.88q1,9.84,2.2,19.73l-55.28-31.92Zm36.36,10.89a4.23,4.23,0,0,0-3,2.15q-1.29,2.25.42,5.1,1.38,2.18,8.67,6.38l8,4.64c.29.08-.23-2.54-1.56-7.88a14,14,0,0,0-4.06-7.21,12.92,12.92,0,0,0-2.59-2A8.29,8.29,0,0,0,2055.05,437.18Z"/>
    </g>
    <g class="deFace">
      <path d="M2130.64,243.47l-17.28,29.93a33.08,33.08,0,0,0-4.5,13c.74,6.73,4.53,12.39,10.94,16.09,11.59,6.69,24.61,2.73,32.82-11.48l15.08-26.12-3.51-2-2.24,3.87-27.87-16.1v-5l.07-.11Zm22.49,37.84v5l-.54.93c-3.92,6.8-12,8.32-22.36,2.3-8.58-4.94-11.87-11-10.54-17a12.26,12.26,0,0,1,1.56-8.93l.33-.56Z"/>
      <path d="M2092.21,268l-3.51-2-2.24,3.86-27.87-16.09v-5l.07-.12-3.51-2-22.61,39.15,11.8,6.81.54-.93a10.65,10.65,0,0,0,.92-2c-.83-2.41-2.85-4.57-5.86-6.3v-5l6.88-11.91,13.34,7.7v5l-3.49,6.05-4.61-2.66-.25.43,11.37,6.56.24-.43-2.26-1.31v-5l3.49-6.05,12.41,7.17v5l-5.43,9.42-11.15,1.29-.32.56,10.12,5.84Z"/>
      <g>
        <polygon points="2130.47 322.25 2131.35 322.76 2131.09 318.99 2131.16 318.67 2122.47 313.65 2121.46 318.43 2120.51 317.89 2120.79 321.66 2118.4 332.5 2117.45 331.96 2116.81 335.07 2126.55 340.69 2127.47 336.36 2128.41 336.9 2128.14 333.13 2130.47 322.25"/>
        <polygon points="2103.91 322.76 2104.75 323.24 2104.49 319.47 2106.8 308.59 2107.8 309.17 2107.54 305.4 2107.61 305.07 2098.81 300 2097.81 304.78 2096.96 304.29 2097.23 308.06 2094.87 318.92 2093.89 318.36 2093.26 321.47 2102.9 327.04 2103.91 322.76"/>
      </g>
      <path d="M2048.4,310.06v5a4.2,4.2,0,0,1-3,2.14,8.24,8.24,0,0,1-5.93-1.18,12.33,12.33,0,0,1-2.59-2,14,14,0,0,1-4.07-7.21l-1.56-7.88.17-3.15-2.94-1.7c.55,4.8,1.1,9.61,1.61,14.39.31,1.34.6,2.63.88,3.87a8.65,8.65,0,0,0,1.62,3.68,15.71,15.71,0,0,0,4.91,4.46,10.63,10.63,0,0,0,6.85,1.09,8.3,8.3,0,0,0,6-4.05,15.65,15.65,0,0,0,1.79-5.25c-.07-.48-.26-1.46-.26-1.46l.32-3.06-3.89-2.25A4.55,4.55,0,0,1,2048.4,310.06Z"/>
    </g>
    <g class="abFace">
      <path d="M2044.32,509.55l9.47-16.4c3.76-5.8,5.13-8.17,8.52-14a25.57,25.57,0,0,0,3.2-8.28,12.22,12.22,0,0,0-6.36-8.33c-6.67-3.86-14.31-.7-20.12,8.92v-5a17.51,17.51,0,0,0,1.8-4.57,8.63,8.63,0,0,0-4.19-5.29c-5.62-3.24-11.23-.57-15.55,6.91-2.45,4.24-2.78,5.54-6.53,12l-7.3,12.65,3.51,2,2.23-3.87,27.87,16.09v5l-.06.12Zm-10.27-30.94-.18.32-12.4-7.17v-5l.32-.56c3-5.24,6.55-5.87,10.22-3.74,3.24,1.87,4.37,4.93,3.22,8.54C2036.06,473.14,2035.7,475.76,2034.05,478.61Zm3.5,2.44v-5l.11-.19c3.39-5.86,8-7.16,13.28-4.14,4.14,2.39,5.65,5.82,4.45,9.89.81,2.33.39,5-1.32,8l-.43.75Z"/>
      <path d="M1982.16,489.56l14-24.18-3.51-2-2.59,4.49-40.71-7-8.87,15.36,24.4,28.77v5l-.39.68,4.13,2.38,5.9-10.22-4.13-2.38-2.45,4.24-7-7.84v-5l6.88-11.91,10.92,2.4v5l-.1.18Zm-20.74-5.89-4.79,8.3-10.14-11.52v-5l14.93,3.22Z"/>
      <g>
        <polygon points="2003.59 438.93 2004.57 439.5 2004.32 435.73 1995.56 430.81 1994.55 435.1 1993.71 434.61 1993.97 438.38 1991.66 449.26 1990.66 448.69 1990.92 452.45 1990.85 452.78 1999.65 457.86 2000.66 453.07 2001.5 453.56 2001.23 449.79 2003.59 438.93"/>
        <polygon points="1976 444.2 1977 439.42 1977.95 439.96 1977.68 436.19 1980.06 425.35 1981.01 425.89 1980.76 422.13 1971.91 417.16 1971 421.5 1970.06 420.95 1970.32 424.72 1968 435.6 1967.11 435.09 1967.37 438.86 1967.3 439.18 1976 444.2"/>
      </g>
      <path d="M2070.36,445.91c-.31-1.34-.6-2.63-.88-3.88a8.85,8.85,0,0,0-1.62-3.67,15.82,15.82,0,0,0-4.91-4.46,10.59,10.59,0,0,0-6.86-1.09,8.32,8.32,0,0,0-6,4.05,15.6,15.6,0,0,0-1.79,5.24q.11.73.27,1.47l-.32,3.06,3.88,2.24.09-4.83a4.63,4.63,0,0,1-.21-4.71,4.19,4.19,0,0,1,3-2.14,8.24,8.24,0,0,1,5.93,1.17,12.92,12.92,0,0,1,2.59,2,14,14,0,0,1,4.06,7.21q2,8,1.56,7.88l-.16,3.15,2.93,1.69C2071.42,455.49,2070.87,450.69,2070.36,445.91Z"/>
    </g>
  </g>
  <g class="c7_horizon">
    <g class="bottom">
      <path class="left" d="M1600,684.16v15a15,15,0,0,0,7.5,13l85,49.08a15,15,0,0,0,15,0l92.5-53.41,92.5,53.41a15,15,0,0,0,15,0l85-49.08a15,15,0,0,0,7.5-13v-15Z"/>
      <g class="right">
        <path d="M1800,692.82l-100,55.42v15a15,15,0,0,0,7.5-2l92.5-53.41v-15"/>
        <path d="M2000,699.16a15,15,0,0,1-7.5,13l-85,49.08a15,15,0,0,1-7.5,2v-15l100-64.08Z"/>
      </g>
    </g>
    <path class="edge" d="M1892.5,524l-92.5,53.4L1707.5,524a15,15,0,0,0-15,0l-85,49.07a15,15,0,0,0-7.5,13v98.15a15,15,0,0,0,7.5,13l85,49.08a15,15,0,0,0,15,0l92.5-53.41,92.5,53.41a15,15,0,0,0,15,0l85-49.08a15,15,0,0,0,7.5-13V586a15,15,0,0,0-7.5-13l-85-49.07A15,15,0,0,0,1892.5,524Z"/>
    <path class="face" d="M1892.5,528.57,1800,582l-92.5-53.4a15,15,0,0,0-15,0l-81,46.76a15,15,0,0,0-7.5,13v93.53a15,15,0,0,0,7.5,13l81,46.77a15,15,0,0,0,15,0L1800,688.2l92.5,53.41a15,15,0,0,0,15,0l81-46.77a15,15,0,0,0,7.5-13V588.32a15,15,0,0,0-7.5-13l-81-46.76A15,15,0,0,0,1892.5,528.57Z"/>
    <g class="dotsBottom">
      <path d="M1815.47,669.59v-9a1.57,1.57,0,0,0-2.35-1.36l-7.81,4.51a1.57,1.57,0,0,0,0,2.71l7.81,4.51A1.57,1.57,0,0,0,1815.47,669.59Z"/>
      <path d="M1815.47,609.59v-9a1.57,1.57,0,0,0-2.35-1.36l-7.81,4.51a1.57,1.57,0,0,0,0,2.71l7.81,4.51A1.57,1.57,0,0,0,1815.47,609.59Z"/>
      <path d="M1795.47,669.59v-9a1.57,1.57,0,0,0-2.35-1.36l-7.81,4.51a1.57,1.57,0,0,0,0,2.71l7.81,4.51A1.57,1.57,0,0,0,1795.47,669.59Z"/>
      <path d="M1805.47,639.59v-9a1.57,1.57,0,0,0-2.35-1.36l-7.81,4.51a1.57,1.57,0,0,0,0,2.71l7.81,4.51A1.57,1.57,0,0,0,1805.47,639.59Z"/>
      <path d="M1795.47,609.59v-9a1.57,1.57,0,0,0-2.35-1.36l-7.81,4.51a1.57,1.57,0,0,0,0,2.71l7.81,4.51A1.57,1.57,0,0,0,1795.47,609.59Z"/>
    </g>
    <g class="dotsFace">
      <path d="M1813.12,664.22l-5.82,3.37,5.82,3.36a1.57,1.57,0,0,0,2.35-1.36v-4A1.57,1.57,0,0,0,1813.12,664.22Z"/>
      <path d="M1813.12,604.22l-5.82,3.37,5.82,3.36a1.57,1.57,0,0,0,2.35-1.36v-4A1.57,1.57,0,0,0,1813.12,604.22Z"/>
      <path d="M1793.12,664.22l-5.82,3.37,5.82,3.36a1.57,1.57,0,0,0,2.35-1.36v-4A1.57,1.57,0,0,0,1793.12,664.22Z"/>
      <path d="M1803.12,634.22l-5.82,3.37,5.82,3.36a1.57,1.57,0,0,0,2.35-1.36v-4A1.57,1.57,0,0,0,1803.12,634.22Z"/>
      <path d="M1793.12,604.22l-5.82,3.37,5.82,3.36a1.57,1.57,0,0,0,2.35-1.36v-4A1.57,1.57,0,0,0,1793.12,604.22Z"/>
    </g>
    <path class="cBottom" d="M1749.54,646h2.16v22.46c-12.53,9.07-29.24,13.39-46.08,13.39-34.28,0-57.32-18.86-57.32-46.51,0-28.37,22-46.94,55.88-46.94,12.67,0,22.75,3.45,30.09,9.36v-6.91H1750v30.38h-13.68L1723,601.61c-18.29,0-31.54,14.4-31.54,34.41,0,21,11.24,33.12,26.36,33.12A31.26,31.26,0,0,0,1730,667C1730,652.44,1738.88,646,1749.54,646Z"/>
    <path class="gBottom" d="M1868.61,671.3v8.06h-15.7v-27.5h13.68l14.69,16.7c21-.43,31.54-14.54,31.54-34.41,0-20.3-11.67-34.56-28.23-34.56v23.18h8.35v13.11h-49V622.77h8.07V603.19c13.1-10.08,29.81-14.83,46.65-14.83,34.28,0,57.31,18.86,57.31,46.51,0,28.37-23.32,46.94-57.31,46.94C1886.18,681.81,1873.36,676.77,1868.61,671.3Z"/>
    <path class="cFace" d="M1730,672a31.26,31.26,0,0,1-12.09,2.16c-15.12,0-26.36-12.1-26.36-33.12,0-.79,0-1.57.07-2.34s-.07-1.76-.07-2.66c0-20,13.25-34.41,31.54-34.41l13.25,19.58H1750V595.81h-15.7v6.91c-7.34-5.91-17.42-9.36-30.09-9.36-32.8,0-54.51,17.45-55.81,44.35,1.3,26.33,24,44.1,57.25,44.1,16.84,0,33.55-4.32,46.08-13.39V651h-2.16C1738.88,651,1730,657.44,1730,672Z"/>
    <path class="gFace" d="M1898.7,681.81c33,0,55.91-17.48,57.25-44.42-1.34-26.29-24-44-57.25-44-16.84,0-33.55,4.75-46.65,14.83v19.58H1844v8.11h49v-8.11h-8.35V599.59c16.56,0,28.23,14.26,28.23,34.56,0,.86,0,1.7-.07,2.53s.07,1.63.07,2.47c0,19.87-10.52,34-31.54,34.41l-14.69-16.7h-13.68v22.5h15.7V671.3C1873.36,676.77,1886.18,681.81,1898.7,681.81Z"/>
  </g>
  <g class="e10_descend">
    <g class="bottom">
      <path class="left" d="M2000,592.35V699.16a15,15,0,0,0,7.5,13l92.5,53.41V872.37a15,15,0,0,0,7.5,13l85,49.07a15,15,0,0,0,15,0l85-49.07a15,15,0,0,0,7.5-13V765.56Z"/>
      <path class="right" d="M2200,936.44a15,15,0,0,0,7.5-2l85-49.07a15,15,0,0,0,7.5-13v-15l-100,64.07Z"/>
    </g>
    <path class="edge" d="M2192.5,573l-85-49.07a15,15,0,0,0-15,0l-85,49.07a15,15,0,0,0-7.5,13v98.15a15,15,0,0,0,7.5,13l92.5,53.41V857.37a15,15,0,0,0,7.5,13l85,49.07a15,15,0,0,0,15,0l85-49.07a15,15,0,0,0,7.5-13V759.22a15,15,0,0,0-7.5-13L2200,692.82V586A15,15,0,0,0,2192.5,573Z"/>
    <path class="face" d="M2188.5,575.33l-81-46.76a15,15,0,0,0-15,0l-81,46.76a15,15,0,0,0-7.5,13v93.53a15,15,0,0,0,7.5,13l92.5,53.41V855.06a15,15,0,0,0,7.5,13l81,46.76a15,15,0,0,0,15,0l81-46.76a15,15,0,0,0,7.5-13V761.53a15,15,0,0,0-7.5-13l-92.5-53.4V588.32A15,15,0,0,0,2188.5,575.33Z"/>
    <g class="dotsBottom">
      <path d="M2121.34,738.31l11.26-6.51a2.24,2.24,0,0,0,0-3.89l-11.26-6.5a2.25,2.25,0,0,0-3.37,2v13A2.25,2.25,0,0,0,2121.34,738.31Z"/>
      <path d="M2169.64,722l11.26-6.51a2.24,2.24,0,0,0,0-3.89l-11.26-6.5a2.25,2.25,0,0,0-3.37,1.95v13A2.25,2.25,0,0,0,2169.64,722Z"/>
    </g>
    <g class="dotsFace">
      <path d="M2121.34,738.31l10.3-5.95-10.3-6a2.25,2.25,0,0,0-3.37,2v8A2.25,2.25,0,0,0,2121.34,738.31Z"/>
      <path d="M2169.64,722l10.3-6-10.3-5.95a2.25,2.25,0,0,0-3.37,1.95v8A2.25,2.25,0,0,0,2169.64,722Z"/>
    </g>
    <path class="dBottom" d="M2156.71,823.89c-16.41-28.43-10.26-54.93,12.93-68.32s49-5.53,65.44,22.91l34.56,59.85-11.35,6.56-4.46-7.74-55.75,32.19,4.47,7.73-11.35,6.55ZM2173,834.46l63.1-36.43-.65-1.12c-8.21-14.22-24.21-17.45-45.16-5.36s-26.22,27.45-18.37,41Z"/>
    <path class="eBottom" d="M2162.62,653l-24.57,14.18-5-8.6L2142,638l-10.88-18.83-24.81,14.33,7,12.1,8.86-5.12,4.82,8.36-27.06,15.62-4.82-8.35,9.22-5.33-7-12.1L2070.62,654l13.76,23.82c11.47-6.62,22-5.58,28,4.77l1.08,1.87-27.93,16.13L2036,614.83l11.35-6.55,4.46,7.73,55.75-32.18-4.47-7.74,11.35-6.55Z"/>
    <path class="dFace" d="M2169.64,760.57c-13.59,7.84-21.32,20.19-22.09,34.79.47,9,3.45,18.63,9.16,28.53l34.49,59.73,9.18-5.3-2.3-4v-5l55.75-32.19,4.46,7.74,9.18-5.31-32.39-56.1C2218.66,755,2192.84,747.17,2169.64,760.57ZM2236.06,798v5L2173,839.46l-1.08-1.87a23.52,23.52,0,0,1-3.28-14.65c-1.24-10.89,5.64-22.14,21.65-31.39,20.95-12.09,36.95-8.86,45.16,5.36Z"/>
    <path class="eFace" d="M2138.05,667.15l22.4-12.93-46-79.68-9.18,5.3,2.3,4v5L2051.82,621l-4.46-7.73-9.18,5.3,47.37,82,25.68-14.83c-6.13-8.62-16.1-9.15-26.85-2.94L2070.62,659v-5l26.69-15.41,7,12.1v5l-7.06,4.08,2.66,4.6,24.9-14.37-2.66-4.61-8.86,5.12-7-12.1v-5l24.81-14.33L2142,638v5l-7.66,17.74Z"/>
  </g>
  <g class="ab5_descend">
    <g class="bottom">
      <path class="leftMoved" d="M2600,245.94V352.75a15,15,0,0,0,7.5,13l92.5,53.41V526a15,15,0,0,0,7.5,13l85,49.07a15,15,0,0,0,15,0l85-49.07a15,15,0,0,0,7.5-13V419.15Z"/>
      <path class="rightMoved" d="M2800,590a15,15,0,0,0,7.5-2l85-49.07a15,15,0,0,0,7.5-13V511L2800,575Z"/>
    </g>
    <path class="edgeMoved" d="M2792.5,226.61l-85-49.07a15,15,0,0,0-15,0l-85,49.07a15,15,0,0,0-7.5,13v98.15a15,15,0,0,0,7.5,13l92.5,53.41V511a15,15,0,0,0,7.5,13l85,49.07a15,15,0,0,0,15,0l85-49.07a15,15,0,0,0,7.5-13V412.81a15,15,0,0,0-7.5-13L2800,346.41V239.6A15,15,0,0,0,2792.5,226.61Z"/>
    <path class="faceMoved" d="M2788.5,228.92l-81-46.77a15,15,0,0,0-15,0l-81,46.77a15,15,0,0,0-7.5,13v93.53a15,15,0,0,0,7.5,13l92.5,53.41v106.8a15,15,0,0,0,7.5,13l81,46.76a15,15,0,0,0,15,0l81-46.76a15,15,0,0,0,7.5-13V415.12a15,15,0,0,0-7.5-13l-92.5-53.4V241.91A15,15,0,0,0,2788.5,228.92Z"/>
    <g class="dotsBottom">
      <path d="M2774.1,345.76l-7.81,4.5a1.57,1.57,0,0,0,0,2.71l7.81,4.51a1.57,1.57,0,0,0,2.35-1.35v-9A1.56,1.56,0,0,0,2774.1,345.76Z"/>
      <path d="M2722.14,375.76l-7.81,4.5a1.57,1.57,0,0,0,0,2.71l7.81,4.51a1.57,1.57,0,0,0,2.35-1.35v-9A1.56,1.56,0,0,0,2722.14,375.76Z"/>
      <path d="M2784.1,363.08l-7.81,4.5a1.57,1.57,0,0,0,0,2.71l7.81,4.51a1.57,1.57,0,0,0,2.35-1.35v-9A1.56,1.56,0,0,0,2784.1,363.08Z"/>
      <path d="M2753.12,369.42l-7.81,4.5a1.57,1.57,0,0,0,0,2.71l7.81,4.51a1.57,1.57,0,0,0,2.35-1.35v-9A1.56,1.56,0,0,0,2753.12,369.42Z"/>
      <path d="M2732.14,393.08l-7.81,4.5a1.57,1.57,0,0,0,0,2.71l7.81,4.51a1.57,1.57,0,0,0,2.35-1.35v-9A1.56,1.56,0,0,0,2732.14,393.08Z"/>
    </g>
    <g class="dotsFace">
      <path d="M2774.1,350.76l-5.82,3.36,5.82,3.36a1.57,1.57,0,0,0,2.35-1.35v-4A1.56,1.56,0,0,0,2774.1,350.76Z"/>
      <path d="M2722.14,380.76l-5.82,3.36,5.82,3.36a1.57,1.57,0,0,0,2.35-1.35v-4A1.56,1.56,0,0,0,2722.14,380.76Z"/>
      <path d="M2784.1,368.08l-5.82,3.36,5.82,3.36a1.57,1.57,0,0,0,2.35-1.35v-4A1.56,1.56,0,0,0,2784.1,368.08Z"/>
      <path d="M2753.12,374.42l-5.82,3.36,5.82,3.36a1.57,1.57,0,0,0,2.35-1.35v-4A1.56,1.56,0,0,0,2753.12,374.42Z"/>
      <path d="M2732.14,398.08l-5.82,3.36,5.82,3.36a1.57,1.57,0,0,0,2.35-1.35v-4A1.56,1.56,0,0,0,2732.14,398.08Z"/>
    </g>
    <g class="deBottom">
      <path d="M2771.69,506.29c-8.21-14.22-5.13-27.47,6.47-34.17s24.51-2.76,32.72,11.46l17.28,29.93-5.67,3.28-2.24-3.87L2792.38,529l2.23,3.86-5.67,3.28Zm8.13,5.28,31.55-18.21-.32-.56c-4.11-7.11-12.11-8.73-22.59-2.68s-13.11,13.72-9.18,20.52Z"/>
      <path d="M2799.92,427.52l12.28-7.1,2.48,4.31-4.44,10.3,5.43,9.41,12.41-7.16-3.49-6-4.43,2.55-2.41-4.17,13.53-7.82,2.42,4.18-4.62,2.67,3.49,6,13.35-7.7L2839,415.07c-5.74,3.31-11,2.79-14-2.39l-.54-.93,14-8.07,24.77,42.91-5.68,3.27-2.23-3.86-27.88,16.09,2.24,3.87-5.68,3.27Z"/>
      <path d="M2761.83,476.91l-3.63-3.27-15.26,8.81-1.56-2.71,14.31-8.27-8.26-7.45-13.68,7.9-1.57-2.71,12.79-7.39-3.3-3,9.75-5.62,3.32,2.95,13.79-8-3.2-3,9.64-5.57,3.32,2.95,15.25-8.81,1.57,2.72-14.41,8.31,8.23,7.48,13.9-8,1.56,2.71-12.91,7.46,3.64,3.26-9.74,5.62-3.63-3.26-13.92,8,3.64,3.26Zm-4.66-18.51,8.2,7.48,14-8.07-8.27-7.44Z"/>
      <path d="M2779.3,428.89l23.95-13.83,6-3.45a16.29,16.29,0,0,1-9.38-7.18,8.31,8.31,0,0,1-.53-7.18,10.55,10.55,0,0,1,4.37-5.39,15.89,15.89,0,0,1,6.32-2,8.88,8.88,0,0,1,4,.44l3.8,1.18q9,4,18.18,7.95l-55.27,31.92Zm27.62-26.05a4.23,4.23,0,0,0,.36,3.66c.86,1.49,2.41,2.22,4.63,2.19q2.57-.1,9.86-4.32l8-4.64c.21-.21-2.32-1.07-7.61-2.6a14,14,0,0,0-8.28-.08,12.57,12.57,0,0,0-3,1.25A8.19,8.19,0,0,0,2806.92,402.84Z"/>
    </g>
    <g class="abBottom">
      <path d="M2676.54,320.2c5.43,9.84,4.35,18-2.33,21.89-7.36,4.25-14.67,1.65-20.29-8.08-3.38-5.86-4.75-8.23-7.9-14.39l-9.47-16.4,5.68-3.28,2.23,3.87,27.88-16.1-2.24-3.86,5.68-3.28,9.47,16.4c3.74,6.49,4.7,7.43,7.15,11.67,4.32,7.48,3.82,13.67-1.79,16.91C2685.74,328.36,2680.38,326.55,2676.54,320.2Zm-3.91-8.21.18.31c2.74,4.74,6.69,6.11,10.68,3.81,3.68-2.13,4.9-5.49,1.88-10.73l-.33-.56Zm-3.68,2.12-16.09,9.29.44.75c3.09,5.36,7.59,6.67,12.7,3.72s6.45-7.71,3.06-13.57Z"/>
      <path d="M2693.55,239.86l-10.26,2.1,2.45,4.24-6.3,3.64-8.07-14,6.3-3.64,2.56,4.43,39.73-7.22,10.58,18.33-26.38,31.78,2.59,4.49-5.67,3.28L2685,259.38l5.67-3.28,2.27,3.93,7.54-8.26Zm21.45-4.32-15,3,4.79,8.3Z"/>
      <path d="M2737,271.16l3.63,3.27,15.25-8.81,1.57,2.71-14.31,8.27,8.26,7.45,13.68-7.9,1.57,2.71-12.8,7.39,3.31,3-9.75,5.62-3.32-2.95-13.79,8,3.2,3-9.64,5.57-3.32-2.95-15.25,8.81-1.57-2.72,14.41-8.31-8.23-7.47-13.9,8-1.56-2.71,12.91-7.46-3.64-3.26,9.74-5.62L2717,288l13.92-8-3.64-3.26Zm4.66,18.51-8.2-7.48-14,8.07,8.27,7.44Z"/>
      <path d="M2721.48,322.65l-23.95,13.82-6,3.46a16.25,16.25,0,0,1,9.38,7.18,8.31,8.31,0,0,1,.53,7.18,10.6,10.6,0,0,1-4.37,5.39,15.89,15.89,0,0,1-6.32,2,8.74,8.74,0,0,1-4-.44l-3.8-1.17q-9-4-18.18-8l55.27-31.91Zm-27.62,26a4.21,4.21,0,0,0-.36-3.65q-1.3-2.25-4.63-2.19-2.57.11-9.86,4.32l-8,4.64c-.21.2,2.32,1.07,7.61,2.59a14,14,0,0,0,8.28.08,12.54,12.54,0,0,0,3-1.24A8.21,8.21,0,0,0,2693.86,348.69Z"/>
    </g>
    <g class="deFace">
      <path d="M2778.16,477.12c-6.41,3.71-10.22,9.41-10.95,16.18a33,33,0,0,0,4.48,13l17.25,29.87,3.51-2-.07-.11v-5l27.87-16.1,2.24,3.87,3.51-2-15.12-26.18C2802.67,474.36,2789.76,470.43,2778.16,477.12Zm33.21,16.24v5l-31.55,18.21-.54-.93a11.52,11.52,0,0,1-1.41-8.56c-1.35-5.83,2-12,10.59-17,10.48-6.05,18.48-4.43,22.59,2.68Z"/>
      <g>
        <path d="M2812.2,425.42l-10.12,5.85,21.92,38,3.51-2-.07-.12v-5L2855.32,446l2.23,3.86,3.51-2-22.6-39.16-11.36,6.56c3.07,2.67,7.36,2.47,11.94-.17l6.88,11.91v5l-13.35,7.7-3.49-6v-5l2.45-1.42-.25-.43-11.36,6.57.24.42,4.43-2.55,3.49,6v5l-12.41,7.16-5.43-9.41v-5l3.21-7.44Z"/>
        <path d="M2830.87,422l.59.07-.18-.31Z"/>
      </g>
      <g>
        <polygon points="2761.83 476.91 2768.07 473.3 2767.83 473.08 2768.77 468.92 2765.37 470.88 2757.17 463.4 2758.1 459.24 2754.74 461.19 2751.42 458.24 2744.97 461.82 2744.04 465.98 2747.43 464.02 2755.69 471.48 2754.75 475.63 2758.2 473.64 2761.83 476.91"/>
        <polygon points="2785.38 463.31 2791.73 459.65 2791.48 459.43 2792.42 455.27 2788.93 457.29 2780.7 449.81 2781.63 445.66 2778.29 447.59 2774.97 444.64 2768.53 448.22 2767.62 452.37 2771.08 450.37 2779.35 457.81 2778.42 461.97 2781.75 460.05 2785.38 463.31"/>
      </g>
      <g>
        <path d="M2807.94,412.35l-.55,3.56,3.88-2.24A4.87,4.87,0,0,1,2807.94,412.35Z"/>
        <path d="M2814,395.27a8.88,8.88,0,0,0-4-.44,15.89,15.89,0,0,0-6.32,2,10.55,10.55,0,0,0-4.37,5.39c-.07.2-.12.4-.18.6a8.83,8.83,0,0,0,.71,1.58,15.75,15.75,0,0,0,7.06,6.26l.37-4.19a4.23,4.23,0,0,1-.36-3.66,8.19,8.19,0,0,1,4-4.54,12.57,12.57,0,0,1,3-1.25,13.6,13.6,0,0,1,3.93-.58l0,0Z"/>
        <path d="M2827.86,400.85l.26,3.09,2.94-1.69Z"/>
      </g>
    </g>
    <g class="abFace">
      <path d="M2690.61,325.55A8.76,8.76,0,0,0,2695,320a21.74,21.74,0,0,0-2.58-6.39c-2.45-4.24-3.41-5.18-7.15-11.67l-9.47-16.4-3.51,2,.07.11v5l-27.88,16.1-2.23-3.87-3.51,2,7.3,12.65c3.15,6.16,4.52,8.53,7.9,14.39,5.62,9.73,12.93,12.33,20.29,8.08a11.09,11.09,0,0,0,5.58-7.94,27.32,27.32,0,0,0-3.25-8.95l.77-3.51a10,10,0,0,1-4.5-4.39l-.18-.31v-5l12.41-7.17.33.56c1.83,3.18,2.1,5.67,1.2,7.61,1.31,3.78-.05,6.37-3.08,8.12a6.79,6.79,0,0,1-5.84.72C2681.37,326.84,2686.19,328.1,2690.61,325.55ZM2666,332.87c-5.11,2.95-9.61,1.64-12.7-3.72l-.44-.75v-5l16.09-9.29.11.19c1.86,3.21,2.32,6.07,1.51,8.5C2671.76,327,2670.15,330.48,2666,332.87Z"/>
      <path d="M2704.59,285.29l-.43-.74v-5l24.68-29.73L2720,234.44l-39.73,7.22-2.56-4.43-4.13,2.39,5.9,10.22,4.13-2.39-.28-.49v-5l10.26-2.1,6.88,11.91v5l-7.54,8.26-2.27-3.93-3.51,2,14,24.19ZM2700,243.57v-5l15-3v5l-10.25,11.33Z"/>
      <g>
        <polygon points="2723.81 308.43 2733.45 302.86 2731.16 300.7 2727.7 302.7 2719.43 295.26 2720.36 291.1 2717.03 293.02 2713.4 289.76 2707.05 293.42 2707.3 293.64 2706.36 297.8 2709.85 295.79 2718.08 303.26 2717.15 307.41 2720.49 305.48 2723.81 308.43"/>
        <polygon points="2747.36 294.83 2757.11 289.21 2754.74 287.09 2751.35 289.05 2743.09 281.6 2744.03 277.44 2740.58 279.43 2736.95 276.16 2730.71 279.77 2730.95 279.99 2730.01 284.15 2733.41 282.19 2741.61 289.67 2740.68 293.83 2744.04 291.88 2747.36 294.83"/>
      </g>
      <g>
        <path d="M2693.39,340.62l-3.88,2.25a8.83,8.83,0,0,1,3.33,1.31Z"/>
        <path d="M2686.78,361.26a8.74,8.74,0,0,0,4,.44,15.89,15.89,0,0,0,6.32-2,10.55,10.55,0,0,0,4.37-5.39c.07-.21.12-.4.18-.6a8.24,8.24,0,0,0-.71-1.58,15.83,15.83,0,0,0-7.06-6.27,4.17,4.17,0,0,1,0,2.85,7.79,7.79,0,0,1-.49,1.15l.13.2a4.21,4.21,0,0,1,.36,3.65,8.21,8.21,0,0,1-4,4.55,12.54,12.54,0,0,1-3,1.24,13.6,13.6,0,0,1-3.93.58l.05,0Z"/>
        <path d="M2672.92,355.69l-.26-3.1-2.94,1.7Z"/>
      </g>
    </g>
  </g>
  <g class="c7_horizon">
    <g class="bottom">
      <path class="left" d="M2600,684.16v15a15,15,0,0,0,7.5,13l85,49.08a15,15,0,0,0,15,0l92.5-53.41,92.5,53.41a15,15,0,0,0,15,0l85-49.08a15,15,0,0,0,7.5-13v-15Z"/>
      <g class="right">
        <path d="M2800,692.82l-100,55.42v15a15,15,0,0,0,7.5-2l92.5-53.41v-15"/>
        <path d="M3000,699.16a15,15,0,0,1-7.5,13l-85,49.08a15,15,0,0,1-7.5,2v-15l100-64.08Z"/>
      </g>
    </g>
    <path class="edge" d="M2892.5,524l-92.5,53.4L2707.5,524a15,15,0,0,0-15,0l-85,49.07a15,15,0,0,0-7.5,13v98.15a15,15,0,0,0,7.5,13l85,49.08a15,15,0,0,0,15,0l92.5-53.41,92.5,53.41a15,15,0,0,0,15,0l85-49.08a15,15,0,0,0,7.5-13V586a15,15,0,0,0-7.5-13l-85-49.07A15,15,0,0,0,2892.5,524Z"/>
    <path class="face" d="M2892.5,528.57,2800,582l-92.5-53.4a15,15,0,0,0-15,0l-81,46.76a15,15,0,0,0-7.5,13v93.53a15,15,0,0,0,7.5,13l81,46.77a15,15,0,0,0,15,0L2800,688.2l92.5,53.41a15,15,0,0,0,15,0l81-46.77a15,15,0,0,0,7.5-13V588.32a15,15,0,0,0-7.5-13l-81-46.76A15,15,0,0,0,2892.5,528.57Z"/>
    <g class="dotsBottom">
      <path d="M2815.47,669.59v-9a1.57,1.57,0,0,0-2.35-1.36l-7.81,4.51a1.57,1.57,0,0,0,0,2.71l7.81,4.51A1.57,1.57,0,0,0,2815.47,669.59Z"/>
      <path d="M2815.47,609.59v-9a1.57,1.57,0,0,0-2.35-1.36l-7.81,4.51a1.57,1.57,0,0,0,0,2.71l7.81,4.51A1.57,1.57,0,0,0,2815.47,609.59Z"/>
      <path d="M2795.47,669.59v-9a1.57,1.57,0,0,0-2.35-1.36l-7.81,4.51a1.57,1.57,0,0,0,0,2.71l7.81,4.51A1.57,1.57,0,0,0,2795.47,669.59Z"/>
      <path d="M2805.47,639.59v-9a1.57,1.57,0,0,0-2.35-1.36l-7.81,4.51a1.57,1.57,0,0,0,0,2.71l7.81,4.51A1.57,1.57,0,0,0,2805.47,639.59Z"/>
      <path d="M2795.47,609.59v-9a1.57,1.57,0,0,0-2.35-1.36l-7.81,4.51a1.57,1.57,0,0,0,0,2.71l7.81,4.51A1.57,1.57,0,0,0,2795.47,609.59Z"/>
    </g>
    <g class="dotsFace">
      <path d="M2813.12,664.22l-5.82,3.37,5.82,3.36a1.57,1.57,0,0,0,2.35-1.36v-4A1.57,1.57,0,0,0,2813.12,664.22Z"/>
      <path d="M2813.12,604.22l-5.82,3.37,5.82,3.36a1.57,1.57,0,0,0,2.35-1.36v-4A1.57,1.57,0,0,0,2813.12,604.22Z"/>
      <path d="M2793.12,664.22l-5.82,3.37,5.82,3.36a1.57,1.57,0,0,0,2.35-1.36v-4A1.57,1.57,0,0,0,2793.12,664.22Z"/>
      <path d="M2803.12,634.22l-5.82,3.37,5.82,3.36a1.57,1.57,0,0,0,2.35-1.36v-4A1.57,1.57,0,0,0,2803.12,634.22Z"/>
      <path d="M2793.12,604.22l-5.82,3.37,5.82,3.36a1.57,1.57,0,0,0,2.35-1.36v-4A1.57,1.57,0,0,0,2793.12,604.22Z"/>
    </g>
    <path class="cBottom" d="M2749.53,646h2.16v22.46c-12.52,9.07-29.23,13.39-46.07,13.39-34.28,0-57.32-18.86-57.32-46.51,0-28.37,22-46.94,55.88-46.94,12.67,0,22.75,3.45,30.09,9.36v-6.91H2750v30.38h-13.68L2723,601.61c-18.29,0-31.54,14.4-31.54,34.41,0,21,11.24,33.12,26.35,33.12A31.31,31.31,0,0,0,2730,667C2730,652.44,2738.88,646,2749.53,646Z"/>
    <path class="gBottom" d="M2868.61,671.3v8.06h-15.7v-27.5h13.68l14.69,16.7c21-.43,31.53-14.54,31.53-34.41,0-20.3-11.66-34.56-28.22-34.56v23.18h8.35v13.11h-49V622.77h8.07V603.19c13.1-10.08,29.81-14.83,46.65-14.83,34.27,0,57.31,18.86,57.31,46.51,0,28.37-23.32,46.94-57.31,46.94C2886.18,681.81,2873.36,676.77,2868.61,671.3Z"/>
    <path class="cFace" d="M2730,672a31.31,31.31,0,0,1-12.1,2.16c-15.11,0-26.35-12.1-26.35-33.12,0-.79,0-1.57.07-2.34s-.07-1.76-.07-2.66c0-20,13.25-34.41,31.54-34.41l13.25,19.58H2750V595.81h-15.7v6.91c-7.34-5.91-17.42-9.36-30.09-9.36-32.8,0-54.51,17.45-55.81,44.35,1.3,26.33,24,44.1,57.25,44.1,16.84,0,33.55-4.32,46.07-13.39V651h-2.16C2738.88,651,2730,657.44,2730,672Z"/>
    <path class="gFace" d="M2898.7,681.81c33,0,55.91-17.48,57.25-44.42-1.34-26.29-24-44-57.25-44-16.84,0-33.55,4.75-46.65,14.83v19.58H2844v8.11h49v-8.11h-8.35V599.59c16.56,0,28.22,14.26,28.22,34.56,0,.86,0,1.7-.06,2.53s.06,1.63.06,2.47c0,19.87-10.51,34-31.53,34.41l-14.69-16.7h-13.68v22.5h15.7V671.3C2873.36,676.77,2886.18,681.81,2898.7,681.81Z"/>
  </g>
  <g class="e10_ascend">
    <g class="bottom">
      <path class="rightMoved" d="M3300,419.15l-300,173.2V699.16a15,15,0,0,0,7.5,13l85,49.07a15,15,0,0,0,15,0l85-49.07a15,15,0,0,0,7.5-13V592.35h0l92.5-53.4a15,15,0,0,0,7.5-13Z"/>
      <path class="leftMoved" d="M3000,684.16v15a15,15,0,0,0,7.5,13l85,49.07a15,15,0,0,0,7.5,2v-15Z"/>
    </g>
    <path class="edgeMoved" d="M3192.5,350.74l-85,49.08a15,15,0,0,0-7.5,13V519.62L3007.5,573a15,15,0,0,0-7.5,13v98.15a15,15,0,0,0,7.5,13l85,49.07a15,15,0,0,0,15,0l85-49.07a15,15,0,0,0,7.5-13V577.35l92.5-53.4a15,15,0,0,0,7.5-13V412.81a15,15,0,0,0-7.5-13l-85-49.08A15,15,0,0,0,3192.5,350.74Z"/>
    <path class="faceMoved" d="M3192.5,355.36l-81,46.76a15,15,0,0,0-7.5,13V521.93l-92.5,53.4a15,15,0,0,0-7.5,13v93.53a15,15,0,0,0,7.5,13l81,46.77a15,15,0,0,0,15,0l81-46.77a15,15,0,0,0,7.5-13V575l92.5-53.4a15,15,0,0,0,7.5-13V415.12a15,15,0,0,0-7.5-13l-81-46.76A15,15,0,0,0,3192.5,355.36Z"/>
    <g class="dotsBottom">
      <path d="M3175.9,563.37l-11.26-6.5a2.24,2.24,0,0,0-3.37,1.94v13a2.25,2.25,0,0,0,3.37,1.94l11.26-6.5A2.24,2.24,0,0,0,3175.9,563.37Z"/>
      <path d="M3137.6,529.71l-11.26-6.5a2.24,2.24,0,0,0-3.37,1.94v13a2.25,2.25,0,0,0,3.37,1.94l11.26-6.5A2.24,2.24,0,0,0,3137.6,529.71Z"/>
    </g>
    <g class="dotsFace">
      <path d="M3164.64,573.76l10.3-6-10.3-5.94a2.24,2.24,0,0,0-3.37,1.94v8A2.25,2.25,0,0,0,3164.64,573.76Z"/>
      <path d="M3126.34,540.1l10.3-6-10.3-5.94a2.24,2.24,0,0,0-3.37,1.94v8A2.25,2.25,0,0,0,3126.34,540.1Z"/>
    </g>
    <path class="dBottom" d="M3235.15,491.57c-16.41,28.43-42.44,36.35-65.63,23s-29.3-39.69-12.88-68.12l34.56-59.86,11.35,6.55-4.47,7.73L3253.83,433l4.46-7.74,11.35,6.56Zm1-19.36-63.1-36.43-.64,1.12c-8.21,14.22-3,29.69,17.94,41.79s36.88,9,44.72-4.61Z"/>
    <path class="eBottom" d="M3084.18,571.91l24.56,14.19-5,8.6-22.29,2.6-10.87,18.83,24.82,14.33,7-12.1-8.85-5.11,4.82-8.36,27.06,15.63-4.82,8.35-9.23-5.33-7,12.1,26.68,15.41,13.75-23.82c-11.47-6.62-15.85-16.31-9.88-26.66l1.08-1.87L3164,614.83l-49.54,85.8-11.35-6.55,4.47-7.74-55.75-32.18-4.46,7.73L3036,655.34Z"/>
    <path class="dFace" d="M3191.2,391.55l-34.56,59.86c-5.72,9.91-8.7,19.56-9.18,28.5.78,14.52,8.48,26.78,22.06,34.62,23.19,13.39,49.22,5.47,65.63-23l32.32-56-9.18-5.31-4.46,7.74-55.75-32.19v-5l2.3-4Zm45,80.66v5l-1.08,1.87c-7.84,13.6-23.9,16.63-44.72,4.61-15.91-9.18-22.73-20.31-21.5-31.36a25,25,0,0,1,3.56-15.43l.64-1.12Z"/>
    <path class="eFace" d="M3114.45,700.63l47.37-82-25.77-14.88-1.08,1.87a19.9,19.9,0,0,0-2.46,6.62c1,5.79,5.33,11,12.34,15v5l-13.75,23.82-26.68-15.41v-5l7-12.1,9.23,5.33,2.66-4.6-24.9-14.38-2.66,4.61,6.69,3.86v5l-7,12.1-24.82-14.33v-5l10.87-18.83,22.29-2.6,2.8-4.85-22.4-12.94-46,79.68,9.18,5.3,4.46-7.73,55.75,32.18v5l-2.3,4Z"/>
  </g>
  <g class="outlineSuccessDashedShadow">
    <path d="M3187.5,696.38V598.23a15,15,0,0,0-7.5-13l-72.5-41.86a15,15,0,0,0-15,0L3020,585.24a15,15,0,0,0-7.5,13v83.71a15,15,0,0,0,7.5,13L3105,744a15,15,0,0,1,7.5,13v98.15a15,15,0,0,0,7.5,13L3192.5,910a15,15,0,0,0,15,0l72.5-41.86a15,15,0,0,0,7.5-13V771.43a15,15,0,0,0-7.5-13l-85-49.07A15,15,0,0,1,3187.5,696.38Z"/>
    <path d="M2787.5,350V251.82a15,15,0,0,0-7.5-13L2707.5,197a15,15,0,0,0-15,0L2620,238.83a15,15,0,0,0-7.5,13v83.71a15,15,0,0,0,7.5,13l85,49.08a15,15,0,0,1,7.5,13v98.15a15,15,0,0,0,7.5,13l72.5,41.86a15,15,0,0,0,15,0l72.5-41.86a15,15,0,0,0,7.5-13V425a15,15,0,0,0-7.5-13L2795,363A15,15,0,0,1,2787.5,350Z"/>
  </g>
  <g class="outlineSuccessDashed">
    <path d="M3187.5,691.38V593.23a15,15,0,0,0-7.5-13l-72.5-41.86a15,15,0,0,0-15,0L3020,580.24a15,15,0,0,0-7.5,13v83.71a15,15,0,0,0,7.5,13L3105,739a15,15,0,0,1,7.5,13v98.15a15,15,0,0,0,7.5,13L3192.5,905a15,15,0,0,0,15,0l72.5-41.86a15,15,0,0,0,7.5-13V766.43a15,15,0,0,0-7.5-13l-85-49.07A15,15,0,0,1,3187.5,691.38Z"/>
    <path d="M2787.5,345V246.82a15,15,0,0,0-7.5-13L2707.5,192a15,15,0,0,0-15,0L2620,233.83a15,15,0,0,0-7.5,13v83.71a15,15,0,0,0,7.5,13l85,49.08a15,15,0,0,1,7.5,13v98.15a15,15,0,0,0,7.5,13l72.5,41.86a15,15,0,0,0,15,0l72.5-41.86a15,15,0,0,0,7.5-13V420a15,15,0,0,0-7.5-13L2795,358A15,15,0,0,1,2787.5,345Z"/>
  </g>
  <g class="outlineErrorDashedShadow">
    <path d="M1787.5,350V251.82a15,15,0,0,0-7.5-13L1707.5,197a15,15,0,0,0-15,0L1620,238.83a15,15,0,0,0-7.5,13v83.71a15,15,0,0,0,7.5,13l85,49.08a15,15,0,0,1,7.5,13v98.15a15,15,0,0,0,7.5,13l72.5,41.86a15,15,0,0,0,15,0l72.5-41.86a15,15,0,0,0,7.5-13V425a15,15,0,0,0-7.5-13L1795,363A15,15,0,0,1,1787.5,350Z"/>
    <path d="M1187.5,696.38V598.23a15,15,0,0,0-7.5-13l-72.5-41.86a15,15,0,0,0-15,0L1020,585.24a15,15,0,0,0-7.5,13v83.71a15,15,0,0,0,7.5,13L1105,744a15,15,0,0,1,7.5,13v98.15a15,15,0,0,0,7.5,13L1192.5,910a15,15,0,0,0,15,0l72.5-41.86a15,15,0,0,0,7.5-13V771.43a15,15,0,0,0-7.5-13l-85-49.07A15,15,0,0,1,1187.5,696.38Z"/>
  </g>
  <g class="outlineErrorDashed">
    <path d="M1787.5,345V246.82a15,15,0,0,0-7.5-13L1707.5,192a15,15,0,0,0-15,0L1620,233.83a15,15,0,0,0-7.5,13v83.71a15,15,0,0,0,7.5,13l85,49.08a15,15,0,0,1,7.5,13v98.15a15,15,0,0,0,7.5,13l72.5,41.86a15,15,0,0,0,15,0l72.5-41.86a15,15,0,0,0,7.5-13V420a15,15,0,0,0-7.5-13L1795,358A15,15,0,0,1,1787.5,345Z"/>
    <path d="M1187.5,691.38V593.23a15,15,0,0,0-7.5-13l-72.5-41.86a15,15,0,0,0-15,0L1020,580.24a15,15,0,0,0-7.5,13v83.71a15,15,0,0,0,7.5,13L1105,739a15,15,0,0,1,7.5,13v98.15a15,15,0,0,0,7.5,13L1192.5,905a15,15,0,0,0,15,0l72.5-41.86a15,15,0,0,0,7.5-13V766.43a15,15,0,0,0-7.5-13l-85-49.07A15,15,0,0,1,1187.5,691.38Z"/>
  </g>
  <g class="outlineSuccessArrowShadow">
    <g>
      <path d="M3307.05,751.08c62.3-43.24,72.35-142.58,20.76-195.91"/>
      <path d="M3304,536.62c14.37,4.76,33.74,8.76,48.22,8.15L3330.64,558l-8.15,23.93C3319.92,567.63,3311.79,549.6,3304,536.62Z"/>
    </g>
    <g>
      <path d="M2902.28,367.91c.08-64.39-28.15-111.51-93.72-129.27"/>
      <path d="M2900.36,398c6-13.88,16-31,26.1-41.36l-24.22,7.28L2879,354C2887.88,365.47,2895.89,383.56,2900.36,398Z"/>
    </g>
    <g>
      <path d="M2598.12,397.57c.47,61.91,30.34,102.58,88.79,121.9"/>
      <path d="M2600,367.45c-6,13.89-16,31-26.1,41.37l24.22-7.28,23.26,9.9C2612.48,400,2604.47,381.92,2600,367.45Z"/>
    </g>
  </g>
  <g class="outlineSuccessArrow">
    <g>
      <path d="M3307.05,746.08c62.3-43.24,72.35-142.58,20.76-195.91"/>
      <path d="M3304,531.62c14.37,4.76,33.74,8.76,48.22,8.15L3330.64,553l-8.15,23.93C3319.92,562.63,3311.79,544.6,3304,531.62Z"/>
    </g>
    <g>
      <path d="M2902.28,362.91c.08-64.39-28.15-111.51-93.72-129.27"/>
      <path d="M2900.36,393c6-13.88,16-31,26.1-41.36l-24.22,7.28L2879,349C2887.88,360.47,2895.89,378.56,2900.36,393Z"/>
    </g>
    <g>
      <path d="M2598.12,392.57c.47,61.91,30.34,102.58,88.79,121.9"/>
      <path d="M2600,362.45c-6,13.89-16,31-26.1,41.37l24.22-7.28,23.26,9.9C2612.48,395,2604.47,376.92,2600,362.45Z"/>
    </g>
  </g>
  <g class="outlineErrorArrowShadow">
    <g>
      <path d="M1807.72,227.92c39.33-29.73,105.5-33.93,159.17-10.45"/>
      <path d="M1993.3,232.07c-15-2.13-34.77-2.61-48.9.56l18.88-16.81,3.76-25C1972.11,204.39,1983.32,220.68,1993.3,232.07Z"/>
    </g>
    <g>
      <path d="M1088.91,880.83C958.37,1007.71,679.41,1022.78,529,898.48"/>
      <path d="M506.71,878.09c14.06,5.63,33.16,10.79,47.64,11.06L532,901l-9.58,23.4C520.73,910,513.7,891.52,506.71,878.09Z"/>
    </g>
  </g>
  <g class="outlineErrorArrow">
    <g>
      <path d="M1807.72,222.92c39.33-29.73,105.5-33.93,159.17-10.45"/>
      <path d="M1993.3,227.07c-15-2.13-34.77-2.61-48.9.56l18.88-16.81,3.76-25C1972.11,199.39,1983.32,215.68,1993.3,227.07Z"/>
    </g>
    <g>
      <path d="M1088.91,875.83C958.37,1002.71,679.41,1017.78,529,893.48"/>
      <path d="M506.71,873.09c14.06,5.63,33.16,10.79,47.64,11.06L532,896l-9.58,23.4C520.73,905,513.7,886.52,506.71,873.09Z"/>
    </g>
  </g>
  <g class="textErrorShadow">
    <text transform="translate(1705.08 150.47)">Not in place</text>
    <text transform="translate(605.08 893.76)">Not in place</text>
  </g>
  <g class="textError">
    <text transform="translate(1705.08 145.47)">Not in place</text>
    <text transform="translate(605.08 888.76)">Not in place</text>
  </g>
  <g class="iconErrorShadow">
    <polygon points="1567.5 245.46 1548.21 226.18 1500 274.39 1451.79 226.18 1432.5 245.46 1480.71 293.68 1432.5 341.89 1451.79 361.18 1500 312.96 1548.21 361.18 1567.5 341.89 1519.29 293.68 1567.5 245.46"/>
    <polygon points="567.5 245.46 548.22 226.18 500 274.39 451.79 226.18 432.5 245.46 480.71 293.68 432.5 341.89 451.79 361.18 500 312.96 548.22 361.18 567.5 341.89 519.28 293.68 567.5 245.46"/>
  </g>
  <g class="iconError">
    <polygon points="1567.5 240.46 1548.21 221.18 1500 269.39 1451.79 221.18 1432.5 240.46 1480.71 288.68 1432.5 336.89 1451.79 356.18 1500 307.96 1548.21 356.18 1567.5 336.89 1519.29 288.68 1567.5 240.46"/>
    <polygon points="567.5 240.46 548.22 221.18 500 269.39 451.79 221.18 432.5 240.46 480.71 288.68 432.5 336.89 451.79 356.18 500 307.96 548.22 356.18 567.5 336.89 519.28 288.68 567.5 240.46"/>
  </g>
  <polygon class="iconSuccessShadow" points="2553.98 226.18 2470.28 318.22 2445.99 299.81 2432.49 299.81 2470.28 361.18 2567.49 226.18 2553.98 226.18"/>
  <polygon class="iconSuccess" points="2553.98 221.18 2470.28 313.22 2445.99 294.81 2432.49 294.81 2470.28 356.18 2567.49 221.18 2553.98 221.18"/>
</svg>
