<svg viewBox="0 0 2600 1096.96">
  <rect class="background" width="2600" height="1096.96"/>
  <g class="g5_ascend">
    <g class="bottom">
      <path class="right" d="M900,245.94,600,419.14V526a15,15,0,0,0,7.5,13l85,49.08a15,15,0,0,0,15,0l85-49.08a15,15,0,0,0,7.5-13V419.14h0l92.5-53.4a15,15,0,0,0,7.5-13Z"/>
      <path class="left" d="M600,511v15a15,15,0,0,0,7.5,13l85,49.08a15,15,0,0,0,7.5,2V575Z"/>
    </g>
    <path class="edge" d="M792.5,177.53l-85,49.08a15,15,0,0,0-7.5,13V346.41l-92.5,53.4a15,15,0,0,0-7.5,13V511a15,15,0,0,0,7.5,13l85,49.08a15,15,0,0,0,15,0l85-49.08a15,15,0,0,0,7.5-13V404.14l92.5-53.4a15,15,0,0,0,7.5-13V239.6a15,15,0,0,0-7.5-13l-85-49.08A15,15,0,0,0,792.5,177.53Z"/>
    <path class="face" d="M792.5,182.15l-81,46.77a15,15,0,0,0-7.5,13V348.72l-92.5,53.4a15,15,0,0,0-7.5,13v93.53a15,15,0,0,0,7.5,13l81,46.76a15,15,0,0,0,15,0l81-46.76a15,15,0,0,0,7.5-13V401.83l92.5-53.4a15,15,0,0,0,7.5-13V241.91a15,15,0,0,0-7.5-13l-81-46.77A15,15,0,0,0,792.5,182.15Z"/>
    <g class="dotsBottom">
      <path d="M785.66,380.26l-7.8-4.5a1.56,1.56,0,0,0-2.35,1.35v9a1.57,1.57,0,0,0,2.35,1.35l7.8-4.51A1.56,1.56,0,0,0,785.66,380.26Z"/>
      <path d="M733.7,350.26l-7.8-4.5a1.56,1.56,0,0,0-2.35,1.35v9a1.57,1.57,0,0,0,2.35,1.35l7.8-4.51A1.56,1.56,0,0,0,733.7,350.26Z"/>
      <path d="M775.66,397.58l-7.8-4.5a1.56,1.56,0,0,0-2.35,1.35v9a1.57,1.57,0,0,0,2.35,1.35l7.8-4.51A1.56,1.56,0,0,0,775.66,397.58Z"/>
      <path d="M754.68,373.92l-7.8-4.5a1.56,1.56,0,0,0-2.35,1.35v9a1.57,1.57,0,0,0,2.35,1.35l7.8-4.51A1.56,1.56,0,0,0,754.68,373.92Z"/>
      <path d="M723.7,367.58l-7.8-4.5a1.56,1.56,0,0,0-2.35,1.35v9a1.57,1.57,0,0,0,2.35,1.35l7.8-4.51A1.56,1.56,0,0,0,723.7,367.58Z"/>
    </g>
    <g class="dotsFace">
      <path d="M777.86,387.48l5.82-3.36-5.82-3.36a1.56,1.56,0,0,0-2.35,1.35v4A1.57,1.57,0,0,0,777.86,387.48Z"/>
      <path d="M725.9,357.48l5.82-3.36-5.82-3.36a1.56,1.56,0,0,0-2.35,1.35v4A1.57,1.57,0,0,0,725.9,357.48Z"/>
      <path d="M767.86,404.8l5.82-3.36-5.82-3.36a1.56,1.56,0,0,0-2.35,1.35v4A1.57,1.57,0,0,0,767.86,404.8Z"/>
      <path d="M746.88,381.14l5.82-3.36-5.82-3.36a1.56,1.56,0,0,0-2.35,1.35v4A1.57,1.57,0,0,0,746.88,381.14Z"/>
      <path d="M715.9,374.8l5.82-3.36-5.82-3.36a1.56,1.56,0,0,0-2.35,1.35v4A1.57,1.57,0,0,0,715.9,374.8Z"/>
    </g>
    <path class="dBottom" d="M835.15,318.36c-16.41,28.44-42.44,36.36-65.63,23s-29.3-39.7-12.88-68.13l34.56-59.86,11.35,6.55-4.47,7.74,55.75,32.18,4.46-7.73,11.35,6.55Zm1-19.35-63.1-36.43-.64,1.12c-8.21,14.21-3,29.69,17.94,41.78s36.88,9,44.72-4.6Z"/>
    <path class="dFace" d="M791.2,218.34,756.64,278.2c-5.72,9.91-8.7,19.57-9.18,28.51.78,14.52,8.48,26.78,22.06,34.62,23.19,13.39,49.22,5.47,65.63-23l32.32-56-9.18-5.3-4.46,7.73-55.75-32.18v-5l2.3-4Zm45,80.67v5l-1.08,1.87c-7.84,13.59-23.9,16.63-44.72,4.6-15.91-9.18-22.73-20.31-21.5-31.36a24.92,24.92,0,0,1,3.56-15.42l.64-1.12Z"/>
    <path class="gBottom" d="M684.33,416.59l-7-4L685.2,399,709,412.71l-6.84,11.85-21.81,4.37c-10.14,18.42-3.18,34.58,14,44.52,17.59,10.15,35.76,7.18,44-7.17l-20.07-11.59-4.18,7.24-11.35-6.56L727.32,413l11.35,6.56-4,7,17,9.79c2.18,16.39-2.06,33.23-10.49,47.82-17.13,29.68-45,40.2-68.93,26.38-24.57-14.19-29-43.68-12-73.11C666.45,426.54,677.22,418,684.33,416.59Z"/>
    <path class="gFace" d="M679.51,413.8l4.82,2.79v5c-7.11,1.38-17.88,10-24.15,20.8s-9.64,21.82-10.12,32c.73,15.11,8.17,28.1,22.12,36.15,23.94,13.82,51.8,3.3,68.93-26.38a79.68,79.68,0,0,0,11-36.85q-.12-3-.51-6l-17-9.79v-5l1.86-3.23L727.32,418,705,456.62l9.18,5.31,4.18-7.24,20.07,11.59v5c-8.28,14.35-26.45,17.32-44,7.17-12.62-7.29-19.72-17.92-18.61-30.34-.56-6,.85-12.42,4.58-19.18l21.81-4.37,4.67-8.1L685.2,404Z"/>
  </g>
  <g class="ga3_horizon">
    <g class="bottom">
      <path class="left" d="M300,684.15v15a15,15,0,0,0,7.51,13l85,49.07a15,15,0,0,0,15,0L500,707.82l92.5,53.4a15,15,0,0,0,15,0l85-49.07a15,15,0,0,0,7.5-13v-15Z"/>
      <g class="right">
        <path d="M500,692.82,400,748.23v15a15,15,0,0,0,7.51-2L500,707.82v-15"/>
        <path d="M700,699.15a15,15,0,0,1-7.5,13l-85,49.07a15,15,0,0,1-7.5,2v-15l100-64.07Z"/>
      </g>
    </g>
    <path class="edge" d="M592.5,523.94,500,577.34l-92.51-53.4a15,15,0,0,0-15,0L307.5,573A15,15,0,0,0,300,586v98.16a15,15,0,0,0,7.49,13l85,49.08a15,15,0,0,0,15,0l92.5-53.4,92.5,53.4a15,15,0,0,0,15,0l85-49.07a15,15,0,0,0,7.5-13V586a15,15,0,0,0-7.5-13l-85-49.08A15,15,0,0,0,592.5,523.94Z"/>
    <path class="face" d="M592.5,528.56,500,582l-92.5-53.4a15,15,0,0,0-15,0l-81,46.76a15,15,0,0,0-7.5,13v93.52a15,15,0,0,0,7.5,13l81,46.76a15,15,0,0,0,15,0L500,688.2l92.49,53.4a15,15,0,0,0,15,0l81-46.76a15,15,0,0,0,7.5-13V588.32a15,15,0,0,0-7.5-13l-81-46.76A15,15,0,0,0,592.5,528.56Z"/>
    <g class="dotsBottom">
      <path d="M498.44,599.68v10.81a1.87,1.87,0,0,0,2.81,1.63l9.37-5.41a1.88,1.88,0,0,0,0-3.25l-9.37-5.41A1.87,1.87,0,0,0,498.44,599.68Z"/>
      <path d="M493.44,629.68v10.81a1.87,1.87,0,0,0,2.81,1.63l9.37-5.41a1.88,1.88,0,0,0,0-3.25l-9.37-5.41A1.87,1.87,0,0,0,493.44,629.68Z"/>
      <path d="M488.44,659.68v10.81a1.87,1.87,0,0,0,2.81,1.63l9.37-5.41a1.88,1.88,0,0,0,0-3.25l-9.37-5.41A1.87,1.87,0,0,0,488.44,659.68Z"/>
    </g>
    <g class="dotsFace">
      <path d="M501.25,612.12l7.86-4.53-7.86-4.54a1.87,1.87,0,0,0-2.81,1.63v5.81A1.87,1.87,0,0,0,501.25,612.12Z"/>
      <path d="M496.25,642.12l7.86-4.53-7.86-4.54a1.87,1.87,0,0,0-2.81,1.63v5.81A1.87,1.87,0,0,0,496.25,642.12Z"/>
      <path d="M491.25,672.12l7.86-4.53-7.86-4.54a1.87,1.87,0,0,0-2.81,1.63v5.81A1.87,1.87,0,0,0,491.25,672.12Z"/>
    </g>
    <g class="gaBottom">
      <path d="M380.89,592.83v-4h7.85v13.76H381.9l-7.34-8.36c-10.52.22-15.77,7.28-15.77,17.21,0,10.16,5.83,17.28,14.11,17.28V617.09h-4.18v-6.55h24.49v6.55h-4v9.8c-6.55,5-14.9,7.41-23.33,7.41-17.13,0-28.66-9.43-28.66-23.26,0-14.18,11.67-23.47,28.66-23.47C372.11,587.57,378.52,590.09,380.89,592.83Z"/>
      <path d="M389.89,680.27l-3.31,9.94h4.9v7.27H375.35v-7.27h5.11l13.61-38h21.17l14.33,38.74h5.18v6.55H402.49v-6.55H407l-3.38-10.66Zm7-20.74L392,674.08h9.58Z"/>
      <path d="M397.08,594.51l4.65-1.51V575.39h3.13v16.52l10.58-3.43v-15.8h3.13v14.78l4.22-1.38v11.25l-4.22,1.4v15.92l4.22-1.26v11.14l-4.22,1.4v17.6h-3.13V626.9l-10.58,3.39v16.05h-3.13V631.43L397.08,633V621.7l4.65-1.51V604.12l-4.65,1.52Zm18.36,5.22-10.58,3.36v16.14l10.58-3.44Z"/>
      <path d="M442.93,633.65v34.56a16.25,16.25,0,0,1,10.91-4.53,8.27,8.27,0,0,1,6.48,3.13,10.6,10.6,0,0,1,2.49,6.48,15.78,15.78,0,0,1-1.41,6.48A8.78,8.78,0,0,1,459,683l-2.92,2.7q-8,5.84-16,11.77V633.65Zm8.75,36.94a4.19,4.19,0,0,0-3.35-1.51c-1.72,0-3.13,1-4.21,2.91-.79,1.52-1.19,5.08-1.19,10.7V692q.1.43,6.05-5.29a14,14,0,0,0,4.21-7.13,12.45,12.45,0,0,0,.44-3.24A8.22,8.22,0,0,0,451.68,670.59Z"/>
    </g>
    <g class="gaFace">
      <path d="M368.72,617.09h4.18v16.59c-8.28,0-14.11-7.12-14.11-17.28,0-.86,0-1.7.13-2.52-.08-.81-.13-1.63-.13-2.48,0-9.93,5.25-17,15.77-17.21l7.34,8.36h6.84v-8.76h-7.85v4c-2.37-2.74-8.78-5.26-15.05-5.26-16,0-27.22,8.2-28.53,20.95,1.3,12.46,12.44,20.78,28.53,20.78,8.43,0,16.78-2.37,23.33-7.41v-9.8h4v-1.55H368.72Z"/>
      <path d="M415.24,657.19H394.07l-13.61,38h-5.11v2.27h16.13v-2.27h-4.9v-5l3.31-9.94h13.76L407,690.93v5h-4.54v1.55h32.26v-1.55h-5.18Zm-13.68,21.89H392v-5l4.9-14.55,4.68,14.55Z"/>
      <path d="M418.57,587.46v-9.78h-3.13v15.8l-10.58,3.43V580.39h-3.13V598l-4.65,1.51v6.13l4.65-1.52v21.07l-4.65,1.51V633l4.65-1.52v14.91h3.13V630.29l10.58-3.39v16.63h3.13v-17.6l4.22-1.4v-6.14l-4.22,1.26V598.73l4.22-1.4v-6.25l-4.22,1.38Zm-3.13,17.27v16.06l-10.58,3.44V603.09l10.58-3.36Z"/>
      <path d="M459,683a8.78,8.78,0,0,0,2.37-3.24,21.08,21.08,0,0,0,1.13-3.57,10.8,10.8,0,0,0-2.21-4.39,8.27,8.27,0,0,0-6.48-3.13,15.73,15.73,0,0,0-4.12.62,4.21,4.21,0,0,1,2,1.29,8.22,8.22,0,0,1,1.95,5.72,12.62,12.62,0,0,1-.29,2.5,10.33,10.33,0,0,1,.29,2.5,12.45,12.45,0,0,1-.44,3.24,13.56,13.56,0,0,1-2.34,5l5.26-3.87Z"/>
      <path d="M442.93,692v-9.28c0-5.26.35-8.7,1.05-10.36-.35.28-.7.57-1.05.88V638.65h-2.8v58.83c.93-.69,1.87-1.37,2.8-2.07Z"/>
    </g>
    <path class="bBottom" d="M583.08,642.07c-22.46-.43-35.57-10.51-35.57-25.92,0-17,11.81-27.07,34.27-27.07,13.54,0,19,0,32.83.72h37.88v13.1h-8.93v64.37h8.93v13.1H614.61c-15,0-17.56.72-27.35.72-17.28,0-27.51-7.05-27.51-20C559.75,649.84,568.25,642.36,583.08,642.07Zm18.14,1.44h-.72c-10.94,0-17.28,5.47-17.28,14.69,0,8.49,4.61,14,16.71,14h1.29Zm0-8.5V597.86H599.5c-12.39,0-19.16,6.48-19.16,18.29,0,12.09,6.92,18.86,20.45,18.86Z"/>
    <path class="bFace" d="M581.78,594.08c-21.24,0-32.95,9-34.16,24.38,1.26,14.09,14.14,23.2,35.46,23.61v5c-13.74.26-22,6.72-23.18,16.6,1.3,11.3,11.27,17.42,27.36,17.42,9.79,0,12.38-.72,27.35-.72h37.88v-8.1h-8.93V602.9h8.93v-8.1H614.61C600.79,594.08,595.32,594.08,581.78,594.08Zm19.44,54.43v28.65h-1.29c-12.1,0-16.71-5.47-16.71-14a16.82,16.82,0,0,1,.18-2.4,19.9,19.9,0,0,1-.18-2.6c0-9.22,6.34-14.69,17.28-14.69h.72Zm0-45.65V640h-.43c-13.53,0-20.45-6.77-20.45-18.86,0-.86,0-1.68.12-2.48s-.12-1.65-.12-2.52c0-11.81,6.77-18.29,19.16-18.29h1.72Z"/>
  </g>
  <g class="de3_horizon">
    <g class="bottom">
      <path class="left" d="M700,684.16v15a15,15,0,0,0,7.5,13l85,49.07a15,15,0,0,0,15,0l92.5-53.4,92.5,53.4a15,15,0,0,0,15,0l85-49.07a15,15,0,0,0,7.5-13v-15Z"/>
      <g class="right">
        <path d="M900,692.82,800,748.23v15a15,15,0,0,0,7.5-2l92.5-53.4v-15"/>
        <path d="M1100,699.16a15,15,0,0,1-7.5,13l-85,49.07a15,15,0,0,1-7.5,2v-15l100-64.07Z"/>
      </g>
    </g>
    <path class="edge" d="M992.5,523.94,900,577.35l-92.5-53.41a15,15,0,0,0-15,0L707.5,573a15,15,0,0,0-7.5,13v98.15a15,15,0,0,0,7.5,13l85,49.07a15,15,0,0,0,15,0l92.5-53.4,92.5,53.41a15,15,0,0,0,15,0l85-49.08a15,15,0,0,0,7.5-13V586a15,15,0,0,0-7.5-13l-85-49.08A15,15,0,0,0,992.5,523.94Z"/>
    <path class="face" d="M992.5,528.56,900,582l-92.5-53.41a15,15,0,0,0-15,0l-81,46.77a15,15,0,0,0-7.5,13v93.53a15,15,0,0,0,7.5,13l81,46.76a15,15,0,0,0,15,0L900,688.2l92.5,53.41a15,15,0,0,0,15,0l81-46.77a15,15,0,0,0,7.5-13V588.32a15,15,0,0,0-7.5-13l-81-46.77A15,15,0,0,0,992.5,528.56Z"/>
    <g class="dotsBottom">
      <path d="M898.44,599.68v10.81a1.87,1.87,0,0,0,2.81,1.63l9.37-5.41a1.88,1.88,0,0,0,0-3.25l-9.37-5.41A1.87,1.87,0,0,0,898.44,599.68Z"/>
      <path d="M893.44,629.68v10.81a1.87,1.87,0,0,0,2.81,1.63l9.37-5.41a1.88,1.88,0,0,0,0-3.25l-9.37-5.41A1.87,1.87,0,0,0,893.44,629.68Z"/>
      <path d="M888.44,659.68v10.81a1.87,1.87,0,0,0,2.81,1.63l9.37-5.41a1.88,1.88,0,0,0,0-3.25l-9.37-5.41A1.87,1.87,0,0,0,888.44,659.68Z"/>
    </g>
    <g class="dotsFace">
      <path d="M901.25,612.12l7.86-4.53-7.86-4.54a1.87,1.87,0,0,0-2.81,1.63v5.81A1.87,1.87,0,0,0,901.25,612.12Z"/>
      <path d="M896.25,642.12l7.86-4.53-7.86-4.54a1.87,1.87,0,0,0-2.81,1.63v5.81A1.87,1.87,0,0,0,896.25,642.12Z"/>
      <path d="M891.25,672.12l7.86-4.53-7.86-4.54a1.87,1.87,0,0,0-2.81,1.63v5.81A1.87,1.87,0,0,0,891.25,672.12Z"/>
    </g>
    <g class="deBottom">
      <path d="M775.69,588.36c16.42,0,26.36,9.29,26.36,22.68s-9.87,22.61-26.29,22.61H741.2V627.1h4.46V594.91H741.2v-6.55Zm-8.64,4.39v36.44h.65c8.21,0,13.61-6.12,13.61-18.22s-5.33-18.22-13.18-18.22Z"/>
      <path d="M829.8,652.19v14.19h-5l-6.7-9H807.26V671.7h7v-5.11h4.82v15.63h-4.82v-5.33h-7V692.3H821c0-6.63,3.1-10.95,9.08-10.95h1.08v16.13H781.63v-6.55h4.46V658.74h-4.46v-6.55Z"/>
      <path d="M806.07,594.51l4.64-1.51V575.39h3.13v16.52l10.59-3.43V572.69h3.13v14.77l4.21-1.38v11.25l-4.21,1.4v15.93l4.21-1.27v11.14l-4.21,1.4v17.6h-3.13V626.9l-10.59,3.39v16.05h-3.13V631.43L806.07,633V621.7l4.64-1.51V604.12l-4.64,1.52Zm18.36,5.22-10.59,3.36v16.14l10.59-3.44Z"/>
      <path d="M838.92,633.65v34.56a16.23,16.23,0,0,1,10.91-4.53,8.28,8.28,0,0,1,6.48,3.13,10.53,10.53,0,0,1,2.48,6.48,15.91,15.91,0,0,1-1.4,6.48A8.94,8.94,0,0,1,855,683l-2.92,2.7q-8,5.84-16,11.77V633.65Zm8.75,36.94a4.22,4.22,0,0,0-3.35-1.51q-2.6,0-4.21,2.91c-.8,1.52-1.19,5.08-1.19,10.7V692q.11.43,6.05-5.29a14,14,0,0,0,4.21-7.13,12.88,12.88,0,0,0,.43-3.24A8.26,8.26,0,0,0,847.67,670.59Z"/>
    </g>
    <g class="deFace">
      <path d="M801.93,613.55c-1.17-12-10.86-20.19-26.24-20.19H772.1c5.62,1.82,9.21,7.75,9.21,17.61,0,.87,0,1.7-.09,2.5s.09,1.64.09,2.5c0,10.06-3.74,16-9.72,17.68h4.17C791.14,633.65,800.76,625.57,801.93,613.55Z"/>
      <polygon points="767.05 629.19 767.05 597.75 767.05 593.36 741.2 593.36 741.2 594.91 745.66 594.91 745.66 599.91 745.66 627.1 745.66 632.1 741.2 632.1 741.2 633.65 767.05 633.65 767.05 629.19"/>
      <path d="M821,697.3H807.26V676.89h7v5.33h4.82V671.59h-4.82v5.11h-7V657.37h10.87l6.7,9h5v-9.19H781.63v1.55h4.46v37.19h-4.46v1.55h49.54V686.35h-1.08C824.11,686.35,821,690.67,821,697.3Z"/>
      <path d="M827.56,587.46v-9.77h-3.13v15.79l-10.59,3.43V580.39h-3.13V598l-4.64,1.51v6.13l4.64-1.52v21.07l-4.64,1.51V633l4.64-1.52v14.91h3.13V630.29l10.59-3.39v16.63h3.13v-17.6l4.21-1.4v-6.14l-4.21,1.27V598.73l4.21-1.4v-6.25l-4.21,1.38Zm-3.13,17.27v16.06l-10.59,3.44V603.09l10.59-3.36Z"/>
      <path d="M855,683a8.94,8.94,0,0,0,2.38-3.24,20.13,20.13,0,0,0,1.12-3.57,10.9,10.9,0,0,0-2.2-4.39,8.28,8.28,0,0,0-6.48-3.13,15.75,15.75,0,0,0-4.13.62,4.24,4.24,0,0,1,2,1.29,8.26,8.26,0,0,1,1.94,5.72,12.52,12.52,0,0,1-.28,2.5,10.87,10.87,0,0,1,.28,2.5,12.88,12.88,0,0,1-.43,3.24,13.74,13.74,0,0,1-2.35,5c1.76-1.28,3.51-2.59,5.26-3.87Z"/>
      <path d="M838.92,692v-9.28c0-5.26.35-8.7,1-10.36-.35.28-.7.57-1,.88V638.65h-2.81v58.83l2.81-2.07Z"/>
    </g>
    <g class="fgBottom">
      <path d="M979.9,613.84v4h-7.85V604.12h6.84l7.35,8.35c10.51-.22,15.76-7.27,15.76-17.21,0-10.15-5.83-17.28-14.11-17.28v11.59h4.18v6.55H967.59v-6.55h4v-9.79c6.55-5,14.9-7.42,23.33-7.42,17.14,0,28.66,9.44,28.66,23.26,0,14.19-11.67,23.47-28.66,23.47C988.68,619.09,982.27,616.57,979.9,613.84Z"/>
      <path d="M1011.61,682.13V668h5l6.7,9h10.87V661.18h-8.71V667h-4.83V650.38h4.83V656h8.71v-12.6h-4.54v-6.55h30.18v6.55h-4.47v32.19h4.47v6.55Z"/>
      <path d="M1006.94,676l-4.64,1.52v17.61h-3.13V678.58L988.58,682v15.8h-3.13V683l-4.21,1.38V673.17l4.21-1.4V655.84l-4.21,1.26V646l4.21-1.41V627h3.13v16.63l10.59-3.39V624.15h3.13v14.91l4.64-1.52v11.25l-4.64,1.51v16.08l4.64-1.53Zm-18.36-5.22,10.59-3.36V651.26l-10.59,3.44Z"/>
      <path d="M960.09,636.84V602.28a16.29,16.29,0,0,1-10.91,4.54,8.28,8.28,0,0,1-6.48-3.14,10.53,10.53,0,0,1-2.48-6.48,15.91,15.91,0,0,1,1.4-6.48,9,9,0,0,1,2.38-3.24l2.92-2.7q8-5.82,16-11.77v63.83Zm-8.75-36.94a4.21,4.21,0,0,0,3.35,1.51q2.59,0,4.21-2.91c.8-1.51,1.19-5.08,1.19-10.69v-9.29q-.11-.43-6.05,5.29a14,14,0,0,0-4.21,7.13,12.44,12.44,0,0,0-.43,3.24A8.24,8.24,0,0,0,951.34,599.9Z"/>
    </g>
    <g class="fgFace">
      <path d="M992.07,594.57h-4.18V578c8.28,0,14.11,7.13,14.11,17.28,0,.87,0,1.7-.13,2.53a24.72,24.72,0,0,1,.13,2.47c0,9.94-5.25,17-15.76,17.21l-7.35-8.35h-6.84v8.75h7.85v-4c2.37,2.73,8.78,5.25,15.05,5.25,16,0,27.22-8.19,28.53-21-1.3-12.46-12.44-20.78-28.53-20.78-8.43,0-16.78,2.38-23.33,7.42v9.79h-4v1.55h24.49Z"/>
      <polygon points="1029.61 643.39 1034.15 643.39 1034.15 648.39 1034.15 655.99 1034.15 660.99 1025.44 660.99 1025.44 655.99 1025.44 655.38 1020.61 655.38 1020.61 667.01 1025.44 667.01 1025.44 666.18 1025.44 661.18 1034.15 661.18 1034.15 666.18 1034.15 676.95 1034.15 681.95 1023.28 681.95 1016.58 672.95 1011.61 672.95 1011.61 682.13 1059.79 682.13 1059.79 680.58 1055.32 680.58 1055.32 675.58 1055.32 648.39 1055.32 643.39 1059.79 643.39 1059.79 641.84 1029.61 641.84 1029.61 643.39"/>
      <path d="M1002.3,639.06v-9.91h-3.13V645.2l-10.59,3.39V632h-3.13v17.6L981.24,651v6.13l4.21-1.26v20.93l-4.21,1.4v6.25l4.21-1.38v14.77h3.13V682l10.59-3.43v16.53h3.13V677.5l4.64-1.52v-6.13l-4.64,1.53V650.3l4.64-1.51v-6.25l-4.64,1.52Zm-3.13,17.2V672.4l-10.59,3.36V654.7l10.59-3.44Z"/>
      <g>
        <path d="M960.09,583.52v9.29c0,5.25-.35,8.69-1,10.35.35-.28.7-.57,1-.88v34.56h2.81V578l-2.81,2.07Z"/>
        <path d="M944,592.48a9,9,0,0,0-2.38,3.24,20.39,20.39,0,0,0-1.12,3.57,10.9,10.9,0,0,0,2.2,4.39,8.28,8.28,0,0,0,6.48,3.14,16.18,16.18,0,0,0,4.13-.63,4.12,4.12,0,0,1-2-1.29,8.24,8.24,0,0,1-1.94-5.72v-5a12.44,12.44,0,0,1,.43-3.24,13.72,13.72,0,0,1,2.34-5l-5.25,3.87Z"/>
      </g>
    </g>
  </g>
  <g class="g5_ascend">
    <g class="bottom">
      <path class="right" d="M2100,246l-300,173.2V526a15,15,0,0,0,7.5,13l85,49.07a15,15,0,0,0,15,0l85-49.07a15,15,0,0,0,7.5-13V419.15h0l92.49-53.4a15,15,0,0,0,7.5-13Z"/>
      <path class="left" d="M1800,511v15a15,15,0,0,0,7.5,13l85,49.07a15,15,0,0,0,7.5,2V575Z"/>
    </g>
    <path class="edge" d="M1992.49,177.54l-85,49.08a15,15,0,0,0-7.5,13V346.42l-92.49,53.4a15,15,0,0,0-7.5,13V511a15,15,0,0,0,7.5,13l85,49.07a15,15,0,0,0,15,0l85-49.07a15,15,0,0,0,7.5-13V404.15l92.49-53.4a15,15,0,0,0,7.5-13V239.61a15,15,0,0,0-7.5-13l-85-49.08A15,15,0,0,0,1992.49,177.54Z"/>
    <path class="face" d="M1992.49,182.16l-81,46.76a15,15,0,0,0-7.51,13V348.73l-92.49,53.4a15,15,0,0,0-7.5,13v93.53a15,15,0,0,0,7.5,13l81,46.77a15,15,0,0,0,15,0l81-46.77a15,15,0,0,0,7.5-13V401.84l92.49-53.4a15,15,0,0,0,7.5-13V241.92a15,15,0,0,0-7.5-13l-81-46.76A15,15,0,0,0,1992.49,182.16Z"/>
    <g class="dotsBottom">
      <path d="M1985.66,380.27l-7.81-4.51a1.57,1.57,0,0,0-2.35,1.36v9a1.57,1.57,0,0,0,2.35,1.36l7.81-4.51A1.57,1.57,0,0,0,1985.66,380.27Z"/>
      <path d="M1933.7,350.27l-7.81-4.51a1.57,1.57,0,0,0-2.35,1.36v9a1.57,1.57,0,0,0,2.35,1.36l7.81-4.51A1.57,1.57,0,0,0,1933.7,350.27Z"/>
      <path d="M1975.66,397.59l-7.81-4.51a1.57,1.57,0,0,0-2.35,1.36v9a1.57,1.57,0,0,0,2.35,1.36l7.81-4.51A1.57,1.57,0,0,0,1975.66,397.59Z"/>
      <path d="M1954.68,373.93l-7.81-4.51a1.57,1.57,0,0,0-2.35,1.36v9a1.57,1.57,0,0,0,2.35,1.36l7.81-4.51A1.57,1.57,0,0,0,1954.68,373.93Z"/>
      <path d="M1923.7,367.59l-7.81-4.51a1.57,1.57,0,0,0-2.35,1.36v9a1.57,1.57,0,0,0,2.35,1.36l7.81-4.51A1.57,1.57,0,0,0,1923.7,367.59Z"/>
    </g>
    <g class="dotsFace">
      <path d="M1977.85,387.49l5.82-3.37-5.82-3.36a1.57,1.57,0,0,0-2.35,1.36v4A1.57,1.57,0,0,0,1977.85,387.49Z"/>
      <path d="M1925.89,357.49l5.82-3.37-5.82-3.36a1.57,1.57,0,0,0-2.35,1.36v4A1.57,1.57,0,0,0,1925.89,357.49Z"/>
      <path d="M1967.85,404.81l5.82-3.37-5.82-3.36a1.57,1.57,0,0,0-2.35,1.36v4A1.57,1.57,0,0,0,1967.85,404.81Z"/>
      <path d="M1946.87,381.15l5.82-3.37-5.82-3.36a1.57,1.57,0,0,0-2.35,1.36v4A1.57,1.57,0,0,0,1946.87,381.15Z"/>
      <path d="M1915.89,374.81l5.82-3.37-5.82-3.36a1.57,1.57,0,0,0-2.35,1.36v4A1.57,1.57,0,0,0,1915.89,374.81Z"/>
    </g>
    <path class="dBottom" d="M2035.15,318.37c-16.42,28.43-42.44,36.35-65.64,23s-29.29-39.69-12.88-68.12l34.56-59.86,11.35,6.55-4.46,7.73,55.74,32.19,4.46-7.74,11.35,6.56Zm1-19.36-63.1-36.43-.65,1.12c-8.21,14.22-3,29.69,17.94,41.79s36.88,9,44.73-4.61Z"/>
    <path class="dFace" d="M1991.19,218.35l-34.56,59.86c-5.72,9.91-8.7,19.56-9.18,28.5.78,14.52,8.49,26.78,22.06,34.62,23.2,13.39,49.22,5.47,65.64-23l32.32-56-9.19-5.31-4.46,7.74-55.74-32.19v-5l2.3-4Zm45,80.66v5l-1.08,1.87c-7.85,13.6-23.9,16.63-44.73,4.61-15.9-9.18-22.72-20.31-21.5-31.36a25,25,0,0,1,3.56-15.43l.65-1.12Z"/>
    <path class="gBottom" d="M1884.33,416.59l-7-4,7.85-13.59L1909,412.72l-6.84,11.85-21.81,4.36c-10.14,18.43-3.17,34.59,14,44.52,17.58,10.15,35.76,7.18,44-7.16l-20.08-11.59-4.18,7.23-11.34-6.55,24.48-42.4,11.34,6.55-4,7,17,9.8c2.18,16.38-2.06,33.23-10.48,47.82-17.14,29.68-45,40.2-68.94,26.37-24.56-14.18-29-43.67-12-73.1C1866.44,426.55,1877.21,418,1884.33,416.59Z"/>
    <path class="gFace" d="M1879.51,413.81l4.82,2.78v5c-7.12,1.38-17.89,10-24.15,20.81s-9.65,21.82-10.13,32c.73,15.11,8.18,28.1,22.12,36.15,23.95,13.83,51.8,3.31,68.94-26.37a79.83,79.83,0,0,0,11-36.85c-.08-2-.24-4-.51-6l-17-9.79v-5l1.87-3.24-9.18-5.3L1905,456.63l9.18,5.3,4.18-7.23,20.08,11.59v5c-8.28,14.34-26.46,17.31-44,7.16-12.62-7.28-19.72-17.92-18.62-30.33-.55-6,.86-12.42,4.58-19.19l21.81-4.36,4.67-8.1L1885.19,404Z"/>
  </g>
  <g class="ga3_horizon">
    <g class="bottom">
      <path class="left" d="M1500,684.16v15a15,15,0,0,0,7.5,13l85,49.07a15,15,0,0,0,15,0l92.5-53.4,92.5,53.41a15,15,0,0,0,15,0l85-49.08a15,15,0,0,0,7.5-13v-15Z"/>
      <g class="right">
        <path d="M1700,692.82l-100,55.42v15a15,15,0,0,0,7.5-2l92.5-53.4v-15"/>
        <path d="M1900,699.16a15,15,0,0,1-7.5,13l-85,49.08a15,15,0,0,1-7.5,2v-15l100-64.08Z"/>
      </g>
    </g>
    <path class="edge" d="M1792.5,524l-92.5,53.4L1607.5,524a15,15,0,0,0-15,0l-85,49.07a15,15,0,0,0-7.5,13v98.15a15,15,0,0,0,7.5,13l85,49.08a15,15,0,0,0,15,0l92.5-53.41,92.5,53.41a15,15,0,0,0,15,0l85-49.08a15,15,0,0,0,7.5-13V586a15,15,0,0,0-7.5-13l-85-49.07A15,15,0,0,0,1792.5,524Z"/>
    <path class="face" d="M1792.5,528.57,1700,582l-92.5-53.4a15,15,0,0,0-15,0l-81,46.76a15,15,0,0,0-7.5,13v93.53a15,15,0,0,0,7.5,13l81,46.77a15,15,0,0,0,15,0L1700,688.2l92.5,53.41a15,15,0,0,0,15,0l81-46.77a15,15,0,0,0,7.5-13V588.32a15,15,0,0,0-7.5-13l-81-46.76A15,15,0,0,0,1792.5,528.57Z"/>
    <g class="dotsBottom">
      <path d="M1698.43,599.68V610.5a1.88,1.88,0,0,0,2.82,1.62l9.36-5.4a1.88,1.88,0,0,0,0-3.26l-9.36-5.4A1.88,1.88,0,0,0,1698.43,599.68Z"/>
      <path d="M1693.43,629.68V640.5a1.88,1.88,0,0,0,2.82,1.62l9.36-5.4a1.88,1.88,0,0,0,0-3.26l-9.36-5.4A1.88,1.88,0,0,0,1693.43,629.68Z"/>
      <path d="M1688.43,659.68V670.5a1.88,1.88,0,0,0,2.82,1.62l9.36-5.4a1.88,1.88,0,0,0,0-3.26l-9.36-5.4A1.88,1.88,0,0,0,1688.43,659.68Z"/>
    </g>
    <g class="dotsFace">
      <path d="M1701.25,612.12l7.85-4.53-7.85-4.53a1.88,1.88,0,0,0-2.82,1.62v5.82A1.88,1.88,0,0,0,1701.25,612.12Z"/>
      <path d="M1696.25,642.12l7.85-4.53-7.85-4.53a1.88,1.88,0,0,0-2.82,1.62v5.82A1.88,1.88,0,0,0,1696.25,642.12Z"/>
      <path d="M1691.25,672.12l7.85-4.53-7.85-4.53a1.88,1.88,0,0,0-2.82,1.62v5.82A1.88,1.88,0,0,0,1691.25,672.12Z"/>
    </g>
    <g class="gaBottom">
      <path d="M1580.89,592.83v-4h7.84v13.75h-6.84l-7.34-8.35c-10.51.22-15.77,7.27-15.77,17.21,0,10.15,5.83,17.28,14.11,17.28V617.1h-4.17v-6.55h24.48v6.55h-4v9.79c-6.56,5-14.91,7.42-23.33,7.42-17.14,0-28.66-9.44-28.66-23.26,0-14.19,11.66-23.47,28.66-23.47C1572.1,587.58,1578.51,590.1,1580.89,592.83Z"/>
      <path d="M1589.89,680.28l-3.32,9.94h4.9v7.27h-16.13v-7.27h5.11l13.61-38h21.17l14.33,38.73h5.19v6.56h-32.26v-6.56H1607l-3.38-10.65Zm7-20.74-4.9,14.55h9.58Z"/>
      <path d="M1597.08,594.52l4.64-1.52V575.39h3.13v16.53l10.59-3.43v-15.8h3.13v14.77l4.21-1.38v11.25l-4.21,1.4v15.93l4.21-1.27v11.14l-4.21,1.4v17.61h-3.13V626.91l-10.59,3.38v16.06h-3.13V631.43l-4.64,1.53V621.7l4.64-1.51V604.12l-4.64,1.52Zm18.36,5.22-10.59,3.35v16.15l10.59-3.44Z"/>
      <path d="M1642.93,633.66v34.56a16.29,16.29,0,0,1,10.91-4.54,8.3,8.3,0,0,1,6.48,3.13,10.58,10.58,0,0,1,2.48,6.49,15.84,15.84,0,0,1-1.4,6.47A8.93,8.93,0,0,1,1659,683l-2.92,2.7q-8,5.82-16,11.77V633.66Zm8.75,36.94a4.23,4.23,0,0,0-3.35-1.52c-1.73,0-3.13,1-4.21,2.92-.8,1.51-1.19,5.08-1.19,10.69V692q.1.43,6-5.29a14.07,14.07,0,0,0,4.21-7.13,12.44,12.44,0,0,0,.43-3.24A8.24,8.24,0,0,0,1651.68,670.6Z"/>
    </g>
    <g class="gaFace">
      <path d="M1568.72,617.1h4.17v16.59c-8.28,0-14.11-7.13-14.11-17.28,0-.87.06-1.71.14-2.53a24.68,24.68,0,0,1-.14-2.47c0-9.94,5.26-17,15.77-17.21l7.34,8.35h6.84V593.8h-7.84v4c-2.38-2.73-8.79-5.25-15.05-5.25-16,0-27.23,8.19-28.53,20.95,1.3,12.46,12.44,20.78,28.53,20.78,8.42,0,16.77-2.38,23.33-7.42V617.1h4v-1.55h-24.48Z"/>
      <path d="M1615.23,657.2h-21.17l-13.61,38h-5.11v2.27h16.13v-2.27h-4.9v-5l3.32-9.94h13.75l3.38,10.65v5h-4.53v1.56h32.26v-1.56h-5.19Zm-13.68,21.89H1592v-5l4.9-14.55,4.68,14.55Z"/>
      <path d="M1618.57,587.46v-9.77h-3.13v15.8l-10.59,3.43V580.39h-3.13V598l-4.64,1.52v6.12l4.64-1.52v21.07l-4.64,1.51V633l4.64-1.53v14.92h3.13V630.29l10.59-3.38v16.63h3.13V625.93l4.21-1.4v-6.14l-4.21,1.27V598.73l4.21-1.4v-6.25l-4.21,1.38Zm-3.13,17.28V620.8l-10.59,3.44V603.09l10.59-3.35Z"/>
      <path d="M1659,683a8.93,8.93,0,0,0,2.38-3.25,20,20,0,0,0,1.12-3.56,10.94,10.94,0,0,0-2.2-4.4,8.3,8.3,0,0,0-6.48-3.13,15.75,15.75,0,0,0-4.13.63,4.12,4.12,0,0,1,2,1.29,8.24,8.24,0,0,1,1.94,5.72,12.42,12.42,0,0,1-.28,2.49,10.49,10.49,0,0,1,.28,2.51,12.44,12.44,0,0,1-.43,3.24,13.65,13.65,0,0,1-2.35,5c1.76-1.29,3.51-2.6,5.26-3.87Z"/>
      <path d="M1642.93,692v-9.29c0-5.26.35-8.69,1-10.35-.35.28-.7.57-1,.88V638.66h-2.81v58.83l2.81-2.07Z"/>
    </g>
    <path class="bBottom" d="M1783.07,642.07c-22.46-.43-35.56-10.51-35.56-25.92,0-17,11.8-27.07,34.27-27.07,13.53,0,19,0,32.83.72h37.87v13.11h-8.93v64.36h8.93v13.11h-37.87c-15,0-17.57.72-27.36.72-17.28,0-27.5-7.06-27.5-20C1759.75,649.85,1768.24,642.36,1783.07,642.07Zm18.15,1.44h-.72c-11,0-17.28,5.48-17.28,14.69,0,8.5,4.61,14,16.7,14h1.3Zm0-8.49V597.87h-1.73c-12.38,0-19.15,6.48-19.15,18.28,0,12.1,6.91,18.87,20.45,18.87Z"/>
    <path class="bFace" d="M1781.78,594.08c-21.25,0-33,9-34.16,24.38,1.25,14.1,14.13,23.2,35.45,23.61v5c-13.74.27-22,6.73-23.17,16.61,1.3,11.3,11.26,17.42,27.35,17.42,9.79,0,12.38-.72,27.36-.72h37.87v-8.11h-8.93V602.91h8.93V594.8h-37.87C1800.79,594.08,1795.31,594.08,1781.78,594.08Zm19.44,54.43v28.66h-1.3c-12.09,0-16.7-5.47-16.7-14a18.57,18.57,0,0,1,.17-2.4,19.69,19.69,0,0,1-.17-2.6c0-9.21,6.33-14.69,17.28-14.69h.72Zm0-45.64V640h-.43c-13.54,0-20.45-6.77-20.45-18.87,0-.85,0-1.68.12-2.48q-.12-1.21-.12-2.52c0-11.8,6.77-18.28,19.15-18.28h1.73Z"/>
  </g>
  <g class="de3_horizon">
    <g class="bottom">
      <path class="left" d="M1900,684.16v15a15,15,0,0,0,7.5,13l85,49.08a15,15,0,0,0,15,0l92.5-53.4,92.5,53.4a15,15,0,0,0,15,0l85-49.07a15,15,0,0,0,7.5-13v-15Z"/>
      <g class="right">
        <path d="M2100,692.83l-100,55.41v15a15,15,0,0,0,7.5-2l92.5-53.4v-15"/>
        <path d="M2300,699.16a15,15,0,0,1-7.5,13l-85,49.07a15,15,0,0,1-7.5,2v-15l100-64.07Z"/>
      </g>
    </g>
    <path class="edge" d="M2192.49,524l-92.5,53.4-92.5-53.4a15,15,0,0,0-15,0l-85,49.07a15,15,0,0,0-7.5,13v98.15a15,15,0,0,0,7.5,13l85,49.08a15,15,0,0,0,15,0l92.5-53.4,92.5,53.4a15,15,0,0,0,15,0l85-49.07a15,15,0,0,0,7.5-13V586a15,15,0,0,0-7.5-13l-85-49.08A15,15,0,0,0,2192.49,524Z"/>
    <path class="face" d="M2192.49,528.57,2100,582l-92.5-53.4a15,15,0,0,0-15,0l-81,46.76a15,15,0,0,0-7.5,13v93.52a15,15,0,0,0,7.5,13l81,46.76a15,15,0,0,0,15,0l92.5-53.4,92.5,53.4a15,15,0,0,0,15,0l81-46.76a15,15,0,0,0,7.5-13V588.33a15,15,0,0,0-7.5-13l-81-46.76A15,15,0,0,0,2192.49,528.57Z"/>
    <g class="dotsBottom">
      <path d="M2098.43,599.68V610.5a1.88,1.88,0,0,0,2.82,1.62l9.36-5.4a1.88,1.88,0,0,0,0-3.26l-9.36-5.4A1.88,1.88,0,0,0,2098.43,599.68Z"/>
      <path d="M2093.43,629.68V640.5a1.88,1.88,0,0,0,2.82,1.62l9.36-5.4a1.88,1.88,0,0,0,0-3.26l-9.36-5.4A1.88,1.88,0,0,0,2093.43,629.68Z"/>
      <path d="M2088.43,659.68V670.5a1.88,1.88,0,0,0,2.82,1.62l9.36-5.4a1.88,1.88,0,0,0,0-3.26l-9.36-5.4A1.88,1.88,0,0,0,2088.43,659.68Z"/>
    </g>
    <g class="dotsFace">
      <path d="M2101.25,612.12l7.85-4.53-7.85-4.53a1.88,1.88,0,0,0-2.82,1.62v5.82A1.88,1.88,0,0,0,2101.25,612.12Z"/>
      <path d="M2096.25,642.12l7.85-4.53-7.85-4.53a1.88,1.88,0,0,0-2.82,1.62v5.82A1.88,1.88,0,0,0,2096.25,642.12Z"/>
      <path d="M2091.25,672.12l7.85-4.53-7.85-4.53a1.88,1.88,0,0,0-2.82,1.62v5.82A1.88,1.88,0,0,0,2091.25,672.12Z"/>
    </g>
    <g class="deBottom">
      <path d="M1975.69,588.37c16.41,0,26.35,9.29,26.35,22.68s-9.87,22.61-26.28,22.61h-34.57v-6.55h4.47V594.92h-4.47v-6.55Zm-8.65,4.39V629.2h.65c8.21,0,13.61-6.13,13.61-18.22s-5.33-18.22-13.18-18.22Z"/>
      <path d="M2029.79,652.2v14.18h-5l-6.69-9h-10.88v14.33h7V666.6h4.82v15.62h-4.82v-5.33h-7V692.3H2021c0-6.62,3.09-10.94,9.07-10.94h1.08v16.13h-49.54v-6.55h4.47V658.75h-4.47V652.2Z"/>
      <path d="M2006.06,594.52l4.64-1.52V575.39h3.14v16.53l10.58-3.43v-15.8h3.13v14.77l4.21-1.38v11.25l-4.21,1.4v15.93l4.21-1.27v11.14l-4.21,1.41v17.6h-3.13V626.91l-10.58,3.38v16.06h-3.14V631.44l-4.64,1.52V621.7l4.64-1.51V604.12l-4.64,1.53Zm18.36,5.22-10.58,3.36v16.14l10.58-3.44Z"/>
      <path d="M2038.91,633.66v34.56a16.31,16.31,0,0,1,10.91-4.54,8.28,8.28,0,0,1,6.48,3.14,10.53,10.53,0,0,1,2.48,6.48,15.75,15.75,0,0,1-1.4,6.48A8.87,8.87,0,0,1,2055,683c-.93.86-1.91,1.76-2.91,2.7q-8,5.82-16,11.77V633.66Zm8.75,36.94a4.2,4.2,0,0,0-3.35-1.52c-1.73,0-3.13,1-4.21,2.92-.79,1.51-1.19,5.08-1.19,10.69V692q.1.43,6-5.29a14.07,14.07,0,0,0,4.21-7.13,12.44,12.44,0,0,0,.43-3.24A8.19,8.19,0,0,0,2047.66,670.6Z"/>
    </g>
    <g class="deFace">
      <path d="M2001.92,613.55c-1.17-12-10.86-20.18-26.23-20.18h-3.59c5.62,1.82,9.2,7.75,9.2,17.61,0,.86,0,1.69-.09,2.5s.09,1.63.09,2.5c0,10.06-3.74,16-9.72,17.68h4.18C1991.13,633.66,2000.76,625.58,2001.92,613.55Z"/>
      <polygon points="1967.04 629.2 1967.04 597.76 1967.04 593.37 1941.19 593.37 1941.19 594.92 1945.66 594.92 1945.66 599.92 1945.66 627.11 1945.66 632.11 1941.19 632.11 1941.19 633.66 1967.04 633.66 1967.04 629.2"/>
      <path d="M2021,697.3h-13.76V676.89h7v5.33h4.82V671.6h-4.82v5.11h-7V657.38h10.88l6.69,9h5V657.2h-48.17v1.55h4.47v37.19h-4.47v1.55h49.54V686.36h-1.08C2024.1,686.36,2021,690.68,2021,697.3Z"/>
      <path d="M2027.55,587.46v-9.77h-3.13v15.8l-10.58,3.43V580.39h-3.14V598l-4.64,1.52v6.13l4.64-1.53v21.07l-4.64,1.51V633l4.64-1.52v14.91h3.14V630.29l10.58-3.38v16.63h3.13v-17.6l4.21-1.41v-6.14l-4.21,1.27V598.73l4.21-1.4v-6.25l-4.21,1.38Zm-3.13,17.28V620.8l-10.58,3.44V603.1l10.58-3.36Z"/>
      <path d="M2055,683a8.87,8.87,0,0,0,2.38-3.24,20.39,20.39,0,0,0,1.12-3.57,10.71,10.71,0,0,0-2.2-4.39,8.28,8.28,0,0,0-6.48-3.14,15.61,15.61,0,0,0-4.12.63,4.14,4.14,0,0,1,2,1.29,8.19,8.19,0,0,1,1.94,5.72,12.42,12.42,0,0,1-.28,2.49,10.49,10.49,0,0,1,.28,2.51,12.44,12.44,0,0,1-.43,3.24,13.63,13.63,0,0,1-2.34,5c1.75-1.29,3.5-2.6,5.26-3.87C2053.09,684.78,2054.07,683.88,2055,683Z"/>
      <path d="M2038.91,692v-9.29c0-5.26.35-8.69,1-10.35-.35.28-.71.57-1,.88V638.66h-2.81v58.83l2.81-2.07Z"/>
    </g>
    <g class="fgBottom">
      <path d="M2179.89,613.84v4H2172V604.12h6.84l7.35,8.36c10.51-.22,15.77-7.28,15.77-17.21,0-10.16-5.83-17.28-14.11-17.28v11.59h4.17v6.55h-24.48v-6.55h4v-9.8c6.55-5,14.91-7.41,23.33-7.41,17.14,0,28.66,9.43,28.66,23.26,0,14.18-11.66,23.47-28.66,23.47C2188.68,619.1,2182.27,616.58,2179.89,613.84Z"/>
      <path d="M2211.61,682.14V668h5l6.69,9h10.87V661.18h-8.71V667h-4.82V650.38h4.82V656h8.71V643.4h-4.53v-6.56h30.17v6.56h-4.47v32.18h4.47v6.56Z"/>
      <path d="M2206.94,676l-4.65,1.51v17.61h-3.13V678.59L2188.58,682v15.8h-3.13V683l-4.22,1.38V673.17l4.22-1.4V655.84l-4.22,1.27V646l4.22-1.4V627h3.13V643.6l10.58-3.39V624.16h3.13v14.91l4.65-1.52V648.8l-4.65,1.51v16.07l4.65-1.52Zm-18.36-5.23,10.58-3.35V651.26l-10.58,3.45Z"/>
      <path d="M2160.09,636.84V602.28a16.21,16.21,0,0,1-10.91,4.54,8.27,8.27,0,0,1-6.48-3.13,10.59,10.59,0,0,1-2.49-6.48,15.78,15.78,0,0,1,1.41-6.48,8.78,8.78,0,0,1,2.37-3.24l2.92-2.7q8-5.84,16-11.77v63.82Zm-8.75-36.93a4.19,4.19,0,0,0,3.35,1.51c1.72,0,3.13-1,4.21-2.92q1.18-2.26,1.19-10.69v-9.28q-.12-.43-6.05,5.29a13.93,13.93,0,0,0-4.21,7.12,12.57,12.57,0,0,0-.44,3.24A8.23,8.23,0,0,0,2151.34,599.91Z"/>
    </g>
    <g class="fgFace">
      <path d="M2192.06,594.58h-4.17V578c8.28,0,14.11,7.13,14.11,17.29,0,.86-.06,1.7-.14,2.52.08.81.14,1.63.14,2.48,0,9.93-5.26,17-15.77,17.21l-7.35-8.36H2172v8.76h7.85v-4c2.38,2.74,8.79,5.26,15.05,5.26,16,0,27.23-8.2,28.53-21-1.3-12.46-12.44-20.78-28.53-20.78-8.42,0-16.78,2.37-23.33,7.41v9.8h-4v1.55h24.48Z"/>
      <polygon points="2229.61 643.4 2234.14 643.4 2234.14 648.4 2234.14 656 2234.14 661 2225.43 661 2225.43 656 2225.43 655.38 2220.61 655.38 2220.61 667.01 2225.43 667.01 2225.43 666.18 2225.43 661.18 2234.14 661.18 2234.14 666.18 2234.14 676.95 2234.14 681.95 2223.27 681.95 2216.57 672.95 2211.61 672.95 2211.61 682.14 2259.78 682.14 2259.78 680.58 2255.31 680.58 2255.31 675.58 2255.31 648.4 2255.31 643.4 2259.78 643.4 2259.78 641.84 2229.61 641.84 2229.61 643.4"/>
      <path d="M2202.29,639.07v-9.91h-3.13v16.05l-10.58,3.39V632h-3.13v17.61l-4.22,1.4v6.14l4.22-1.27v20.93l-4.22,1.4v6.25l4.22-1.38v14.77h3.13V682l10.58-3.42v16.52h3.13V677.5l4.65-1.51v-6.13l-4.65,1.52V650.31l4.65-1.51v-6.25l-4.65,1.52Zm-3.13,17.19v16.15l-10.58,3.35v-21l10.58-3.45Z"/>
      <g>
        <path d="M2160.09,583.52v9.29c0,5.26-.36,8.69-1.05,10.36.35-.28.7-.57,1.05-.89v34.56h2.8V578l-2.8,2.06Z"/>
        <path d="M2144,592.49a8.78,8.78,0,0,0-2.37,3.24,21.28,21.28,0,0,0-1.13,3.56,10.83,10.83,0,0,0,2.21,4.4,8.27,8.27,0,0,0,6.48,3.13,16.16,16.16,0,0,0,4.12-.62,4.21,4.21,0,0,1-2-1.29,8.23,8.23,0,0,1-2-5.73v-5a12.51,12.51,0,0,1,.44-3.24,13.51,13.51,0,0,1,2.34-5l-5.26,3.87Z"/>
      </g>
    </g>
  </g>
  <g class="f2_descend_new">
    <g class="bottom">
      <path class="left" d="M1400,857.37v15a15,15,0,0,0,7.5,13l85,49.08a15,15,0,0,0,15,0L1600,881l92.49,53.4a15,15,0,0,0,15,0l85-49.07a15,15,0,0,0,7.51-13v-15Z"/>
      <g class="right">
        <path d="M1600,866l-100,55.41v15a15,15,0,0,0,7.5-2L1600,881V866"/>
        <path d="M1800,872.37a15,15,0,0,1-7.51,13l-85,49.07a15,15,0,0,1-7.5,2v-15l100-64.07Z"/>
      </g>
    </g>
    <path class="edgeNew" d="M1692.5,697.16l-92.5,53.4-92.5-53.4a15,15,0,0,0-15,0l-85,49.07a15,15,0,0,0-7.5,13v98.15a15,15,0,0,0,7.5,13l85,49.08a15,15,0,0,0,15,0L1600,866l92.5,53.4a15,15,0,0,0,15,0l85-49.07a15,15,0,0,0,7.5-13V759.23a15,15,0,0,0-7.5-13l-85-49.08A15,15,0,0,0,1692.5,697.16Z"/>
    <path class="faceNew" d="M1692.5,701.78l-92.5,53.4-92.5-53.4a15,15,0,0,0-15,0l-81,46.76a15,15,0,0,0-7.5,13v93.52a15,15,0,0,0,7.5,13l81,46.76a15,15,0,0,0,15,0l92.5-53.4,92.5,53.4a15,15,0,0,0,15,0l81-46.76a15,15,0,0,0,7.5-13V761.54a15,15,0,0,0-7.5-13l-81-46.76A15,15,0,0,0,1692.5,701.78Z"/>
    <g class="dotsBottom">
      <path d="M1597.12,776.79v13a2.24,2.24,0,0,0,3.36,1.94l11.27-6.5a2.25,2.25,0,0,0,0-3.89l-11.27-6.5A2.24,2.24,0,0,0,1597.12,776.79Z"/>
      <path d="M1587.12,826.79v13a2.24,2.24,0,0,0,3.36,1.94l11.27-6.5a2.25,2.25,0,0,0,0-3.89l-11.27-6.5A2.24,2.24,0,0,0,1587.12,826.79Z"/>
    </g>
    <g class="dotsFace">
      <path d="M1600.48,791.74l10.31-6-10.31-5.94a2.24,2.24,0,0,0-3.36,1.94v8A2.24,2.24,0,0,0,1600.48,791.74Z"/>
      <path d="M1590.48,841.74l10.31-6-10.31-5.94a2.24,2.24,0,0,0-3.36,1.94v8A2.24,2.24,0,0,0,1590.48,841.74Z"/>
    </g>
    <g class="deBottom">
      <path d="M1475.69,761.57c16.41,0,26.35,9.29,26.35,22.68s-9.86,22.61-26.28,22.61h-34.57v-6.55h4.47V768.13h-4.47v-6.56ZM1467,766V802.4h.65c8.21,0,13.61-6.12,13.61-18.22S1476,766,1468.12,766Z"/>
      <path d="M1529.79,825.4v14.19h-5l-6.69-9h-10.87v14.32h7V839.8h4.82v15.63h-4.82V850.1h-7v15.41H1521c0-6.63,3.09-11,9.07-11h1.08v16.13h-49.54v-6.55h4.47V832h-4.47V825.4Z"/>
      <path d="M1506.06,767.72l4.64-1.51V748.6h3.14v16.52l10.58-3.43V745.9h3.13v14.77l4.21-1.38v11.25l-4.21,1.4v15.93l4.21-1.27v11.14l-4.21,1.4v17.6h-3.13V800.11l-10.58,3.39v16h-3.14V804.64l-4.64,1.52V794.91l4.64-1.51V777.33l-4.64,1.52Zm18.36,5.22-10.58,3.36v16.14l10.58-3.44Z"/>
      <path d="M1538.91,806.86v34.56a16.25,16.25,0,0,1,10.91-4.53,8.27,8.27,0,0,1,6.48,3.13,10.53,10.53,0,0,1,2.48,6.48,15.75,15.75,0,0,1-1.4,6.48,8.71,8.71,0,0,1-2.38,3.24l-2.91,2.7q-8,5.83-16,11.77V806.86Zm8.75,36.94a4.19,4.19,0,0,0-3.35-1.51q-2.6,0-4.21,2.91c-.79,1.52-1.19,5.08-1.19,10.7v9.28q.1.44,6-5.29a14,14,0,0,0,4.21-7.13,12.44,12.44,0,0,0,.43-3.24A8.21,8.21,0,0,0,1547.66,843.8Z"/>
    </g>
    <g class="deFace">
      <path d="M1501.92,786.76c-1.17-12-10.86-20.19-26.23-20.19h-3.59c5.62,1.82,9.2,7.75,9.2,17.61,0,.87,0,1.7-.09,2.5s.09,1.64.09,2.5c0,10.06-3.74,16-9.72,17.68h4.18C1491.13,806.86,1500.76,798.78,1501.92,786.76Z"/>
      <polygon points="1467.05 802.4 1467.05 770.97 1467.05 766.57 1441.19 766.57 1441.19 768.13 1445.66 768.13 1445.66 773.13 1445.66 800.31 1445.66 805.31 1441.19 805.31 1441.19 806.87 1467.05 806.87 1467.05 802.4"/>
      <path d="M1521,870.51h-13.75V850.1h7v5.33h4.82V844.8h-4.82v5.11h-7V830.59h10.87l6.69,9h5V830.4h-48.17V832h4.47v37.19h-4.47v1.55h49.54V859.56h-1.08C1524.1,859.56,1521,863.88,1521,870.51Z"/>
      <path d="M1527.55,760.67V750.9h-3.13v15.79l-10.58,3.43V753.6h-3.14v17.61l-4.64,1.51v6.13l4.64-1.52V798.4l-4.64,1.51v6.25l4.64-1.52v14.91h3.14v-16l10.58-3.39v16.63h3.13v-17.6l4.21-1.4V791.6l-4.21,1.27V771.94l4.21-1.4v-6.25l-4.21,1.38Zm-3.13,17.27V794l-10.58,3.44V776.3l10.58-3.36Z"/>
      <path d="M1555,856.22a8.71,8.71,0,0,0,2.38-3.24,20.13,20.13,0,0,0,1.12-3.57,10.77,10.77,0,0,0-2.2-4.39,8.27,8.27,0,0,0-6.48-3.13,15.67,15.67,0,0,0-4.12.62,4.21,4.21,0,0,1,2,1.29,8.21,8.21,0,0,1,1.94,5.72,12.52,12.52,0,0,1-.28,2.5,10.4,10.4,0,0,1,.28,2.5,12.44,12.44,0,0,1-.43,3.24,13.56,13.56,0,0,1-2.34,5c1.75-1.28,3.5-2.59,5.26-3.87Z"/>
      <path d="M1538.91,865.18V855.9c0-5.26.35-8.7,1-10.36-.35.28-.7.57-1,.88V811.86h-2.81v58.83c.94-.69,1.88-1.37,2.81-2.07Z"/>
    </g>
    <path class="fBottom" d="M1651.83,853.58V825.22h9.93l13.39,18h21.75V811.68h-17.43v11.66h-9.64V790.08h9.64v11.23h17.43v-25.2h-9.08V763h60.34v13.1h-8.93v64.37h8.93v13.1Z"/>
    <polygon class="fFace" points="1687.83 776.11 1696.9 776.11 1696.9 781.11 1696.9 801.31 1696.9 806.31 1679.47 806.31 1679.47 801.31 1679.47 795.08 1669.83 795.08 1669.83 823.34 1679.47 823.34 1679.47 816.68 1679.47 811.68 1696.9 811.68 1696.9 816.68 1696.9 843.21 1696.9 848.21 1675.15 848.21 1661.76 830.22 1651.83 830.22 1651.83 853.58 1748.16 853.58 1748.16 845.48 1739.23 845.48 1739.23 840.48 1739.23 781.11 1739.23 776.11 1748.16 776.11 1748.16 768.01 1687.83 768.01 1687.83 776.11"/>
  </g>
  <path class="firstShadowLine" d="M2106,224.4l-97.49-56.29a15,15,0,0,0-15,0L1896,224.4a15,15,0,0,0-7.51,13v98.15a15,15,0,0,1-7.5,13l-85,49.07a15,15,0,0,0-7.51,13v98.14a15,15,0,0,1-7.5,13l-85,49.08a15,15,0,0,0-7.51,13V682a15,15,0,0,1-7.5,13L1596,744a15,15,0,0,0-7.5,13V869.58a15,15,0,0,0,7.5,13l97.5,56.29a15,15,0,0,0,15,0l97.5-56.29a15,15,0,0,0,7.5-13V771.44a15,15,0,0,1,7.5-13l85-49.08a15,15,0,0,0,7.5-13V598.24a15,15,0,0,1,7.51-13l85-49.07a15,15,0,0,0,7.5-13V425a15,15,0,0,1,7.51-13L2106,363a15,15,0,0,0,7.5-13V237.39A15,15,0,0,0,2106,224.4Z"/>
  <g class="firstShadow">
    <g class="text">
      <text class="characterPitch" transform="translate(1761.81 330.51)">G</text>
      <text class="characterSymbol" transform="translate(1807.02 300.5)">7</text>
    </g>
  </g>
  <path class="firstLine" d="M2105,219.4l-97.49-56.29a15,15,0,0,0-15,0L1895,219.4a15,15,0,0,0-7.51,13v98.15a15,15,0,0,1-7.5,13l-85,49.07a15,15,0,0,0-7.51,13v98.14a15,15,0,0,1-7.5,13l-85,49.08a15,15,0,0,0-7.51,13V677a15,15,0,0,1-7.5,13L1595,739a15,15,0,0,0-7.5,13V864.58a15,15,0,0,0,7.5,13l97.5,56.29a15,15,0,0,0,15,0l97.5-56.29a15,15,0,0,0,7.5-13V766.44a15,15,0,0,1,7.5-13l85-49.08a15,15,0,0,0,7.5-13V593.24a15,15,0,0,1,7.51-13l85-49.07a15,15,0,0,0,7.5-13V420a15,15,0,0,1,7.51-13L2105,358a15,15,0,0,0,7.5-13V232.39A15,15,0,0,0,2105,219.4Z"/>
  <g class="first">
    <g class="text">
      <text class="characterPitch" transform="translate(1760.81 325.51)">G</text>
      <text class="characterSymbol" transform="translate(1806.02 295.5)">7</text>
    </g>
  </g>
  <path class="infoShadowLine" d="M813.5,508.74V410.59a15,15,0,0,0-7.5-13l-97.5-56.29a15,15,0,0,0-15,0L596,397.6a15,15,0,0,0-7.5,13V523.17a15,15,0,0,0,7.5,13l85,49.08a15,15,0,0,1,7.5,13v98.15a15,15,0,0,0,7.5,13l97.5,56.29a15,15,0,0,0,15,0L906,709.37a15,15,0,0,0,7.5-13V583.8a15,15,0,0,0-7.5-13l-85-49.07A15,15,0,0,1,813.5,508.74Z"/>
  <g class="infoShadow">
    <text class="text" transform="translate(720.37 856.5)">dyad</text>
  </g>
  <path class="infoLine" d="M812.5,503.74V405.59a15,15,0,0,0-7.5-13l-97.5-56.29a15,15,0,0,0-15,0L595,392.6a15,15,0,0,0-7.5,13V518.17a15,15,0,0,0,7.5,13l85,49.08a15,15,0,0,1,7.5,13v98.15a15,15,0,0,0,7.5,13l97.5,56.29a15,15,0,0,0,15,0L905,704.37a15,15,0,0,0,7.5-13V578.8a15,15,0,0,0-7.5-13l-85-49.07A15,15,0,0,1,812.5,503.74Z"/>
  <g class="info">
    <text class="text" transform="translate(719.37 851.5)">dyad</text>
  </g>
  <polygon class="successShadow" points="1654.99 226.18 1571.29 318.23 1546.99 299.82 1533.49 299.82 1571.29 361.18 1668.49 226.18 1654.99 226.18"/>
  <polygon class="success" points="1653.99 221.18 1570.29 313.23 1545.99 294.82 1532.49 294.82 1570.29 356.18 1667.49 221.18 1653.99 221.18"/>
</svg>
