<svg viewBox="0 0 3600 1096.97">
  <rect class="background" width="3600" height="1096.97"/>
  <g class="ab3_ascend_moved">
    <g class="bottom">
      <path class="right" d="M2200,245.94l-300,173.2V526a15,15,0,0,0,7.5,13l85,49.07a15,15,0,0,0,15,0l85-49.07a15,15,0,0,0,7.5-13V419.14h0l92.5-53.4a15,15,0,0,0,7.5-13Z"/>
      <path class="left" d="M1900,511v15a15,15,0,0,0,7.5,13l85,49.07a15,15,0,0,0,7.5,2V575Z"/>
    </g>
    <path class="edgeMoved" d="M2092.5,177.54l-85,49.07a15,15,0,0,0-7.5,13V346.41l-92.5,53.4a15,15,0,0,0-7.5,13V511a15,15,0,0,0,7.5,13l85,49.08a15,15,0,0,0,15,0l85-49.08a15,15,0,0,0,7.5-13V404.14l92.5-53.4a15,15,0,0,0,7.5-13V239.6a15,15,0,0,0-7.5-13l-85-49.07A15,15,0,0,0,2092.5,177.54Z"/>
    <path class="faceMoved" d="M2092.5,182.16l-81,46.76a15,15,0,0,0-7.5,13V348.72l-92.5,53.4a15,15,0,0,0-7.5,13v93.52a15,15,0,0,0,7.5,13l81,46.76a15,15,0,0,0,15,0l81-46.76a15,15,0,0,0,7.5-13V401.84l92.5-53.41a15,15,0,0,0,7.5-13V241.91a15,15,0,0,0-7.5-13l-81-46.76A15,15,0,0,0,2092.5,182.16Z"/>
    <g class="dotsBottom">
      <path d="M2020.9,357.57l9.36,5.41a1.88,1.88,0,0,0,2.82-1.62V350.54a1.88,1.88,0,0,0-2.82-1.63l-9.36,5.41A1.88,1.88,0,0,0,2020.9,357.57Z"/>
      <path d="M2044.38,376.9l9.36,5.41a1.88,1.88,0,0,0,2.82-1.62V369.87a1.88,1.88,0,0,0-2.82-1.63l-9.36,5.41A1.88,1.88,0,0,0,2044.38,376.9Z"/>
      <path d="M2067.86,396.23l9.36,5.41A1.88,1.88,0,0,0,2080,400V389.2a1.88,1.88,0,0,0-2.82-1.63l-9.36,5.41A1.88,1.88,0,0,0,2067.86,396.23Z"/>
    </g>
    <g class="dotsFace">
      <path d="M2030.26,353.91l-7.85,4.54,7.85,4.53a1.88,1.88,0,0,0,2.82-1.62v-5.82A1.88,1.88,0,0,0,2030.26,353.91Z"/>
      <path d="M2053.74,373.24l-7.85,4.54,7.85,4.53a1.88,1.88,0,0,0,2.82-1.62v-5.82A1.88,1.88,0,0,0,2053.74,373.24Z"/>
      <path d="M2077.22,392.57l-7.85,4.54,7.85,4.53A1.88,1.88,0,0,0,2080,400V394.2A1.88,1.88,0,0,0,2077.22,392.57Z"/>
    </g>
    <g class="cdBottom">
      <path d="M2122.18,286.79l-.54.94-9.73-5.62c-.8-7.69,1.51-16,5.72-23.3,8.57-14.84,22.5-20.1,34.47-13.19,12.28,7.09,14.82,21.28,6.36,35.93-3.17,5.49-7.19,9-11.58,10.69l3,1.73-3.93,6.8-13.16-7.6,3.42-5.92,11.8-.84c4.57-7.92,1.65-17.26-7-22.26-9.11-5.26-17.15-3.42-20.93,3.13a15.45,15.45,0,0,0-2.09,5.78C2124.27,276.69,2124.84,282.18,2122.18,286.79Z"/>
      <path d="M2080.36,288.49c-8.21,14.22-21.23,18.18-32.82,11.48s-14.65-19.85-6.44-34.07L2058.38,236l5.67,3.28-2.23,3.86,27.87,16.1,2.24-3.87,5.67,3.28Zm.51-9.68-31.55-18.22-.32.56c-4.11,7.11-1.51,14.85,9,20.9s18.44,4.49,22.36-2.31Z"/>
      <path d="M2138.33,303.43l-1,4.77,15.25,8.81-1.56,2.71-14.31-8.26-2.33,10.88,13.69,7.9-1.57,2.71-12.79-7.38-.92,4.33-9.74-5.62.9-4.35-13.8-8-1,4.28-9.64-5.57.89-4.35-15.25-8.8,1.57-2.72,14.4,8.32,2.36-10.86-13.9-8,1.57-2.71L2104,289l1-4.78,9.75,5.62-1,4.78,13.92,8,1-4.78Zm-13.7,13.28,2.39-10.84-14-8.07-2.31,10.88Z"/>
      <path d="M2079.51,327l-23.94-13.83-6-3.45a16.24,16.24,0,0,1-1.53,11.71,8.3,8.3,0,0,1-6,4.05,10.57,10.57,0,0,1-6.85-1.09,15.71,15.71,0,0,1-4.91-4.46,8.85,8.85,0,0,1-1.62-3.67c-.28-1.25-.57-2.54-.88-3.88q-1-9.84-2.2-19.73l55.27,31.92Zm-36.36-10.89a4.21,4.21,0,0,0,3-2.15c.86-1.49.72-3.2-.42-5.1q-1.37-2.17-8.66-6.38l-8-4.64c-.28-.08.24,2.54,1.56,7.88a14,14,0,0,0,4.07,7.21,12.38,12.38,0,0,0,2.59,2A8.24,8.24,0,0,0,2043.15,316.14Z"/>
    </g>
    <g class="abBottom">
      <path d="M2039,466.43c5.81-9.62,13.45-12.78,20.12-8.92,7.36,4.24,8.77,11.88,3.16,21.61-3.39,5.86-4.75,8.23-8.52,14l-9.47,16.4-5.68-3.27,2.24-3.87L2013,486.32l-2.23,3.87-5.68-3.28,9.47-16.4c3.75-6.49,4.08-7.79,6.53-12,4.32-7.48,9.93-10.15,15.55-6.91C2041.5,454.38,2042.62,459.93,2039,466.43Zm-5.15,7.5.17-.32c2.74-4.74,2-8.85-2-11.15-3.67-2.13-7.2-1.5-10.22,3.74l-.32.56Zm3.67,2.12,16.09,9.29.43-.75c3.1-5.36,2-9.91-3.13-12.87s-9.89-1.72-13.28,4.14Z"/>
      <path d="M1961,491.87l7,7.84,2.45-4.24,6.3,3.64-8.07,14-6.29-3.63,2.55-4.43-26.12-30.8,10.59-18.33,40.71,7,2.59-4.49,5.68,3.28-16.13,27.93-5.68-3.27,2.27-3.93-10.92-2.4Zm-14.46-16.42L1956.63,487l4.79-8.3Z"/>
      <path d="M1966.36,438.64l1-4.78-15.25-8.81,1.57-2.71L1968,430.6l2.32-10.88-13.68-7.9,1.57-2.71L1971,416.5l.91-4.34,9.74,5.62-.89,4.35,13.79,8,1-4.28,9.65,5.56-.89,4.35,15.24,8.81-1.56,2.71-14.41-8.32-2.36,10.86,13.91,8-1.57,2.71-12.91-7.46-1,4.79-9.74-5.63,1-4.78-13.92-8-1,4.78Zm13.71-13.29-2.39,10.84,14,8.07,2.31-10.88Z"/>
      <path d="M2018.69,426.29l23.94,13.83,6,3.45a16.24,16.24,0,0,1,1.52-11.71,8.32,8.32,0,0,1,6-4.05,10.59,10.59,0,0,1,6.86,1.09,15.82,15.82,0,0,1,4.91,4.46,8.84,8.84,0,0,1,1.62,3.68c.28,1.24.57,2.53.88,3.87q1,9.84,2.2,19.73l-55.28-31.91Zm36.36,10.9a4.22,4.22,0,0,0-3,2.14q-1.29,2.25.42,5.1,1.38,2.18,8.67,6.38l8,4.64q.43.14-1.56-7.88a14,14,0,0,0-4.06-7.21,12.65,12.65,0,0,0-2.59-2A8.24,8.24,0,0,0,2055.05,437.19Z"/>
    </g>
    <g class="cdFace">
      <path d="M2158.46,281.55a35.17,35.17,0,0,0,4.82-14.14,21.48,21.48,0,0,0-11.18-16.79c-12-6.91-25.9-1.65-34.47,13.19a42.57,42.57,0,0,0-5.77,17.67c0,.21,0,.42,0,.63l9.73,5.62.54-.94a11.94,11.94,0,0,0,1.13-2.64,10.85,10.85,0,0,0-5.34-6.09v-5a15.45,15.45,0,0,1,2.09-5.78c3.78-6.55,11.82-8.39,20.93-3.13,6.79,3.92,10,10.5,8.93,17a15.2,15.2,0,0,1-1.91,10.28l-11.8.84-1.25,2.17,11,6.35,1.76-3-.83-.48v-5C2151.27,290.54,2155.29,287,2158.46,281.55Z"/>
      <path d="M2058.38,241,2041.1,270.9a33.13,33.13,0,0,0-4.5,13c.74,6.73,4.53,12.39,10.94,16.09,11.59,6.7,24.61,2.74,32.82-11.48l15.08-26.12-3.51-2-2.24,3.87-27.87-16.1v-5l.07-.11Zm22.49,37.84v5l-.54.93c-3.92,6.8-11.95,8.32-22.36,2.31-8.57-4.95-11.87-11-10.54-17a12.22,12.22,0,0,1,1.57-8.93l.32-.56Z"/>
      <g>
        <polygon points="2136.7 311.46 2137.58 311.97 2137.32 308.2 2137.39 307.88 2128.7 302.86 2127.69 307.64 2126.75 307.1 2127.02 310.87 2124.63 321.71 2123.68 321.17 2123.04 324.28 2132.78 329.9 2133.7 325.56 2134.64 326.11 2134.37 322.34 2136.7 311.46"/>
        <polygon points="2110.14 311.97 2110.99 312.45 2110.72 308.68 2113.03 297.8 2114.03 298.38 2113.77 294.61 2113.84 294.29 2105.04 289.21 2104.04 293.99 2103.19 293.5 2103.46 297.27 2101.1 308.13 2100.13 307.57 2099.49 310.68 2109.13 316.25 2110.14 311.97"/>
      </g>
      <path d="M2046.13,314v5a4.21,4.21,0,0,1-3,2.15,8.24,8.24,0,0,1-5.93-1.18,12.38,12.38,0,0,1-2.59-2,14,14,0,0,1-4.07-7.21l-1.56-7.88.17-3.15-2.94-1.69c.55,4.8,1.1,9.6,1.61,14.38.31,1.34.6,2.63.88,3.88a8.85,8.85,0,0,0,1.62,3.67,15.71,15.71,0,0,0,4.91,4.46,10.57,10.57,0,0,0,6.85,1.09,8.3,8.3,0,0,0,6-4.05,15.6,15.6,0,0,0,1.79-5.24c-.07-.49-.26-1.47-.26-1.47l.32-3.06-3.89-2.24A4.51,4.51,0,0,1,2046.13,314Z"/>
    </g>
    <g class="abFace">
      <path d="M2044.32,509.56l9.47-16.41c3.77-5.8,5.13-8.17,8.52-14a25.57,25.57,0,0,0,3.2-8.28,12.22,12.22,0,0,0-6.36-8.33c-6.67-3.86-14.31-.7-20.12,8.92v-5a17.51,17.51,0,0,0,1.8-4.57,8.66,8.66,0,0,0-4.19-5.29c-5.62-3.24-11.23-.57-15.55,6.91-2.45,4.24-2.78,5.54-6.53,12l-7.3,12.65,3.51,2,2.23-3.87,27.88,16.09v5l-.07.12Zm-10.27-30.95-.18.32-12.4-7.17v-5l.32-.56c3-5.24,6.55-5.87,10.22-3.74,3.24,1.87,4.37,4.93,3.22,8.54C2036.06,473.14,2035.7,475.76,2034.05,478.61Zm3.5,2.44v-5l.11-.19c3.39-5.86,8-7.16,13.28-4.14,4.14,2.39,5.66,5.82,4.45,9.89.81,2.33.39,5-1.32,8l-.43.75Z"/>
      <path d="M1982.16,489.56l14-24.18-3.51-2-2.59,4.49-40.71-7-8.87,15.36,24.4,28.77v5l-.39.68,4.13,2.38,5.9-10.21-4.13-2.39-2.45,4.24-7-7.84v-5l6.88-11.91,10.92,2.4v5l-.1.18Zm-20.74-5.89-4.79,8.3-10.14-11.52v-5l14.93,3.22Z"/>
      <g>
        <polygon points="2003.59 438.93 2004.57 439.5 2004.32 435.73 1995.56 430.81 1994.55 435.1 1993.71 434.61 1993.97 438.38 1991.66 449.26 1990.66 448.69 1990.92 452.45 1990.85 452.78 1999.65 457.86 2000.66 453.07 2001.5 453.56 2001.23 449.79 2003.59 438.93"/>
        <polygon points="1976 444.2 1977 439.42 1977.95 439.96 1977.68 436.19 1980.07 425.35 1981.01 425.9 1980.76 422.13 1971.91 417.16 1971 421.5 1970.06 420.95 1970.32 424.72 1968 435.6 1967.11 435.09 1967.37 438.86 1967.31 439.18 1976 444.2"/>
      </g>
      <path d="M2070.36,445.91c-.31-1.34-.6-2.63-.88-3.87a8.84,8.84,0,0,0-1.62-3.68,15.82,15.82,0,0,0-4.91-4.46,10.59,10.59,0,0,0-6.86-1.09,8.32,8.32,0,0,0-6,4.05,15.57,15.57,0,0,0-1.79,5.25c.07.48.16,1,.27,1.46l-.32,3.06,3.88,2.24.09-4.83a4.63,4.63,0,0,1-.21-4.71,4.22,4.22,0,0,1,3-2.14,8.24,8.24,0,0,1,5.93,1.17,12.65,12.65,0,0,1,2.59,2,14,14,0,0,1,4.06,7.21q2,8,1.56,7.88l-.16,3.15,2.93,1.69C2071.42,455.49,2070.87,450.69,2070.36,445.91Z"/>
    </g>
  </g>
  <g class="cd9_descend">
    <g class="bottom">
      <path class="left" d="M600,245.94V352.75a15,15,0,0,0,7.5,13L700,419.15V526a15,15,0,0,0,7.5,13l85,49.07a15,15,0,0,0,15,0l85-49.07a15,15,0,0,0,7.5-13V419.15Z"/>
      <path class="right" d="M800,590a15,15,0,0,0,7.5-2l85-49.07a15,15,0,0,0,7.5-13V511L800,575Z"/>
    </g>
    <path class="edge" d="M792.5,226.61l-85-49.07a15,15,0,0,0-15,0l-85,49.07a15,15,0,0,0-7.5,13v98.15a15,15,0,0,0,7.5,13L700,404.15V511a15,15,0,0,0,7.5,13l85,49.07a15,15,0,0,0,15,0l85-49.07a15,15,0,0,0,7.5-13V412.81a15,15,0,0,0-7.5-13L800,346.41V239.6A15,15,0,0,0,792.5,226.61Z"/>
    <path class="face" d="M788.5,228.92l-81-46.77a15,15,0,0,0-15,0l-81,46.77a15,15,0,0,0-7.5,13v93.53a15,15,0,0,0,7.5,13L704,401.84v106.8a15,15,0,0,0,7.5,13l81,46.76a15,15,0,0,0,15,0l81-46.76a15,15,0,0,0,7.5-13V415.12a15,15,0,0,0-7.5-13L796,348.72V241.91A15,15,0,0,0,788.5,228.92Z"/>
    <g class="dotsBottom">
      <path d="M717.77,393l9.37-5.4a1.89,1.89,0,0,0,0-3.26l-9.37-5.41a1.88,1.88,0,0,0-2.81,1.63v10.82A1.87,1.87,0,0,0,717.77,393Z"/>
      <path d="M746.25,382.31l9.37-5.4a1.89,1.89,0,0,0,0-3.26l-9.37-5.41a1.88,1.88,0,0,0-2.81,1.63v10.82A1.87,1.87,0,0,0,746.25,382.31Z"/>
      <path d="M774.74,371.64l9.36-5.4a1.89,1.89,0,0,0,0-3.26l-9.36-5.4a1.88,1.88,0,0,0-2.82,1.62V370A1.88,1.88,0,0,0,774.74,371.64Z"/>
    </g>
    <g class="dotsFace">
      <path d="M717.77,393l7.86-4.53-7.86-4.54a1.88,1.88,0,0,0-2.81,1.63v5.82A1.87,1.87,0,0,0,717.77,393Z"/>
      <path d="M746.26,382.31l7.85-4.53-7.85-4.54a1.88,1.88,0,0,0-2.82,1.63v5.82A1.88,1.88,0,0,0,746.26,382.31Z"/>
      <path d="M774.74,371.64l7.85-4.53-7.85-4.54a1.88,1.88,0,0,0-2.82,1.63V370A1.88,1.88,0,0,0,774.74,371.64Z"/>
    </g>
    <g class="cdBottom">
      <path d="M709.46,268.53l.54.93-9.73,5.62c-7.06-3.16-13.11-9.31-17.32-16.61-8.57-14.84-6.16-29.53,5.81-36.44,12.29-7.1,25.84-2.2,34.3,12.45,3.17,5.49,4.19,10.72,3.47,15.38l3-1.73,3.92,6.8-13.16,7.59-3.42-5.92L722,246c-4.57-7.92-14.12-10.06-22.79-5.06-9.1,5.26-11.53,13.15-7.75,19.7a15.53,15.53,0,0,0,4,4.69C701.76,261.67,706.79,263.91,709.46,268.53Z"/>
      <path d="M690,305.59c8.2,14.22,5.13,27.47-6.47,34.17S659,342.52,650.83,328.3l-17.28-29.93,5.67-3.28,2.23,3.87,27.88-16.1L667.1,279l5.67-3.28Zm-8.13-5.29-31.55,18.22.32.56c4.11,7.11,12.11,8.73,22.58,2.68s13.12-13.72,9.19-20.52Z"/>
      <path d="M731.94,262.85l3.63,3.27,15.26-8.81,1.56,2.71-14.31,8.26,8.26,7.46,13.68-7.9,1.57,2.71-12.79,7.39,3.3,2.95-9.75,5.63L739,283.57l-13.8,8,3.21,3-9.65,5.57-3.32-2.95L700.23,306l-1.56-2.71,14.4-8.31-8.23-7.48-13.9,8-1.56-2.71,12.91-7.46-3.64-3.26,9.75-5.63,3.63,3.27,13.91-8-3.64-3.27Zm4.66,18.51-8.2-7.49-14,8.08,8.27,7.44Z"/>
      <path d="M723,325.6l-24,13.82-6,3.46a16.28,16.28,0,0,1,9.38,7.17,8.28,8.28,0,0,1,.53,7.18,10.55,10.55,0,0,1-4.37,5.39,15.73,15.73,0,0,1-6.31,2,8.91,8.91,0,0,1-4-.44l-3.8-1.18q-9-4-18.18-7.95l55.27-31.92Zm-27.61,26A4.24,4.24,0,0,0,695,348c-.86-1.49-2.41-2.22-4.63-2.19q-2.57.1-9.85,4.32l-8,4.65c-.21.2,2.32,1.06,7.61,2.59a14,14,0,0,0,8.28.08,13,13,0,0,0,3-1.24A8.3,8.3,0,0,0,695.36,351.64Z"/>
    </g>
    <g class="abBottom">
      <path d="M823.46,430.35c-5.43-9.84-4.34-18,2.33-21.89,7.36-4.24,14.68-1.65,20.29,8.08,3.39,5.86,4.75,8.23,7.9,14.4l9.47,16.4-5.68,3.27-2.23-3.86-27.87,16.09,2.23,3.87L824.22,470l-9.47-16.4c-3.74-6.48-4.7-7.43-7.15-11.67-4.32-7.48-3.82-13.67,1.79-16.91C814.26,422.19,819.62,424,823.46,430.35Zm3.91,8.22-.18-.32c-2.74-4.74-6.69-6.11-10.68-3.81-3.68,2.13-4.9,5.49-1.87,10.73l.32.56Zm3.68-2.13,16.09-9.29-.43-.75c-3.1-5.36-7.6-6.67-12.71-3.72s-6.44,7.71-3.06,13.57Z"/>
      <path d="M806.45,510.69l10.26-2.1-2.45-4.24,6.3-3.64,8.07,14-6.3,3.64-2.56-4.43L780,521.12l-10.58-18.34L795.84,471l-2.59-4.49,5.67-3.27,16.13,27.93-5.67,3.28-2.27-3.93-7.54,8.26ZM785,515l15-3-4.78-8.29Z"/>
      <path d="M763.05,479.39l-3.63-3.27-15.25,8.81-1.57-2.71L756.91,474l-8.26-7.46L735,474.4l-1.57-2.71,12.8-7.39-3.3-3,9.74-5.62,3.32,2.95,13.79-8-3.2-3,9.64-5.57,3.32,2.95,15.25-8.81,1.57,2.72-14.41,8.31,8.23,7.48,13.9-8,1.57,2.71-12.92,7.46,3.64,3.26-9.74,5.62L783,462.53l-13.92,8,3.64,3.26Zm-4.65-18.51,8.19,7.49,14-8.08-8.27-7.44Z"/>
      <path d="M778.52,427.9l24-13.82,6-3.46a16.25,16.25,0,0,1-9.38-7.18,8.29,8.29,0,0,1-.53-7.17,10.63,10.63,0,0,1,4.37-5.4,16,16,0,0,1,6.32-2,8.88,8.88,0,0,1,4,.44l3.8,1.17q9,4,18.19,8l-55.28,31.91Zm27.62-26a4.21,4.21,0,0,0,.36,3.65q1.31,2.25,4.63,2.19,2.57-.1,9.86-4.31l8-4.65c.21-.2-2.32-1.07-7.61-2.59a14,14,0,0,0-8.27-.08,12.62,12.62,0,0,0-3,1.24A8.28,8.28,0,0,0,806.14,401.86Z"/>
    </g>
    <g class="cdFace">
      <path d="M720.29,262.52l11-6.34-1.76-3.05-3,1.73a19.31,19.31,0,0,0,.09-5.05l-.09.05c0-.16,0-.32.05-.48a26.56,26.56,0,0,0-3.52-9.9c-8.46-14.65-22-19.55-34.3-12.45A21.15,21.15,0,0,0,678,243.74a36.54,36.54,0,0,0,5,14.73c4.21,7.3,10.26,13.45,17.32,16.61l7.17-4.14c-2.86-2.71-7-3.5-12-.64a15.53,15.53,0,0,1-4-4.69,11.93,11.93,0,0,1-1.43-8.66c-1.25-5.65,1.72-11.73,9.18-16,8.67-5,18.22-2.86,22.79,5.06,0,0-.43,4.25,0,5l-3.85,7.91Z"/>
      <path d="M672.77,280.72l-3.51,2,.07.11v5L641.45,304l-2.23-3.87-3.51,2,15.12,26.18c8.21,14.22,21.12,18.15,32.72,11.46,6.41-3.71,10.21-9.41,11-16.18a33.17,33.17,0,0,0-4.48-13Zm.47,46c-10.47,6.05-18.47,4.43-22.58-2.68l-.32-.56.32-4.44-.32-.56,31.55-18.22.54.94a11.56,11.56,0,0,1,1.41,8.56C685.19,315.63,681.88,321.78,673.24,326.76Z"/>
      <g>
        <polygon points="718.8 300.12 728.45 294.55 726.15 292.39 722.69 294.39 714.42 286.95 715.36 282.79 712.02 284.71 708.4 281.44 702.04 285.11 702.29 285.33 701.35 289.49 704.85 287.47 713.07 294.95 712.14 299.1 715.48 297.17 718.8 300.12"/>
        <polygon points="742.35 286.52 752.1 280.89 749.74 278.78 746.34 280.74 738.08 273.28 739.02 269.13 735.57 271.12 731.94 267.85 725.7 271.45 725.94 271.68 725 275.83 728.4 273.87 736.6 281.36 735.67 285.51 739.04 283.57 742.35 286.52"/>
      </g>
      <g>
        <path d="M694.88,343.57,691,345.81a4.87,4.87,0,0,1,3.33,1.32Z"/>
        <path d="M688.27,364.21a8.91,8.91,0,0,0,4,.44,15.73,15.73,0,0,0,6.31-2,10.55,10.55,0,0,0,4.37-5.39c.07-.2.12-.4.18-.59a8.61,8.61,0,0,0-.71-1.59,15.7,15.7,0,0,0-7.06-6.26,4.17,4.17,0,0,1,0,2.85,7.84,7.84,0,0,1-.5,1.15c0,.06.09.12.13.19a4.24,4.24,0,0,1,.37,3.66,8.3,8.3,0,0,1-4,4.55,13,13,0,0,1-3,1.24,13.6,13.6,0,0,1-3.93.58l.05,0Z"/>
        <path d="M674.41,358.63l-.26-3.09-2.94,1.69Z"/>
      </g>
    </g>
    <g class="abFace">
      <path d="M809.39,430a8.76,8.76,0,0,0-4.37,5.52,21.74,21.74,0,0,0,2.58,6.39c2.45,4.24,3.41,5.19,7.15,11.67l9.47,16.4,3.51-2-.06-.12v-5l27.87-16.09,2.23,3.86,3.51-2L854,435.94c-3.15-6.17-4.51-8.54-7.9-14.4-5.61-9.73-12.93-12.32-20.29-8.08a11.08,11.08,0,0,0-5.58,8,27.36,27.36,0,0,0,3.25,8.94l-.77,3.51a10,10,0,0,1,4.5,4.39l.18.32v5L815,450.73l-.32-.56c-1.84-3.18-2.1-5.66-1.21-7.6-1.3-3.79.05-6.38,3.08-8.13a6.81,6.81,0,0,1,5.85-.72C818.64,428.72,813.81,427.45,809.39,430ZM834,422.68c5.11-2.95,9.61-1.64,12.71,3.72l.43.75v5l-16.09,9.29-.11-.19c-1.86-3.21-2.32-6.07-1.51-8.5C828.24,428.52,829.85,425.08,834,422.68Z"/>
      <path d="M795.41,470.26l.43.74v5l-24.68,29.73L780,521.12l39.73-7.23,2.56,4.43,4.13-2.39-5.9-10.22-4.13,2.39.28.49v5l-10.26,2.1-6.88-11.91v-5l7.54-8.26,2.27,3.93,3.51-2-14-24.18ZM800,512v5l-15,3v-5l10.26-11.32Z"/>
      <g>
        <polygon points="763.05 479.39 769.29 475.78 769.05 475.56 769.99 471.4 766.59 473.37 758.39 465.88 759.32 461.72 755.96 463.67 752.64 460.72 746.2 464.3 745.26 468.46 748.65 466.5 756.91 473.95 755.98 478.11 759.42 476.12 763.05 479.39"/>
        <polygon points="786.6 465.79 792.95 462.13 792.7 461.91 793.64 457.75 790.15 459.77 781.92 452.29 782.85 448.14 779.51 450.07 776.19 447.12 769.75 450.7 768.84 454.85 772.3 452.85 780.58 460.29 779.64 464.45 782.97 462.53 786.6 465.79"/>
      </g>
      <g>
        <path d="M807.16,411.37l-.54,3.56,3.88-2.24A4.92,4.92,0,0,1,807.16,411.37Z"/>
        <path d="M827.08,399.87l.26,3.09,2.94-1.7Z"/>
        <path d="M813.22,394.29a8.74,8.74,0,0,0-4-.44,16,16,0,0,0-6.32,2,10.63,10.63,0,0,0-4.37,5.4c-.07.2-.12.39-.17.59a7.62,7.62,0,0,0,.7,1.58,15.8,15.8,0,0,0,7.07,6.27l.36-4.2a4.21,4.21,0,0,1-.36-3.65,8.28,8.28,0,0,1,4-4.55,12.71,12.71,0,0,1,3-1.24,13.6,13.6,0,0,1,3.93-.58l-.05,0Z"/>
      </g>
    </g>
  </g>
  <g class="ab3_descend_moved">
    <g class="bottom">
      <path class="left" d="M2600,245.94V352.75a15,15,0,0,0,7.5,13l92.5,53.41V526a15,15,0,0,0,7.5,13l85,49.07a15,15,0,0,0,15,0l85-49.07a15,15,0,0,0,7.5-13V419.15Z"/>
      <path class="right" d="M2800,590a15,15,0,0,0,7.5-2l85-49.07a15,15,0,0,0,7.5-13V511L2800,575Z"/>
    </g>
    <path class="edgeMoved" d="M2792.5,226.61l-85-49.07a15,15,0,0,0-15,0l-85,49.07a15,15,0,0,0-7.5,13v98.15a15,15,0,0,0,7.5,13l92.5,53.41V511a15,15,0,0,0,7.5,13l85,49.07a15,15,0,0,0,15,0l85-49.07a15,15,0,0,0,7.5-13V412.81a15,15,0,0,0-7.5-13L2800,346.41V239.6A15,15,0,0,0,2792.5,226.61Z"/>
    <path class="faceMoved" d="M2788.5,228.92l-81-46.77a15,15,0,0,0-15,0l-81,46.77a15,15,0,0,0-7.5,13v93.53a15,15,0,0,0,7.5,13l92.5,53.41v106.8a15,15,0,0,0,7.5,13l81,46.76a15,15,0,0,0,15,0l81-46.76a15,15,0,0,0,7.5-13V415.12a15,15,0,0,0-7.5-13l-92.5-53.4V241.91A15,15,0,0,0,2788.5,228.92Z"/>
    <g class="dotsBottom">
      <path d="M2782.22,357.57l-9.36,5.41a1.88,1.88,0,0,0,0,3.26l9.36,5.4A1.88,1.88,0,0,0,2785,370V359.2A1.88,1.88,0,0,0,2782.22,357.57Z"/>
      <path d="M2753.74,368.24l-9.36,5.41a1.88,1.88,0,0,0,0,3.26l9.36,5.4a1.88,1.88,0,0,0,2.82-1.62V369.87A1.88,1.88,0,0,0,2753.74,368.24Z"/>
      <path d="M2725.26,378.91l-9.36,5.41a1.87,1.87,0,0,0,0,3.25l9.36,5.41a1.88,1.88,0,0,0,2.82-1.62V380.54A1.88,1.88,0,0,0,2725.26,378.91Z"/>
    </g>
    <g class="dotsFace">
      <path d="M2782.22,362.57l-7.85,4.54,7.85,4.53A1.88,1.88,0,0,0,2785,370V364.2A1.88,1.88,0,0,0,2782.22,362.57Z"/>
      <path d="M2753.74,373.24l-7.85,4.54,7.85,4.53a1.88,1.88,0,0,0,2.82-1.62v-5.82A1.88,1.88,0,0,0,2753.74,373.24Z"/>
      <path d="M2725.26,383.91l-7.85,4.54,7.85,4.53a1.88,1.88,0,0,0,2.82-1.62v-5.82A1.88,1.88,0,0,0,2725.26,383.91Z"/>
    </g>
    <g class="cdBottom">
      <path d="M2790.54,482l-.54-.93,9.73-5.62c7.06,3.16,13.11,9.31,17.32,16.61,8.57,14.84,6.16,29.53-5.81,36.44-12.29,7.1-25.84,2.2-34.3-12.45-3.17-5.49-4.19-10.72-3.47-15.38l-3,1.73-3.93-6.8,13.16-7.59,3.42,5.92L2778,504.58c4.57,7.92,14.12,10.06,22.79,5.06,9.1-5.26,11.53-13.15,7.75-19.7a15.53,15.53,0,0,0-4-4.69C2798.25,488.88,2793.21,486.64,2790.54,482Z"/>
      <path d="M2810,445c-8.21-14.22-5.14-27.47,6.46-34.17s24.51-2.76,32.72,11.46l17.28,29.93-5.67,3.28-2.23-3.87-27.88,16.1,2.24,3.86-5.68,3.28Zm8.12,5.28L2849.66,432l-.32-.56c-4.11-7.11-12.11-8.73-22.58-2.68s-13.11,13.72-9.19,20.52Z"/>
      <path d="M2768.06,487.7l-3.63-3.27-15.26,8.81-1.56-2.71,14.31-8.26-8.26-7.46-13.68,7.9-1.57-2.71,12.79-7.39-3.3-2.95,9.75-5.63,3.32,3,13.79-8-3.2-3,9.64-5.57,3.32,2.95,15.25-8.8,1.57,2.71-14.41,8.31,8.23,7.48,13.9-8,1.56,2.71-12.91,7.46,3.64,3.26-9.74,5.63-3.63-3.27-13.92,8,3.64,3.27Zm-4.66-18.51,8.2,7.49,14-8.08-8.27-7.44Z"/>
      <path d="M2777,425,2801,411.13l6-3.46a16.28,16.28,0,0,1-9.38-7.17,8.31,8.31,0,0,1-.53-7.18,10.55,10.55,0,0,1,4.37-5.39,15.73,15.73,0,0,1,6.32-2,8.88,8.88,0,0,1,4,.44l3.8,1.18q9,4,18.18,8l-55.27,31.92Zm27.62-26a4.23,4.23,0,0,0,.36,3.66c.86,1.49,2.41,2.22,4.63,2.19q2.57-.11,9.86-4.32l8-4.65c.21-.2-2.32-1.06-7.61-2.59a14,14,0,0,0-8.28-.08,13,13,0,0,0-3,1.24A8.24,8.24,0,0,0,2804.65,398.91Z"/>
    </g>
    <g class="abBottom">
      <path d="M2676.54,320.2c5.43,9.84,4.35,18-2.33,21.89-7.36,4.25-14.67,1.65-20.29-8.08-3.38-5.86-4.75-8.23-7.9-14.39l-9.47-16.4,5.68-3.28,2.23,3.87,27.88-16.1-2.24-3.86,5.68-3.28,9.47,16.4c3.74,6.49,4.7,7.43,7.15,11.67,4.32,7.48,3.82,13.67-1.79,16.91C2685.74,328.36,2680.38,326.56,2676.54,320.2Zm-3.91-8.21.18.31c2.74,4.74,6.69,6.11,10.68,3.81,3.68-2.12,4.9-5.49,1.88-10.73l-.33-.56Zm-3.68,2.12-16.09,9.29.44.75c3.09,5.36,7.59,6.67,12.7,3.72s6.44-7.71,3.06-13.57Z"/>
      <path d="M2693.55,239.86l-10.26,2.1,2.45,4.24-6.3,3.64-8.07-14,6.3-3.64,2.56,4.43,39.73-7.22,10.58,18.33-26.38,31.78,2.59,4.49-5.67,3.28L2685,259.38l5.67-3.28,2.27,3.93,7.54-8.26Zm21.45-4.32-15,3,4.79,8.3Z"/>
      <path d="M2737,271.16l3.63,3.27,15.25-8.81,1.57,2.71-14.31,8.27,8.26,7.45,13.68-7.9,1.57,2.71-12.8,7.39,3.3,3-9.74,5.62-3.32-2.95-13.79,8,3.2,3-9.64,5.57-3.32-2.94-15.25,8.8-1.57-2.72,14.41-8.31-8.23-7.47-13.9,8-1.57-2.71,12.92-7.46-3.64-3.26,9.74-5.62L2717,288l13.92-8-3.64-3.26Zm4.66,18.51-8.2-7.48-14,8.07,8.27,7.44Z"/>
      <path d="M2721.48,322.65l-23.95,13.82-6,3.46a16.25,16.25,0,0,1,9.38,7.18,8.31,8.31,0,0,1,.53,7.18,10.6,10.6,0,0,1-4.37,5.39,15.73,15.73,0,0,1-6.32,2,8.74,8.74,0,0,1-4-.44l-3.8-1.17q-9-4-18.18-8l55.27-31.91Zm-27.62,26a4.21,4.21,0,0,0-.36-3.65q-1.3-2.25-4.63-2.19-2.57.11-9.86,4.32l-8,4.64c-.21.2,2.32,1.07,7.61,2.59a14,14,0,0,0,8.28.08,12.54,12.54,0,0,0,3-1.24A8.21,8.21,0,0,0,2693.86,348.69Z"/>
    </g>
    <g class="cdFace">
      <path d="M2776.94,516.07c8.46,14.65,22,19.55,34.3,12.45A21.13,21.13,0,0,0,2822,511.81a36.49,36.49,0,0,0-5-14.73c-4.21-7.3-10.26-13.45-17.32-16.61l-7.16,4.14c2.85,2.71,7,3.5,12,.64a15.53,15.53,0,0,1,4,4.69,11.93,11.93,0,0,1,1.43,8.66c1.25,5.65-1.72,11.73-9.18,16-8.67,5-18.22,2.86-22.79-5.06v-5l3.85-7.91-2.1-3.64-11,6.34,1.76,3.05,3-1.73v5c0,.16,0,.32,0,.48A26.56,26.56,0,0,0,2776.94,516.07Z"/>
      <path d="M2816.45,415.79c-6.41,3.71-10.21,9.41-10.95,16.18a33,33,0,0,0,4.49,13l17.24,29.87,3.51-2-.07-.11v-5l27.88-16.1,2.23,3.87,3.51-2-15.12-26.18C2841,413,2828.05,409.1,2816.45,415.79ZM2849.66,432v5l-31.55,18.21-.54-.93a11.59,11.59,0,0,1-1.41-8.55c-1.35-5.84,2-12,10.6-17,10.47-6.05,18.47-4.43,22.58,2.68Z"/>
      <g>
        <polygon points="2768.06 487.7 2774.3 484.09 2774.06 483.87 2775 479.72 2771.6 481.68 2763.4 474.19 2764.33 470.03 2760.97 471.98 2757.65 469.03 2751.2 472.61 2750.27 476.77 2753.66 474.81 2761.92 482.26 2760.98 486.42 2764.43 484.43 2768.06 487.7"/>
        <polygon points="2791.61 474.11 2797.96 470.44 2797.71 470.22 2798.65 466.06 2795.16 468.08 2786.93 460.6 2787.86 456.45 2784.52 458.38 2781.2 455.43 2774.76 459.01 2773.85 463.16 2777.31 461.16 2785.58 468.6 2784.65 472.76 2787.98 470.84 2791.61 474.11"/>
      </g>
      <g>
        <path d="M2811.73,391.34a8.88,8.88,0,0,0-4-.44,15.73,15.73,0,0,0-6.32,2,10.55,10.55,0,0,0-4.37,5.39c-.07.2-.12.4-.18.59a8.61,8.61,0,0,0,.71,1.59,15.75,15.75,0,0,0,7.06,6.26l.37-4.19a4.23,4.23,0,0,1-.36-3.66,8.24,8.24,0,0,1,4-4.55,13,13,0,0,1,3-1.24,13.6,13.6,0,0,1,3.93-.58l0,0Z"/>
        <path d="M2805.67,408.42l-.55,3.56,3.88-2.24A4.87,4.87,0,0,1,2805.67,408.42Z"/>
        <path d="M2825.59,396.92l.26,3.09,2.94-1.69Z"/>
      </g>
    </g>
    <g class="abFace">
      <path d="M2690.61,325.55A8.76,8.76,0,0,0,2695,320a21.74,21.74,0,0,0-2.58-6.39c-2.45-4.24-3.41-5.18-7.15-11.67l-9.47-16.4-3.51,2,.07.11v5l-27.88,16.1-2.23-3.87-3.51,2,7.3,12.65c3.15,6.16,4.52,8.53,7.9,14.39,5.62,9.73,12.93,12.33,20.29,8.08a11.09,11.09,0,0,0,5.58-7.94,27.32,27.32,0,0,0-3.25-8.95l.77-3.51a10,10,0,0,1-4.5-4.39l-.18-.31v-5l12.41-7.17.33.56c1.83,3.18,2.1,5.67,1.2,7.61,1.31,3.78-.05,6.37-3.08,8.12a6.79,6.79,0,0,1-5.84.72C2681.37,326.84,2686.19,328.1,2690.61,325.55ZM2666,332.87c-5.11,2.95-9.61,1.64-12.7-3.72l-.44-.75v-5l16.09-9.29.11.19c1.86,3.21,2.32,6.07,1.51,8.5C2671.76,327,2670.15,330.48,2666,332.87Z"/>
      <path d="M2704.59,285.29l-.43-.74v-5l24.68-29.73L2720,234.44l-39.73,7.22-2.56-4.43-4.13,2.39,5.9,10.22,4.13-2.39-.28-.49v-5l10.26-2.1,6.88,11.91v5l-7.54,8.26-2.27-3.93-3.51,2,14,24.19ZM2700,243.57v-5l15-3v5l-10.25,11.33Z"/>
      <g>
        <polygon points="2723.81 308.43 2733.45 302.86 2731.16 300.7 2727.7 302.7 2719.43 295.26 2720.36 291.1 2717.03 293.02 2713.4 289.76 2707.05 293.42 2707.3 293.64 2706.36 297.8 2709.85 295.79 2718.08 303.26 2717.15 307.41 2720.49 305.49 2723.81 308.43"/>
        <polygon points="2747.36 294.83 2757.11 289.21 2754.74 287.09 2751.35 289.05 2743.09 281.6 2744.03 277.44 2740.58 279.43 2736.95 276.16 2730.71 279.77 2730.95 279.99 2730.01 284.15 2733.41 282.19 2741.61 289.68 2740.68 293.83 2744.04 291.88 2747.36 294.83"/>
      </g>
      <g>
        <path d="M2693.39,340.63l-3.89,2.24a8.83,8.83,0,0,1,3.34,1.31Z"/>
        <path d="M2686.78,361.26a8.74,8.74,0,0,0,4,.44,15.73,15.73,0,0,0,6.32-2,10.6,10.6,0,0,0,4.37-5.39c.07-.2.12-.4.18-.6a8.24,8.24,0,0,0-.71-1.58,15.83,15.83,0,0,0-7.06-6.27,4.17,4.17,0,0,1,0,2.85,6.9,6.9,0,0,1-.5,1.15,2.43,2.43,0,0,1,.14.2,4.21,4.21,0,0,1,.36,3.65,8.21,8.21,0,0,1-4,4.55,12.54,12.54,0,0,1-3,1.24,13.6,13.6,0,0,1-3.93.58l.05,0Z"/>
        <path d="M2672.92,355.69l-.26-3.1-2.94,1.7Z"/>
      </g>
    </g>
  </g>
  <g class="g9_horizon">
    <g class="bottom">
      <path class="left" d="M2600,684.16v15a15,15,0,0,0,7.5,13l85,49.07a15,15,0,0,0,15,0l92.5-53.4,92.5,53.41a15,15,0,0,0,15,0l85-49.08a15,15,0,0,0,7.5-13v-15Z"/>
      <g class="right">
        <path d="M2800,692.82l-100,55.42v15a15,15,0,0,0,7.5-2l92.5-53.4v-15"/>
        <path d="M3000,699.16a15,15,0,0,1-7.5,13l-85,49.08a15,15,0,0,1-7.5,2v-15l100-64.08Z"/>
      </g>
    </g>
    <path class="edge" d="M2892.5,524l-92.5,53.4L2707.5,524a15,15,0,0,0-15,0l-85,49.07a15,15,0,0,0-7.5,13v98.15a15,15,0,0,0,7.5,13l85,49.08a15,15,0,0,0,15,0l92.5-53.41,92.5,53.41a15,15,0,0,0,15,0l85-49.08a15,15,0,0,0,7.5-13V586a15,15,0,0,0-7.5-13l-85-49.07A15,15,0,0,0,2892.5,524Z"/>
    <path class="face" d="M2892.5,528.57,2800,582l-92.5-53.4a15,15,0,0,0-15,0l-81,46.76a15,15,0,0,0-7.5,13v93.53a15,15,0,0,0,7.5,13l81,46.77a15,15,0,0,0,15,0L2800,688.2l92.5,53.41a15,15,0,0,0,15,0l81-46.77a15,15,0,0,0,7.5-13V588.32a15,15,0,0,0-7.5-13l-81-46.76A15,15,0,0,0,2892.5,528.57Z"/>
    <g class="dotsBottom">
      <path d="M2801.56,670.58V659.77a1.88,1.88,0,0,0-2.82-1.63l-9.37,5.41a1.88,1.88,0,0,0,0,3.25l9.37,5.41A1.88,1.88,0,0,0,2801.56,670.58Z"/>
      <path d="M2806.56,640.58V629.77a1.88,1.88,0,0,0-2.82-1.63l-9.37,5.41a1.88,1.88,0,0,0,0,3.25l9.37,5.41A1.88,1.88,0,0,0,2806.56,640.58Z"/>
      <path d="M2811.56,610.58V599.77a1.88,1.88,0,0,0-2.82-1.63l-9.37,5.41a1.88,1.88,0,0,0,0,3.25l9.37,5.41A1.88,1.88,0,0,0,2811.56,610.58Z"/>
    </g>
    <g class="dotsFace">
      <path d="M2798.74,663.14l-7.85,4.53,7.85,4.54a1.88,1.88,0,0,0,2.82-1.63v-5.81A1.88,1.88,0,0,0,2798.74,663.14Z"/>
      <path d="M2803.74,633.14l-7.85,4.53,7.85,4.54a1.88,1.88,0,0,0,2.82-1.63v-5.81A1.88,1.88,0,0,0,2803.74,633.14Z"/>
      <path d="M2808.74,603.14l-7.85,4.53,7.85,4.54a1.88,1.88,0,0,0,2.82-1.63v-5.81A1.88,1.88,0,0,0,2808.74,603.14Z"/>
    </g>
    <path class="eBottom" d="M2853.2,680.46V652.09h9.93l13.4,18h21.74V641.44h-14v10.22h-9.65V620.41h9.65v10.66h14V600.25h-27.5c0,13.25-6.2,21.89-18.15,21.89h-2.16V589.89h99.07V603h-8.93v64.37h8.93v13.1Z"/>
    <path class="gBottom" d="M2731.39,599v-8.07h15.69V618.4H2733.4l-14.68-16.71c-21,.44-31.54,14.55-31.54,34.42,0,20.3,11.67,34.56,28.23,34.56V647.48h-8.36v-13.1h49v13.1H2748v19.59c-13.11,10.08-29.81,14.83-46.66,14.83C2667,681.9,2644,663,2644,635.39c0-28.37,23.33-46.94,57.31-46.94C2713.82,588.45,2726.64,593.49,2731.39,599Z"/>
    <path class="eFace" d="M2850.46,622.14h2.16c12,0,18.15-8.64,18.15-21.89h27.5v35.82h-14V625.41h-9.65v26.25h9.65V641.44h14v33.65h-21.74l-13.4-18h-9.93v23.37h96.33v-8.1h-8.93V603h8.93v-8.1h-99.07Z"/>
    <path class="gFace" d="M2707.05,647.48h8.36v28.19c-16.56,0-28.23-14.26-28.23-34.56,0-.86,0-1.7.07-2.53s-.07-1.64-.07-2.47c0-19.87,10.51-34,31.54-34.42l14.68,16.71h13.68V595.89h-15.69V604c-4.75-5.47-17.57-10.51-30.1-10.51-33,0-55.9,17.48-57.24,44.42,1.34,26.29,24,44,57.24,44,16.85,0,33.55-4.75,46.66-14.83V647.48H2756v-8.1h-49Z"/>
  </g>
  <g class="g9_horizon">
    <g class="bottom">
      <path class="left" d="M600,684.16v15a15,15,0,0,0,7.5,13l85,49.07a15,15,0,0,0,15,0l92.5-53.4,92.5,53.41a15,15,0,0,0,15,0l85-49.08a15,15,0,0,0,7.5-13v-15Z"/>
      <g class="right">
        <path d="M800,692.82,700,748.23v15a15,15,0,0,0,7.5-2l92.5-53.4v-15"/>
        <path d="M1000,699.16a15,15,0,0,1-7.5,13l-85,49.08a15,15,0,0,1-7.5,2v-15l100-64.08Z"/>
      </g>
    </g>
    <path class="edge" d="M892.5,524,800,577.35,707.5,524a15,15,0,0,0-15,0L607.5,573a15,15,0,0,0-7.5,13v98.15a15,15,0,0,0,7.5,13l85,49.08a15,15,0,0,0,15,0L800,692.82l92.5,53.41a15,15,0,0,0,15,0l85-49.08a15,15,0,0,0,7.5-13V586a15,15,0,0,0-7.5-13L907.5,524A15,15,0,0,0,892.5,524Z"/>
    <path class="face" d="M892.5,528.57,800,582l-92.5-53.41a15,15,0,0,0-15,0l-81,46.77a15,15,0,0,0-7.5,13v93.53a15,15,0,0,0,7.5,13l81,46.77a15,15,0,0,0,15,0L800,688.2l92.5,53.41a15,15,0,0,0,15,0l81-46.77a15,15,0,0,0,7.5-13V588.32a15,15,0,0,0-7.5-13l-81-46.76A15,15,0,0,0,892.5,528.57Z"/>
    <g class="dotsBottom">
      <path d="M801.56,670.58V659.77a1.88,1.88,0,0,0-2.82-1.63l-9.36,5.41a1.87,1.87,0,0,0,0,3.25l9.36,5.41A1.88,1.88,0,0,0,801.56,670.58Z"/>
      <path d="M806.56,640.58V629.77a1.88,1.88,0,0,0-2.82-1.63l-9.36,5.41a1.87,1.87,0,0,0,0,3.25l9.36,5.41A1.88,1.88,0,0,0,806.56,640.58Z"/>
      <path d="M811.56,610.58V599.77a1.88,1.88,0,0,0-2.82-1.63l-9.36,5.41a1.87,1.87,0,0,0,0,3.25l9.36,5.41A1.88,1.88,0,0,0,811.56,610.58Z"/>
    </g>
    <g class="dotsFace">
      <path d="M798.74,663.14l-7.85,4.53,7.85,4.54a1.88,1.88,0,0,0,2.82-1.63v-5.81A1.88,1.88,0,0,0,798.74,663.14Z"/>
      <path d="M803.74,633.14l-7.85,4.53,7.85,4.54a1.88,1.88,0,0,0,2.82-1.63v-5.81A1.88,1.88,0,0,0,803.74,633.14Z"/>
      <path d="M808.74,603.14l-7.85,4.53,7.85,4.54a1.88,1.88,0,0,0,2.82-1.63v-5.81A1.88,1.88,0,0,0,808.74,603.14Z"/>
    </g>
    <path class="eBottom" d="M853.2,680.46V652.09h9.93l13.4,18h21.74V641.44h-14v10.22h-9.65V620.41h9.65v10.66h14V600.25h-27.5c0,13.25-6.2,21.89-18.15,21.89h-2.16V589.89h99.07V603h-8.92v64.37h8.92v13.1Z"/>
    <path class="gBottom" d="M731.39,599v-8.07h15.7V618.4H733.41l-14.69-16.71c-21,.43-31.54,14.55-31.54,34.42,0,20.3,11.67,34.56,28.23,34.56V647.48h-8.36v-13.1h49v13.1H748v19.59c-13.1,10.08-29.81,14.83-46.66,14.83C667,681.9,644,663,644,635.39c0-28.37,23.33-46.94,57.31-46.94C713.82,588.45,726.64,593.49,731.39,599Z"/>
    <path class="eFace" d="M850.46,622.14h2.16c12,0,18.15-8.64,18.15-21.89h27.5v35.82h-14V625.41h-9.65v26.25h9.65V641.44h14v33.65H876.53l-13.4-18H853.2v23.37h96.33v-8.1h-8.92V603h8.92v-8.1H850.46Z"/>
    <path class="gFace" d="M707.05,647.48h8.36v28.19c-16.56,0-28.23-14.26-28.23-34.56,0-.86,0-1.7.07-2.53s-.07-1.64-.07-2.47c0-19.87,10.51-34,31.54-34.42l14.69,16.71h13.68V595.89h-15.7V604c-4.75-5.47-17.57-10.51-30.1-10.51-33,0-55.9,17.48-57.24,44.42,1.34,26.29,24,44,57.24,44,16.85,0,33.56-4.75,46.66-14.83V647.48H756v-8.1h-49Z"/>
  </g>
  <g class="g9_horizon">
    <g class="bottom">
      <path class="left" d="M1600,684.16v15a15,15,0,0,0,7.5,13l85,49.07a15,15,0,0,0,15,0l92.5-53.4,92.5,53.41a15,15,0,0,0,15,0l85-49.08a15,15,0,0,0,7.5-13v-15Z"/>
      <g class="right">
        <path d="M1800,692.82l-100,55.42v15a15,15,0,0,0,7.5-2l92.5-53.4v-15"/>
        <path d="M2000,699.16a15,15,0,0,1-7.5,13l-85,49.08a15,15,0,0,1-7.5,2v-15l100-64.08Z"/>
      </g>
    </g>
    <path class="edge" d="M1892.5,524l-92.5,53.4L1707.5,524a15,15,0,0,0-15,0l-85,49.07a15,15,0,0,0-7.5,13v98.15a15,15,0,0,0,7.5,13l85,49.08a15,15,0,0,0,15,0l92.5-53.41,92.5,53.41a15,15,0,0,0,15,0l85-49.08a15,15,0,0,0,7.5-13V586a15,15,0,0,0-7.5-13l-85-49.07A15,15,0,0,0,1892.5,524Z"/>
    <path class="face" d="M1892.5,528.57,1800,582l-92.5-53.4a15,15,0,0,0-15,0l-81,46.76a15,15,0,0,0-7.5,13v93.53a15,15,0,0,0,7.5,13l81,46.77a15,15,0,0,0,15,0L1800,688.2l92.5,53.41a15,15,0,0,0,15,0l81-46.77a15,15,0,0,0,7.5-13V588.32a15,15,0,0,0-7.5-13l-81-46.76A15,15,0,0,0,1892.5,528.57Z"/>
    <g class="dotsBottom">
      <path d="M1801.56,670.58V659.77a1.88,1.88,0,0,0-2.82-1.63l-9.37,5.41a1.88,1.88,0,0,0,0,3.25l9.37,5.41A1.88,1.88,0,0,0,1801.56,670.58Z"/>
      <path d="M1806.56,640.58V629.77a1.88,1.88,0,0,0-2.82-1.63l-9.37,5.41a1.88,1.88,0,0,0,0,3.25l9.37,5.41A1.88,1.88,0,0,0,1806.56,640.58Z"/>
      <path d="M1811.56,610.58V599.77a1.88,1.88,0,0,0-2.82-1.63l-9.37,5.41a1.88,1.88,0,0,0,0,3.25l9.37,5.41A1.88,1.88,0,0,0,1811.56,610.58Z"/>
    </g>
    <g class="dotsFace">
      <path d="M1798.74,663.14l-7.85,4.53,7.85,4.54a1.88,1.88,0,0,0,2.82-1.63v-5.81A1.88,1.88,0,0,0,1798.74,663.14Z"/>
      <path d="M1803.74,633.14l-7.85,4.53,7.85,4.54a1.88,1.88,0,0,0,2.82-1.63v-5.81A1.88,1.88,0,0,0,1803.74,633.14Z"/>
      <path d="M1808.74,603.14l-7.85,4.53,7.85,4.54a1.88,1.88,0,0,0,2.82-1.63v-5.81A1.88,1.88,0,0,0,1808.74,603.14Z"/>
    </g>
    <path class="eBottom" d="M1853.2,680.46V652.09h9.93l13.4,18h21.74V641.44h-14v10.22h-9.65V620.41h9.65v10.66h14V600.25h-27.5c0,13.25-6.2,21.89-18.15,21.89h-2.16V589.89h99.07V603h-8.93v64.37h8.93v13.1Z"/>
    <path class="gBottom" d="M1731.39,599v-8.07h15.69V618.4h-13.67l-14.69-16.71c-21,.44-31.54,14.55-31.54,34.42,0,20.3,11.67,34.56,28.23,34.56V647.48h-8.36v-13.1h49v13.1H1748v19.59c-13.1,10.08-29.81,14.83-46.66,14.83C1667,681.9,1644,663,1644,635.39c0-28.37,23.33-46.94,57.31-46.94C1713.82,588.45,1726.64,593.49,1731.39,599Z"/>
    <path class="eFace" d="M1850.46,622.14h2.16c12,0,18.15-8.64,18.15-21.89h27.5v35.82h-14V625.41h-9.65v26.25h9.65V641.44h14v33.65h-21.74l-13.4-18h-9.93v23.37h96.33v-8.1h-8.93V603h8.93v-8.1h-99.07Z"/>
    <path class="gFace" d="M1707.05,647.48h8.36v28.19c-16.56,0-28.23-14.26-28.23-34.56,0-.86,0-1.7.07-2.53s-.07-1.64-.07-2.47c0-19.87,10.51-34,31.54-34.42l14.69,16.71h13.67V595.89h-15.69V604c-4.75-5.47-17.57-10.51-30.1-10.51-33,0-55.9,17.48-57.24,44.42,1.34,26.29,24,44,57.24,44,16.85,0,33.56-4.75,46.66-14.83V647.48H1756v-8.1h-49Z"/>
  </g>
  <g class="cd5_ascend_moved">
    <g class="bottom">
      <path class="right" d="M3300,419.15l-300,173.2V699.16a15,15,0,0,0,7.5,13l85,49.07a15,15,0,0,0,15,0l85-49.07a15,15,0,0,0,7.5-13V592.35h0l92.5-53.4a15,15,0,0,0,7.5-13Z"/>
      <path class="left" d="M3000,684.16v15a15,15,0,0,0,7.5,13l85,49.07a15,15,0,0,0,7.5,2v-15Z"/>
    </g>
    <path class="edgeMoved" d="M3192.5,350.74l-85,49.08a15,15,0,0,0-7.5,13V519.62L3007.5,573a15,15,0,0,0-7.5,13v98.15a15,15,0,0,0,7.5,13l85,49.07a15,15,0,0,0,15,0l85-49.07a15,15,0,0,0,7.5-13V577.35l92.5-53.4a15,15,0,0,0,7.5-13V412.81a15,15,0,0,0-7.5-13l-85-49.08A15,15,0,0,0,3192.5,350.74Z"/>
    <path class="faceMoved" d="M3192.5,355.36l-81,46.76a15,15,0,0,0-7.5,13V521.93l-92.5,53.4a15,15,0,0,0-7.5,13v93.53a15,15,0,0,0,7.5,13l81,46.77a15,15,0,0,0,15,0l81-46.77a15,15,0,0,0,7.5-13V575l92.5-53.4a15,15,0,0,0,7.5-13V415.12a15,15,0,0,0-7.5-13l-81-46.76A15,15,0,0,0,3192.5,355.36Z"/>
    <g class="dotsBottom">
      <path d="M3114.33,543.5l7.81,4.51a1.57,1.57,0,0,0,2.35-1.36v-9a1.57,1.57,0,0,0-2.35-1.36l-7.81,4.51A1.57,1.57,0,0,0,3114.33,543.5Z"/>
      <path d="M3166.29,573.5l7.81,4.51a1.57,1.57,0,0,0,2.35-1.36v-9a1.57,1.57,0,0,0-2.35-1.36l-7.81,4.51A1.57,1.57,0,0,0,3166.29,573.5Z"/>
      <path d="M3124.33,526.18l7.81,4.51a1.57,1.57,0,0,0,2.35-1.36v-9a1.57,1.57,0,0,0-2.35-1.36l-7.81,4.51A1.57,1.57,0,0,0,3124.33,526.18Z"/>
      <path d="M3145.31,549.84l7.81,4.51a1.57,1.57,0,0,0,2.35-1.36v-9a1.57,1.57,0,0,0-2.35-1.36l-7.81,4.51A1.57,1.57,0,0,0,3145.31,549.84Z"/>
      <path d="M3176.29,556.18l7.81,4.51a1.57,1.57,0,0,0,2.35-1.36v-9a1.57,1.57,0,0,0-2.35-1.36l-7.81,4.51A1.57,1.57,0,0,0,3176.29,556.18Z"/>
    </g>
    <g class="dotsFace">
      <path d="M3122.14,541.28l-5.82,3.36,5.82,3.37a1.57,1.57,0,0,0,2.35-1.36v-4A1.57,1.57,0,0,0,3122.14,541.28Z"/>
      <path d="M3174.1,571.28l-5.82,3.36,5.82,3.37a1.57,1.57,0,0,0,2.35-1.36v-4A1.57,1.57,0,0,0,3174.1,571.28Z"/>
      <path d="M3132.14,524l-5.82,3.36,5.82,3.37a1.57,1.57,0,0,0,2.35-1.36v-4A1.57,1.57,0,0,0,3132.14,524Z"/>
      <path d="M3153.12,547.62,3147.3,551l5.82,3.37a1.57,1.57,0,0,0,2.35-1.36v-4A1.57,1.57,0,0,0,3153.12,547.62Z"/>
      <path d="M3184.1,554l-5.82,3.36,5.82,3.37a1.57,1.57,0,0,0,2.35-1.36v-4A1.57,1.57,0,0,0,3184.1,554Z"/>
    </g>
    <g class="cdBottom">
      <path d="M3077.82,637l.54-.94,9.73,5.62c.8,7.69-1.51,16-5.72,23.3-8.57,14.84-22.5,20.11-34.47,13.19-12.29-7.09-14.82-21.28-6.36-35.93,3.17-5.49,7.18-9,11.58-10.69l-3-1.73,3.93-6.8,13.15,7.6-3.42,5.92-11.79.84c-4.57,7.92-1.65,17.26,7,22.27,9.1,5.25,17.15,3.41,20.93-3.14a15.65,15.65,0,0,0,2.09-5.77C3075.73,647.07,3075.16,641.58,3077.82,637Z"/>
      <path d="M3119.64,635.27c8.21-14.21,21.22-18.17,32.82-11.48s14.65,19.85,6.44,34.07l-17.28,29.93-5.67-3.28,2.23-3.86-27.88-16.1-2.23,3.87-5.67-3.28Zm-.51,9.68,31.55,18.22.32-.56c4.11-7.11,1.51-14.85-9-20.89s-18.44-4.5-22.36,2.3Z"/>
      <path d="M3061.66,620.34l1-4.78-15.26-8.81L3049,604l14.31,8.26,2.32-10.88-13.68-7.9,1.57-2.71,12.79,7.39.91-4.34,9.75,5.62-.9,4.35,13.8,8,1-4.29,9.65,5.57-.89,4.35,15.25,8.81L3113.3,629l-14.4-8.32-2.36,10.86,13.9,8-1.57,2.71L3096,634.77l-1,4.79-9.74-5.63,1-4.78-13.91-8-1,4.78Zm13.71-13.29L3073,617.89l14,8.07,2.31-10.88Z"/>
      <path d="M3120.49,596.73l23.94,13.83,6,3.45a16.24,16.24,0,0,1,1.52-11.71,8.32,8.32,0,0,1,6-4,10.63,10.63,0,0,1,6.85,1.09,15.71,15.71,0,0,1,4.91,4.46,8.9,8.9,0,0,1,1.62,3.68c.28,1.24.57,2.53.88,3.87q1.05,9.84,2.2,19.73l-55.27-31.91Zm36.36,10.9a4.2,4.2,0,0,0-3,2.14q-1.3,2.25.42,5.11,1.36,2.16,8.66,6.37l8.05,4.64q.42.14-1.56-7.88a14.07,14.07,0,0,0-4.07-7.21,12.59,12.59,0,0,0-2.59-2A8.24,8.24,0,0,0,3156.85,607.63Z"/>
    </g>
    <g class="fgBottom">
      <path d="M3171.55,468.67l3.49,2-3.92,6.8-11.91-6.88,3.42-5.92,10.9-2.19c5.07-9.21,1.59-17.29-7-22.26-8.79-5.07-17.88-3.59-22,3.58l10,5.8,2.09-3.62,5.67,3.28-12.24,21.2-5.67-3.27,2-3.5-8.48-4.89c-1.09-8.2,1-16.62,5.25-23.92,8.56-14.84,22.49-20.1,34.47-13.18,12.28,7.09,14.49,21.83,6,36.55C3180.49,463.69,3175.11,468,3171.55,468.67Z"/>
      <path d="M3246.55,475.35l-12.29-7.1,2.49-4.3,11.14-1.3,5.44-9.41-13.66-7.89-4.35,7.55,5,2.91L3238,460l-14.4-8.32,2.41-4.17,4.87,2.8,4.35-7.54-10.91-6.3-2.27,3.93-5.67-3.28L3231.41,411l5.68,3.28-2.24,3.87,27.88,16.09,2.23-3.87,5.68,3.28Z"/>
      <path d="M3238.89,476.32l-1,4.77,15.25,8.81-1.56,2.71-14.32-8.26-2.32,10.88,13.68,7.9-1.56,2.71-12.8-7.38-.91,4.33-9.74-5.62.89-4.35-13.79-8-1,4.28-9.65-5.57.89-4.35-15.24-8.8,1.56-2.71,14.41,8.31,2.36-10.86-13.9-8,1.56-2.72,12.92,7.46,1-4.78,9.74,5.62-1,4.78,13.92,8,1-4.79Zm-13.7,13.28,2.38-10.84-14-8.07-2.31,10.89Z"/>
      <path d="M3181.56,497.32l-23.94-13.82-6-3.46a16.28,16.28,0,0,1-1.53,11.71,8.27,8.27,0,0,1-6,4.05,10.53,10.53,0,0,1-6.86-1.09,15.89,15.89,0,0,1-4.91-4.45,8.84,8.84,0,0,1-1.61-3.68c-.28-1.25-.58-2.54-.88-3.88q-1.07-9.84-2.21-19.73L3183,494.89Zm-36.36-10.89a4.23,4.23,0,0,0,3-2.15q1.29-2.23-.42-5.1-1.36-2.16-8.67-6.38l-8-4.64q-.43-.12,1.56,7.88a14,14,0,0,0,4.06,7.22,13.24,13.24,0,0,0,2.59,2A8.24,8.24,0,0,0,3145.2,486.43Z"/>
    </g>
    <g class="cdFace">
      <path d="M3041.54,647.21a35.4,35.4,0,0,0-4.83,14.14,21.5,21.5,0,0,0,11.19,16.79c12,6.92,25.9,1.65,34.47-13.19a42.57,42.57,0,0,0,5.77-17.67c0-.21,0-.42,0-.63l-9.73-5.62-.54.94a12.14,12.14,0,0,0-1.13,2.64,10.9,10.9,0,0,0,5.34,6.1v5a15.65,15.65,0,0,1-2.09,5.77c-3.78,6.55-11.83,8.39-20.93,3.14-6.79-3.93-10-10.51-8.93-17a15.2,15.2,0,0,1,1.91-10.28l11.79-.84,1.26-2.17-11-6.35-1.76,3,.83.48v5C3048.72,638.22,3044.71,641.72,3041.54,647.21Z"/>
      <path d="M3141.62,687.79l17.28-29.93a33.05,33.05,0,0,0,4.49-13c-.73-6.73-4.52-12.39-10.93-16.09-11.6-6.69-24.61-2.73-32.82,11.48l-15.08,26.12,3.51,2,2.23-3.87,27.88,16.1v5l-.07.11ZM3119.13,650v-5l.54-.93c3.92-6.8,11.95-8.32,22.36-2.3,8.57,4.94,11.86,11,10.53,17a12.21,12.21,0,0,1-1.56,8.93l-.32.56Z"/>
      <g>
        <polygon points="3071.3 625.9 3072.3 621.12 3073.25 621.66 3072.98 617.89 3075.37 607.05 3076.32 607.6 3076.06 603.83 3067.21 598.86 3066.3 603.2 3065.36 602.65 3065.63 606.42 3063.3 617.3 3062.41 616.79 3062.68 620.56 3062.61 620.88 3071.3 625.9"/>
        <polygon points="3098.9 620.63 3099.87 621.2 3099.62 617.43 3090.86 612.51 3089.86 616.8 3089.01 616.31 3089.28 620.08 3086.96 630.96 3085.96 630.39 3086.22 634.15 3086.16 634.48 3094.95 639.56 3095.96 634.77 3096.8 635.26 3096.54 631.49 3098.9 620.63"/>
      </g>
      <path d="M3172.16,616.35c-.31-1.34-.6-2.63-.88-3.87a8.9,8.9,0,0,0-1.62-3.68,15.71,15.71,0,0,0-4.91-4.46,10.63,10.63,0,0,0-6.85-1.09,8.32,8.32,0,0,0-6,4,15.63,15.63,0,0,0-1.78,5.25c.07.48.15,1,.26,1.46l-.32,3.06,3.88,2.24.09-4.83a4.6,4.6,0,0,1-.2-4.71,4.2,4.2,0,0,1,3-2.14,8.24,8.24,0,0,1,5.93,1.18,12.59,12.59,0,0,1,2.59,2,14.07,14.07,0,0,1,4.07,7.21q2,8,1.56,7.88l-.17,3.15,2.94,1.7C3173.22,625.94,3172.67,621.13,3172.16,616.35Z"/>
    </g>
    <g class="fgFace">
      <path d="M3183.63,458.26a36.55,36.55,0,0,0,5-14.7,21.34,21.34,0,0,0-11-16.85c-12-6.92-25.91-1.66-34.47,13.18a40.33,40.33,0,0,0-5.43,17.1c.05.61.1,1.21.18,1.82l8.48,4.89-2,3.5,5.67,3.27L3160.13,453l-3.51-2-2.09,3.62-10-5.8v-5c4.14-7.17,13.23-8.65,22-3.58,6.74,3.89,10.31,9.69,9.13,16.45a16,16,0,0,1-2.11,10.81l-10.9,2.19-1.26,2.17,9.75,5.63,1.76-3.05-1.33-.76v-5C3175.11,468,3180.49,463.69,3183.63,458.26Z"/>
      <polygon points="3268.47 437.38 3264.96 435.35 3262.73 439.22 3234.85 423.13 3234.85 418.13 3234.92 418.01 3231.41 415.98 3218.49 438.36 3222 440.39 3224.27 436.46 3235.18 442.76 3235.18 447.76 3230.83 455.3 3225.96 452.5 3225.71 452.93 3237.95 459.99 3238.2 459.56 3235.32 457.9 3235.32 452.9 3239.67 445.35 3253.33 453.24 3253.33 458.24 3247.89 467.65 3236.75 468.95 3236.43 469.5 3246.55 475.35 3268.47 437.38"/>
      <g>
        <polygon points="3210.7 484.86 3211.54 485.34 3211.28 481.57 3213.59 470.69 3214.59 471.27 3214.33 467.5 3214.4 467.18 3205.6 462.1 3204.6 466.88 3203.75 466.39 3204.02 470.16 3201.66 481.02 3200.68 480.46 3200.04 483.57 3209.69 489.14 3210.7 484.86"/>
        <polygon points="3237.26 484.35 3238.14 484.86 3237.88 481.1 3237.95 480.77 3229.25 475.75 3228.25 480.54 3227.3 479.99 3227.57 483.76 3225.19 494.6 3224.24 494.06 3223.6 497.17 3233.34 502.79 3234.25 498.46 3235.19 499 3234.93 495.23 3237.26 484.35"/>
      </g>
      <path d="M3148.19,484.28v5a4.23,4.23,0,0,1-3,2.15,8.24,8.24,0,0,1-5.93-1.18,13.24,13.24,0,0,1-2.59-2,14,14,0,0,1-4.06-7.22q-2-8-1.56-7.88l.16-3.15-2.93-1.69q.83,7.2,1.61,14.38c.3,1.34.6,2.63.88,3.88a8.84,8.84,0,0,0,1.61,3.68,15.89,15.89,0,0,0,4.91,4.45,10.53,10.53,0,0,0,6.86,1.09,8.27,8.27,0,0,0,6-4.05,15.6,15.6,0,0,0,1.79-5.24c-.07-.49-.16-1-.26-1.47L3152,482l-3.88-2.24A4.53,4.53,0,0,1,3148.19,484.28Z"/>
    </g>
  </g>
  <g class="cd5_descend">
    <g class="bottom">
      <path class="left" d="M2000,592.35V699.16a15,15,0,0,0,7.5,13l92.5,53.41V872.37a15,15,0,0,0,7.5,13l85,49.07a15,15,0,0,0,15,0l85-49.07a15,15,0,0,0,7.5-13V765.56Z"/>
      <path class="right" d="M2200,936.44a15,15,0,0,0,7.5-2l85-49.07a15,15,0,0,0,7.5-13v-15l-100,64.07Z"/>
    </g>
    <path class="edge" d="M2192.5,573l-85-49.07a15,15,0,0,0-15,0l-85,49.07a15,15,0,0,0-7.5,13v98.15a15,15,0,0,0,7.5,13l92.5,53.41V857.37a15,15,0,0,0,7.5,13l85,49.07a15,15,0,0,0,15,0l85-49.07a15,15,0,0,0,7.5-13V759.22a15,15,0,0,0-7.5-13L2200,692.82V586A15,15,0,0,0,2192.5,573Z"/>
    <path class="face" d="M2188.5,575.33l-81-46.76a15,15,0,0,0-15,0l-81,46.76a15,15,0,0,0-7.5,13v93.53a15,15,0,0,0,7.5,13l92.5,53.41V855.06a15,15,0,0,0,7.5,13l81,46.76a15,15,0,0,0,15,0l81-46.76a15,15,0,0,0,7.5-13V761.53a15,15,0,0,0-7.5-13l-92.5-53.4V588.32A15,15,0,0,0,2188.5,575.33Z"/>
    <g class="dotsBottom">
      <path d="M2174.1,692.17l-7.81,4.5a1.57,1.57,0,0,0,0,2.71l7.81,4.51a1.57,1.57,0,0,0,2.35-1.35v-9A1.56,1.56,0,0,0,2174.1,692.17Z"/>
      <path d="M2122.14,722.17l-7.81,4.5a1.57,1.57,0,0,0,0,2.71l7.81,4.51a1.57,1.57,0,0,0,2.35-1.35v-9A1.56,1.56,0,0,0,2122.14,722.17Z"/>
      <path d="M2184.1,709.49l-7.81,4.5a1.57,1.57,0,0,0,0,2.71l7.81,4.51a1.57,1.57,0,0,0,2.35-1.35v-9A1.56,1.56,0,0,0,2184.1,709.49Z"/>
      <path d="M2153.12,715.83l-7.81,4.5a1.57,1.57,0,0,0,0,2.71l7.81,4.51a1.57,1.57,0,0,0,2.35-1.35v-9A1.56,1.56,0,0,0,2153.12,715.83Z"/>
      <path d="M2132.14,739.49l-7.81,4.5a1.57,1.57,0,0,0,0,2.71l7.81,4.51a1.57,1.57,0,0,0,2.35-1.35v-9A1.56,1.56,0,0,0,2132.14,739.49Z"/>
    </g>
    <g class="dotsFace">
      <path d="M2174.1,697.17l-5.82,3.36,5.82,3.36a1.57,1.57,0,0,0,2.35-1.35v-4A1.56,1.56,0,0,0,2174.1,697.17Z"/>
      <path d="M2122.14,727.17l-5.82,3.36,5.82,3.36a1.57,1.57,0,0,0,2.35-1.35v-4A1.56,1.56,0,0,0,2122.14,727.17Z"/>
      <path d="M2184.1,714.49l-5.82,3.36,5.82,3.36a1.57,1.57,0,0,0,2.35-1.35v-4A1.57,1.57,0,0,0,2184.1,714.49Z"/>
      <path d="M2153.12,720.83l-5.82,3.36,5.82,3.36a1.57,1.57,0,0,0,2.35-1.35v-4A1.56,1.56,0,0,0,2153.12,720.83Z"/>
      <path d="M2132.14,744.49l-5.82,3.36,5.82,3.36a1.57,1.57,0,0,0,2.35-1.35v-4A1.57,1.57,0,0,0,2132.14,744.49Z"/>
    </g>
    <g class="cdBottom">
      <path d="M2109.46,614.94l.54.93-9.73,5.62c-7.06-3.16-13.11-9.31-17.32-16.61-8.57-14.84-6.16-29.53,5.81-36.44,12.29-7.1,25.84-2.2,34.3,12.45,3.17,5.49,4.19,10.72,3.47,15.38l3-1.73,3.93,6.8-13.16,7.59-3.42-5.92,5.17-10.63c-4.57-7.92-14.12-10.06-22.79-5.06-9.1,5.26-11.53,13.15-7.75,19.7a15.53,15.53,0,0,0,4,4.69C2101.75,608.08,2106.79,610.32,2109.46,614.94Z"/>
      <path d="M2090,652c8.21,14.22,5.14,27.47-6.46,34.17s-24.51,2.76-32.72-11.46l-17.29-29.93,5.68-3.28,2.23,3.87,27.88-16.09-2.24-3.87,5.68-3.28Zm-8.12-5.28-31.55,18.21.32.56c4.11,7.11,12.11,8.73,22.58,2.68s13.11-13.72,9.19-20.52Z"/>
      <path d="M2131.94,609.26l3.63,3.27,15.26-8.81,1.56,2.71-14.31,8.27,8.26,7.45,13.68-7.9,1.57,2.71-12.79,7.39,3.3,3-9.75,5.62L2139,630l-13.79,8,3.2,3-9.64,5.57-3.32-2.95-15.25,8.81-1.57-2.72,14.41-8.31-8.23-7.48-13.9,8-1.56-2.71,12.91-7.46-3.64-3.26,9.74-5.62,3.63,3.26,13.92-8-3.64-3.26Zm4.66,18.51-8.2-7.49-14,8.08,8.27,7.44Z"/>
      <path d="M2123,672,2099,685.83l-6,3.46a16.28,16.28,0,0,1,9.38,7.17,8.31,8.31,0,0,1,.53,7.18,10.51,10.51,0,0,1-4.37,5.39,15.73,15.73,0,0,1-6.32,2,8.88,8.88,0,0,1-4-.44l-3.8-1.18q-9-4-18.18-8l55.27-31.92Zm-27.62,26a4.23,4.23,0,0,0-.36-3.66c-.86-1.49-2.41-2.22-4.63-2.18q-2.57.09-9.86,4.31l-8,4.65c-.21.2,2.32,1.07,7.61,2.59a14,14,0,0,0,8.28.08,12.54,12.54,0,0,0,3-1.24A8.24,8.24,0,0,0,2095.35,698.05Z"/>
    </g>
    <g class="fgBottom">
      <path d="M2208.35,780.26l-3.49,2-3.93-6.79,11.91-6.88,3.42,5.92-3.56,10.54c5.45,9,14.19,10,22.79,5.05,8.79-5.07,12.05-13.69,7.91-20.86l-10,5.8,2.09,3.61-5.68,3.28-12.24-21.2,5.68-3.28,2,3.49,8.49-4.89c7.64,3.15,13.87,9.2,18.08,16.49,8.57,14.84,6.16,29.54-5.81,36.45-12.28,7.09-26.16,1.64-34.66-13.08C2208.19,790.49,2207.17,783.68,2208.35,780.26Z"/>
      <path d="M2165.06,841.87l12.29-7.09,2.48,4.3-4.44,10.3,5.43,9.42,13.66-7.89-4.36-7.54-5,2.91-2.41-4.18,14.4-8.31,2.42,4.18-4.87,2.8,4.36,7.55,10.91-6.3-2.27-3.93,5.68-3.28,15.08,26.13-5.67,3.28-2.23-3.87-27.88,16.1,2.23,3.86-5.67,3.28Z"/>
      <path d="M2168.05,834.75l-3.63-3.26-15.25,8.8-1.57-2.71,14.31-8.26-8.26-7.46-13.68,7.9-1.56-2.71,12.79-7.38-3.3-3,9.74-5.63L2161,814l13.79-8-3.2-3,9.65-5.57,3.32,2.95,15.24-8.8,1.57,2.71-14.4,8.32,8.22,7.47,13.9-8,1.57,2.71-12.92,7.46,3.64,3.26-9.74,5.63-3.63-3.27-13.92,8,3.64,3.26Zm-4.65-18.51,8.2,7.49,14-8.07-8.28-7.45Z"/>
      <path d="M2178.53,774.6l23.94-13.82,6-3.46a16.27,16.27,0,0,1-9.39-7.17,8.28,8.28,0,0,1-.52-7.18,10.5,10.5,0,0,1,4.37-5.39,15.68,15.68,0,0,1,6.31-2,8.88,8.88,0,0,1,4,.44l3.8,1.18q9,4,18.19,8L2179.93,777Zm27.61-26a4.23,4.23,0,0,0,.36,3.66c.87,1.49,2.41,2.22,4.64,2.19q2.55-.1,9.85-4.32l8-4.64c.22-.21-2.32-1.07-7.6-2.6a14,14,0,0,0-8.28-.08,12.4,12.4,0,0,0-3,1.25A8.21,8.21,0,0,0,2206.14,748.56Z"/>
    </g>
    <g class="cdFace">
      <path d="M2120.29,608.93l11-6.34-1.76-3.05-3,1.73a19.31,19.31,0,0,0,.09-5l-.09,0c0-.16,0-.32,0-.48a26.56,26.56,0,0,0-3.52-9.9c-8.46-14.65-22-19.55-34.3-12.45A21.13,21.13,0,0,0,2078,590.15a36.34,36.34,0,0,0,5,14.73c4.21,7.3,10.26,13.45,17.32,16.61l7.16-4.14c-2.85-2.71-7-3.5-12-.64a15.53,15.53,0,0,1-4-4.69,11.93,11.93,0,0,1-1.43-8.66c-1.25-5.65,1.72-11.73,9.18-16,8.67-5,18.22-2.86,22.79,5.06,0,0-.43,4.25,0,5l-3.85,7.91Z"/>
      <path d="M2072.77,627.13l-3.51,2,.07.12v5l-27.88,16.09-2.23-3.87-3.51,2,15.12,26.18c8.21,14.22,21.12,18.15,32.72,11.46,6.41-3.71,10.21-9.41,10.95-16.18a33,33,0,0,0-4.49-13Zm.47,46c-10.47,6.05-18.47,4.43-22.58-2.68l-.32-.56.32-4.44-.32-.56,31.55-18.21.54.93a11.61,11.61,0,0,1,1.41,8.56C2085.19,662,2081.88,668.19,2073.24,673.17Z"/>
      <g>
        <polygon points="2118.8 646.53 2128.44 640.96 2126.15 638.8 2122.69 640.8 2114.42 633.36 2115.35 629.2 2112.02 631.12 2108.39 627.86 2102.04 631.52 2102.29 631.74 2101.35 635.9 2104.84 633.88 2113.07 641.36 2112.14 645.51 2115.48 643.58 2118.8 646.53"/>
        <polygon points="2142.35 632.93 2152.09 627.3 2149.73 625.19 2146.34 627.15 2138.08 619.69 2139.01 615.54 2135.57 617.53 2131.94 614.26 2125.7 617.87 2125.94 618.09 2125 622.25 2128.4 620.28 2136.6 627.77 2135.67 631.92 2139.03 629.98 2142.35 632.93"/>
      </g>
      <g>
        <path d="M2094.88,690l-3.88,2.24a4.87,4.87,0,0,1,3.33,1.32Z"/>
        <path d="M2088.27,710.62a8.88,8.88,0,0,0,4,.44,15.73,15.73,0,0,0,6.32-2,10.51,10.51,0,0,0,4.37-5.39c.07-.2.12-.4.18-.59a8.61,8.61,0,0,0-.71-1.59,15.87,15.87,0,0,0-7.06-6.26,4.17,4.17,0,0,1,0,2.85,7.79,7.79,0,0,1-.49,1.15c0,.06.09.12.13.19a4.23,4.23,0,0,1,.36,3.66,8.24,8.24,0,0,1-4,4.55,12.54,12.54,0,0,1-3,1.24,13.6,13.6,0,0,1-3.93.58l0,0Z"/>
        <path d="M2074.41,705l-.26-3.09-2.94,1.69Z"/>
      </g>
    </g>
    <g class="fgFace">
      <path d="M2211.32,795.92c8.5,14.72,22.38,20.17,34.66,13.08a21.13,21.13,0,0,0,10.79-16.71,36.28,36.28,0,0,0-5-14.74c-4.21-7.29-10.44-13.34-18.08-16.49l-8.49,4.89-2-3.49-3.51,2,10.07,17.45,5.68-3.28-2.09-3.61,10-5.8a12.75,12.75,0,0,1,1.52,9c1.26,6.18-2.22,12.72-9.43,16.88-8.6,5-17.34,3.95-22.79-5.05v-5l2.5-7.38-2.36-4.08-9.74,5.63,1.76,3,3.49-2v5a7.05,7.05,0,0,0-.28,1.12A27,27,0,0,0,2211.32,795.92Z"/>
      <polygon points="2177.35 839.78 2167.23 845.62 2189.15 883.59 2192.66 881.56 2192.59 881.45 2192.59 876.45 2220.47 860.35 2222.7 864.22 2226.21 862.19 2213.29 839.81 2209.78 841.84 2209.88 842.02 2209.88 847.02 2198.97 853.32 2194.61 845.77 2194.61 840.77 2197.31 839.22 2197.06 838.79 2184.82 845.85 2185.07 846.28 2190.12 843.37 2194.48 850.91 2194.48 855.91 2180.82 863.79 2175.39 854.38 2175.39 849.38 2178.6 841.94 2177.35 839.78"/>
      <g>
        <polygon points="2168.05 834.75 2174.3 831.15 2174.05 830.93 2174.99 826.77 2171.59 828.73 2163.4 821.24 2164.32 817.09 2160.96 819.03 2157.64 816.08 2151.2 819.67 2150.26 823.82 2153.65 821.86 2161.91 829.32 2160.98 833.47 2164.42 831.49 2168.05 834.75"/>
        <polygon points="2191.6 821.16 2197.95 817.49 2197.7 817.27 2198.64 813.11 2195.15 815.13 2186.93 807.66 2187.86 803.5 2184.52 805.43 2181.2 802.48 2174.75 806.07 2173.84 810.21 2177.3 808.21 2185.58 815.66 2184.64 819.81 2187.97 817.89 2191.6 821.16"/>
      </g>
      <g>
        <path d="M2213.22,741a8.88,8.88,0,0,0-4-.44,15.68,15.68,0,0,0-6.31,2,10.5,10.5,0,0,0-4.37,5.39c-.07.2-.13.4-.18.59a8.55,8.55,0,0,0,.7,1.59,15.78,15.78,0,0,0,7.07,6.26l.36-4.19a4.23,4.23,0,0,1-.36-3.66,8.21,8.21,0,0,1,4-4.54,12.4,12.4,0,0,1,3-1.25,13.5,13.5,0,0,1,3.93-.58l-.06,0Z"/>
        <path d="M2207.16,758.07l-.54,3.56,3.88-2.24A4.92,4.92,0,0,1,2207.16,758.07Z"/>
        <path d="M2227.09,746.57l.25,3.09,2.94-1.69Z"/>
      </g>
    </g>
  </g>
  <g class="fg7_ascend_moved">
    <g class="bottom">
      <path class="right" d="M600,592.35,300,765.55V872.36a15,15,0,0,0,7.5,13l85,49.08a15,15,0,0,0,15,0l85-49.08a15,15,0,0,0,7.5-13V765.55h0l92.5-53.4a15,15,0,0,0,7.5-13Z"/>
      <path class="left" d="M300,857.36v15a15,15,0,0,0,7.5,13l85,49.08a15,15,0,0,0,7.5,2v-15Z"/>
    </g>
    <path class="edgeMoved" d="M492.5,524,407.5,573a15,15,0,0,0-7.5,13V692.82l-92.5,53.4a15,15,0,0,0-7.5,13v98.15a15,15,0,0,0,7.5,13l85,49.08a15,15,0,0,0,15,0l85-49.08a15,15,0,0,0,7.5-13V750.55l92.5-53.4a15,15,0,0,0,7.5-13V586a15,15,0,0,0-7.5-13L507.5,524A15,15,0,0,0,492.5,524Z"/>
    <path class="faceMoved" d="M492.5,528.56l-81,46.77a15,15,0,0,0-7.5,13V695.13l-92.5,53.4a15,15,0,0,0-7.5,13v93.53a15,15,0,0,0,7.5,13l81,46.76a15,15,0,0,0,15,0l81-46.76a15,15,0,0,0,7.5-13V748.24l92.5-53.4a15,15,0,0,0,7.5-13V588.32a15,15,0,0,0-7.5-13l-81-46.77A15,15,0,0,0,492.5,528.56Z"/>
    <g class="dotsBottom">
      <path d="M485.67,726.67l-7.81-4.5a1.56,1.56,0,0,0-2.35,1.35v9a1.57,1.57,0,0,0,2.35,1.35l7.81-4.51A1.57,1.57,0,0,0,485.67,726.67Z"/>
      <path d="M433.7,696.67l-7.8-4.5a1.56,1.56,0,0,0-2.35,1.35v9a1.57,1.57,0,0,0,2.35,1.35l7.8-4.51A1.56,1.56,0,0,0,433.7,696.67Z"/>
      <path d="M475.67,744l-7.81-4.5a1.56,1.56,0,0,0-2.35,1.35v9a1.57,1.57,0,0,0,2.35,1.35l7.81-4.51A1.57,1.57,0,0,0,475.67,744Z"/>
      <path d="M454.69,720.33l-7.81-4.5a1.56,1.56,0,0,0-2.35,1.35v9a1.57,1.57,0,0,0,2.35,1.35l7.81-4.51A1.57,1.57,0,0,0,454.69,720.33Z"/>
      <path d="M423.7,714l-7.8-4.5a1.56,1.56,0,0,0-2.35,1.35v9a1.57,1.57,0,0,0,2.35,1.35l7.8-4.51A1.56,1.56,0,0,0,423.7,714Z"/>
    </g>
    <g class="dotsFace">
      <path d="M477.86,733.89l5.82-3.36-5.82-3.36a1.56,1.56,0,0,0-2.35,1.35v4A1.57,1.57,0,0,0,477.86,733.89Z"/>
      <path d="M425.9,703.89l5.82-3.36-5.82-3.36a1.56,1.56,0,0,0-2.35,1.35v4A1.57,1.57,0,0,0,425.9,703.89Z"/>
      <path d="M467.86,751.21l5.82-3.36-5.82-3.36a1.56,1.56,0,0,0-2.35,1.35v4A1.57,1.57,0,0,0,467.86,751.21Z"/>
      <path d="M446.88,727.55l5.82-3.36-5.82-3.36a1.56,1.56,0,0,0-2.35,1.35v4A1.57,1.57,0,0,0,446.88,727.55Z"/>
      <path d="M415.9,721.21l5.82-3.36-5.82-3.36a1.56,1.56,0,0,0-2.35,1.35v4A1.57,1.57,0,0,0,415.9,721.21Z"/>
    </g>
    <g class="cdBottom">
      <path d="M522.17,633.2l-.54.94-9.72-5.62c-.8-7.69,1.5-16,5.72-23.3,8.57-14.84,22.5-20.11,34.47-13.19,12.28,7.09,14.82,21.28,6.36,35.93-3.17,5.49-7.19,9-11.58,10.69l3,1.73-3.92,6.8-13.16-7.6,3.42-5.92,11.79-.84c4.58-7.92,1.65-17.26-7-22.27-9.11-5.25-17.16-3.41-20.94,3.14a15.62,15.62,0,0,0-2.08,5.77C524.26,623.1,524.84,628.59,522.17,633.2Z"/>
      <path d="M480.35,634.9c-8.2,14.21-21.22,18.17-32.82,11.48s-14.64-19.85-6.44-34.07l17.29-29.93,5.67,3.28-2.23,3.86,27.87,16.1,2.24-3.87L497.6,605Zm.52-9.68L449.32,607l-.33.56c-4.1,7.11-1.5,14.85,9,20.89s18.44,4.5,22.36-2.3Z"/>
      <path d="M538.33,649.83l-1,4.78,15.25,8.81L551,666.13l-14.31-8.26-2.33,10.88,13.68,7.9-1.56,2.71L533.7,672l-.92,4.34L523,670.69l.89-4.35-13.79-8-1,4.29-9.64-5.57.89-4.35-15.25-8.8,1.57-2.72,14.4,8.32,2.36-10.86-13.9-8,1.56-2.71L504,635.4l1-4.79,9.75,5.63-1,4.78,13.92,8,1-4.78Zm-13.7,13.29L527,652.28l-14-8.07-2.31,10.88Z"/>
      <path d="M479.51,673.44l-23.95-13.83-6-3.45a16.29,16.29,0,0,1-1.53,11.71,8.3,8.3,0,0,1-5.95,4,10.62,10.62,0,0,1-6.85-1.09,15.71,15.71,0,0,1-4.91-4.46,8.59,8.59,0,0,1-1.62-3.68c-.28-1.24-.58-2.53-.88-3.87q-1.05-9.84-2.21-19.73L480.91,671Zm-36.36-10.9a4.2,4.2,0,0,0,3-2.14q1.29-2.25-.42-5.11-1.36-2.16-8.67-6.37l-8-4.64q-.42-.13,1.56,7.88a14,14,0,0,0,4.07,7.21,12,12,0,0,0,2.59,2A8.18,8.18,0,0,0,443.15,662.54Z"/>
    </g>
    <g class="fgBottom">
      <path d="M428.45,801.51l-3.49-2,3.92-6.8,11.91,6.88-3.42,5.92-10.91,2.19c-5.06,9.21-1.58,17.29,7,22.26,8.8,5.08,17.89,3.59,22-3.58l-10-5.8-2.09,3.62-5.68-3.28,12.24-21.2,5.68,3.28-2,3.49,8.48,4.9c1.09,8.19-1,16.61-5.24,23.91-8.57,14.84-22.5,20.1-34.47,13.19-12.28-7.09-14.5-21.84-6-36.56C419.5,806.49,424.89,802.2,428.45,801.51Z"/>
      <path d="M353.45,794.83l12.28,7.09-2.48,4.3-11.15,1.3-5.43,9.42,13.66,7.88,4.35-7.54-5.05-2.92,2.41-4.18,14.41,8.32L374,822.68l-4.87-2.81-4.35,7.54,10.91,6.3,2.27-3.92,5.67,3.27-15.08,26.13-5.68-3.28,2.23-3.86L337.27,836,335,839.82l-5.68-3.28Z"/>
      <path d="M361.11,793.86l1-4.78-15.25-8.81,1.56-2.71,14.31,8.26,2.33-10.88L351.39,767l1.56-2.71,12.79,7.39.92-4.34L376.4,773l-.89,4.35,13.79,8,1-4.29L400,786.6l-.89,4.35,15.25,8.81-1.57,2.71-14.4-8.32L396,805l13.9,8-1.56,2.71-12.92-7.46-1,4.79-9.75-5.63,1-4.78-13.92-8-1,4.78Zm13.7-13.29-2.39,10.84,14,8.07,2.31-10.88Z"/>
      <path d="M418.43,772.85l23.95,13.83,6,3.45a16.24,16.24,0,0,1,1.53-11.71,8.3,8.3,0,0,1,5.95-4,10.55,10.55,0,0,1,6.85,1.09,15.71,15.71,0,0,1,4.91,4.46,8.6,8.6,0,0,1,1.62,3.67c.28,1.25.57,2.54.88,3.88q1,9.84,2.21,19.73L417,775.28Zm36.36,10.89a4.21,4.21,0,0,0-3,2.15c-.86,1.49-.72,3.2.42,5.1q1.36,2.18,8.66,6.38l8.05,4.64c.28.08-.24-2.54-1.56-7.88a14,14,0,0,0-4.07-7.21,12.38,12.38,0,0,0-2.59-2A8.24,8.24,0,0,0,454.79,783.74Z"/>
    </g>
    <g class="cdFace">
      <path d="M558.46,628a35.37,35.37,0,0,0,4.82-14.14A21.48,21.48,0,0,0,552.1,597c-12-6.91-25.9-1.65-34.47,13.19a42.57,42.57,0,0,0-5.77,17.67c0,.21,0,.42.05.63l9.72,5.62.54-.94a11.06,11.06,0,0,0,1.13-2.64,10.84,10.84,0,0,0-5.33-6.1v-5a15.62,15.62,0,0,1,2.08-5.77c3.78-6.55,11.83-8.39,20.94-3.14,6.79,3.93,10,10.51,8.93,17A15.21,15.21,0,0,1,548,637.82l-11.79.84L535,640.83l11,6.35,1.76-3-.83-.48v-5C551.27,637,555.29,633.45,558.46,628Z"/>
      <path d="M458.38,587.38l-17.29,29.93a33.21,33.21,0,0,0-4.49,13c.74,6.73,4.53,12.39,10.93,16.09,11.6,6.7,24.62,2.73,32.82-11.48l15.08-26.12-3.5-2-2.24,3.87-27.87-16.1v-5l.07-.11Zm22.49,37.84v5l-.54.93c-3.92,6.8-11.95,8.32-22.36,2.3-8.58-4.94-11.87-11-10.54-17a12.26,12.26,0,0,1,1.56-8.93l.33-.56Z"/>
      <g>
        <polygon points="536.7 657.87 537.58 658.38 537.32 654.61 537.39 654.29 528.7 649.27 527.69 654.05 526.75 653.51 527.01 657.28 524.63 668.12 523.68 667.58 523.04 670.68 532.78 676.31 533.7 671.97 534.63 672.52 534.37 668.75 536.7 657.87"/>
        <polygon points="510.14 658.37 510.98 658.86 510.72 655.09 513.03 644.21 514.03 644.78 513.77 641.02 513.84 640.69 505.04 635.61 504.04 640.4 503.19 639.91 503.46 643.68 501.1 654.54 500.12 653.97 499.49 657.09 509.13 662.65 510.14 658.37"/>
      </g>
      <path d="M446.13,660.4v5a4.2,4.2,0,0,1-3,2.14,8.22,8.22,0,0,1-5.93-1.17,12.38,12.38,0,0,1-2.59-2,14,14,0,0,1-4.07-7.21L429,649.28l.17-3.15-2.94-1.7c.55,4.8,1.1,9.61,1.61,14.39.3,1.34.6,2.63.88,3.87a8.65,8.65,0,0,0,1.62,3.68,15.71,15.71,0,0,0,4.91,4.46,10.62,10.62,0,0,0,6.85,1.09,8.3,8.3,0,0,0,5.95-4,15.65,15.65,0,0,0,1.79-5.25c-.07-.48-.26-1.46-.26-1.46l.31-3.06L446,655.86A4.53,4.53,0,0,1,446.13,660.4Z"/>
    </g>
    <g class="fgFace">
      <path d="M416.37,816.91a36.54,36.54,0,0,0-5,14.71,21.36,21.36,0,0,0,11,16.85c12,6.91,25.9,1.65,34.47-13.19a40.39,40.39,0,0,0,5.43-17.1c0-.61-.11-1.21-.19-1.81l-8.48-4.9v-5l-3.66-1.77-10.07,17.45,3.51,2,2.09-3.62,10,5.8v5c-4.14,7.17-13.23,8.66-22,3.58-6.73-3.89-10.31-9.69-9.12-16.44a16.05,16.05,0,0,1,2.1-10.82l10.91-2.19,1.26-2.17-9.75-5.63-1.76,3,1.33.77v5C424.89,807.2,419.5,811.49,416.37,816.91Z"/>
      <polygon points="368.59 859.19 381.51 836.81 378 834.78 375.73 838.71 364.82 832.41 364.82 827.41 369.17 819.87 374.04 822.68 374.28 822.25 362.04 815.18 361.8 815.61 364.68 817.28 364.68 822.28 360.33 829.82 346.67 821.94 346.67 816.94 352.11 807.52 363.25 806.22 363.57 805.67 353.45 799.83 331.53 837.79 335.04 839.82 337.27 835.95 365.14 852.05 365.14 857.05 365.08 857.16 368.59 859.19"/>
      <g>
        <polygon points="398.34 794.15 399.32 794.72 399.06 790.95 390.31 786.03 389.3 790.32 388.46 789.83 388.72 793.6 386.41 804.48 385.41 803.91 385.67 807.67 385.6 808 394.4 813.08 395.4 808.29 396.25 808.78 395.98 805.01 398.34 794.15"/>
        <polygon points="370.75 799.42 371.75 794.64 372.69 795.18 372.43 791.41 374.81 780.57 375.76 781.12 375.5 777.35 366.66 772.38 365.74 776.72 364.81 776.17 365.07 779.94 362.74 790.82 361.86 790.31 362.12 794.08 362.05 794.4 370.75 799.42"/>
      </g>
      <path d="M470.1,792.47c-.31-1.34-.6-2.63-.88-3.88a8.6,8.6,0,0,0-1.62-3.67,15.71,15.71,0,0,0-4.91-4.46,10.55,10.55,0,0,0-6.85-1.09,8.3,8.3,0,0,0-5.95,4,15.6,15.6,0,0,0-1.79,5.24c.07.49.15,1,.26,1.47l-.31,3.06,3.88,2.24.09-4.83a4.61,4.61,0,0,1-.21-4.71,4.21,4.21,0,0,1,3-2.15,8.29,8.29,0,0,1,5.93,1.18,12.38,12.38,0,0,1,2.59,2,14,14,0,0,1,4.07,7.21c1.32,5.34,1.84,8,1.56,7.88l-.17,3.15,2.94,1.69C471.16,802.05,470.61,797.25,470.1,792.47Z"/>
    </g>
  </g>
  <g class="infoShadowLine">
    <g class="dashed">
      <path d="M3113.5,748.34V855.15a15,15,0,0,0,7.5,13L3193.5,910a15,15,0,0,0,15,0l72.5-41.86a15,15,0,0,0,7.5-13V771.43a15,15,0,0,0-7.5-13L3188.5,705"/>
      <path d="M1788.5,350V251.82a15,15,0,0,0-7.5-13L1708.5,197a15,15,0,0,0-15,0L1621,238.83a15,15,0,0,0-7.5,13v83.71a15,15,0,0,0,7.5,13l85,49.08a15,15,0,0,1,7.5,13v98.15a15,15,0,0,0,7.5,13l72.5,41.86a15,15,0,0,0,15,0l72.5-41.86a15,15,0,0,0,7.5-13V425a15,15,0,0,0-7.5-13L1796,363A15,15,0,0,1,1788.5,350Z"/>
      <path d="M1188.5,696.38V598.23a15,15,0,0,0-7.5-13l-72.5-41.86a15,15,0,0,0-15,0L1021,585.24a15,15,0,0,0-7.5,13v83.71a15,15,0,0,0,7.5,13L1106,744a15,15,0,0,1,7.5,13v98.15a15,15,0,0,0,7.5,13L1193.5,910a15,15,0,0,0,15,0l72.5-41.86a15,15,0,0,0,7.5-13V771.43a15,15,0,0,0-7.5-13l-85-49.07A15,15,0,0,1,1188.5,696.38Z"/>
    </g>
    <path d="M1808.72,227.92c38.45-29.06,102.53-33.73,155.52-12"/>
    <path d="M1089.91,882.83C960.26,1008.85,684.18,1024.57,533,903"/>
    <path d="M2706.75,367.78A46.29,46.29,0,0,0,2751,427.53"/>
    <path d="M2795.26,394.74A46.28,46.28,0,0,0,2751,335"/>
    <path d="M3308.68,749.06c50.57-46.6,57.11-132.79,21.39-191.17"/>
    <path d="M3173.44,620.67A74.92,74.92,0,1,0,3142,702.89"/>
    <path d="M2604.23,399.13q14.05,76.65,86.37,119.64"/>
    <path d="M2813.06,243.25q68.78,44.36,83.76,119.75"/>
  </g>
  <g class="infoShadow">
    <g class="text">
      <text transform="translate(2904.23 880.76)">pivot<tspan x="-106.8" y="100.8">around face</tspan></text>
      <text transform="translate(2806.33 171.64)">spin around<tspan x="85.3" y="100.8">center</tspan></text>
    </g>
    <path d="M1994.3,232.07c-15-2.13-34.77-2.61-48.9.56l18.88-16.81,3.76-25C1973.11,204.39,1984.32,220.68,1994.3,232.07Z"/>
    <path d="M507.71,880.09c14.06,5.63,33.16,10.79,47.64,11.06L533,903l-9.58,23.4C521.73,912,514.7,893.52,507.71,880.09Z"/>
    <path d="M2727.87,341.22c-13,7.68-31.14,15.67-45.42,18.12l23.87,8.35,13,21.68C2718.83,374.89,2723,355.55,2727.87,341.22Z"/>
    <path d="M2774.13,421.34c13-7.69,31.14-15.67,45.42-18.13l-23.87-8.34-13-21.68C2783.17,387.67,2779,407,2774.13,421.34Z"/>
    <path d="M3308.68,531.31c13,7.72,31.1,15.75,45.38,18.24l-23.89,8.28-13.06,21.65C3317.63,565,3313.53,545.66,3308.68,531.31Z"/>
    <path d="M3165.53,678.31c-5.91,14-11.45,32.94-12,47.41l-11.41-22.56-23.2-10C3133.33,691.69,3152,685,3165.53,678.31Z"/>
    <path d="M2600.9,365.16c-3.87,14.65-11.11,33-19.52,44.85l22.83-10.87,24.5,6.25C2618.17,395.45,2607.51,378.78,2600.9,365.16Z"/>
    <path d="M2900.79,396.9c-6.87-13.49-17.83-30-28.55-39.71l24.61,5.8,22.63-11.28C2911.28,363.66,2904.38,382.19,2900.79,396.9Z"/>
  </g>
  <g class="infoLine">
    <g class="dashed">
      <path d="M3112.5,743.34V850.15a15,15,0,0,0,7.5,13L3192.5,905a15,15,0,0,0,15,0l72.5-41.86a15,15,0,0,0,7.5-13V766.43a15,15,0,0,0-7.5-13L3187.5,700"/>
      <path d="M1787.5,345V246.82a15,15,0,0,0-7.5-13L1707.5,192a15,15,0,0,0-15,0L1620,233.83a15,15,0,0,0-7.5,13v83.71a15,15,0,0,0,7.5,13l85,49.08a15,15,0,0,1,7.5,13v98.15a15,15,0,0,0,7.5,13l72.5,41.86a15,15,0,0,0,15,0l72.5-41.86a15,15,0,0,0,7.5-13V420a15,15,0,0,0-7.5-13L1795,358A15,15,0,0,1,1787.5,345Z"/>
      <path d="M1187.5,691.38V593.23a15,15,0,0,0-7.5-13l-72.5-41.86a15,15,0,0,0-15,0L1020,580.24a15,15,0,0,0-7.5,13v83.71a15,15,0,0,0,7.5,13L1105,739a15,15,0,0,1,7.5,13v98.15a15,15,0,0,0,7.5,13L1192.5,905a15,15,0,0,0,15,0l72.5-41.86a15,15,0,0,0,7.5-13V766.43a15,15,0,0,0-7.5-13l-85-49.07A15,15,0,0,1,1187.5,691.38Z"/>
    </g>
    <path d="M1807.72,222.92c38.45-29.06,102.53-33.73,155.52-12"/>
    <path d="M1088.91,877.83C959.26,1003.85,683.18,1019.57,532,898"/>
    <path d="M2705.75,361.78A46.29,46.29,0,0,0,2750,421.53"/>
    <path d="M2794.26,388.74A46.28,46.28,0,0,0,2750,329"/>
    <path d="M3307.68,744.06c50.57-46.6,57.11-132.79,21.39-191.17"/>
    <path d="M3172.44,615.67A74.92,74.92,0,1,0,3141,697.89"/>
    <path d="M2603.23,394.13q14.05,76.65,86.37,119.64"/>
    <path d="M2812.06,238.25q68.78,44.36,83.76,119.75"/>
  </g>
  <g class="info">
    <g class="text">
      <text transform="translate(2903.23 875.76)">pivot<tspan x="-106.8" y="100.8">around face</tspan></text>
      <text transform="translate(2805.33 166.64)">spin around<tspan x="85.3" y="100.8">center</tspan></text>
    </g>
    <path d="M1993.3,227.07c-15-2.13-34.77-2.61-48.9.56l18.88-16.81,3.76-25C1972.11,199.39,1983.32,215.68,1993.3,227.07Z"/>
    <path d="M506.71,875.09c14.06,5.63,33.16,10.79,47.64,11.06L532,898l-9.58,23.4C520.73,907,513.7,888.52,506.71,875.09Z"/>
    <path d="M2773.13,415.34c13-7.69,31.14-15.67,45.42-18.13l-23.87-8.34-13-21.68C2782.17,381.67,2778,401,2773.13,415.34Z"/>
    <path d="M2726.87,335.22c-13,7.68-31.14,15.67-45.42,18.12l23.87,8.35,13,21.68C2717.83,368.89,2722,349.55,2726.87,335.22Z"/>
    <path d="M3307.68,526.31c13,7.72,31.1,15.75,45.38,18.24l-23.89,8.28-13.06,21.65C3316.63,560,3312.53,540.66,3307.68,526.31Z"/>
    <path d="M3164.53,673.31c-5.91,14-11.45,32.94-12,47.41l-11.41-22.56-23.2-10C3132.33,686.69,3151,680,3164.53,673.31Z"/>
    <path d="M2599.9,360.16c-3.87,14.65-11.11,33-19.52,44.85l22.83-10.87,24.5,6.25C2617.17,390.45,2606.51,373.78,2599.9,360.16Z"/>
    <path d="M2899.79,391.9c-6.87-13.49-17.83-30-28.55-39.71l24.61,5.8,22.63-11.28C2910.28,358.66,2903.38,377.19,2899.79,391.9Z"/>
  </g>
  <g class="errorShadow">
    <g class="text">
      <text transform="translate(1569.71 150.47)">not rotated in place</text>
      <text transform="translate(619.44 835.76)">moved out<tspan x="53.76" y="100.8">of place</tspan></text>
    </g>
    <polygon points="1568.5 245.46 1549.21 226.18 1501 274.39 1452.79 226.18 1433.5 245.46 1481.71 293.68 1433.5 341.89 1452.79 361.18 1501 312.96 1549.21 361.18 1568.5 341.89 1520.29 293.68 1568.5 245.46"/>
    <polygon points="568.5 245.46 549.22 226.18 501 274.39 452.79 226.18 433.5 245.46 481.71 293.68 433.5 341.89 452.79 361.18 501 312.96 549.22 361.18 568.5 341.89 520.28 293.68 568.5 245.46"/>
  </g>
  <g class="error">
    <g class="text">
      <text transform="translate(1568.71 145.47)">not rotated in place</text>
      <text transform="translate(618.44 830.76)">moved out<tspan x="53.76" y="100.8">of place</tspan></text>
    </g>
    <polygon points="1567.5 240.46 1548.21 221.18 1500 269.39 1451.79 221.18 1432.5 240.46 1480.71 288.68 1432.5 336.89 1451.79 356.18 1500 307.96 1548.21 356.18 1567.5 336.89 1519.29 288.68 1567.5 240.46"/>
    <polygon points="567.5 240.46 548.22 221.18 500 269.39 451.79 221.18 432.5 240.46 480.71 288.68 432.5 336.89 451.79 356.18 500 307.96 548.22 356.18 567.5 336.89 519.28 288.68 567.5 240.46"/>
  </g>
  <polygon class="successShadow" points="2554.98 226.18 2471.28 318.22 2446.99 299.81 2433.49 299.81 2471.28 361.18 2568.49 226.18 2554.98 226.18"/>
  <polygon class="success" points="2553.98 221.18 2470.28 313.22 2445.99 294.81 2432.49 294.81 2470.28 356.18 2567.49 221.18 2553.98 221.18"/>
</svg>
