<svg viewBox="0 0 1500 1096.97">
  <rect class="background" width="1500" height="1096.97"/>
  <g class="cd9_descend">
    <g class="bottom">
      <path class="left" d="M400,245.94V352.75a15,15,0,0,0,7.5,13L500,419.15V526a15,15,0,0,0,7.5,13l85,49.07a15,15,0,0,0,15,0l85-49.07a15,15,0,0,0,7.5-13V419.15Z"/>
      <path class="right" d="M600,590a15,15,0,0,0,7.5-2l85-49.07a15,15,0,0,0,7.5-13V511L600,575Z"/>
    </g>
    <path class="edge" d="M592.5,226.61l-85-49.08a15,15,0,0,0-15,0l-85,49.08a15,15,0,0,0-7.5,13v98.15a15,15,0,0,0,7.5,13L500,404.15V511a15,15,0,0,0,7.5,13l85,49.07a15,15,0,0,0,15,0l85-49.07a15,15,0,0,0,7.5-13V412.8a15,15,0,0,0-7.5-13L600,346.41V239.6A15,15,0,0,0,592.5,226.61Z"/>
    <path class="face" d="M588.5,228.92l-81-46.77a15,15,0,0,0-15,0l-81,46.77a15,15,0,0,0-7.5,13v93.53a15,15,0,0,0,7.5,13L504,401.84v106.8a15,15,0,0,0,7.5,13l81,46.76a15,15,0,0,0,15,0l81-46.76a15,15,0,0,0,7.5-13V415.12a15,15,0,0,0-7.5-13L596,348.72V241.91A15,15,0,0,0,588.5,228.92Z"/>
    <g class="dotsBottom">
      <path d="M517.77,393l9.37-5.41a1.88,1.88,0,0,0,0-3.25l-9.37-5.41a1.88,1.88,0,0,0-2.81,1.63v10.82A1.87,1.87,0,0,0,517.77,393Z"/>
      <path d="M546.26,382.31l9.36-5.41a1.88,1.88,0,0,0,0-3.25l-9.36-5.41a1.88,1.88,0,0,0-2.82,1.63v10.82A1.88,1.88,0,0,0,546.26,382.31Z"/>
      <path d="M574.74,371.64l9.36-5.41a1.88,1.88,0,0,0,0-3.25l-9.36-5.41a1.88,1.88,0,0,0-2.82,1.63V370A1.88,1.88,0,0,0,574.74,371.64Z"/>
    </g>
    <g class="dotsFace">
      <path d="M517.77,393l7.86-4.53-7.86-4.54a1.88,1.88,0,0,0-2.81,1.63v5.82A1.87,1.87,0,0,0,517.77,393Z"/>
      <path d="M546.26,382.31l7.85-4.53-7.85-4.54a1.88,1.88,0,0,0-2.82,1.63v5.82A1.88,1.88,0,0,0,546.26,382.31Z"/>
      <path d="M574.74,371.64l7.85-4.53-7.85-4.54a1.88,1.88,0,0,0-2.82,1.63V370A1.88,1.88,0,0,0,574.74,371.64Z"/>
    </g>
    <g class="cdBottom">
      <path d="M509.46,268.53l.54.93-9.73,5.62c-7.06-3.16-13.11-9.31-17.32-16.61-8.57-14.84-6.16-29.53,5.81-36.45,12.29-7.09,25.84-2.19,34.3,12.46,3.17,5.49,4.19,10.72,3.47,15.38l3-1.73,3.92,6.8-13.16,7.59-3.42-5.92L522,246c-4.57-7.91-14.12-10.05-22.79-5.05-9.1,5.26-11.53,13.15-7.75,19.69a15.45,15.45,0,0,0,4,4.7C501.76,261.67,506.79,263.91,509.46,268.53Z"/>
      <path d="M490,305.59c8.2,14.22,5.13,27.47-6.47,34.17S459,342.52,450.83,328.3l-17.28-29.93,5.67-3.28,2.23,3.87,27.88-16.1L467.1,279l5.67-3.28Zm-8.13-5.29-31.55,18.22.32.56c4.11,7.11,12.11,8.73,22.58,2.68s13.12-13.72,9.19-20.52Z"/>
      <path d="M531.94,262.85l3.63,3.27,15.26-8.81,1.56,2.71-14.31,8.26,8.26,7.46,13.68-7.9,1.57,2.71-12.79,7.39,3.3,2.95-9.75,5.63L539,283.57l-13.8,8,3.21,3-9.65,5.57-3.32-2.95L500.23,306l-1.56-2.71,14.4-8.31-8.22-7.48-13.91,8-1.56-2.71,12.91-7.46-3.64-3.26,9.75-5.63,3.63,3.27,13.91-8-3.64-3.27Zm4.66,18.51-8.2-7.49-14,8.08,8.27,7.44Z"/>
      <path d="M523,325.6,499,339.42l-6,3.45a16.29,16.29,0,0,1,9.38,7.18,8.28,8.28,0,0,1,.53,7.18,10.55,10.55,0,0,1-4.37,5.39,15.73,15.73,0,0,1-6.31,2,8.91,8.91,0,0,1-4-.44L484.48,363q-9.06-4-18.19-7.95l55.27-31.92Zm-27.61,26A4.24,4.24,0,0,0,495,348c-.86-1.49-2.41-2.22-4.63-2.19q-2.57.1-9.85,4.32l-8.05,4.64c-.21.21,2.33,1.07,7.61,2.6a14,14,0,0,0,8.28.08,12.4,12.4,0,0,0,3-1.25A8.21,8.21,0,0,0,495.36,351.64Z"/>
    </g>
    <g class="abBottom">
      <path d="M623.46,430.35c-5.43-9.84-4.34-18,2.33-21.89,7.36-4.24,14.68-1.65,20.29,8.08,3.39,5.86,4.75,8.23,7.9,14.4l9.47,16.4-5.68,3.27-2.23-3.86-27.87,16.09,2.23,3.87L624.22,470l-9.47-16.4c-3.74-6.48-4.7-7.43-7.15-11.67-4.32-7.48-3.82-13.67,1.79-16.91C614.26,422.19,619.62,424,623.46,430.35Zm3.91,8.21-.18-.31c-2.74-4.74-6.69-6.11-10.68-3.81-3.68,2.13-4.9,5.49-1.87,10.73l.32.56Zm3.68-2.12,16.09-9.29-.43-.75c-3.1-5.36-7.6-6.67-12.71-3.72s-6.44,7.71-3.06,13.57Z"/>
      <path d="M606.45,510.69l10.26-2.1-2.45-4.24,6.3-3.64,8.07,14-6.3,3.64-2.56-4.43L580,521.12l-10.58-18.34L595.84,471l-2.59-4.49,5.68-3.27,16.12,27.93-5.67,3.28-2.27-3.93-7.54,8.26ZM585,515l15-3-4.78-8.3Z"/>
      <path d="M563.05,479.39l-3.63-3.27-15.25,8.81-1.57-2.71L556.91,474l-8.26-7.45L535,474.4l-1.57-2.71,12.8-7.39-3.3-3,9.74-5.62,3.32,2.95,13.79-8-3.2-3,9.64-5.57,3.33,2.95,15.24-8.81,1.57,2.72-14.41,8.31,8.23,7.48,13.9-8,1.57,2.71-12.92,7.46,3.64,3.26-9.74,5.62L583,462.53l-13.92,8,3.64,3.26Zm-4.65-18.51,8.19,7.49,14-8.08-8.28-7.44Z"/>
      <path d="M578.53,427.9l23.94-13.82,6-3.46a16.25,16.25,0,0,1-9.38-7.18,8.29,8.29,0,0,1-.53-7.17,10.63,10.63,0,0,1,4.37-5.4,16,16,0,0,1,6.32-2,8.74,8.74,0,0,1,4,.44l3.8,1.17q9,4,18.19,8l-55.28,31.91Zm27.61-26a4.21,4.21,0,0,0,.36,3.65q1.31,2.25,4.63,2.19,2.57-.1,9.86-4.31l8-4.65c.21-.2-2.32-1.07-7.61-2.59a14,14,0,0,0-8.27-.08,12.62,12.62,0,0,0-3,1.24A8.28,8.28,0,0,0,606.14,401.86Z"/>
    </g>
    <g class="cdFace">
      <path d="M520.29,262.52l11-6.34-1.76-3.05-3,1.73a19.31,19.31,0,0,0,.09-5.05l-.09.05c0-.16,0-.32.05-.48a26.56,26.56,0,0,0-3.52-9.9c-8.46-14.65-22-19.55-34.3-12.46A21.18,21.18,0,0,0,478,243.74a36.59,36.59,0,0,0,5,14.73c4.21,7.3,10.26,13.45,17.32,16.61l7.17-4.14c-2.86-2.71-7-3.5-12-.64a15.45,15.45,0,0,1-4-4.7,11.9,11.9,0,0,1-1.43-8.65c-1.25-5.65,1.72-11.73,9.18-16,8.67-5,18.22-2.86,22.79,5.05,0,0-.43,4.26,0,5l-3.85,7.92Z"/>
      <path d="M472.77,280.72l-3.51,2,.07.11v5L441.45,304l-2.23-3.87-3.51,2,15.12,26.18c8.21,14.22,21.12,18.15,32.72,11.46,6.41-3.71,10.21-9.41,10.95-16.18a33,33,0,0,0-4.48-13Zm.47,46c-10.47,6.05-18.47,4.43-22.58-2.68l-.32-.56.32-4.44-.32-.56,31.55-18.22.54.94a11.54,11.54,0,0,1,1.41,8.55C485.19,315.63,481.88,321.78,473.24,326.76Z"/>
      <g>
        <polygon points="518.8 300.12 528.45 294.55 526.15 292.39 522.69 294.39 514.42 286.95 515.36 282.79 512.03 284.71 508.4 281.44 502.05 285.11 502.29 285.33 501.35 289.49 504.85 287.47 513.07 294.95 512.14 299.1 515.48 297.17 518.8 300.12"/>
        <polygon points="542.35 286.52 552.1 280.89 549.74 278.78 546.34 280.74 538.08 273.28 539.02 269.13 535.57 271.12 531.94 267.85 525.7 271.45 525.95 271.68 525 275.83 528.4 273.87 536.6 281.36 535.67 285.51 539.04 283.57 542.35 286.52"/>
      </g>
      <g>
        <path d="M494.88,343.57,491,345.81a4.87,4.87,0,0,1,3.33,1.32Z"/>
        <path d="M488.27,364.21a8.91,8.91,0,0,0,4,.44,15.73,15.73,0,0,0,6.31-2,10.55,10.55,0,0,0,4.37-5.39c.07-.2.12-.4.18-.59a8.61,8.61,0,0,0-.71-1.59,15.7,15.7,0,0,0-7.06-6.26,4.17,4.17,0,0,1,0,2.85,6.9,6.9,0,0,1-.5,1.15c0,.06.09.12.13.19a4.24,4.24,0,0,1,.37,3.66,8.21,8.21,0,0,1-4,4.54,12.4,12.4,0,0,1-3,1.25,13.55,13.55,0,0,1-3.93.58l.06,0Z"/>
        <path d="M474.41,358.63l-.26-3.09-2.94,1.69Z"/>
      </g>
    </g>
    <g class="abFace">
      <path d="M609.39,430a8.76,8.76,0,0,0-4.37,5.52,22,22,0,0,0,2.58,6.39c2.45,4.24,3.41,5.19,7.15,11.67l9.47,16.4,3.51-2-.06-.11v-5l27.87-16.09,2.23,3.86,3.51-2L654,435.93c-3.15-6.16-4.51-8.53-7.9-14.39-5.61-9.73-12.93-12.32-20.29-8.08a11.09,11.09,0,0,0-5.58,7.94,27.56,27.56,0,0,0,3.25,9l-.77,3.51a9.92,9.92,0,0,1,4.5,4.39l.18.31v5L615,450.73l-.32-.56c-1.84-3.18-2.1-5.67-1.21-7.61-1.3-3.78.05-6.37,3.08-8.12a6.81,6.81,0,0,1,5.85-.72C618.64,428.72,613.81,427.45,609.39,430ZM634,422.68c5.11-2.95,9.61-1.64,12.71,3.72l.43.75v5l-16.09,9.29-.11-.19c-1.86-3.21-2.32-6.07-1.51-8.5C628.24,428.52,629.85,425.08,634,422.68Z"/>
      <path d="M595.42,470.26l.42.74v5l-24.68,29.73L580,521.12l39.73-7.23,2.56,4.43,4.13-2.39-5.9-10.22-4.13,2.39.28.49v5l-10.26,2.1-6.88-11.91v-5l7.54-8.26,2.27,3.93,3.51-2-14-24.18ZM600,512v5l-15,3v-5l10.26-11.33Z"/>
      <g>
        <polygon points="563.05 479.39 569.29 475.78 569.05 475.56 569.99 471.4 566.59 473.37 558.4 465.88 559.32 461.72 555.96 463.67 552.64 460.72 546.2 464.3 545.26 468.46 548.65 466.5 556.91 473.95 555.98 478.11 559.42 476.12 563.05 479.39"/>
        <polygon points="586.6 465.79 592.95 462.13 592.7 461.91 593.64 457.75 590.15 459.77 581.92 452.29 582.86 448.14 579.51 450.07 576.19 447.12 569.75 450.7 568.84 454.85 572.3 452.85 580.58 460.29 579.64 464.45 582.97 462.53 586.6 465.79"/>
      </g>
      <g>
        <path d="M607.16,411.37l-.54,3.56,3.88-2.24A4.92,4.92,0,0,1,607.16,411.37Z"/>
        <path d="M627.08,399.87l.26,3.09,2.94-1.7Z"/>
        <path d="M613.22,394.29a8.74,8.74,0,0,0-4-.44,16,16,0,0,0-6.32,2,10.63,10.63,0,0,0-4.37,5.4c-.07.2-.12.39-.17.59a7.62,7.62,0,0,0,.7,1.58,15.86,15.86,0,0,0,7.07,6.27l.36-4.2a4.21,4.21,0,0,1-.36-3.65,8.28,8.28,0,0,1,4-4.55,12.62,12.62,0,0,1,3-1.24,13.49,13.49,0,0,1,3.92-.58l-.05,0Z"/>
      </g>
    </g>
  </g>
  <g class="g9_horizon">
    <g class="bottom">
      <path class="left" d="M400,684.16v15a15,15,0,0,0,7.5,13l85,49.07a15,15,0,0,0,15,0l92.5-53.4,92.5,53.41a15,15,0,0,0,15,0l85-49.08a15,15,0,0,0,7.5-13v-15Z"/>
      <g class="right">
        <path d="M600,692.82,500,748.23v15a15,15,0,0,0,7.5-2l92.5-53.4v-15"/>
        <path d="M800,699.16a15,15,0,0,1-7.5,13l-85,49.08a15,15,0,0,1-7.5,2v-15l100-64.08Z"/>
      </g>
    </g>
    <path class="edge" d="M692.5,524,600,577.35,507.5,524a15,15,0,0,0-15,0L407.5,573a15,15,0,0,0-7.5,13v98.15a15,15,0,0,0,7.5,13l85,49.08a15,15,0,0,0,15,0L600,692.82l92.5,53.41a15,15,0,0,0,15,0l85-49.08a15,15,0,0,0,7.5-13V586a15,15,0,0,0-7.5-13L707.5,524A15,15,0,0,0,692.5,524Z"/>
    <path class="face" d="M692.5,528.57,600,582l-92.5-53.41a15,15,0,0,0-15,0l-81,46.77a15,15,0,0,0-7.5,13v93.53a15,15,0,0,0,7.5,13l81,46.77a15,15,0,0,0,15,0L600,688.2l92.5,53.41a15,15,0,0,0,15,0l81-46.77a15,15,0,0,0,7.5-13V588.32a15,15,0,0,0-7.5-13l-81-46.76A15,15,0,0,0,692.5,528.57Z"/>
    <g class="dotsBottom">
      <path d="M601.56,670.58V659.77a1.88,1.88,0,0,0-2.82-1.63l-9.37,5.41a1.88,1.88,0,0,0,0,3.25l9.37,5.41A1.88,1.88,0,0,0,601.56,670.58Z"/>
      <path d="M606.56,640.58V629.77a1.88,1.88,0,0,0-2.82-1.63l-9.37,5.41a1.88,1.88,0,0,0,0,3.25l9.37,5.41A1.88,1.88,0,0,0,606.56,640.58Z"/>
      <path d="M611.56,610.58V599.77a1.88,1.88,0,0,0-2.82-1.63l-9.37,5.41a1.88,1.88,0,0,0,0,3.25l9.37,5.41A1.88,1.88,0,0,0,611.56,610.58Z"/>
    </g>
    <g class="dotsFace">
      <path d="M598.74,663.14l-7.85,4.53,7.85,4.54a1.88,1.88,0,0,0,2.82-1.63v-5.81A1.88,1.88,0,0,0,598.74,663.14Z"/>
      <path d="M603.74,633.14l-7.85,4.53,7.85,4.54a1.88,1.88,0,0,0,2.82-1.63v-5.81A1.88,1.88,0,0,0,603.74,633.14Z"/>
      <path d="M608.74,603.14l-7.85,4.53,7.85,4.54a1.88,1.88,0,0,0,2.82-1.63v-5.81A1.88,1.88,0,0,0,608.74,603.14Z"/>
    </g>
    <path class="eBottom" d="M653.2,680.46V652.09h9.93l13.4,18h21.74V641.44h-14v10.22h-9.65V620.41h9.65v10.66h14V600.25h-27.5c0,13.25-6.2,21.89-18.15,21.89h-2.16V589.89h99.07V603h-8.92v64.37h8.92v13.1Z"/>
    <path class="gBottom" d="M531.39,599v-8.07h15.7V618.4H533.41l-14.69-16.71c-21,.43-31.54,14.55-31.54,34.42,0,20.3,11.67,34.56,28.23,34.56V647.48h-8.36v-13.1h49v13.1H548v19.59c-13.1,10.08-29.81,14.83-46.66,14.83C467,681.9,444,663,444,635.39c0-28.37,23.33-46.94,57.31-46.94C513.82,588.45,526.64,593.49,531.39,599Z"/>
    <path class="eFace" d="M650.46,622.14h2.16c12,0,18.15-8.64,18.15-21.89h27.5v35.82h-14V625.41h-9.65v26.25h9.65V641.44h14v33.65H676.53l-13.4-18H653.2v23.37h96.33v-8.1h-8.92V603h8.92v-8.1H650.46Z"/>
    <path class="gFace" d="M507.05,647.48h8.36v28.19c-16.56,0-28.23-14.26-28.23-34.56,0-.86,0-1.7.07-2.53s-.07-1.64-.07-2.47c0-19.87,10.51-34,31.54-34.42l14.69,16.71h13.68V595.89h-15.7V604c-4.75-5.47-17.57-10.51-30.1-10.51-33,0-55.9,17.48-57.24,44.42,1.34,26.29,24,44,57.24,44,16.85,0,33.56-4.75,46.66-14.83V647.48H556v-8.1h-49Z"/>
  </g>
  <g class="cd10_horizon_moved">
    <g class="bottom">
      <path class="left" d="M800,684.16v15a15,15,0,0,0,7.5,13l85,49.07a15,15,0,0,0,15,0l92.5-53.4,92.5,53.41a15,15,0,0,0,15,0l85-49.08a15,15,0,0,0,7.5-13v-15Z"/>
      <g class="right">
        <path d="M1000,692.82,900,748.23v15a15,15,0,0,0,7.5-2l92.5-53.4v-15"/>
        <path d="M1200,699.16a15,15,0,0,1-7.5,13l-85,49.08a15,15,0,0,1-7.5,2v-15l100-64.08Z"/>
      </g>
    </g>
    <path class="edgeMoved" d="M1092.5,524l-92.5,53.4L907.5,524a15,15,0,0,0-15,0L807.5,573a15,15,0,0,0-7.5,13v98.15a15,15,0,0,0,7.5,13l85,49.08a15,15,0,0,0,15,0l92.5-53.41,92.5,53.41a15,15,0,0,0,15,0l85-49.08a15,15,0,0,0,7.5-13V586a15,15,0,0,0-7.5-13l-85-49.07A15,15,0,0,0,1092.5,524Z"/>
    <path class="faceMoved" d="M1092.5,528.57,1000,582l-92.5-53.41a15,15,0,0,0-15,0l-81,46.77a15,15,0,0,0-7.5,13v93.53a15,15,0,0,0,7.5,13l81,46.77a15,15,0,0,0,15,0L1000,688.2l92.5,53.41a15,15,0,0,0,15,0l81-46.77a15,15,0,0,0,7.5-13V588.32a15,15,0,0,0-7.5-13l-81-46.76A15,15,0,0,0,1092.5,528.57Z"/>
    <g class="dotsBottom">
      <path d="M1002.87,666.58v-13a2.24,2.24,0,0,0-3.37-1.94l-11.26,6.5a2.24,2.24,0,0,0,0,3.89l11.26,6.5A2.25,2.25,0,0,0,1002.87,666.58Z"/>
      <path d="M1012.87,616.58v-13a2.24,2.24,0,0,0-3.37-1.94l-11.26,6.5a2.24,2.24,0,0,0,0,3.89l11.26,6.5A2.25,2.25,0,0,0,1012.87,616.58Z"/>
    </g>
    <g class="dotsFace">
      <path d="M999.5,656.63l-10.3,6,10.3,5.95a2.25,2.25,0,0,0,3.37-1.95v-8A2.25,2.25,0,0,0,999.5,656.63Z"/>
      <path d="M1009.5,606.64l-10.3,5.94,10.3,5.95a2.25,2.25,0,0,0,3.37-1.95v-8A2.24,2.24,0,0,0,1009.5,606.64Z"/>
    </g>
    <g class="cdBottom">
      <path d="M887.28,616.82h1.08v11.23c-6.27,4.54-14.62,6.7-23,6.7-17.14,0-28.66-9.44-28.66-23.26,0-14.19,11-23.47,27.94-23.47,6.33,0,11.37,1.72,15,4.68v-3.46h7.85v15.19h-6.84L874,594.64c-9.15,0-15.77,7.2-15.77,17.21,0,10.51,5.62,16.56,13.18,16.56a15.58,15.58,0,0,0,6-1.08C877.48,620.06,882,616.82,887.28,616.82Z"/>
      <path d="M909.65,652.19c16.42,0,26.36,9.29,26.36,22.68s-9.87,22.61-26.28,22.61H875.16v-6.55h4.47V658.74h-4.47v-6.55ZM901,656.58V693h.65c8.21,0,13.61-6.12,13.61-18.21s-5.33-18.22-13.18-18.22Z"/>
      <path d="M893.6,594.51l4.65-1.52V575.38h3.13v16.53L912,588.48v-15.8h3.13v14.77l4.22-1.38v11.25l-4.22,1.4v15.93l4.22-1.26v11.13l-4.22,1.41v17.6H912V626.9l-10.58,3.39v16.05h-3.13V631.43L893.6,633V621.7l4.65-1.51V604.11l-4.65,1.53ZM912,599.73l-10.58,3.36v16.14L912,615.79Z"/>
      <path d="M943.45,633.65v34.56a16.31,16.31,0,0,1,10.91-4.54,8.28,8.28,0,0,1,6.48,3.14,10.6,10.6,0,0,1,2.49,6.48,15.78,15.78,0,0,1-1.41,6.48,9,9,0,0,1-2.37,3.24l-2.92,2.7q-8,5.82-16,11.77V633.65Zm8.75,36.94a4.19,4.19,0,0,0-3.35-1.51c-1.72,0-3.13,1-4.21,2.91-.79,1.51-1.19,5.08-1.19,10.69V692q.1.43,6-5.29a14,14,0,0,0,4.21-7.13,12.45,12.45,0,0,0,.44-3.24A8.2,8.2,0,0,0,952.2,670.59Z"/>
    </g>
    <path class="bBottom" d="M1083.08,642.07c-22.47-.44-35.57-10.52-35.57-25.92,0-17,11.81-27.07,34.27-27.07,13.54,0,19,0,32.83.72h37.87v13.1h-8.93v64.37h8.93v13.1h-37.87c-15,0-17.57.72-27.36.72-17.28,0-27.5-7.06-27.5-20C1059.75,649.84,1068.24,642.35,1083.08,642.07Zm18.14,1.44h-.72c-10.94,0-17.28,5.47-17.28,14.68,0,8.5,4.61,14,16.7,14h1.3Zm0-8.5V597.86h-1.73c-12.38,0-19.15,6.48-19.15,18.29,0,12.09,6.91,18.86,20.45,18.86Z"/>
    <g class="cdFace">
      <path d="M877.48,632.33a15.58,15.58,0,0,1-6,1.08c-7.56,0-13.18-6-13.18-16.56a22.31,22.31,0,0,1,.14-2.35c-.08-.86-.14-1.73-.14-2.65,0-10,6.62-17.21,15.77-17.21l6.62,9.79h6.84V594.24h-7.85v3.46c-3.67-3-8.71-4.68-15-4.68-15.88,0-26.56,8.18-27.82,20.9,1.28,12.49,12.42,20.83,28.54,20.83,8.42,0,16.77-2.16,23-6.7v-6.23h-1.08C882,621.82,877.48,625.06,877.48,632.33Z"/>
      <path d="M935.89,677.37c-1.17-12-10.86-20.18-26.24-20.18h-3.58c5.61,1.82,9.2,7.75,9.2,17.61,0,.86,0,1.69-.09,2.5s.09,1.63.09,2.5c0,10.06-3.74,16-9.72,17.68h4.18C925.1,697.48,934.73,689.4,935.89,677.37Z"/>
      <polygon points="901.01 693.01 901.01 661.58 901.01 657.19 875.16 657.19 875.16 658.74 879.63 658.74 879.63 663.74 879.63 690.93 879.63 695.93 875.16 695.93 875.16 697.48 901.01 697.48 901.01 693.01"/>
      <path d="M915.09,587.45v-9.77H912v15.8l-10.58,3.43V580.38h-3.13V598l-4.65,1.52v6.13l4.65-1.53v21.08l-4.65,1.51V633l4.65-1.52v14.91h3.13V630.29L912,626.9v16.63h3.13v-17.6l4.22-1.41v-6.13l-4.22,1.26V598.72l4.22-1.4v-6.25l-4.22,1.38ZM912,604.73v16.06l-10.58,3.44V603.09L912,599.73Z"/>
      <path d="M959.55,683a9,9,0,0,0,2.37-3.24,21.37,21.37,0,0,0,1.13-3.57,10.8,10.8,0,0,0-2.21-4.39,8.28,8.28,0,0,0-6.48-3.14,16.17,16.17,0,0,0-4.12.63,4.14,4.14,0,0,1,2,1.29,8.2,8.2,0,0,1,1.95,5.72,12.44,12.44,0,0,1-.29,2.49,10.48,10.48,0,0,1,.29,2.51,12.45,12.45,0,0,1-.44,3.24,13.56,13.56,0,0,1-2.34,5l5.26-3.87Z"/>
      <path d="M943.45,692v-9.29c0-5.25.35-8.69,1-10.35-.35.28-.7.57-1,.88V638.65h-2.8v58.83c.93-.7,1.87-1.38,2.8-2.07Z"/>
    </g>
    <path class="bFace" d="M1081.78,594.08c-21.25,0-33,9-34.16,24.37,1.26,14.1,14.14,23.21,35.46,23.62v5c-13.75.26-22,6.72-23.18,16.6,1.3,11.3,11.27,17.42,27.35,17.42,9.79,0,12.39-.72,27.36-.72h37.87v-8.1h-8.93V602.9h8.93v-8.1h-37.87C1100.79,594.08,1095.32,594.08,1081.78,594.08Zm19.44,54.43v28.65h-1.3c-12.09,0-16.7-5.47-16.7-14a18.41,18.41,0,0,1,.17-2.39,20,20,0,0,1-.17-2.61c0-9.21,6.34-14.68,17.28-14.68h.72Zm0-45.65V640h-.43c-13.54,0-20.45-6.77-20.45-18.86,0-.86.05-1.68.12-2.48s-.12-1.65-.12-2.52c0-11.81,6.77-18.29,19.15-18.29h1.73Z"/>
  </g>
  <g class="shadowLine">
    <path d="M993.5,563.59l-85-49.08a15,15,0,0,0-15,0l-85,49.08a15,15,0,0,1-15,0l-85-49.08a15,15,0,0,0-15,0l-85,49.08a15,15,0,0,1-15,0l-85-49.08a15,15,0,0,0-15,0L396,570.8a15,15,0,0,0-7.5,13V696.38a15,15,0,0,0,7.5,13l97.5,56.29a15,15,0,0,0,15,0l85-49.08a15,15,0,0,1,15,0l85,49.08a15,15,0,0,0,15,0l85-49.08a15,15,0,0,1,15,0l85,49.08a15,15,0,0,0,15,0L981,723.8a15,15,0,0,1,15,0l85,49.08a15,15,0,0,0,15,0l110-63.51a15,15,0,0,0,7.5-13V583.79a15,15,0,0,0-7.5-13l-97.5-56.29a15,15,0,0,0-15,0l-85,49.08A15,15,0,0,1,993.5,563.59Z"/>
    <path class="dashed" d="M913.5,748.34V855.15a15,15,0,0,0,7.5,13L993.5,910a15,15,0,0,0,15,0l72.5-41.86a15,15,0,0,0,7.5-13V771.43a15,15,0,0,0-7.5-13L988.5,705"/>
    <path d="M973.44,620.67A74.92,74.92,0,1,0,942,702.89"/>
    <path d="M1200.74,744.13c-6.44,52.8-36.16,98.82-87,121.16"/>
  </g>
  <g class="shadow">
    <g class="text">
      <text class="symbol" transform="translate(298.4 638.39)">ø7</text>
      <path class="sharp" d="M264.79,626.41l4.52-1.18v-13.7h3v12.86l10.29-2.67V609.43h3.05v11.49l4.09-1.07v8.75l-4.09,1.09v12.39l4.09-1v8.66l-4.09,1.1v13.69h-3.05V651.6l-10.29,2.64v12.48h-3v-11.6l-4.52,1.19v-8.75l4.52-1.18v-12.5l-4.52,1.18Zm17.85,4.06-10.29,2.61v12.56L282.64,643Z"/>
      <text transform="translate(220.62 668.27)">C</text>
    </g>
    <path d="M965.53,678.31c-5.91,14-11.45,32.94-12,47.41l-11.41-22.56-23.2-10C933.33,691.69,952,685,965.53,678.31Z"/>
    <path d="M1201.69,710c-5.65,14-15.11,31.42-24.93,42.08l24-8,23.53,9.24C1215.08,742.2,1206.57,724.35,1201.69,710Z"/>
    <polygon points="354.98 226.18 271.29 318.22 246.99 299.81 233.49 299.81 271.29 361.18 368.49 226.18 354.98 226.18"/>
  </g>
  <path class="firstLine" d="M992.5,558.59l-85-49.08a15,15,0,0,0-15,0l-85,49.08a15,15,0,0,1-15,0l-85-49.08a15,15,0,0,0-15,0l-85,49.08a15,15,0,0,1-15,0l-85-49.08a15,15,0,0,0-15,0L395,565.8a15,15,0,0,0-7.5,13V691.38a15,15,0,0,0,7.5,13l97.5,56.29a15,15,0,0,0,15,0l85-49.08a15,15,0,0,1,15,0l85,49.08a15,15,0,0,0,15,0l85-49.08a15,15,0,0,1,15,0l85,49.08a15,15,0,0,0,15,0L980,718.8a15,15,0,0,1,15,0l85,49.08a15,15,0,0,0,15,0l110-63.51a15,15,0,0,0,7.5-13V578.79a15,15,0,0,0-7.5-13l-97.5-56.29a15,15,0,0,0-15,0l-85,49.08A15,15,0,0,1,992.5,558.59Z"/>
  <g class="first">
    <g class="text">
      <text class="symbol" transform="translate(297.4 633.39)">ø7</text>
      <path class="sharp" d="M263.79,621.41l4.52-1.18v-13.7h3v12.86l10.29-2.67V604.43h3.05v11.49l4.09-1.07v8.75l-4.09,1.09v12.39l4.09-1v8.66l-4.09,1.1v13.69h-3.05V646.6l-10.29,2.64v12.48h-3v-11.6l-4.52,1.19v-8.75l4.52-1.18v-12.5l-4.52,1.18Zm17.85,4.06-10.29,2.61v12.56L281.64,638Z"/>
      <text transform="translate(219.62 663.27)">C</text>
    </g>
  </g>
  <g class="infoLine">
    <path class="dashed" d="M912.5,743.34V850.15a15,15,0,0,0,7.5,13L992.5,905a15,15,0,0,0,15,0l72.5-41.86a15,15,0,0,0,7.5-13V766.43a15,15,0,0,0-7.5-13L987.5,700"/>
    <path d="M972.44,615.67A74.92,74.92,0,1,0,941,697.89"/>
    <path d="M1199.74,739.13c-6.44,52.8-36.16,98.82-87,121.16"/>
  </g>
  <g class="info">
    <path d="M964.53,673.31c-5.91,14-11.45,32.94-12,47.41l-11.41-22.56-23.2-10C932.33,686.69,951,680,964.53,673.31Z"/>
    <path d="M1200.69,705c-5.65,14-15.11,31.42-24.93,42.08l24-8,23.53,9.24C1214.08,737.2,1205.57,719.35,1200.69,705Z"/>
  </g>
  <polygon class="success" points="353.98 221.18 270.29 313.22 245.99 294.81 232.49 294.81 270.29 356.18 367.49 221.18 353.98 221.18"/>
</svg>
