<svg viewBox="0 0 2500 1096.97">
  <rect class="background" width="2500" height="1096.97"/>
  <g class="c9_ascend_new">
    <g class="bottom">
      <path class="right" d="M700,245.94,400,419.14V526a15,15,0,0,0,7.5,13l85,49.08a15,15,0,0,0,15,0l85-49.08a15,15,0,0,0,7.5-13V419.14h0l92.5-53.4a15,15,0,0,0,7.5-13Z"/>
      <path class="left" d="M400,511v15a15,15,0,0,0,7.5,13l85,49.08a15,15,0,0,0,7.5,2V575Z"/>
    </g>
    <path class="edgeNew" d="M592.5,177.53l-85,49.08a15,15,0,0,0-7.5,13V346.41l-92.5,53.4a15,15,0,0,0-7.5,13V511a15,15,0,0,0,7.5,13l85,49.08a15,15,0,0,0,15,0l85-49.08a15,15,0,0,0,7.5-13V404.14l92.5-53.4a15,15,0,0,0,7.5-13V239.6a15,15,0,0,0-7.5-13l-85-49.08A15,15,0,0,0,592.5,177.53Z"/>
    <path class="faceNew" d="M592.5,182.15l-81,46.77a15,15,0,0,0-7.5,13V348.72l-92.5,53.4a15,15,0,0,0-7.5,13v93.53a15,15,0,0,0,7.5,13l81,46.76a15,15,0,0,0,15,0l81-46.76a15,15,0,0,0,7.5-13V401.83l92.5-53.4a15,15,0,0,0,7.5-13V241.91a15,15,0,0,0-7.5-13l-81-46.77A15,15,0,0,0,592.5,182.15Z"/>
    <g class="dotsBottom">
      <path d="M579.1,393l-9.36-5.41a1.88,1.88,0,0,0-2.82,1.63V400a1.88,1.88,0,0,0,2.82,1.63l9.36-5.41A1.88,1.88,0,0,0,579.1,393Z"/>
      <path d="M555.62,373.65l-9.37-5.41a1.87,1.87,0,0,0-2.81,1.63v10.81a1.87,1.87,0,0,0,2.81,1.63l9.37-5.41A1.88,1.88,0,0,0,555.62,373.65Z"/>
      <path d="M532.14,354.32l-9.37-5.41a1.87,1.87,0,0,0-2.81,1.63v10.81a1.87,1.87,0,0,0,2.81,1.63l9.37-5.41A1.88,1.88,0,0,0,532.14,354.32Z"/>
    </g>
    <g class="dotsFace">
      <path d="M569.74,401.64l7.85-4.53-7.85-4.54a1.88,1.88,0,0,0-2.82,1.63V400A1.88,1.88,0,0,0,569.74,401.64Z"/>
      <path d="M546.25,382.31l7.86-4.53-7.86-4.54a1.87,1.87,0,0,0-2.81,1.63v5.81A1.87,1.87,0,0,0,546.25,382.31Z"/>
      <path d="M522.77,363l7.86-4.53-7.86-4.54a1.87,1.87,0,0,0-2.81,1.63v5.81A1.87,1.87,0,0,0,522.77,363Z"/>
    </g>
    <path class="cBottom" d="M534.18,424.42l1.08-1.87,19.46,11.23c1.59,15.38-3,32-11.45,46.6-17.13,29.68-45,40.2-68.93,26.38-24.57-14.19-29.64-42.56-12.72-71.86,6.34-11,14.37-18,23.15-21.38l-6-3.46,7.85-13.59L513,411.66l-6.84,11.85-23.59,1.68c-9.14,15.83-3.29,34.51,14,44.51,18.21,10.52,34.3,6.84,41.86-6.26a31.33,31.33,0,0,0,4.18-11.55C530,444.62,528.85,433.64,534.18,424.42Z"/>
    <path class="aBottom" d="M605.74,257l-13.9-15.68L587,249.79l-12.6-7.27,16.13-27.93,12.59,7.27L598,230.71,650.2,292.3,629,329,547.61,315l-5.18,9-11.35-6.55,32.25-55.87,11.35,6.55L570.15,276,592,280.8Zm28.93,32.83-20.3-23-9.57,16.59Z"/>
    <path class="cFace" d="M481,411.31l3.82,2.21v5c-8.78,3.4-16.81,10.41-23.15,21.38-6.13,10.61-9.35,21.1-9.83,30.83.76,15,8.42,27.87,22.55,36,23.94,13.82,51.8,3.3,68.93-26.38,6.84-11.84,11.16-25,11.7-37.78-.05-1.28-.12-2.56-.25-3.82l-19.46-11.23-1.08,1.87a22,22,0,0,0-2.82,7.89c.8,5.38,4.26,10.55,11.24,14.58v5a31.33,31.33,0,0,1-4.18,11.55c-7.56,13.1-23.65,16.78-41.86,6.26-12.71-7.33-19.24-19.34-18.21-31.46a30.6,30.6,0,0,1,4.17-18.05l23.59-1.68,4.67-8.1-24.14-13.94Z"/>
    <path class="aFace" d="M563.33,266.6l-30.09,52.12,9.19,5.3,5.18-9L629,329l19.45-33.69L598,235.71v-5l2.95-5.1-10.43-6-14,24.18,10.44,6,4.89-8.48L605.74,257v5L592,285.8,570.15,281v-5l2.37-4.11Zm41.47,16.78,9.57-16.59,20.3,23v5l-29.87-6.44Z"/>
  </g>
  <g class="fg2_descend">
    <g class="bottom">
      <path class="left" d="M300,592.35V699.16a15,15,0,0,0,7.5,13L400,765.56V872.37a15,15,0,0,0,7.5,13l85,49.07a15,15,0,0,0,15,0l85-49.07a15,15,0,0,0,7.5-13V765.56Z"/>
      <path class="right" d="M500,936.44a15,15,0,0,0,7.5-2l85-49.07a15,15,0,0,0,7.5-13v-15L500,921.44Z"/>
    </g>
    <path class="edge" d="M492.5,573l-85-49.08a15,15,0,0,0-15,0L307.5,573a15,15,0,0,0-7.5,13v98.15a15,15,0,0,0,7.5,13L400,750.56V857.37a15,15,0,0,0,7.5,13l85,49.07a15,15,0,0,0,15,0l85-49.07a15,15,0,0,0,7.5-13V759.21a15,15,0,0,0-7.5-13L500,692.82V586A15,15,0,0,0,492.5,573Z"/>
    <path class="face" d="M488.5,575.33l-81-46.77a15,15,0,0,0-15,0l-81,46.77a15,15,0,0,0-7.5,13v93.53a15,15,0,0,0,7.5,13L404,748.25v106.8a15,15,0,0,0,7.5,13l81,46.76a15,15,0,0,0,15,0l81-46.76a15,15,0,0,0,7.5-13V761.53a15,15,0,0,0-7.5-13L496,695.13V588.32A15,15,0,0,0,488.5,575.33Z"/>
    <g class="dotsBottom">
      <path d="M478.66,705.07l-11.26,6.5a2.24,2.24,0,0,0,0,3.89L478.66,722a2.25,2.25,0,0,0,3.37-2V707A2.25,2.25,0,0,0,478.66,705.07Z"/>
      <path d="M430.36,721.41l-11.27,6.5a2.25,2.25,0,0,0,0,3.89l11.27,6.51a2.24,2.24,0,0,0,3.36-1.95v-13A2.24,2.24,0,0,0,430.36,721.41Z"/>
    </g>
    <g class="dotsFace">
      <path d="M478.66,710.07,468.36,716l10.3,6a2.25,2.25,0,0,0,3.37-2v-8A2.25,2.25,0,0,0,478.66,710.07Z"/>
      <path d="M430.36,726.41l-10.3,6,10.3,5.95a2.25,2.25,0,0,0,3.37-1.95v-8A2.25,2.25,0,0,0,430.36,726.41Z"/>
    </g>
    <g class="fgBottom">
      <path d="M391.65,663.12l3.49-2,3.93,6.8-11.92,6.87-3.42-5.92,3.57-10.54c-5.45-9-14.19-10-22.79-5-8.8,5.08-12.05,13.69-7.91,20.86l10-5.79-2.09-3.62,5.67-3.28,12.25,21.21-5.68,3.27-2-3.49-8.48,4.9c-7.64-3.16-13.87-9.2-18.08-16.5-8.57-14.84-6.16-29.54,5.81-36.45,12.28-7.09,26.16-1.63,34.66,13.08C391.81,652.88,392.83,659.69,391.65,663.12Z"/>
      <path d="M434.93,601.5l-12.28,7.1-2.48-4.31,4.44-10.3-5.43-9.41-13.66,7.88,4.36,7.55,5.05-2.92,2.41,4.18-14.41,8.32-2.41-4.18,4.87-2.81L401,595.05l-10.91,6.3,2.27,3.93-5.68,3.28-15.08-26.13,5.67-3.28,2.23,3.87,27.88-16.09-2.24-3.87,5.68-3.28Z"/>
      <path d="M432,608.62l3.63,3.27,15.25-8.81,1.57,2.71-14.31,8.27,8.25,7.45,13.69-7.9,1.56,2.71-12.79,7.39,3.3,3-9.74,5.62L439,629.34l-13.79,8,3.2,3-9.65,5.57-3.32-2.95-15.24,8.81L398.67,649l14.4-8.31-8.22-7.48-13.9,8-1.57-2.71,12.91-7.46-3.63-3.26,9.74-5.62,3.63,3.26,13.92-8-3.64-3.26Zm4.65,18.51-8.2-7.49-14,8.08,8.27,7.44Z"/>
      <path d="M421.47,668.77l-23.94,13.82-6,3.46a16.22,16.22,0,0,1,9.38,7.18,8.26,8.26,0,0,1,.53,7.17,10.58,10.58,0,0,1-4.37,5.4,15.84,15.84,0,0,1-6.31,2,8.78,8.78,0,0,1-4-.44L383,706.21q-9-4-18.19-8l55.28-31.91Zm-27.61,26a4.18,4.18,0,0,0-.37-3.65q-1.29-2.25-4.63-2.19-2.55.1-9.85,4.31l-8,4.65c-.22.2,2.32,1.07,7.6,2.59a14,14,0,0,0,8.28.08,12.38,12.38,0,0,0,3-1.24A8.23,8.23,0,0,0,393.86,694.81Z"/>
    </g>
    <g class="gaBottom">
      <path d="M473,846l-3.49,2-3.93-6.79,11.91-6.88,3.42,5.92-3.56,10.54c5.44,9,14.18,10,22.79,5.05,8.79-5.08,12-13.69,7.91-20.86l-10,5.79,2.09,3.62-5.68,3.28-12.24-21.2,5.68-3.28,2,3.49,8.48-4.9c7.64,3.16,13.88,9.2,18.09,16.5,8.57,14.84,6.16,29.54-5.81,36.45-12.29,7.09-26.16,1.63-34.66-13.08C472.8,856.2,471.78,849.39,473,846Z"/>
      <path d="M544.19,794.45l10.26-2.1L552,788.11l6.3-3.64,8.07,14-6.3,3.64-2.56-4.43-39.73,7.22L507.2,786.54l26.38-31.78L531,750.27l5.67-3.28,16.13,27.94-5.67,3.28-2.27-3.93-7.54,8.26Zm-21.45,4.32,15-3-4.79-8.3Z"/>
      <path d="M466.32,831.1l-3.63-3.26-15.25,8.8-1.57-2.71,14.31-8.26-8.26-7.45-13.68,7.9-1.57-2.72,12.8-7.38-3.3-3,9.74-5.63,3.32,3,13.79-8-3.2-3,9.64-5.57,3.32,2.95L498,788l1.57,2.71L485.19,799l8.23,7.47,13.9-8,1.57,2.72L496,808.62l3.64,3.26-9.74,5.63-3.63-3.27-13.92,8,3.64,3.26Zm-4.65-18.51,8.19,7.49,14-8.07-8.27-7.45Z"/>
      <path d="M477.29,771.82,501.24,758l6-3.46a16.25,16.25,0,0,1-9.38-7.18,8.29,8.29,0,0,1-.53-7.17,10.63,10.63,0,0,1,4.37-5.4,16,16,0,0,1,6.32-2,8.74,8.74,0,0,1,4,.44l3.8,1.17q9,4,18.19,8L478.7,774.25Zm27.62-26a4.21,4.21,0,0,0,.36,3.65q1.31,2.25,4.63,2.19,2.57-.11,9.86-4.31l8-4.65c.21-.2-2.32-1.07-7.61-2.59a14,14,0,0,0-8.28-.08,12.71,12.71,0,0,0-3,1.24A8.28,8.28,0,0,0,504.91,745.78Z"/>
    </g>
    <g class="fgFace">
      <path d="M387.15,674.77l9.75-5.62-1.76-3-3.49,2v-5a7.18,7.18,0,0,0,.28-1.13,27.1,27.1,0,0,0-3.25-9.54c-8.5-14.71-22.38-20.17-34.66-13.08a21.13,21.13,0,0,0-10.79,16.71,36.28,36.28,0,0,0,5,14.74c4.21,7.3,10.44,13.34,18.08,16.5l8.48-4.9,2,3.49,3.51-2-10.08-17.46-3.58,1.9v5l-10,5.79a12.75,12.75,0,0,1-1.52-9c-1.26-6.17,2.22-12.72,9.43-16.88,8.6-5,17.34-3.94,22.79,5v5l-2.5,7.38Z"/>
      <polygon points="422.65 608.6 432.77 602.75 410.85 564.78 407.34 566.81 407.41 566.93 407.41 571.93 379.53 588.02 377.3 584.15 373.79 586.18 386.71 608.56 390.22 606.53 390.12 606.36 390.12 601.36 401.03 595.05 405.39 602.6 405.39 607.6 402.69 609.16 402.93 609.59 415.18 602.52 414.93 602.09 409.88 605.01 405.52 597.46 405.52 592.46 419.18 584.58 424.61 593.99 424.61 598.99 421.4 606.43 422.65 608.6"/>
      <g>
        <polygon points="418.8 645.89 428.45 640.32 426.16 638.16 422.69 640.16 414.42 632.72 415.36 628.56 412.03 630.48 408.4 627.22 402.05 630.88 402.3 631.1 401.36 635.26 404.85 633.24 413.07 640.72 412.14 644.87 415.48 642.94 418.8 645.89"/>
        <polygon points="442.36 632.29 452.1 626.66 449.74 624.55 446.34 626.51 438.08 619.05 439.02 614.9 435.58 616.89 431.94 613.62 425.7 617.23 425.95 617.45 425.01 621.61 428.4 619.64 436.6 627.13 435.67 631.28 439.04 629.34 442.36 632.29"/>
      </g>
      <g>
        <path d="M372.91,701.8l-.26-3.09-2.93,1.7Z"/>
        <path d="M393.38,686.74,389.5,689a4.87,4.87,0,0,1,3.33,1.32Z"/>
        <path d="M386.77,707.38a8.78,8.78,0,0,0,4,.44,15.84,15.84,0,0,0,6.31-2,10.58,10.58,0,0,0,4.37-5.4c.07-.2.12-.39.18-.59a8.24,8.24,0,0,0-.71-1.58,15.78,15.78,0,0,0-7.06-6.27,4.17,4.17,0,0,1,0,2.85,6.9,6.9,0,0,1-.5,1.15l.13.2a4.18,4.18,0,0,1,.37,3.65,8.23,8.23,0,0,1-4,4.55,12.38,12.38,0,0,1-3,1.24,13.5,13.5,0,0,1-3.93.58l.06,0Z"/>
      </g>
    </g>
    <g class="gaFace">
      <path d="M475.93,861.63c8.5,14.71,22.37,20.17,34.66,13.08A21.14,21.14,0,0,0,521.38,858a36.58,36.58,0,0,0-5-14.74c-4.21-7.3-10.45-13.34-18.09-16.49l-8.48,4.89-2-3.49-3.51,2,10.07,17.45,5.68-3.28L498,840.75,508,835a12.75,12.75,0,0,1,1.52,9c1.26,6.17-2.22,12.72-9.43,16.88-8.61,5-17.35,3.95-22.79-5.05v-5l2.5-7.38-2.36-4.08-9.74,5.63,1.76,3,3.49-2v5a7.05,7.05,0,0,0-.28,1.12A26.9,26.9,0,0,0,475.93,861.63Z"/>
      <path d="M533.15,754l.43.74v5L508.9,789.49l8.88,15.38,39.73-7.22,2.56,4.43,4.13-2.39-5.9-10.22-4.13,2.39.28.49v5l-10.26,2.1-6.88-11.91v-5l7.54-8.26,2.27,3.93,3.51-2-14-24.19Zm4.63,41.72v5l-15,3v-5L533,787.44Z"/>
      <g>
        <polygon points="466.32 831.1 472.56 827.5 472.32 827.28 473.26 823.12 469.86 825.08 461.67 817.59 462.59 813.44 459.23 815.38 455.91 812.43 449.47 816.02 448.53 820.17 451.92 818.22 460.18 825.67 459.25 829.83 462.69 827.84 466.32 831.1"/>
        <polygon points="489.87 817.51 496.22 813.84 495.97 813.62 496.91 809.46 493.42 811.48 485.19 804.01 486.12 799.85 482.79 801.78 479.46 798.84 473.02 802.42 472.11 806.56 475.57 804.56 483.85 812.01 482.91 816.16 486.24 814.24 489.87 817.51"/>
      </g>
      <g>
        <path d="M505.93,755.29l-.54,3.56,3.88-2.24A4.92,4.92,0,0,1,505.93,755.29Z"/>
        <path d="M512,738.21a8.74,8.74,0,0,0-4-.44,16,16,0,0,0-6.32,2,10.63,10.63,0,0,0-4.37,5.4c-.07.2-.12.39-.17.59a7.62,7.62,0,0,0,.7,1.58,15.8,15.8,0,0,0,7.07,6.27s.4-4.13.36-4.2a4.21,4.21,0,0,1-.36-3.65,8.28,8.28,0,0,1,4-4.55,12.71,12.71,0,0,1,3-1.24,13.6,13.6,0,0,1,3.93-.58l-.05,0Z"/>
        <path d="M525.85,743.79l.26,3.09,2.94-1.7Z"/>
      </g>
    </g>
  </g>
  <g class="c9_ascend">
    <g class="bottom">
      <path class="right" d="M1900,245.94l-300,173.2V526a15,15,0,0,0,7.5,13l85,49.07a15,15,0,0,0,15,0l85-49.07a15,15,0,0,0,7.5-13V419.14h0l92.5-53.4a15,15,0,0,0,7.5-13Z"/>
      <path class="left" d="M1600,511v15a15,15,0,0,0,7.5,13l85,49.07a15,15,0,0,0,7.5,2V575Z"/>
    </g>
    <path class="edge" d="M1792.5,177.54l-85,49.07a15,15,0,0,0-7.5,13V346.41l-92.5,53.4a15,15,0,0,0-7.5,13V511a15,15,0,0,0,7.5,13l85,49.08a15,15,0,0,0,15,0l85-49.08a15,15,0,0,0,7.5-13V404.14l92.5-53.4a15,15,0,0,0,7.5-13V239.6a15,15,0,0,0-7.5-13l-85-49.07A15,15,0,0,0,1792.5,177.54Z"/>
    <path class="face" d="M1792.5,182.16l-81,46.76a15,15,0,0,0-7.5,13V348.72l-92.5,53.4a15,15,0,0,0-7.5,13v93.52a15,15,0,0,0,7.5,13l81,46.76a15,15,0,0,0,15,0l81-46.76a15,15,0,0,0,7.5-13V401.84l92.5-53.41a15,15,0,0,0,7.5-13V241.91a15,15,0,0,0-7.5-13l-81-46.76A15,15,0,0,0,1792.5,182.16Z"/>
    <g class="dotsBottom">
      <path d="M1779.1,393l-9.37-5.41a1.88,1.88,0,0,0-2.81,1.63V400a1.87,1.87,0,0,0,2.81,1.62l9.37-5.4A1.89,1.89,0,0,0,1779.1,393Z"/>
      <path d="M1755.62,373.65l-9.37-5.41a1.88,1.88,0,0,0-2.81,1.63v10.82a1.87,1.87,0,0,0,2.81,1.62l9.37-5.41A1.88,1.88,0,0,0,1755.62,373.65Z"/>
      <path d="M1732.14,354.32l-9.37-5.41a1.88,1.88,0,0,0-2.81,1.63v10.82a1.87,1.87,0,0,0,2.81,1.62l9.37-5.41A1.88,1.88,0,0,0,1732.14,354.32Z"/>
    </g>
    <g class="dotsFace">
      <path d="M1769.73,401.64l7.86-4.53-7.86-4.54a1.88,1.88,0,0,0-2.81,1.63V400A1.87,1.87,0,0,0,1769.73,401.64Z"/>
      <path d="M1746.25,382.31l7.86-4.53-7.86-4.54a1.88,1.88,0,0,0-2.81,1.63v5.82A1.87,1.87,0,0,0,1746.25,382.31Z"/>
      <path d="M1722.77,363l7.86-4.53-7.86-4.54a1.88,1.88,0,0,0-2.81,1.63v5.82A1.87,1.87,0,0,0,1722.77,363Z"/>
    </g>
    <path class="cBottom" d="M1734.18,424.42l1.08-1.87,19.46,11.23c1.59,15.38-3,32-11.45,46.6-17.13,29.68-45,40.2-68.93,26.38-24.57-14.19-29.64-42.55-12.72-71.86,6.34-11,14.37-18,23.15-21.38l-6-3.46,7.84-13.59L1713,411.66l-6.84,11.85-23.59,1.68c-9.14,15.84-3.29,34.51,14,44.52,18.21,10.51,34.3,6.83,41.86-6.27a31.51,31.51,0,0,0,4.18-11.55C1730,444.62,1728.85,433.65,1734.18,424.42Z"/>
    <path class="aBottom" d="M1805.74,257l-13.9-15.68-4.9,8.48-12.59-7.27,16.13-27.93,12.59,7.27-5.11,8.85,52.24,61.59L1829,329,1747.61,315l-5.18,9-11.35-6.55,32.25-55.87,11.35,6.55-4.53,7.86,21.84,4.8Zm28.93,32.83-20.3-23-9.57,16.59Z"/>
    <path class="cFace" d="M1681,411.31l3.82,2.21v5c-8.78,3.4-16.81,10.41-23.15,21.38-6.13,10.61-9.36,21.1-9.83,30.83.76,15,8.42,27.87,22.55,36,23.94,13.82,51.8,3.3,68.93-26.38,6.84-11.84,11.16-25,11.7-37.78,0-1.28-.12-2.56-.25-3.82l-19.46-11.23-1.08,1.87a22.18,22.18,0,0,0-2.82,7.89c.8,5.38,4.25,10.55,11.24,14.58v5a31.33,31.33,0,0,1-4.18,11.55c-7.56,13.1-23.65,16.78-41.86,6.27-12.71-7.34-19.24-19.35-18.21-31.47a30.6,30.6,0,0,1,4.17-18.05l23.59-1.68,4.67-8.1-24.15-13.94Z"/>
    <path class="aFace" d="M1763.33,266.6l-30.09,52.12,9.19,5.3,5.18-9L1829,329l19.45-33.69L1798,235.71v-5l3-5.1-10.43-6-14,24.18,10.43,6,4.9-8.47,13.9,15.67v5L1792,285.81l-21.84-4.8v-5l2.37-4.11Zm41.47,16.78,9.57-16.58,20.3,23v5l-29.87-6.44Z"/>
  </g>
  <g class="d8_descend_new">
    <g class="bottom">
      <path class="left" d="M1800,419.15V526a15,15,0,0,0,7.5,13l92.5,53.4V699.16a15,15,0,0,0,7.5,13l85,49.08a15,15,0,0,0,15,0l85-49.08a15,15,0,0,0,7.5-13V592.35Z"/>
      <path class="right" d="M2000,763.24a15,15,0,0,0,7.5-2l85-49.08a15,15,0,0,0,7.5-13v-15l-100,64.08Z"/>
    </g>
    <path class="edgeNew" d="M1992.5,399.82l-85-49.08a15,15,0,0,0-15,0l-85,49.08a15,15,0,0,0-7.5,13V511a15,15,0,0,0,7.5,13l92.5,53.4V684.16a15,15,0,0,0,7.5,13l85,49.08a15,15,0,0,0,15,0l85-49.08a15,15,0,0,0,7.5-13V586a15,15,0,0,0-7.5-13l-92.5-53.4V412.81A15,15,0,0,0,1992.5,399.82Z"/>
    <path class="faceNew" d="M1988.5,402.13l-81-46.77a15,15,0,0,0-15,0l-81,46.77a15,15,0,0,0-7.5,13v93.53a15,15,0,0,0,7.5,13L1904,575V681.85a15,15,0,0,0,7.5,13l81,46.77a15,15,0,0,0,15,0l81-46.77a15,15,0,0,0,7.5-13V588.32a15,15,0,0,0-7.5-13l-92.5-53.4V415.12A15,15,0,0,0,1988.5,402.13Z"/>
    <g class="dotsBottom">
      <path d="M1930.23,575.51,1938,571a1.56,1.56,0,0,0,0-2.71l-7.8-4.51a1.57,1.57,0,0,0-2.35,1.36v9A1.57,1.57,0,0,0,1930.23,575.51Z"/>
      <path d="M1973.53,550.51l7.8-4.51a1.56,1.56,0,0,0,0-2.71l-7.8-4.51a1.57,1.57,0,0,0-2.35,1.36v9A1.57,1.57,0,0,0,1973.53,550.51Z"/>
      <path d="M1920.23,558.19l7.8-4.51a1.56,1.56,0,0,0,0-2.71l-7.8-4.51a1.57,1.57,0,0,0-2.35,1.36v9A1.57,1.57,0,0,0,1920.23,558.19Z"/>
      <path d="M1963.53,533.19l7.8-4.51a1.56,1.56,0,0,0,0-2.71l-7.8-4.51a1.57,1.57,0,0,0-2.35,1.36v9A1.57,1.57,0,0,0,1963.53,533.19Z"/>
    </g>
    <g class="dotsFace">
      <path d="M1930.23,575.51l5.82-3.37-5.82-3.36a1.57,1.57,0,0,0-2.35,1.36v4A1.57,1.57,0,0,0,1930.23,575.51Z"/>
      <path d="M1973.53,550.51l5.82-3.37-5.82-3.36a1.57,1.57,0,0,0-2.35,1.36v4A1.57,1.57,0,0,0,1973.53,550.51Z"/>
      <path d="M1920.23,558.19l5.82-3.37-5.82-3.36a1.57,1.57,0,0,0-2.35,1.36v4A1.57,1.57,0,0,0,1920.23,558.19Z"/>
      <path d="M1963.53,533.19l5.82-3.37-5.82-3.36a1.57,1.57,0,0,0-2.35,1.36v4A1.57,1.57,0,0,0,1963.53,533.19Z"/>
    </g>
    <path class="dBottom" d="M1943.29,446.28c16.41,28.44,10.26,54.93-12.93,68.32s-49,5.53-65.44-22.91l-34.56-59.85,11.35-6.56,4.46,7.74,55.74-32.19-4.46-7.73,11.35-6.55ZM1927,435.71l-63.1,36.43.65,1.12c8.2,14.22,24.2,17.45,45.15,5.36s26.23-27.45,18.38-41Z"/>
    <g class="abBottom">
      <path d="M2023.45,603.56c-5.42-9.84-4.34-18,2.34-21.89,7.35-4.25,14.67-1.65,20.29,8.07,3.38,5.87,4.75,8.24,7.9,14.4l9.46,16.4-5.67,3.28-2.23-3.87-27.88,16.1,2.24,3.86-5.68,3.28-9.47-16.4c-3.74-6.49-4.7-7.43-7.15-11.67-4.32-7.48-3.82-13.67,1.79-16.91C2014.25,595.4,2019.62,597.2,2023.45,603.56Zm3.92,8.21-.18-.31c-2.74-4.74-6.69-6.11-10.68-3.81-3.68,2.12-4.9,5.49-1.88,10.73l.33.56Zm3.68-2.12,16.09-9.29-.44-.75c-3.09-5.36-7.59-6.67-12.7-3.72s-6.45,7.71-3.06,13.57Z"/>
      <path d="M2006.45,683.9l10.26-2.1-2.45-4.24,6.3-3.64,8.06,14-6.29,3.64-2.56-4.43L1980,694.32,1969.46,676l26.38-31.78-2.59-4.49,5.67-3.28,16.13,27.94-5.67,3.28-2.27-3.93-7.54,8.26ZM1985,688.22l15-3-4.79-8.3Z"/>
      <path d="M1963.05,652.6l-3.63-3.27-15.26,8.81-1.56-2.72,14.31-8.26-8.26-7.45-13.68,7.9-1.57-2.71,12.79-7.39-3.3-3,9.75-5.62,3.31,2.94,13.8-8-3.2-3,9.64-5.57,3.32,2.94,15.25-8.8,1.56,2.71-14.4,8.32,8.23,7.47,13.9-8,1.56,2.71-12.91,7.45,3.64,3.27-9.75,5.62-3.62-3.27-13.92,8,3.64,3.26Zm-4.66-18.52,8.2,7.49,14-8.07-8.27-7.45Z"/>
      <path d="M1978.52,601.11l24-13.82,6-3.46a16.25,16.25,0,0,1-9.38-7.18,8.27,8.27,0,0,1-.53-7.18,10.55,10.55,0,0,1,4.37-5.39,15.73,15.73,0,0,1,6.32-2,8.74,8.74,0,0,1,4,.44l3.8,1.17q9,4,18.18,8l-55.27,31.91Zm27.62-26a4.21,4.21,0,0,0,.36,3.65c.86,1.5,2.41,2.23,4.63,2.19q2.56-.1,9.85-4.32l8-4.64c.21-.21-2.32-1.07-7.61-2.59a14.09,14.09,0,0,0-8.28-.09,13,13,0,0,0-3,1.25A8.21,8.21,0,0,0,2006.14,575.07Z"/>
    </g>
    <path class="dFace" d="M1908.8,391.55l-9.18,5.3,2.29,4v5L1846.17,438l-4.46-7.74-9.19,5.31,32.4,56.1c16.41,28.44,42.24,36.31,65.44,22.91,13.59-7.84,21.32-20.19,22.09-34.79-.48-9-3.45-18.63-9.16-28.53Zm.94,92.07c-21,12.09-37,8.86-45.15-5.36l-.65-1.12v-5l63.1-36.43,1.08,1.87a23.59,23.59,0,0,1,3.28,14.65C1932.64,463.12,1925.76,474.37,1909.74,483.62Z"/>
    <g class="abFace">
      <path d="M2009.39,603.21a8.72,8.72,0,0,0-4.37,5.52,21.85,21.85,0,0,0,2.58,6.39c2.45,4.24,3.41,5.18,7.15,11.67l9.47,16.4,3.51-2-.07-.11v-5l27.88-16.1,2.23,3.87,3.51-2-7.3-12.65c-3.15-6.16-4.52-8.53-7.9-14.4-5.62-9.72-12.94-12.32-20.29-8.07a11.07,11.07,0,0,0-5.58,7.94,27.39,27.39,0,0,0,3.24,8.94l-.76,3.52a9.91,9.91,0,0,1,4.5,4.39l.18.31v5L2015,623.94l-.33-.56c-1.83-3.18-2.1-5.67-1.21-7.61-1.3-3.78.06-6.37,3.09-8.12a6.75,6.75,0,0,1,5.84-.72C2018.63,601.92,2013.81,600.66,2009.39,603.21Zm24.61-7.32c5.11-2.95,9.61-1.64,12.7,3.72l.44.75v5l-16.09,9.29-.11-.19c-1.86-3.21-2.33-6.07-1.51-8.5C2028.24,601.72,2029.85,598.28,2034,595.89Z"/>
      <path d="M1995.41,643.47l.43.74v5l-24.68,29.73,8.88,15.38,39.73-7.22,2.56,4.43,4.13-2.39-5.9-10.22-4.13,2.39.28.49v5l-10.26,2.1L1999.57,677v-5l7.54-8.26,2.27,3.93,3.51-2-14-24.19Zm4.63,41.72v5l-15,3v-5l10.25-11.33Z"/>
      <g>
        <polygon points="1963.05 652.6 1969.29 648.99 1969.05 648.77 1969.99 644.61 1966.59 646.57 1958.39 639.08 1959.32 634.93 1955.95 636.87 1952.64 633.93 1946.19 637.51 1945.26 641.67 1948.65 639.71 1956.91 647.16 1955.97 651.32 1959.42 649.33 1963.05 652.6"/>
        <polygon points="1986.6 639 1992.95 635.34 1992.7 635.12 1993.64 630.96 1990.15 632.97 1981.92 625.5 1982.85 621.35 1979.51 623.27 1976.19 620.33 1969.75 623.91 1968.84 628.05 1972.3 626.05 1980.57 633.5 1979.64 637.66 1982.96 635.74 1986.6 639"/>
      </g>
      <g>
        <path d="M2007.16,584.57l-.55,3.56,3.88-2.24A4.87,4.87,0,0,1,2007.16,584.57Z"/>
        <path d="M2027.08,573.07l.26,3.1,2.94-1.7Z"/>
        <path d="M2013.22,567.5a8.74,8.74,0,0,0-4-.44,15.73,15.73,0,0,0-6.32,2,10.55,10.55,0,0,0-4.37,5.39c-.07.2-.12.4-.18.6a8.24,8.24,0,0,0,.71,1.58,15.7,15.7,0,0,0,7.06,6.26l.37-4.19a4.21,4.21,0,0,1-.36-3.65,8.21,8.21,0,0,1,4-4.55,13,13,0,0,1,3-1.25,14.33,14.33,0,0,1,3.93-.58l0,0Z"/>
      </g>
    </g>
  </g>
  <g class="c5_horizon">
    <g class="bottom">
      <path class="left" d="M600,857.37v15a15,15,0,0,0,7.5,13l85,49.07a15,15,0,0,0,15,0L800,881l92.5,53.4a15,15,0,0,0,15,0l85-49.07a15,15,0,0,0,7.5-13v-15Z"/>
      <g class="right">
        <path d="M800,866,700,921.44v15a15,15,0,0,0,7.5-2L800,881V866"/>
        <path d="M1000,872.37a15,15,0,0,1-7.5,13l-85,49.07a15,15,0,0,1-7.5,2v-15l100-64.07Z"/>
      </g>
    </g>
    <path class="edge" d="M892.5,697.15,800,750.56l-92.5-53.41a15,15,0,0,0-15,0l-85,49.08a15,15,0,0,0-7.5,13v98.15a15,15,0,0,0,7.5,13l85,49.07a15,15,0,0,0,15,0L800,866l92.5,53.4a15,15,0,0,0,15,0l85-49.07a15,15,0,0,0,7.5-13V759.22a15,15,0,0,0-7.5-13l-85-49.08A15,15,0,0,0,892.5,697.15Z"/>
    <path class="face" d="M892.5,701.77,800,755.17l-92.5-53.4a15,15,0,0,0-15,0l-81,46.76a15,15,0,0,0-7.5,13v93.52a15,15,0,0,0,7.5,13l81,46.76a15,15,0,0,0,15,0l92.5-53.4,92.5,53.4a15,15,0,0,0,15,0l81-46.76a15,15,0,0,0,7.5-13V761.53a15,15,0,0,0-7.5-13l-81-46.77A15,15,0,0,0,892.5,701.77Z"/>
    <g class="dotsBottom">
      <path d="M784.53,773.79v9a1.57,1.57,0,0,0,2.35,1.36l7.8-4.51a1.56,1.56,0,0,0,0-2.71l-7.8-4.51A1.57,1.57,0,0,0,784.53,773.79Z"/>
      <path d="M784.53,833.79v9a1.57,1.57,0,0,0,2.35,1.36l7.8-4.51a1.56,1.56,0,0,0,0-2.71l-7.8-4.51A1.57,1.57,0,0,0,784.53,833.79Z"/>
      <path d="M804.53,773.79v9a1.57,1.57,0,0,0,2.35,1.36l7.8-4.51a1.56,1.56,0,0,0,0-2.71l-7.8-4.51A1.57,1.57,0,0,0,804.53,773.79Z"/>
      <path d="M794.53,803.79v9a1.57,1.57,0,0,0,2.35,1.36l7.8-4.51a1.56,1.56,0,0,0,0-2.71l-7.8-4.51A1.57,1.57,0,0,0,794.53,803.79Z"/>
      <path d="M804.53,833.79v9a1.57,1.57,0,0,0,2.35,1.36l7.8-4.51a1.56,1.56,0,0,0,0-2.71l-7.8-4.51A1.57,1.57,0,0,0,804.53,833.79Z"/>
    </g>
    <g class="dotsFace">
      <path d="M786.88,784.16l5.82-3.37-5.82-3.36a1.57,1.57,0,0,0-2.35,1.35v4A1.57,1.57,0,0,0,786.88,784.16Z"/>
      <path d="M786.88,844.16l5.82-3.37-5.82-3.36a1.57,1.57,0,0,0-2.35,1.35v4A1.57,1.57,0,0,0,786.88,844.16Z"/>
      <path d="M806.88,784.16l5.82-3.37-5.82-3.36a1.57,1.57,0,0,0-2.35,1.35v4A1.57,1.57,0,0,0,806.88,784.16Z"/>
      <path d="M796.88,814.16l5.82-3.37-5.82-3.36a1.57,1.57,0,0,0-2.35,1.35v4A1.57,1.57,0,0,0,796.88,814.16Z"/>
      <path d="M806.88,844.16l5.82-3.37-5.82-3.36a1.57,1.57,0,0,0-2.35,1.35v4A1.57,1.57,0,0,0,806.88,844.16Z"/>
    </g>
    <path class="cBottom" d="M749.53,819.16h2.16v22.47C739.17,850.7,722.46,855,705.62,855c-34.28,0-57.32-18.87-57.32-46.51,0-28.37,22-47,55.88-47,12.67,0,22.75,3.46,30.09,9.36V764H750v30.38H736.29L723,774.81c-18.29,0-31.54,14.4-31.54,34.42,0,21,11.24,33.12,26.36,33.12A31.29,31.29,0,0,0,730,840.19C730,825.64,738.88,819.16,749.53,819.16Z"/>
    <path class="fBottom" d="M851.83,853.58V825.21h9.94l13.39,18H896.9V811.67H879.48v11.67h-9.65V790.07h9.65v11.24H896.9v-25.2h-9.07V763h60.34v13.11h-8.93v64.36h8.93v13.11Z"/>
    <path class="cFace" d="M730,845.19a31.29,31.29,0,0,1-12.09,2.16c-15.12,0-26.36-12.1-26.36-33.12,0-.8,0-1.58.07-2.35s-.07-1.75-.07-2.65c0-20,13.25-34.42,31.54-34.42l13.25,19.58H750V769h-15.7v6.91c-7.34-5.9-17.42-9.36-30.09-9.36-32.8,0-54.51,17.46-55.81,44.36,1.3,26.33,24,44.1,57.25,44.1,16.84,0,33.55-4.32,46.07-13.39V824.16h-2.16C738.88,824.16,730,830.64,730,845.19Z"/>
    <polygon class="fFace" points="887.83 776.11 896.9 776.11 896.9 781.11 896.9 801.31 896.9 806.31 879.48 806.31 879.48 801.31 879.48 795.07 869.83 795.07 869.83 823.34 879.48 823.34 879.48 816.67 879.48 811.67 896.9 811.67 896.9 816.67 896.9 843.21 896.9 848.21 875.16 848.21 861.77 830.21 851.83 830.21 851.83 853.58 948.17 853.58 948.17 845.47 939.24 845.47 939.24 840.47 939.24 781.11 939.24 776.11 948.17 776.11 948.17 768 887.83 768 887.83 776.11"/>
  </g>
  <g class="fg2_descend">
    <g class="bottom">
      <path class="left" d="M1500,592.35V699.16a15,15,0,0,0,7.5,13l92.5,53.41V872.37a15,15,0,0,0,7.5,13l85,49.07a15,15,0,0,0,15,0l85-49.07a15,15,0,0,0,7.5-13V765.56Z"/>
      <path class="right" d="M1700,936.44a15,15,0,0,0,7.5-2l85-49.07a15,15,0,0,0,7.5-13v-15l-100,64.07Z"/>
    </g>
    <path class="edge" d="M1692.5,573l-85-49.07a15,15,0,0,0-15,0l-85,49.07a15,15,0,0,0-7.5,13v98.15a15,15,0,0,0,7.5,13l92.5,53.41V857.37a15,15,0,0,0,7.5,13l85,49.07a15,15,0,0,0,15,0l85-49.07a15,15,0,0,0,7.5-13V759.22a15,15,0,0,0-7.5-13L1700,692.82V586A15,15,0,0,0,1692.5,573Z"/>
    <path class="face" d="M1688.5,575.33l-81-46.76a15,15,0,0,0-15,0l-81,46.76a15,15,0,0,0-7.5,13v93.53a15,15,0,0,0,7.5,13l92.5,53.41v106.8a15,15,0,0,0,7.5,13l81,46.76a15,15,0,0,0,15,0l81-46.76a15,15,0,0,0,7.5-13V761.53a15,15,0,0,0-7.5-13l-92.5-53.4V588.32A15,15,0,0,0,1688.5,575.33Z"/>
    <g class="dotsBottom">
      <path d="M1678.66,705.07l-11.26,6.5a2.24,2.24,0,0,0,0,3.89l11.26,6.51a2.25,2.25,0,0,0,3.37-2V707A2.25,2.25,0,0,0,1678.66,705.07Z"/>
      <path d="M1630.36,721.41l-11.27,6.5a2.25,2.25,0,0,0,0,3.89l11.27,6.51a2.24,2.24,0,0,0,3.36-1.95v-13A2.24,2.24,0,0,0,1630.36,721.41Z"/>
    </g>
    <g class="dotsFace">
      <path d="M1678.66,710.07l-10.3,5.95,10.3,6a2.25,2.25,0,0,0,3.37-2v-8A2.25,2.25,0,0,0,1678.66,710.07Z"/>
      <path d="M1630.36,726.41l-10.31,6,10.31,5.95a2.24,2.24,0,0,0,3.36-1.95v-8A2.24,2.24,0,0,0,1630.36,726.41Z"/>
    </g>
    <g class="fgBottom">
      <path d="M1591.65,663.12l3.49-2,3.93,6.8-11.92,6.87-3.42-5.92,3.57-10.54c-5.45-9-14.19-10-22.79-5-8.8,5.08-12,13.69-7.91,20.86l10-5.79-2.09-3.62,5.67-3.28,12.25,21.21-5.68,3.27-2-3.49-8.48,4.9c-7.64-3.16-13.87-9.2-18.09-16.5-8.56-14.84-6.15-29.54,5.82-36.45,12.28-7.09,26.16-1.63,34.66,13.08C1591.81,652.88,1592.83,659.69,1591.65,663.12Z"/>
      <path d="M1634.93,601.5l-12.28,7.1-2.48-4.31,4.44-10.3-5.43-9.41-13.66,7.88,4.36,7.55,5-2.92,2.41,4.18-14.41,8.32-2.41-4.18,4.87-2.81-4.36-7.55-10.91,6.31,2.26,3.92-5.67,3.28-15.09-26.13,5.68-3.28,2.23,3.87,27.88-16.09-2.24-3.87,5.68-3.27Z"/>
      <path d="M1631.94,608.62l3.64,3.27,15.25-8.81,1.57,2.71-14.31,8.27,8.25,7.45,13.69-7.9,1.56,2.71-12.79,7.39,3.3,3-9.74,5.62-3.32-2.95-13.79,8,3.2,3-9.65,5.57-3.32-2.95-15.24,8.81-1.57-2.72,14.4-8.31-8.22-7.48-13.9,8-1.57-2.71,12.91-7.46-3.63-3.26,9.74-5.62,3.63,3.26,13.92-8-3.64-3.26Zm4.66,18.51-8.2-7.48-14,8.07,8.27,7.44Z"/>
      <path d="M1621.47,668.77l-23.94,13.82-6,3.46a16.22,16.22,0,0,1,9.38,7.18,8.26,8.26,0,0,1,.53,7.17,10.54,10.54,0,0,1-4.37,5.4,15.84,15.84,0,0,1-6.31,2,8.78,8.78,0,0,1-4-.44l-3.79-1.17q-9-4-18.19-8l55.28-31.91Zm-27.61,26a4.18,4.18,0,0,0-.37-3.65q-1.29-2.25-4.63-2.19-2.55.1-9.85,4.31l-8,4.65c-.22.2,2.32,1.07,7.6,2.59a14,14,0,0,0,8.28.08,12.38,12.38,0,0,0,3-1.24A8.23,8.23,0,0,0,1593.86,694.81Z"/>
    </g>
    <g class="gaBottom">
      <path d="M1673,846l-3.49,2-3.93-6.79,11.91-6.88,3.42,5.92-3.56,10.54c5.44,9,14.18,10,22.79,5.05,8.79-5.07,12.05-13.69,7.91-20.86l-10,5.8,2.09,3.61-5.68,3.28-12.24-21.2,5.68-3.28,2,3.49,8.48-4.89c7.64,3.15,13.88,9.2,18.09,16.49,8.57,14.84,6.16,29.54-5.81,36.45-12.29,7.09-26.16,1.63-34.66-13.08C1672.8,856.2,1671.78,849.39,1673,846Z"/>
      <path d="M1744.19,794.45l10.26-2.1-2.45-4.24,6.3-3.64,8.06,14-6.29,3.64-2.56-4.43-39.73,7.22-10.59-18.33,26.39-31.78-2.59-4.49,5.67-3.28,16.13,27.94-5.67,3.28-2.27-3.93-7.54,8.26Zm-21.45,4.32,15-3-4.79-8.3Z"/>
      <path d="M1666.32,831.1l-3.63-3.26-15.25,8.8-1.57-2.71,14.31-8.26-8.26-7.45-13.68,7.9-1.57-2.72,12.8-7.38-3.3-3,9.74-5.63,3.32,3,13.79-8-3.2-3,9.64-5.56,3.32,2.94L1698,788l1.57,2.71L1685.19,799l8.23,7.47,13.9-8,1.57,2.72L1696,808.62l3.64,3.26-9.74,5.63-3.63-3.27-13.92,8,3.64,3.26Zm-4.66-18.51,8.2,7.49,14-8.07-8.27-7.45Z"/>
      <path d="M1677.29,771.82l24-13.82,6-3.46a16.25,16.25,0,0,1-9.38-7.18,8.29,8.29,0,0,1-.53-7.17,10.63,10.63,0,0,1,4.37-5.4,16,16,0,0,1,6.32-2,8.88,8.88,0,0,1,4,.44l3.8,1.17q9,4,18.19,8l-55.28,31.91Zm27.62-26a4.21,4.21,0,0,0,.36,3.65q1.31,2.25,4.63,2.19,2.56-.11,9.86-4.31l8-4.65c.21-.2-2.32-1.07-7.61-2.59a14,14,0,0,0-8.28-.08,12.71,12.71,0,0,0-3,1.24A8.24,8.24,0,0,0,1704.91,745.78Z"/>
    </g>
    <g class="fgFace">
      <path d="M1587.15,674.77l9.75-5.62-1.76-3-3.49,2v-5a7.18,7.18,0,0,0,.28-1.13,27.1,27.1,0,0,0-3.25-9.54c-8.5-14.71-22.38-20.17-34.66-13.08a21.13,21.13,0,0,0-10.79,16.71,36.41,36.41,0,0,0,5,14.74c4.22,7.3,10.45,13.34,18.09,16.5l8.48-4.9,2,3.49,3.51-2-10.08-17.46-3.58,1.9v5l-10,5.79a12.75,12.75,0,0,1-1.52-9c-1.26-6.17,2.22-12.72,9.43-16.88,8.6-5,17.34-3.94,22.79,5v5l-2.5,7.38Z"/>
      <polygon points="1622.65 608.6 1632.77 602.75 1610.85 564.78 1607.34 566.81 1607.41 566.93 1607.41 571.93 1579.53 588.02 1577.3 584.15 1573.79 586.18 1586.71 608.56 1590.22 606.53 1590.12 606.36 1590.12 601.36 1601.03 595.05 1605.38 602.6 1605.38 607.6 1602.69 609.16 1602.93 609.59 1615.17 602.52 1614.93 602.09 1609.88 605.01 1605.52 597.46 1605.52 592.46 1619.18 584.58 1624.61 593.99 1624.61 598.99 1621.4 606.43 1622.65 608.6"/>
      <g>
        <polygon points="1618.8 645.89 1628.45 640.32 1626.16 638.16 1622.69 640.16 1614.42 632.72 1615.36 628.56 1612.03 630.48 1608.4 627.22 1602.05 630.88 1602.29 631.1 1601.36 635.26 1604.85 633.25 1613.07 640.72 1612.14 644.87 1615.48 642.94 1618.8 645.89"/>
        <polygon points="1642.36 632.29 1652.1 626.67 1649.74 624.55 1646.34 626.51 1638.09 619.05 1639.02 614.9 1635.58 616.89 1631.94 613.62 1625.7 617.23 1625.95 617.45 1625.01 621.61 1628.4 619.64 1636.6 627.13 1635.67 631.29 1639.04 629.34 1642.36 632.29"/>
      </g>
      <g>
        <path d="M1572.91,701.8l-.26-3.09-2.93,1.7Z"/>
        <path d="M1593.38,686.74,1589.5,689a4.82,4.82,0,0,1,3.33,1.31Z"/>
        <path d="M1586.77,707.38a8.78,8.78,0,0,0,4,.44,15.84,15.84,0,0,0,6.31-2,10.54,10.54,0,0,0,4.37-5.4c.07-.2.12-.39.18-.59a8.24,8.24,0,0,0-.71-1.58,15.78,15.78,0,0,0-7.06-6.27,4.17,4.17,0,0,1,0,2.85,6.9,6.9,0,0,1-.5,1.15l.13.2a4.18,4.18,0,0,1,.37,3.65,8.23,8.23,0,0,1-4,4.55,12.38,12.38,0,0,1-3,1.24,13.5,13.5,0,0,1-3.93.58l.06,0Z"/>
      </g>
    </g>
    <g class="gaFace">
      <path d="M1675.93,861.63c8.5,14.71,22.37,20.17,34.66,13.08A21.17,21.17,0,0,0,1721.38,858a36.58,36.58,0,0,0-5-14.74c-4.21-7.29-10.45-13.34-18.09-16.49l-8.48,4.89-2-3.49-3.51,2,10.07,17.45,5.68-3.28-2.09-3.62,10-5.79a12.8,12.8,0,0,1,1.52,9c1.26,6.17-2.22,12.72-9.43,16.88-8.61,5-17.35,3.95-22.79-5.05v-5l2.5-7.38-2.36-4.08-9.74,5.63,1.76,3,3.49-2v5a7.05,7.05,0,0,0-.28,1.12A26.9,26.9,0,0,0,1675.93,861.63Z"/>
      <path d="M1733.15,754l.43.74v5l-24.68,29.73,8.88,15.38,39.73-7.22,2.56,4.43,4.13-2.39-5.9-10.22-4.13,2.39.28.49v5l-10.26,2.1-6.88-11.91v-5l7.54-8.26,2.27,3.93,3.51-2-14-24.19Zm4.63,41.72v5l-15,3v-5L1733,787.44Z"/>
      <g>
        <polygon points="1666.32 831.1 1672.56 827.5 1672.32 827.28 1673.26 823.12 1669.86 825.08 1661.66 817.59 1662.59 813.44 1659.23 815.38 1655.91 812.43 1649.47 816.02 1648.53 820.18 1651.92 818.22 1660.18 825.67 1659.25 829.83 1662.69 827.84 1666.32 831.1"/>
        <polygon points="1689.87 817.51 1696.22 813.84 1695.97 813.62 1696.91 809.46 1693.42 811.48 1685.19 804.01 1686.12 799.85 1682.78 801.78 1679.46 798.84 1673.02 802.42 1672.11 806.56 1675.57 804.56 1683.84 812.01 1682.91 816.16 1686.24 814.24 1689.87 817.51"/>
      </g>
      <g>
        <path d="M1705.93,755.29l-.55,3.56,3.89-2.24A4.92,4.92,0,0,1,1705.93,755.29Z"/>
        <path d="M1712,738.21a8.88,8.88,0,0,0-4-.44,16,16,0,0,0-6.32,2,10.63,10.63,0,0,0-4.37,5.4c-.07.2-.12.39-.17.59a7.62,7.62,0,0,0,.7,1.58,15.8,15.8,0,0,0,7.07,6.27s.4-4.13.36-4.2a4.21,4.21,0,0,1-.36-3.65,8.24,8.24,0,0,1,4-4.55,12.71,12.71,0,0,1,3-1.24,13.6,13.6,0,0,1,3.93-.58l0,0Z"/>
        <path d="M1725.85,743.79l.26,3.09,2.94-1.7Z"/>
      </g>
    </g>
  </g>
  <g class="c5_horizon">
    <g class="bottom">
      <path class="left" d="M1800,857.37v15a15,15,0,0,0,7.5,13l85,49.07a15,15,0,0,0,15,0L2000,881l92.5,53.4a15,15,0,0,0,15,0l85-49.07a15,15,0,0,0,7.5-13v-15Z"/>
      <g class="right">
        <path d="M2000,866l-100,55.41v15a15,15,0,0,0,7.5-2L2000,881V866"/>
        <path d="M2200,872.37a15,15,0,0,1-7.5,13l-85,49.07a15,15,0,0,1-7.5,2v-15l100-64.07Z"/>
      </g>
    </g>
    <path class="edge" d="M2092.5,697.15,2000,750.56l-92.5-53.41a15,15,0,0,0-15,0l-85,49.08a15,15,0,0,0-7.5,13v98.15a15,15,0,0,0,7.5,13l85,49.07a15,15,0,0,0,15,0L2000,866l92.5,53.4a15,15,0,0,0,15,0l85-49.07a15,15,0,0,0,7.5-13V759.22a15,15,0,0,0-7.5-13l-85-49.08A15,15,0,0,0,2092.5,697.15Z"/>
    <path class="face" d="M2092.5,701.77l-92.5,53.4-92.5-53.4a15,15,0,0,0-15,0l-81,46.76a15,15,0,0,0-7.5,13v93.53a15,15,0,0,0,7.5,13l81,46.76a15,15,0,0,0,15,0l92.5-53.4,92.5,53.4a15,15,0,0,0,15,0l81-46.76a15,15,0,0,0,7.5-13V761.53a15,15,0,0,0-7.5-13l-81-46.77A15,15,0,0,0,2092.5,701.77Z"/>
    <g class="dotsBottom">
      <path d="M1984.53,773.79v9a1.57,1.57,0,0,0,2.35,1.36l7.8-4.51a1.56,1.56,0,0,0,0-2.71l-7.8-4.51A1.57,1.57,0,0,0,1984.53,773.79Z"/>
      <path d="M1984.53,833.79v9a1.57,1.57,0,0,0,2.35,1.36l7.8-4.51a1.56,1.56,0,0,0,0-2.71l-7.8-4.51A1.57,1.57,0,0,0,1984.53,833.79Z"/>
      <path d="M2004.53,773.79v9a1.57,1.57,0,0,0,2.35,1.36l7.8-4.51a1.56,1.56,0,0,0,0-2.71l-7.8-4.51A1.57,1.57,0,0,0,2004.53,773.79Z"/>
      <path d="M1994.53,803.79v9a1.57,1.57,0,0,0,2.35,1.36l7.8-4.51a1.56,1.56,0,0,0,0-2.71l-7.8-4.51A1.57,1.57,0,0,0,1994.53,803.79Z"/>
      <path d="M2004.53,833.79v9a1.57,1.57,0,0,0,2.35,1.36l7.8-4.51a1.56,1.56,0,0,0,0-2.71l-7.8-4.51A1.57,1.57,0,0,0,2004.53,833.79Z"/>
    </g>
    <g class="dotsFace">
      <path d="M1986.88,784.16l5.82-3.37-5.82-3.36a1.57,1.57,0,0,0-2.35,1.36v4A1.57,1.57,0,0,0,1986.88,784.16Z"/>
      <path d="M1986.88,844.16l5.82-3.37-5.82-3.36a1.57,1.57,0,0,0-2.35,1.36v4A1.57,1.57,0,0,0,1986.88,844.16Z"/>
      <path d="M2006.88,784.16l5.82-3.37-5.82-3.36a1.57,1.57,0,0,0-2.35,1.36v4A1.57,1.57,0,0,0,2006.88,784.16Z"/>
      <path d="M1996.88,814.16l5.82-3.37-5.82-3.36a1.57,1.57,0,0,0-2.35,1.36v4A1.57,1.57,0,0,0,1996.88,814.16Z"/>
      <path d="M2006.88,844.16l5.82-3.37-5.82-3.36a1.57,1.57,0,0,0-2.35,1.36v4A1.57,1.57,0,0,0,2006.88,844.16Z"/>
    </g>
    <path class="cBottom" d="M1949.53,819.16h2.16v22.47c-12.52,9.07-29.23,13.39-46.07,13.39-34.28,0-57.32-18.87-57.32-46.51,0-28.37,22-47,55.88-47,12.67,0,22.75,3.46,30.09,9.36V764H1950V794.4h-13.68L1923,774.81c-18.29,0-31.54,14.4-31.54,34.42,0,21,11.24,33.12,26.35,33.12a31.31,31.31,0,0,0,12.1-2.16C1930,825.64,1938.88,819.16,1949.53,819.16Z"/>
    <path class="fBottom" d="M2051.83,853.58V825.21h9.94l13.39,18h21.74V811.67h-17.42v11.67h-9.65V790.07h9.65v11.24h17.42v-25.2h-9.07V763h60.34v13.11h-8.93v64.36h8.93v13.11Z"/>
    <path class="cFace" d="M1930,845.19a31.31,31.31,0,0,1-12.1,2.16c-15.11,0-26.35-12.1-26.35-33.12,0-.79,0-1.57.07-2.35s-.07-1.75-.07-2.65c0-20,13.25-34.42,31.54-34.42l13.25,19.59H1950V769h-15.7v6.91c-7.34-5.9-17.42-9.36-30.09-9.36-32.8,0-54.51,17.46-55.81,44.36,1.3,26.33,24,44.1,57.25,44.1,16.84,0,33.55-4.32,46.07-13.39V824.16h-2.16C1938.88,824.16,1930,830.64,1930,845.19Z"/>
    <polygon class="fFace" points="2087.83 776.11 2096.9 776.11 2096.9 781.11 2096.9 801.31 2096.9 806.31 2079.48 806.31 2079.48 801.31 2079.48 795.07 2069.83 795.07 2069.83 823.34 2079.48 823.34 2079.48 816.67 2079.48 811.67 2096.9 811.67 2096.9 816.67 2096.9 843.21 2096.9 848.21 2075.16 848.21 2061.77 830.21 2051.83 830.21 2051.83 853.58 2148.17 853.58 2148.17 845.47 2139.24 845.47 2139.24 840.47 2139.24 781.11 2139.24 776.11 2148.17 776.11 2148.17 768 2087.83 768 2087.83 776.11"/>
  </g>
  <g class="shadowLine">
    <path d="M706,224.39,608.5,168.1a15,15,0,0,0-15,0L496,224.39a15,15,0,0,0-7.5,13v98.15a15,15,0,0,1-7.5,13L396,397.6a15,15,0,0,0-7.5,13v98.15a15,15,0,0,1-7.5,13L296,570.8a15,15,0,0,0-7.5,13V696.38a15,15,0,0,0,7.5,13l97.5,56.29a15,15,0,0,0,15,0L506,709.37a15,15,0,0,0,7.5-13V598.23a15,15,0,0,1,7.5-13l85-49.08a15,15,0,0,0,7.5-13V425a15,15,0,0,1,7.5-13L706,363a15,15,0,0,0,7.5-13V237.38A15,15,0,0,0,706,224.39Z"/>
    <path d="M2106,570.8l-85-49.07a15,15,0,0,1-7.5-13V410.59a15,15,0,0,0-7.5-13l-85-49.08a15,15,0,0,1-7.5-13V237.38a15,15,0,0,0-7.5-13l-97.5-56.29a15,15,0,0,0-15,0L1696,224.39a15,15,0,0,0-7.5,13V350a15,15,0,0,0,7.5,13L1781,412a15,15,0,0,1,7.5,13v98.15a15,15,0,0,0,7.5,13l85,49.08a15,15,0,0,1,7.5,13v98.15a15,15,0,0,0,7.5,13l85,49.07a15,15,0,0,1,7.5,13v98.15a15,15,0,0,0,7.5,13l97.5,56.3a15,15,0,0,0,15,0l97.5-56.3a15,15,0,0,0,7.5-13V757a15,15,0,0,0-7.5-13l-85-49.08a15,15,0,0,1-7.5-13V583.79A15,15,0,0,0,2106,570.8Z"/>
    <g class="wide">
      <line x1="1101" y1="640.09" x2="1233.73" y2="640.09"/>
    </g>
  </g>
  <g class="shadow">
    <g class="text">
      <path class="sharp" d="M293,784.85l4.52-1.17V770h3v12.85l10.29-2.66V767.88h3.05v11.49l4.09-1.08V787l-4.09,1.09v12.39l4.09-1v8.66l-4.09,1.09V823h-3.05V810.05l-10.29,2.63v12.49h-3v-11.6L293,814.75V806l4.52-1.18v-12.5L293,793.51Zm17.85,4.07-10.29,2.6v12.56l10.29-2.67Z"/>
      <text transform="translate(260.19 826.71)">F</text>
      <g class="symbol">
        <text transform="translate(326.62 796.84)">o</text>
        <text transform="translate(2364.16 964.78)">7</text>
      </g>
      <text transform="translate(2237.54 994.76)">maj</text>
      <path class="flat" d="M2220.17,937v30.11a14.13,14.13,0,0,1,9.51-4c4.42-.07,7.8,4.08,7.8,8.38a11.43,11.43,0,0,1-3.29,8.46c-4,3.87-9.38,7.33-16.46,12.61V937Zm4.71,30.86c-4.15.17-4.73,4.71-4.71,11.85v8.09c.07.25,1.82-1.28,5.27-4.61a12.54,12.54,0,0,0,4-9C2229.49,971,2227.74,967.72,2224.88,967.84Z"/>
      <text transform="translate(2176.16 994.65)">B</text>
      <text transform="translate(265.25 320.44)">3 pts</text>
      <text transform="translate(2052.64 492.57)">4 pts</text>
    </g>
    <path d="M1301,640.09c-28.4,10.53-63.63,28.51-85.47,47.55l17.2-47.55-17.2-47.55C1237.37,611.58,1272.6,629.56,1301,640.09Z"/>
  </g>
  <g class="firstLine">
    <path d="M2105,565.8l-85-49.07a15,15,0,0,1-7.5-13V405.59a15,15,0,0,0-7.5-13l-85-49.08a15,15,0,0,1-7.5-13V232.38a15,15,0,0,0-7.5-13l-97.5-56.29a15,15,0,0,0-15,0L1695,219.39a15,15,0,0,0-7.5,13V345a15,15,0,0,0,7.5,13L1780,407a15,15,0,0,1,7.5,13v98.15a15,15,0,0,0,7.5,13l85,49.08a15,15,0,0,1,7.5,13v98.15a15,15,0,0,0,7.5,13l85,49.07a15,15,0,0,1,7.5,13v98.15a15,15,0,0,0,7.5,13l97.5,56.3a15,15,0,0,0,15,0l97.5-56.3a15,15,0,0,0,7.5-13V752a15,15,0,0,0-7.5-13l-85-49.08a15,15,0,0,1-7.5-13V578.79A15,15,0,0,0,2105,565.8Z"/>
    <path d="M705,219.39,607.5,163.1a15,15,0,0,0-15,0L495,219.39a15,15,0,0,0-7.5,13v98.15a15,15,0,0,1-7.5,13L395,392.6a15,15,0,0,0-7.5,13v98.15a15,15,0,0,1-7.5,13L295,565.8a15,15,0,0,0-7.5,13V691.38a15,15,0,0,0,7.5,13l97.5,56.29a15,15,0,0,0,15,0L505,704.37a15,15,0,0,0,7.5-13V593.23a15,15,0,0,1,7.5-13l85-49.08a15,15,0,0,0,7.5-13V420a15,15,0,0,1,7.5-13L705,358a15,15,0,0,0,7.5-13V232.38A15,15,0,0,0,705,219.39Z"/>
  </g>
  <g class="first">
    <g class="text">
      <path class="sharp" d="M292,779.85l4.52-1.17V765h3v12.85l10.29-2.66V762.88h3.05v11.49l4.09-1.08V782l-4.09,1.09v12.39l4.09-1v8.66l-4.09,1.09V818h-3.05V805.05l-10.29,2.63v12.49h-3v-11.6L292,809.75V801l4.52-1.18v-12.5L292,788.51Zm17.85,4.07-10.29,2.6v12.56l10.29-2.67Z"/>
      <text transform="translate(259.19 821.71)">F</text>
      <g class="symbol">
        <text transform="translate(325.62 791.84)">o</text>
        <text transform="translate(2363.16 959.78)">7</text>
      </g>
      <text transform="translate(2236.54 989.76)">maj</text>
      <path class="flat" d="M2219.17,932v30.11a14.13,14.13,0,0,1,9.51-4c4.42-.07,7.8,4.08,7.8,8.38a11.43,11.43,0,0,1-3.29,8.46c-4,3.87-9.38,7.33-16.46,12.61V932Zm4.71,30.86c-4.15.17-4.73,4.71-4.71,11.85v8.09c.07.25,1.82-1.28,5.27-4.61a12.54,12.54,0,0,0,4-9C2228.49,966,2226.74,962.72,2223.88,962.84Z"/>
      <text transform="translate(2175.16 989.65)">B</text>
    </g>
  </g>
  <g class="infoLine">
    <g class="wide">
      <line x1="1100" y1="635.09" x2="1231.73" y2="635.09"/>
    </g>
  </g>
  <g class="info">
    <g class="text">
      <text transform="translate(264.25 315.44)">3 pts</text>
      <text transform="translate(2051.64 487.57)">4 pts</text>
    </g>
    <path d="M1300,635.09c-28.4,10.53-63.63,28.51-85.47,47.55l17.2-47.55-17.2-47.55C1236.37,606.58,1271.6,624.56,1300,635.09Z"/>
  </g>
</svg>
